<?xml version="1.0" encoding="UTF-8"?>
<svg width="375px" height="122px" viewBox="0 0 375 122" version="1.1" xmlns="http://www.w3.org/2000/svg" xmlns:xlink="http://www.w3.org/1999/xlink">
    <path d="M342.613031,95.6136707 C333.675974,85.3506463 323.374334,75.1475073 311.771895,65.5604678 C277.374304,37.1379045 238.023833,19.2508272 194.190479,16.8424693 C138.029807,13.7568055 77.7910123,36.3949586 13.6556093,90.3635759 C10.1505795,93.3129861 4.91259354,92.8692404 1.95624034,89.372442 C-1.00011287,85.8756437 -0.555322558,80.6499591 2.9497073,77.7005489 C70.1688444,21.137033 134.474778,-3.02957888 195.103577,0.301579509 C242.845353,2.92467975 285.423857,22.2790856 322.36364,52.8022497 C333.382518,61.9070962 343.285801,71.5217767 352.047428,81.2480923 C352.055531,80.8124905 352.065882,80.375106 352.078446,79.9359713 C352.220201,74.9815992 352.645981,70.1448387 353.255453,65.6024181 C353.469659,64.005929 353.692512,62.5549117 353.911892,61.272314 C353.990172,60.8146541 354.063008,60.4080479 354.128895,60.0553937 C354.152888,59.9269768 354.166805,59.8539385 354.193767,59.7143245 C354.205054,59.6563855 354.205054,59.6563855 354.213323,59.6144529 C354.216874,59.5965219 354.216874,59.5965219 354.219635,59.5826608 L354.221893,59.5713605 C355.125839,55.078147 359.500621,52.1782369 363.994889,53.0860164 C368.489158,53.993796 371.401026,58.3655075 370.498728,62.8505073 L370.499322,62.8475523 C370.496419,62.8623124 370.496419,62.8623124 370.490568,62.892339 C370.474517,62.975417 370.46439,63.0285661 370.447612,63.1183675 C370.397013,63.389194 370.339032,63.7128695 370.275154,64.0863271 C370.088371,65.1783507 369.895567,66.4337172 369.708538,67.827654 C369.171622,71.829307 368.795661,76.1001406 368.671628,80.4351182 C368.333765,92.2435372 369.943596,102.16768 373.742653,108.379406 C378.229021,115.714937 369.957037,124.164911 362.508894,119.856764 L362.514153,119.859803 L362.525624,119.866404 C362.508024,119.856438 362.508024,119.856438 362.465524,119.83267 C362.375033,119.782254 362.260146,119.719499 362.121359,119.645233 C361.694429,119.41678 361.177621,119.152048 360.574942,118.857632 C348.292383,112.857441 332.499823,108.925942 315.536049,110.644989 C314.362672,110.763895 313.192034,110.910639 312.024411,111.085778 C307.492403,111.765565 303.260664,108.648264 302.572557,104.123093 C301.884451,99.5979213 305.000549,95.3784691 309.532558,94.6986825 C310.963851,94.4839932 312.397759,94.3042479 313.83383,94.1587215 C323.601195,93.168932 333.249035,93.7623454 342.613035,95.6136752 Z" id="arrow-375" fill="#000000"></path>
</svg>