<?xml version="1.0" encoding="UTF-8"?>
<svg width="282px" height="106px" viewBox="0 0 282 106" version="1.1" xmlns="http://www.w3.org/2000/svg" xmlns:xlink="http://www.w3.org/1999/xlink">
    <path d="M260.952401,64.4607028 C261.109202,62.1040907 261.32502,59.8014847 261.585783,57.5811752 C261.745685,56.219662 261.912027,54.9819392 262.075794,53.8875279 C262.134276,53.4967077 262.188711,53.1493332 262.237978,52.8478702 C262.26636,52.6754446 262.26636,52.6754446 262.286592,52.5556607 C262.295076,52.5058713 262.295076,52.5058713 262.301313,52.469707 C262.303998,52.4542086 262.303998,52.4542086 262.306094,52.4421746 L262.307817,52.4323204 C263.102119,47.9180685 267.402547,44.9097093 271.914358,45.705735 C276.42617,46.5017608 279.440835,50.8007328 278.647975,55.3067726 L278.648264,55.3051246 L278.648976,55.301061 L278.648376,55.3045224 C278.646332,55.3163681 278.646332,55.3163681 278.64206,55.3414337 C278.630279,55.4111516 278.630279,55.4111516 278.610416,55.5318002 C278.572976,55.760892 278.53003,56.0349531 278.482681,56.3513727 C278.344074,57.2776464 278.20091,58.342905 278.061956,59.5260559 C277.662898,62.9239058 277.383085,66.5507644 277.290093,70.2318347 C277.088728,78.2028822 277.806051,85.1688436 279.504627,90.2765992 C279.8373,90.9060784 280.080724,91.5602894 280.238987,92.2243088 C280.471632,92.7691642 280.718189,93.2862936 280.978762,93.7742752 C285.027745,101.356915 276.281322,109.312466 269.108368,104.593552 C269.088069,104.580481 269.087064,104.579845 269.033017,104.545681 C268.91494,104.471428 268.765111,104.379778 268.584475,104.27246 C268.028158,103.941947 267.359193,103.568945 266.585285,103.167183 C264.314448,101.988313 261.708636,100.852579 258.831632,99.8663918 C250.678118,97.07151 242.110539,96.0474959 233.553494,97.5213145 C229.039733,98.29874 224.746782,95.2726712 223.96492,90.7624007 C223.183058,86.2521301 226.20836,81.9656054 230.722122,81.1881799 C238.381302,79.8690046 245.935324,80.0188519 253.251065,81.3303369 C246.870069,73.0978929 239.570426,64.9314244 231.399241,57.2463094 C206.265508,33.6076806 177.617457,18.7854145 145.856058,16.7991091 C105.080943,14.2491009 61.1296529,33.0494719 14.03791,78.1538088 C10.7310419,81.3211177 5.47951719,81.2112854 2.30830122,77.9084916 C-0.862914752,74.6056977 -0.752946977,69.3606432 2.55392112,66.1933344 C52.7940603,18.0734724 101.128677,-2.6018873 146.892931,0.260133468 C182.987426,2.51742346 215.047603,19.1050953 242.773869,45.1820384 C249.375761,51.3912108 255.437836,57.8749191 260.952401,64.4607028 Z" id="arrow-282" fill="#000000"></path>
</svg>