<?xml version="1.0" encoding="UTF-8"?>
<svg width="368px" height="123px" viewBox="0 0 368 123" version="1.1" xmlns="http://www.w3.org/2000/svg" xmlns:xlink="http://www.w3.org/1999/xlink">
    <path d="M338.591737,100.793674 C338.48314,100.658885 338.374041,100.523761 338.264443,100.388304 C328.805562,88.6977367 317.647261,76.9955382 304.879939,66.0846851 C271.275941,37.3669729 232.852707,19.3032595 190.080333,16.8727163 C135.269389,13.7580805 76.4427989,36.622599 13.7634137,91.1722357 C10.3046028,94.182426 5.05760051,93.8220074 2.04390604,90.3672182 C-0.969788421,86.9124291 -0.608950273,81.6715277 2.84986061,78.6613375 C68.6357139,21.4081531 131.614342,-3.07016536 191.023943,0.305789458 C237.812392,2.96454645 279.516007,22.570448 315.680231,53.4761087 C328.898921,64.7726972 340.474585,76.8429204 350.361567,88.9448583 C350.175046,87.1586311 349.964455,85.3158139 349.730916,83.4236419 C349.141828,78.6507774 348.448858,73.8916918 347.715738,69.3773178 C347.459411,67.7989154 347.216704,66.3657171 346.995597,65.1061471 C346.918741,64.6683223 346.850256,64.2844253 346.79114,63.957996 C346.758811,63.7799522 346.758811,63.7799522 346.738285,63.6679804 C346.730328,63.6247144 346.730328,63.6247144 346.725509,63.5986291 L346.722698,63.5834473 C345.88365,59.075177 348.859476,54.7456383 353.369027,53.9111868 C357.878578,53.0767354 362.21418,56.0533609 363.052937,60.5600578 L363.053614,60.5636994 L363.054986,60.5710874 L363.05957,60.5958455 C363.066177,60.6316088 363.066177,60.6316088 363.075944,60.6847193 C363.100125,60.8166345 363.100125,60.8166345 363.136202,61.0153273 C363.200557,61.3706847 363.27427,61.7838856 363.356347,62.2514542 C363.589338,63.5787228 363.843804,65.0813605 364.111808,66.7316681 C364.87678,71.4421797 365.599562,76.4059944 366.216567,81.4050576 C368.034236,96.1320596 368.601088,108.066605 367.277979,116.069144 C366.440055,121.13715 361.240585,124.230908 356.379088,122.554138 C356.238212,122.505549 355.912785,122.397021 355.412838,122.236302 C354.547293,121.958054 353.527015,121.643 352.362072,121.298878 C348.999314,120.305526 345.176551,119.287845 340.974978,118.307476 C328.970358,115.50639 316.39664,113.579499 303.921247,113.006187 C299.339051,112.79561 295.79241,108.913642 295.999602,104.335569 C296.206794,99.7574962 300.08936,96.216941 304.671555,96.4275179 C316.11668,96.9534838 327.542496,98.5112196 338.591737,100.793674 Z" id="arrow-368" fill="#000000"></path>
</svg>