<?xml version="1.0" encoding="UTF-8"?>
<svg width="441px" height="139px" viewBox="0 0 441 139" version="1.1" xmlns="http://www.w3.org/2000/svg" xmlns:xlink="http://www.w3.org/1999/xlink">
    <path d="M409.735312,116.506335 C409.223952,115.887294 408.702921,115.261825 408.172245,114.630199 C396.69429,100.968804 383.155008,87.2946734 367.658106,74.5409067 C326.802727,40.917414 280.032977,19.7429289 227.902896,16.890183 C161.161976,13.2378794 89.6449457,40.0069045 13.6206618,103.723735 C10.11292,106.663614 4.88328061,106.206619 1.9399354,102.703008 C-1.00340981,99.1993972 -0.545875907,93.9759165 2.96186597,91.0360375 C82.0620096,24.7412931 157.627294,-3.54300474 228.81004,0.352371608 C284.826503,3.41779426 334.811577,26.0479817 378.202766,61.7584161 C394.529992,75.1955299 408.775635,89.5830573 420.874368,103.98332 C421.888741,105.190656 422.870816,106.377973 423.820467,107.543683 C423.483617,103.49544 423.009689,99.1151327 422.411787,94.4790525 C421.699165,88.953456 420.861037,83.4449501 419.974319,78.2195527 C419.664251,76.3923357 419.370616,74.7329663 419.10304,73.2742337 C419.009965,72.7668165 418.926992,72.3217105 418.855325,71.9430006 C418.816079,71.7361571 418.816079,71.7361571 418.791083,71.6056671 C418.78137,71.5551208 418.78137,71.5551208 418.775445,71.5244277 L418.771944,71.506334 C417.897994,67.0125008 420.833278,62.6672734 425.327536,61.7981754 C429.821795,60.9290774 434.173145,63.8652186 435.046627,68.356637 L435.049002,68.36887 L435.054427,68.396907 C435.062291,68.4376491 435.062291,68.4376491 435.073969,68.4984178 C435.10293,68.6496174 435.10293,68.6496174 435.146244,68.8779049 C435.223596,69.2866592 435.312243,69.7622017 435.410986,70.3005145 C435.691463,71.8295819 435.997866,73.5611042 436.320614,75.4630479 C437.241942,80.8923954 438.112469,86.6138372 438.855446,92.3748093 C441.037913,109.297451 441.718772,123.0183 440.141895,132.144172 C439.280628,137.128589 434.186884,140.180432 429.378066,138.593166 C429.194994,138.532739 428.788927,138.403142 428.171935,138.213326 C427.112332,137.887343 425.865674,137.518939 424.444066,137.117056 C420.34897,135.959387 415.69724,134.774262 410.586311,133.632965 C395.982165,130.371783 380.683607,128.127971 365.487188,127.459365 C360.913124,127.258116 357.365475,123.390334 357.563293,118.820431 C357.761111,114.250527 361.629486,110.709033 366.20355,110.910281 C380.90754,111.557221 395.598171,113.567803 409.735312,116.506335 Z" id="arrow-441" fill="#000000"></path>
</svg>