<?xml version="1.0" encoding="UTF-8"?>
<svg width="342px" height="117px" viewBox="0 0 342 117" version="1.1" xmlns="http://www.w3.org/2000/svg" xmlns:xlink="http://www.w3.org/1999/xlink">
    <path d="M319.794195,76.5760424 C319.958235,71.9512705 320.361734,67.4363262 320.920799,63.1871833 C321.123513,61.64647 321.333355,60.246079 321.539184,59.0082458 C321.612608,58.5666801 321.68082,58.1744175 321.742435,57.8342657 C321.76486,57.7104694 321.777863,57.6400417 321.803019,57.5055591 C321.813541,57.4497837 321.813541,57.4497837 321.821235,57.4094726 C321.824537,57.3922497 321.824537,57.3922497 321.827099,57.378959 L321.829191,57.3681426 L321.830489,57.3614577 C322.707782,52.8542513 327.067703,49.9099934 331.56887,50.7841244 C336.070036,51.6582554 339.007947,56.0197596 338.131084,60.5247599 C338.128594,60.5378648 338.128594,60.5378648 338.123077,60.5671054 C338.107968,60.6478462 338.098454,60.699372 338.082677,60.7864682 C338.035146,61.0488661 337.980635,61.3623397 337.920511,61.723922 C337.744773,62.7807974 337.562759,63.995468 337.385335,65.3439732 C336.876023,69.2149717 336.512089,73.3453139 336.377462,77.5367204 C336.011072,88.9437231 337.429867,98.5336058 340.841456,104.482821 C345.111851,111.929644 336.664342,120.179003 329.335913,115.736018 C329.320415,115.726776 329.319662,115.726334 329.277582,115.701608 C329.185206,115.647549 329.067463,115.580125 328.924917,115.500326 C328.484542,115.253798 327.951389,114.969407 327.330018,114.655033 C316.516957,109.184306 302.774856,105.650171 288.03917,107.141094 C286.740532,107.272487 285.445234,107.443985 284.153696,107.656598 C279.628066,108.401607 275.358979,105.333918 274.618423,100.804722 C273.877868,96.2755261 276.946277,91.9999378 281.471907,91.2549283 C283.105705,90.9859724 284.742882,90.7692101 286.382613,90.6033058 C294.932754,89.7382219 303.124264,90.2083851 310.790174,91.6428065 C302.725965,81.9155477 293.438952,72.2480588 282.988462,63.1645817 C251.910656,36.1520175 216.395719,19.1703341 176.885604,16.8868139 C126.233952,13.9593593 71.8302783,35.4660303 13.8009194,86.8315259 C10.3657646,89.872201 5.11913064,89.5489469 2.08223445,86.1095176 C-0.954661745,82.6700883 -0.63180936,77.4169257 2.80334543,74.3762506 C63.9460783,20.2549087 122.53626,-2.90675786 177.842464,0.2897106 C221.414363,2.80798499 260.229916,21.3678783 293.873315,50.6104336 C303.448224,58.9328631 312.094918,67.6983977 319.794195,76.5760424 Z" id="arrow-342" fill="#000000"></path>
</svg>