<?xml version="1.0" encoding="UTF-8"?>
<svg width="386px" height="141px" viewBox="0 0 386 141" version="1.1" xmlns="http://www.w3.org/2000/svg" xmlns:xlink="http://www.w3.org/1999/xlink">
    <path d="M362.846687,95.0849073 C362.933957,90.1957672 363.241578,85.2805957 363.721264,80.434794 C363.993859,77.681018 364.304353,75.141404 364.628116,72.869827 C364.742681,72.0660168 364.851292,71.3501119 364.950892,70.7289201 C364.98662,70.5060943 365.018942,70.3095566 365.047478,70.1401612 C365.078065,69.9602197 365.078065,69.9602197 365.08866,69.8998477 C365.885946,65.3727016 370.195162,62.3446167 374.713564,63.1364308 C379.231965,63.9282449 382.248525,68.2401142 381.451239,72.7672603 C381.451111,72.7677838 381.451111,72.7677838 381.431112,72.8853592 C381.409823,73.0117405 381.384632,73.1649144 381.355919,73.3439948 C381.271403,73.8711065 381.177297,74.4914021 381.07662,75.1977678 C380.785406,77.2409793 380.503716,79.5450008 380.255515,82.0523368 C379.547644,89.2032786 379.253383,96.5042074 379.553788,103.474524 C379.894118,111.371233 380.984962,118.253256 382.852699,123.727313 C383.220322,124.411363 383.482695,125.12532 383.645005,125.850022 C384.054461,126.853763 384.494267,127.8007 384.964626,128.687818 C389.00648,136.31094 380.202893,144.308274 373.024213,139.5347 C373.027353,139.536787 372.982258,139.507543 372.890198,139.449395 C372.703252,139.331314 372.47177,139.189102 372.197033,139.025182 C371.371818,138.532823 370.388168,137.982113 369.256467,137.392321 C365.963377,135.676108 362.194949,134.028122 358.0364,132.599038 C346.222327,128.539134 333.775234,127.057518 321.290245,129.23389 C316.768838,130.022058 312.471151,126.990501 311.691093,122.462719 C310.911036,117.934937 313.943999,113.625507 318.465407,112.83734 C331.657432,110.537717 344.639434,111.508111 357.023777,114.877611 C356.802787,114.574894 356.579811,114.270701 356.35485,113.965064 C346.344824,100.365191 334.540437,86.7564921 321.038565,74.0724786 C285.552463,40.7359039 245.012936,19.7853465 199.955682,16.9707995 C142.223778,13.3645178 80.194186,39.8672778 14.039875,103.1564 C10.7219267,106.330646 5.46473756,106.208103 2.29761447,102.882693 C-0.869508609,99.5572828 -0.747240573,94.2882706 2.57070777,91.1140248 C71.8753362,24.8110272 138.282088,-3.5619178 200.988944,0.355129395 C250.368242,3.43965725 294.317703,26.1524458 332.398034,61.926107 C343.701,72.5444099 353.858923,83.7510219 362.846687,95.0849073 Z" id="arrow-386" fill="#000000"></path>
</svg>