<?xml version="1.0" encoding="UTF-8"?>
<svg width="392px" height="136px" viewBox="0 0 392 136" version="1.1" xmlns="http://www.w3.org/2000/svg" xmlns:xlink="http://www.w3.org/1999/xlink">
    <path d="M368.73296,90.6348683 C368.837101,86.1586794 369.139732,81.6680927 369.598975,77.2407162 C369.873263,74.5964181 370.185693,72.1583821 370.511564,69.977675 C370.626981,69.2053055 370.736457,68.5171363 370.836929,67.9196265 C370.87304,67.7048693 370.905745,67.5152583 370.93466,67.3516041 C370.951377,67.2573871 370.951377,67.2573871 370.963275,67.1913472 C370.968285,67.1636866 370.968285,67.1636866 370.972019,67.1432227 C370.975103,67.1263825 370.975103,67.1263825 370.976864,67.1168406 C371.809358,62.6104723 376.141648,59.6348379 380.653303,60.470575 C385.163721,61.3060829 388.145871,65.6345684 387.315697,70.1396037 L387.312864,70.1552259 C387.306719,70.1893202 387.306719,70.1893202 387.295787,70.2509204 C387.27478,70.3698182 387.249858,70.5143059 387.221402,70.6835394 C387.137393,71.183146 387.043747,71.7718067 386.943486,72.4427436 C386.653134,74.3857695 386.372135,76.5785335 386.124466,78.9662095 C385.418177,85.7752515 385.12432,92.7335752 385.423162,99.3816627 C385.702625,105.598635 386.49153,111.156748 387.802778,115.847819 C388.189556,116.434549 388.548109,116.986623 388.878335,117.50266 C389.320254,118.193239 389.627404,118.68706 389.79872,118.970148 C390.706221,120.469737 391.082564,122.141678 390.981717,123.767421 C394.988525,131.228763 386.473359,139.231703 379.239446,134.692336 L379.234375,134.689199 C379.205655,134.671512 379.205655,134.671512 379.142611,134.633269 C379.012845,134.554883 378.850362,134.458947 378.655931,134.346851 C378.065804,134.006624 377.356729,133.618166 376.534937,133.192565 C364.00775,126.704806 348.305643,122.490661 331.503056,123.980704 C329.744514,124.13665 327.991176,124.35693 326.243825,124.643447 C321.717241,125.38568 317.442095,122.320998 316.695019,117.798288 C315.947943,113.275579 319.011839,109.0075 323.538422,108.265267 C325.693691,107.911863 327.854433,107.640399 330.019176,107.448431 C341.439865,106.435651 352.676674,107.633619 363.488319,110.524228 C363.454457,110.480704 363.42055,110.43715 363.386599,110.393565 C353.188059,97.3011435 341.159565,84.1982629 327.397923,71.9826498 C291.187686,39.8403921 249.790114,19.6253752 203.724767,16.9064299 C144.710753,13.423207 81.3673687,38.9958595 13.8841734,99.9985369 C10.4822792,103.073742 5.22817877,102.812635 2.14881169,99.4153393 C-0.9305554,96.0180432 -0.66909552,90.7710444 2.73279867,87.6958395 C73.3444972,23.8650939 140.936756,-3.42289114 204.705171,0.340953928 C254.914058,3.30446609 299.649582,25.1494519 338.437339,59.5796625 C349.646677,69.5297055 359.753366,80.0178619 368.73296,90.6348683 Z" id="arrow-392" fill="#000000"></path>
</svg>