<?xml version="1.0" encoding="UTF-8"?>
<svg width="238px" height="492px" viewBox="0 0 238 492" version="1.1" xmlns="http://www.w3.org/2000/svg" xmlns:xlink="http://www.w3.org/1999/xlink">
    <!-- Generator: Sketch 52.5 (67469) - http://www.bohemiancoding.com/sketch -->
    <title>Slice</title>
    <desc>Created with Sketch.</desc>
    <g id="Page-1" stroke="none" stroke-width="1" fill="none" fill-rule="evenodd">
        <path d="M341.78877,340.692899 C334.419106,321.271931 318.899211,295.377122 298.737525,270.484544 C271.180983,236.461923 237.424736,206.831124 200.291273,186.082279 C156.530039,161.630074 109.728651,150.295104 61.0153199,154.592429 C4.9540517,159.537964 -52.6587832,185.060799 -111.171803,233.691223 C-114.697163,236.621165 -119.930218,236.138483 -122.86016,232.613124 C-125.790102,229.087764 -125.30742,223.854708 -121.782061,220.924766 C-60.7791971,170.225022 -0.0311670076,143.313276 59.5565892,138.056646 C111.755306,133.451853 161.841793,145.582451 208.38845,171.59105 C247.476576,193.43209 282.815873,224.45247 311.637116,260.03655 C327.323386,279.403567 340.399012,299.431353 349.417133,317.19125 C347.05556,299.02965 347.094746,283.924195 349.21629,267.574624 C349.806166,263.028772 353.969495,259.821821 358.515347,260.411697 C363.061199,261.001573 366.26815,265.164902 365.678274,269.710754 C362.613794,293.327026 364.290581,314.117124 372.140206,348.77988 C373.277796,353.803307 369.612964,358.639181 364.469061,358.902225 C364.169154,358.917561 363.673042,358.934509 362.990594,358.945643 C361.910255,358.963269 360.663659,358.960186 359.260661,358.928929 C355.31649,358.841058 350.867484,358.550576 345.992459,357.997123 C330.853089,356.278374 314.925315,352.452616 299.008316,345.899827 C294.769506,344.154773 292.747918,339.303893 294.492972,335.065083 C296.238026,330.826274 301.088906,328.804685 305.327716,330.54974 C317.616171,335.608712 329.935076,338.877066 341.78877,340.692899 Z" id="Combined-Shape" fill="#F34F3F" fill-rule="nonzero" transform="translate(123.785527, 248.027591) scale(-1, -1) rotate(-87.000000) translate(-123.785527, -248.027591) "></path>
    </g>
</svg>