<?xml version="1.0" encoding="UTF-8"?>
<svg width="203px" height="311px" viewBox="0 0 203 311" version="1.1" xmlns="http://www.w3.org/2000/svg" xmlns:xlink="http://www.w3.org/1999/xlink">
    <!-- Generator: Sketch 52.5 (67469) - http://www.bohemiancoding.com/sketch -->
    <title>Slice</title>
    <desc>Created with Sketch.</desc>
    <g id="Page-1" stroke="none" stroke-width="1" fill="none" fill-rule="evenodd">
        <path d="M224.361923,178.619118 C224.543232,174.490341 224.930318,170.463519 225.45432,166.659096 C225.65754,165.183658 225.868062,163.842135 226.074743,162.6556 C226.14859,162.231648 226.217266,161.854688 226.279387,161.527384 C226.302067,161.407886 226.315203,161.339993 226.340768,161.209556 C226.3515,161.155268 226.3515,161.155268 226.359411,161.115721 C226.362821,161.098743 226.362821,161.098743 226.365494,161.085512 L226.367697,161.07464 L226.368586,161.070269 C227.285484,156.575131 231.669235,153.676756 236.160714,154.592908 C240.652193,155.50906 243.550569,159.892811 242.634641,164.383189 C242.632843,164.392264 242.632843,164.392264 242.627577,164.418896 C242.612984,164.493315 242.603662,164.541499 242.588244,164.622734 C242.541513,164.868952 242.487809,165.16373 242.428496,165.504239 C242.254719,166.501878 242.07463,167.649467 241.899067,168.924114 C241.394892,172.584584 241.03516,176.49071 240.903261,180.45247 C240.545813,191.188922 241.948128,200.19037 245.288852,205.735321 C249.719419,213.089201 241.43501,221.507755 234.010917,217.195873 C234.019379,217.200787 233.98545,217.181573 233.910238,217.140097 C233.751754,217.052701 233.554106,216.946715 233.318408,216.823998 C232.604915,216.452518 231.751942,216.036026 230.768502,215.589322 C227.896228,214.284662 224.603822,213.031955 220.964831,211.947008 C210.597164,208.855939 199.647988,207.751471 188.652172,209.470985 C184.12325,210.179213 179.877701,207.081929 179.169473,202.553007 C178.461245,198.024085 181.558529,193.778536 186.087451,193.070308 C196.087796,191.506464 205.947064,191.813417 215.454583,193.565537 C207.494426,184.458355 198.352332,175.412641 188.083789,166.903078 C157.007293,141.149921 121.471227,124.94966 81.9017376,122.769241 C31.1789628,119.974236 -23.2611794,140.492811 -81.2812535,189.45772 C-84.784426,192.414154 -90.0209719,191.970935 -92.977406,188.467763 C-95.9338401,184.96459 -95.4906211,179.728044 -91.9874485,176.77161 C-30.8841723,125.204692 27.6233262,103.153125 82.8150709,106.194386 C126.293615,108.590208 165.057638,126.262037 198.675875,154.12154 C208.151777,161.97424 216.720194,170.24213 224.361923,178.619118 Z" id="Combined-Shape" fill="#FFE106" fill-rule="nonzero" transform="translate(75.798205, 162.144264) scale(1, -1) rotate(-62.000000) translate(-75.798205, -162.144264) "></path>
    </g>
</svg>