<?xml version="1.0" encoding="UTF-8"?>
<svg width="146px" height="152px" viewBox="0 0 146 152" version="1.1" xmlns="http://www.w3.org/2000/svg" xmlns:xlink="http://www.w3.org/1999/xlink">
    <!-- Generator: Sketch 52.5 (67469) - http://www.bohemiancoding.com/sketch -->
    <title>icon-question</title>
    <desc>Created with Sketch.</desc>
    <g id="Page-1" stroke="none" stroke-width="1" fill="none" fill-rule="evenodd">
        <g id="row-3" transform="translate(-584.000000, 0.000000)">
            <g id="icon-question" transform="translate(608.000000, 27.000000)">
                <path d="M0,48.0857838 C0,21.8418171 22,0 50.26,0 C76.64,0 98,21.8616913 98,48.0857838 C98,76.1581829 76.64,98 50.26,98 C21.98,98 7.10542736e-15,76.1383087 7.10542736e-15,48.0857838" id="Path" fill="#0073E3"></path>
                <path d="M36.76,88.31 C35.7303629,88.3234752 34.7386727,87.9217777 34.0086679,87.1955358 C33.2786632,86.469294 32.8718461,85.479693 32.88,84.45 L32.88,74.9 L30.81,74.9 C24.4847224,74.8944806 19.3599976,69.76528 19.36,63.44 L19.36,32.01 C19.3599976,25.68472 24.4847224,20.5555194 30.81,20.55 L36.05,20.55 C36.7708544,20.4980107 37.4603465,20.8531211 37.8366253,21.470169 C38.2129041,22.0872169 38.2129041,22.8627831 37.8366253,23.479831 C37.4603465,24.0968789 36.7708544,24.4519893 36.05,24.4 L30.81,24.4 C26.6133028,24.4110114 23.215493,27.813292 23.21,32.01 L23.21,63.44 C23.215509,67.6350801 26.6149199,71.034491 30.81,71.04 L36.73,71.04 L36.73,84.45 L50.8,71.04 L76.88,71.04 C81.0789848,71.0400036 84.4844823,67.6389812 84.49,63.44 L84.23,31.98 C84.2300036,27.7423553 80.7976411,24.3055178 76.56,24.3 C75.4940904,24.3 74.63,23.4359096 74.63,22.37 C74.63,21.3040904 75.4940904,20.44 76.56,20.44 C82.9216523,20.451023 88.0744968,25.6083405 88.08,31.97 L88.34,63.42 C88.3400096,69.7524266 83.212417,74.8889679 76.88,74.9 L52.34,74.9 L39.44,87.24 C38.7152209,87.9244669 37.7568907,88.3070838 36.76,88.31 Z" id="Path" fill="#000000"></path>
                <path d="M54.31,54.56 C53.2611537,54.5656901 52.4018359,53.7286344 52.38,52.68 L52.38,44.41 C52.3901297,43.8859445 52.6055837,43.3868095 52.98,43.02 C53.3569043,42.6566135 53.8670522,42.4648558 54.39,42.49 C56.066942,42.5728106 57.7475518,42.4383618 59.39,42.09 C63.64,40.86 65.05,36.65 64.57,33.25 C64.01,29.31 60.7,24.7 53.2,24.7 C52.13,24.7 50.78,24.7 49.05,24.63 C46.05,24.55 41.88,24.44 36.05,24.44 C35.0405816,24.3671989 34.2588344,23.5270403 34.2588344,22.515 C34.2588344,21.5029597 35.0405816,20.6628011 36.05,20.59 C41.92,20.59 46.05,20.7 49.15,20.77 C50.84,20.82 52.15,20.85 53.2,20.85 C62.53,20.85 67.55,26.85 68.38,32.71 C69.25,38.81 65.99,44.19 60.46,45.79 C59.0762096,46.1373295 57.6565996,46.3219123 56.23,46.34 L56.23,52.68 C56.20823,53.7247334 55.3549601,54.5602268 54.31,54.56 Z" id="Path" fill="#000000"></path>
                <circle id="Oval" fill="#000000" cx="54.41" cy="61.05" r="2.29"></circle>
            </g>
        </g>
    </g>
</svg>