<?xml version="1.0" encoding="UTF-8"?>
<svg width="18px" height="18px" viewBox="0 0 18 18" version="1.1" xmlns="http://www.w3.org/2000/svg" xmlns:xlink="http://www.w3.org/1999/xlink">
    <!-- Generator: Sketch 52.5 (67469) - http://www.bohemiancoding.com/sketch -->
    <title>arrow</title>
    <desc>Created with Sketch.</desc>
    <g id="Page-1" stroke="none" stroke-width="1" fill="none" fill-rule="evenodd">
        <path d="M8.31242198,0.564783176 L7.89725671,0.976092422 C7.57945964,1.29093782 7.57706683,1.80379587 7.89191223,2.12159294 C7.89351529,2.12321102 7.89512516,2.12482234 7.89674181,2.12642684 L13.5125031,7.7 L0.81,7.7 C0.362649353,7.7 -1.49807459e-15,8.06264935 -1.44328993e-15,8.51 L-2.10942375e-15,9.09 C-2.05463909e-15,9.53735065 0.362649353,9.9 0.81,9.9 L13.5125031,9.9 L7.89674181,15.4735732 C7.57922672,15.7887029 7.57729304,16.3015629 7.89242281,16.619078 C7.89402731,16.6206946 7.89563863,16.6223045 7.89725671,16.6239076 L8.31242198,17.0352168 C8.6281242,17.3479868 9.1368758,17.3479868 9.45257802,17.0352168 L17.765,8.8 L9.45257802,0.564783176 C9.1368758,0.252013176 8.6281242,0.252013176 8.31242198,0.564783176 Z" id="arrow" fill="#24DBC3"></path>
    </g>
</svg>