<?xml version="1.0" encoding="UTF-8"?>
<svg width="146px" height="152px" viewBox="0 0 146 152" version="1.1" xmlns="http://www.w3.org/2000/svg" xmlns:xlink="http://www.w3.org/1999/xlink">
    <!-- Generator: Sketch 52.5 (67469) - http://www.bohemiancoding.com/sketch -->
    <title>icon-two-faces</title>
    <desc>Created with Sketch.</desc>
    <g id="Page-1" stroke="none" stroke-width="1" fill="none" fill-rule="evenodd">
        <g id="row-1" transform="translate(-292.000000, 0.000000)">
            <g id="icon-two-faces" transform="translate(316.000000, 27.000000)">
                <path d="M0,48.0906602 C0,21.844032 22,0 50.26,0 C76.63,0 98,21.8639083 98,48.0906602 C98,76.1659061 76.63,98 50.26,98 C21.97,98 0,76.1360917 0,48.0906602" id="Path" fill="#0073E3"></path>
                <path d="M77.58,35.68 C78.603657,35.9269105 79.2343703,36.9557337 78.99,37.98 C77.93,42.65 77.33,45.42 76.76,48.09 C76.33,50.09 75.88,52.22 75.22,55.15 C77.8423396,54.7229595 80.5323039,55.0705001 82.96,56.15 C83.9320714,56.5751178 84.378728,57.7051591 83.96,58.68 C83.7640834,59.1466526 83.3891909,59.5152326 82.919279,59.7031974 C82.4493671,59.8911622 81.9237,59.8828059 81.46,59.68 C78.8953836,58.6566129 76.0396778,58.6351951 73.46,59.62 C72.7920982,59.9202145 72.0104251,59.8029636 71.46,59.32 C70.9103502,58.8548969 70.6671252,58.1213613 70.83,57.42 C71.89,52.77 72.48,50.01 73.05,47.34 C73.62,44.67 74.22,41.87 75.3,37.18 C75.3906908,36.6718992 75.6862862,36.22343 76.117471,35.9397559 C76.5486557,35.6560817 77.0775025,35.5621546 77.58,35.68" id="Path" fill="#231F20"></path>
                <path d="M89.96,27.6 C86.24,27.6 83.22,30.91 83.22,34.98 C83.22,39.05 86.22,42.36 89.96,42.36 C93.7,42.36 96.69,39.05 96.69,34.98 C96.69,30.91 93.69,27.6 89.96,27.6 M89.96,38.53 C88.35,38.53 87.04,36.94 87.04,34.98 C87.04,33.02 88.35,31.43 89.96,31.43 C91.57,31.43 92.87,33.02 92.87,34.98 C92.87,36.94 91.56,38.53 89.96,38.53" id="Shape" fill="#231F20" fill-rule="nonzero"></path>
                <path d="M65.24,27.75 C61.52,27.75 58.5,31.06 58.5,35.13 C58.5,39.2 61.5,42.51 65.24,42.51 C68.98,42.51 71.97,39.2 71.97,35.13 C71.97,31.06 68.97,27.75 65.24,27.75 M65.24,38.68 C63.63,38.68 62.33,37.09 62.33,35.13 C62.33,33.17 63.63,31.58 65.24,31.58 C66.85,31.58 68.15,33.17 68.15,35.13 C68.15,37.09 66.84,38.68 65.24,38.68" id="Shape" fill="#231F20" fill-rule="nonzero"></path>
                <path d="M74.04,78.5 C73.23,78.5 72.4,78.5 71.53,78.41 C71.0582991,78.3793039 70.618474,78.1612045 70.3085318,77.8043013 C69.9985896,77.4473982 69.8442843,76.9813474 69.88,76.51 C69.9546426,75.5325039 70.8016904,74.7969098 71.78,74.86 C80.09,75.47 84.52,72.7 86.78,70.18 C75.43,73.24 64.78,68.91 60.24,65.79 C59.6391266,65.4675227 59.2753073,64.8300961 59.3032239,64.148729 C59.3311406,63.4673619 59.7458856,62.8618342 60.3711256,62.5895926 C60.9963655,62.3173511 61.7221874,62.4262539 62.24,62.87 C65.89,65.4 77.99,70.75 89.99,65.24 C90.6017138,64.9615575 91.3183534,65.0535971 91.8398531,65.4775806 C92.3613529,65.9015641 92.5977259,66.5843316 92.45,67.24 C92.47,67.41 89.44,78.5 74.04,78.5 Z" id="Path" fill="#231F20"></path>
                <path d="M20.83,36.05 C19.8098165,36.3016739 19.1814506,37.3266681 19.42,38.35 C20.48,43.02 21.07,45.79 21.64,48.46 C22.07,50.46 22.52,52.58 23.17,55.46 C20.5638868,55.0434578 17.8929074,55.3907893 15.48,56.46 C14.530867,56.9122203 14.0939065,58.0221 14.48,59 C14.777007,59.6870683 15.4515072,60.1341208 16.2,60.14 C16.4631133,60.1432722 16.7233558,60.0850601 16.96,59.97 C19.5081313,58.9508043 22.3467757,58.9293806 24.91,59.91 C25.5609683,60.2016373 26.32207,60.0884478 26.86,59.62 C27.3944768,59.1407447 27.6310982,58.411798 27.48,57.71 C26.43,53.06 25.84,50.3 25.27,47.64 C24.7,44.98 24.11,42.17 23.04,37.47 C22.937478,36.9785035 22.6406123,36.5493289 22.2168757,36.2800208 C21.7931391,36.0107126 21.2785261,35.9241474 20.79,36.04" id="Path" fill="#231F20"></path>
                <path d="M7.73,27.05 C11.42,27.05 14.42,30.36 14.42,34.43 C14.42,38.5 11.42,41.81 7.73,41.81 C4.04,41.81 1.04,38.5 1.04,34.43 C1.04,30.36 4.04,27.05 7.73,27.05 M7.73,37.98 C9.32,37.98 10.62,36.39 10.62,34.43 C10.62,32.47 9.32,30.88 7.73,30.88 C6.14,30.88 4.84,32.47 4.84,34.43 C4.84,36.39 6.13,37.98 7.73,37.98" id="Shape" fill="#231F20" fill-rule="nonzero"></path>
                <path d="M34.17,27.35 C37.86,27.35 40.86,30.66 40.86,34.73 C40.86,38.8 37.86,42.11 34.17,42.11 C30.48,42.11 27.48,38.8 27.48,34.73 C27.48,30.66 30.48,27.35 34.17,27.35 M34.17,38.28 C35.77,38.28 37.06,36.68 37.06,34.73 C37.06,32.78 35.77,31.18 34.17,31.18 C32.57,31.18 31.28,32.77 31.28,34.73 C31.28,36.69 32.58,38.28 34.17,38.28" id="Shape" fill="#231F20" fill-rule="nonzero"></path>
                <path d="M25.96,81.99 L25.7,81.99 C8.58,79.53 5.58,63.76 5.58,63.6 C5.4490997,62.8798789 5.7749333,62.1534645 6.39979718,61.7723419 C7.02466106,61.3912192 7.81965437,61.4340086 8.4,61.88 C18.86,69.8 31.74,67.13 35.82,65.43 C36.4041292,65.1852731 37.0744472,65.2707653 37.5784515,65.6542726 C38.0824559,66.0377799 38.3435764,66.6610384 38.2634515,67.2892726 C38.1833267,67.9175068 37.7741292,68.4552731 37.19,68.7 C32.19,70.79 20.98,72.7 10.64,67.46 C12.64,71.55 17,77.15 26.19,78.46 C27.1404719,78.5555783 27.8436251,79.3881157 27.7788274,80.3411809 C27.7140298,81.2942461 26.904662,82.0239493 25.95,81.99 L25.96,81.99 Z" id="Path" fill="#231F20"></path>
            </g>
        </g>
    </g>
</svg>