<?xml version="1.0" encoding="UTF-8"?>
<svg width="146px" height="152px" viewBox="0 0 146 152" version="1.1" xmlns="http://www.w3.org/2000/svg" xmlns:xlink="http://www.w3.org/1999/xlink">
    <!-- Generator: Sketch 52.5 (67469) - http://www.bohemiancoding.com/sketch -->
    <title>icon-megaphone</title>
    <desc>Created with Sketch.</desc>
    <g id="Page-1" stroke="none" stroke-width="1" fill="none" fill-rule="evenodd">
        <g id="row-4" transform="translate(-584.000000, 0.000000)">
            <g id="icon-megaphone" transform="translate(608.000000, 27.000000)">
                <path d="M0,48.0859953 C0,21.8418618 21.9786055,0 50.2608436,0 C76.6353264,0 98,21.8418618 98,48.0859953 C98,76.158526 76.6353264,98 50.2608436,98 C21.9786055,98 0,76.158526 0,48.0859953" id="Fill-1" fill="#0073E3"></path>
                <path d="M28.8191285,59.622533 C29.459547,61.27875 30.14993,63.7336765 29.8025575,66.0240465 C29.7260245,66.534289 29.52458,66.767509 29.4397195,66.800657 C29.3849965,66.8211775 29.156984,66.781321 28.831421,66.520872 C27.4974475,65.4554 26.2380239,63.1456935 25.6999138,62.158751 C24.8287068,60.5609375 24.1938399,58.95681 23.8139508,57.3893825 C23.4673714,55.958493 23.1624292,53.707585 24.0617908,52.0343995 C24.586815,52.662633 25.1415799,53.3855755 25.818877,54.2947785 C27.1131964,56.029919 28.1224005,57.8226745 28.8191285,59.622533 M73.0988105,13.8490672 C71.2612255,13.2318827 68.4346605,13.1142862 65.422513,16.0609081 C55.079061,26.1888113 37.9832585,38.6568066 24.4044048,46.0089579 C23.9253797,45.6080247 23.3963901,45.1885444 22.7944364,44.7280238 C21.80268,43.9687763 20.3790873,44.1530635 19.6161367,45.1415848 C18.8527897,46.1293167 19.0391653,47.5456052 20.0317148,48.3048527 C20.2811409,48.4958484 20.5158949,48.6781625 20.7371664,48.8529788 C18.9757183,51.2226675 18.472504,54.594689 19.4075546,58.448146 C19.8798385,60.3963815 20.656668,62.3686885 21.7154403,64.310215 C22.8194186,66.334612 24.190271,68.598937 25.9945459,70.040481 C27.5716012,71.297738 29.4286165,71.6505275 31.0901355,71.002563 C32.7821885,70.3447325 33.976579,68.7350805 34.285883,66.697267 C34.6776685,64.112511 34.2505905,61.106696 33.0498555,58.002226 C32.20601,55.820771 30.9981375,53.668912 29.459547,51.6062375 C28.806439,50.730972 28.245726,49.9981639 27.7107881,49.3470421 C41.4256565,41.7470699 58.2843255,29.3797025 68.602002,19.2774497 C70.2143495,17.698578 71.1918305,17.9862555 71.561013,18.0959596 C74.59735,18.9933238 79.0842445,26.363233 82.264527,40.8039299 C85.5391865,55.6712105 84.7187375,65.6613915 83.3744535,66.8365675 C82.372387,67.5374115 78.870111,66.847222 75.164804,66.117966 C68.4398155,64.794413 58.277981,62.79685 44.979087,64.612888 C43.303292,64.8413725 41.950284,65.6314005 41.0655945,66.8957605 C40.0900965,68.2907395 39.794275,70.1395305 40.231663,72.1007885 C40.9525795,75.329563 42.4388265,78.2911805 43.8751085,81.155327 C44.2462735,81.8940545 44.614663,82.6276515 44.9636215,83.3561185 C45.1269975,83.6970695 45.3435105,84.108263 45.585799,84.566416 C47.1025795,87.4337195 47.732688,89.1787255 47.47771,89.7189595 C47.1592855,90.254063 45.6956415,92.21098 44.369599,92.002621 C43.6272685,91.886603 39.7248795,90.443875 35.806629,73.349758 C35.528255,72.135515 34.3132445,71.371532 33.0926825,71.652106 C31.8725165,71.929129 31.108773,73.138637 31.3867505,74.3528805 C34.6681515,88.668483 38.580454,95.694284 43.699836,96.463792 C43.9960545,96.5087785 44.2871175,96.529693 44.5726295,96.529693 C47.8496685,96.529693 50.3693085,93.755125 51.410633,91.963554 C53.0689795,89.027981 50.9803825,85.078237 49.5972375,82.464674 C49.387069,82.0668975 49.197521,81.7105565 49.055955,81.4149865 C48.6951,80.661264 48.315211,79.903595 47.9313565,79.1400065 C46.6164165,76.5197345 45.2574605,73.810279 44.6574895,71.122922 C44.5048205,70.437863 44.5539915,69.8056825 44.786763,69.4730185 C44.8402965,69.396068 45.003276,69.1632425 45.596109,69.0815565 C58.14038,67.3693035 67.4730415,69.2038885 74.286063,70.5436205 C79.7674895,71.621326 83.3875395,72.3336135 85.974592,70.532966 C87.825659,69.2429555 90.5737085,64.5959195 88.173428,47.9615339 C86.5376845,36.6225443 81.5206105,16.6773034 73.0988105,13.8490672" id="Fill-4" fill="#231F20" fill-rule="nonzero"></path>
                <g id="Group-8" transform="translate(92.230000, 34.771449)">
                    <polygon id="Clip-7" points="0.0344502573 0.356433968 20.3961894 0.356433968 20.3961894 7.727163 0.0344502573 7.727163"></polygon>
                    <path d="M20.3616461,2.19577805 C20.1429513,0.985264565 18.9555224,0.180720712 17.7145193,0.389349404 C9.89508045,1.7275312 9.89508045,1.7275312 1.86334373,3.32182807 C0.627138345,3.56704462 -0.171277616,4.74252718 0.0810010385,5.94681295 C0.302094693,7.0004657 1.25403681,7.727163 2.31792508,7.727163 C2.46905239,7.727163 2.62297835,7.7127614 2.77690431,7.68201205 C10.7474705,6.09978135 10.7474705,6.09978135 18.5061386,4.77210886 C19.7491407,4.55958784 20.5795413,3.40590232 20.3616461,2.19577805" id="Fill-6" fill="#231F20"></path>
                </g>
                <path d="M107.510098,61.294394 C101.561127,60.17579 101.561127,60.17579 95.3909505,59.191109 C94.137315,58.994906 92.9732815,59.8599105 92.777676,61.129534 C92.58207,62.3987505 93.4348945,63.589404 94.6825305,63.788457 C100.791905,64.762961 100.791905,64.762961 106.679274,65.8705745 C106.819278,65.8974405 106.959282,65.9100595 107.096886,65.9100595 C108.178517,65.9100595 109.139345,65.1260595 109.343351,64.0050135 C109.572557,62.741903 108.752134,61.528454 107.510098,61.294394" id="Fill-9" fill="#231F20"></path>
                <path d="M97.068028,11.34724 C96.090983,10.6083083 94.7042225,10.8020692 93.9672755,11.7805809 C90.4370575,16.4669533 90.4370575,16.4669533 86.9242655,21.4018366 C86.2144265,22.3997634 86.4460055,23.7856 87.440864,24.4977392 C87.83083,24.7769256 88.2796585,24.9108885 88.7242275,24.9108885 C89.415478,24.9108885 90.096273,24.5874361 90.528837,23.9805258 C94.005614,19.094568 94.005614,19.094568 97.4998175,14.4563446 C98.236764,13.4782212 98.0431365,12.0861717 97.068028,11.34724" id="Fill-11" fill="#231F20"></path>
            </g>
        </g>
    </g>
</svg>