<?xml version="1.0" encoding="UTF-8"?>
<svg width="146px" height="152px" viewBox="0 0 146 152" version="1.1" xmlns="http://www.w3.org/2000/svg" xmlns:xlink="http://www.w3.org/1999/xlink">
    <!-- Generator: Sketch 52.5 (67469) - http://www.bohemiancoding.com/sketch -->
    <title>icon-survey</title>
    <desc>Created with Sketch.</desc>
    <g id="Page-1" stroke="none" stroke-width="1" fill="none" fill-rule="evenodd">
        <g id="row-1" transform="translate(-584.000000, 0.000000)">
            <g id="icon-survey" transform="translate(608.000000, 27.000000)">
                <path d="M0,48.080722 C0,21.844032 22,0 50.26,0 C76.64,0 98,21.8639083 98,48.080722 C98,76.155968 76.64,98 50.26,98 C22,98 0,76.2056587 0,48.080722" id="Path" fill="#0073E3"></path>
                <path d="M68.69,28.31 L68.5,28.31 C67.9648885,28.2645556 67.4705359,28.0058167 67.128215,27.5920222 C66.785894,27.1782276 66.62437,26.6441487 66.68,26.11 C66.82,24.62 66.88,22.92 66.87,21.05 C66.87,15.65 65.63,11.68 63.42,9.55 C62.0409655,8.24958709 60.1935194,7.56401137 58.3,7.65 C57.3,7.65 56.39,7.65 55.44,7.65 C53.5733186,7.62325374 51.7732891,8.34326554 50.44,9.65 C48.3,11.78 47.21,15.52 47.21,20.76 L47.21,26.09 C47.21,27.1945695 46.3145695,28.09 45.21,28.09 C44.1054305,28.09 43.21,27.1945695 43.21,26.09 L43.21,20.77 C43.21,14.41 44.7,9.71 47.63,6.77 C49.7265912,4.70640332 52.5583419,3.56218892 55.5,3.59 L56.38,3.59 C57.01,3.59 57.64,3.59 58.26,3.59 C61.2197672,3.48476241 64.0992357,4.56456312 66.26,6.59 C69.32,9.53 70.89,14.36 70.95,20.96 C70.9724308,22.7890389 70.9023413,24.6180418 70.74,26.44 C70.6704984,27.5130792 69.764933,28.3391316 68.69,28.31 Z" id="Path" fill="#000000"></path>
                <path d="M82.64,97.77 L31.64,97.77 C30.5354305,97.77 29.64,96.8745695 29.64,95.77 L29.64,26.77 C29.64,25.6654305 30.5354305,24.77 31.64,24.77 L60.64,24.77 C61.7445695,24.77 62.64,25.6654305 62.64,26.77 C62.64,27.8745695 61.7445695,28.77 60.64,28.77 L33.64,28.77 L33.64,93.77 L80.64,93.77 L80.64,28.77 L68.64,28.77 C67.5354305,28.77 66.64,27.8745695 66.64,26.77 C66.64,25.6654305 67.5354305,24.77 68.64,24.77 L82.64,24.77 C83.7445695,24.77 84.64,25.6654305 84.64,26.77 L84.64,95.77 C84.64,96.8745695 83.7445695,97.77 82.64,97.77 Z" id="Path" fill="#000000"></path>
                <path d="M52.01,80.84 L51.76,80.84 C50.6848935,80.7444651 49.822449,79.9111854 49.69,78.84 C49.05,76.06 44.77,70.98 42.23,68.43 C41.6592477,67.9412202 41.4106361,67.1737632 41.5863797,66.4431621 C41.7621233,65.7125609 42.3325609,65.1421233 43.0631621,64.9663797 C43.7937632,64.7906361 44.5612202,65.0392477 45.05,65.61 C47.702489,68.2380641 50.0506153,71.1564497 52.05,74.31 L52.72,72.61 C55.96,64.37 61.99,49.04 71.89,42.01 C72.7929856,41.3721113 74.042111,41.5870146 74.6799998,42.4900001 C75.3178887,43.3929856 75.1029854,44.6421111 74.2,45.28 C65.28,51.61 59.53,66.22 56.44,74.07 C54.37,79.28 53.75,80.84 52.01,80.84 Z" id="Path" fill="#000000"></path>
            </g>
        </g>
    </g>
</svg>