<?xml version="1.0" encoding="UTF-8"?>
<svg width="130px" height="38px" viewBox="0 0 130 38" version="1.1" xmlns="http://www.w3.org/2000/svg" xmlns:xlink="http://www.w3.org/1999/xlink">
    <!-- Generator: Sketch 52.5 (67469) - http://www.bohemiancoding.com/sketch -->
    <title>logo-pepsi</title>
    <desc>Created with Sketch.</desc>
    <g id="Page-1" stroke="none" stroke-width="1" fill="none" fill-rule="evenodd">
        <g id="logo-pepsi" fill="#AFAFAF">
            <path d="M127.877187,7.813963 C129.002334,7.813963 129.913408,6.9265514 129.913408,5.83171467 C129.913408,4.73771433 129.002334,3.85113912 127.877187,3.85113912 C126.75204,3.85113912 125.840966,4.73771433 125.840966,5.83171467 C125.840966,6.9265514 126.75204,7.813963 127.877187,7.813963 M129.396767,9.26677538 L126.358449,9.26677538 C126.264897,9.26677538 126.189888,9.34037785 126.189888,9.43154454 L126.189888,28.0462782 C126.189888,28.1399541 126.264897,28.2127202 126.358449,28.2127202 L129.396767,28.2127202 C129.488633,28.2127202 129.563643,28.1399541 129.563643,28.0462782 L129.563643,9.43154454 C129.563643,9.34037785 129.488633,9.26677538 129.396767,9.26677538 M121.379147,18.8969894 C120.907175,18.4913394 120.369465,18.1475824 119.760116,17.8607001 C119.150766,17.5763269 118.532146,17.3178819 117.909312,17.0862014 C117.284792,16.8553573 116.671229,16.6320407 116.067779,16.4145788 C115.466015,16.1987898 114.92999,15.9528906 114.459704,15.6810633 C113.989418,15.4100724 113.609312,15.0939163 113.31433,14.7334315 C113.021033,14.3737831 112.873542,13.9288227 112.873542,13.4002232 C112.873542,13.0196649 112.951923,12.6667076 113.105314,12.3405149 C113.258705,12.0134857 113.487105,11.7332945 113.787987,11.4949229 C114.088869,11.258224 114.474875,11.0742178 114.944318,10.9454135 C115.414604,10.8157728 115.958215,10.752207 116.575992,10.752207 C117.266251,10.752207 117.879814,10.8258095 118.414996,10.9746872 C118.951021,11.1252377 119.417936,11.2849885 119.815741,11.4547761 C120.211017,11.6245636 120.533812,11.7843144 120.784126,11.9331921 C121.033596,12.0829062 121.224071,12.1565087 121.358077,12.1565087 C121.444886,12.1565087 121.526638,12.1339261 121.599963,12.0870882 C121.672444,12.0385775 122.335733,10.1257497 122.312977,9.97436276 C122.291064,9.82632143 121.567093,9.45496351 121.412017,9.34623259 C121.257783,9.23750167 121.029382,9.11120652 120.7285,8.96901993 C120.427618,8.82683334 120.063526,8.69468346 119.637909,8.57173388 C119.212291,8.44962069 118.735263,8.34841729 118.20598,8.26561451 C117.67754,8.18532091 117.148258,8.14433772 116.619818,8.14433772 C115.414604,8.14433772 114.361939,8.29405183 113.457607,8.59348006 C112.554118,8.89039911 111.801492,9.28768517 111.199728,9.78282906 C110.596278,10.2796457 110.145377,10.856756 109.844495,11.5149963 C109.543613,12.1732365 109.391065,12.8632597 109.391065,13.5817202 C109.391065,14.3980385 109.536028,15.0972619 109.823425,15.6810633 C110.108293,16.2648647 110.486714,16.7692089 110.957,17.1882412 C111.427286,17.6097826 111.95994,17.9677582 112.554118,18.2579861 C113.149983,18.5507232 113.758489,18.8108411 114.383009,19.0425216 C115.006686,19.2733657 115.614349,19.4933367 116.200943,19.7041074 C116.788379,19.9157145 117.317662,20.1549225 117.787948,20.4284226 C118.258234,20.7002499 118.635811,21.0105512 118.922366,21.3635085 C119.20892,21.7181386 119.352197,22.1530623 119.352197,22.6682796 C119.352197,23.1717874 119.252746,23.6050383 119.053844,23.9713778 C118.855784,24.3385538 118.572601,24.6404912 118.20598,24.8771901 C117.838516,25.1163981 117.405314,25.2953859 116.906372,25.4183355 C116.406588,25.5404487 115.849493,25.6023417 115.232558,25.6023417 C114.409136,25.6023417 113.681794,25.5095022 113.048846,25.325496 C112.418427,25.143999 111.871445,24.9424286 111.409587,24.7249668 C110.946886,24.5100141 110.556667,24.3084437 110.241457,24.1244375 C109.925404,23.9404314 109.686047,23.8501011 109.525914,23.8501011 C109.423092,23.8501011 109.32954,23.87352 109.249473,23.920358 C109.169407,23.9671959 109.106196,24.0458167 109.063213,24.1537112 C109.018544,24.2649513 108.944377,25.9879182 109.018544,26.2321446 C109.091869,26.4772074 109.209019,26.6645591 109.369995,26.8017274 C109.532656,26.9372228 109.78887,27.0927917 110.141163,27.2609064 C110.495142,27.4315303 110.924973,27.5937903 111.430657,27.7501955 C111.938027,27.9066008 112.511135,28.0354051 113.149983,28.1374449 C113.787987,28.2403211 114.459704,28.291341 115.165976,28.291341 C116.310508,28.291341 117.360645,28.1608639 118.31723,27.9040916 C119.271288,27.6456466 120.093024,27.2667611 120.784126,26.7624169 C121.473542,26.2597455 122.007038,25.6416521 122.381244,24.9081366 C122.756293,24.1754574 122.943396,23.3399021 122.943396,22.4039798 C122.943396,21.6152624 122.800119,20.9369488 122.514408,20.3656932 C122.227011,19.7952741 121.84859,19.3068213 121.379147,18.8969894 M68.5950076,16.1067867 C69.3906171,13.3868409 71.8381277,11.3309901 74.8486332,11.1678937 C78.1187231,10.9905787 80.9724665,13.1024677 81.8515139,16.0917316 C77.4545914,16.5049091 72.9683315,15.2837773 68.5950076,16.1067867 M85.2766802,17.4140669 L85.2876367,17.4140669 C85.2724662,17.1690042 85.2454964,16.9297961 85.2143125,16.6922609 C85.2143125,16.6880789 85.2134697,16.683897 85.2134697,16.6805514 C85.194928,16.5626202 85.1814431,16.4455253 85.1603729,16.3275941 C85.1418312,16.2155176 85.1224466,16.1168234 85.1022192,16.0256567 C84.1287775,11.2339687 79.7385975,7.75123362 74.675015,8.02473371 C69.1158621,8.32667111 64.8563172,13.0439203 65.158042,18.5624327 C65.4622952,24.0767632 70.2165677,28.3047232 75.7757205,28.005295 C80.1431447,27.7677598 83.6997889,24.8035876 84.8814039,20.8700374 L81.4073548,21.0582256 C80.3378331,23.1977155 78.1777196,24.7224576 75.603788,24.862135 C72.120468,25.0511595 69.1082769,22.6423514 68.4542589,19.3427862 C74.0091977,18.2220213 79.7554537,20.5580633 85.2749946,18.7715307 C85.2749946,18.7715307 85.3129209,18.2412583 85.2876367,17.5863636 C85.2859511,17.5269798 85.2800515,17.4734507 85.2766802,17.4140669 M97.5117048,24.8713353 C93.7907133,24.8713353 90.7641945,21.9489827 90.6167034,18.2931146 L90.6167034,18.1726742 L90.6099609,18.1726742 C90.6082753,18.1191451 90.6023756,18.0681252 90.6023756,18.0145962 C90.6023756,14.2274145 93.6946333,11.1570206 97.5117048,11.1570206 C101.328776,11.1570206 104.421034,14.2274145 104.421034,18.0145962 C104.421034,21.8026142 101.328776,24.8713353 97.5117048,24.8713353 M97.5117048,8.01051505 C91.9449667,8.01051505 87.4308941,12.4893926 87.4308941,18.0145962 C87.4308941,18.0681252 87.4342653,18.1208179 87.4351081,18.1726742 L87.4308941,18.1726742 L87.4308941,36.4185591 L90.6167034,36.4185591 L90.6167034,25.3096046 C92.4203096,26.9899155 94.8450645,28.0178409 97.5117048,28.0178409 C103.080129,28.0178409 107.593358,23.5397997 107.593358,18.0145962 C107.593358,12.4893926 103.080129,8.01051505 97.5117048,8.01051505 M52.9390307,24.8713353 C49.2180393,24.8713353 46.1923633,21.9489827 46.0431865,18.2931146 L46.0431865,18.1726742 L46.0372868,18.1726742 C46.036444,18.1191451 46.0297016,18.0681252 46.0297016,18.0145962 C46.0297016,14.2274145 49.1236449,11.1570206 52.9390307,11.1570206 C56.7552594,11.1570206 59.8492027,14.2274145 59.8492027,18.0145962 C59.8492027,21.8026142 56.7552594,24.8713353 52.9390307,24.8713353 M52.9390307,8.01051505 C47.3714498,8.01051505 42.85822,12.4893926 42.85822,18.0145962 C42.85822,18.0681252 42.8615913,18.1208179 42.8615913,18.1726742 L42.85822,18.1726742 L42.85822,36.4185591 L46.0431865,36.4185591 L46.0431865,25.3096046 C47.8467928,26.9899155 50.2715476,28.0178409 52.9390307,28.0178409 C58.5066117,28.0178409 63.0198414,23.5397997 63.0198414,18.0145962 C63.0198414,12.4893926 58.5066117,8.01051505 52.9390307,8.01051505" id="Fill-7"></path>
            <path d="M30.0578035,3.75852983 C26.9211664,1.39752332 23.0278807,0 18.8104389,0 C8.42208802,0 0,8.48484026 0,18.9525134 C0,23.2533786 1.42543392,27.2190444 3.81992405,30.4 L4.22256009,30.2461521 C17.0420819,25.7140854 26.0962744,17.4191914 30.0151513,3.93472434 L30.0578035,3.75852983 Z" id="Fill-3"></path>
            <path d="M34.4724829,9.88709437 C34.4500388,9.899111 34.4458824,10.0415939 34.4408948,10.0587605 C34.5265152,10.8707414 34.5680785,11.645814 34.5680785,12.3831201 C34.5506219,27.7171981 16.7789872,27.3927491 4.9608792,31.1633959 L4.50867052,31.3067371 C7.87031002,35.4001163 12.8845062,38 18.4897325,38 C28.6137205,38 36.8208092,29.5265593 36.8208092,19.0738079 C36.8208092,15.7271765 35.9845557,12.6097194 34.5098899,9.88280271 C34.5098899,9.88280271 34.4932646,9.87421941 34.4724829,9.88709437 Z" id="Fill-5"></path>
        </g>
    </g>
</svg>