<?xml version="1.0" encoding="UTF-8"?>
<svg width="21px" height="21px" viewBox="0 0 21 21" version="1.1" xmlns="http://www.w3.org/2000/svg" xmlns:xlink="http://www.w3.org/1999/xlink">
    <!-- Generator: Sketch 52.5 (67469) - http://www.bohemiancoding.com/sketch -->
    <title>nav-twitter</title>
    <desc>Created with Sketch.</desc>
    <g id="Page-1" stroke="none" stroke-width="1" fill="none" fill-rule="evenodd">
        <path d="M16.5075976,5.49288288 L16.4703904,5.46807808 C15.7014414,4.73633634 14.7960661,4.38906907 13.7542643,4.43867868 L13.7170571,4.36426426 L13.7418619,4.35186186 C14.6844444,4.14102102 15.2425526,3.91777778 15.4161862,3.66972973 C15.4657958,3.47129129 15.4037838,3.35966967 15.1929429,3.33486486 C14.7216517,3.39687688 14.2751652,3.4960961 13.8906907,3.65732733 C14.3867868,3.33486486 14.5728228,3.11162162 14.4612012,3 C13.9775075,3.0124024 13.4442042,3.26045045 12.8984985,3.75654655 C13.0969369,3.40927928 13.1837538,3.21084084 13.1341441,3.18603604 C12.8612913,3.35966967 12.638048,3.55810811 12.4396096,3.76894895 C12.0179279,4.24024024 11.6830631,4.67432432 11.4226126,5.0712012 L11.4102102,5.09600601 C10.7528829,6.17501502 10.2815916,7.25402402 10.0087387,8.35783784 L9.90951952,8.44465465 L9.88471471,8.45705706 C9.48783784,7.96096096 9.00414414,7.53927928 8.43363363,7.20441441 C7.7639039,6.75792793 6.97015015,6.34864865 6.05237237,5.93936937 C5.06018018,5.41846847 4.04318318,4.99678679 3.02618619,4.66192192 C3.01378378,5.81534535 3.58429429,6.72072072 4.68810811,7.39045045 L4.68810811,7.40285285 C4.30363363,7.40285285 3.91915916,7.46486486 3.54708709,7.57648649 C3.6215015,8.64309309 4.37804805,9.37483483 5.80432432,9.77171171 L5.79192192,9.79651652 C5.23381381,9.75930931 4.77492492,9.95774775 4.41525526,10.367027 C4.88654655,11.2848048 5.71750751,11.7188889 6.92054054,11.6940841 C6.68489489,11.8181081 6.49885886,11.9421321 6.37483483,12.090961 C6.15159159,12.3266066 6.07717718,12.5994595 6.15159159,12.9095195 C6.41204204,13.3808108 6.87093093,13.5916517 7.55306306,13.5544444 L7.59027027,13.6040541 L7.57786787,13.6288589 C6.39963964,14.8442943 4.97336336,15.39 3.31144144,15.2783784 L3.28663664,15.2907808 C2.26963964,15.2783784 1.17822823,14.7946847 0,13.8272973 C1.17822823,15.5264264 2.75333333,16.7542643 4.70051051,17.5356156 C6.92054054,18.2673574 9.15297297,18.3293694 11.373003,17.6968468 L11.4102102,17.6968468 C13.5682282,17.0767267 15.3913814,15.7868769 16.9044745,13.8521021 C17.599009,12.8475075 18.0330931,11.8801201 18.2067267,10.9499399 C19.3353453,10.9871471 20.1415015,10.6646847 20.65,9.97015015 L20.6375976,9.94534535 C20.2531231,10.0817718 19.5213814,10.0445646 18.4423724,9.82132132 L18.4423724,9.6972973 C19.633003,9.56087087 20.3399399,9.1763964 20.5631832,8.54387387 C19.7322222,8.86633634 18.9136637,8.87873874 18.1075075,8.56867868 C17.9586787,7.45246246 17.4253754,6.42306306 16.5075976,5.49288288" id="Mask" fill="#AFAFAF"></path>
    </g>
</svg>