<?xml version="1.0" encoding="UTF-8"?>
<svg width="361px" height="361px" viewBox="0 0 361 361" version="1.1" xmlns="http://www.w3.org/2000/svg" xmlns:xlink="http://www.w3.org/1999/xlink">
    <!-- Generator: Sketch 52.5 (67469) - http://www.bohemiancoding.com/sketch -->
    <title>Slice</title>
    <desc>Created with Sketch.</desc>
    <g id="Page-1" stroke="none" stroke-width="1" fill="none" fill-rule="evenodd">
        <g id="Group-361" transform="translate(180.554870, 180.554870) rotate(135.000000) translate(-180.554870, -180.554870) translate(10.054870, 90.054870)">
            <g id="Group-3" transform="translate(0.000000, 10.135000)">
                <path d="M6.351,163.724 C8.353,165.726 332.083,164.976 333.334,163.724 C333.334,73.43 260.137,0.232 169.843,0.232 C79.549,0.232 6.351,73.43 6.351,163.724" id="Clip-2"></path>
                <path d="M9.1087,100.9304 C14.1387,100.9304 18.2167,96.8474 18.2167,91.8114 C18.2167,86.7744 14.1387,82.6924 9.1087,82.6924 C4.0797,82.6924 0.000700000001,86.7744 0.000700000001,91.8114 C0.000700000001,96.8474 4.0797,100.9304 9.1087,100.9304" id="Fill-1" fill="#E6E7E8"></path>
            </g>
            <g id="Group-6" transform="translate(6.000000, 10.135000)">
                <path d="M0.351,163.724 C2.353,165.726 326.083,164.976 327.334,163.724 C327.334,73.43 254.137,0.232 163.843,0.232 C73.549,0.232 0.351,73.43 0.351,163.724" id="Clip-5"></path>
                <path d="M49.1555,100.9304 C54.1845,100.9304 58.2635,96.8474 58.2635,91.8114 C58.2635,86.7744 54.1845,82.6924 49.1555,82.6924 C44.1255,82.6924 40.0475,86.7744 40.0475,91.8114 C40.0475,96.8474 44.1255,100.9304 49.1555,100.9304" id="Fill-4" fill="#E6E7E8"></path>
            </g>
            <g id="Group-9" transform="translate(6.000000, 10.135000)">
                <path d="M0.351,163.724 C2.353,165.726 326.083,164.976 327.334,163.724 C327.334,73.43 254.137,0.232 163.843,0.232 C73.549,0.232 0.351,73.43 0.351,163.724" id="Clip-8"></path>
                <path d="M26.1321,100.9304 C31.1621,100.9304 35.2411,96.8474 35.2411,91.8114 C35.2411,86.7744 31.1621,82.6924 26.1321,82.6924 C21.1021,82.6924 17.0231,86.7744 17.0231,91.8114 C17.0231,96.8474 21.1021,100.9304 26.1321,100.9304" id="Fill-7" fill="#E6E7E8"></path>
            </g>
            <g id="Group-12" transform="translate(6.000000, 10.135000)">
                <path d="M0.351,163.724 C2.353,165.726 326.083,164.976 327.334,163.724 C327.334,73.43 254.137,0.232 163.843,0.232 C73.549,0.232 0.351,73.43 0.351,163.724" id="Clip-11"></path>
                <path d="M72.178,100.9304 C77.208,100.9304 81.287,96.8474 81.287,91.8114 C81.287,86.7744 77.208,82.6924 72.178,82.6924 C67.149,82.6924 63.071,86.7744 63.071,91.8114 C63.071,96.8474 67.149,100.9304 72.178,100.9304" id="Fill-10" fill="#E6E7E8"></path>
            </g>
            <g id="Group-15" transform="translate(6.000000, 10.135000)">
                <path d="M0.351,163.724 C2.353,165.726 326.083,164.976 327.334,163.724 C327.334,73.43 254.137,0.232 163.843,0.232 C73.549,0.232 0.351,73.43 0.351,163.724" id="Clip-14"></path>
                <path d="M95.2014,100.9304 C100.2314,100.9304 104.3104,96.8474 104.3104,91.8114 C104.3104,86.7744 100.2314,82.6924 95.2014,82.6924 C90.1724,82.6924 86.0934,86.7744 86.0934,91.8114 C86.0934,96.8474 90.1724,100.9304 95.2014,100.9304" id="Fill-13" fill="#E6E7E8"></path>
            </g>
            <g id="Group-18" transform="translate(6.000000, 10.135000)">
                <path d="M0.351,163.724 C2.353,165.726 326.083,164.976 327.334,163.724 C327.334,73.43 254.137,0.232 163.843,0.232 C73.549,0.232 0.351,73.43 0.351,163.724" id="Clip-17"></path>
                <path d="M118.2249,100.9304 C123.2549,100.9304 127.3339,96.8474 127.3339,91.8114 C127.3339,86.7744 123.2549,82.6924 118.2249,82.6924 C113.1949,82.6924 109.1169,86.7744 109.1169,91.8114 C109.1169,96.8474 113.1949,100.9304 118.2249,100.9304" id="Fill-16" fill="#E6E7E8"></path>
            </g>
            <g id="Group-21" transform="translate(6.000000, 10.135000)">
                <path d="M0.351,163.724 C2.353,165.726 326.083,164.976 327.334,163.724 C327.334,73.43 254.137,0.232 163.843,0.232 C73.549,0.232 0.351,73.43 0.351,163.724" id="Clip-20"></path>
                <path d="M141.2483,100.9304 C146.2773,100.9304 150.3563,96.8474 150.3563,91.8114 C150.3563,86.7744 146.2773,82.6924 141.2483,82.6924 C136.2183,82.6924 132.1403,86.7744 132.1403,91.8114 C132.1403,96.8474 136.2183,100.9304 141.2483,100.9304" id="Fill-19" fill="#E6E7E8"></path>
            </g>
            <g id="Group-24" transform="translate(6.000000, 10.135000)">
                <path d="M0.351,163.724 C2.353,165.726 326.083,164.976 327.334,163.724 C327.334,73.43 254.137,0.232 163.843,0.232 C73.549,0.232 0.351,73.43 0.351,163.724" id="Clip-23"></path>
                <path d="M187.2942,100.9304 C192.3242,100.9304 196.4022,96.8474 196.4022,91.8114 C196.4022,86.7744 192.3242,82.6924 187.2942,82.6924 C182.2652,82.6924 178.1862,86.7744 178.1862,91.8114 C178.1862,96.8474 182.2652,100.9304 187.2942,100.9304" id="Fill-22" fill="#E6E7E8"></path>
            </g>
            <g id="Group-27" transform="translate(6.000000, 10.135000)">
                <path d="M0.351,163.724 C2.353,165.726 326.083,164.976 327.334,163.724 C327.334,73.43 254.137,0.232 163.843,0.232 C73.549,0.232 0.351,73.43 0.351,163.724" id="Clip-26"></path>
                <path d="M164.2718,100.9304 C169.3008,100.9304 173.3788,96.8474 173.3788,91.8114 C173.3788,86.7744 169.3008,82.6924 164.2718,82.6924 C159.2418,82.6924 155.1628,86.7744 155.1628,91.8114 C155.1628,96.8474 159.2418,100.9304 164.2718,100.9304" id="Fill-25" fill="#E6E7E8"></path>
            </g>
            <g id="Group-30" transform="translate(6.000000, 10.135000)">
                <path d="M0.351,163.724 C2.353,165.726 326.083,164.976 327.334,163.724 C327.334,73.43 254.137,0.232 163.843,0.232 C73.549,0.232 0.351,73.43 0.351,163.724" id="Clip-29"></path>
                <path d="M210.3177,100.9304 C215.3477,100.9304 219.4257,96.8474 219.4257,91.8114 C219.4257,86.7744 215.3477,82.6924 210.3177,82.6924 C205.2877,82.6924 201.2087,86.7744 201.2087,91.8114 C201.2087,96.8474 205.2877,100.9304 210.3177,100.9304" id="Fill-28" fill="#E6E7E8"></path>
            </g>
            <g id="Group-33" transform="translate(6.000000, 10.135000)">
                <path d="M0.351,163.724 C2.353,165.726 326.083,164.976 327.334,163.724 C327.334,73.43 254.137,0.232 163.843,0.232 C73.549,0.232 0.351,73.43 0.351,163.724" id="Clip-32"></path>
                <path d="M233.3411,100.9304 C238.3701,100.9304 242.4491,96.8474 242.4491,91.8114 C242.4491,86.7744 238.3701,82.6924 233.3411,82.6924 C228.3111,82.6924 224.2331,86.7744 224.2331,91.8114 C224.2331,96.8474 228.3111,100.9304 233.3411,100.9304" id="Fill-31" fill="#E6E7E8"></path>
            </g>
            <g id="Group-36" transform="translate(6.000000, 10.135000)">
                <path d="M0.351,163.724 C2.353,165.726 326.083,164.976 327.334,163.724 C327.334,73.43 254.137,0.232 163.843,0.232 C73.549,0.232 0.351,73.43 0.351,163.724" id="Clip-35"></path>
                <path d="M256.3636,100.9304 C261.3946,100.9304 265.4716,96.8474 265.4716,91.8114 C265.4716,86.7744 261.3946,82.6924 256.3636,82.6924 C251.3346,82.6924 247.2566,86.7744 247.2566,91.8114 C247.2566,96.8474 251.3346,100.9304 256.3636,100.9304" id="Fill-34" fill="#E6E7E8"></path>
            </g>
            <g id="Group-39" transform="translate(6.000000, 10.135000)">
                <path d="M0.351,163.724 C2.353,165.726 326.083,164.976 327.334,163.724 C327.334,73.43 254.137,0.232 163.843,0.232 C73.549,0.232 0.351,73.43 0.351,163.724" id="Clip-38"></path>
                <path d="M279.387,100.9304 C284.417,100.9304 288.495,96.8474 288.495,91.8114 C288.495,86.7744 284.417,82.6924 279.387,82.6924 C274.358,82.6924 270.279,86.7744 270.279,91.8114 C270.279,96.8474 274.358,100.9304 279.387,100.9304" id="Fill-37" fill="#E6E7E8"></path>
            </g>
            <g id="Group-42" transform="translate(6.000000, 10.135000)">
                <path d="M0.351,163.724 C2.353,165.726 326.083,164.976 327.334,163.724 C327.334,73.43 254.137,0.232 163.843,0.232 C73.549,0.232 0.351,73.43 0.351,163.724" id="Clip-41"></path>
                <path d="M325.4339,100.9304 C330.4629,100.9304 334.5409,96.8474 334.5409,91.8114 C334.5409,86.7744 330.4629,82.6924 325.4339,82.6924 C320.4039,82.6924 316.3249,86.7744 316.3249,91.8114 C316.3249,96.8474 320.4039,100.9304 325.4339,100.9304" id="Fill-40" fill="#E6E7E8"></path>
            </g>
            <g id="Group-45" transform="translate(6.000000, 10.135000)">
                <path d="M0.351,163.724 C2.353,165.726 326.083,164.976 327.334,163.724 C327.334,73.43 254.137,0.232 163.843,0.232 C73.549,0.232 0.351,73.43 0.351,163.724" id="Clip-44"></path>
                <path d="M302.4104,100.9304 C307.4404,100.9304 311.5184,96.8474 311.5184,91.8114 C311.5184,86.7744 307.4404,82.6924 302.4104,82.6924 C297.3804,82.6924 293.3014,86.7744 293.3014,91.8114 C293.3014,96.8474 297.3804,100.9304 302.4104,100.9304" id="Fill-43" fill="#E6E7E8"></path>
            </g>
            <g id="Group-48" transform="translate(0.000000, 10.135000)">
                <path d="M6.351,163.724 C8.353,165.726 332.083,164.976 333.334,163.724 C333.334,73.43 260.137,0.232 169.843,0.232 C79.549,0.232 6.351,73.43 6.351,163.724" id="Clip-47"></path>
                <path d="M9.1194,123.9538 C14.1494,123.9538 18.2284,119.8708 18.2284,114.8348 C18.2284,109.7978 14.1494,105.7148 9.1194,105.7148 C4.0894,105.7148 0.0124,109.7978 0.0124,114.8348 C0.0124,119.8708 4.0894,123.9538 9.1194,123.9538" id="Fill-46" fill="#E6E7E8"></path>
            </g>
            <g id="Group-51" transform="translate(6.000000, 10.135000)">
                <path d="M0.351,163.724 C2.353,165.726 326.083,164.976 327.334,163.724 C327.334,73.43 254.137,0.232 163.843,0.232 C73.549,0.232 0.351,73.43 0.351,163.724" id="Clip-50"></path>
                <path d="M49.1663,123.9538 C54.1963,123.9538 58.2733,119.8708 58.2733,114.8348 C58.2733,109.7978 54.1963,105.7148 49.1663,105.7148 C44.1353,105.7148 40.0583,109.7978 40.0583,114.8348 C40.0583,119.8708 44.1353,123.9538 49.1663,123.9538" id="Fill-49" fill="#E6E7E8"></path>
            </g>
            <g id="Group-54" transform="translate(6.000000, 10.135000)">
                <path d="M0.351,163.724 C2.353,165.726 326.083,164.976 327.334,163.724 C327.334,73.43 254.137,0.232 163.843,0.232 C73.549,0.232 0.351,73.43 0.351,163.724" id="Clip-53"></path>
                <path d="M26.1429,123.9538 C31.1729,123.9538 35.2519,119.8708 35.2519,114.8348 C35.2519,109.7978 31.1729,105.7148 26.1429,105.7148 C21.1129,105.7148 17.0349,109.7978 17.0349,114.8348 C17.0349,119.8708 21.1129,123.9538 26.1429,123.9538" id="Fill-52" fill="#E6E7E8"></path>
            </g>
            <g id="Group-57" transform="translate(6.000000, 10.135000)">
                <path d="M0.351,163.724 C2.353,165.726 326.083,164.976 327.334,163.724 C327.334,73.43 254.137,0.232 163.843,0.232 C73.549,0.232 0.351,73.43 0.351,163.724" id="Clip-56"></path>
                <path d="M72.1888,123.9538 C77.2188,123.9538 81.2978,119.8708 81.2978,114.8348 C81.2978,109.7978 77.2188,105.7148 72.1888,105.7148 C67.1598,105.7148 63.0818,109.7978 63.0818,114.8348 C63.0818,119.8708 67.1598,123.9538 72.1888,123.9538" id="Fill-55" fill="#E6E7E8"></path>
            </g>
            <g id="Group-60" transform="translate(6.000000, 10.135000)">
                <path d="M0.351,163.724 C2.353,165.726 326.083,164.976 327.334,163.724 C327.334,73.43 254.137,0.232 163.843,0.232 C73.549,0.232 0.351,73.43 0.351,163.724" id="Clip-59"></path>
                <path d="M95.2122,123.9538 C100.2422,123.9538 104.3212,119.8708 104.3212,114.8348 C104.3212,109.7978 100.2422,105.7148 95.2122,105.7148 C90.1832,105.7148 86.1042,109.7978 86.1042,114.8348 C86.1042,119.8708 90.1832,123.9538 95.2122,123.9538" id="Fill-58" fill="#E6E7E8"></path>
            </g>
            <g id="Group-63" transform="translate(6.000000, 10.135000)">
                <path d="M0.351,163.724 C2.353,165.726 326.083,164.976 327.334,163.724 C327.334,73.43 254.137,0.232 163.843,0.232 C73.549,0.232 0.351,73.43 0.351,163.724" id="Clip-62"></path>
                <path d="M118.2356,123.9538 C123.2666,123.9538 127.3436,119.8708 127.3436,114.8348 C127.3436,109.7978 123.2666,105.7148 118.2356,105.7148 C113.2056,105.7148 109.1266,109.7978 109.1266,114.8348 C109.1266,119.8708 113.2056,123.9538 118.2356,123.9538" id="Fill-61" fill="#E6E7E8"></path>
            </g>
            <g id="Group-66" transform="translate(6.000000, 10.135000)">
                <path d="M0.351,163.724 C2.353,165.726 326.083,164.976 327.334,163.724 C327.334,73.43 254.137,0.232 163.843,0.232 C73.549,0.232 0.351,73.43 0.351,163.724" id="Clip-65"></path>
                <path d="M141.2591,123.9538 C146.2881,123.9538 150.3671,119.8708 150.3671,114.8348 C150.3671,109.7978 146.2881,105.7148 141.2591,105.7148 C136.2291,105.7148 132.1511,109.7978 132.1511,114.8348 C132.1511,119.8708 136.2291,123.9538 141.2591,123.9538" id="Fill-64" fill="#E6E7E8"></path>
            </g>
            <g id="Group-69" transform="translate(6.000000, 10.135000)">
                <path d="M0.351,163.724 C2.353,165.726 326.083,164.976 327.334,163.724 C327.334,73.43 254.137,0.232 163.843,0.232 C73.549,0.232 0.351,73.43 0.351,163.724" id="Clip-68"></path>
                <path d="M187.305,123.9538 C192.335,123.9538 196.413,119.8708 196.413,114.8348 C196.413,109.7978 192.335,105.7148 187.305,105.7148 C182.275,105.7148 178.198,109.7978 178.198,114.8348 C178.198,119.8708 182.275,123.9538 187.305,123.9538" id="Fill-67" fill="#E6E7E8"></path>
            </g>
            <g id="Group-72" transform="translate(6.000000, 10.135000)">
                <path d="M0.351,163.724 C2.353,165.726 326.083,164.976 327.334,163.724 C327.334,73.43 254.137,0.232 163.843,0.232 C73.549,0.232 0.351,73.43 0.351,163.724" id="Clip-71"></path>
                <path d="M164.2825,123.9538 C169.3115,123.9538 173.3905,119.8708 173.3905,114.8348 C173.3905,109.7978 169.3115,105.7148 164.2825,105.7148 C159.2525,105.7148 155.1745,109.7978 155.1745,114.8348 C155.1745,119.8708 159.2525,123.9538 164.2825,123.9538" id="Fill-70" fill="#E6E7E8"></path>
            </g>
            <g id="Group-75" transform="translate(6.000000, 10.135000)">
                <path d="M0.351,163.724 C2.353,165.726 326.083,164.976 327.334,163.724 C327.334,73.43 254.137,0.232 163.843,0.232 C73.549,0.232 0.351,73.43 0.351,163.724" id="Clip-74"></path>
                <path d="M210.3284,123.9538 C215.3584,123.9538 219.4364,119.8708 219.4364,114.8348 C219.4364,109.7978 215.3584,105.7148 210.3284,105.7148 C205.2984,105.7148 201.2204,109.7978 201.2204,114.8348 C201.2204,119.8708 205.2984,123.9538 210.3284,123.9538" id="Fill-73" fill="#E6E7E8"></path>
            </g>
            <g id="Group-78" transform="translate(6.000000, 10.135000)">
                <path d="M0.351,163.724 C2.353,165.726 326.083,164.976 327.334,163.724 C327.334,73.43 254.137,0.232 163.843,0.232 C73.549,0.232 0.351,73.43 0.351,163.724" id="Clip-77"></path>
                <path d="M233.3518,123.9538 C238.3808,123.9538 242.4588,119.8708 242.4588,114.8348 C242.4588,109.7978 238.3808,105.7148 233.3518,105.7148 C228.3218,105.7148 224.2438,109.7978 224.2438,114.8348 C224.2438,119.8708 228.3218,123.9538 233.3518,123.9538" id="Fill-76" fill="#E6E7E8"></path>
            </g>
            <g id="Group-81" transform="translate(6.000000, 10.135000)">
                <path d="M0.351,163.724 C2.353,165.726 326.083,164.976 327.334,163.724 C327.334,73.43 254.137,0.232 163.843,0.232 C73.549,0.232 0.351,73.43 0.351,163.724" id="Clip-80"></path>
                <path d="M256.3743,123.9538 C261.4043,123.9538 265.4833,119.8708 265.4833,114.8348 C265.4833,109.7978 261.4043,105.7148 256.3743,105.7148 C251.3453,105.7148 247.2673,109.7978 247.2673,114.8348 C247.2673,119.8708 251.3453,123.9538 256.3743,123.9538" id="Fill-79" fill="#E6E7E8"></path>
            </g>
            <g id="Group-84" transform="translate(6.000000, 10.135000)">
                <path d="M0.351,163.724 C2.353,165.726 326.083,164.976 327.334,163.724 C327.334,73.43 254.137,0.232 163.843,0.232 C73.549,0.232 0.351,73.43 0.351,163.724" id="Clip-83"></path>
                <path d="M279.3977,123.9538 C284.4277,123.9538 288.5057,119.8708 288.5057,114.8348 C288.5057,109.7978 284.4277,105.7148 279.3977,105.7148 C274.3687,105.7148 270.2907,109.7978 270.2907,114.8348 C270.2907,119.8708 274.3687,123.9538 279.3977,123.9538" id="Fill-82" fill="#E6E7E8"></path>
            </g>
            <g id="Group-87" transform="translate(6.000000, 10.135000)">
                <path d="M0.351,163.724 C2.353,165.726 326.083,164.976 327.334,163.724 C327.334,73.43 254.137,0.232 163.843,0.232 C73.549,0.232 0.351,73.43 0.351,163.724" id="Clip-86"></path>
                <path d="M325.4446,123.9538 C330.4736,123.9538 334.5516,119.8708 334.5516,114.8348 C334.5516,109.7978 330.4736,105.7148 325.4446,105.7148 C320.4146,105.7148 316.3356,109.7978 316.3356,114.8348 C316.3356,119.8708 320.4146,123.9538 325.4446,123.9538" id="Fill-85" fill="#E6E7E8"></path>
            </g>
            <g id="Group-90" transform="translate(6.000000, 10.135000)">
                <path d="M0.351,163.724 C2.353,165.726 326.083,164.976 327.334,163.724 C327.334,73.43 254.137,0.232 163.843,0.232 C73.549,0.232 0.351,73.43 0.351,163.724" id="Clip-89"></path>
                <path d="M302.4212,123.9538 C307.4512,123.9538 311.5292,119.8708 311.5292,114.8348 C311.5292,109.7978 307.4512,105.7148 302.4212,105.7148 C297.3912,105.7148 293.3122,109.7978 293.3122,114.8348 C293.3122,119.8708 297.3912,123.9538 302.4212,123.9538" id="Fill-88" fill="#E6E7E8"></path>
            </g>
            <g id="Group-93" transform="translate(0.000000, 10.135000)">
                <path d="M6.351,163.724 C8.353,165.726 332.083,164.976 333.334,163.724 C333.334,73.43 260.137,0.232 169.843,0.232 C79.549,0.232 6.351,73.43 6.351,163.724" id="Clip-92"></path>
                <path d="M9.1087,146.9763 C14.1387,146.9763 18.2167,142.8933 18.2167,137.8583 C18.2167,132.8213 14.1387,128.7393 9.1087,128.7393 C4.0797,128.7393 0.0007,132.8213 0.0007,137.8583 C0.0007,142.8933 4.0797,146.9763 9.1087,146.9763" id="Fill-91" fill="#E6E7E8"></path>
            </g>
            <g id="Group-96" transform="translate(6.000000, 10.135000)">
                <path d="M0.351,163.724 C2.353,165.726 326.083,164.976 327.334,163.724 C327.334,73.43 254.137,0.232 163.843,0.232 C73.549,0.232 0.351,73.43 0.351,163.724" id="Clip-95"></path>
                <path d="M49.1555,146.9763 C54.1845,146.9763 58.2635,142.8933 58.2635,137.8583 C58.2635,132.8213 54.1845,128.7393 49.1555,128.7393 C44.1255,128.7393 40.0475,132.8213 40.0475,137.8583 C40.0475,142.8933 44.1255,146.9763 49.1555,146.9763" id="Fill-94" fill="#E6E7E8"></path>
            </g>
            <g id="Group-99" transform="translate(6.000000, 10.135000)">
                <path d="M0.351,163.724 C2.353,165.726 326.083,164.976 327.334,163.724 C327.334,73.43 254.137,0.232 163.843,0.232 C73.549,0.232 0.351,73.43 0.351,163.724" id="Clip-98"></path>
                <path d="M26.1321,146.9763 C31.1621,146.9763 35.2411,142.8933 35.2411,137.8583 C35.2411,132.8213 31.1621,128.7393 26.1321,128.7393 C21.1021,128.7393 17.0231,132.8213 17.0231,137.8583 C17.0231,142.8933 21.1021,146.9763 26.1321,146.9763" id="Fill-97" fill="#E6E7E8"></path>
            </g>
            <g id="Group-102" transform="translate(6.000000, 10.135000)">
                <path d="M0.351,163.724 C2.353,165.726 326.083,164.976 327.334,163.724 C327.334,73.43 254.137,0.232 163.843,0.232 C73.549,0.232 0.351,73.43 0.351,163.724" id="Clip-101"></path>
                <path d="M72.178,146.9763 C77.208,146.9763 81.287,142.8933 81.287,137.8583 C81.287,132.8213 77.208,128.7393 72.178,128.7393 C67.149,128.7393 63.071,132.8213 63.071,137.8583 C63.071,142.8933 67.149,146.9763 72.178,146.9763" id="Fill-100" fill="#E6E7E8"></path>
            </g>
            <g id="Group-105" transform="translate(6.000000, 10.135000)">
                <path d="M0.351,163.724 C2.353,165.726 326.083,164.976 327.334,163.724 C327.334,73.43 254.137,0.232 163.843,0.232 C73.549,0.232 0.351,73.43 0.351,163.724" id="Clip-104"></path>
                <path d="M95.2014,146.9763 C100.2314,146.9763 104.3104,142.8933 104.3104,137.8583 C104.3104,132.8213 100.2314,128.7393 95.2014,128.7393 C90.1724,128.7393 86.0934,132.8213 86.0934,137.8583 C86.0934,142.8933 90.1724,146.9763 95.2014,146.9763" id="Fill-103" fill="#E6E7E8"></path>
            </g>
            <g id="Group-108" transform="translate(6.000000, 10.135000)">
                <path d="M0.351,163.724 C2.353,165.726 326.083,164.976 327.334,163.724 C327.334,73.43 254.137,0.232 163.843,0.232 C73.549,0.232 0.351,73.43 0.351,163.724" id="Clip-107"></path>
                <path d="M118.2249,146.9763 C123.2549,146.9763 127.3339,142.8933 127.3339,137.8583 C127.3339,132.8213 123.2549,128.7393 118.2249,128.7393 C113.1949,128.7393 109.1169,132.8213 109.1169,137.8583 C109.1169,142.8933 113.1949,146.9763 118.2249,146.9763" id="Fill-106" fill="#E6E7E8"></path>
            </g>
            <g id="Group-111" transform="translate(6.000000, 10.135000)">
                <path d="M0.351,163.724 C2.353,165.726 326.083,164.976 327.334,163.724 C327.334,73.43 254.137,0.232 163.843,0.232 C73.549,0.232 0.351,73.43 0.351,163.724" id="Clip-110"></path>
                <path d="M141.2483,146.9763 C146.2773,146.9763 150.3563,142.8933 150.3563,137.8583 C150.3563,132.8213 146.2773,128.7393 141.2483,128.7393 C136.2183,128.7393 132.1403,132.8213 132.1403,137.8583 C132.1403,142.8933 136.2183,146.9763 141.2483,146.9763" id="Fill-109" fill="#E6E7E8"></path>
            </g>
            <g id="Group-114" transform="translate(6.000000, 10.135000)">
                <path d="M0.351,163.724 C2.353,165.726 326.083,164.976 327.334,163.724 C327.334,73.43 254.137,0.232 163.843,0.232 C73.549,0.232 0.351,73.43 0.351,163.724" id="Clip-113"></path>
                <path d="M187.2942,146.9763 C192.3242,146.9763 196.4022,142.8933 196.4022,137.8583 C196.4022,132.8213 192.3242,128.7393 187.2942,128.7393 C182.2652,128.7393 178.1862,132.8213 178.1862,137.8583 C178.1862,142.8933 182.2652,146.9763 187.2942,146.9763" id="Fill-112" fill="#E6E7E8"></path>
            </g>
            <g id="Group-117" transform="translate(6.000000, 10.135000)">
                <path d="M0.351,163.724 C2.353,165.726 326.083,164.976 327.334,163.724 C327.334,73.43 254.137,0.232 163.843,0.232 C73.549,0.232 0.351,73.43 0.351,163.724" id="Clip-116"></path>
                <path d="M164.2718,146.9763 C169.3008,146.9763 173.3788,142.8933 173.3788,137.8583 C173.3788,132.8213 169.3008,128.7393 164.2718,128.7393 C159.2418,128.7393 155.1628,132.8213 155.1628,137.8583 C155.1628,142.8933 159.2418,146.9763 164.2718,146.9763" id="Fill-115" fill="#E6E7E8"></path>
            </g>
            <g id="Group-120" transform="translate(6.000000, 10.135000)">
                <path d="M0.351,163.724 C2.353,165.726 326.083,164.976 327.334,163.724 C327.334,73.43 254.137,0.232 163.843,0.232 C73.549,0.232 0.351,73.43 0.351,163.724" id="Clip-119"></path>
                <path d="M210.3177,146.9763 C215.3477,146.9763 219.4257,142.8933 219.4257,137.8583 C219.4257,132.8213 215.3477,128.7393 210.3177,128.7393 C205.2877,128.7393 201.2087,132.8213 201.2087,137.8583 C201.2087,142.8933 205.2877,146.9763 210.3177,146.9763" id="Fill-118" fill="#E6E7E8"></path>
            </g>
            <g id="Group-123" transform="translate(6.000000, 10.135000)">
                <path d="M0.351,163.724 C2.353,165.726 326.083,164.976 327.334,163.724 C327.334,73.43 254.137,0.232 163.843,0.232 C73.549,0.232 0.351,73.43 0.351,163.724" id="Clip-122"></path>
                <path d="M233.3411,146.9763 C238.3701,146.9763 242.4491,142.8933 242.4491,137.8583 C242.4491,132.8213 238.3701,128.7393 233.3411,128.7393 C228.3111,128.7393 224.2331,132.8213 224.2331,137.8583 C224.2331,142.8933 228.3111,146.9763 233.3411,146.9763" id="Fill-121" fill="#E6E7E8"></path>
            </g>
            <g id="Group-126" transform="translate(6.000000, 10.135000)">
                <path d="M0.351,163.724 C2.353,165.726 326.083,164.976 327.334,163.724 C327.334,73.43 254.137,0.232 163.843,0.232 C73.549,0.232 0.351,73.43 0.351,163.724" id="Clip-125"></path>
                <path d="M256.3636,146.9763 C261.3946,146.9763 265.4716,142.8933 265.4716,137.8583 C265.4716,132.8213 261.3946,128.7393 256.3636,128.7393 C251.3346,128.7393 247.2566,132.8213 247.2566,137.8583 C247.2566,142.8933 251.3346,146.9763 256.3636,146.9763" id="Fill-124" fill="#E6E7E8"></path>
            </g>
            <g id="Group-129" transform="translate(6.000000, 10.135000)">
                <path d="M0.351,163.724 C2.353,165.726 326.083,164.976 327.334,163.724 C327.334,73.43 254.137,0.232 163.843,0.232 C73.549,0.232 0.351,73.43 0.351,163.724" id="Clip-128"></path>
                <path d="M279.387,146.9763 C284.417,146.9763 288.495,142.8933 288.495,137.8583 C288.495,132.8213 284.417,128.7393 279.387,128.7393 C274.358,128.7393 270.279,132.8213 270.279,137.8583 C270.279,142.8933 274.358,146.9763 279.387,146.9763" id="Fill-127" fill="#E6E7E8"></path>
            </g>
            <g id="Group-132" transform="translate(6.000000, 10.135000)">
                <path d="M0.351,163.724 C2.353,165.726 326.083,164.976 327.334,163.724 C327.334,73.43 254.137,0.232 163.843,0.232 C73.549,0.232 0.351,73.43 0.351,163.724" id="Clip-131"></path>
                <path d="M325.4339,146.9763 C330.4629,146.9763 334.5409,142.8933 334.5409,137.8583 C334.5409,132.8213 330.4629,128.7393 325.4339,128.7393 C320.4039,128.7393 316.3249,132.8213 316.3249,137.8583 C316.3249,142.8933 320.4039,146.9763 325.4339,146.9763" id="Fill-130" fill="#E6E7E8"></path>
            </g>
            <g id="Group-135" transform="translate(6.000000, 10.135000)">
                <path d="M0.351,163.724 C2.353,165.726 326.083,164.976 327.334,163.724 C327.334,73.43 254.137,0.232 163.843,0.232 C73.549,0.232 0.351,73.43 0.351,163.724" id="Clip-134"></path>
                <path d="M302.4104,146.9763 C307.4404,146.9763 311.5184,142.8933 311.5184,137.8583 C311.5184,132.8213 307.4404,128.7393 302.4104,128.7393 C297.3804,128.7393 293.3014,132.8213 293.3014,137.8583 C293.3014,142.8933 297.3804,146.9763 302.4104,146.9763" id="Fill-133" fill="#E6E7E8"></path>
            </g>
            <g id="Group-138" transform="translate(0.000000, 10.135000)">
                <path d="M6.351,163.724 C8.353,165.726 332.083,164.976 333.334,163.724 C333.334,73.43 260.137,0.232 169.843,0.232 C79.549,0.232 6.351,73.43 6.351,163.724" id="Clip-137"></path>
                <path d="M9.1087,169.9998 C14.1387,169.9998 18.2167,165.9168 18.2167,160.8808 C18.2167,155.8448 14.1387,151.7628 9.1087,151.7628 C4.0797,151.7628 0.000700000001,155.8448 0.000700000001,160.8808 C0.000700000001,165.9168 4.0797,169.9998 9.1087,169.9998" id="Fill-136" fill="#E6E7E8"></path>
            </g>
            <g id="Group-141" transform="translate(6.000000, 10.135000)">
                <path d="M0.351,163.724 C2.353,165.726 326.083,164.976 327.334,163.724 C327.334,73.43 254.137,0.232 163.843,0.232 C73.549,0.232 0.351,73.43 0.351,163.724" id="Clip-140"></path>
                <path d="M49.1555,169.9998 C54.1845,169.9998 58.2635,165.9168 58.2635,160.8808 C58.2635,155.8448 54.1845,151.7628 49.1555,151.7628 C44.1255,151.7628 40.0475,155.8448 40.0475,160.8808 C40.0475,165.9168 44.1255,169.9998 49.1555,169.9998" id="Fill-139" fill="#E6E7E8"></path>
            </g>
            <g id="Group-144" transform="translate(6.000000, 10.135000)">
                <path d="M0.351,163.724 C2.353,165.726 326.083,164.976 327.334,163.724 C327.334,73.43 254.137,0.232 163.843,0.232 C73.549,0.232 0.351,73.43 0.351,163.724" id="Clip-143"></path>
                <path d="M26.1321,169.9998 C31.1621,169.9998 35.2411,165.9168 35.2411,160.8808 C35.2411,155.8448 31.1621,151.7628 26.1321,151.7628 C21.1021,151.7628 17.0231,155.8448 17.0231,160.8808 C17.0231,165.9168 21.1021,169.9998 26.1321,169.9998" id="Fill-142" fill="#E6E7E8"></path>
            </g>
            <g id="Group-147" transform="translate(6.000000, 10.135000)">
                <path d="M0.351,163.724 C2.353,165.726 326.083,164.976 327.334,163.724 C327.334,73.43 254.137,0.232 163.843,0.232 C73.549,0.232 0.351,73.43 0.351,163.724" id="Clip-146"></path>
                <path d="M72.178,169.9998 C77.208,169.9998 81.287,165.9168 81.287,160.8808 C81.287,155.8448 77.208,151.7628 72.178,151.7628 C67.149,151.7628 63.071,155.8448 63.071,160.8808 C63.071,165.9168 67.149,169.9998 72.178,169.9998" id="Fill-145" fill="#E6E7E8"></path>
            </g>
            <g id="Group-150" transform="translate(6.000000, 10.135000)">
                <path d="M0.351,163.724 C2.353,165.726 326.083,164.976 327.334,163.724 C327.334,73.43 254.137,0.232 163.843,0.232 C73.549,0.232 0.351,73.43 0.351,163.724" id="Clip-149"></path>
                <path d="M95.2014,169.9998 C100.2314,169.9998 104.3104,165.9168 104.3104,160.8808 C104.3104,155.8448 100.2314,151.7628 95.2014,151.7628 C90.1724,151.7628 86.0934,155.8448 86.0934,160.8808 C86.0934,165.9168 90.1724,169.9998 95.2014,169.9998" id="Fill-148" fill="#E6E7E8"></path>
            </g>
            <g id="Group-153" transform="translate(6.000000, 10.135000)">
                <path d="M0.351,163.724 C2.353,165.726 326.083,164.976 327.334,163.724 C327.334,73.43 254.137,0.232 163.843,0.232 C73.549,0.232 0.351,73.43 0.351,163.724" id="Clip-152"></path>
                <path d="M118.2249,169.9998 C123.2549,169.9998 127.3339,165.9168 127.3339,160.8808 C127.3339,155.8448 123.2549,151.7628 118.2249,151.7628 C113.1949,151.7628 109.1169,155.8448 109.1169,160.8808 C109.1169,165.9168 113.1949,169.9998 118.2249,169.9998" id="Fill-151" fill="#E6E7E8"></path>
            </g>
            <g id="Group-156" transform="translate(6.000000, 10.135000)">
                <path d="M0.351,163.724 C2.353,165.726 326.083,164.976 327.334,163.724 C327.334,73.43 254.137,0.232 163.843,0.232 C73.549,0.232 0.351,73.43 0.351,163.724" id="Clip-155"></path>
                <path d="M141.2483,169.9998 C146.2773,169.9998 150.3563,165.9168 150.3563,160.8808 C150.3563,155.8448 146.2773,151.7628 141.2483,151.7628 C136.2183,151.7628 132.1403,155.8448 132.1403,160.8808 C132.1403,165.9168 136.2183,169.9998 141.2483,169.9998" id="Fill-154" fill="#E6E7E8"></path>
            </g>
            <g id="Group-159" transform="translate(6.000000, 10.135000)">
                <path d="M0.351,163.724 C2.353,165.726 326.083,164.976 327.334,163.724 C327.334,73.43 254.137,0.232 163.843,0.232 C73.549,0.232 0.351,73.43 0.351,163.724" id="Clip-158"></path>
                <path d="M187.2942,169.9998 C192.3242,169.9998 196.4022,165.9168 196.4022,160.8808 C196.4022,155.8448 192.3242,151.7628 187.2942,151.7628 C182.2652,151.7628 178.1862,155.8448 178.1862,160.8808 C178.1862,165.9168 182.2652,169.9998 187.2942,169.9998" id="Fill-157" fill="#E6E7E8"></path>
            </g>
            <g id="Group-162" transform="translate(6.000000, 10.135000)">
                <path d="M0.351,163.724 C2.353,165.726 326.083,164.976 327.334,163.724 C327.334,73.43 254.137,0.232 163.843,0.232 C73.549,0.232 0.351,73.43 0.351,163.724" id="Clip-161"></path>
                <path d="M164.2718,169.9998 C169.3008,169.9998 173.3788,165.9168 173.3788,160.8808 C173.3788,155.8448 169.3008,151.7628 164.2718,151.7628 C159.2418,151.7628 155.1628,155.8448 155.1628,160.8808 C155.1628,165.9168 159.2418,169.9998 164.2718,169.9998" id="Fill-160" fill="#E6E7E8"></path>
            </g>
            <g id="Group-165" transform="translate(6.000000, 10.135000)">
                <path d="M0.351,163.724 C2.353,165.726 326.083,164.976 327.334,163.724 C327.334,73.43 254.137,0.232 163.843,0.232 C73.549,0.232 0.351,73.43 0.351,163.724" id="Clip-164"></path>
                <path d="M210.3177,169.9998 C215.3477,169.9998 219.4257,165.9168 219.4257,160.8808 C219.4257,155.8448 215.3477,151.7628 210.3177,151.7628 C205.2877,151.7628 201.2087,155.8448 201.2087,160.8808 C201.2087,165.9168 205.2877,169.9998 210.3177,169.9998" id="Fill-163" fill="#E6E7E8"></path>
            </g>
            <g id="Group-168" transform="translate(6.000000, 10.135000)">
                <path d="M0.351,163.724 C2.353,165.726 326.083,164.976 327.334,163.724 C327.334,73.43 254.137,0.232 163.843,0.232 C73.549,0.232 0.351,73.43 0.351,163.724" id="Clip-167"></path>
                <path d="M233.3411,169.9998 C238.3701,169.9998 242.4491,165.9168 242.4491,160.8808 C242.4491,155.8448 238.3701,151.7628 233.3411,151.7628 C228.3111,151.7628 224.2331,155.8448 224.2331,160.8808 C224.2331,165.9168 228.3111,169.9998 233.3411,169.9998" id="Fill-166" fill="#E6E7E8"></path>
            </g>
            <g id="Group-171" transform="translate(6.000000, 10.135000)">
                <path d="M0.351,163.724 C2.353,165.726 326.083,164.976 327.334,163.724 C327.334,73.43 254.137,0.232 163.843,0.232 C73.549,0.232 0.351,73.43 0.351,163.724" id="Clip-170"></path>
                <path d="M256.3636,169.9998 C261.3946,169.9998 265.4716,165.9168 265.4716,160.8808 C265.4716,155.8448 261.3946,151.7628 256.3636,151.7628 C251.3346,151.7628 247.2566,155.8448 247.2566,160.8808 C247.2566,165.9168 251.3346,169.9998 256.3636,169.9998" id="Fill-169" fill="#E6E7E8"></path>
            </g>
            <g id="Group-174" transform="translate(6.000000, 10.135000)">
                <path d="M0.351,163.724 C2.353,165.726 326.083,164.976 327.334,163.724 C327.334,73.43 254.137,0.232 163.843,0.232 C73.549,0.232 0.351,73.43 0.351,163.724" id="Clip-173"></path>
                <path d="M279.387,169.9998 C284.417,169.9998 288.495,165.9168 288.495,160.8808 C288.495,155.8448 284.417,151.7628 279.387,151.7628 C274.358,151.7628 270.279,155.8448 270.279,160.8808 C270.279,165.9168 274.358,169.9998 279.387,169.9998" id="Fill-172" fill="#E6E7E8"></path>
            </g>
            <g id="Group-177" transform="translate(6.000000, 10.135000)">
                <path d="M0.351,163.724 C2.353,165.726 326.083,164.976 327.334,163.724 C327.334,73.43 254.137,0.232 163.843,0.232 C73.549,0.232 0.351,73.43 0.351,163.724" id="Clip-176"></path>
                <path d="M325.4339,169.9998 C330.4629,169.9998 334.5409,165.9168 334.5409,160.8808 C334.5409,155.8448 330.4629,151.7628 325.4339,151.7628 C320.4039,151.7628 316.3249,155.8448 316.3249,160.8808 C316.3249,165.9168 320.4039,169.9998 325.4339,169.9998" id="Fill-175" fill="#E6E7E8"></path>
            </g>
            <g id="Group-180" transform="translate(6.000000, 10.135000)">
                <path d="M0.351,163.724 C2.353,165.726 326.083,164.976 327.334,163.724 C327.334,73.43 254.137,0.232 163.843,0.232 C73.549,0.232 0.351,73.43 0.351,163.724" id="Clip-179"></path>
                <path d="M302.4104,169.9998 C307.4404,169.9998 311.5184,165.9168 311.5184,160.8808 C311.5184,155.8448 307.4404,151.7628 302.4104,151.7628 C297.3804,151.7628 293.3014,155.8448 293.3014,160.8808 C293.3014,165.9168 297.3804,169.9998 302.4104,169.9998" id="Fill-178" fill="#E6E7E8"></path>
            </g>
            <g id="Group-183" transform="translate(0.000000, 0.135000)">
                <path d="M6.351,173.724 C8.353,175.726 332.083,174.976 333.334,173.724 C333.334,83.43 260.137,10.232 169.843,10.232 C79.549,10.232 6.351,83.43 6.351,173.724" id="Clip-182"></path>
                <path d="M9.1087,19.1033 C14.1387,19.1033 18.2167,15.0203 18.2167,9.9843 C18.2167,4.9473 14.1387,0.8653 9.1087,0.8653 C4.0797,0.8653 0.000700000001,4.9473 0.000700000001,9.9843 C0.000700000001,15.0203 4.0797,19.1033 9.1087,19.1033" id="Fill-181" fill="#E6E7E8"></path>
            </g>
            <g id="Group-186" transform="translate(6.000000, 0.135000)">
                <path d="M0.351,173.724 C2.353,175.726 326.083,174.976 327.334,173.724 C327.334,83.43 254.137,10.232 163.843,10.232 C73.549,10.232 0.351,83.43 0.351,173.724" id="Clip-185"></path>
                <path d="M49.1555,19.1033 C54.1845,19.1033 58.2635,15.0203 58.2635,9.9843 C58.2635,4.9473 54.1845,0.8653 49.1555,0.8653 C44.1255,0.8653 40.0475,4.9473 40.0475,9.9843 C40.0475,15.0203 44.1255,19.1033 49.1555,19.1033" id="Fill-184" fill="#E6E7E8"></path>
            </g>
            <g id="Group-189" transform="translate(6.000000, 0.135000)">
                <path d="M0.351,173.724 C2.353,175.726 326.083,174.976 327.334,173.724 C327.334,83.43 254.137,10.232 163.843,10.232 C73.549,10.232 0.351,83.43 0.351,173.724" id="Clip-188"></path>
                <path d="M26.1321,19.1033 C31.1621,19.1033 35.2411,15.0203 35.2411,9.9843 C35.2411,4.9473 31.1621,0.8653 26.1321,0.8653 C21.1021,0.8653 17.0231,4.9473 17.0231,9.9843 C17.0231,15.0203 21.1021,19.1033 26.1321,19.1033" id="Fill-187" fill="#E6E7E8"></path>
            </g>
            <g id="Group-192" transform="translate(6.000000, 0.135000)">
                <path d="M0.351,173.724 C2.353,175.726 326.083,174.976 327.334,173.724 C327.334,83.43 254.137,10.232 163.843,10.232 C73.549,10.232 0.351,83.43 0.351,173.724" id="Clip-191"></path>
                <path d="M72.178,19.1033 C77.208,19.1033 81.287,15.0203 81.287,9.9843 C81.287,4.9473 77.208,0.8653 72.178,0.8653 C67.149,0.8653 63.071,4.9473 63.071,9.9843 C63.071,15.0203 67.149,19.1033 72.178,19.1033" id="Fill-190" fill="#E6E7E8"></path>
            </g>
            <g id="Group-195" transform="translate(6.000000, 0.135000)">
                <path d="M0.351,173.724 C2.353,175.726 326.083,174.976 327.334,173.724 C327.334,83.43 254.137,10.232 163.843,10.232 C73.549,10.232 0.351,83.43 0.351,173.724" id="Clip-194"></path>
                <path d="M95.2014,19.1033 C100.2314,19.1033 104.3104,15.0203 104.3104,9.9843 C104.3104,4.9473 100.2314,0.8653 95.2014,0.8653 C90.1724,0.8653 86.0934,4.9473 86.0934,9.9843 C86.0934,15.0203 90.1724,19.1033 95.2014,19.1033" id="Fill-193" fill="#E6E7E8"></path>
            </g>
            <g id="Group-198" transform="translate(6.000000, 0.135000)">
                <path d="M0.351,173.724 C2.353,175.726 326.083,174.976 327.334,173.724 C327.334,83.43 254.137,10.232 163.843,10.232 C73.549,10.232 0.351,83.43 0.351,173.724" id="Clip-197"></path>
                <path d="M118.2249,19.1033 C123.2549,19.1033 127.3339,15.0203 127.3339,9.9843 C127.3339,4.9473 123.2549,0.8653 118.2249,0.8653 C113.1949,0.8653 109.1169,4.9473 109.1169,9.9843 C109.1169,15.0203 113.1949,19.1033 118.2249,19.1033" id="Fill-196" fill="#E6E7E8"></path>
            </g>
            <g id="Group-201" transform="translate(6.000000, 0.135000)">
                <path d="M0.351,173.724 C2.353,175.726 326.083,174.976 327.334,173.724 C327.334,83.43 254.137,10.232 163.843,10.232 C73.549,10.232 0.351,83.43 0.351,173.724" id="Clip-200"></path>
                <path d="M141.2483,19.1033 C146.2773,19.1033 150.3563,15.0203 150.3563,9.9843 C150.3563,4.9473 146.2773,0.8653 141.2483,0.8653 C136.2183,0.8653 132.1403,4.9473 132.1403,9.9843 C132.1403,15.0203 136.2183,19.1033 141.2483,19.1033" id="Fill-199" fill="#E6E7E8"></path>
            </g>
            <g id="Group-204" transform="translate(6.000000, 0.135000)">
                <path d="M0.351,173.724 C2.353,175.726 326.083,174.976 327.334,173.724 C327.334,83.43 254.137,10.232 163.843,10.232 C73.549,10.232 0.351,83.43 0.351,173.724" id="Clip-203"></path>
                <path d="M187.2942,19.1033 C192.3242,19.1033 196.4022,15.0203 196.4022,9.9843 C196.4022,4.9473 192.3242,0.8653 187.2942,0.8653 C182.2652,0.8653 178.1862,4.9473 178.1862,9.9843 C178.1862,15.0203 182.2652,19.1033 187.2942,19.1033" id="Fill-202" fill="#E6E7E8"></path>
            </g>
            <g id="Group-207" transform="translate(6.000000, 0.135000)">
                <path d="M0.351,173.724 C2.353,175.726 326.083,174.976 327.334,173.724 C327.334,83.43 254.137,10.232 163.843,10.232 C73.549,10.232 0.351,83.43 0.351,173.724" id="Clip-206"></path>
                <path d="M164.2718,19.1033 C169.3008,19.1033 173.3788,15.0203 173.3788,9.9843 C173.3788,4.9473 169.3008,0.8653 164.2718,0.8653 C159.2418,0.8653 155.1628,4.9473 155.1628,9.9843 C155.1628,15.0203 159.2418,19.1033 164.2718,19.1033" id="Fill-205" fill="#E6E7E8"></path>
            </g>
            <g id="Group-210" transform="translate(6.000000, 0.135000)">
                <path d="M0.351,173.724 C2.353,175.726 326.083,174.976 327.334,173.724 C327.334,83.43 254.137,10.232 163.843,10.232 C73.549,10.232 0.351,83.43 0.351,173.724" id="Clip-209"></path>
                <path d="M210.3177,19.1033 C215.3477,19.1033 219.4257,15.0203 219.4257,9.9843 C219.4257,4.9473 215.3477,0.8653 210.3177,0.8653 C205.2877,0.8653 201.2087,4.9473 201.2087,9.9843 C201.2087,15.0203 205.2877,19.1033 210.3177,19.1033" id="Fill-208" fill="#E6E7E8"></path>
            </g>
            <g id="Group-213" transform="translate(6.000000, 0.135000)">
                <path d="M0.351,173.724 C2.353,175.726 326.083,174.976 327.334,173.724 C327.334,83.43 254.137,10.232 163.843,10.232 C73.549,10.232 0.351,83.43 0.351,173.724" id="Clip-212"></path>
                <path d="M233.3411,19.1033 C238.3701,19.1033 242.4491,15.0203 242.4491,9.9843 C242.4491,4.9473 238.3701,0.8653 233.3411,0.8653 C228.3111,0.8653 224.2331,4.9473 224.2331,9.9843 C224.2331,15.0203 228.3111,19.1033 233.3411,19.1033" id="Fill-211" fill="#E6E7E8"></path>
            </g>
            <g id="Group-216" transform="translate(6.000000, 0.135000)">
                <path d="M0.351,173.724 C2.353,175.726 326.083,174.976 327.334,173.724 C327.334,83.43 254.137,10.232 163.843,10.232 C73.549,10.232 0.351,83.43 0.351,173.724" id="Clip-215"></path>
                <path d="M256.3636,19.1033 C261.3946,19.1033 265.4716,15.0203 265.4716,9.9843 C265.4716,4.9473 261.3946,0.8653 256.3636,0.8653 C251.3346,0.8653 247.2566,4.9473 247.2566,9.9843 C247.2566,15.0203 251.3346,19.1033 256.3636,19.1033" id="Fill-214" fill="#E6E7E8"></path>
            </g>
            <g id="Group-219" transform="translate(6.000000, 0.135000)">
                <path d="M0.351,173.724 C2.353,175.726 326.083,174.976 327.334,173.724 C327.334,83.43 254.137,10.232 163.843,10.232 C73.549,10.232 0.351,83.43 0.351,173.724" id="Clip-218"></path>
                <path d="M279.387,19.1033 C284.417,19.1033 288.495,15.0203 288.495,9.9843 C288.495,4.9473 284.417,0.8653 279.387,0.8653 C274.358,0.8653 270.279,4.9473 270.279,9.9843 C270.279,15.0203 274.358,19.1033 279.387,19.1033" id="Fill-217" fill="#E6E7E8"></path>
            </g>
            <g id="Group-222" transform="translate(6.000000, 0.135000)">
                <path d="M0.351,173.724 C2.353,175.726 326.083,174.976 327.334,173.724 C327.334,83.43 254.137,10.232 163.843,10.232 C73.549,10.232 0.351,83.43 0.351,173.724" id="Clip-221"></path>
                <path d="M325.4339,19.1033 C330.4629,19.1033 334.5409,15.0203 334.5409,9.9843 C334.5409,4.9473 330.4629,0.8653 325.4339,0.8653 C320.4039,0.8653 316.3249,4.9473 316.3249,9.9843 C316.3249,15.0203 320.4039,19.1033 325.4339,19.1033" id="Fill-220" fill="#E6E7E8"></path>
            </g>
            <g id="Group-225" transform="translate(6.000000, 0.135000)">
                <path d="M0.351,173.724 C2.353,175.726 326.083,174.976 327.334,173.724 C327.334,83.43 254.137,10.232 163.843,10.232 C73.549,10.232 0.351,83.43 0.351,173.724" id="Clip-224"></path>
                <path d="M302.4104,19.1033 C307.4404,19.1033 311.5184,15.0203 311.5184,9.9843 C311.5184,4.9473 307.4404,0.8653 302.4104,0.8653 C297.3804,0.8653 293.3014,4.9473 293.3014,9.9843 C293.3014,15.0203 297.3804,19.1033 302.4104,19.1033" id="Fill-223" fill="#E6E7E8"></path>
            </g>
            <g id="Group-228" transform="translate(0.000000, 10.135000)">
                <path d="M6.351,163.724 C8.353,165.726 332.083,164.976 333.334,163.724 C333.334,73.43 260.137,0.232 169.843,0.232 C79.549,0.232 6.351,73.43 6.351,163.724" id="Clip-227"></path>
                <path d="M9.1087,32.1267 C14.1387,32.1267 18.2167,28.0437 18.2167,23.0077 C18.2167,17.9707 14.1387,13.8887 9.1087,13.8887 C4.0797,13.8887 0.000700000001,17.9707 0.000700000001,23.0077 C0.000700000001,28.0437 4.0797,32.1267 9.1087,32.1267" id="Fill-226" fill="#E6E7E8"></path>
            </g>
            <g id="Group-231" transform="translate(6.000000, 10.135000)">
                <path d="M0.351,163.724 C2.353,165.726 326.083,164.976 327.334,163.724 C327.334,73.43 254.137,0.232 163.843,0.232 C73.549,0.232 0.351,73.43 0.351,163.724" id="Clip-230"></path>
                <path d="M49.1555,32.1267 C54.1845,32.1267 58.2635,28.0437 58.2635,23.0077 C58.2635,17.9707 54.1845,13.8887 49.1555,13.8887 C44.1255,13.8887 40.0475,17.9707 40.0475,23.0077 C40.0475,28.0437 44.1255,32.1267 49.1555,32.1267" id="Fill-229" fill="#E6E7E8"></path>
            </g>
            <g id="Group-234" transform="translate(6.000000, 10.135000)">
                <path d="M0.351,163.724 C2.353,165.726 326.083,164.976 327.334,163.724 C327.334,73.43 254.137,0.232 163.843,0.232 C73.549,0.232 0.351,73.43 0.351,163.724" id="Clip-233"></path>
                <path d="M26.1321,32.1267 C31.1621,32.1267 35.2411,28.0437 35.2411,23.0077 C35.2411,17.9707 31.1621,13.8887 26.1321,13.8887 C21.1021,13.8887 17.0231,17.9707 17.0231,23.0077 C17.0231,28.0437 21.1021,32.1267 26.1321,32.1267" id="Fill-232" fill="#E6E7E8"></path>
            </g>
            <g id="Group-237" transform="translate(6.000000, 10.135000)">
                <path d="M0.351,163.724 C2.353,165.726 326.083,164.976 327.334,163.724 C327.334,73.43 254.137,0.232 163.843,0.232 C73.549,0.232 0.351,73.43 0.351,163.724" id="Clip-236"></path>
                <path d="M72.178,32.1267 C77.208,32.1267 81.287,28.0437 81.287,23.0077 C81.287,17.9707 77.208,13.8887 72.178,13.8887 C67.149,13.8887 63.071,17.9707 63.071,23.0077 C63.071,28.0437 67.149,32.1267 72.178,32.1267" id="Fill-235" fill="#E6E7E8"></path>
            </g>
            <g id="Group-240" transform="translate(6.000000, 10.135000)">
                <path d="M0.351,163.724 C2.353,165.726 326.083,164.976 327.334,163.724 C327.334,73.43 254.137,0.232 163.843,0.232 C73.549,0.232 0.351,73.43 0.351,163.724" id="Clip-239"></path>
                <path d="M95.2014,32.1267 C100.2314,32.1267 104.3104,28.0437 104.3104,23.0077 C104.3104,17.9707 100.2314,13.8887 95.2014,13.8887 C90.1724,13.8887 86.0934,17.9707 86.0934,23.0077 C86.0934,28.0437 90.1724,32.1267 95.2014,32.1267" id="Fill-238" fill="#E6E7E8"></path>
            </g>
            <g id="Group-243" transform="translate(6.000000, 10.135000)">
                <path d="M0.351,163.724 C2.353,165.726 326.083,164.976 327.334,163.724 C327.334,73.43 254.137,0.232 163.843,0.232 C73.549,0.232 0.351,73.43 0.351,163.724" id="Clip-242"></path>
                <path d="M118.2249,32.1267 C123.2549,32.1267 127.3339,28.0437 127.3339,23.0077 C127.3339,17.9707 123.2549,13.8887 118.2249,13.8887 C113.1949,13.8887 109.1169,17.9707 109.1169,23.0077 C109.1169,28.0437 113.1949,32.1267 118.2249,32.1267" id="Fill-241" fill="#E6E7E8"></path>
            </g>
            <g id="Group-246" transform="translate(6.000000, 10.135000)">
                <path d="M0.351,163.724 C2.353,165.726 326.083,164.976 327.334,163.724 C327.334,73.43 254.137,0.232 163.843,0.232 C73.549,0.232 0.351,73.43 0.351,163.724" id="Clip-245"></path>
                <path d="M141.2483,32.1267 C146.2773,32.1267 150.3563,28.0437 150.3563,23.0077 C150.3563,17.9707 146.2773,13.8887 141.2483,13.8887 C136.2183,13.8887 132.1403,17.9707 132.1403,23.0077 C132.1403,28.0437 136.2183,32.1267 141.2483,32.1267" id="Fill-244" fill="#E6E7E8"></path>
            </g>
            <g id="Group-249" transform="translate(6.000000, 10.135000)">
                <path d="M0.351,163.724 C2.353,165.726 326.083,164.976 327.334,163.724 C327.334,73.43 254.137,0.232 163.843,0.232 C73.549,0.232 0.351,73.43 0.351,163.724" id="Clip-248"></path>
                <path d="M187.2942,32.1267 C192.3242,32.1267 196.4022,28.0437 196.4022,23.0077 C196.4022,17.9707 192.3242,13.8887 187.2942,13.8887 C182.2652,13.8887 178.1862,17.9707 178.1862,23.0077 C178.1862,28.0437 182.2652,32.1267 187.2942,32.1267" id="Fill-247" fill="#E6E7E8"></path>
            </g>
            <g id="Group-252" transform="translate(6.000000, 10.135000)">
                <path d="M0.351,163.724 C2.353,165.726 326.083,164.976 327.334,163.724 C327.334,73.43 254.137,0.232 163.843,0.232 C73.549,0.232 0.351,73.43 0.351,163.724" id="Clip-251"></path>
                <path d="M164.2718,32.1267 C169.3008,32.1267 173.3788,28.0437 173.3788,23.0077 C173.3788,17.9707 169.3008,13.8887 164.2718,13.8887 C159.2418,13.8887 155.1628,17.9707 155.1628,23.0077 C155.1628,28.0437 159.2418,32.1267 164.2718,32.1267" id="Fill-250" fill="#E6E7E8"></path>
            </g>
            <g id="Group-255" transform="translate(6.000000, 10.135000)">
                <path d="M0.351,163.724 C2.353,165.726 326.083,164.976 327.334,163.724 C327.334,73.43 254.137,0.232 163.843,0.232 C73.549,0.232 0.351,73.43 0.351,163.724" id="Clip-254"></path>
                <path d="M210.3177,32.1267 C215.3477,32.1267 219.4257,28.0437 219.4257,23.0077 C219.4257,17.9707 215.3477,13.8887 210.3177,13.8887 C205.2877,13.8887 201.2087,17.9707 201.2087,23.0077 C201.2087,28.0437 205.2877,32.1267 210.3177,32.1267" id="Fill-253" fill="#E6E7E8"></path>
            </g>
            <g id="Group-258" transform="translate(6.000000, 10.135000)">
                <path d="M0.351,163.724 C2.353,165.726 326.083,164.976 327.334,163.724 C327.334,73.43 254.137,0.232 163.843,0.232 C73.549,0.232 0.351,73.43 0.351,163.724" id="Clip-257"></path>
                <path d="M233.3411,32.1267 C238.3701,32.1267 242.4491,28.0437 242.4491,23.0077 C242.4491,17.9707 238.3701,13.8887 233.3411,13.8887 C228.3111,13.8887 224.2331,17.9707 224.2331,23.0077 C224.2331,28.0437 228.3111,32.1267 233.3411,32.1267" id="Fill-256" fill="#E6E7E8"></path>
            </g>
            <g id="Group-261" transform="translate(6.000000, 10.135000)">
                <path d="M0.351,163.724 C2.353,165.726 326.083,164.976 327.334,163.724 C327.334,73.43 254.137,0.232 163.843,0.232 C73.549,0.232 0.351,73.43 0.351,163.724" id="Clip-260"></path>
                <path d="M256.3636,32.1267 C261.3946,32.1267 265.4716,28.0437 265.4716,23.0077 C265.4716,17.9707 261.3946,13.8887 256.3636,13.8887 C251.3346,13.8887 247.2566,17.9707 247.2566,23.0077 C247.2566,28.0437 251.3346,32.1267 256.3636,32.1267" id="Fill-259" fill="#E6E7E8"></path>
            </g>
            <g id="Group-264" transform="translate(6.000000, 10.135000)">
                <path d="M0.351,163.724 C2.353,165.726 326.083,164.976 327.334,163.724 C327.334,73.43 254.137,0.232 163.843,0.232 C73.549,0.232 0.351,73.43 0.351,163.724" id="Clip-263"></path>
                <path d="M279.387,32.1267 C284.417,32.1267 288.495,28.0437 288.495,23.0077 C288.495,17.9707 284.417,13.8887 279.387,13.8887 C274.358,13.8887 270.279,17.9707 270.279,23.0077 C270.279,28.0437 274.358,32.1267 279.387,32.1267" id="Fill-262" fill="#E6E7E8"></path>
            </g>
            <g id="Group-267" transform="translate(6.000000, 10.135000)">
                <path d="M0.351,163.724 C2.353,165.726 326.083,164.976 327.334,163.724 C327.334,73.43 254.137,0.232 163.843,0.232 C73.549,0.232 0.351,73.43 0.351,163.724" id="Clip-266"></path>
                <path d="M325.4339,32.1267 C330.4629,32.1267 334.5409,28.0437 334.5409,23.0077 C334.5409,17.9707 330.4629,13.8887 325.4339,13.8887 C320.4039,13.8887 316.3249,17.9707 316.3249,23.0077 C316.3249,28.0437 320.4039,32.1267 325.4339,32.1267" id="Fill-265" fill="#E6E7E8"></path>
            </g>
            <g id="Group-270" transform="translate(6.000000, 10.135000)">
                <path d="M0.351,163.724 C2.353,165.726 326.083,164.976 327.334,163.724 C327.334,73.43 254.137,0.232 163.843,0.232 C73.549,0.232 0.351,73.43 0.351,163.724" id="Clip-269"></path>
                <path d="M302.4104,32.1267 C307.4404,32.1267 311.5184,28.0437 311.5184,23.0077 C311.5184,17.9707 307.4404,13.8887 302.4104,13.8887 C297.3804,13.8887 293.3014,17.9707 293.3014,23.0077 C293.3014,28.0437 297.3804,32.1267 302.4104,32.1267" id="Fill-268" fill="#E6E7E8"></path>
            </g>
            <g id="Group-273" transform="translate(0.000000, 10.135000)">
                <path d="M6.351,163.724 C8.353,165.726 332.083,164.976 333.334,163.724 C333.334,73.43 260.137,0.232 169.843,0.232 C79.549,0.232 6.351,73.43 6.351,163.724" id="Clip-272"></path>
                <path d="M9.1087,55.1492 C14.1387,55.1492 18.2167,51.0662 18.2167,46.0312 C18.2167,40.9942 14.1387,36.9112 9.1087,36.9112 C4.0797,36.9112 0.000700000001,40.9942 0.000700000001,46.0312 C0.000700000001,51.0662 4.0797,55.1492 9.1087,55.1492" id="Fill-271" fill="#E6E7E8"></path>
            </g>
            <g id="Group-276" transform="translate(6.000000, 10.135000)">
                <path d="M0.351,163.724 C2.353,165.726 326.083,164.976 327.334,163.724 C327.334,73.43 254.137,0.232 163.843,0.232 C73.549,0.232 0.351,73.43 0.351,163.724" id="Clip-275"></path>
                <path d="M49.1555,55.1492 C54.1845,55.1492 58.2635,51.0662 58.2635,46.0312 C58.2635,40.9942 54.1845,36.9112 49.1555,36.9112 C44.1255,36.9112 40.0475,40.9942 40.0475,46.0312 C40.0475,51.0662 44.1255,55.1492 49.1555,55.1492" id="Fill-274" fill="#E6E7E8"></path>
            </g>
            <g id="Group-279" transform="translate(6.000000, 10.135000)">
                <path d="M0.351,163.724 C2.353,165.726 326.083,164.976 327.334,163.724 C327.334,73.43 254.137,0.232 163.843,0.232 C73.549,0.232 0.351,73.43 0.351,163.724" id="Clip-278"></path>
                <path d="M26.1321,55.1492 C31.1621,55.1492 35.2411,51.0662 35.2411,46.0312 C35.2411,40.9942 31.1621,36.9112 26.1321,36.9112 C21.1021,36.9112 17.0231,40.9942 17.0231,46.0312 C17.0231,51.0662 21.1021,55.1492 26.1321,55.1492" id="Fill-277" fill="#E6E7E8"></path>
            </g>
            <g id="Group-282" transform="translate(6.000000, 10.135000)">
                <path d="M0.351,163.724 C2.353,165.726 326.083,164.976 327.334,163.724 C327.334,73.43 254.137,0.232 163.843,0.232 C73.549,0.232 0.351,73.43 0.351,163.724" id="Clip-281"></path>
                <path d="M72.178,55.1492 C77.208,55.1492 81.287,51.0662 81.287,46.0312 C81.287,40.9942 77.208,36.9112 72.178,36.9112 C67.149,36.9112 63.071,40.9942 63.071,46.0312 C63.071,51.0662 67.149,55.1492 72.178,55.1492" id="Fill-280" fill="#E6E7E8"></path>
            </g>
            <g id="Group-285" transform="translate(6.000000, 10.135000)">
                <path d="M0.351,163.724 C2.353,165.726 326.083,164.976 327.334,163.724 C327.334,73.43 254.137,0.232 163.843,0.232 C73.549,0.232 0.351,73.43 0.351,163.724" id="Clip-284"></path>
                <path d="M95.2014,55.1492 C100.2314,55.1492 104.3104,51.0662 104.3104,46.0312 C104.3104,40.9942 100.2314,36.9112 95.2014,36.9112 C90.1724,36.9112 86.0934,40.9942 86.0934,46.0312 C86.0934,51.0662 90.1724,55.1492 95.2014,55.1492" id="Fill-283" fill="#E6E7E8"></path>
            </g>
            <g id="Group-288" transform="translate(6.000000, 10.135000)">
                <path d="M0.351,163.724 C2.353,165.726 326.083,164.976 327.334,163.724 C327.334,73.43 254.137,0.232 163.843,0.232 C73.549,0.232 0.351,73.43 0.351,163.724" id="Clip-287"></path>
                <path d="M118.2249,55.1492 C123.2549,55.1492 127.3339,51.0662 127.3339,46.0312 C127.3339,40.9942 123.2549,36.9112 118.2249,36.9112 C113.1949,36.9112 109.1169,40.9942 109.1169,46.0312 C109.1169,51.0662 113.1949,55.1492 118.2249,55.1492" id="Fill-286" fill="#E6E7E8"></path>
            </g>
            <g id="Group-291" transform="translate(6.000000, 10.135000)">
                <path d="M0.351,163.724 C2.353,165.726 326.083,164.976 327.334,163.724 C327.334,73.43 254.137,0.232 163.843,0.232 C73.549,0.232 0.351,73.43 0.351,163.724" id="Clip-290"></path>
                <path d="M141.2483,55.1492 C146.2773,55.1492 150.3563,51.0662 150.3563,46.0312 C150.3563,40.9942 146.2773,36.9112 141.2483,36.9112 C136.2183,36.9112 132.1403,40.9942 132.1403,46.0312 C132.1403,51.0662 136.2183,55.1492 141.2483,55.1492" id="Fill-289" fill="#E6E7E8"></path>
            </g>
            <g id="Group-294" transform="translate(6.000000, 10.135000)">
                <path d="M0.351,163.724 C2.353,165.726 326.083,164.976 327.334,163.724 C327.334,73.43 254.137,0.232 163.843,0.232 C73.549,0.232 0.351,73.43 0.351,163.724" id="Clip-293"></path>
                <path d="M187.2942,55.1492 C192.3242,55.1492 196.4022,51.0662 196.4022,46.0312 C196.4022,40.9942 192.3242,36.9112 187.2942,36.9112 C182.2652,36.9112 178.1862,40.9942 178.1862,46.0312 C178.1862,51.0662 182.2652,55.1492 187.2942,55.1492" id="Fill-292" fill="#E6E7E8"></path>
            </g>
            <g id="Group-297" transform="translate(6.000000, 10.135000)">
                <path d="M0.351,163.724 C2.353,165.726 326.083,164.976 327.334,163.724 C327.334,73.43 254.137,0.232 163.843,0.232 C73.549,0.232 0.351,73.43 0.351,163.724" id="Clip-296"></path>
                <path d="M164.2718,55.1492 C169.3008,55.1492 173.3788,51.0662 173.3788,46.0312 C173.3788,40.9942 169.3008,36.9112 164.2718,36.9112 C159.2418,36.9112 155.1628,40.9942 155.1628,46.0312 C155.1628,51.0662 159.2418,55.1492 164.2718,55.1492" id="Fill-295" fill="#E6E7E8"></path>
            </g>
            <g id="Group-300" transform="translate(6.000000, 10.135000)">
                <path d="M0.351,163.724 C2.353,165.726 326.083,164.976 327.334,163.724 C327.334,73.43 254.137,0.232 163.843,0.232 C73.549,0.232 0.351,73.43 0.351,163.724" id="Clip-299"></path>
                <path d="M210.3177,55.1492 C215.3477,55.1492 219.4257,51.0662 219.4257,46.0312 C219.4257,40.9942 215.3477,36.9112 210.3177,36.9112 C205.2877,36.9112 201.2087,40.9942 201.2087,46.0312 C201.2087,51.0662 205.2877,55.1492 210.3177,55.1492" id="Fill-298" fill="#E6E7E8"></path>
            </g>
            <g id="Group-303" transform="translate(6.000000, 10.135000)">
                <path d="M0.351,163.724 C2.353,165.726 326.083,164.976 327.334,163.724 C327.334,73.43 254.137,0.232 163.843,0.232 C73.549,0.232 0.351,73.43 0.351,163.724" id="Clip-302"></path>
                <path d="M233.3411,55.1492 C238.3701,55.1492 242.4491,51.0662 242.4491,46.0312 C242.4491,40.9942 238.3701,36.9112 233.3411,36.9112 C228.3111,36.9112 224.2331,40.9942 224.2331,46.0312 C224.2331,51.0662 228.3111,55.1492 233.3411,55.1492" id="Fill-301" fill="#E6E7E8"></path>
            </g>
            <g id="Group-306" transform="translate(6.000000, 10.135000)">
                <path d="M0.351,163.724 C2.353,165.726 326.083,164.976 327.334,163.724 C327.334,73.43 254.137,0.232 163.843,0.232 C73.549,0.232 0.351,73.43 0.351,163.724" id="Clip-305"></path>
                <path d="M256.3636,55.1492 C261.3946,55.1492 265.4716,51.0662 265.4716,46.0312 C265.4716,40.9942 261.3946,36.9112 256.3636,36.9112 C251.3346,36.9112 247.2566,40.9942 247.2566,46.0312 C247.2566,51.0662 251.3346,55.1492 256.3636,55.1492" id="Fill-304" fill="#E6E7E8"></path>
            </g>
            <g id="Group-309" transform="translate(6.000000, 10.135000)">
                <path d="M0.351,163.724 C2.353,165.726 326.083,164.976 327.334,163.724 C327.334,73.43 254.137,0.232 163.843,0.232 C73.549,0.232 0.351,73.43 0.351,163.724" id="Clip-308"></path>
                <path d="M279.387,55.1492 C284.417,55.1492 288.495,51.0662 288.495,46.0312 C288.495,40.9942 284.417,36.9112 279.387,36.9112 C274.358,36.9112 270.279,40.9942 270.279,46.0312 C270.279,51.0662 274.358,55.1492 279.387,55.1492" id="Fill-307" fill="#E6E7E8"></path>
            </g>
            <g id="Group-312" transform="translate(6.000000, 10.135000)">
                <path d="M0.351,163.724 C2.353,165.726 326.083,164.976 327.334,163.724 C327.334,73.43 254.137,0.232 163.843,0.232 C73.549,0.232 0.351,73.43 0.351,163.724" id="Clip-311"></path>
                <path d="M325.4339,55.1492 C330.4629,55.1492 334.5409,51.0662 334.5409,46.0312 C334.5409,40.9942 330.4629,36.9112 325.4339,36.9112 C320.4039,36.9112 316.3249,40.9942 316.3249,46.0312 C316.3249,51.0662 320.4039,55.1492 325.4339,55.1492" id="Fill-310" fill="#E6E7E8"></path>
            </g>
            <g id="Group-315" transform="translate(6.000000, 10.135000)">
                <path d="M0.351,163.724 C2.353,165.726 326.083,164.976 327.334,163.724 C327.334,73.43 254.137,0.232 163.843,0.232 C73.549,0.232 0.351,73.43 0.351,163.724" id="Clip-314"></path>
                <path d="M302.4104,55.1492 C307.4404,55.1492 311.5184,51.0662 311.5184,46.0312 C311.5184,40.9942 307.4404,36.9112 302.4104,36.9112 C297.3804,36.9112 293.3014,40.9942 293.3014,46.0312 C293.3014,51.0662 297.3804,55.1492 302.4104,55.1492" id="Fill-313" fill="#E6E7E8"></path>
            </g>
            <g id="Group-318" transform="translate(0.000000, 10.135000)">
                <path d="M6.351,163.724 C8.353,165.726 332.083,164.976 333.334,163.724 C333.334,73.43 260.137,0.232 169.843,0.232 C79.549,0.232 6.351,73.43 6.351,163.724" id="Clip-317"></path>
                <path d="M9.1087,78.1726 C14.1387,78.1726 18.2167,74.0896 18.2167,69.0536 C18.2167,64.0166 14.1387,59.9336 9.1087,59.9336 C4.0797,59.9336 0.000700000001,64.0166 0.000700000001,69.0536 C0.000700000001,74.0896 4.0797,78.1726 9.1087,78.1726" id="Fill-316" fill="#E6E7E8"></path>
            </g>
            <g id="Group-321" transform="translate(6.000000, 10.135000)">
                <path d="M0.351,163.724 C2.353,165.726 326.083,164.976 327.334,163.724 C327.334,73.43 254.137,0.232 163.843,0.232 C73.549,0.232 0.351,73.43 0.351,163.724" id="Clip-320"></path>
                <path d="M49.1555,78.1726 C54.1845,78.1726 58.2635,74.0896 58.2635,69.0536 C58.2635,64.0166 54.1845,59.9336 49.1555,59.9336 C44.1255,59.9336 40.0475,64.0166 40.0475,69.0536 C40.0475,74.0896 44.1255,78.1726 49.1555,78.1726" id="Fill-319" fill="#E6E7E8"></path>
            </g>
            <g id="Group-324" transform="translate(6.000000, 10.135000)">
                <path d="M0.351,163.724 C2.353,165.726 326.083,164.976 327.334,163.724 C327.334,73.43 254.137,0.232 163.843,0.232 C73.549,0.232 0.351,73.43 0.351,163.724" id="Clip-323"></path>
                <path d="M26.1321,78.1726 C31.1621,78.1726 35.2411,74.0896 35.2411,69.0536 C35.2411,64.0166 31.1621,59.9336 26.1321,59.9336 C21.1021,59.9336 17.0231,64.0166 17.0231,69.0536 C17.0231,74.0896 21.1021,78.1726 26.1321,78.1726" id="Fill-322" fill="#E6E7E8"></path>
            </g>
            <g id="Group-327" transform="translate(6.000000, 10.135000)">
                <path d="M0.351,163.724 C2.353,165.726 326.083,164.976 327.334,163.724 C327.334,73.43 254.137,0.232 163.843,0.232 C73.549,0.232 0.351,73.43 0.351,163.724" id="Clip-326"></path>
                <path d="M72.178,78.1726 C77.208,78.1726 81.287,74.0896 81.287,69.0536 C81.287,64.0166 77.208,59.9336 72.178,59.9336 C67.149,59.9336 63.071,64.0166 63.071,69.0536 C63.071,74.0896 67.149,78.1726 72.178,78.1726" id="Fill-325" fill="#E6E7E8"></path>
            </g>
            <g id="Group-330" transform="translate(6.000000, 10.135000)">
                <path d="M0.351,163.724 C2.353,165.726 326.083,164.976 327.334,163.724 C327.334,73.43 254.137,0.232 163.843,0.232 C73.549,0.232 0.351,73.43 0.351,163.724" id="Clip-329"></path>
                <path d="M95.2014,78.1726 C100.2314,78.1726 104.3104,74.0896 104.3104,69.0536 C104.3104,64.0166 100.2314,59.9336 95.2014,59.9336 C90.1724,59.9336 86.0934,64.0166 86.0934,69.0536 C86.0934,74.0896 90.1724,78.1726 95.2014,78.1726" id="Fill-328" fill="#E6E7E8"></path>
            </g>
            <g id="Group-333" transform="translate(6.000000, 10.135000)">
                <path d="M0.351,163.724 C2.353,165.726 326.083,164.976 327.334,163.724 C327.334,73.43 254.137,0.232 163.843,0.232 C73.549,0.232 0.351,73.43 0.351,163.724" id="Clip-332"></path>
                <path d="M118.2249,78.1726 C123.2549,78.1726 127.3339,74.0896 127.3339,69.0536 C127.3339,64.0166 123.2549,59.9336 118.2249,59.9336 C113.1949,59.9336 109.1169,64.0166 109.1169,69.0536 C109.1169,74.0896 113.1949,78.1726 118.2249,78.1726" id="Fill-331" fill="#E6E7E8"></path>
            </g>
            <g id="Group-336" transform="translate(6.000000, 10.135000)">
                <path d="M0.351,163.724 C2.353,165.726 326.083,164.976 327.334,163.724 C327.334,73.43 254.137,0.232 163.843,0.232 C73.549,0.232 0.351,73.43 0.351,163.724" id="Clip-335"></path>
                <path d="M141.2483,78.1726 C146.2773,78.1726 150.3563,74.0896 150.3563,69.0536 C150.3563,64.0166 146.2773,59.9336 141.2483,59.9336 C136.2183,59.9336 132.1403,64.0166 132.1403,69.0536 C132.1403,74.0896 136.2183,78.1726 141.2483,78.1726" id="Fill-334" fill="#E6E7E8"></path>
            </g>
            <g id="Group-339" transform="translate(6.000000, 10.135000)">
                <path d="M0.351,163.724 C2.353,165.726 326.083,164.976 327.334,163.724 C327.334,73.43 254.137,0.232 163.843,0.232 C73.549,0.232 0.351,73.43 0.351,163.724" id="Clip-338"></path>
                <path d="M187.2942,78.1726 C192.3242,78.1726 196.4022,74.0896 196.4022,69.0536 C196.4022,64.0166 192.3242,59.9336 187.2942,59.9336 C182.2652,59.9336 178.1862,64.0166 178.1862,69.0536 C178.1862,74.0896 182.2652,78.1726 187.2942,78.1726" id="Fill-337" fill="#E6E7E8"></path>
            </g>
            <g id="Group-342" transform="translate(6.000000, 10.135000)">
                <path d="M0.351,163.724 C2.353,165.726 326.083,164.976 327.334,163.724 C327.334,73.43 254.137,0.232 163.843,0.232 C73.549,0.232 0.351,73.43 0.351,163.724" id="Clip-341"></path>
                <path d="M164.2718,78.1726 C169.3008,78.1726 173.3788,74.0896 173.3788,69.0536 C173.3788,64.0166 169.3008,59.9336 164.2718,59.9336 C159.2418,59.9336 155.1628,64.0166 155.1628,69.0536 C155.1628,74.0896 159.2418,78.1726 164.2718,78.1726" id="Fill-340" fill="#E6E7E8"></path>
            </g>
            <g id="Group-345" transform="translate(6.000000, 10.135000)">
                <path d="M0.351,163.724 C2.353,165.726 326.083,164.976 327.334,163.724 C327.334,73.43 254.137,0.232 163.843,0.232 C73.549,0.232 0.351,73.43 0.351,163.724" id="Clip-344"></path>
                <path d="M210.3177,78.1726 C215.3477,78.1726 219.4257,74.0896 219.4257,69.0536 C219.4257,64.0166 215.3477,59.9336 210.3177,59.9336 C205.2877,59.9336 201.2087,64.0166 201.2087,69.0536 C201.2087,74.0896 205.2877,78.1726 210.3177,78.1726" id="Fill-343" fill="#E6E7E8"></path>
            </g>
            <g id="Group-348" transform="translate(6.000000, 10.135000)">
                <path d="M0.351,163.724 C2.353,165.726 326.083,164.976 327.334,163.724 C327.334,73.43 254.137,0.232 163.843,0.232 C73.549,0.232 0.351,73.43 0.351,163.724" id="Clip-347"></path>
                <path d="M233.3411,78.1726 C238.3701,78.1726 242.4491,74.0896 242.4491,69.0536 C242.4491,64.0166 238.3701,59.9336 233.3411,59.9336 C228.3111,59.9336 224.2331,64.0166 224.2331,69.0536 C224.2331,74.0896 228.3111,78.1726 233.3411,78.1726" id="Fill-346" fill="#E6E7E8"></path>
            </g>
            <g id="Group-351" transform="translate(6.000000, 10.135000)">
                <path d="M0.351,163.724 C2.353,165.726 326.083,164.976 327.334,163.724 C327.334,73.43 254.137,0.232 163.843,0.232 C73.549,0.232 0.351,73.43 0.351,163.724" id="Clip-350"></path>
                <path d="M256.3636,78.1726 C261.3946,78.1726 265.4716,74.0896 265.4716,69.0536 C265.4716,64.0166 261.3946,59.9336 256.3636,59.9336 C251.3346,59.9336 247.2566,64.0166 247.2566,69.0536 C247.2566,74.0896 251.3346,78.1726 256.3636,78.1726" id="Fill-349" fill="#E6E7E8"></path>
            </g>
            <g id="Group-354" transform="translate(6.000000, 10.135000)">
                <path d="M0.351,163.724 C2.353,165.726 326.083,164.976 327.334,163.724 C327.334,73.43 254.137,0.232 163.843,0.232 C73.549,0.232 0.351,73.43 0.351,163.724" id="Clip-353"></path>
                <path d="M279.387,78.1726 C284.417,78.1726 288.495,74.0896 288.495,69.0536 C288.495,64.0166 284.417,59.9336 279.387,59.9336 C274.358,59.9336 270.279,64.0166 270.279,69.0536 C270.279,74.0896 274.358,78.1726 279.387,78.1726" id="Fill-352" fill="#E6E7E8"></path>
            </g>
            <g id="Group-357" transform="translate(6.000000, 10.135000)">
                <path d="M0.351,163.724 C2.353,165.726 326.083,164.976 327.334,163.724 C327.334,73.43 254.137,0.232 163.843,0.232 C73.549,0.232 0.351,73.43 0.351,163.724" id="Clip-356"></path>
                <path d="M325.4339,78.1726 C330.4629,78.1726 334.5409,74.0896 334.5409,69.0536 C334.5409,64.0166 330.4629,59.9336 325.4339,59.9336 C320.4039,59.9336 316.3249,64.0166 316.3249,69.0536 C316.3249,74.0896 320.4039,78.1726 325.4339,78.1726" id="Fill-355" fill="#E6E7E8"></path>
            </g>
            <g id="Group-360" transform="translate(6.000000, 10.135000)">
                <path d="M0.351,163.724 C2.353,165.726 326.083,164.976 327.334,163.724 C327.334,73.43 254.137,0.232 163.843,0.232 C73.549,0.232 0.351,73.43 0.351,163.724" id="Clip-359"></path>
                <path d="M302.4104,78.1726 C307.4404,78.1726 311.5184,74.0896 311.5184,69.0536 C311.5184,64.0166 307.4404,59.9336 302.4104,59.9336 C297.3804,59.9336 293.3014,64.0166 293.3014,69.0536 C293.3014,74.0896 297.3804,78.1726 302.4104,78.1726" id="Fill-358" fill="#E6E7E8"></path>
            </g>
        </g>
    </g>
</svg>