<?xml version="1.0" encoding="UTF-8"?>
<svg width="414px" height="207px" viewBox="0 0 414 207" version="1.1" xmlns="http://www.w3.org/2000/svg" xmlns:xlink="http://www.w3.org/1999/xlink">
    <!-- Generator: Sketch 52.5 (67469) - http://www.bohemiancoding.com/sketch -->
    <title>Group 452</title>
    <desc>Created with Sketch.</desc>
    <defs>
        <polygon id="path-1" points="0.204849186 0.588898317 6.22269911 0.588898317 6.22269911 15.3379018 0.204849186 15.3379018"></polygon>
        <polygon id="path-3" points="0.204849186 0.571040377 6.22269911 0.571040377 6.22269911 15.3200439 0.204849186 15.3200439"></polygon>
        <polygon id="path-5" points="0.204849186 0.160928307 6.22269911 0.160928307 6.22269911 14.9099318 0.204849186 14.9099318"></polygon>
        <polygon id="path-7" points="0.204849186 0.0121351251 6.22269911 0.0121351251 6.22269911 14.7611386 0.204849186 14.7611386"></polygon>
        <polygon id="path-9" points="0.204849186 0.291587751 6.22269911 0.291587751 6.22269911 15.0405913 0.204849186 15.0405913"></polygon>
        <polygon id="path-11" points="0.204849186 0.440380933 6.22269911 0.440380933 6.22269911 15.1893844 0.204849186 15.1893844"></polygon>
        <polygon id="path-13" points="0.204849186 0.0303378128 6.22269911 0.0303378128 6.22269911 14.7793413 0.204849186 14.7793413"></polygon>
        <polygon id="path-15" points="0.205193934 0.601033442 6.22269911 0.601033442 6.22269911 14.4047383 0.205193934 14.4047383"></polygon>
        <polygon id="path-17" points="0.204849186 0.422522993 6.22269911 0.422522993 6.22269911 15.1715265 0.204849186 15.1715265"></polygon>
        <polygon id="path-19" points="0.204849186 0.143139317 6.22269911 0.143139317 6.22269911 14.8921428 0.204849186 14.8921428"></polygon>
        <polygon id="path-21" points="0.204849186 0.553182437 6.22269911 0.553182437 6.22269911 15.3021859 0.204849186 15.3021859"></polygon>
        <polygon id="path-23" points="0.204849186 0.273729811 6.22269911 0.273729811 6.22269911 15.0227333 0.204849186 15.0227333"></polygon>
        <polygon id="path-25" points="0.204849186 0.476096813 6.22269911 0.476096813 6.22269911 15.2251003 0.204849186 15.2251003"></polygon>
        <polygon id="path-27" points="0.204849186 0.0660536925 6.22269911 0.0660536925 6.22269911 14.8150572 0.204849186 14.8150572"></polygon>
        <polygon id="path-29" points="0.204849186 0.196988935 6.22269911 0.196988935 6.22269911 14.9459924 0.204849186 14.9459924"></polygon>
        <polygon id="path-31" points="0.204849186 0.178786247 6.22269911 0.178786247 6.22269911 14.9277898 0.204849186 14.9277898"></polygon>
        <polygon id="path-33" points="0.204849186 0.0481957527 6.22269911 0.0481957527 6.22269911 14.7971993 0.204849186 14.7971993"></polygon>
        <polygon id="path-35" points="0.204849186 0.458238873 6.22269911 0.458238873 6.22269911 15.2072424 0.204849186 15.2072424"></polygon>
        <polygon id="path-37" points="0.204849186 0.607032055 6.22269911 0.607032055 6.22269911 15.3560356 0.204849186 15.3560356"></polygon>
        <polygon id="path-39" points="0.204849186 0.327579429 6.22269911 0.327579429 6.22269911 15.0765829 0.204849186 15.0765829"></polygon>
        <polygon id="path-41" points="0.204849186 0.309445691 6.22269911 0.309445691 6.22269911 15.0584492 0.204849186 15.0584492"></polygon>
        <polygon id="path-43" points="0.204849186 0.68404873 6.22269911 0.68404873 6.22269911 14.4794107 0.204849186 14.4794107"></polygon>
        <polygon id="path-45" points="0 0.496574836 5.939799 0.496574836 5.939799 15.0387296 0 15.0387296"></polygon>
    </defs>
    <g id="Page-1" stroke="none" stroke-width="1" fill="none" fill-rule="evenodd" opacity="0.0654668899">
        <g id="Group-452" transform="translate(207.000000, 103.500000) rotate(-270.000000) translate(-207.000000, -103.500000) translate(103.500000, -103.500000)">
            <path d="M150.615588,304.016119 C146.453792,304.016119 143.07871,307.386374 143.07871,311.543344 C143.07871,315.700314 146.453792,319.070569 150.615588,319.070569 C154.777385,319.070569 158.151777,315.700314 158.151777,311.543344 C158.151777,307.386374 154.777385,304.016119 150.615588,304.016119" id="Fill-1" fill="#000000"></path>
            <path d="M150.615588,284.98969 C146.453792,284.98969 143.07871,288.359946 143.07871,292.516916 C143.07871,296.673885 146.453792,300.044141 150.615588,300.044141 C154.777385,300.044141 158.151777,296.673885 158.151777,292.516916 C158.151777,288.359946 154.777385,284.98969 150.615588,284.98969" id="Fill-3" fill="#000000"></path>
            <path d="M150.615588,265.963262 C146.453792,265.963262 143.07871,269.333517 143.07871,273.490487 C143.07871,277.647457 146.453792,281.017712 150.615588,281.017712 C154.777385,281.017712 158.151777,277.647457 158.151777,273.490487 C158.151777,269.333517 154.777385,265.963262 150.615588,265.963262" id="Fill-5" fill="#000000"></path>
            <path d="M150.615588,323.042547 C146.453792,323.042547 143.07871,326.412802 143.07871,330.569772 C143.07871,334.726742 146.453792,338.096997 150.615588,338.096997 C154.777385,338.096997 158.151777,334.726742 158.151777,330.569772 C158.151777,326.412802 154.777385,323.042547 150.615588,323.042547" id="Fill-7" fill="#000000"></path>
            <path d="M150.615588,380.122245 C146.453792,380.122245 143.07871,383.492501 143.07871,387.649471 C143.07871,391.80644 146.453792,395.176696 150.615588,395.176696 C154.777385,395.176696 158.151777,391.80644 158.151777,387.649471 C158.151777,383.492501 154.777385,380.122245 150.615588,380.122245" id="Fill-9" fill="#000000"></path>
            <path d="M150.615588,342.069044 C146.453792,342.069044 143.07871,345.439299 143.07871,349.596269 C143.07871,353.753929 146.453792,357.123494 150.615588,357.123494 C154.777385,357.123494 158.151777,353.753929 158.151777,349.596269 C158.151777,345.439299 154.777385,342.069044 150.615588,342.069044" id="Fill-11" fill="#000000"></path>
            <path d="M150.615588,132.777782 C146.453792,132.777782 143.07871,136.148037 143.07871,140.305007 C143.07871,144.461977 146.453792,147.832232 150.615588,147.832232 C154.777385,147.832232 158.151777,144.461977 158.151777,140.305007 C158.151777,136.148037 154.777385,132.777782 150.615588,132.777782" id="Fill-13" fill="#000000"></path>
            <path d="M150.615588,170.830707 C146.453792,170.830707 143.07871,174.200962 143.07871,178.357932 C143.07871,182.514902 146.453792,185.885157 150.615588,185.885157 C154.777385,185.885157 158.151777,182.514902 158.151777,178.357932 C158.151777,174.200962 154.777385,170.830707 150.615588,170.830707" id="Fill-15" fill="#000000"></path>
            <path d="M150.615588,151.80421 C146.453792,151.80421 143.07871,155.174465 143.07871,159.331435 C143.07871,163.488405 146.453792,166.85866 150.615588,166.85866 C154.777385,166.85866 158.151777,163.488405 158.151777,159.331435 C158.151777,155.174465 154.777385,151.80421 150.615588,151.80421" id="Fill-17" fill="#000000"></path>
            <path d="M150.615588,227.909992 C146.453792,227.909992 143.07871,231.280247 143.07871,235.437217 C143.07871,239.594876 146.453792,242.964442 150.615588,242.964442 C154.777385,242.964442 158.151777,239.594876 158.151777,235.437217 C158.151777,231.280247 154.777385,227.909992 150.615588,227.909992" id="Fill-19" fill="#000000"></path>
            <path d="M150.615588,246.936765 C146.453792,246.936765 143.07871,250.30702 143.07871,254.46399 C143.07871,258.62096 146.453792,261.991215 150.615588,261.991215 C154.777385,261.991215 158.151777,258.62096 158.151777,254.46399 C158.151777,250.30702 154.777385,246.936765 150.615588,246.936765" id="Fill-21" fill="#000000"></path>
            <path d="M150.615588,208.883564 C146.453792,208.883564 143.07871,212.253819 143.07871,216.410789 C143.07871,220.568448 146.453792,223.938014 150.615588,223.938014 C154.777385,223.938014 158.151777,220.568448 158.151777,216.410789 C158.151777,212.253819 154.777385,208.883564 150.615588,208.883564" id="Fill-23" fill="#000000"></path>
            <path d="M150.615588,189.857135 C146.453792,189.857135 143.07871,193.227391 143.07871,197.38436 C143.07871,201.54133 146.453792,204.911586 150.615588,204.911586 C154.777385,204.911586 158.151777,201.54133 158.151777,197.38436 C158.151777,193.227391 154.777385,189.857135 150.615588,189.857135" id="Fill-25" fill="#000000"></path>
            <path d="M169.63326,170.830707 C165.470774,170.830707 162.096382,174.200962 162.096382,178.357932 C162.096382,182.514902 165.470774,185.885157 169.63326,185.885157 C173.795056,185.885157 177.169448,182.514902 177.169448,178.357932 C177.169448,174.200962 173.795056,170.830707 169.63326,170.830707" id="Fill-27" fill="#000000"></path>
            <path d="M169.63326,132.777782 C165.470774,132.777782 162.096382,136.148037 162.096382,140.305007 C162.096382,144.461977 165.470774,147.832232 169.63326,147.832232 C173.795056,147.832232 177.169448,144.461977 177.169448,140.305007 C177.169448,136.148037 173.795056,132.777782 169.63326,132.777782" id="Fill-29" fill="#000000"></path>
            <path d="M169.63326,189.857135 C165.470774,189.857135 162.096382,193.227391 162.096382,197.38436 C162.096382,201.54133 165.470774,204.911586 169.63326,204.911586 C173.795056,204.911586 177.169448,201.54133 177.169448,197.38436 C177.169448,193.227391 173.795056,189.857135 169.63326,189.857135" id="Fill-31" fill="#000000"></path>
            <path d="M169.63326,151.80421 C165.470774,151.80421 162.096382,155.174465 162.096382,159.331435 C162.096382,163.488405 165.470774,166.85866 169.63326,166.85866 C173.795056,166.85866 177.169448,163.488405 177.169448,159.331435 C177.169448,155.174465 173.795056,151.80421 169.63326,151.80421" id="Fill-33" fill="#000000"></path>
            <path d="M169.63326,227.909992 C165.470774,227.909992 162.096382,231.280247 162.096382,235.437217 C162.096382,239.594876 165.470774,242.964442 169.63326,242.964442 C173.795056,242.964442 177.169448,239.594876 177.169448,235.437217 C177.169448,231.280247 173.795056,227.909992 169.63326,227.909992" id="Fill-35" fill="#000000"></path>
            <path d="M169.63326,208.883564 C165.470774,208.883564 162.096382,212.253819 162.096382,216.410789 C162.096382,220.568448 165.470774,223.938014 169.63326,223.938014 C173.795056,223.938014 177.169448,220.568448 177.169448,216.410789 C177.169448,212.253819 173.795056,208.883564 169.63326,208.883564" id="Fill-37" fill="#000000"></path>
            <path d="M150.615588,361.095472 C146.453792,361.095472 143.07871,364.465728 143.07871,368.622698 C143.07871,372.780357 146.453792,376.149923 150.615588,376.149923 C154.777385,376.149923 158.151777,372.780357 158.151777,368.622698 C158.151777,364.465728 154.777385,361.095472 150.615588,361.095472" id="Fill-39" fill="#000000"></path>
            <path d="M169.63326,37.6452266 C165.470774,37.6452266 162.096382,41.0154819 162.096382,45.1724517 C162.096382,49.3294216 165.470774,52.6996768 169.63326,52.6996768 C173.795056,52.6996768 177.169448,49.3294216 177.169448,45.1724517 C177.169448,41.0154819 173.795056,37.6452266 169.63326,37.6452266" id="Fill-41" fill="#000000"></path>
            <path d="M169.63326,18.6187984 C165.470774,18.6187984 162.096382,21.9890536 162.096382,26.1460234 C162.096382,30.3029933 165.470774,33.6732485 169.63326,33.6732485 C173.795056,33.6732485 177.169448,30.3029933 177.169448,26.1460234 C177.169448,21.9890536 173.795056,18.6187984 169.63326,18.6187984" id="Fill-43" fill="#000000"></path>
            <path d="M169.63326,56.6716549 C165.470774,56.6716549 162.096382,60.0419101 162.096382,64.19888 C162.096382,68.3558498 165.470774,71.726105 169.63326,71.726105 C173.795056,71.726105 177.169448,68.3558498 177.169448,64.19888 C177.169448,60.0419101 173.795056,56.6716549 169.63326,56.6716549" id="Fill-45" fill="#000000"></path>
            <path d="M169.63326,113.751353 C165.470774,113.751353 162.096382,117.121609 162.096382,121.278578 C162.096382,125.435548 165.470774,128.805804 169.63326,128.805804 C173.795056,128.805804 177.169448,125.435548 177.169448,121.278578 C177.169448,117.121609 173.795056,113.751353 169.63326,113.751353" id="Fill-47" fill="#000000"></path>
            <path d="M169.63326,246.936765 C165.470774,246.936765 162.096382,250.30702 162.096382,254.46399 C162.096382,258.62096 165.470774,261.991215 169.63326,261.991215 C173.795056,261.991215 177.169448,258.62096 177.169448,254.46399 C177.169448,250.30702 173.795056,246.936765 169.63326,246.936765" id="Fill-49" fill="#000000"></path>
            <path d="M169.63326,94.7245804 C165.470774,94.7245804 162.096382,98.0948356 162.096382,102.251805 C162.096382,106.409465 165.470774,109.779031 169.63326,109.779031 C173.795056,109.779031 177.169448,106.409465 177.169448,102.251805 C177.169448,98.0948356 173.795056,94.7245804 169.63326,94.7245804" id="Fill-51" fill="#000000"></path>
            <path d="M169.63326,75.6980832 C165.470774,75.6980832 162.096382,79.0683384 162.096382,83.2253082 C162.096382,87.3829676 165.470774,90.7525333 169.63326,90.7525333 C173.795056,90.7525333 177.169448,87.3829676 177.169448,83.2253082 C177.169448,79.0683384 173.795056,75.6980832 169.63326,75.6980832" id="Fill-53" fill="#000000"></path>
            <path d="M131.58916,246.936765 C127.426674,246.936765 124.052971,250.30702 124.052971,254.46399 C124.052971,258.62096 127.426674,261.991215 131.58916,261.991215 C135.750956,261.991215 139.125348,258.62096 139.125348,254.46399 C139.125348,250.30702 135.750956,246.936765 131.58916,246.936765" id="Fill-55" fill="#000000"></path>
            <path d="M131.58916,170.830707 C127.426674,170.830707 124.052971,174.200962 124.052971,178.357932 C124.052971,182.514902 127.426674,185.885157 131.58916,185.885157 C135.750956,185.885157 139.125348,182.514902 139.125348,178.357932 C139.125348,174.200962 135.750956,170.830707 131.58916,170.830707" id="Fill-57" fill="#000000"></path>
            <path d="M131.58916,151.80421 C127.426674,151.80421 124.052971,155.174465 124.052971,159.331435 C124.052971,163.488405 127.426674,166.85866 131.58916,166.85866 C135.750956,166.85866 139.125348,163.488405 139.125348,159.331435 C139.125348,155.174465 135.750956,151.80421 131.58916,151.80421" id="Fill-59" fill="#000000"></path>
            <path d="M131.58916,132.777782 C127.426674,132.777782 124.052971,136.148037 124.052971,140.305007 C124.052971,144.461977 127.426674,147.832232 131.58916,147.832232 C135.750956,147.832232 139.125348,144.461977 139.125348,140.305007 C139.125348,136.148037 135.750956,132.777782 131.58916,132.777782" id="Fill-61" fill="#000000"></path>
            <path d="M131.58916,208.883564 C127.426674,208.883564 124.052971,212.253819 124.052971,216.410789 C124.052971,220.568448 127.426674,223.938014 131.58916,223.938014 C135.750956,223.938014 139.125348,220.568448 139.125348,216.410789 C139.125348,212.253819 135.750956,208.883564 131.58916,208.883564" id="Fill-63" fill="#000000"></path>
            <path d="M131.58916,227.909992 C127.426674,227.909992 124.052971,231.280247 124.052971,235.437217 C124.052971,239.594876 127.426674,242.964442 131.58916,242.964442 C135.750956,242.964442 139.125348,239.594876 139.125348,235.437217 C139.125348,231.280247 135.750956,227.909992 131.58916,227.909992" id="Fill-65" fill="#000000"></path>
            <path d="M131.58916,189.857135 C127.426674,189.857135 124.052971,193.227391 124.052971,197.38436 C124.052971,201.54133 127.426674,204.911586 131.58916,204.911586 C135.750956,204.911586 139.125348,201.54133 139.125348,197.38436 C139.125348,193.227391 135.750956,189.857135 131.58916,189.857135" id="Fill-67" fill="#000000"></path>
            <path d="M131.58916,37.6452266 C127.426674,37.6452266 124.052971,41.0154819 124.052971,45.1724517 C124.052971,49.3294216 127.426674,52.6996768 131.58916,52.6996768 C135.750956,52.6996768 139.125348,49.3294216 139.125348,45.1724517 C139.125348,41.0154819 135.750956,37.6452266 131.58916,37.6452266" id="Fill-69" fill="#000000"></path>
            <path d="M131.58916,18.6187984 C127.426674,18.6187984 124.052971,21.9890536 124.052971,26.1460234 C124.052971,30.3029933 127.426674,33.6732485 131.58916,33.6732485 C135.750956,33.6732485 139.125348,30.3029933 139.125348,26.1460234 C139.125348,21.9890536 135.750956,18.6187984 131.58916,18.6187984" id="Fill-71" fill="#000000"></path>
            <path d="M131.58916,56.6716549 C127.426674,56.6716549 124.052971,60.0419101 124.052971,64.19888 C124.052971,68.3558498 127.426674,71.726105 131.58916,71.726105 C135.750956,71.726105 139.125348,68.3558498 139.125348,64.19888 C139.125348,60.0419101 135.750956,56.6716549 131.58916,56.6716549" id="Fill-73" fill="#000000"></path>
            <path d="M131.58916,75.6980832 C127.426674,75.6980832 124.052971,79.0683384 124.052971,83.2253082 C124.052971,87.3829676 127.426674,90.7525333 131.58916,90.7525333 C135.750956,90.7525333 139.125348,87.3829676 139.125348,83.2253082 C139.125348,79.0683384 135.750956,75.6980832 131.58916,75.6980832" id="Fill-75" fill="#000000"></path>
            <path d="M131.58916,113.751353 C127.426674,113.751353 124.052971,117.121609 124.052971,121.278578 C124.052971,125.435548 127.426674,128.805804 131.58916,128.805804 C135.750956,128.805804 139.125348,125.435548 139.125348,121.278578 C139.125348,117.121609 135.750956,113.751353 131.58916,113.751353" id="Fill-77" fill="#000000"></path>
            <path d="M131.58916,94.7245804 C127.426674,94.7245804 124.052971,98.0948356 124.052971,102.251805 C124.052971,106.409465 127.426674,109.779031 131.58916,109.779031 C135.750956,109.779031 139.125348,106.409465 139.125348,102.251805 C139.125348,98.0948356 135.750956,94.7245804 131.58916,94.7245804" id="Fill-79" fill="#000000"></path>
            <path d="M150.615588,37.6452266 C146.453792,37.6452266 143.07871,41.0154819 143.07871,45.1724517 C143.07871,49.3294216 146.453792,52.6996768 150.615588,52.6996768 C154.777385,52.6996768 158.151777,49.3294216 158.151777,45.1724517 C158.151777,41.0154819 154.777385,37.6452266 150.615588,37.6452266" id="Fill-81" fill="#000000"></path>
            <path d="M150.615588,113.751353 C146.453792,113.751353 143.07871,117.121609 143.07871,121.278578 C143.07871,125.435548 146.453792,128.805804 150.615588,128.805804 C154.777385,128.805804 158.151777,125.435548 158.151777,121.278578 C158.151777,117.121609 154.777385,113.751353 150.615588,113.751353" id="Fill-83" fill="#000000"></path>
            <path d="M150.615588,56.6716549 C146.453792,56.6716549 143.07871,60.0419101 143.07871,64.19888 C143.07871,68.3558498 146.453792,71.726105 150.615588,71.726105 C154.777385,71.726105 158.151777,68.3558498 158.151777,64.19888 C158.151777,60.0419101 154.777385,56.6716549 150.615588,56.6716549" id="Fill-85" fill="#000000"></path>
            <path d="M150.615588,18.6187984 C146.453792,18.6187984 143.07871,21.9890536 143.07871,26.1460234 C143.07871,30.3029933 146.453792,33.6732485 150.615588,33.6732485 C154.777385,33.6732485 158.151777,30.3029933 158.151777,26.1460234 C158.151777,21.9890536 154.777385,18.6187984 150.615588,18.6187984" id="Fill-87" fill="#000000"></path>
            <path d="M131.58916,361.095472 C127.426674,361.095472 124.052971,364.465728 124.052971,368.622698 C124.052971,372.780357 127.426674,376.149923 131.58916,376.149923 C135.750956,376.149923 139.125348,372.780357 139.125348,368.622698 C139.125348,364.465728 135.750956,361.095472 131.58916,361.095472" id="Fill-89" fill="#000000"></path>
            <path d="M150.615588,75.6980832 C146.453792,75.6980832 143.07871,79.0683384 143.07871,83.2253082 C143.07871,87.3829676 146.453792,90.7525333 150.615588,90.7525333 C154.777385,90.7525333 158.151777,87.3829676 158.151777,83.2253082 C158.151777,79.0683384 154.777385,75.6980832 150.615588,75.6980832" id="Fill-91" fill="#000000"></path>
            <path d="M150.615588,94.7245804 C146.453792,94.7245804 143.07871,98.0948356 143.07871,102.251805 C143.07871,106.409465 146.453792,109.779031 150.615588,109.779031 C154.777385,109.779031 158.151777,106.409465 158.151777,102.251805 C158.151777,98.0948356 154.777385,94.7245804 150.615588,94.7245804" id="Fill-93" fill="#000000"></path>
            <path d="M131.58916,284.98969 C127.426674,284.98969 124.052971,288.359946 124.052971,292.516916 C124.052971,296.673885 127.426674,300.044141 131.58916,300.044141 C135.750956,300.044141 139.125348,296.673885 139.125348,292.516916 C139.125348,288.359946 135.750956,284.98969 131.58916,284.98969" id="Fill-95" fill="#000000"></path>
            <path d="M131.58916,380.122245 C127.426674,380.122245 124.052971,383.492501 124.052971,387.649471 C124.052971,391.80644 127.426674,395.176696 131.58916,395.176696 C135.750956,395.176696 139.125348,391.80644 139.125348,387.649471 C139.125348,383.492501 135.750956,380.122245 131.58916,380.122245" id="Fill-97" fill="#000000"></path>
            <path d="M131.58916,304.016119 C127.426674,304.016119 124.052971,307.386374 124.052971,311.543344 C124.052971,315.700314 127.426674,319.070569 131.58916,319.070569 C135.750956,319.070569 139.125348,315.700314 139.125348,311.543344 C139.125348,307.386374 135.750956,304.016119 131.58916,304.016119" id="Fill-99" fill="#000000"></path>
            <path d="M131.58916,265.963262 C127.426674,265.963262 124.052971,269.333517 124.052971,273.490487 C124.052971,277.647457 127.426674,281.017712 131.58916,281.017712 C135.750956,281.017712 139.125348,277.647457 139.125348,273.490487 C139.125348,269.333517 135.750956,265.963262 131.58916,265.963262" id="Fill-101" fill="#000000"></path>
            <path d="M131.58916,323.042547 C127.426674,323.042547 124.052971,326.412802 124.052971,330.569772 C124.052971,334.726742 127.426674,338.096997 131.58916,338.096997 C135.750956,338.096997 139.125348,334.726742 139.125348,330.569772 C139.125348,326.412802 135.750956,323.042547 131.58916,323.042547" id="Fill-103" fill="#000000"></path>
            <path d="M131.58916,342.069044 C127.426674,342.069044 124.052971,345.439299 124.052971,349.596269 C124.052971,353.753929 127.426674,357.123494 131.58916,357.123494 C135.750956,357.123494 139.125348,353.753929 139.125348,349.596269 C139.125348,345.439299 135.750956,342.069044 131.58916,342.069044" id="Fill-105" fill="#000000"></path>
            <g id="Group-109" transform="translate(199.953766, 170.394394)">
                <mask id="mask-2" fill="white">
                    <use xlink:href="#path-1"></use>
                </mask>
                <g id="Clip-108"></g>
                <path d="M6.22276806,15.3379018 L6.22276806,0.588898317 C2.78838975,1.29080499 0.204849186,4.32596526 0.204849186,7.96374482 C0.204849186,11.6015244 2.78838975,14.6359952 6.22276806,15.3379018" id="Fill-107" fill="#000000" mask="url(#mask-2)"></path>
            </g>
            <g id="Group-112" transform="translate(199.953766, 265.544807)">
                <mask id="mask-4" fill="white">
                    <use xlink:href="#path-3"></use>
                </mask>
                <g id="Clip-111"></g>
                <path d="M6.22276806,15.3200439 L6.22276806,0.571040377 C2.78838975,1.27294705 0.204849186,4.30810732 0.204849186,7.94588688 C0.204849186,11.5836664 2.78838975,14.6181372 6.22276806,15.3200439" id="Fill-110" fill="#000000" mask="url(#mask-4)"></path>
            </g>
            <g id="Group-115" transform="translate(199.953766, 246.928422)">
                <mask id="mask-6" fill="white">
                    <use xlink:href="#path-5"></use>
                </mask>
                <g id="Clip-114"></g>
                <path d="M6.22276806,14.9099318 L6.22276806,0.160928307 C2.78838975,0.862834977 0.204849186,3.89799525 0.204849186,7.53577481 C0.204849186,11.1728649 2.78838975,14.2080251 6.22276806,14.9099318" id="Fill-113" fill="#000000" mask="url(#mask-6)"></path>
            </g>
            <g id="Group-118" transform="translate(199.953766, 304.156569)">
                <mask id="mask-8" fill="white">
                    <use xlink:href="#path-7"></use>
                </mask>
                <g id="Clip-117"></g>
                <path d="M6.22276806,14.7611386 L6.22276806,0.0121351251 C2.78838975,0.714041795 0.204849186,3.74920207 0.204849186,7.38698163 C0.204849186,11.0247612 2.78838975,14.059232 6.22276806,14.7611386" id="Fill-116" fill="#000000" mask="url(#mask-8)"></path>
            </g>
            <g id="Group-121" transform="translate(199.953766, 284.850688)">
                <mask id="mask-10" fill="white">
                    <use xlink:href="#path-9"></use>
                </mask>
                <g id="Clip-120"></g>
                <path d="M6.22276806,15.0405913 L6.22276806,0.291587751 C2.78838975,0.993494421 0.204849186,4.0286547 0.204849186,7.66643425 C0.204849186,11.3042138 2.78838975,14.3386846 6.22276806,15.0405913" id="Fill-119" fill="#000000" mask="url(#mask-10)"></path>
            </g>
            <g id="Group-124" transform="translate(199.953766, 227.622541)">
                <mask id="mask-12" fill="white">
                    <use xlink:href="#path-11"></use>
                </mask>
                <g id="Clip-123"></g>
                <path d="M6.22276806,15.1893844 L6.22276806,0.440380933 C2.78838975,1.1422876 0.204849186,4.17744788 0.204849186,7.81522743 C0.204849186,11.4523175 2.78838975,14.4874778 6.22276806,15.1893844" id="Fill-122" fill="#000000" mask="url(#mask-12)"></path>
            </g>
            <g id="Group-127" transform="translate(199.953766, 209.006156)">
                <mask id="mask-14" fill="white">
                    <use xlink:href="#path-13"></use>
                </mask>
                <g id="Clip-126"></g>
                <path d="M6.22276806,14.7793413 L6.22276806,0.0303378128 C2.78838975,0.732244482 0.204849186,3.76740476 0.204849186,7.40518431 C0.204849186,11.0422744 2.78838975,14.0774346 6.22276806,14.7793413" id="Fill-125" fill="#000000" mask="url(#mask-14)"></path>
            </g>
            <path d="M188.659757,14.6467513 C192.821553,14.6467513 196.195946,11.2764961 196.195946,7.11952623 C196.195946,4.6600949 195.009323,2.48266733 193.182849,1.10919181 C189.822936,1.31810902 186.484398,1.60631824 183.169302,1.97450897 C181.904078,3.32040466 181.123569,5.12688352 181.123569,7.11952623 C181.123569,11.2764961 184.497271,14.6467513 188.659757,14.6467513" id="Fill-128" fill="#000000"></path>
            <g id="Group-132" transform="translate(199.953766, 0.088945)">
                <mask id="mask-16" fill="white">
                    <use xlink:href="#path-15"></use>
                </mask>
                <g id="Clip-131"></g>
                <path d="M0.205193934,7.03058128 C0.205193934,10.6683608 2.788045,13.7028316 6.22311281,14.4047383 L6.22311281,0.601033442 C5.40812883,0.601033442 4.59935032,0.62240781 3.78643484,0.631371255 C1.64003458,1.95796107 0.205193934,4.32431047 0.205193934,7.03058128" id="Fill-130" fill="#000000" mask="url(#mask-16)"></path>
            </g>
            <path d="M136.590693,12.7391924 C134.880054,13.3528436 133.179068,13.9851112 131.489804,14.6415111 C131.522899,14.6422006 131.555306,14.6470271 131.589091,14.6470271 C133.510716,14.6470271 135.259277,13.9223671 136.590693,12.7391924" id="Fill-133" fill="#000000"></path>
            <g id="Group-137" transform="translate(199.953766, 322.772954)">
                <mask id="mask-18" fill="white">
                    <use xlink:href="#path-17"></use>
                </mask>
                <g id="Clip-136"></g>
                <path d="M6.22276806,15.1715265 L6.22276806,0.422522993 C2.78838975,1.12442966 0.204849186,4.15958994 0.204849186,7.79668 C0.204849186,11.4344596 2.78838975,14.4696198 6.22276806,15.1715265" id="Fill-135" fill="#000000" mask="url(#mask-18)"></path>
            </g>
            <path d="M188.659757,361.095472 C184.497271,361.095472 181.123569,364.465728 181.123569,368.622698 C181.123569,372.780357 184.497271,376.149923 188.659757,376.149923 C192.821553,376.149923 196.195946,372.780357 196.195946,368.622698 C196.195946,364.465728 192.821553,361.095472 188.659757,361.095472" id="Fill-138" fill="#000000"></path>
            <g id="Group-142" transform="translate(199.953766, 342.078835)">
                <mask id="mask-20" fill="white">
                    <use xlink:href="#path-19"></use>
                </mask>
                <g id="Clip-141"></g>
                <path d="M6.22276806,14.8921428 L6.22276806,0.143139317 C2.78838975,0.845045987 0.204849186,3.88020626 0.204849186,7.51798582 C0.204849186,11.1550759 2.78838975,14.1902362 6.22276806,14.8921428" id="Fill-140" fill="#000000" mask="url(#mask-20)"></path>
            </g>
            <g id="Group-145" transform="translate(199.953766, 360.695220)">
                <mask id="mask-22" fill="white">
                    <use xlink:href="#path-21"></use>
                </mask>
                <g id="Clip-144"></g>
                <path d="M6.22276806,15.3021859 L6.22276806,0.553182437 C2.78838975,1.25508911 0.204849186,4.29024938 0.204849186,7.92802894 C0.204849186,11.565119 2.78838975,14.6002793 6.22276806,15.3021859" id="Fill-143" fill="#000000" mask="url(#mask-22)"></path>
            </g>
            <g id="Group-148" transform="translate(199.953766, 380.001101)">
                <mask id="mask-24" fill="white">
                    <use xlink:href="#path-23"></use>
                </mask>
                <g id="Clip-147"></g>
                <path d="M6.22276806,15.0227333 L6.22276806,0.273729811 C2.78838975,0.975636481 0.204849186,4.01079676 0.204849186,7.64857631 C0.204849186,11.2856664 2.78838975,14.3208266 6.22276806,15.0227333" id="Fill-146" fill="#000000" mask="url(#mask-24)"></path>
            </g>
            <path d="M169.63326,14.6467513 C173.795056,14.6467513 177.169448,11.2764961 177.169448,7.11952623 C177.169448,5.56057634 176.694386,4.11194578 175.88216,2.91084419 C171.305287,3.58448154 166.780127,4.41325542 162.306678,5.38199695 C162.174984,5.941178 162.096382,6.52035442 162.096382,7.11952623 C162.096382,11.2764961 165.470774,14.6467513 169.63326,14.6467513" id="Fill-149" fill="#000000"></path>
            <g id="Group-153" transform="translate(199.953766, 37.321715)">
                <mask id="mask-26" fill="white">
                    <use xlink:href="#path-25"></use>
                </mask>
                <g id="Clip-152"></g>
                <path d="M6.22276806,15.2251003 L6.22276806,0.476096813 C2.78838975,1.17800348 0.204849186,4.21316376 0.204849186,7.85094331 C0.204849186,11.4887229 2.78838975,14.5231936 6.22276806,15.2251003" id="Fill-151" fill="#000000" mask="url(#mask-26)"></path>
            </g>
            <g id="Group-156" transform="translate(199.953766, 18.705330)">
                <mask id="mask-28" fill="white">
                    <use xlink:href="#path-27"></use>
                </mask>
                <g id="Clip-155"></g>
                <path d="M6.22276806,14.8150572 L6.22276806,0.0660536925 C2.78838975,0.767960362 0.204849186,3.80312064 0.204849186,7.44090019 C0.204849186,11.0786798 2.78838975,14.1131505 6.22276806,14.8150572" id="Fill-154" fill="#000000" mask="url(#mask-28)"></path>
            </g>
            <path d="M150.615588,14.6467513 C154.777385,14.6467513 158.151777,11.2764961 158.151777,7.11952623 C158.151777,6.85475986 158.137297,6.59344097 158.110407,6.33556956 C153.270836,7.49116443 148.496078,8.81499627 143.794407,10.3049966 C144.996887,12.8678523 147.594907,14.6467513 150.615588,14.6467513" id="Fill-157" fill="#000000"></path>
            <path d="M196.195739,406.675899 C196.195739,402.518929 192.821347,399.148674 188.65955,399.148674 C184.497064,399.148674 181.124051,402.518929 181.124051,406.675899 C181.124051,408.663715 181.901113,410.466057 183.160822,411.811263 C186.481433,412.180143 189.826867,412.469042 193.193674,412.678649 C195.013943,411.303794 196.195739,409.130504 196.195739,406.675899" id="Fill-159" fill="#000000"></path>
            <path d="M169.63326,399.148674 C165.470774,399.148674 162.096382,402.518929 162.096382,406.675899 C162.096382,407.271623 162.173605,407.848042 162.30392,408.403775 C166.780127,409.373896 171.308045,410.20267 175.886986,410.876996 C176.696454,409.677274 177.169448,408.231401 177.169448,406.675899 C177.169448,402.518929 173.795056,399.148674 169.63326,399.148674" id="Fill-161" fill="#000000"></path>
            <g id="Group-165" transform="translate(199.953766, 56.627596)">
                <mask id="mask-30" fill="white">
                    <use xlink:href="#path-29"></use>
                </mask>
                <g id="Clip-164"></g>
                <path d="M6.22276806,14.9459924 L6.22276806,0.196988935 C2.78838975,0.898895604 0.204849186,3.93405588 0.204849186,7.57183544 C0.204849186,11.2089255 2.78838975,14.2440858 6.22276806,14.9459924" id="Fill-163" fill="#000000" mask="url(#mask-30)"></path>
            </g>
            <g id="Group-168" transform="translate(199.953766, 151.778009)">
                <mask id="mask-32" fill="white">
                    <use xlink:href="#path-31"></use>
                </mask>
                <g id="Clip-167"></g>
                <path d="M6.22276806,14.9277898 L6.22276806,0.178786247 C2.78838975,0.880692917 0.204849186,3.91585319 0.204849186,7.55363275 C0.204849186,11.1914123 2.78838975,14.2258831 6.22276806,14.9277898" id="Fill-166" fill="#000000" mask="url(#mask-32)"></path>
            </g>
            <g id="Group-171" transform="translate(199.953766, 113.855743)">
                <mask id="mask-34" fill="white">
                    <use xlink:href="#path-33"></use>
                </mask>
                <g id="Clip-170"></g>
                <path d="M6.22276806,14.7971993 L6.22276806,0.0481957527 C2.78838975,0.750102422 0.204849186,3.7852627 0.204849186,7.42304225 C0.204849186,11.0601323 2.78838975,14.0952926 6.22276806,14.7971993" id="Fill-169" fill="#000000" mask="url(#mask-34)"></path>
            </g>
            <g id="Group-174" transform="translate(199.953766, 132.472128)">
                <mask id="mask-36" fill="white">
                    <use xlink:href="#path-35"></use>
                </mask>
                <g id="Clip-173"></g>
                <path d="M6.22276806,15.2072424 L6.22276806,0.458238873 C2.78838975,1.16014554 0.204849186,4.19530582 0.204849186,7.83308537 C0.204849186,11.4708649 2.78838975,14.5053357 6.22276806,15.2072424" id="Fill-172" fill="#000000" mask="url(#mask-36)"></path>
            </g>
            <g id="Group-177" transform="translate(199.953766, 75.243981)">
                <mask id="mask-38" fill="white">
                    <use xlink:href="#path-37"></use>
                </mask>
                <g id="Clip-176"></g>
                <path d="M6.22276806,15.3560356 L6.22276806,0.607032055 C2.78838975,1.30893872 0.204849186,4.344099 0.204849186,7.98187856 C0.204849186,11.6189686 2.78838975,14.6541289 6.22276806,15.3560356" id="Fill-175" fill="#000000" mask="url(#mask-38)"></path>
            </g>
            <g id="Group-180" transform="translate(199.953766, 94.549862)">
                <mask id="mask-40" fill="white">
                    <use xlink:href="#path-39"></use>
                </mask>
                <g id="Clip-179"></g>
                <path d="M6.22276806,15.0765829 L6.22276806,0.327579429 C2.78838975,1.0294861 0.204849186,4.06464637 0.204849186,7.70242593 C0.204849186,11.339516 2.78838975,14.3746763 6.22276806,15.0765829" id="Fill-178" fill="#000000" mask="url(#mask-40)"></path>
            </g>
            <path d="M188.659757,37.6452266 C184.497271,37.6452266 181.123569,41.0154819 181.123569,45.1724517 C181.123569,49.3294216 184.497271,52.6996768 188.659757,52.6996768 C192.821553,52.6996768 196.195946,49.3294216 196.195946,45.1724517 C196.195946,41.0154819 192.821553,37.6452266 188.659757,37.6452266" id="Fill-181" fill="#000000"></path>
            <path d="M169.63326,265.963262 C165.470774,265.963262 162.096382,269.333517 162.096382,273.490487 C162.096382,277.647457 165.470774,281.017712 169.63326,281.017712 C173.795056,281.017712 177.169448,277.647457 177.169448,273.490487 C177.169448,269.333517 173.795056,265.963262 169.63326,265.963262" id="Fill-183" fill="#000000"></path>
            <path d="M188.659757,18.6187984 C184.497271,18.6187984 181.123569,21.9890536 181.123569,26.1460234 C181.123569,30.3029933 184.497271,33.6732485 188.659757,33.6732485 C192.821553,33.6732485 196.195946,30.3029933 196.195946,26.1460234 C196.195946,21.9890536 192.821553,18.6187984 188.659757,18.6187984" id="Fill-185" fill="#000000"></path>
            <path d="M169.63326,361.095472 C165.470774,361.095472 162.096382,364.465728 162.096382,368.622698 C162.096382,372.780357 165.470774,376.149923 169.63326,376.149923 C173.795056,376.149923 177.169448,372.780357 177.169448,368.622698 C177.169448,364.465728 173.795056,361.095472 169.63326,361.095472" id="Fill-187" fill="#000000"></path>
            <path d="M188.659757,56.6716549 C184.497271,56.6716549 181.123569,60.0419101 181.123569,64.19888 C181.123569,68.3558498 184.497271,71.726105 188.659757,71.726105 C192.821553,71.726105 196.195946,68.3558498 196.195946,64.19888 C196.195946,60.0419101 192.821553,56.6716549 188.659757,56.6716549" id="Fill-189" fill="#000000"></path>
            <path d="M188.659757,75.6980832 C184.497271,75.6980832 181.123569,79.0683384 181.123569,83.2253082 C181.123569,87.3829676 184.497271,90.7525333 188.659757,90.7525333 C192.821553,90.7525333 196.195946,87.3829676 196.195946,83.2253082 C196.195946,79.0683384 192.821553,75.6980832 188.659757,75.6980832" id="Fill-191" fill="#000000"></path>
            <path d="M188.659757,94.7245804 C184.497271,94.7245804 181.123569,98.0948356 181.123569,102.251805 C181.123569,106.409465 184.497271,109.779031 188.659757,109.779031 C192.821553,109.779031 196.195946,106.409465 196.195946,102.251805 C196.195946,98.0948356 192.821553,94.7245804 188.659757,94.7245804" id="Fill-193" fill="#000000"></path>
            <path d="M169.63326,304.016119 C165.470774,304.016119 162.096382,307.386374 162.096382,311.543344 C162.096382,315.700314 165.470774,319.070569 169.63326,319.070569 C173.795056,319.070569 177.169448,315.700314 177.169448,311.543344 C177.169448,307.386374 173.795056,304.016119 169.63326,304.016119" id="Fill-195" fill="#000000"></path>
            <path d="M169.63326,380.122245 C165.470774,380.122245 162.096382,383.492501 162.096382,387.649471 C162.096382,391.80644 165.470774,395.176696 169.63326,395.176696 C173.795056,395.176696 177.169448,391.80644 177.169448,387.649471 C177.169448,383.492501 173.795056,380.122245 169.63326,380.122245" id="Fill-197" fill="#000000"></path>
            <path d="M188.659757,113.751353 C184.497271,113.751353 181.123569,117.121609 181.123569,121.278578 C181.123569,125.435548 184.497271,128.805804 188.659757,128.805804 C192.821553,128.805804 196.195946,125.435548 196.195946,121.278578 C196.195946,117.121609 192.821553,113.751353 188.659757,113.751353" id="Fill-199" fill="#000000"></path>
            <path d="M169.63326,284.98969 C165.470774,284.98969 162.096382,288.359946 162.096382,292.516916 C162.096382,296.673885 165.470774,300.044141 169.63326,300.044141 C173.795056,300.044141 177.169448,296.673885 177.169448,292.516916 C177.169448,288.359946 173.795056,284.98969 169.63326,284.98969" id="Fill-201" fill="#000000"></path>
            <path d="M188.659757,380.122245 C184.497271,380.122245 181.123569,383.492501 181.123569,387.649471 C181.123569,391.80644 184.497271,395.176696 188.659757,395.176696 C192.821553,395.176696 196.195946,391.80644 196.195946,387.649471 C196.195946,383.492501 192.821553,380.122245 188.659757,380.122245" id="Fill-203" fill="#000000"></path>
            <path d="M169.63326,342.069044 C165.470774,342.069044 162.096382,345.439299 162.096382,349.596269 C162.096382,353.753929 165.470774,357.123494 169.63326,357.123494 C173.795056,357.123494 177.169448,353.753929 177.169448,349.596269 C177.169448,345.439299 173.795056,342.069044 169.63326,342.069044" id="Fill-205" fill="#000000"></path>
            <path d="M169.63326,323.042547 C165.470774,323.042547 162.096382,326.412802 162.096382,330.569772 C162.096382,334.726742 165.470774,338.096997 169.63326,338.096997 C173.795056,338.096997 177.169448,334.726742 177.169448,330.569772 C177.169448,326.412802 173.795056,323.042547 169.63326,323.042547" id="Fill-207" fill="#000000"></path>
            <path d="M188.659757,284.98969 C184.497271,284.98969 181.123569,288.359946 181.123569,292.516916 C181.123569,296.673885 184.497271,300.044141 188.659757,300.044141 C192.821553,300.044141 196.195946,296.673885 196.195946,292.516916 C196.195946,288.359946 192.821553,284.98969 188.659757,284.98969" id="Fill-209" fill="#000000"></path>
            <path d="M188.659757,246.936765 C184.497271,246.936765 181.123569,250.30702 181.123569,254.46399 C181.123569,258.62096 184.497271,261.991215 188.659757,261.991215 C192.821553,261.991215 196.195946,258.62096 196.195946,254.46399 C196.195946,250.30702 192.821553,246.936765 188.659757,246.936765" id="Fill-211" fill="#000000"></path>
            <path d="M188.659757,304.016119 C184.497271,304.016119 181.123569,307.386374 181.123569,311.543344 C181.123569,315.700314 184.497271,319.070569 188.659757,319.070569 C192.821553,319.070569 196.195946,315.700314 196.195946,311.543344 C196.195946,307.386374 192.821553,304.016119 188.659757,304.016119" id="Fill-213" fill="#000000"></path>
            <path d="M188.659757,265.963262 C184.497271,265.963262 181.123569,269.333517 181.123569,273.490487 C181.123569,277.647457 184.497271,281.017712 188.659757,281.017712 C192.821553,281.017712 196.195946,277.647457 196.195946,273.490487 C196.195946,269.333517 192.821553,265.963262 188.659757,265.963262" id="Fill-215" fill="#000000"></path>
            <path d="M188.659757,323.042547 C184.497271,323.042547 181.123569,326.412802 181.123569,330.569772 C181.123569,334.726742 184.497271,338.096997 188.659757,338.096997 C192.821553,338.096997 196.195946,334.726742 196.195946,330.569772 C196.195946,326.412802 192.821553,323.042547 188.659757,323.042547" id="Fill-217" fill="#000000"></path>
            <path d="M188.659757,342.069044 C184.497271,342.069044 181.123569,345.439299 181.123569,349.596269 C181.123569,353.753929 184.497271,357.123494 188.659757,357.123494 C192.821553,357.123494 196.195946,353.753929 196.195946,349.596269 C196.195946,345.439299 192.821553,342.069044 188.659757,342.069044" id="Fill-219" fill="#000000"></path>
            <path d="M188.659757,227.909992 C184.497271,227.909992 181.123569,231.280247 181.123569,235.437217 C181.123569,239.594876 184.497271,242.964442 188.659757,242.964442 C192.821553,242.964442 196.195946,239.594876 196.195946,235.437217 C196.195946,231.280247 192.821553,227.909992 188.659757,227.909992" id="Fill-221" fill="#000000"></path>
            <path d="M188.659757,132.777782 C184.497271,132.777782 181.123569,136.148037 181.123569,140.305007 C181.123569,144.461977 184.497271,147.832232 188.659757,147.832232 C192.821553,147.832232 196.195946,144.461977 196.195946,140.305007 C196.195946,136.148037 192.821553,132.777782 188.659757,132.777782" id="Fill-223" fill="#000000"></path>
            <path d="M188.659757,170.830707 C184.497271,170.830707 181.123569,174.200962 181.123569,178.357932 C181.123569,182.514902 184.497271,185.885157 188.659757,185.885157 C192.821553,185.885157 196.195946,182.514902 196.195946,178.357932 C196.195946,174.200962 192.821553,170.830707 188.659757,170.830707" id="Fill-225" fill="#000000"></path>
            <path d="M188.659757,151.80421 C184.497271,151.80421 181.123569,155.174465 181.123569,159.331435 C181.123569,163.488405 184.497271,166.85866 188.659757,166.85866 C192.821553,166.85866 196.195946,163.488405 196.195946,159.331435 C196.195946,155.174465 192.821553,151.80421 188.659757,151.80421" id="Fill-227" fill="#000000"></path>
            <path d="M188.659757,189.857135 C184.497271,189.857135 181.123569,193.227391 181.123569,197.38436 C181.123569,201.54133 184.497271,204.911586 188.659757,204.911586 C192.821553,204.911586 196.195946,201.54133 196.195946,197.38436 C196.195946,193.227391 192.821553,189.857135 188.659757,189.857135" id="Fill-229" fill="#000000"></path>
            <path d="M188.659757,208.883564 C184.497271,208.883564 181.123569,212.253819 181.123569,216.410789 C181.123569,220.568448 184.497271,223.938014 188.659757,223.938014 C192.821553,223.938014 196.195946,220.568448 196.195946,216.410789 C196.195946,212.253819 192.821553,208.883564 188.659757,208.883564" id="Fill-231" fill="#000000"></path>
            <g id="Group-235" transform="translate(199.953766, 189.700275)">
                <mask id="mask-42" fill="white">
                    <use xlink:href="#path-41"></use>
                </mask>
                <g id="Clip-234"></g>
                <path d="M6.22276806,15.0584492 L6.22276806,0.309445691 C2.78838975,1.01135236 0.204849186,4.04651264 0.204849186,7.68429219 C0.204849186,11.3220717 2.78838975,14.3565425 6.22276806,15.0584492" id="Fill-233" fill="#000000" mask="url(#mask-42)"></path>
            </g>
            <path d="M112.562732,33.6731796 C116.724528,33.6731796 120.09892,30.3029243 120.09892,26.1459545 C120.09892,23.954737 119.15569,21.9882951 117.659484,20.6127511 C113.388058,22.6453846 109.20144,24.8241911 105.09894,27.1360704 C105.585724,30.8241831 108.737409,33.6731796 112.562732,33.6731796" id="Fill-236" fill="#000000"></path>
            <path d="M36.4566049,284.98969 C32.2941191,284.98969 28.9204164,288.359946 28.9204164,292.516916 C28.9204164,296.673885 32.2941191,300.044141 36.4566049,300.044141 C40.6190908,300.044141 43.9927934,296.673885 43.9927934,292.516916 C43.9927934,288.359946 40.6190908,284.98969 36.4566049,284.98969" id="Fill-238" fill="#000000"></path>
            <path d="M36.4566049,265.963262 C32.2941191,265.963262 28.9204164,269.333517 28.9204164,273.490487 C28.9204164,277.647457 32.2941191,281.017712 36.4566049,281.017712 C40.6190908,281.017712 43.9927934,277.647457 43.9927934,273.490487 C43.9927934,269.333517 40.6190908,265.963262 36.4566049,265.963262" id="Fill-240" fill="#000000"></path>
            <path d="M36.4566049,109.779306 C40.6190908,109.779306 43.9927934,106.409051 43.9927934,102.252081 C43.9927934,98.0951114 40.6190908,94.7248562 36.4566049,94.7248562 C34.9321298,94.7248562 33.5159056,95.1806129 32.3299729,95.9576746 C31.1792045,97.756569 30.0649794,99.5809747 28.9693706,101.417791 C28.9390328,101.692211 28.9204164,101.969388 28.9204164,102.252081 C28.9204164,106.409051 32.2941191,109.779306 36.4566049,109.779306" id="Fill-242" fill="#000000"></path>
            <path d="M55.4833779,75.6980832 C51.3208921,75.6980832 47.9464999,79.0683384 47.9464999,83.2253082 C47.9464999,87.3829676 51.3208921,90.7525333 55.4833779,90.7525333 C59.6451743,90.7525333 63.0195665,87.3829676 63.0195665,83.2253082 C63.0195665,79.0683384 59.6451743,75.6980832 55.4833779,75.6980832" id="Fill-244" fill="#000000"></path>
            <path d="M55.4833779,94.7245804 C51.3208921,94.7245804 47.9464999,98.0948356 47.9464999,102.251805 C47.9464999,106.409465 51.3208921,109.779031 55.4833779,109.779031 C59.6451743,109.779031 63.0195665,106.409465 63.0195665,102.251805 C63.0195665,98.0948356 59.6451743,94.7245804 55.4833779,94.7245804" id="Fill-246" fill="#000000"></path>
            <path d="M36.4566049,90.7528781 C40.6190908,90.7528781 43.9927934,87.3826228 43.9927934,83.225653 C43.9927934,82.1893409 43.7824972,81.2012935 43.4032746,80.3028805 C40.7638849,83.6924416 38.2292985,87.1661212 35.8008945,90.7197823 C36.0180856,90.7383986 36.2352768,90.7528781 36.4566049,90.7528781" id="Fill-248" fill="#000000"></path>
            <path d="M36.4566049,170.830707 C32.2941191,170.830707 28.9204164,174.200962 28.9204164,178.357932 C28.9204164,182.514902 32.2941191,185.885157 36.4566049,185.885157 C40.6190908,185.885157 43.9927934,182.514902 43.9927934,178.357932 C43.9927934,174.200962 40.6190908,170.830707 36.4566049,170.830707" id="Fill-250" fill="#000000"></path>
            <path d="M36.4566049,189.857135 C32.2941191,189.857135 28.9204164,193.227391 28.9204164,197.38436 C28.9204164,201.54133 32.2941191,204.911586 36.4566049,204.911586 C40.6190908,204.911586 43.9927934,201.54133 43.9927934,197.38436 C43.9927934,193.227391 40.6190908,189.857135 36.4566049,189.857135" id="Fill-252" fill="#000000"></path>
            <path d="M74.5098062,56.6716549 C70.3473204,56.6716549 66.9729282,60.0419101 66.9729282,64.19888 C66.9729282,68.3558498 70.3473204,71.726105 74.5098062,71.726105 C78.6716025,71.726105 82.0459947,68.3558498 82.0459947,64.19888 C82.0459947,60.0419101 78.6716025,56.6716549 74.5098062,56.6716549" id="Fill-254" fill="#000000"></path>
            <path d="M36.4566049,227.909992 C32.2941191,227.909992 28.9204164,231.280247 28.9204164,235.437217 C28.9204164,239.594876 32.2941191,242.964442 36.4566049,242.964442 C40.6190908,242.964442 43.9927934,239.594876 43.9927934,235.437217 C43.9927934,231.280247 40.6190908,227.909992 36.4566049,227.909992" id="Fill-256" fill="#000000"></path>
            <path d="M36.4566049,246.936765 C32.2941191,246.936765 28.9204164,250.30702 28.9204164,254.46399 C28.9204164,258.62096 32.2941191,261.991215 36.4566049,261.991215 C40.6190908,261.991215 43.9927934,258.62096 43.9927934,254.46399 C43.9927934,250.30702 40.6190908,246.936765 36.4566049,246.936765" id="Fill-258" fill="#000000"></path>
            <path d="M36.4566049,208.883564 C32.2941191,208.883564 28.9204164,212.253819 28.9204164,216.410789 C28.9204164,220.568448 32.2941191,223.938014 36.4566049,223.938014 C40.6190908,223.938014 43.9927934,220.568448 43.9927934,216.410789 C43.9927934,212.253819 40.6190908,208.883564 36.4566049,208.883564" id="Fill-260" fill="#000000"></path>
            <path d="M55.4833779,227.909992 C51.3208921,227.909992 47.9464999,231.280247 47.9464999,235.437217 C47.9464999,239.594876 51.3208921,242.964442 55.4833779,242.964442 C59.6451743,242.964442 63.0195665,239.594876 63.0195665,235.437217 C63.0195665,231.280247 59.6451743,227.909992 55.4833779,227.909992" id="Fill-262" fill="#000000"></path>
            <path d="M55.4833779,132.777782 C51.3208921,132.777782 47.9464999,136.148037 47.9464999,140.305007 C47.9464999,144.461977 51.3208921,147.832232 55.4833779,147.832232 C59.6451743,147.832232 63.0195665,144.461977 63.0195665,140.305007 C63.0195665,136.148037 59.6451743,132.777782 55.4833779,132.777782" id="Fill-264" fill="#000000"></path>
            <path d="M55.4833779,323.042547 C51.3208921,323.042547 47.9464999,326.412802 47.9464999,330.569772 C47.9464999,334.726742 51.3208921,338.096997 55.4833779,338.096997 C59.6451743,338.096997 63.0195665,334.726742 63.0195665,330.569772 C63.0195665,326.412802 59.6451743,323.042547 55.4833779,323.042547" id="Fill-266" fill="#000000"></path>
            <path d="M55.4833779,246.936765 C51.3208921,246.936765 47.9464999,250.30702 47.9464999,254.46399 C47.9464999,258.62096 51.3208921,261.991215 55.4833779,261.991215 C59.6451743,261.991215 63.0195665,258.62096 63.0195665,254.46399 C63.0195665,250.30702 59.6451743,246.936765 55.4833779,246.936765" id="Fill-268" fill="#000000"></path>
            <path d="M55.4833779,265.963262 C51.3208921,265.963262 47.9464999,269.333517 47.9464999,273.490487 C47.9464999,277.647457 51.3208921,281.017712 55.4833779,281.017712 C59.6451743,281.017712 63.0195665,277.647457 63.0195665,273.490487 C63.0195665,269.333517 59.6451743,265.963262 55.4833779,265.963262" id="Fill-270" fill="#000000"></path>
            <path d="M63.0193596,64.1992247 C63.0193596,62.5789097 62.5015483,61.0820145 61.6293362,59.853333 C58.1211818,63.3035698 54.7357577,66.8772262 51.4806483,70.5687864 C52.6410696,71.2975834 54.0104082,71.7264498 55.4831711,71.7264498 C59.6449674,71.7264498 63.0193596,68.3561946 63.0193596,64.1992247" id="Fill-272" fill="#000000"></path>
            <path d="M55.4833779,304.016119 C51.3208921,304.016119 47.9464999,307.386374 47.9464999,311.543344 C47.9464999,315.700314 51.3208921,319.070569 55.4833779,319.070569 C59.6451743,319.070569 63.0195665,315.700314 63.0195665,311.543344 C63.0195665,307.386374 59.6451743,304.016119 55.4833779,304.016119" id="Fill-274" fill="#000000"></path>
            <path d="M55.4833779,284.98969 C51.3208921,284.98969 47.9464999,288.359946 47.9464999,292.516916 C47.9464999,296.673885 51.3208921,300.044141 55.4833779,300.044141 C59.6451743,300.044141 63.0195665,296.673885 63.0195665,292.516916 C63.0195665,288.359946 59.6451743,284.98969 55.4833779,284.98969" id="Fill-276" fill="#000000"></path>
            <path d="M55.4833779,151.80421 C51.3208921,151.80421 47.9464999,155.174465 47.9464999,159.331435 C47.9464999,163.488405 51.3208921,166.85866 55.4833779,166.85866 C59.6451743,166.85866 63.0195665,163.488405 63.0195665,159.331435 C63.0195665,155.174465 59.6451743,151.80421 55.4833779,151.80421" id="Fill-278" fill="#000000"></path>
            <path d="M55.4833779,170.830707 C51.3208921,170.830707 47.9464999,174.200962 47.9464999,178.357932 C47.9464999,182.514902 51.3208921,185.885157 55.4833779,185.885157 C59.6451743,185.885157 63.0195665,182.514902 63.0195665,178.357932 C63.0195665,174.200962 59.6451743,170.830707 55.4833779,170.830707" id="Fill-280" fill="#000000"></path>
            <path d="M55.4833779,189.857135 C51.3208921,189.857135 47.9464999,193.227391 47.9464999,197.38436 C47.9464999,201.54133 51.3208921,204.911586 55.4833779,204.911586 C59.6451743,204.911586 63.0195665,201.54133 63.0195665,197.38436 C63.0195665,193.227391 59.6451743,189.857135 55.4833779,189.857135" id="Fill-282" fill="#000000"></path>
            <path d="M36.4566049,132.777782 C32.2941191,132.777782 28.9204164,136.148037 28.9204164,140.305007 C28.9204164,144.461977 32.2941191,147.832232 36.4566049,147.832232 C40.6190908,147.832232 43.9927934,144.461977 43.9927934,140.305007 C43.9927934,136.148037 40.6190908,132.777782 36.4566049,132.777782" id="Fill-284" fill="#000000"></path>
            <path d="M55.4833779,208.883564 C51.3208921,208.883564 47.9464999,212.253819 47.9464999,216.410789 C47.9464999,220.568448 51.3208921,223.938014 55.4833779,223.938014 C59.6451743,223.938014 63.0195665,220.568448 63.0195665,216.410789 C63.0195665,212.253819 59.6451743,208.883564 55.4833779,208.883564" id="Fill-286" fill="#000000"></path>
            <path d="M36.4566049,151.80421 C32.2941191,151.80421 28.9204164,155.174465 28.9204164,159.331435 C28.9204164,163.488405 32.2941191,166.85866 36.4566049,166.85866 C40.6190908,166.85866 43.9927934,163.488405 43.9927934,159.331435 C43.9927934,155.174465 40.6190908,151.80421 36.4566049,151.80421" id="Fill-288" fill="#000000"></path>
            <path d="M36.4566049,319.070914 C40.6190908,319.070914 43.9927934,315.700658 43.9927934,311.543689 C43.9927934,307.386029 40.6190908,304.016463 36.4566049,304.016463 C32.2941191,304.016463 28.9204164,307.386029 28.9204164,311.543689 C28.9204164,311.821555 28.9376538,312.095285 28.9673021,312.365567 C30.0663584,314.20859 31.1847205,316.038511 32.3389363,317.842922 C33.5228005,318.617225 34.9355773,319.070914 36.4566049,319.070914" id="Fill-290" fill="#000000"></path>
            <path d="M36.4566049,323.042547 C36.2373453,323.042547 36.0215331,323.057026 35.8070999,323.074953 C38.234125,326.626546 40.7673323,330.098846 43.4053431,333.486339 C43.7831867,332.589305 43.9927934,331.604016 43.9927934,330.569772 C43.9927934,326.412802 40.6190908,323.042547 36.4566049,323.042547" id="Fill-292" fill="#000000"></path>
            <path d="M24.9664341,292.508159 C24.9664341,288.351189 21.5920419,284.980934 17.4302456,284.980934 C16.72696,284.980934 16.0491856,285.084358 15.4038176,285.264317 C17.2951044,289.863253 19.3477333,294.378071 21.5554987,298.803255 C23.6081275,297.458738 24.9664341,295.143412 24.9664341,292.508159" id="Fill-294" fill="#000000"></path>
            <path d="M55.4833779,342.069044 C54.0126835,342.069044 52.6454135,342.496532 51.4856816,343.22395 C54.740791,346.91482 58.1255256,350.487787 61.63368,353.936645 C62.5038236,352.709343 63.0195665,351.214516 63.0195665,349.596269 C63.0195665,345.439299 59.6451743,342.069044 55.4833779,342.069044" id="Fill-296" fill="#000000"></path>
            <path d="M4.5148871,250.071488 C4.92237908,251.98346 5.35814039,253.8844 5.81803406,255.776376 C5.89318909,255.349578 5.93938531,254.912438 5.93938531,254.464266 C5.93938531,252.822576 5.40778409,251.308444 4.5148871,250.071488" id="Fill-298" fill="#000000"></path>
            <path d="M17.4301077,281.008887 C21.5925935,281.008887 24.9662962,277.638632 24.9662962,273.481662 C24.9662962,269.324692 21.5925935,265.954437 17.4301077,265.954437 C14.0446836,265.954437 11.1812078,268.183576 10.2303931,271.252522 C11.1667284,274.104966 12.1637392,276.92914 13.2200467,279.725046 C14.4218378,280.535203 15.8704683,281.008887 17.4301077,281.008887" id="Fill-300" fill="#000000"></path>
            <path d="M94.3637673,380.169752 C96.1888625,381.349479 98.0332636,382.502316 99.8976601,383.625504 C98.7006955,381.741802 96.6949524,380.424176 94.3637673,380.169752" id="Fill-302" fill="#000000"></path>
            <path d="M150.615588,399.148674 C147.598355,399.148674 145.001714,400.924125 143.798544,403.482844 C148.498836,404.972844 153.272905,406.295987 158.111786,407.451582 C158.137987,407.196468 158.151777,406.937907 158.151777,406.675899 C158.151777,402.518929 154.777385,399.148674 150.615588,399.148674" id="Fill-304" fill="#000000"></path>
            <path d="M36.4566049,113.751353 C32.2941191,113.751353 28.9204164,117.121609 28.9204164,121.278578 C28.9204164,125.435548 32.2941191,128.805804 36.4566049,128.805804 C40.6190908,128.805804 43.9927934,125.435548 43.9927934,121.278578 C43.9927934,117.121609 40.6190908,113.751353 36.4566049,113.751353" id="Fill-306" fill="#000000"></path>
            <path d="M74.5098062,361.095472 C73.0597967,361.095472 71.711143,361.511238 70.5617536,362.219351 C74.1292046,365.336561 77.8062854,368.328972 81.5840326,371.197964 C81.8777578,370.393323 82.0459947,369.528695 82.0459947,368.622698 C82.0459947,364.465728 78.6716025,361.095472 74.5098062,361.095472" id="Fill-308" fill="#000000"></path>
            <g id="Group-312" transform="translate(199.953766, 398.617486)">
                <mask id="mask-44" fill="white">
                    <use xlink:href="#path-43"></use>
                </mask>
                <g id="Clip-311"></g>
                <path d="M6.22276806,0.68404873 C2.78838975,1.3859554 0.204849186,4.42111567 0.204849186,8.05820574 C0.204849186,10.7589606 1.63348437,13.1204835 3.77161068,14.4484523 C4.58935264,14.4581053 5.40364711,14.4794796 6.22276806,14.4794796 L6.22276806,0.68404873 Z" id="Fill-310" fill="#000000" mask="url(#mask-44)"></path>
            </g>
            <path d="M120.098644,387.649471 C120.098644,383.492501 116.724252,380.122245 112.562456,380.122245 C108.739891,380.122245 105.590275,382.967105 105.100043,386.651081 C109.204612,388.963649 113.392609,391.143146 117.665414,393.177158 C119.158172,391.801614 120.098644,389.83793 120.098644,387.649471" id="Fill-313" fill="#000000"></path>
            <path d="M2.87567991,172.309331 C2.1468829,176.624885 1.54219514,180.983187 1.08574895,185.385618 C3.92164496,184.304488 5.939799,181.569948 5.939799,178.357587 C5.939799,175.875403 4.73111296,173.680738 2.87567991,172.309331" id="Fill-315" fill="#000000"></path>
            <path d="M131.50973,399.152742 C133.187963,399.804315 134.876538,400.432446 136.574766,401.04196 C135.245418,399.867059 133.503752,399.148605 131.589022,399.148605 C131.562132,399.148605 131.53662,399.152742 131.50973,399.152742" id="Fill-317" fill="#000000"></path>
            <path d="M17.4301077,246.927664 C13.2676219,246.927664 9.89391921,250.297919 9.89391921,254.454889 C9.89391921,258.612548 13.2676219,261.982114 17.4301077,261.982114 C21.5925935,261.982114 24.9662962,258.612548 24.9662962,254.454889 C24.9662962,250.297919 21.5925935,246.927664 17.4301077,246.927664" id="Fill-319" fill="#000000"></path>
            <path d="M17.4301077,208.874807 C13.2676219,208.874807 9.89391921,212.245062 9.89391921,216.402032 C9.89391921,220.559002 13.2676219,223.929257 17.4301077,223.929257 C21.5925935,223.929257 24.9662962,220.559002 24.9662962,216.402032 C24.9662962,212.245062 21.5925935,208.874807 17.4301077,208.874807" id="Fill-321" fill="#000000"></path>
            <path d="M17.4301077,227.901235 C13.2676219,227.901235 9.89391921,231.271491 9.89391921,235.42846 C9.89391921,239.58543 13.2676219,242.955685 17.4301077,242.955685 C21.5925935,242.955685 24.9662962,239.58543 24.9662962,235.42846 C24.9662962,231.271491 21.5925935,227.901235 17.4301077,227.901235" id="Fill-323" fill="#000000"></path>
            <path d="M17.4301077,147.823475 C21.5925935,147.823475 24.9662962,144.45322 24.9662962,140.29625 C24.9662962,136.13928 21.5925935,132.769025 17.4301077,132.769025 C15.8725368,132.769025 14.4252853,133.24133 13.2241837,134.049419 C12.1671867,136.848771 11.1687968,139.675014 10.2317721,142.530216 C11.1846552,145.596404 14.0467521,147.823475 17.4301077,147.823475" id="Fill-325" fill="#000000"></path>
            <path d="M17.4301077,189.848379 C13.2676219,189.848379 9.89391921,193.218634 9.89391921,197.375604 C9.89391921,201.532574 13.2676219,204.902829 17.4301077,204.902829 C21.5925935,204.902829 24.9662962,201.532574 24.9662962,197.375604 C24.9662962,193.218634 21.5925935,189.848379 17.4301077,189.848379" id="Fill-327" fill="#000000"></path>
            <path d="M17.4301077,128.797047 C21.5925935,128.797047 24.9662962,125.426792 24.9662962,121.269822 C24.9662962,118.635948 23.6093686,116.321311 21.5588082,114.976105 C19.3510429,119.401288 17.298414,123.915417 15.4071272,128.514354 C16.0518057,128.693623 16.728201,128.797047 17.4301077,128.797047" id="Fill-329" fill="#000000"></path>
            <path d="M1.08692109,228.41029 C1.54336728,232.812031 2.14805505,237.169644 2.87685205,241.485198 C4.7322851,240.113791 5.93959216,237.919126 5.93959216,235.437631 C5.93959216,232.22596 3.9221276,229.491419 1.08692109,228.41029" id="Fill-331" fill="#000000"></path>
            <path d="M17.4301077,170.821951 C13.2676219,170.821951 9.89391921,174.192206 9.89391921,178.349176 C9.89391921,182.506145 13.2676219,185.876401 17.4301077,185.876401 C21.5925935,185.876401 24.9662962,182.506145 24.9662962,178.349176 C24.9662962,174.192206 21.5925935,170.821951 17.4301077,170.821951" id="Fill-333" fill="#000000"></path>
            <path d="M0.000137899149,209.056627 C0.0504710886,213.945841 0.263525274,218.795755 0.648263901,223.598092 C3.71445148,222.64452 5.93945426,219.787249 5.93945426,216.411478 C5.93945426,212.801279 3.39452546,209.788872 0.000137899149,209.056627" id="Fill-335" fill="#000000"></path>
            <g id="Group-339" transform="translate(0.000000, 189.700275)">
                <mask id="mask-46" fill="white">
                    <use xlink:href="#path-45"></use>
                </mask>
                <g id="Clip-338"></g>
                <path d="M0.647919153,0.496574836 C0.263180526,5.29891271 0.0501263407,10.1495153 -0.000206848724,15.0387296 C3.39487021,14.3064851 5.939799,11.2940782 5.939799,7.68456799 C5.939799,4.30741783 3.71410674,1.45083695 0.647919153,0.496574836" id="Fill-337" fill="#000000" mask="url(#mask-46)"></path>
            </g>
            <path d="M5.93966111,159.331435 C5.93966111,158.881194 5.89277539,158.441985 5.81693086,158.013119 C5.3563477,159.908543 4.9198969,161.81293 4.51240491,163.72766 C5.40668089,162.490015 5.93966111,160.974503 5.93966111,159.331435" id="Fill-340" fill="#000000"></path>
            <path d="M17.4301077,151.795453 C13.2676219,151.795453 9.89391921,155.165709 9.89391921,159.322678 C9.89391921,163.479648 13.2676219,166.849903 17.4301077,166.849903 C21.5925935,166.849903 24.9662962,163.479648 24.9662962,159.322678 C24.9662962,155.165709 21.5925935,151.795453 17.4301077,151.795453" id="Fill-342" fill="#000000"></path>
            <path d="M55.4833779,113.751353 C51.3208921,113.751353 47.9464999,117.121609 47.9464999,121.278578 C47.9464999,125.435548 51.3208921,128.805804 55.4833779,128.805804 C59.6451743,128.805804 63.0195665,125.435548 63.0195665,121.278578 C63.0195665,117.121609 59.6451743,113.751353 55.4833779,113.751353" id="Fill-344" fill="#000000"></path>
            <path d="M112.562732,56.6716549 C108.400246,56.6716549 105.025854,60.0419101 105.025854,64.19888 C105.025854,68.3558498 108.400246,71.726105 112.562732,71.726105 C116.724528,71.726105 120.09892,68.3558498 120.09892,64.19888 C120.09892,60.0419101 116.724528,56.6716549 112.562732,56.6716549" id="Fill-346" fill="#000000"></path>
            <path d="M74.5098062,75.6980832 C70.3473204,75.6980832 66.9729282,79.0683384 66.9729282,83.2253082 C66.9729282,87.3829676 70.3473204,90.7525333 74.5098062,90.7525333 C78.6716025,90.7525333 82.0459947,87.3829676 82.0459947,83.2253082 C82.0459947,79.0683384 78.6716025,75.6980832 74.5098062,75.6980832" id="Fill-348" fill="#000000"></path>
            <path d="M93.5362345,227.909992 C89.3737487,227.909992 85.9993565,231.280247 85.9993565,235.437217 C85.9993565,239.594876 89.3737487,242.964442 93.5362345,242.964442 C97.6980308,242.964442 101.072423,239.594876 101.072423,235.437217 C101.072423,231.280247 97.6980308,227.909992 93.5362345,227.909992" id="Fill-350" fill="#000000"></path>
            <path d="M93.5362345,342.069044 C89.3737487,342.069044 85.9993565,345.439299 85.9993565,349.596269 C85.9993565,353.753929 89.3737487,357.123494 93.5362345,357.123494 C97.6980308,357.123494 101.072423,353.753929 101.072423,349.596269 C101.072423,345.439299 97.6980308,342.069044 93.5362345,342.069044" id="Fill-352" fill="#000000"></path>
            <path d="M112.562732,94.7245804 C108.400246,94.7245804 105.025854,98.0948356 105.025854,102.251805 C105.025854,106.409465 108.400246,109.779031 112.562732,109.779031 C116.724528,109.779031 120.09892,106.409465 120.09892,102.251805 C120.09892,98.0948356 116.724528,94.7245804 112.562732,94.7245804" id="Fill-354" fill="#000000"></path>
            <path d="M112.562732,113.751353 C108.400246,113.751353 105.025854,117.121609 105.025854,121.278578 C105.025854,125.435548 108.400246,128.805804 112.562732,128.805804 C116.724528,128.805804 120.09892,125.435548 120.09892,121.278578 C120.09892,117.121609 116.724528,113.751353 112.562732,113.751353" id="Fill-356" fill="#000000"></path>
            <path d="M93.5362345,265.963262 C89.3737487,265.963262 85.9993565,269.333517 85.9993565,273.490487 C85.9993565,277.647457 89.3737487,281.017712 93.5362345,281.017712 C97.6980308,281.017712 101.072423,277.647457 101.072423,273.490487 C101.072423,269.333517 97.6980308,265.963262 93.5362345,265.963262" id="Fill-358" fill="#000000"></path>
            <path d="M93.5362345,284.98969 C89.3737487,284.98969 85.9993565,288.359946 85.9993565,292.516916 C85.9993565,296.673885 89.3737487,300.044141 93.5362345,300.044141 C97.6980308,300.044141 101.072423,296.673885 101.072423,292.516916 C101.072423,288.359946 97.6980308,284.98969 93.5362345,284.98969" id="Fill-360" fill="#000000"></path>
            <path d="M112.562732,132.777782 C108.400246,132.777782 105.025854,136.148037 105.025854,140.305007 C105.025854,144.461977 108.400246,147.832232 112.562732,147.832232 C116.724528,147.832232 120.09892,144.461977 120.09892,140.305007 C120.09892,136.148037 116.724528,132.777782 112.562732,132.777782" id="Fill-362" fill="#000000"></path>
            <path d="M93.5362345,361.095472 C89.3737487,361.095472 85.9993565,364.465728 85.9993565,368.622698 C85.9993565,372.780357 89.3737487,376.149923 93.5362345,376.149923 C97.6980308,376.149923 101.072423,372.780357 101.072423,368.622698 C101.072423,364.465728 97.6980308,361.095472 93.5362345,361.095472" id="Fill-364" fill="#000000"></path>
            <path d="M93.5362345,246.936765 C89.3737487,246.936765 85.9993565,250.30702 85.9993565,254.46399 C85.9993565,258.62096 89.3737487,261.991215 93.5362345,261.991215 C97.6980308,261.991215 101.072423,258.62096 101.072423,254.46399 C101.072423,250.30702 97.6980308,246.936765 93.5362345,246.936765" id="Fill-366" fill="#000000"></path>
            <path d="M93.5362345,304.016119 C89.3737487,304.016119 85.9993565,307.386374 85.9993565,311.543344 C85.9993565,315.700314 89.3737487,319.070569 93.5362345,319.070569 C97.6980308,319.070569 101.072423,315.700314 101.072423,311.543344 C101.072423,307.386374 97.6980308,304.016119 93.5362345,304.016119" id="Fill-368" fill="#000000"></path>
            <path d="M93.5362345,323.042547 C89.3737487,323.042547 85.9993565,326.412802 85.9993565,330.569772 C85.9993565,334.726742 89.3737487,338.096997 93.5362345,338.096997 C97.6980308,338.096997 101.072423,334.726742 101.072423,330.569772 C101.072423,326.412802 97.6980308,323.042547 93.5362345,323.042547" id="Fill-370" fill="#000000"></path>
            <path d="M112.562732,75.6980832 C108.400246,75.6980832 105.025854,79.0683384 105.025854,83.2253082 C105.025854,87.3829676 108.400246,90.7525333 112.562732,90.7525333 C116.724528,90.7525333 120.09892,87.3829676 120.09892,83.2253082 C120.09892,79.0683384 116.724528,75.6980832 112.562732,75.6980832" id="Fill-372" fill="#000000"></path>
            <path d="M112.562732,304.016119 C108.400246,304.016119 105.025854,307.386374 105.025854,311.543344 C105.025854,315.700314 108.400246,319.070569 112.562732,319.070569 C116.724528,319.070569 120.09892,315.700314 120.09892,311.543344 C120.09892,307.386374 116.724528,304.016119 112.562732,304.016119" id="Fill-374" fill="#000000"></path>
            <path d="M112.562732,284.98969 C108.400246,284.98969 105.025854,288.359946 105.025854,292.516916 C105.025854,296.673885 108.400246,300.044141 112.562732,300.044141 C116.724528,300.044141 120.09892,296.673885 120.09892,292.516916 C120.09892,288.359946 116.724528,284.98969 112.562732,284.98969" id="Fill-376" fill="#000000"></path>
            <path d="M112.562732,323.042547 C108.400246,323.042547 105.025854,326.412802 105.025854,330.569772 C105.025854,334.726742 108.400246,338.096997 112.562732,338.096997 C116.724528,338.096997 120.09892,334.726742 120.09892,330.569772 C120.09892,326.412802 116.724528,323.042547 112.562732,323.042547" id="Fill-378" fill="#000000"></path>
            <path d="M112.562732,265.963262 C108.400246,265.963262 105.025854,269.333517 105.025854,273.490487 C105.025854,277.647457 108.400246,281.017712 112.562732,281.017712 C116.724528,281.017712 120.09892,277.647457 120.09892,273.490487 C120.09892,269.333517 116.724528,265.963262 112.562732,265.963262" id="Fill-380" fill="#000000"></path>
            <path d="M112.562732,342.069044 C108.400246,342.069044 105.025854,345.439299 105.025854,349.596269 C105.025854,353.753929 108.400246,357.123494 112.562732,357.123494 C116.724528,357.123494 120.09892,353.753929 120.09892,349.596269 C120.09892,345.439299 116.724528,342.069044 112.562732,342.069044" id="Fill-382" fill="#000000"></path>
            <path d="M112.562732,361.095472 C108.400246,361.095472 105.025854,364.465728 105.025854,368.622698 C105.025854,372.780357 108.400246,376.149923 112.562732,376.149923 C116.724528,376.149923 120.09892,372.780357 120.09892,368.622698 C120.09892,364.465728 116.724528,361.095472 112.562732,361.095472" id="Fill-384" fill="#000000"></path>
            <path d="M112.562732,189.857135 C108.400246,189.857135 105.025854,193.227391 105.025854,197.38436 C105.025854,201.54133 108.400246,204.911586 112.562732,204.911586 C116.724528,204.911586 120.09892,201.54133 120.09892,197.38436 C120.09892,193.227391 116.724528,189.857135 112.562732,189.857135" id="Fill-386" fill="#000000"></path>
            <path d="M112.562732,151.80421 C108.400246,151.80421 105.025854,155.174465 105.025854,159.331435 C105.025854,163.488405 108.400246,166.85866 112.562732,166.85866 C116.724528,166.85866 120.09892,163.488405 120.09892,159.331435 C120.09892,155.174465 116.724528,151.80421 112.562732,151.80421" id="Fill-388" fill="#000000"></path>
            <path d="M112.562732,246.936765 C108.400246,246.936765 105.025854,250.30702 105.025854,254.46399 C105.025854,258.62096 108.400246,261.991215 112.562732,261.991215 C116.724528,261.991215 120.09892,258.62096 120.09892,254.46399 C120.09892,250.30702 116.724528,246.936765 112.562732,246.936765" id="Fill-390" fill="#000000"></path>
            <path d="M112.562732,170.830707 C108.400246,170.830707 105.025854,174.200962 105.025854,178.357932 C105.025854,182.514902 108.400246,185.885157 112.562732,185.885157 C116.724528,185.885157 120.09892,182.514902 120.09892,178.357932 C120.09892,174.200962 116.724528,170.830707 112.562732,170.830707" id="Fill-392" fill="#000000"></path>
            <path d="M112.562732,208.883564 C108.400246,208.883564 105.025854,212.253819 105.025854,216.410789 C105.025854,220.568448 108.400246,223.938014 112.562732,223.938014 C116.724528,223.938014 120.09892,220.568448 120.09892,216.410789 C120.09892,212.253819 116.724528,208.883564 112.562732,208.883564" id="Fill-394" fill="#000000"></path>
            <path d="M112.562732,227.909992 C108.400246,227.909992 105.025854,231.280247 105.025854,235.437217 C105.025854,239.594876 108.400246,242.964442 112.562732,242.964442 C116.724528,242.964442 120.09892,239.594876 120.09892,235.437217 C120.09892,231.280247 116.724528,227.909992 112.562732,227.909992" id="Fill-396" fill="#000000"></path>
            <path d="M112.562732,37.6452266 C108.400246,37.6452266 105.025854,41.0154819 105.025854,45.1724517 C105.025854,49.3294216 108.400246,52.6996768 112.562732,52.6996768 C116.724528,52.6996768 120.09892,49.3294216 120.09892,45.1724517 C120.09892,41.0154819 116.724528,37.6452266 112.562732,37.6452266" id="Fill-398" fill="#000000"></path>
            <path d="M74.5098062,265.963262 C70.3473204,265.963262 66.9729282,269.333517 66.9729282,273.490487 C66.9729282,277.647457 70.3473204,281.017712 74.5098062,281.017712 C78.6716025,281.017712 82.0459947,277.647457 82.0459947,273.490487 C82.0459947,269.333517 78.6716025,265.963262 74.5098062,265.963262" id="Fill-400" fill="#000000"></path>
            <path d="M74.5098062,246.936765 C70.3473204,246.936765 66.9729282,250.30702 66.9729282,254.46399 C66.9729282,258.62096 70.3473204,261.991215 74.5098062,261.991215 C78.6716025,261.991215 82.0459947,258.62096 82.0459947,254.46399 C82.0459947,250.30702 78.6716025,246.936765 74.5098062,246.936765" id="Fill-402" fill="#000000"></path>
            <path d="M74.5098062,342.069044 C70.3473204,342.069044 66.9729282,345.439299 66.9729282,349.596269 C66.9729282,353.753929 70.3473204,357.123494 74.5098062,357.123494 C78.6716025,357.123494 82.0459947,353.753929 82.0459947,349.596269 C82.0459947,345.439299 78.6716025,342.069044 74.5098062,342.069044" id="Fill-404" fill="#000000"></path>
            <path d="M74.5098062,284.98969 C70.3473204,284.98969 66.9729282,288.359946 66.9729282,292.516916 C66.9729282,296.673885 70.3473204,300.044141 74.5098062,300.044141 C78.6716025,300.044141 82.0459947,296.673885 82.0459947,292.516916 C82.0459947,288.359946 78.6716025,284.98969 74.5098062,284.98969" id="Fill-406" fill="#000000"></path>
            <path d="M74.5098062,208.883564 C70.3473204,208.883564 66.9729282,212.253819 66.9729282,216.410789 C66.9729282,220.568448 70.3473204,223.938014 74.5098062,223.938014 C78.6716025,223.938014 82.0459947,220.568448 82.0459947,216.410789 C82.0459947,212.253819 78.6716025,208.883564 74.5098062,208.883564" id="Fill-408" fill="#000000"></path>
            <path d="M74.5098062,304.016119 C70.3473204,304.016119 66.9729282,307.386374 66.9729282,311.543344 C66.9729282,315.700314 70.3473204,319.070569 74.5098062,319.070569 C78.6716025,319.070569 82.0459947,315.700314 82.0459947,311.543344 C82.0459947,307.386374 78.6716025,304.016119 74.5098062,304.016119" id="Fill-410" fill="#000000"></path>
            <path d="M74.5098062,227.909992 C70.3473204,227.909992 66.9729282,231.280247 66.9729282,235.437217 C66.9729282,239.594876 70.3473204,242.964442 74.5098062,242.964442 C78.6716025,242.964442 82.0459947,239.594876 82.0459947,235.437217 C82.0459947,231.280247 78.6716025,227.909992 74.5098062,227.909992" id="Fill-412" fill="#000000"></path>
            <path d="M74.5098062,113.751353 C70.3473204,113.751353 66.9729282,117.121609 66.9729282,121.278578 C66.9729282,125.435548 70.3473204,128.805804 74.5098062,128.805804 C78.6716025,128.805804 82.0459947,125.435548 82.0459947,121.278578 C82.0459947,117.121609 78.6716025,113.751353 74.5098062,113.751353" id="Fill-414" fill="#000000"></path>
            <path d="M74.5098062,132.777782 C70.3473204,132.777782 66.9729282,136.148037 66.9729282,140.305007 C66.9729282,144.461977 70.3473204,147.832232 74.5098062,147.832232 C78.6716025,147.832232 82.0459947,144.461977 82.0459947,140.305007 C82.0459947,136.148037 78.6716025,132.777782 74.5098062,132.777782" id="Fill-416" fill="#000000"></path>
            <path d="M74.5098062,189.857135 C70.3473204,189.857135 66.9729282,193.227391 66.9729282,197.38436 C66.9729282,201.54133 70.3473204,204.911586 74.5098062,204.911586 C78.6716025,204.911586 82.0459947,201.54133 82.0459947,197.38436 C82.0459947,193.227391 78.6716025,189.857135 74.5098062,189.857135" id="Fill-418" fill="#000000"></path>
            <path d="M74.5098062,94.7245804 C70.3473204,94.7245804 66.9729282,98.0948356 66.9729282,102.251805 C66.9729282,106.409465 70.3473204,109.779031 74.5098062,109.779031 C78.6716025,109.779031 82.0459947,106.409465 82.0459947,102.251805 C82.0459947,98.0948356 78.6716025,94.7245804 74.5098062,94.7245804" id="Fill-420" fill="#000000"></path>
            <path d="M74.5098062,151.80421 C70.3473204,151.80421 66.9729282,155.174465 66.9729282,159.331435 C66.9729282,163.488405 70.3473204,166.85866 74.5098062,166.85866 C78.6716025,166.85866 82.0459947,163.488405 82.0459947,159.331435 C82.0459947,155.174465 78.6716025,151.80421 74.5098062,151.80421" id="Fill-422" fill="#000000"></path>
            <path d="M74.5098062,170.830707 C70.3473204,170.830707 66.9729282,174.200962 66.9729282,178.357932 C66.9729282,182.514902 70.3473204,185.885157 74.5098062,185.885157 C78.6716025,185.885157 82.0459947,182.514902 82.0459947,178.357932 C82.0459947,174.200962 78.6716025,170.830707 74.5098062,170.830707" id="Fill-424" fill="#000000"></path>
            <path d="M93.5362345,37.6452266 C89.3737487,37.6452266 85.9993565,41.0154819 85.9993565,45.1724517 C85.9993565,49.3294216 89.3737487,52.6996768 93.5362345,52.6996768 C97.6980308,52.6996768 101.072423,49.3294216 101.072423,45.1724517 C101.072423,41.0154819 97.6980308,37.6452266 93.5362345,37.6452266" id="Fill-426" fill="#000000"></path>
            <path d="M93.5362345,151.80421 C89.3737487,151.80421 85.9993565,155.174465 85.9993565,159.331435 C85.9993565,163.488405 89.3737487,166.85866 93.5362345,166.85866 C97.6980308,166.85866 101.072423,163.488405 101.072423,159.331435 C101.072423,155.174465 97.6980308,151.80421 93.5362345,151.80421" id="Fill-428" fill="#000000"></path>
            <path d="M93.5362345,132.777782 C89.3737487,132.777782 85.9993565,136.148037 85.9993565,140.305007 C85.9993565,144.461977 89.3737487,147.832232 93.5362345,147.832232 C97.6980308,147.832232 101.072423,144.461977 101.072423,140.305007 C101.072423,136.148037 97.6980308,132.777782 93.5362345,132.777782" id="Fill-430" fill="#000000"></path>
            <path d="M93.5362345,113.751353 C89.3737487,113.751353 85.9993565,117.121609 85.9993565,121.278578 C85.9993565,125.435548 89.3737487,128.805804 93.5362345,128.805804 C97.6980308,128.805804 101.072423,125.435548 101.072423,121.278578 C101.072423,117.121609 97.6980308,113.751353 93.5362345,113.751353" id="Fill-432" fill="#000000"></path>
            <path d="M93.5362345,94.7245804 C89.3737487,94.7245804 85.9993565,98.0948356 85.9993565,102.251805 C85.9993565,106.409465 89.3737487,109.779031 93.5362345,109.779031 C97.6980308,109.779031 101.072423,106.409465 101.072423,102.251805 C101.072423,98.0948356 97.6980308,94.7245804 93.5362345,94.7245804" id="Fill-434" fill="#000000"></path>
            <path d="M74.5098062,323.042547 C70.3473204,323.042547 66.9729282,326.412802 66.9729282,330.569772 C66.9729282,334.726742 70.3473204,338.096997 74.5098062,338.096997 C78.6716025,338.096997 82.0459947,334.726742 82.0459947,330.569772 C82.0459947,326.412802 78.6716025,323.042547 74.5098062,323.042547" id="Fill-436" fill="#000000"></path>
            <path d="M93.5362345,189.857135 C89.3737487,189.857135 85.9993565,193.227391 85.9993565,197.38436 C85.9993565,201.54133 89.3737487,204.911586 93.5362345,204.911586 C97.6980308,204.911586 101.072423,201.54133 101.072423,197.38436 C101.072423,193.227391 97.6980308,189.857135 93.5362345,189.857135" id="Fill-438" fill="#000000"></path>
            <path d="M93.5362345,170.830707 C89.3737487,170.830707 85.9993565,174.200962 85.9993565,178.357932 C85.9993565,182.514902 89.3737487,185.885157 93.5362345,185.885157 C97.6980308,185.885157 101.072423,182.514902 101.072423,178.357932 C101.072423,174.200962 97.6980308,170.830707 93.5362345,170.830707" id="Fill-440" fill="#000000"></path>
            <path d="M99.906003,30.1560618 C98.0326431,31.2847663 96.179968,32.4424296 94.3465988,33.6283623 C96.6901949,33.3780754 98.7076594,32.0521751 99.906003,30.1560618" id="Fill-442" fill="#000000"></path>
            <path d="M82.0457879,45.1724517 C82.0457879,44.2643858 81.8761719,43.3970002 81.5810677,42.5909796 C77.802631,45.4606609 74.1241712,48.4544515 70.5560308,51.5723512 C71.7067992,52.2832213 73.0575213,52.6996768 74.5095994,52.6996768 C78.6713957,52.6996768 82.0457879,49.3294216 82.0457879,45.1724517" id="Fill-444" fill="#000000"></path>
            <path d="M93.5362345,75.6980832 C89.3737487,75.6980832 85.9993565,79.0683384 85.9993565,83.2253082 C85.9993565,87.3829676 89.3737487,90.7525333 93.5362345,90.7525333 C97.6980308,90.7525333 101.072423,87.3829676 101.072423,83.2253082 C101.072423,79.0683384 97.6980308,75.6980832 93.5362345,75.6980832" id="Fill-446" fill="#000000"></path>
            <path d="M93.5362345,208.883564 C89.3737487,208.883564 85.9993565,212.253819 85.9993565,216.410789 C85.9993565,220.568448 89.3737487,223.938014 93.5362345,223.938014 C97.6980308,223.938014 101.072423,220.568448 101.072423,216.410789 C101.072423,212.253819 97.6980308,208.883564 93.5362345,208.883564" id="Fill-448" fill="#000000"></path>
            <path d="M93.5362345,56.6716549 C89.3737487,56.6716549 85.9993565,60.0419101 85.9993565,64.19888 C85.9993565,68.3558498 89.3737487,71.726105 93.5362345,71.726105 C97.6980308,71.726105 101.072423,68.3558498 101.072423,64.19888 C101.072423,60.0419101 97.6980308,56.6716549 93.5362345,56.6716549" id="Fill-450" fill="#000000"></path>
        </g>
    </g>
</svg>