<?xml version="1.0" encoding="UTF-8"?>
<svg width="205px" height="367px" viewBox="0 0 205 367" version="1.1" xmlns="http://www.w3.org/2000/svg" xmlns:xlink="http://www.w3.org/1999/xlink">
    <!-- Generator: Sketch 52.5 (67469) - http://www.bohemiancoding.com/sketch -->
    <title>Slice</title>
    <desc>Created with Sketch.</desc>
    <g id="Page-1" stroke="none" stroke-width="1" fill="none" fill-rule="evenodd">
        <path d="M284.339318,230.1058 C275.077574,219.341017 264.299798,208.610877 252.078157,198.559428 C217.636155,170.233275 178.213099,152.397018 134.276055,149.994254 C78.0149812,146.917532 17.7161314,169.472266 -46.4036086,223.175347 C-49.4944205,225.764037 -54.0985663,225.356986 -56.6872561,222.266174 C-59.2759459,219.175363 -58.8688956,214.571217 -55.7780837,211.982527 C11.0486819,156.012195 74.9076805,132.125789 135.073287,135.416037 C182.426908,138.005642 224.678326,157.12154 261.352097,187.283168 C272.650898,196.575646 282.769934,206.406189 291.679278,216.340372 C291.68773,215.532506 291.704051,214.718337 291.728022,213.898076 C291.873442,208.921937 292.302348,204.063545 292.914421,199.500662 C293.129537,197.897015 293.353165,196.439507 293.573184,195.151214 C293.651683,194.691575 293.724703,194.283237 293.790738,193.929111 C293.814779,193.800188 293.828724,193.726855 293.855727,193.58674 C293.867028,193.528608 293.867028,193.528608 293.875302,193.48656 C293.878853,193.468586 293.878853,193.468586 293.881613,193.454702 L293.883868,193.443392 L293.885271,193.436388 C294.787666,188.940871 299.162366,186.028851 303.656678,186.931005 C308.15099,187.833158 311.063009,192.207858 310.161078,196.70106 C310.158485,196.714311 310.158485,196.714311 310.152599,196.744583 C310.136464,196.828268 310.126294,196.88175 310.10944,196.972131 C310.058634,197.244586 310.000415,197.570155 309.936269,197.945757 C309.748731,199.043862 309.555059,200.306123 309.367057,201.707647 C308.827362,205.730964 308.448301,210.024739 308.320938,214.382978 C307.973907,226.258102 309.575681,236.238994 313.370733,242.486441 C317.834321,249.834438 309.554788,258.283438 302.122501,253.981014 C302.120612,253.979939 302.117289,253.97805 302.110789,253.974355 C302.0668,253.949492 302.032908,253.930523 301.977045,253.899672 C301.796398,253.799906 301.572583,253.679676 301.306826,253.541024 C300.507843,253.124175 299.555135,252.657713 298.458597,252.157883 C295.263924,250.701672 291.60628,249.302173 287.566319,248.086813 C276.055934,244.624091 263.906453,243.352649 251.712606,245.202083 C247.180474,245.889468 242.949219,242.772685 242.261833,238.240553 C241.574447,233.708421 244.69123,229.477166 249.223362,228.78978 C261.205715,226.972424 273.014427,227.617183 284.339321,230.105803 Z" id="Combined-Shape" fill="#FFE106" fill-rule="nonzero" transform="translate(128.119010, 195.132962) rotate(113.000000) translate(-128.119010, -195.132962) "></path>
    </g>
</svg>