<?xml version="1.0" encoding="UTF-8"?>
<svg width="146px" height="152px" viewBox="0 0 146 152" version="1.1" xmlns="http://www.w3.org/2000/svg" xmlns:xlink="http://www.w3.org/1999/xlink">
    <!-- Generator: Sketch 52.5 (67469) - http://www.bohemiancoding.com/sketch -->
    <title>icon-breifcase</title>
    <desc>Created with Sketch.</desc>
    <g id="Page-1" stroke="none" stroke-width="1" fill="none" fill-rule="evenodd">
        <g id="row-4">
            <g id="icon-breifcase" transform="translate(24.000000, 27.000000)">
                <path d="M2.84217094e-14,48.080722 C2.84217094e-14,21.8340939 22,0 50.26,0 C76.64,0 98,21.8639083 98,48.080722 C98,76.155968 76.64,98 50.26,98 C21.98,98 0,76.1360917 0,48.080722" id="Path" fill="#0073E3"></path>
                <path d="M102.58,37.76 C102.103499,37.8620252 101.69369,38.1636274 101.454603,38.5882452 C101.215517,39.012863 101.170143,39.5196649 101.33,39.98 L107.66,62.59 C107.819857,63.0503351 107.774483,63.557137 107.535397,63.9817548 C107.29631,64.4063726 106.886501,64.7079748 106.41,64.81 L43.81,82.33 C43.3484303,82.4932918 42.838868,82.4496526 42.4117847,82.2102561 C41.9847014,81.9708597 41.6815677,81.5589518 41.58,81.08 L35.26,58.48 C34.9838576,57.5190245 33.9809755,56.9638576 33.02,57.24 C32.0590245,57.5161424 31.5038576,58.5190245 31.78,59.48 L38.11,82.09 C38.4728386,83.4872252 39.3889026,84.6765052 40.6472327,85.3839621 C41.9055628,86.0914191 43.3976921,86.2560709 44.78,85.84 L107.38,68.32 C108.777501,67.9568676 109.967371,67.0412868 110.676428,65.7834659 C111.385484,64.525645 111.552814,63.0336398 111.14,61.65 L104.81,39.04 C104.712705,38.5572874 104.41204,38.1399476 103.984972,37.8948142 C103.557904,37.6496808 103.04589,37.6005505 102.58,37.76 Z" id="Path" fill="#000000"></path>
                <path d="M47.88,23.08 C48.3572089,22.9754838 48.7669309,22.6718554 49.005798,22.2457164 C49.2446651,21.8195774 49.2898671,21.3116215 49.13,20.85 L48.65,19.11 C48.486686,18.6497165 48.5304837,18.1412872 48.7701081,17.715714 C49.0097326,17.2901409 49.4217501,16.9890425 49.9,16.89 L67.29,12.02 C67.7503351,11.860143 68.257137,11.9055169 68.6817548,12.1446035 C69.1063726,12.3836901 69.4079748,12.7934987 69.51,13.27 L70,15.01 C70.2761424,15.9709755 71.2790245,16.5261424 72.24,16.25 C73.2009755,15.9738576 73.7561424,14.9709755 73.48,14.01 L72.99,12.27 C72.6245734,10.8717585 71.7070183,9.68184633 70.447615,8.9729606 C69.1882116,8.26407488 67.6949329,8.0969909 66.31,8.51 L48.92,13.38 C47.5220359,13.7451366 46.3327166,14.6631753 45.6254312,15.9230864 C44.9181458,17.1829974 44.7537379,18.676398 45.17,20.06 L45.65,21.8 C45.7502599,22.2810002 46.0514415,22.6961599 46.4775713,22.9407546 C46.9037012,23.1853493 47.4140931,23.2360255 47.88,23.08 Z" id="Path" fill="#000000"></path>
                <path d="M103.85,28.79 L101.14,19.1 C100.110333,15.4236799 96.297847,13.2758004 92.62,14.3 L29.43,31.99 C25.7536799,33.0196669 23.6058004,36.832153 24.63,40.51 L27.35,50.2 C28.0378823,52.5948861 30.2699891,54.2122352 32.76,54.12 L40.43,53.71 C41.3215696,53.5521402 41.9380941,52.7301076 41.84,51.83 C41.5480863,50.852507 40.6399503,50.1898132 39.62,50.21 L32.7,50.58 C31.8239604,50.6632735 31.0210484,50.0867143 30.82,49.23 L28.11,39.54 C27.6230781,37.7842924 28.6466051,35.9651854 30.4,35.47 L93.58,17.78 C95.3357076,17.2930781 97.1548146,18.3166051 97.65,20.07 L100.37,29.76 C100.637811,30.5974713 100.25027,31.5045725 99.46,31.89 L79.7,42.51 L79.52,42.62 L75.58,44.68 L75.58,44.73 C70.5424815,47.4117393 64.9788667,48.9579464 59.28,49.26 C58.7576618,49.3320898 58.2967165,49.6384616 58.0280099,50.0921475 C57.7593032,50.5458334 57.7121738,51.0972978 57.9,51.59 C58.0751565,52.3109117 58.7510108,52.7954865 59.49,52.73 C63.1256239,52.4697638 66.726534,51.8500723 70.24,50.88 C73.9106712,49.6163499 77.4370421,47.9671346 80.76,45.96 L101.24,34.96 C103.42623,33.7490409 104.503566,31.2022341 103.85,28.79 Z" id="Path" fill="#000000"></path>
            </g>
        </g>
    </g>
</svg>