<?xml version="1.0" encoding="UTF-8"?>
<svg width="146px" height="152px" viewBox="0 0 146 152" version="1.1" xmlns="http://www.w3.org/2000/svg" xmlns:xlink="http://www.w3.org/1999/xlink">
    <!-- Generator: Sketch 52.5 (67469) - http://www.bohemiancoding.com/sketch -->
    <title>icon-flag</title>
    <desc>Created with Sketch.</desc>
    <g id="Page-1" stroke="none" stroke-width="1" fill="none" fill-rule="evenodd">
        <g id="row-4" transform="translate(-146.000000, 0.000000)">
            <g id="icon-flag" transform="translate(170.000000, 27.000000)">
                <path d="M0,48.0857838 C0,21.8418171 22,0 50.26,0 C76.63,0 98,21.8616913 98,48.0857838 C98,76.1581829 76.63,98 50.26,98 C21.97,98 0,76.1383087 0,48.0857838" id="Path" fill="#0073E3"></path>
                <path d="M73.95,110.68 C73.0842351,110.663558 72.30549,110.149586 71.95,109.36 C70.58,106.36 41.4,43 33.26,24.93 C29.55,26.19 26.52,26.61 24.12,25.66 C22.3728745,24.9507085 21.0169101,23.5218428 20.4,21.74 C18.8,17.65 20.87,12.14 24.58,10.63 C26.45,9.86 31.29,9.13 35.58,19.03 L35.64,19.17 C38.1,18.17 40.79,16.85 43.54,15.55 C58.44,8.5 78.83,-1.15 100.24,3.48 C100.881589,3.61655075 101.430517,4.02865338 101.740703,4.60663939 C102.050889,5.18462539 102.090868,5.86986403 101.85,6.48 C101.56,7.25 94.71,25.81 114.43,47.65 C115.114322,48.393533 115.216085,49.5031867 114.678414,50.3587846 C114.140743,51.2143825 113.096785,51.6040479 112.13,51.31 C111.85,51.24 83.78,43.39 63.98,60.36 C63.3764975,60.9251485 62.5116544,61.1137726 61.7276342,60.8512457 C60.943614,60.5887189 60.3667403,59.9173403 60.2252453,59.1027317 C60.0837503,58.288123 60.4004322,57.4615366 61.05,56.95 C76.88,43.37 96.86,44.13 106.95,45.66 C93.86,28.29 95.51,13.25 96.9,7.4 C77.83,4.29 59.21,13.09 45.46,19.6 C42.56,20.97 39.9,22.23 37.46,23.27 C45.82,41.79 75.71,106.74 76.05,107.46 C76.3011441,108.004951 76.3252655,108.627406 76.1170473,109.190158 C75.9088291,109.752909 75.4853654,110.209758 74.94,110.46 C74.6313949,110.608737 74.2925543,110.684035 73.95,110.68 Z M26.58,14.73 C26.4639151,14.7286033 26.348595,14.748954 26.24,14.79 C24.93,15.33 23.81,18.22 24.55,20.11 C24.7187024,20.7233277 25.1563139,21.2271326 25.74,21.48 C26.93,21.95 28.91,21.62 31.38,20.8 C29.58,16.53 27.69,14.73 26.58,14.73 Z" id="Shape" fill="#000000" fill-rule="nonzero"></path>
            </g>
        </g>
    </g>
</svg>