<?xml version="1.0" encoding="UTF-8"?>
<svg width="126px" height="42px" viewBox="0 0 126 42" version="1.1" xmlns="http://www.w3.org/2000/svg" xmlns:xlink="http://www.w3.org/1999/xlink">
    <!-- Generator: Sketch 52.5 (67469) - http://www.bohemiancoding.com/sketch -->
    <title>logo-google</title>
    <desc>Created with Sketch.</desc>
    <g id="Page-1" stroke="none" stroke-width="1" fill="none" fill-rule="evenodd">
        <g id="logo-google" fill="#AFAFAF">
            <path d="M31.4163433,17.8832111 C31.4187663,17.8098778 31.4199779,17.6066833 31.4199779,17.8832111 L31.4163433,17.8832111 Z M24.127425,8.26462778 C23.0745981,7.26698889 21.8297423,6.46337778 20.4501029,5.91276667 C19.129526,5.38507222 17.6871894,5.0951 16.1751894,5.0951 C12.9682471,5.0951 10.0826654,6.39890556 8.00093942,8.50723889 C5.91073269,10.6244333 4.62286731,13.5583778 4.62286731,16.8067389 C4.62286731,20.0563222 5.91133846,22.9936278 8.00245385,25.1129611 C10.0844827,27.2237389 12.9694587,28.5293778 16.1751894,28.5293778 C16.7815644,28.5293778 15.8471654,28.5428222 16.3526798,28.5373222 C19.5023769,28.5034056 22.1332327,27.5286833 23.9447856,25.7399611 C25.3589538,24.3441833 26.3100115,22.4155167 26.6583288,20.0117111 L16.302401,20.0117111 L16.302401,15.3483222 L29.1074538,15.3483222 L31.3848433,15.3483222 L31.4096798,17.6619889 C31.4108913,17.7842111 31.4121029,17.8514333 31.4133144,17.8832111 L31.4105885,17.8832111 C31.4108913,22.6229889 29.8549731,26.4115722 27.1768673,29.0552389 C24.5008817,31.6973778 20.7623769,33.1356278 16.389026,33.1823778 C16.2715067,33.1836 16.2063865,33.1848222 16.1751894,33.1860444 L16.1751894,33.1891 C16.2500019,33.1915444 16.4614154,33.1927667 16.1751894,33.1927667 C11.6994635,33.1927667 7.65989135,31.3582111 4.73402596,28.3921833 C1.80513173,25.4231 -6.05769231e-05,21.3256 -6.05769231e-05,16.8067389 C-6.05769231e-05,12.2881833 1.80452596,8.19404444 4.73251154,5.22832222 C7.65898269,2.26412778 11.6991606,0.431711111 16.1751894,0.431711111 C18.2817519,0.431711111 20.2968433,0.8381 22.1474683,1.57693333 C24.0613962,2.34143333 25.802074,3.46862778 27.2874202,4.87632222 L24.127425,8.26462778 Z" id="Fill-1"></path>
            <path d="M47.7483368,17.6655459 C46.662804,16.5324071 45.1608774,15.831743 43.4998485,15.831743 C41.8391226,15.831743 40.337196,16.5324071 39.2516632,17.6655459 C38.1646151,18.8005236 37.4921423,20.3765581 37.4921423,22.1248467 C37.4921423,23.8734419 38.1646151,25.4494764 39.2516632,26.5844541 C40.337196,27.7172864 41.8391226,28.418257 43.4998485,28.418257 C45.1608774,28.418257 46.662804,27.7172864 47.7483368,26.5844541 C48.8353849,25.4494764 49.5078577,23.8734419 49.5078577,22.1248467 C49.5078577,20.3765581 48.8353849,18.8005236 47.7483368,17.6655459 M43.4998485,11.625 C46.3973303,11.625 49.0226712,12.8035011 50.9243235,14.7090254 C52.8244606,16.6130172 54,19.2354503 54,22.1248467 C54,25.0145497 52.8244606,27.6366763 50.9243235,29.5406681 C49.0226712,31.4464989 46.3973303,32.625 43.4998485,32.625 C40.6026697,32.625 37.9773288,31.4464989 36.0756765,29.5406681 C34.1755394,27.6366763 33,25.0145497 33,22.1248467 C33,19.2354503 34.1755394,16.6130172 36.0756765,14.7090254 C37.9773288,12.8035011 40.6026697,11.625 43.4998485,11.625" id="Fill-4"></path>
            <path d="M70.248124,17.6655459 C69.1629098,16.5324071 67.661005,15.831743 66,15.831743 C64.3392981,15.831743 62.8373932,16.5324071 61.751876,17.6655459 C60.6648436,18.8005236 59.9923805,20.3765581 59.9923805,22.1248467 C59.9923805,23.8734419 60.6648436,25.4494764 61.751876,26.5844541 C62.8373932,27.7172864 64.3392981,28.418257 66,28.418257 C67.661005,28.418257 69.1629098,27.7172864 70.248124,26.5844541 C71.3354595,25.4494764 72.0079225,23.8734419 72.0079225,22.1248467 C72.0079225,20.3765581 71.3354595,18.8005236 70.248124,17.6655459 M66,11.625 C68.89744,11.625 71.52244,12.8035011 73.4243679,14.7090254 C75.3244776,16.6130172 76.5,19.2354503 76.5,22.1248467 C76.5,25.0145497 75.3244776,27.6366763 73.4243679,29.5406681 C71.52244,31.4464989 68.89744,32.625 66,32.625 C63.10256,32.625 60.47756,31.4464989 58.5756321,29.5406681 C56.6755224,27.6366763 55.5,25.0145497 55.5,22.1248467 C55.5,19.2354503 56.6755224,16.6130172 58.5756321,14.7090254 C60.47756,12.8035011 63.10256,11.625 66,11.625" id="Fill-6"></path>
            <path d="M92.0700192,17.571892 C91.055503,16.4563217 89.6517718,15.7665208 88.0993718,15.7665208 C86.5475664,15.7665208 85.1435379,16.4563217 84.129319,17.571892 C83.1133162,18.6892728 82.4850416,20.2408721 82.4850416,21.9620549 C82.4850416,25.4403289 84.7953554,28.2719523 88.0993718,28.2719523 C89.6517718,28.2719523 91.055503,27.4677882 92.0700192,26.3525196 C93.0860221,25.2351388 93.7142966,23.6835395 93.7142966,21.9620549 C93.7142966,20.2408721 93.0860221,18.6892728 92.0700192,17.571892 M87.320347,11.625 C90.0942103,11.625 91.7762496,12.5193874 93.2879144,14.0073174 L93.2879144,12.2076795 L97.5,12.2076795 L97.5,31.9032136 C97.5,34.6500453 96.2282867,37.6292245 94.5061069,39.1832378 C92.8469626,40.6802203 90.618714,41.625 88.412171,41.625 C86.3977082,41.625 84.3749199,41.2309143 82.6069501,40.1265088 C81.0340337,39.1440103 79.6918514,37.6762975 78.771294,35.6090072 L82.6343051,33.8425619 C83.7276158,36.2982046 85.360297,37.563443 88.412171,37.563443 C90.5750053,37.563443 93.2879144,35.5281382 93.2879144,32.1750905 L93.2879144,29.9119644 C91.7533546,31.4029119 90.0124424,32.2994116 87.7520814,32.2994116 C85.1798131,32.2994116 82.4181406,31.1391823 80.7298573,29.2628998 C79.0430606,27.3884279 78,24.8069553 78,21.9620549 C78,16.2164303 82.6756351,11.625 87.320347,11.625" id="Fill-8"></path>
            <polygon id="Fill-10" points="100.5 31.875 105 31.875 105 1.125 100.5 1.125"></polygon>
            <path d="M111.857943,25.2545648 C113.618058,29.4422524 119.820034,29.4883481 122.170726,25.5763189 L125.711742,27.9461264 C123.543236,31.1200138 120.384628,32.6057607 116.943569,32.6249926 C113.879722,32.6283506 111.414399,31.4814529 109.57175,29.6238878 C105.069059,25.0848349 106.032567,18.1201103 109.152354,14.8186202 C111.697766,12.1249217 115.623635,10.7557878 119.673612,12.2244396 C122.304309,13.1784069 124.439495,15.4896027 126,19.506034 C121.283026,21.415495 116.581642,23.3545672 111.857943,25.2545648 M111.146316,21.7143539 L120.668912,17.8847475 C118.987968,15.7261865 116.546183,14.6812489 113.327966,16.874 C112.090567,17.9180219 111.006619,19.7004907 111.146316,21.7143539" id="Fill-12"></path>
        </g>
    </g>
</svg>