<?xml version="1.0" encoding="UTF-8"?>
<svg width="137px" height="28px" viewBox="0 0 137 28" version="1.1" xmlns="http://www.w3.org/2000/svg" xmlns:xlink="http://www.w3.org/1999/xlink">
    <!-- Generator: Sketch 52.5 (67469) - http://www.bohemiancoding.com/sketch -->
    <title>logo-amazon</title>
    <desc>Created with Sketch.</desc>
    <defs>
        <polygon id="path-1" points="0.023082707 0.320690681 42.9784047 0.320690681 42.9784047 11 0.023082707 11"></polygon>
        <polygon id="path-3" points="0.0383586207 0.104544 17.7138621 0.104544 17.7138621 15.978144 0.0383586207 15.978144"></polygon>
        <polygon id="path-5" points="0.171902326 0.0508235294 12.9128277 0.0508235294 12.9128277 15.8571608 0.171902326 15.8571608"></polygon>
        <polygon id="path-7" points="9.06976744e-05 0.0508235294 12.740756 0.0508235294 12.740756 15.8571608 9.06976744e-05 15.8571608"></polygon>
    </defs>
    <g id="Page-1" stroke="none" stroke-width="1" fill="none" fill-rule="evenodd">
        <g id="logo-amazon">
            <g id="Group-3" transform="translate(12.000000, 17.000000)">
                <mask id="mask-2" fill="white">
                    <use xlink:href="#path-1"></use>
                </mask>
                <g id="Clip-2"></g>
                <path d="M42.5983551,4.56881563 C37.4417826,8.76703438 29.9653913,11.0000344 23.5278551,11.0000344 C14.5050217,11.0000344 6.38051449,7.32087813 0.231514493,1.19559688 C-0.251144928,0.715034375 0.179478261,0.057784375 0.759978261,0.430409375 C7.39350725,4.68912813 15.5965362,7.25384688 24.0694058,7.25384688 C29.7849783,7.25384688 36.0679638,5.94519063 41.848971,3.24022188 C42.7211232,2.83184688 43.4518116,3.87409688 42.5983551,4.56881563" id="Fill-1" fill="#AFAFAF" mask="url(#mask-2)"></path>
            </g>
            <path d="M56.5734442,19.4098228 C55.9011012,18.5356797 52.1293744,18.9954835 50.4350192,19.2015246 C49.9221075,19.2637561 49.8423918,18.8091114 50.3051239,18.4789297 C53.3133587,16.3333936 58.2433448,16.9531291 58.8162814,17.6708874 C59.3936643,18.3957394 58.6651074,23.4139207 55.8452049,25.8090277 C55.4116914,26.1772577 54.9991389,25.9808898 55.1912823,25.4940008 C55.8258318,23.8856548 57.2461048,20.2839659 56.5734442,19.4098228" id="Fill-4" fill="#AFAFAF"></path>
            <path d="M52.4748226,3.5691081 L52.4748226,1.52009701 C52.4759716,1.20822897 52.6888231,1.00031694 52.9456238,1.00063388 L61.2692385,1 C61.5355183,1 61.7489444,1.21361693 61.7495189,1.5175615 L61.7489444,3.27498864 C61.7469336,3.56942504 61.5220176,3.95450601 61.122167,4.56493065 L56.8108465,11.3572519 C58.411398,11.3157328 60.1044437,11.58006 61.5584983,12.4820686 C61.8865366,12.6852266 61.9741476,12.9866356 62,13.2820228 L62,15.4682685 C62,15.7696776 61.701261,16.1183106 61.3872978,15.9367045 C58.8250366,14.4562821 55.4251573,14.2940093 52.5923075,15.95477 C52.3027605,16.1249663 52,15.7814043 52,15.4799953 L52,13.4015089 C52,13.0690398 52.0054577,12.5001341 52.3096544,11.9930316 L57.3049148,4.08571878 L52.9556775,4.08476796 C52.6896849,4.08476796 52.4765461,3.87590512 52.4748226,3.5691081" id="Fill-6" fill="#AFAFAF"></path>
            <path d="M18.150349,16 L15.4783268,16 C15.2240073,15.9832725 15.0206123,15.7913625 15,15.546837 L15.0018187,1.78558394 C15.0018187,1.51034063 15.2327978,1.29014599 15.5174296,1.29014599 L18.0060628,1.28953771 C18.2667479,1.30291971 18.4755991,1.50060827 18.4922708,1.75152068 L18.4922708,3.54835766 L18.542286,3.54835766 C19.1909675,1.81082725 20.4131561,1 22.0594128,1 C23.7305254,1 24.7781157,1.81082725 25.5268276,3.54835766 C26.1752059,1.81082725 27.6468642,1 29.2185528,1 C30.3410143,1 31.5632029,1.46319951 32.3116116,2.50577859 C33.1597475,3.66392944 32.9851492,5.34367397 32.9851492,6.82055961 L32.9833304,15.504562 C32.9833304,15.7795012 32.7523513,16 32.4677196,16 L29.7987287,16 C29.5304655,15.9826642 29.3188862,15.7694647 29.3188862,15.5057786 L29.31828,8.21046229 C29.31828,7.63138686 29.3682951,6.18339416 29.2434088,5.63321168 C29.0439544,4.70650852 28.4452881,4.44586375 27.6720233,4.44586375 C27.0233418,4.44586375 26.3498043,4.88017032 26.0754787,5.57542579 C25.80085,6.27037713 25.8260092,7.42852798 25.8260092,8.21046229 L25.8260092,15.504562 C25.8260092,15.7795012 25.5953332,16 25.3107014,16 L22.6414074,16 C22.3734474,15.9826642 22.161565,15.7694647 22.161565,15.5057786 L22.15914,8.21046229 C22.15914,6.67579075 22.4086096,4.4169708 20.5128833,4.4169708 C18.591998,4.4169708 18.6668692,6.61770073 18.6668692,8.21046229 L18.6656567,15.504562 C18.6659598,15.7795012 18.4349807,16 18.150349,16" id="Fill-8" fill="#AFAFAF"></path>
            <path d="M68.9753963,2.93941202 C67.0245037,2.93941202 66.9011852,5.75725027 66.9011852,7.51497792 C66.9011852,9.27238732 66.8765815,13.0300354 68.9507926,13.0300354 C71.0004001,13.0300354 71.0988148,9.99992044 71.0988148,8.15148984 C71.0988148,6.93925289 71.0496074,5.48482317 70.7039556,4.33337312 C70.4072111,3.3334129 69.8146222,2.93941202 68.9753963,2.93941202 M68.9507926,0 C72.8768815,0 75,3.57592394 75,8.12093726 C75,12.514779 72.6548482,16 68.9507926,16 C65.0988148,16 63,12.4240761 63,7.96976568 C63,3.48490273 65.1234185,0 68.9507926,0" id="Fill-10" fill="#AFAFAF"></path>
            <path d="M80.1530559,16 L77.4848518,16 C77.2166036,15.9826642 77.0042531,15.7694647 77.0042531,15.5057786 L77,1.73935523 C77.0224806,1.48783455 77.2445525,1.29014599 77.5143196,1.29014599 L79.9987296,1.28953771 C80.2326493,1.30139903 80.4252534,1.4613747 80.4747715,1.67487835 L80.4747715,3.77980535 L80.5252009,3.77980535 C81.2749593,1.89750608 82.3245602,1 84.1746527,1 C85.3743268,1 86.5500014,1.43430657 87.2997597,2.6216545 C88,3.72201946 88,5.57542579 88,6.90754258 L88,15.5663017 C87.9696208,15.8105231 87.7514982,16 87.4868955,16 L84.8019829,16 C84.553785,15.9838808 84.3538899,15.8017032 84.3247259,15.5663017 L84.3247259,8.09458637 C84.3247259,6.58880779 84.5000138,4.38807786 82.6499213,4.38807786 C81.9995029,4.38807786 81.3998177,4.82238443 81.0999751,5.48844282 C80.725096,6.32816302 80.6746665,7.16788321 80.6746665,8.09458637 L80.6746665,15.504562 C80.6698058,15.7795012 80.4383164,16 80.1530559,16" id="Fill-12" fill="#AFAFAF"></path>
            <path d="M90,14.5003639 C90,13.6717613 90.6716985,13 91.5003457,13 C92.3286472,13 93,13.6717613 93,14.5003639 C93,15.3282387 92.3286472,16 91.5003457,16 C90.6716985,16 90,15.3282387 90,14.5003639" id="Fill-14" fill="#AFAFAF"></path>
            <g id="Group-18" transform="translate(119.000000, 0.000000)">
                <mask id="mask-4" fill="white">
                    <use xlink:href="#path-3"></use>
                </mask>
                <g id="Clip-17"></g>
                <path d="M0.548875862,15.978144 C0.26522069,15.969504 0.0383586207,15.741344 0.0383586207,15.457504 L0.0383586207,0.976864 C0.0579103448,0.721504 0.267082759,0.517984 0.528393103,0.500384 L1.53266897,0.500064 C1.80918621,0.500064 2.03573793,0.708384 2.05808276,0.977184 L2.05808276,3.088544 C2.77218621,1.415264 4.10263448,0.104544 5.78470345,0.104544 L5.89022069,0.106144 L5.9913931,0.104544 C7.77525517,0.104544 9.08087586,1.461984 9.56594483,3.433504 C10.3216345,1.486944 11.7461172,0.104544 13.6246345,0.104544 L13.7220828,0.106144 L13.8319448,0.104544 C15.1592897,0.104544 16.4363586,0.988064 17.1008069,2.328864 C17.7391862,3.608224 17.7137379,5.314464 17.7137379,6.746464 L17.7131172,15.458144 C17.7137379,15.735584 17.4964966,15.959904 17.2221517,15.978144 L16.0201862,15.978144 C15.7613586,15.970144 15.5490828,15.778784 15.5146345,15.528864 L15.5146345,6.746464 C15.5146345,5.710624 15.565531,4.613664 15.1568069,3.669344 C14.7393931,2.702304 13.9439793,2.101664 13.088669,2.057184 C12.1334276,2.106144 11.2570138,2.821024 10.6903241,3.791264 C9.94953103,5.040224 9.9756,6.167584 9.9756,7.630304 L9.9756,15.533664 C9.94177241,15.773664 9.73911724,15.961184 9.48897931,15.978144 L8.29291034,15.978144 C8.00925517,15.969504 7.78208276,15.741344 7.78208276,15.457504 L7.77649655,6.167584 C7.77649655,5.314464 7.7256,4.309024 7.34263448,3.547424 C6.90132414,2.670944 6.1083931,2.102624 5.27791034,2.057504 C4.41670345,2.107104 3.54494483,2.785824 3.02853103,3.578144 C2.36501379,4.583264 2.23684138,5.832544 2.23684138,7.112224 L2.23622069,15.458144 C2.23622069,15.735584 2.01928966,15.959904 1.74525517,15.978144 L0.548875862,15.978144 Z" id="Fill-16" fill="#AFAFAF" mask="url(#mask-4)"></path>
            </g>
            <path d="M111.479694,14.0394794 C112.664921,13.9967562 113.599853,13.1903952 114.153439,11.8419241 C114.65086,10.6364967 114.745909,9.25036592 114.745909,7.92468056 C114.745909,6.47842082 114.603624,4.97171565 113.987536,3.73622374 C113.435679,2.65580126 112.483753,1.97128051 111.475662,1.93045611 C110.353513,1.97571106 109.353198,2.80897187 108.846273,4.09794691 C108.396376,5.21286443 108.254091,6.68918865 108.254091,7.92468056 C108.254091,9.31081135 108.419994,10.90771 108.941321,12.1131374 C109.447671,13.2549547 110.424943,13.998655 111.479694,14.0394794 Z M111.214134,16 C107.611505,16 106,11.962182 106,7.92468056 C106,3.67609478 107.896363,0 111.522322,0 L111.61593,0.000949404644 L111.714147,0 C115.245922,0 117,3.91724356 117,7.95474505 C117,12.2333953 115.056401,16 111.40596,16 L111.312639,15.9987341 L111.214134,16 Z" id="Fill-19" fill="#AFAFAF"></path>
            <path d="M98.175728,13.9793504 C99.7944944,13.923652 100.644383,12.4995451 100.997254,10.6532695 C101.065867,10.4231971 101.227023,10.2459749 101.462847,10.2459749 L102.533856,10.2409114 C102.786113,10.255469 103.018189,10.4675027 102.998873,10.7260572 C102.504739,13.8663713 100.777574,16 98.3164151,16 L98.2175305,15.9987341 L98.1244118,16 C94.5420804,16 93,12.052692 93,8.04525495 C93,4.06756596 94.5660087,0 98.1480519,0 L98.242612,0.000949404644 L98.3400552,0 C100.826008,0 102.600452,2.10293129 102.985612,5.24514419 C102.985612,5.48091301 102.786113,5.68503501 102.552596,5.71478302 L101.43027,5.70022548 C101.197041,5.66383164 101.042804,5.44135448 101.007921,5.19450928 C100.73779,3.44032596 99.8198642,2.04565054 98.2904687,1.9902686 C95.8546794,2.07571502 95.1616225,5.36666799 95.1616225,7.89429962 C95.1616225,10.3342696 95.7399387,13.8910558 98.175728,13.9793504" id="Fill-21" fill="#AFAFAF"></path>
            <g id="Group-25" transform="translate(36.000000, 0.000000)">
                <mask id="mask-6" fill="white">
                    <use xlink:href="#path-5"></use>
                </mask>
                <g id="Clip-24"></g>
                <path d="M10.712786,15.6256314 C10.5362279,15.7897098 10.2819721,15.8010039 10.0830419,15.6899451 C9.19783256,14.9263373 9.03941395,14.5733961 8.5553907,13.8468078 C7.09213488,15.3934745 6.05606512,15.8571608 4.16108837,15.8571608 C1.91722791,15.8571608 0.171902326,14.420298 0.171902326,11.5465725 C0.171902326,9.30123922 1.34371628,7.77465098 3.01406512,7.02610196 C4.46008837,6.36759216 6.47992558,6.24774902 8.02571628,6.06829804 L8.02571628,5.70908235 C8.02571628,5.05057255 8.0756,4.27190588 7.70162326,3.70343529 C7.37753023,3.19425882 6.75413488,2.9846902 6.20571628,2.9846902 C5.18899535,2.9846902 4.28534419,3.52523922 4.06343721,4.64555294 C4.01748372,4.89465098 3.84183256,5.14123922 3.60057674,5.15410196 L1.01720465,4.86390588 C0.798925581,4.81276863 0.556460465,4.63143529 0.619344186,4.2857098 C1.21311163,1.03331765 4.0431814,0.0507294118 6.57969302,0.0507294118 C7.87606512,0.0507294118 9.5718093,0.409945098 10.5936698,1.42798431 C11.8906465,2.68539608 11.7654837,4.3619451 11.7654837,6.18782745 L11.7654837,10.4968471 C11.7654837,11.7931608 12.2845767,12.3616314 12.7719256,13.060298 C12.9418326,13.3119059 12.9802279,13.6112 12.7628558,13.7947294 C12.2183674,14.2684549 11.2512279,15.140298 10.7191349,15.6319059 L10.712786,15.6256314 Z M8.02571628,8.88210196 C8.02571628,9.96006275 8.05050698,10.8579451 7.5271814,11.8160627 C7.10332093,12.5944157 6.43004186,13.0734745 5.68178605,13.0734745 C4.65992558,13.0734745 4.06132093,12.2650039 4.06132093,11.0675137 C4.06132093,8.71206275 6.09748372,8.28351373 8.02571628,8.28351373 L8.02571628,8.88210196 Z" id="Fill-23" fill="#AFAFAF" mask="url(#mask-6)"></path>
            </g>
            <g id="Group-28">
                <mask id="mask-8" fill="white">
                    <use xlink:href="#path-7"></use>
                </mask>
                <g id="Clip-27"></g>
                <path d="M10.5409744,15.6256314 C10.3644163,15.7897098 10.1098581,15.8010039 9.91123023,15.6899451 C9.0257186,14.9263373 8.8673,14.5733961 8.38327674,13.8468078 C6.92032326,15.3934745 5.88425349,15.8571608 3.98927674,15.8571608 C1.74511395,15.8571608 9.06976744e-05,14.420298 9.06976744e-05,11.5465725 C9.06976744e-05,9.30123922 1.17190465,7.77465098 2.84225349,7.02610196 C4.28827674,6.36759216 6.30811395,6.24774902 7.85360233,6.06829804 L7.85360233,5.70908235 C7.85360233,5.05057255 7.90348605,4.27190588 7.52981163,3.70343529 C7.2057186,3.19425882 6.58202093,2.9846902 6.03390465,2.9846902 C5.01718372,2.9846902 4.11323023,3.52523922 3.89162558,4.64555294 C3.84536977,4.89465098 3.67002093,5.14123922 3.42846279,5.15410196 L0.845393023,4.86390588 C0.627113953,4.81276863 0.384346512,4.63143529 0.447532558,4.2857098 C1.04099767,1.03331765 3.87106744,0.0507294118 6.40757907,0.0507294118 C7.70425349,0.0507294118 9.39969535,0.409945098 10.4218581,1.42798431 C11.7185326,2.68539608 11.5936721,4.3619451 11.5936721,6.18782745 L11.5936721,10.4968471 C11.5936721,11.7931608 12.1124628,12.3616314 12.5998116,13.060298 C12.7697186,13.3119059 12.808114,13.6112 12.5910442,13.7947294 C12.0465558,14.2684549 11.079114,15.140298 10.5473233,15.6319059 L10.5409744,15.6256314 Z M7.85360233,8.88210196 C7.85360233,9.96006275 7.87869535,10.8579451 7.35506744,11.8160627 C6.9315093,12.5944157 6.25823023,13.0734745 5.50997442,13.0734745 C4.48811395,13.0734745 3.8895093,12.2650039 3.8895093,11.0675137 C3.8895093,8.71206275 5.92567209,8.28351373 7.85360233,8.28351373 L7.85360233,8.88210196 Z" id="Fill-26" fill="#AFAFAF" mask="url(#mask-8)"></path>
            </g>
        </g>
    </g>
</svg>