<?xml version="1.0" encoding="UTF-8"?>
<svg width="179px" height="22px" viewBox="0 0 179 22" version="1.1" xmlns="http://www.w3.org/2000/svg" xmlns:xlink="http://www.w3.org/1999/xlink">
    <!-- Generator: Sketch 52.5 (67469) - http://www.bohemiancoding.com/sketch -->
    <title>Stroke 3</title>
    <desc>Created with Sketch.</desc>
    <g id="Page-1" stroke="none" stroke-width="1" fill="none" fill-rule="evenodd">
        <path d="M9.35686314,20.5807888 C4.79170462,20.9955759 0.754661024,17.6310352 0.339873891,13.0658766 C-0.0749132423,8.50071813 3.28962754,4.46367453 7.85478606,4.0488874 C62.8206352,-0.945271488 110.710702,-0.661160711 149.80699,2.82700167 C156.046055,3.3836497 161.505765,3.98142959 166.153651,4.58115654 C168.978798,4.94569143 170.926981,5.23380218 171.965734,5.40632767 C176.487751,6.15738507 179.544717,10.4320561 178.79366,14.9540726 C178.042602,19.4760891 173.767931,22.5330555 169.245915,21.7819981 C169.058965,21.7509478 168.641202,21.6853309 167.996708,21.5900186 C166.891482,21.4265703 165.567662,21.2431639 164.029328,21.0446692 C159.595179,20.4725212 154.351789,19.8984261 148.331801,19.3613241 C110.191698,15.9584724 63.2924413,15.6802396 9.35686314,20.5807888 Z" id="Stroke-3" fill="#F34F3F" fill-rule="nonzero"></path>
    </g>
</svg>