<?xml version="1.0" encoding="UTF-8"?>
<svg width="584px" height="370px" viewBox="0 0 584 370" version="1.1" xmlns="http://www.w3.org/2000/svg" xmlns:xlink="http://www.w3.org/1999/xlink">
    <!-- Generator: Sketch 52.5 (67469) - http://www.bohemiancoding.com/sketch -->
    <title>Group 388</title>
    <desc>Created with Sketch.</desc>
    <defs>
        <polygon id="path-1" points="0.543169565 0.807142105 20.5023 0.807142105 20.5023 17 0.543169565 17"></polygon>
    </defs>
    <g id="Page-1" stroke="none" stroke-width="1" fill="none" fill-rule="evenodd" opacity="0.7">
        <g id="Group-388">
            <path d="M177,302 C171.47667,302 167,306.477421 167,312 C167,317.522579 171.47667,322 177,322 C182.522415,322 187,317.522579 187,312 C187,306.477421 182.522415,302 177,302" id="Fill-1" fill="#E6E7E8"></path>
            <path d="M203,302 C197.47667,302 193,306.477421 193,312 C193,317.522579 197.47667,322 203,322 C208.522415,322 213,317.522579 213,312 C213,306.477421 208.522415,302 203,302" id="Fill-3" fill="#E6E7E8"></path>
            <path d="M203,277 C197.47667,277 193,281.477421 193,287 C193,292.522579 197.47667,297 203,297 C208.522415,297 213,292.522579 213,287 C213,281.477421 208.522415,277 203,277" id="Fill-5" fill="#E6E7E8"></path>
            <path d="M228,176 C222.47667,176 218,180.477421 218,186 C218,191.523495 222.47667,196 228,196 C233.522415,196 238,191.523495 238,186 C238,180.477421 233.522415,176 228,176" id="Fill-7" fill="#E6E7E8"></path>
            <path d="M228,151 C222.47667,151 218,155.477421 218,161 C218,166.522579 222.47667,171 228,171 C233.522415,171 238,166.522579 238,161 C238,155.477421 233.522415,151 228,151" id="Fill-9" fill="#E6E7E8"></path>
            <path d="M227.623336,146 C228.444577,146 229.237996,145.886467 230,145.694823 L218,138 C218.884069,142.558583 222.854749,146 227.623336,146" id="Fill-11" fill="#E6E7E8"></path>
            <path d="M203,328 C197.47667,328 193,332.477421 193,338 C193,343.522579 197.47667,348 203,348 C208.522415,348 213,343.522579 213,338 C213,332.477421 208.522415,328 203,328" id="Fill-13" fill="#E6E7E8"></path>
            <path d="M203,151 C197.47667,151 193,155.477421 193,161 C193,166.522579 197.47667,171 203,171 C208.522415,171 213,166.522579 213,161 C213,155.477421 208.522415,151 203,151" id="Fill-15" fill="#E6E7E8"></path>
            <path d="M203,176 C197.47667,176 193,180.477421 193,186 C193,191.523495 197.47667,196 203,196 C208.522415,196 213,191.523495 213,186 C213,180.477421 208.522415,176 203,176" id="Fill-17" fill="#E6E7E8"></path>
            <path d="M203,227 C197.47667,227 193,231.477421 193,237 C193,242.522579 197.47667,247 203,247 C208.522415,247 213,242.522579 213,237 C213,231.477421 208.522415,227 203,227" id="Fill-19" fill="#E6E7E8"></path>
            <path d="M203,202 C197.47667,202 193,206.477421 193,212 C193,217.522579 197.47667,222 203,222 C208.522415,222 213,217.522579 213,212 C213,206.477421 208.522415,202 203,202" id="Fill-21" fill="#E6E7E8"></path>
            <path d="M203,252 C197.47667,252 193,256.477421 193,262 C193,267.522579 197.47667,272 203,272 C208.522415,272 213,267.522579 213,262 C213,256.477421 208.522415,252 203,252" id="Fill-23" fill="#E6E7E8"></path>
            <path d="M193,135.79815 C193,141.432203 197.477585,146 203,146 C208.522415,146 213,141.432203 213,135.79815 C213,135.242127 212.94419,134.701056 212.860933,134.168395 L200.236962,126 C196.059469,127.224185 193,131.143445 193,135.79815" id="Fill-25" fill="#E6E7E8"></path>
            <path d="M253,176 C247.47667,176 243,180.477421 243,186 C243,191.523495 247.47667,196 253,196 C258.522415,196 263,191.523495 263,186 C263,180.477421 258.522415,176 253,176" id="Fill-27" fill="#E6E7E8"></path>
            <path d="M253,202 C247.47667,202 243,206.477421 243,212 C243,217.522579 247.47667,222 253,222 C258.522415,222 263,217.522579 263,212 C263,206.477421 258.522415,202 253,202" id="Fill-29" fill="#E6E7E8"></path>
            <path d="M253,227 C247.47667,227 243,231.477421 243,237 C243,242.522579 247.47667,247 253,247 C258.522415,247 263,242.522579 263,237 C263,231.477421 258.522415,227 253,227" id="Fill-31" fill="#E6E7E8"></path>
            <path d="M253.051791,171 C256.95847,171 260.33635,168.794044 262,165.579677 L245.112439,155 C243.79274,156.679473 243,158.782678 243,161.073198 C243,166.555353 247.499855,171 253.051791,171" id="Fill-33" fill="#E6E7E8"></path>
            <path d="M253,252 C247.47667,252 243,256.477421 243,262 C243,267.522579 247.47667,272 253,272 C258.522415,272 263,267.522579 263,262 C263,256.477421 258.522415,252 253,252" id="Fill-35" fill="#E6E7E8"></path>
            <path d="M253,277 C247.47667,277 243,281.477421 243,287 C243,292.522579 247.47667,297 253,297 C258.522415,297 263,292.522579 263,287 C263,281.477421 258.522415,277 253,277" id="Fill-37" fill="#E6E7E8"></path>
            <path d="M228,252 C222.47667,252 218,256.477421 218,262 C218,267.522579 222.47667,272 228,272 C233.522415,272 238,267.522579 238,262 C238,256.477421 233.522415,252 228,252" id="Fill-39" fill="#E6E7E8"></path>
            <path d="M228,227 C222.47667,227 218,231.477421 218,237 C218,242.522579 222.47667,247 228,247 C233.522415,247 238,242.522579 238,237 C238,231.477421 233.522415,227 228,227" id="Fill-41" fill="#E6E7E8"></path>
            <path d="M228,202 C222.47667,202 218,206.477421 218,212 C218,217.522579 222.47667,222 228,222 C233.522415,222 238,217.522579 238,212 C238,206.477421 233.522415,202 228,202" id="Fill-43" fill="#E6E7E8"></path>
            <path d="M228,302 C222.47667,302 218,306.477421 218,312 C218,317.522579 222.47667,322 228,322 C233.522415,322 238,317.522579 238,312 C238,306.477421 233.522415,302 228,302" id="Fill-45" fill="#E6E7E8"></path>
            <path d="M228,328 C222.47667,328 218,332.477421 218,338 C218,343.522579 222.47667,348 228,348 C233.522415,348 238,343.522579 238,338 C238,332.477421 233.522415,328 228,328" id="Fill-47" fill="#E6E7E8"></path>
            <path d="M228,277 C222.47667,277 218,281.477421 218,287 C218,292.522579 222.47667,297 228,297 C233.522415,297 238,292.522579 238,287 C238,281.477421 233.522415,277 228,277" id="Fill-49" fill="#E6E7E8"></path>
            <path d="M177,328 C171.47667,328 167,332.477421 167,338 C167,343.522579 171.47667,348 177,348 C182.522415,348 187,343.522579 187,338 C187,332.477421 182.522415,328 177,328" id="Fill-51" fill="#E6E7E8"></path>
            <path d="M152,126 C146.47667,126 142,130.477421 142,136 C142,141.522579 146.47667,146 152,146 C157.522415,146 162,141.522579 162,136 C162,130.477421 157.522415,126 152,126" id="Fill-53" fill="#E6E7E8"></path>
            <path d="M152,151 C146.47667,151 142,155.477421 142,161 C142,166.522579 146.47667,171 152,171 C157.522415,171 162,166.522579 162,161 C162,155.477421 157.522415,151 152,151" id="Fill-55" fill="#E6E7E8"></path>
            <path d="M152,227 C146.47667,227 142,231.477421 142,237 C142,242.522579 146.47667,247 152,247 C157.522415,247 162,242.522579 162,237 C162,231.477421 157.522415,227 152,227" id="Fill-57" fill="#E6E7E8"></path>
            <path d="M152,202 C146.47667,202 142,206.477421 142,212 C142,217.522579 146.47667,222 152,222 C157.522415,222 162,217.522579 162,212 C162,206.477421 157.522415,202 152,202" id="Fill-59" fill="#E6E7E8"></path>
            <path d="M127,277 C121.47667,277 117,281.477421 117,287 C117,292.522579 121.47667,297 127,297 C132.52333,297 137,292.522579 137,287 C137,281.477421 132.52333,277 127,277" id="Fill-61" fill="#E6E7E8"></path>
            <path d="M152,252 C146.47667,252 142,256.477421 142,262 C142,267.522579 146.47667,272 152,272 C157.522415,272 162,267.522579 162,262 C162,256.477421 157.522415,252 152,252" id="Fill-63" fill="#E6E7E8"></path>
            <path d="M127,328 C121.47667,328 117,332.477421 117,338 C117,343.522579 121.47667,348 127,348 C132.52333,348 137,343.522579 137,338 C137,332.477421 132.52333,328 127,328" id="Fill-65" fill="#E6E7E8"></path>
            <path d="M152,101 C146.47667,101 142,105.477421 142,111 C142,116.522579 146.47667,121 152,121 C157.522415,121 162,116.522579 162,111 C162,105.477421 157.522415,101 152,101" id="Fill-67" fill="#E6E7E8"></path>
            <path d="M151,96 L144,91 C145.50803,93.7074668 148.04542,95.6088334 151,96" id="Fill-69" fill="#E6E7E8"></path>
            <path d="M127,302 C121.47667,302 117,306.477421 117,312 C117,317.522579 121.47667,322 127,322 C132.52333,322 137,317.522579 137,312 C137,306.477421 132.52333,302 127,302" id="Fill-71" fill="#E6E7E8"></path>
            <path d="M152,176 C146.47667,176 142,180.477421 142,186 C142,191.523495 146.47667,196 152,196 C157.522415,196 162,191.523495 162,186 C162,180.477421 157.522415,176 152,176" id="Fill-73" fill="#E6E7E8"></path>
            <path d="M177,202 C171.47667,202 167,206.477421 167,212 C167,217.522579 171.47667,222 177,222 C182.522415,222 187,217.522579 187,212 C187,206.477421 182.522415,202 177,202" id="Fill-75" fill="#E6E7E8"></path>
            <path d="M152,277 C146.47667,277 142,281.477421 142,287 C142,292.522579 146.47667,297 152,297 C157.522415,297 162,292.522579 162,287 C162,281.477421 157.522415,277 152,277" id="Fill-77" fill="#E6E7E8"></path>
            <path d="M177,252 C171.47667,252 167,256.477421 167,262 C167,267.522579 171.47667,272 177,272 C182.522415,272 187,267.522579 187,262 C187,256.477421 182.522415,252 177,252" id="Fill-79" fill="#E6E7E8"></path>
            <path d="M127,252 C121.47667,252 117,256.477421 117,262 C117,267.522579 121.47667,272 127,272 C132.52333,272 137,267.522579 137,262 C137,256.477421 132.52333,252 127,252" id="Fill-81" fill="#E6E7E8"></path>
            <path d="M177,176 C171.47667,176 167,180.477421 167,186 C167,191.523495 171.47667,196 177,196 C182.522415,196 187,191.523495 187,186 C187,180.477421 182.522415,176 177,176" id="Fill-83" fill="#E6E7E8"></path>
            <path d="M177,227 C171.47667,227 167,231.477421 167,237 C167,242.522579 171.47667,247 177,247 C182.522415,247 187,242.522579 187,237 C187,231.477421 182.522415,227 177,227" id="Fill-85" fill="#E6E7E8"></path>
            <path d="M152,328 C146.47667,328 142,332.477421 142,338 C142,343.522579 146.47667,348 152,348 C157.522415,348 162,343.522579 162,338 C162,332.477421 157.522415,328 152,328" id="Fill-87" fill="#E6E7E8"></path>
            <path d="M177,151 C171.47667,151 167,155.477421 167,161 C167,166.522579 171.47667,171 177,171 C182.522415,171 187,166.522579 187,161 C187,155.477421 182.522415,151 177,151" id="Fill-89" fill="#E6E7E8"></path>
            <path d="M152,302 C146.47667,302 142,306.477421 142,312 C142,317.522579 146.47667,322 152,322 C157.522415,322 162,317.522579 162,312 C162,306.477421 157.522415,302 152,302" id="Fill-91" fill="#E6E7E8"></path>
            <path d="M177,126 C171.47667,126 167,130.477421 167,136 C167,141.522579 171.47667,146 177,146 C182.522415,146 187,141.522579 187,136 C187,130.477421 182.522415,126 177,126" id="Fill-93" fill="#E6E7E8"></path>
            <path d="M177.143852,120 C180.312297,120 183.140139,118.597311 185,116.402305 L167.999536,106 C167.365661,107.278105 167,108.703201 167,110.215237 C167,115.61895 171.541067,120 177.143852,120" id="Fill-95" fill="#E6E7E8"></path>
            <path d="M430,277 C424.477585,277 420,281.477421 420,287 C420,292.522579 424.477585,297 430,297 C435.522415,297 440,292.522579 440,287 C440,281.477421 435.522415,277 430,277" id="Fill-97" fill="#E6E7E8"></path>
            <path d="M379.000457,328 C373.47738,328 369,332.477421 369,338 C369,343.522579 373.47738,348 379.000457,348 C384.52262,348 389,343.522579 389,338 C389,332.477421 384.52262,328 379.000457,328" id="Fill-99" fill="#E6E7E8"></path>
            <path d="M394,261.970359 C394,267.509308 398.479129,272 404.005492,272 C409.457708,272 413.882827,267.625985 414,262.188095 L399.549249,253 C396.262907,254.643586 394,258.038248 394,261.970359" id="Fill-101" fill="#E6E7E8"></path>
            <path d="M379.000457,302 C373.47738,302 369,306.477421 369,312 C369,317.522579 373.47738,322 379.000457,322 C384.52262,322 389,317.522579 389,312 C389,306.477421 384.52262,302 379.000457,302" id="Fill-103" fill="#E6E7E8"></path>
            <path d="M404,328 C398.47667,328 394,332.477421 394,338 C394,343.522579 398.47667,348 404,348 C409.522415,348 414,343.522579 414,338 C414,332.477421 409.522415,328 404,328" id="Fill-105" fill="#E6E7E8"></path>
            <path d="M404,277 C398.47667,277 394,281.477421 394,287 C394,292.522579 398.47667,297 404,297 C409.522415,297 414,292.522579 414,287 C414,281.477421 409.522415,277 404,277" id="Fill-107" fill="#E6E7E8"></path>
            <path d="M404,302 C398.47667,302 394,306.477421 394,312 C394,317.522579 398.47667,322 404,322 C409.522415,322 414,317.522579 414,312 C414,306.477421 409.522415,302 404,302" id="Fill-109" fill="#E6E7E8"></path>
            <path d="M354.000457,302 C348.47738,302 344,306.477421 344,312 C344,317.522579 348.47738,322 354.000457,322 C359.52262,322 364,317.522579 364,312 C364,306.477421 359.52262,302 354.000457,302" id="Fill-111" fill="#E6E7E8"></path>
            <path d="M354.000457,328 C348.47738,328 344,332.477421 344,338 C344,343.522579 348.47738,348 354.000457,348 C359.52262,348 364,343.522579 364,338 C364,332.477421 359.52262,328 354.000457,328" id="Fill-113" fill="#E6E7E8"></path>
            <path d="M379.000457,277 C373.47738,277 369,281.477421 369,287 C369,292.522579 373.47738,297 379.000457,297 C384.52262,297 389,292.522579 389,287 C389,281.477421 384.52262,277 379.000457,277" id="Fill-115" fill="#E6E7E8"></path>
            <path d="M379.000457,252 C373.47738,252 369,256.477421 369,262 C369,267.522579 373.47738,272 379.000457,272 C384.52262,272 389,267.522579 389,262 C389,256.477421 384.52262,252 379.000457,252" id="Fill-117" fill="#E6E7E8"></path>
            <path d="M379.174496,247 C381.804917,247 384.195193,246.00482 386,244.383967 L369.444919,234 C369.157304,234.929756 369,235.917565 369,236.940388 C369,242.495889 373.5553,247 379.174496,247" id="Fill-119" fill="#E6E7E8"></path>
            <path d="M430,328 C424.477585,328 420,332.477421 420,338 C420,343.522579 424.477585,348 430,348 C435.522415,348 440,343.522579 440,338 C440,332.477421 435.522415,328 430,328" id="Fill-121" fill="#E6E7E8"></path>
            <path d="M470,312.908486 C470,318.481605 474.477789,323 480.000457,323 C485.523125,323 490,318.481605 490,312.908486 C490,312.039564 489.880141,311.199297 489.675191,310.394158 L478.123885,303 C473.498788,303.88741 470,307.983361 470,312.908486" id="Fill-123" fill="#E6E7E8"></path>
            <path d="M455,302 C449.477585,302 445,306.477421 445,312 C445,317.522579 449.477585,322 455,322 C460.522415,322 465,317.522579 465,312 C465,306.477421 460.522415,302 455,302" id="Fill-125" fill="#E6E7E8"></path>
            <path d="M480,328 C474.477585,328 470,332.477421 470,338 C470,343.522579 474.477585,348 480,348 C485.522415,348 490,343.522579 490,338 C490,332.477421 485.522415,328 480,328" id="Fill-127" fill="#E6E7E8"></path>
            <path d="M495,338 C495,343.522579 499.477789,348 505.000457,348 C510.52404,348 515,343.522579 515,338 C515,332.477421 510.52404,328 505.000457,328 C499.477789,328 495,332.477421 495,338" id="Fill-129" fill="#E6E7E8"></path>
            <path d="M428.852313,272 C428.902135,272 428.950178,271.992521 429,271.992521 L420,266 C421.52758,269.535681 424.911922,272 428.852313,272" id="Fill-131" fill="#E6E7E8"></path>
            <path d="M504.795311,323 C505.918846,323 506.993688,322.798459 508,322.443451 L495,314 C495.532011,319.05886 499.712353,323 504.795311,323" id="Fill-133" fill="#E6E7E8"></path>
            <path d="M455,328 C449.477585,328 445,332.477421 445,338 C445,343.522579 449.477585,348 455,348 C460.522415,348 465,343.522579 465,338 C465,332.477421 460.522415,328 455,328" id="Fill-135" fill="#E6E7E8"></path>
            <path d="M354.000457,277 C348.47738,277 344,281.477421 344,287 C344,292.522579 348.47738,297 354.000457,297 C359.52262,297 364,292.522579 364,287 C364,281.477421 359.52262,277 354.000457,277" id="Fill-137" fill="#E6E7E8"></path>
            <path d="M529.903195,348 C533.98226,348 537.482356,345.45164 539,341.812731 L522.495279,331 C520.947735,332.805401 520,335.172003 520,337.771893 C520,343.420446 524.434239,348 529.903195,348" id="Fill-139" fill="#E6E7E8"></path>
            <path d="M454.923333,297 C458.257137,297 461.200545,295.326568 463,292.766605 L446.27469,282 C445.46666,283.457565 445,285.137454 445,286.928967 C445,292.490775 449.443256,297 454.923333,297" id="Fill-141" fill="#E6E7E8"></path>
            <path d="M430,302 C424.477585,302 420,306.477421 420,312 C420,317.522579 424.477585,322 430,322 C435.522415,322 440,317.522579 440,312 C440,306.477421 435.522415,302 430,302" id="Fill-143" fill="#E6E7E8"></path>
            <path d="M319,211.815704 C319,217.440062 323.553405,222 329.170264,222 C333.898586,222 337.861183,218.762892 339,214.384867 L322.653703,204 C320.42166,205.868567 319,208.675615 319,211.815704" id="Fill-145" fill="#E6E7E8"></path>
            <path d="M278,302 C272.47667,302 268,306.477421 268,312 C268,317.522579 272.47667,322 278,322 C283.52333,322 288,317.522579 288,312 C288,306.477421 283.52333,302 278,302" id="Fill-147" fill="#E6E7E8"></path>
            <path d="M268,186 C268,191.522579 272.477585,196 278,196 C283.52333,196 288,191.522579 288,186 C288,184.262343 287.556267,182.628195 286.775846,181.204727 L278.619396,176.031144 C278.413541,176.01832 278.209515,176 278,176 C272.477585,176 268,180.477421 268,186" id="Fill-149" fill="#E6E7E8"></path>
            <path d="M303.000457,227 C297.47738,227 293,231.477421 293,237 C293,242.522579 297.47738,247 303.000457,247 C308.52262,247 313,242.522579 313,237 C313,231.477421 308.52262,227 303.000457,227" id="Fill-151" fill="#E6E7E8"></path>
            <path d="M303.094502,197 C304.875885,197 306.546451,196.523998 308,195.69666 L293.034169,186 C293.019393,186.228557 293,186.456169 293,186.689448 C293,192.383532 297.519485,197 303.094502,197" id="Fill-153" fill="#E6E7E8"></path>
            <path d="M278,328 C272.47667,328 268,332.477421 268,338 C268,343.522579 272.47667,348 278,348 C283.52333,348 288,343.522579 288,338 C288,332.477421 283.52333,328 278,328" id="Fill-155" fill="#E6E7E8"></path>
            <path d="M303.000457,202 C297.47738,202 293,206.477421 293,212 C293,217.522579 297.47738,222 303.000457,222 C308.52262,222 313,217.522579 313,212 C313,206.477421 308.52262,202 303.000457,202" id="Fill-157" fill="#E6E7E8"></path>
            <path d="M278,202 C272.47667,202 268,206.477421 268,212 C268,217.522579 272.47667,222 278,222 C283.52333,222 288,217.522579 288,212 C288,206.477421 283.52333,202 278,202" id="Fill-159" fill="#E6E7E8"></path>
            <path d="M278,277 C272.47667,277 268,281.477421 268,287 C268,292.522579 272.47667,297 278,297 C283.52333,297 288,292.522579 288,287 C288,281.477421 283.52333,277 278,277" id="Fill-161" fill="#E6E7E8"></path>
            <path d="M253,302 C247.47667,302 243,306.477421 243,312 C243,317.522579 247.47667,322 253,322 C258.522415,322 263,317.522579 263,312 C263,306.477421 258.522415,302 253,302" id="Fill-163" fill="#E6E7E8"></path>
            <path d="M278,252 C272.47667,252 268,256.477421 268,262 C268,267.522579 272.47667,272 278,272 C283.52333,272 288,267.522579 288,262 C288,256.477421 283.52333,252 278,252" id="Fill-165" fill="#E6E7E8"></path>
            <path d="M278,227 C272.47667,227 268,231.477421 268,237 C268,242.522579 272.47667,247 278,247 C283.52333,247 288,242.522579 288,237 C288,231.477421 283.52333,227 278,227" id="Fill-167" fill="#E6E7E8"></path>
            <path d="M303.000457,328 C297.47738,328 293,332.477421 293,338 C293,343.522579 297.47738,348 303.000457,348 C308.52262,348 313,343.522579 313,338 C313,332.477421 308.52262,328 303.000457,328" id="Fill-169" fill="#E6E7E8"></path>
            <path d="M329.000457,252 C323.47738,252 319,256.477421 319,262 C319,267.522579 323.47738,272 329.000457,272 C334.52262,272 339,267.522579 339,262 C339,256.477421 334.52262,252 329.000457,252" id="Fill-171" fill="#E6E7E8"></path>
            <path d="M329.000457,328 C323.47738,328 319,332.477421 319,338 C319,343.522579 323.47738,348 329.000457,348 C334.52262,348 339,343.522579 339,338 C339,332.477421 334.52262,328 329.000457,328" id="Fill-173" fill="#E6E7E8"></path>
            <path d="M329.000457,277 C323.47738,277 319,281.477421 319,287 C319,292.522579 323.47738,297 329.000457,297 C334.52262,297 339,292.522579 339,287 C339,281.477421 334.52262,277 329.000457,277" id="Fill-175" fill="#E6E7E8"></path>
            <path d="M303.000457,252 C297.47738,252 293,256.477421 293,262 C293,267.522579 297.47738,272 303.000457,272 C308.52262,272 313,267.522579 313,262 C313,256.477421 308.52262,252 303.000457,252" id="Fill-177" fill="#E6E7E8"></path>
            <path d="M329.000457,302 C323.47738,302 319,306.477421 319,312 C319,317.522579 323.47738,322 329.000457,322 C334.52262,322 339,317.522579 339,312 C339,306.477421 334.52262,302 329.000457,302" id="Fill-179" fill="#E6E7E8"></path>
            <path d="M354.000457,227 C348.47738,227 344,231.477421 344,237 C344,242.522579 348.47738,247 354.000457,247 C359.52262,247 364,242.522579 364,237 C364,231.477421 359.52262,227 354.000457,227" id="Fill-181" fill="#E6E7E8"></path>
            <path d="M303.000457,277 C297.47738,277 293,281.477421 293,287 C293,292.522579 297.47738,297 303.000457,297 C308.52262,297 313,292.522579 313,287 C313,281.477421 308.52262,277 303.000457,277" id="Fill-183" fill="#E6E7E8"></path>
            <path d="M354.000457,252 C348.47738,252 344,256.477421 344,262 C344,267.522579 348.47738,272 354.000457,272 C359.52262,272 364,267.522579 364,262 C364,256.477421 359.52262,252 354.000457,252" id="Fill-185" fill="#E6E7E8"></path>
            <path d="M329.000457,227 C323.47738,227 319,231.477421 319,237 C319,242.522579 323.47738,247 329.000457,247 C334.52262,247 339,242.522579 339,237 C339,231.477421 334.52262,227 329.000457,227" id="Fill-187" fill="#E6E7E8"></path>
            <path d="M303.000457,302 C297.47738,302 293,306.477421 293,312 C293,317.522579 297.47738,322 303.000457,322 C308.52262,322 313,317.522579 313,312 C313,306.477421 308.52262,302 303.000457,302" id="Fill-189" fill="#E6E7E8"></path>
            <path d="M253,328 C247.47667,328 243,332.477421 243,338 C243,343.522579 247.47667,348 253,348 C258.522415,348 263,343.522579 263,338 C263,332.477421 258.522415,328 253,328" id="Fill-191" fill="#E6E7E8"></path>
            <path d="M177,277 C171.47667,277 167,281.477421 167,287 C167,292.522579 171.47667,297 177,297 C182.522415,297 187,292.522579 187,287 C187,281.477421 182.522415,277 177,277" id="Fill-193" fill="#E6E7E8"></path>
            <path d="M0.862563238,227 C0.571332209,227 0.284738617,227.019236 0,227.043052 L0,246.956948 C0.284738617,246.980764 0.571332209,247 0.862563238,247 C6.4608769,247 11,242.522579 11,237 C11,231.477421 6.4608769,227 0.862563238,227" id="Fill-195" fill="#E6E7E8"></path>
            <path d="M0.862563238,202 C0.571332209,202 0.284738617,202.019236 0,202.043052 L0,221.956948 C0.284738617,221.980764 0.571332209,222 0.862563238,222 C6.4608769,222 11,217.522579 11,212 C11,206.477421 6.4608769,202 0.862563238,202" id="Fill-197" fill="#E6E7E8"></path>
            <path d="M0.862563238,151 C0.571332209,151 0.284738617,151.019236 0,151.043052 L0,170.957864 C0.284738617,170.980764 0.571332209,171 0.862563238,171 C6.4608769,171 11,166.522579 11,161 C11,155.477421 6.4608769,151 0.862563238,151" id="Fill-199" fill="#E6E7E8"></path>
            <path d="M0.862563238,176 C0.571332209,176 0.284738617,176.019236 0,176.043052 L0,195.957864 C0.284738617,195.980764 0.571332209,196 0.862563238,196 C6.4608769,196 11,191.523495 11,186 C11,180.477421 6.4608769,176 0.862563238,176" id="Fill-201" fill="#E6E7E8"></path>
            <path d="M0.862563238,277 C0.571332209,277 0.284738617,277.019236 0,277.043052 L0,296.956948 C0.284738617,296.980764 0.571332209,297 0.862563238,297 C6.4608769,297 11,292.522579 11,287 C11,281.477421 6.4608769,277 0.862563238,277" id="Fill-203" fill="#E6E7E8"></path>
            <path d="M0.862563238,252 C0.571332209,252 0.284738617,252.019236 0,252.043052 L0,271.956948 C0.284738617,271.980764 0.571332209,272 0.862563238,272 C6.4608769,272 11,267.522579 11,262 C11,256.477421 6.4608769,252 0.862563238,252" id="Fill-205" fill="#E6E7E8"></path>
            <path d="M0.862563238,25 C0.571332209,25 0.284738617,25.0192361 0,25.0430521 L0,44.9578639 C0.284738617,44.9807639 0.571332209,45 0.862563238,45 C6.4608769,45 11,40.5234955 11,35 C11,29.4774205 6.4608769,25 0.862563238,25" id="Fill-207" fill="#E6E7E8"></path>
            <path d="M0.862563238,328 C0.571332209,328 0.284738617,328.019236 0,328.043052 L0,347.956948 C0.284738617,347.980764 0.571332209,348 0.862563238,348 C6.4608769,348 11,343.522579 11,338 C11,332.477421 6.4608769,328 0.862563238,328" id="Fill-209" fill="#E6E7E8"></path>
            <path d="M0.862563238,126 C0.571332209,126 0.284738617,126.019236 0,126.043052 L0,145.957864 C0.284738617,145.980764 0.571332209,146 0.862563238,146 C6.4608769,146 11,141.522579 11,136 C11,130.477421 6.4608769,126 0.862563238,126" id="Fill-211" fill="#E6E7E8"></path>
            <path d="M0.862563238,50 C0.571332209,50 0.284738617,50.0192361 0,50.0430521 L0,69.9569479 C0.284738617,69.9807639 0.571332209,70 0.862563238,70 C6.4608769,70 11,65.5225795 11,60 C11,54.4774205 6.4608769,50 0.862563238,50" id="Fill-213" fill="#E6E7E8"></path>
            <path d="M26,227 C20.4766697,227 16,231.477421 16,237 C16,242.522579 20.4766697,247 26,247 C31.5224154,247 36,242.522579 36,237 C36,231.477421 31.5224154,227 26,227" id="Fill-215" fill="#E6E7E8"></path>
            <path d="M0.862563238,76 C0.571332209,76 0.284738617,76.0192361 0,76.0430521 L0,95.9569479 C0.284738617,95.9807639 0.571332209,96 0.862563238,96 C6.4608769,96 11,91.5225795 11,86 C11,80.4774205 6.4608769,76 0.862563238,76" id="Fill-217" fill="#E6E7E8"></path>
            <path d="M26,50 C20.4766697,50 16,54.4774205 16,60 C16,65.5225795 20.4766697,70 26,70 C31.5224154,70 36,65.5225795 36,60 C36,54.4774205 31.5224154,50 26,50" id="Fill-219" fill="#E6E7E8"></path>
            <path d="M26,126 C20.4766697,126 16,130.477421 16,136 C16,141.522579 20.4766697,146 26,146 C31.5224154,146 36,141.522579 36,136 C36,130.477421 31.5224154,126 26,126" id="Fill-221" fill="#E6E7E8"></path>
            <path d="M26,151 C20.4766697,151 16,155.477421 16,161 C16,166.522579 20.4766697,171 26,171 C31.5224154,171 36,166.522579 36,161 C36,155.477421 31.5224154,151 26,151" id="Fill-223" fill="#E6E7E8"></path>
            <path d="M0.862563238,302 C0.571332209,302 0.284738617,302.019236 0,302.043052 L0,321.956948 C0.284738617,321.980764 0.571332209,322 0.862563238,322 C6.4608769,322 11,317.522579 11,312 C11,306.477421 6.4608769,302 0.862563238,302" id="Fill-225" fill="#E6E7E8"></path>
            <path d="M26,176 C20.4766697,176 16,180.477421 16,186 C16,191.523495 20.4766697,196 26,196 C31.5224154,196 36,191.523495 36,186 C36,180.477421 31.5224154,176 26,176" id="Fill-227" fill="#E6E7E8"></path>
            <path d="M26,202 C20.4766697,202 16,206.477421 16,212 C16,217.522579 20.4766697,222 26,222 C31.5224154,222 36,217.522579 36,212 C36,206.477421 31.5224154,202 26,202" id="Fill-229" fill="#E6E7E8"></path>
            <path d="M26,101 C20.4766697,101 16,105.477421 16,111 C16,116.522579 20.4766697,121 26,121 C31.5224154,121 36,116.522579 36,111 C36,105.477421 31.5224154,101 26,101" id="Fill-231" fill="#E6E7E8"></path>
            <path d="M25.8817677,20 C27.3534048,20 28.7445406,19.6631813 30,19.0737485 L16,10 C16.0542706,15.5315999 20.4547099,20 25.8817677,20" id="Fill-233" fill="#E6E7E8"></path>
            <path d="M26,76 C20.4766697,76 16,80.4774205 16,86 C16,91.5234955 20.4766697,96 26,96 C31.5224154,96 36,91.5234955 36,86 C36,80.4774205 31.5224154,76 26,76" id="Fill-235" fill="#E6E7E8"></path>
            <path d="M0,0.0119260584 L0,19.9568827 C0.284738617,19.9807348 0.571332209,20 0.862563238,20 C6.4608769,20 11,15.515802 11,9.98486308 C11,8.67574882 10.7384486,7.42901702 10.2765599,6.28319802 L0.249494098,0 C0.166020236,0.00458694555 0.0825463744,0.00550433466 0,0.0119260584" id="Fill-237" fill="#E6E7E8"></path>
            <path d="M26,25 C20.4766697,25 16,29.4774205 16,35 C16,40.5225795 20.4766697,45 26,45 C31.5224154,45 36,40.5225795 36,35 C36,29.4774205 31.5224154,25 26,25" id="Fill-239" fill="#E6E7E8"></path>
            <path d="M0.862563238,353 C0.571332209,353 0.284738617,353.01974 0,353.04418 L0,370 L8.49578415,370 C10.0511804,368.196129 11,365.844236 11,363.26204 C11,357.594747 6.4608769,353 0.862563238,353" id="Fill-241" fill="#E6E7E8"></path>
            <path d="M0.862563238,101 C0.571332209,101 0.284738617,101.019236 0,101.043052 L0,120.956948 C0.284738617,120.980764 0.571332209,121 0.862563238,121 C6.4608769,121 11,116.522579 11,111 C11,105.477421 6.4608769,101 0.862563238,101" id="Fill-243" fill="#E6E7E8"></path>
            <path d="M404,353 C398.47667,353 394,357.594747 394,363.26204 C394,365.844236 394.935956,368.196129 396.470265,370 L411.529735,370 C413.064044,368.196129 414,365.844236 414,363.26204 C414,357.594747 409.522415,353 404,353" id="Fill-245" fill="#E6E7E8"></path>
            <path d="M430,353 C424.477585,353 420,357.594747 420,363.26204 C420,365.844236 420.935956,368.196129 422.470265,370 L437.529735,370 C439.064044,368.196129 440,365.844236 440,363.26204 C440,357.594747 435.522415,353 430,353" id="Fill-247" fill="#E6E7E8"></path>
            <path d="M379.000457,353 C373.47738,353 369,357.594747 369,363.26204 C369,365.844236 369.936828,368.196129 371.471067,370 L386.529848,370 C388.064087,368.196129 389,365.844236 389,363.26204 C389,357.594747 384.52262,353 379.000457,353" id="Fill-249" fill="#E6E7E8"></path>
            <path d="M354.000457,353 C348.47738,353 344,357.594747 344,363.26204 C344,365.844236 344.936828,368.196129 346.471067,370 L361.529848,370 C363.064087,368.196129 364,365.844236 364,363.26204 C364,357.594747 359.52262,353 354.000457,353" id="Fill-251" fill="#E6E7E8"></path>
            <path d="M455,353 C449.477585,353 445,357.594747 445,363.26204 C445,365.844236 445.935956,368.196129 447.470265,370 L462.529735,370 C464.064044,368.196129 465,365.844236 465,363.26204 C465,357.594747 460.522415,353 455,353" id="Fill-253" fill="#E6E7E8"></path>
            <path d="M480,353 C474.477585,353 470,357.594747 470,363.26204 C470,365.844236 470.935956,368.196129 472.470265,370 L487.53065,370 C489.064044,368.196129 490,365.844236 490,363.26204 C490,357.594747 485.522415,353 480,353" id="Fill-255" fill="#E6E7E8"></path>
            <path d="M571.111786,361 C571.046029,361.46014 571,361.926723 571,362.403428 C571,364.931439 571.96004,367.233981 573.535371,369 L584,369 L571.111786,361 Z" id="Fill-257" fill="#E6E7E8"></path>
            <g id="Group-261" transform="translate(16.000000, 352.000000)">
                <mask id="mask-2" fill="white">
                    <use xlink:href="#path-1"></use>
                </mask>
                <g id="Clip-260"></g>
                <path d="M10.5227348,0.807142105 C5.0106913,0.807142105 0.543169565,5.18061579 0.543169565,10.5749842 C0.543169565,13.0381947 1.48177826,15.2821947 3.01843043,17.0000895 L18.0270391,17.0000895 C19.5636913,15.2821947 20.5023,13.0381947 20.5023,10.5749842 C20.5023,5.18061579 16.0338652,0.807142105 10.5227348,0.807142105" id="Fill-259" fill="#E6E7E8" mask="url(#mask-2)"></path>
            </g>
            <path d="M529.999543,353 C524.47738,353 520,357.594747 520,363.26204 C520,365.844236 520.935913,368.196129 522.470152,370 L537.529848,370 C539.063172,368.196129 540,365.844236 540,363.26204 C540,357.594747 535.52262,353 529.999543,353" id="Fill-262" fill="#E6E7E8"></path>
            <path d="M329.000457,353 C323.47738,353 319,357.594747 319,363.26204 C319,365.844236 319.936828,368.196129 321.470152,370 L336.529848,370 C338.064087,368.196129 339,365.844236 339,363.26204 C339,357.594747 334.52262,353 329.000457,353" id="Fill-264" fill="#E6E7E8"></path>
            <path d="M127,227 C121.47667,227 117,231.477421 117,237 C117,242.522579 121.47667,247 127,247 C132.52333,247 137,242.522579 137,237 C137,231.477421 132.52333,227 127,227" id="Fill-266" fill="#E6E7E8"></path>
            <path d="M563.883903,356.965883 L558.180596,353.252861 C557.47706,353.092121 556.749737,353 555.999543,353 C550.47738,353 546,357.594747 546,363.26204 C546,365.844236 546.936828,368.196129 548.469237,370 L563.529848,370 C565.063172,368.196129 566,365.844236 566,363.26204 C566,360.886646 565.204977,358.704894 563.883903,356.965883" id="Fill-268" fill="#E6E7E8"></path>
            <path d="M127,353 C121.47667,353 117,357.594747 117,363.26204 C117,365.844236 117.935956,368.196129 119.470265,370 L134.53065,370 C136.064044,368.196129 137,365.844236 137,363.26204 C137,357.594747 132.52333,353 127,353" id="Fill-270" fill="#E6E7E8"></path>
            <path d="M102,353 C96.4766697,353 92,357.594747 92,363.26204 C92,365.844236 92.9359561,368.196129 94.4702653,370 L109.53065,370 C111.064044,368.196129 112,365.844236 112,363.26204 C112,357.594747 107.52333,353 102,353" id="Fill-272" fill="#E6E7E8"></path>
            <path d="M152,353 C146.47667,353 142,357.594747 142,363.26204 C142,365.844236 142.935956,368.196129 144.46935,370 L159.529735,370 C161.064044,368.196129 162,365.844236 162,363.26204 C162,357.594747 157.522415,353 152,353" id="Fill-274" fill="#E6E7E8"></path>
            <path d="M77,353 C71.4766697,353 67,357.594747 67,363.26204 C67,365.844236 67.9359561,368.197069 69.4702653,370 L84.5297347,370 C86.0640439,368.196129 87,365.844236 87,363.26204 C87,357.594747 82.5233303,353 77,353" id="Fill-276" fill="#E6E7E8"></path>
            <path d="M51,353 C45.4766697,353 41,357.594747 41,363.26204 C41,365.844236 41.9359561,368.197069 43.4702653,370 L58.5297347,370 C60.0640439,368.197069 61,365.844236 61,363.26204 C61,357.594747 56.5233303,353 51,353" id="Fill-278" fill="#E6E7E8"></path>
            <path d="M303.000457,353 C297.47738,353 293,357.594747 293,363.26204 C293,365.844236 293.936828,368.196129 295.470152,370 L310.529848,370 C312.063172,368.196129 313,365.844236 313,363.26204 C313,357.594747 308.52262,353 303.000457,353" id="Fill-280" fill="#E6E7E8"></path>
            <path d="M278,353 C272.47667,353 268,357.594747 268,363.26204 C268,365.844236 268.935956,368.196129 270.46935,370 L285.53065,370 C287.064044,368.196129 288,365.844236 288,363.26204 C288,357.594747 283.52333,353 278,353" id="Fill-282" fill="#E6E7E8"></path>
            <path d="M253,353 C247.47667,353 243,357.594747 243,363.26204 C243,365.844236 243.935956,368.196129 245.46935,370 L260.529735,370 C262.064044,368.196129 263,365.844236 263,363.26204 C263,357.594747 258.522415,353 253,353" id="Fill-284" fill="#E6E7E8"></path>
            <path d="M203,353 C197.47667,353 193,357.594747 193,363.26204 C193,365.844236 193.935956,368.196129 195.46935,370 L210.529735,370 C212.064044,368.196129 213,365.844236 213,363.26204 C213,357.594747 208.522415,353 203,353" id="Fill-286" fill="#E6E7E8"></path>
            <path d="M228,353 C222.47667,353 218,357.594747 218,363.26204 C218,365.844236 218.935956,368.196129 220.46935,370 L235.529735,370 C237.064044,368.196129 238,365.844236 238,363.26204 C238,357.594747 233.522415,353 228,353" id="Fill-288" fill="#E6E7E8"></path>
            <path d="M177,353 C171.47667,353 167,357.594747 167,363.26204 C167,365.844236 167.935956,368.196129 169.46935,370 L184.529735,370 C186.064044,368.196129 187,365.844236 187,363.26204 C187,357.594747 182.522415,353 177,353" id="Fill-290" fill="#E6E7E8"></path>
            <path d="M505,353 C499.477585,353 495,357.594747 495,363.26204 C495,365.844236 495.935956,368.196129 497.470265,370 L512.53065,370 C514.064044,368.196129 515,365.844236 515,363.26204 C515,357.594747 510.52333,353 505,353" id="Fill-292" fill="#E6E7E8"></path>
            <path d="M102,101 C96.4766697,101 92,105.477421 92,111 C92,116.522579 96.4766697,121 102,121 C107.52333,121 112,116.522579 112,111 C112,105.477421 107.52333,101 102,101" id="Fill-294" fill="#E6E7E8"></path>
            <path d="M102,76 C96.4766697,76 92,80.4774205 92,86 C92,91.5225795 96.4766697,96 102,96 C107.52333,96 112,91.5225795 112,86 C112,80.4774205 107.52333,76 102,76" id="Fill-296" fill="#E6E7E8"></path>
            <path d="M102,202 C96.4766697,202 92,206.477421 92,212 C92,217.522579 96.4766697,222 102,222 C107.52333,222 112,217.522579 112,212 C112,206.477421 107.52333,202 102,202" id="Fill-298" fill="#E6E7E8"></path>
            <path d="M102,151 C96.4766697,151 92,155.477421 92,161 C92,166.522579 96.4766697,171 102,171 C107.52333,171 112,166.522579 112,161 C112,155.477421 107.52333,151 102,151" id="Fill-300" fill="#E6E7E8"></path>
            <path d="M102,176 C96.4766697,176 92,180.477421 92,186 C92,191.523495 96.4766697,196 102,196 C107.52333,196 112,191.523495 112,186 C112,180.477421 107.52333,176 102,176" id="Fill-302" fill="#E6E7E8"></path>
            <path d="M102,126 C96.4766697,126 92,130.477421 92,136 C92,141.522579 96.4766697,146 102,146 C107.52333,146 112,141.522579 112,136 C112,130.477421 107.52333,126 102,126" id="Fill-304" fill="#E6E7E8"></path>
            <path d="M77,277 C71.4766697,277 67,281.477421 67,287 C67,292.522579 71.4766697,297 77,297 C82.5233303,297 87,292.522579 87,287 C87,281.477421 82.5233303,277 77,277" id="Fill-306" fill="#E6E7E8"></path>
            <path d="M101.883018,70 C104.195083,70 106.316361,69.2080717 108,67.8896861 L92.2613168,58 C92.0958463,58.7112108 92,59.4484305 92,60.2089686 C92,65.6161435 96.4243006,70 101.883018,70" id="Fill-308" fill="#E6E7E8"></path>
            <path d="M77,252 C71.4766697,252 67,256.477421 67,262 C67,267.522579 71.4766697,272 77,272 C82.5233303,272 87,267.522579 87,262 C87,256.477421 82.5233303,252 77,252" id="Fill-310" fill="#E6E7E8"></path>
            <path d="M77,328 C71.4766697,328 67,332.477421 67,338 C67,343.522579 71.4766697,348 77,348 C82.5233303,348 87,343.522579 87,338 C87,332.477421 82.5233303,328 77,328" id="Fill-312" fill="#E6E7E8"></path>
            <path d="M77,302 C71.4766697,302 67,306.477421 67,312 C67,317.522579 71.4766697,322 77,322 C82.5233303,322 87,317.522579 87,312 C87,306.477421 82.5233303,302 77,302" id="Fill-314" fill="#E6E7E8"></path>
            <path d="M102,252 C96.4766697,252 92,256.477421 92,262 C92,267.522579 96.4766697,272 102,272 C107.52333,272 112,267.522579 112,262 C112,256.477421 107.52333,252 102,252" id="Fill-316" fill="#E6E7E8"></path>
            <path d="M127,126 C121.47667,126 117,130.477421 117,136 C117,141.522579 121.47667,146 127,146 C132.52333,146 137,141.522579 137,136 C137,130.477421 132.52333,126 127,126" id="Fill-318" fill="#E6E7E8"></path>
            <path d="M127,151 C121.47667,151 117,155.477421 117,161 C117,166.522579 121.47667,171 127,171 C132.52333,171 137,166.522579 137,161 C137,155.477421 132.52333,151 127,151" id="Fill-320" fill="#E6E7E8"></path>
            <path d="M127,202 C121.47667,202 117,206.477421 117,212 C117,217.522579 121.47667,222 127,222 C132.52333,222 137,217.522579 137,212 C137,206.477421 132.52333,202 127,202" id="Fill-322" fill="#E6E7E8"></path>
            <path d="M127,176 C121.47667,176 117,180.477421 117,186 C117,191.523495 121.47667,196 127,196 C132.52333,196 137,191.523495 137,186 C137,180.477421 132.52333,176 127,176" id="Fill-324" fill="#E6E7E8"></path>
            <path d="M127,101 C121.47667,101 117,105.477421 117,111 C117,116.522579 121.47667,121 127,121 C132.52333,121 137,116.522579 137,111 C137,105.477421 132.52333,101 127,101" id="Fill-326" fill="#E6E7E8"></path>
            <path d="M102,227 C96.4766697,227 92,231.477421 92,237 C92,242.522579 96.4766697,247 102,247 C107.52333,247 112,242.522579 112,237 C112,231.477421 107.52333,227 102,227" id="Fill-328" fill="#E6E7E8"></path>
            <path d="M102,277 C96.4766697,277 92,281.477421 92,287 C92,292.522579 96.4766697,297 102,297 C107.52333,297 112,292.522579 112,287 C112,281.477421 107.52333,277 102,277" id="Fill-330" fill="#E6E7E8"></path>
            <path d="M77,227 C71.4766697,227 67,231.477421 67,237 C67,242.522579 71.4766697,247 77,247 C82.5233303,247 87,242.522579 87,237 C87,231.477421 82.5233303,227 77,227" id="Fill-332" fill="#E6E7E8"></path>
            <path d="M102,302 C96.4766697,302 92,306.477421 92,312 C92,317.522579 96.4766697,322 102,322 C107.52333,322 112,317.522579 112,312 C112,306.477421 107.52333,302 102,302" id="Fill-334" fill="#E6E7E8"></path>
            <path d="M117,85.7765784 C117,91.4225442 121.487756,96 127.024764,96 C132.232505,96 136.511144,91.9488393 137,86.7673616 L121.901403,77 C118.969183,78.7849081 117,82.0419439 117,85.7765784" id="Fill-336" fill="#E6E7E8"></path>
            <path d="M102,328 C96.4766697,328 92,332.477421 92,338 C92,343.522579 96.4766697,348 102,348 C107.52333,348 112,343.522579 112,338 C112,332.477421 107.52333,328 102,328" id="Fill-338" fill="#E6E7E8"></path>
            <path d="M51,202 C45.4766697,202 41,206.477421 41,212 C41,217.522579 45.4766697,222 51,222 C56.5233303,222 61,217.522579 61,212 C61,206.477421 56.5233303,202 51,202" id="Fill-340" fill="#E6E7E8"></path>
            <path d="M51,76 C45.4766697,76 41,80.4774205 41,86 C41,91.5225795 45.4766697,96 51,96 C56.5233303,96 61,91.5225795 61,86 C61,80.4774205 56.5233303,76 51,76" id="Fill-342" fill="#E6E7E8"></path>
            <path d="M51,101 C45.4766697,101 41,105.477421 41,111 C41,116.522579 45.4766697,121 51,121 C56.5233303,121 61,116.522579 61,111 C61,105.477421 56.5233303,101 51,101" id="Fill-344" fill="#E6E7E8"></path>
            <path d="M51,126 C45.4766697,126 41,130.477421 41,136 C41,141.522579 45.4766697,146 51,146 C56.5233303,146 61,141.522579 61,136 C61,130.477421 56.5233303,126 51,126" id="Fill-346" fill="#E6E7E8"></path>
            <path d="M51,151 C45.4766697,151 41,155.477421 41,161 C41,166.522579 45.4766697,171 51,171 C56.5233303,171 61,166.522579 61,161 C61,155.477421 56.5233303,151 51,151" id="Fill-348" fill="#E6E7E8"></path>
            <path d="M51,176 C45.4766697,176 41,180.477421 41,186 C41,191.523495 45.4766697,196 51,196 C56.5233303,196 61,191.523495 61,186 C61,180.477421 56.5233303,176 51,176" id="Fill-350" fill="#E6E7E8"></path>
            <path d="M41,35.1261439 C41,40.5790594 45.3682059,45 50.7557195,45 C55.0587683,45 58.7039977,42.1763141 60,38.2636731 L44.0132945,28 C42.15944,29.7971377 41,32.3223558 41,35.1261439" id="Fill-352" fill="#E6E7E8"></path>
            <path d="M26,277 C20.4766697,277 16,281.477421 16,287 C16,292.522579 20.4766697,297 26,297 C31.5224154,297 36,292.522579 36,287 C36,281.477421 31.5224154,277 26,277" id="Fill-354" fill="#E6E7E8"></path>
            <path d="M26,328 C20.4766697,328 16,332.477421 16,338 C16,343.522579 20.4766697,348 26,348 C31.5224154,348 36,343.522579 36,338 C36,332.477421 31.5224154,328 26,328" id="Fill-356" fill="#E6E7E8"></path>
            <path d="M51,50 C45.4766697,50 41,54.4774205 41,60 C41,65.5225795 45.4766697,70 51,70 C56.5233303,70 61,65.5225795 61,60 C61,54.4774205 56.5233303,50 51,50" id="Fill-358" fill="#E6E7E8"></path>
            <path d="M26,302 C20.4766697,302 16,306.477421 16,312 C16,317.522579 20.4766697,322 26,322 C31.5224154,322 36,317.522579 36,312 C36,306.477421 31.5224154,302 26,302" id="Fill-360" fill="#E6E7E8"></path>
            <path d="M26,252 C20.4766697,252 16,256.477421 16,262 C16,267.522579 20.4766697,272 26,272 C31.5224154,272 36,267.522579 36,262 C36,256.477421 31.5224154,252 26,252" id="Fill-362" fill="#E6E7E8"></path>
            <path d="M77,50 C71.4766697,50 67,54.4774205 67,60 C67,65.5225795 71.4766697,70 77,70 C82.5233303,70 87,65.5225795 87,60 C87,54.4774205 82.5233303,50 77,50" id="Fill-364" fill="#E6E7E8"></path>
            <path d="M51,227 C45.4766697,227 41,231.477421 41,237 C41,242.522579 45.4766697,247 51,247 C56.5233303,247 61,242.522579 61,237 C61,231.477421 56.5233303,227 51,227" id="Fill-366" fill="#E6E7E8"></path>
            <path d="M77,126 C71.4766697,126 67,130.477421 67,136 C67,141.522579 71.4766697,146 77,146 C82.5233303,146 87,141.522579 87,136 C87,130.477421 82.5233303,126 77,126" id="Fill-368" fill="#E6E7E8"></path>
            <path d="M77,101 C71.4766697,101 67,105.477421 67,111 C67,116.522579 71.4766697,121 77,121 C82.5233303,121 87,116.522579 87,111 C87,105.477421 82.5233303,101 77,101" id="Fill-370" fill="#E6E7E8"></path>
            <path d="M77,176 C71.4766697,176 67,180.477421 67,186 C67,191.523495 71.4766697,196 77,196 C82.5233303,196 87,191.523495 87,186 C87,180.477421 82.5233303,176 77,176" id="Fill-372" fill="#E6E7E8"></path>
            <path d="M77,151 C71.4766697,151 67,155.477421 67,161 C67,166.522579 71.4766697,171 77,171 C82.5233303,171 87,166.522579 87,161 C87,155.477421 82.5233303,151 77,151" id="Fill-374" fill="#E6E7E8"></path>
            <path d="M77,76 C71.4766697,76 67,80.4774205 67,86 C67,91.5225795 71.4766697,96 77,96 C82.5233303,96 87,91.5225795 87,86 C87,80.4774205 82.5233303,76 77,76" id="Fill-376" fill="#E6E7E8"></path>
            <path d="M51,277 C45.4766697,277 41,281.477421 41,287 C41,292.522579 45.4766697,297 51,297 C56.5233303,297 61,292.522579 61,287 C61,281.477421 56.5233303,277 51,277" id="Fill-378" fill="#E6E7E8"></path>
            <path d="M51,252 C45.4766697,252 41,256.477421 41,262 C41,267.522579 45.4766697,272 51,272 C56.5233303,272 61,267.522579 61,262 C61,256.477421 56.5233303,252 51,252" id="Fill-380" fill="#E6E7E8"></path>
            <path d="M51,328 C45.4766697,328 41,332.477421 41,338 C41,343.522579 45.4766697,348 51,348 C56.5233303,348 61,343.522579 61,338 C61,332.477421 56.5233303,328 51,328" id="Fill-382" fill="#E6E7E8"></path>
            <path d="M51,302 C45.4766697,302 41,306.477421 41,312 C41,317.522579 45.4766697,322 51,322 C56.5233303,322 61,317.522579 61,312 C61,306.477421 56.5233303,302 51,302" id="Fill-384" fill="#E6E7E8"></path>
            <path d="M77,202 C71.4766697,202 67,206.477421 67,212 C67,217.522579 71.4766697,222 77,222 C82.5233303,222 87,217.522579 87,212 C87,206.477421 82.5233303,202 77,202" id="Fill-386" fill="#E6E7E8"></path>
        </g>
    </g>
</svg>