<?xml version="1.0" encoding="UTF-8"?>
<svg width="497px" height="222px" viewBox="0 0 497 222" version="1.1" xmlns="http://www.w3.org/2000/svg" xmlns:xlink="http://www.w3.org/1999/xlink">
    <path d="M466.448003,203.72408 C459.080087,184.290724 443.56424,158.379623 423.407885,133.47137 C395.858291,99.4269079 362.110556,69.7770863 324.986455,49.0149209 C281.236256,24.5470183 234.446668,13.2047714 185.74562,17.5048551 C129.698487,22.4535651 72.1001785,47.9927849 13.6019125,96.654429 C10.0774416,99.5862518 4.84570517,99.1032603 1.91650212,95.5756373 C-1.01270094,92.0480143 -0.530141008,86.8115989 2.99432989,83.8797761 C63.9818121,33.1474834 124.714525,6.21846144 184.287257,0.958456899 C236.472812,-3.64929312 286.546671,8.4890928 333.081591,34.5143891 C372.159862,56.3694507 407.490247,87.409745 436.304223,123.016669 C451.985269,142.394551 465.056752,162.43352 474.072527,180.203748 C471.717047,162.034421 471.760842,146.921643 473.886885,130.563587 C474.47804,126.015163 478.641757,122.805275 483.186808,123.394102 C487.731859,123.98293 490.937125,128.147495 490.34597,132.695919 C487.274846,156.325558 488.945184,177.126113 496.783361,211.804793 C497.919293,216.830528 494.253517,221.670048 489.110242,221.934769 C488.810371,221.950203 488.314323,221.967308 487.631965,221.978653 C486.551769,221.996611 485.305345,221.993899 483.902549,221.963045 C479.958947,221.876308 475.510638,221.587004 470.636448,221.034717 C455.499671,219.319591 439.575229,215.496581 423.662375,208.945099 C419.424669,207.200393 417.40481,202.34756 419.150892,198.105994 C420.896975,193.864428 425.747794,191.840323 429.985499,193.585029 C442.274033,198.644342 454.593565,201.911128 466.448003,203.72408 Z" id="arrow-497" fill="#000000"></path>
</svg>