<?xml version="1.0" encoding="UTF-8"?>
<svg width="332px" height="109px" viewBox="0 0 332 109" version="1.1" xmlns="http://www.w3.org/2000/svg" xmlns:xlink="http://www.w3.org/1999/xlink">
    <path d="M309.91315,69.9400185 C310.041206,67.1402161 310.272318,64.3456067 310.588018,61.5855895 C310.821801,59.5417378 311.087071,57.6571819 311.363458,55.9696251 C311.461799,55.3691812 311.555234,54.832891 311.641246,54.3655471 C311.672461,54.1959376 311.700868,54.0454255 311.726153,53.9146133 C311.75389,53.772384 311.75389,53.772384 311.765029,53.7170156 C312.670925,49.2328383 317.043573,46.3339173 321.531612,47.2420943 C326.018384,48.1500148 328.921912,52.5191697 328.018423,57.0020168 C328.017413,57.0072222 328.013959,57.024914 328.005736,57.0670376 C327.989731,57.1498404 327.970461,57.2519431 327.948235,57.3727071 C327.881556,57.735002 327.806729,58.1644929 327.726223,58.6560442 C327.49162,60.0884736 327.263427,61.709619 327.061182,63.477756 C326.484817,68.51664 326.236753,73.672006 326.460168,78.5887369 C326.802088,86.1134683 328.232558,92.271774 330.732286,96.3528841 C335.219849,103.679374 326.964648,112.142853 319.520367,107.847679 C319.529435,107.852911 319.497324,107.834842 319.425115,107.795262 C319.272041,107.711359 319.08094,107.60947 318.852899,107.491384 C318.161775,107.133498 317.335319,106.731849 316.38234,106.30065 C313.597856,105.040742 310.406659,103.828493 306.88068,102.775107 C296.837236,99.7746282 286.241074,98.6710895 275.618732,100.266008 C271.091443,100.94577 266.867486,97.8290424 266.184261,93.3046026 C265.501035,88.7801628 268.617264,84.5613241 273.144553,83.8815626 C282.455373,82.4835655 291.644564,82.7373687 300.531739,84.2811515 C293.044511,75.8378775 284.50838,67.4670359 274.970923,59.5725106 C244.822376,34.6173817 210.351783,18.9211135 171.972921,16.8087599 C122.768894,14.1005946 69.9488647,33.9854101 13.638307,81.452379 C10.1385634,84.4024868 4.90758088,83.9596981 1.95458047,80.4633826 C-0.998419947,76.9670672 -0.555197054,71.7412085 2.94454651,68.7911007 C62.3349273,18.7279957 119.217555,-2.68623961 172.885125,0.267596942 C215.168328,2.59484356 252.863184,19.7592875 285.550691,46.8160123 C294.512146,54.2337587 302.63862,62.032886 309.91315,69.9400185 Z" id="arrow-332" fill="#000000"></path>
</svg>