<?xml version="1.0" encoding="UTF-8"?>
<svg width="139px" height="445px" viewBox="0 0 139 445" version="1.1" xmlns="http://www.w3.org/2000/svg" xmlns:xlink="http://www.w3.org/1999/xlink">
    <!-- Generator: Sketch 52.5 (67469) - http://www.bohemiancoding.com/sketch -->
    <title>Slice</title>
    <desc>Created with Sketch.</desc>
    <g id="Page-1" stroke="none" stroke-width="1" fill="none" fill-rule="evenodd">
        <path d="M261.137204,263.394123 C260.625809,262.774321 260.104753,262.148089 259.574061,261.5157 C248.083745,247.823468 234.529882,234.118472 219.016291,221.335916 C178.116912,187.636527 131.296793,166.414245 79.1105703,163.55506 C12.2977732,159.894512 -59.2962781,186.723962 -135.402437,250.584618 C-138.913956,253.531133 -144.149228,253.073107 -147.095743,249.561587 C-150.042258,246.050068 -149.584231,240.814796 -146.072712,237.868281 C-66.8873807,171.423892 8.75928407,143.075749 80.0186912,146.979919 C136.095481,150.052261 186.134387,172.73353 229.572306,208.524572 C245.917116,221.992017 260.178102,236.412021 272.289864,250.844789 C273.305182,252.054674 274.288176,253.244502 275.238722,254.412679 C274.903022,250.354181 274.430051,245.962566 273.832916,241.314407 C273.121601,235.777457 272.284619,230.257683 271.398875,225.021632 C271.089147,223.19069 270.795807,221.527943 270.528478,220.066244 C270.435489,219.557795 270.35259,219.111785 270.280985,218.732306 C270.241772,218.525042 270.241772,218.525042 270.216797,218.394287 C270.207092,218.343638 270.207092,218.343638 270.201172,218.312883 L270.197674,218.294753 C269.324424,213.791802 272.26503,209.436266 276.765153,208.563563 C281.265277,207.69086 285.620813,210.631466 286.493595,215.131997 L286.495967,215.144254 L286.501388,215.172348 C286.509246,215.213173 286.509246,215.213173 286.520914,215.274065 C286.549851,215.425572 286.549851,215.425572 286.593128,215.654323 C286.670414,216.063907 286.758981,216.540416 286.857633,217.079823 C287.137851,218.612 287.443947,220.347047 287.766341,222.252868 C288.686656,227.693284 289.555993,233.42643 290.297608,239.199239 C292.476073,256.156652 293.152351,269.906125 291.569933,279.051835 C290.70564,284.047088 285.604433,287.107369 280.790333,285.518659 C280.60706,285.458177 280.200546,285.328468 279.582871,285.138496 C278.522095,284.812245 277.274051,284.443558 275.850855,284.04139 C271.751185,282.8829 267.094209,281.697116 261.977451,280.555434 C247.356651,277.293153 232.040184,275.050657 216.82536,274.386643 C212.245756,274.186778 208.695276,270.312252 208.895142,265.732648 C209.095007,261.153044 212.969533,257.602564 217.549137,257.80243 C232.272681,258.445003 246.982309,260.454416 261.137204,263.394123 Z" id="Combined-Shape" fill="#24DBC3" fill-rule="nonzero" transform="translate(71.699702, 216.283631) scale(1, -1) rotate(-98.000000) translate(-71.699702, -216.283631) "></path>
    </g>
</svg>