<?xml version="1.0" encoding="UTF-8"?>
<svg width="393px" height="127px" viewBox="0 0 393 127" version="1.1" xmlns="http://www.w3.org/2000/svg" xmlns:xlink="http://www.w3.org/1999/xlink">
    <!-- Generator: Sketch 52.5 (67469) - http://www.bohemiancoding.com/sketch -->
    <title>Slice</title>
    <desc>Created with Sketch.</desc>
    <g id="Page-1" stroke="none" stroke-width="1" fill="none" fill-rule="evenodd">
        <path d="M368.924955,84.4110641 C369.01496,79.9890063 369.335519,75.5532448 369.834641,71.1898307 C370.110917,68.7745726 370.42414,66.5483987 370.750095,64.5567652 C370.865784,63.8498904 370.975529,63.2194623 371.076333,62.6712431 C371.112726,62.4733245 371.14575,62.2981823 371.175032,62.1465403 C371.206824,61.9833549 371.206824,61.9833549 371.218819,61.9236858 C372.125609,57.430307 376.503311,54.5228021 380.99669,55.429592 C385.490068,56.3363818 388.397573,60.7140834 387.490783,65.2074622 C387.492177,65.2003268 387.492177,65.2003268 387.473936,65.293877 C387.453929,65.3974872 387.430037,65.5241976 387.40263,65.6732485 C387.321151,66.1163709 387.230005,66.6399519 387.132146,67.2378867 C386.847964,68.974281 386.571818,70.9369342 386.327093,73.0763673 C385.629361,79.1760735 385.32799,85.41838 385.596958,91.3861038 C385.912169,98.3798297 386.998188,104.437679 388.871745,109.199807 C389.029648,109.432609 389.152871,109.617263 389.241276,109.752096 C389.803219,110.609158 390.186037,111.531788 390.398896,112.475916 C390.56591,112.778767 390.737239,113.074075 390.912888,113.361693 C395.397119,120.704404 387.122469,129.179771 379.674412,124.872779 C379.675345,124.873319 379.627084,124.846101 379.530904,124.793266 C379.337832,124.687206 379.099302,124.559752 378.816597,124.413043 C377.969233,123.973304 376.959933,123.481761 375.799064,122.955424 C372.420558,121.423608 368.553863,119.951991 364.283402,118.674123 C352.113302,115.032411 339.264178,113.694904 326.362078,115.641349 C321.829405,116.32516 317.600609,113.20504 316.916798,108.672368 C316.232987,104.139695 319.353107,99.9108991 323.88578,99.2270882 C336.621399,97.3057595 349.172963,98.0276544 361.199209,100.719604 C351.471373,89.4603367 340.152743,78.2371145 327.320147,67.7234297 C291.126815,38.0704047 249.708753,19.4029786 203.556604,16.8886996 C144.439918,13.6681379 81.0574649,37.2859131 13.6175618,93.5544501 C10.0978255,96.491145 4.86385386,96.0184964 1.92715901,92.4987601 C-1.00953584,88.9790237 -0.536887305,83.7450521 2.98284906,80.8083572 C73.4978562,21.9741046 140.918319,-3.14832688 204.459601,0.313278134 C254.484095,3.03851496 299.111818,23.1525589 337.840456,54.8827485 C349.376352,64.3340532 359.747144,74.3143113 368.924955,84.4110641 Z" id="Combined-Shape" fill="#0073E3" fill-rule="nonzero" transform="translate(196.090737, 63.019524) scale(1, -1) translate(-196.090737, -63.019524) "></path>
    </g>
</svg>