<?xml version="1.0" encoding="UTF-8"?>
<svg width="190px" height="346px" viewBox="0 0 190 346" version="1.1" xmlns="http://www.w3.org/2000/svg" xmlns:xlink="http://www.w3.org/1999/xlink">
    <!-- Generator: Sketch 52.5 (67469) - http://www.bohemiancoding.com/sketch -->
    <title>Slice</title>
    <desc>Created with Sketch.</desc>
    <g id="Page-1" stroke="none" stroke-width="1" fill="none" fill-rule="evenodd">
        <path d="M238.60563,194.727692 C229.159472,183.559793 218.018052,172.380141 205.269964,161.953009 C171.634372,134.441219 133.153015,117.126143 90.2821711,114.794495 C35.350447,111.806884 -23.5678617,133.724815 -86.2978798,185.976878 C-89.8200117,188.9107 -95.0535959,188.43378 -97.9874171,184.911648 C-100.921238,181.389516 -100.444318,176.155932 -96.9221864,173.22211 C-31.1182694,118.409589 31.8337747,94.9910865 91.183675,98.2189926 C137.921548,100.760959 179.609887,119.519049 215.779826,149.103776 C228.836244,159.783101 240.293701,171.186478 250.107035,182.630334 C249.954398,181.280857 249.787297,179.899262 249.606248,178.488942 C249.020615,173.927011 248.331235,169.377365 247.601722,165.061745 C247.346675,163.552953 247.105187,162.183131 246.885221,160.979534 C246.808808,160.561419 246.74074,160.194936 246.682013,159.883478 C246.649934,159.7138 246.649934,159.7138 246.629621,159.607374 C246.615439,159.533422 246.615439,159.533422 246.614018,159.526108 C245.741923,155.025867 248.683118,150.670729 253.183359,149.798634 C257.6836,148.92654 262.038739,151.867734 262.910833,156.367975 C262.916065,156.394992 262.916065,156.394992 262.934154,156.489329 C262.958424,156.616493 262.958424,156.616493 262.994562,156.807645 C263.058962,157.149189 263.132691,157.54615 263.214758,157.995204 C263.447595,159.269232 263.701821,160.711306 263.969517,162.294928 C264.733554,166.814777 265.455243,171.577651 266.071133,176.37528 C267.890302,190.546133 268.454596,202.027163 267.114059,209.780512 C266.25018,214.776981 261.147418,217.837871 256.332589,216.24777 C256.19019,216.200743 255.863333,216.096375 255.36203,215.942083 C254.495194,215.675287 253.473677,215.3733 252.30753,215.04353 C248.942267,214.091883 245.117004,213.117169 240.912744,212.17841 C228.8991,209.495912 216.314669,207.652082 203.824611,207.10659 C199.245013,206.90658 195.694655,203.031942 195.894665,198.452344 C196.094675,193.872747 199.969313,190.322389 204.548911,190.522399 C216.040287,191.024275 227.51413,192.52577 238.60563,194.727692 Z" id="Combined-Shape" fill="#24DBC3" fill-rule="nonzero" transform="translate(83.971300, 157.298479) scale(1, -1) rotate(-116.000000) translate(-83.971300, -157.298479) "></path>
    </g>
</svg>