<?xml version="1.0" encoding="UTF-8"?>
<svg width="22px" height="18px" viewBox="0 0 22 18" version="1.1" xmlns="http://www.w3.org/2000/svg" xmlns:xlink="http://www.w3.org/1999/xlink">
    <!-- Generator: Sketch 52.5 (67469) - http://www.bohemiancoding.com/sketch -->
    <title>icon</title>
    <desc>Created with Sketch.</desc>
    <defs>
        <path d="M10.97069,7.57352686 L16.6632475,4.14361248 C17.1362997,3.85858616 17.7508438,4.0110113 18.0358702,4.48406356 L18.037529,4.48681667 C18.3219067,4.9587924 18.1708905,5.57187774 17.6998328,5.85777344 L11.0099578,9.91801115 L11.0036985,9.92839949 L4.48406356,6.00014937 C4.0110113,5.71512304 3.85858616,5.10057893 4.14361248,4.62752667 C4.42863881,4.15447441 5.04318292,4.00204928 5.51623518,4.2870756 L10.97069,7.57352686 Z M3,0 L19,0 C20.6522847,0 22,1.34771525 22,3 L22,15 C22,16.6522847 20.6522847,18 19,18 L3,18 C1.34771525,18 1.42108548e-14,16.6522847 3.47222056e-07,14.9991667 L0.01,3 C0.01,1.34734877 1.34805671,0 3,0 Z M3,2 C2.4557364,2 2.01,2.44883179 2.00999965,3.00083333 L2,15 C2,15.5477153 2.45228475,16 3,16 L19,16 C19.5477153,16 20,15.5477153 20,15 L20,3 C20,2.45228475 19.5477153,2 19,2 L3,2 Z" id="path-1"></path>
    </defs>
    <g id="Page-1" stroke="none" stroke-width="1" fill="none" fill-rule="evenodd" opacity="0.75">
        <g id="icon">
            <mask id="mask-2" fill="white">
                <use xlink:href="#path-1"></use>
            </mask>
            <use id="Mask" fill="#979797" fill-rule="nonzero" xlink:href="#path-1"></use>
            <g id="↪🎨" mask="url(#mask-2)" fill="#C2D1D9">
                <g transform="translate(-1.000000, -3.000000)" id="Atoms-/-Colors-/-Black">
                    <rect x="0" y="0" width="24" height="24"></rect>
                </g>
            </g>
        </g>
    </g>
</svg>