<?xml version="1.0" encoding="UTF-8"?>
<svg width="146px" height="152px" viewBox="0 0 146 152" version="1.1" xmlns="http://www.w3.org/2000/svg" xmlns:xlink="http://www.w3.org/1999/xlink">
    <!-- Generator: Sketch 52.5 (67469) - http://www.bohemiancoding.com/sketch -->
    <title>icon-chain</title>
    <desc>Created with Sketch.</desc>
    <g id="Page-1" stroke="none" stroke-width="1" fill="none" fill-rule="evenodd">
        <g id="row-3" transform="translate(-438.000000, 0.000000)">
            <g id="icon-chain" transform="translate(462.000000, 27.000000)">
                <path d="M0,48.0857838 C0,21.8418171 22,0 50.26,0 C76.63,0 98,21.8616913 98,48.0857838 C98,76.1581829 76.63,98 50.26,98 C21.98,98 0,76.1383087 0,48.0857838" id="Path" fill="#0073E3"></path>
                <path d="M64.96,58.1 L57.24,65.82 C55.1860502,67.9594917 52.1359169,68.8213895 49.2659947,68.0732711 C46.3960725,67.3251528 44.1548472,65.0839275 43.4067289,62.2140053 C42.6586105,59.3440831 43.5205083,56.2939498 45.66,54.24 L61.1,38.81 C62.634522,37.2723604 64.7176526,36.408261 66.89,36.408261 C69.0623474,36.408261 71.145478,37.2723604 72.68,38.81 C73.7519996,39.8391385 75.4502439,39.821819 76.5010315,38.7710315 C77.551819,37.7202439 77.5691385,36.0219996 76.54,34.95 C71.209803,29.6220196 62.570197,29.6220196 57.24,34.95 L41.8,50.38 C38.2341805,53.8032496 36.7976842,58.8868052 38.0445481,63.6700089 C39.2914121,68.4532125 43.0267875,72.1885879 47.8099911,73.4354519 C52.5931948,74.6823158 57.6767504,73.2458195 61.1,69.68 L68.82,61.96 C69.8491385,60.8880004 69.831819,59.1897561 68.7810315,58.1389685 C67.7302439,57.088181 66.0319996,57.0708615 64.96,58.1 Z" id="Path" fill="#000000"></path>
                <path d="M74.58,25.29 L83.84,16.03 C87.0559987,12.9425846 92.1507317,12.9945429 95.3030944,16.1469056 C98.4554571,19.2992683 98.5074154,24.3940013 95.42,27.61 L78.42,44.61 C76.885478,46.1476396 74.8023474,47.011739 72.63,47.011739 C70.4576526,47.011739 68.374522,46.1476396 66.84,44.61 C65.7680004,43.5808615 64.0697561,43.598181 63.0189685,44.6489685 C61.968181,45.6997561 61.9508615,47.3980004 62.98,48.47 C68.310197,53.7979804 76.949803,53.7979804 82.28,48.47 L99.28,31.47 C104.425692,26.1100022 104.339095,17.6187805 99.0851574,12.3648426 C93.8312195,7.11090479 85.3399978,7.02430765 79.98,12.17 L70.72,21.44 C69.9678435,22.1156628 69.6507067,23.1516998 69.8957744,24.1326185 C70.140842,25.1135372 70.9079775,25.8786853 71.8895286,26.1212076 C72.8710797,26.3637299 73.9062906,26.0439067 74.58,25.29 Z" id="Path" fill="#000000"></path>
                <path d="M81.13,80.51 C79.9418285,80.5102425 78.9176343,79.6741656 78.68,78.51 L75.68,62.84 C75.4481557,61.4969085 76.3348431,60.2156101 77.6734872,59.959332 C79.0121313,59.7030539 80.3093732,60.5662478 80.59,61.9 L83.59,77.57 C83.7155144,78.2228245 83.5747689,78.8987334 83.1991085,79.4471976 C82.8234481,79.9956618 82.2440681,80.3711361 81.59,80.49 C81.4379479,80.5143533 81.283592,80.5210644 81.13,80.51 Z" id="Path" fill="#000000"></path>
                <path d="M107.13,73.51 C106.786086,73.5065709 106.446241,73.4352034 106.13,73.3 L85.8,64.3 C84.5792716,63.7216434 84.0387337,62.2781886 84.5793109,61.0402668 C85.1198881,59.802345 86.5460536,59.2177126 87.8,59.72 L108.14,68.72 C109.223349,69.1944693 109.825995,70.3631738 109.584297,71.5209074 C109.342599,72.6786411 108.322693,73.5086083 107.14,73.51 L107.13,73.51 Z" id="Path" fill="#000000"></path>
                <path d="M62.47,24.51 C61.4374401,24.5090165 60.5117213,23.8733298 60.14,22.91 L53.8,6.58 C53.4766746,5.74578485 53.6229582,4.80244623 54.183747,4.10533068 C54.7445358,3.40821513 55.6346328,3.06323108 56.518747,3.20033068 C57.4028612,3.33743028 58.1466746,3.93578485 58.47,4.77 L64.8,21.11 C65.2957311,22.3967912 64.6559088,23.8419843 63.37,24.34 C63.0839803,24.4548964 62.7782231,24.5126506 62.47,24.51 Z" id="Path" fill="#000000"></path>
                <path d="M54.8,28.51 C54.2637417,28.5100287 53.7415704,28.3383079 53.31,28.02 L31.31,11.68 C30.2054307,10.8515728 29.9815732,9.28456958 30.8100002,8.18000016 C31.6384273,7.07543074 33.2054305,6.85157306 34.31,7.68 L56.31,24.01 C57.1781524,24.6520735 57.5359656,25.7789682 57.1972351,26.8042529 C56.8585047,27.8295375 55.8997892,28.5214814 54.82,28.52 L54.8,28.51 Z" id="Path" fill="#000000"></path>
                <path d="M46.14,32.51 L33.47,32.51 C32.0892881,32.51 30.97,31.3907119 30.97,30.01 C30.97,28.6292881 32.0892881,27.51 33.47,27.51 L46.14,27.51 C47.5207119,27.51 48.64,28.6292881 48.64,30.01 C48.64,31.3907119 47.5207119,32.51 46.14,32.51 Z" id="Path" fill="#000000"></path>
            </g>
        </g>
    </g>
</svg>