<?xml version="1.0" encoding="UTF-8"?>
<svg width="146px" height="152px" viewBox="0 0 146 152" version="1.1" xmlns="http://www.w3.org/2000/svg" xmlns:xlink="http://www.w3.org/1999/xlink">
    <!-- Generator: Sketch 52.5 (67469) - http://www.bohemiancoding.com/sketch -->
    <title>icon-lightbulb</title>
    <desc>Created with Sketch.</desc>
    <g id="Page-1" stroke="none" stroke-width="1" fill="none" fill-rule="evenodd">
        <g id="row-5">
            <g id="icon-lightbulb" transform="translate(24.000000, 27.000000)">
                <path d="M0,48.0859954 C0,21.8418618 21.9786056,0 50.2608436,0 C76.6353266,0 98,21.8418618 98,48.0859954 C98,76.1585264 76.6353266,98 50.2608436,98 C21.9786056,98 0,76.1585264 0,48.0859954" id="Fill-1" fill="#0073E3"></path>
                <g id="Group-6" transform="translate(43.720153, 0.992518)">
                    <polygon id="Clip-5" points="0.0199013667 0.368674302 65.5778532 0.368674302 65.5778532 80.157502 0.0199013667 80.157502"></polygon>
                    <path d="M55.8753057,46.397164 C54.9758176,47.5278025 53.9943052,48.6395248 53.0444933,49.714991 C49.2325644,54.031043 45.2906657,58.494484 45.1258255,65.5758515 C45.0774829,67.647572 45.0172529,70.225696 43.9461881,71.963624 C42.7503045,73.902537 41.1407354,74.9657865 38.8813158,75.309037 C35.2104522,75.867854 30.36114,75.7314995 26.8174729,74.972486 C21.9249695,73.924606 19.5371646,70.9488475 19.0790992,65.3267875 C18.819159,58.186701 14.8851852,52.5197155 11.7219184,47.9636639 C10.7348587,46.5421884 9.80287779,45.1991365 9.08170211,43.9593356 C5.58954748,37.9538283 4.10400482,32.4823104 4.66588786,27.698476 C5.10532954,23.9613393 6.86943621,20.0807547 9.76919649,16.4756375 C15.9178136,8.83190645 25.6429868,4.3988104 35.1442784,4.91309526 C44.9090765,5.43999095 54.0022302,11.2118039 58.3102647,19.6180954 C62.6618863,28.1126625 61.6609576,39.1242697 55.8753057,46.397164 M62.3460747,17.5727786 C57.3188462,7.7615634 46.737772,1.02620518 35.3895574,0.41458059 C24.4502731,-0.172216461 13.2779936,4.90087853 6.23147313,13.661455 C2.80152982,17.9258814 0.704176553,22.5993712 0.166068534,27.1755212 C-0.511519614,32.9449697 1.16897825,39.3504763 5.16040835,46.2150954 C5.97192913,47.6109551 6.9542338,49.0257311 7.99439104,50.5236595 C10.9761752,54.819219 14.3565872,59.686994 14.5535236,65.5313195 C14.5547124,65.565211 14.5566936,65.5987085 14.5590711,65.633388 C15.1653342,73.275543 18.9685454,77.8997715 25.8636982,79.3768135 C28.2717118,79.893069 31.1235258,80.157502 33.9246197,80.157502 C35.8864554,80.157502 37.8233272,80.027847 39.5656402,79.76302 C43.1421961,79.2199665 45.9151563,77.3878515 47.8080443,74.319088 C49.5178647,71.5451025 49.5967185,68.1547635 49.6545711,65.6802845 C49.7813712,60.236747 52.8709354,56.7388215 56.4478878,52.687991 C57.43574,51.5699635 58.4568771,50.413709 59.4280867,49.1924303 C66.3834695,40.4491936 67.5567672,27.7422197 62.3460747,17.5727786" id="Fill-4" fill="#231F20" fill-rule="nonzero"></path>
                </g>
                <path d="M88.3987892,82.8399615 C80.8540635,85.9906335 71.7058899,85.5416405 64.5262506,81.663237 C63.4317838,81.0733305 62.0530965,81.4570785 61.4458081,82.5230025 C60.838916,83.5889265 61.2345258,84.932431 62.3282,85.5238815 C67.0017836,88.0471985 72.3884951,89.3266165 77.7680712,89.3266165 C82.032171,89.3266165 86.291911,88.522058 90.1853745,86.8959545 C91.3353376,86.4153045 91.867706,85.117742 91.3741852,83.998155 C90.8818533,82.878182 89.5491491,82.357381 88.3987892,82.8399615" id="Fill-7" fill="#231F20"></path>
                <path d="M85.1815197,92.3856025 C84.1397454,92.9818285 82.6995521,93.121784 81.3066763,93.2568855 C78.6827574,93.5117175 75.9697706,93.7742345 73.4066883,93.5460995 C70.6976776,93.3046155 68.4674065,92.5380975 66.7775056,91.2683865 C65.7675414,90.509149 64.3444458,90.726363 63.5989014,91.75459 C62.8533571,92.782008 63.0676763,94.2296965 64.0772427,94.988125 C66.4502611,96.77114 69.4551035,97.8357715 73.0090644,98.152491 C73.8512314,98.2277275 74.6894224,98.259278 75.5220465,98.259278 C77.6342238,98.259278 79.7114101,98.057435 81.7392907,97.8604455 C83.4279987,97.6962205 85.5294402,97.491546 87.4094055,96.416802 C88.5032681,95.7906435 88.8917464,94.3809775 88.2762251,93.2678065 C87.6614989,92.154636 86.2761774,91.761062 85.1815197,92.3856025" id="Fill-9" fill="#231F20"></path>
                <path d="M90.2326509,33.972704 C88.6233203,35.8374774 86.5515612,37.3563686 84.2601487,38.3735535 C85.3440651,35.2484152 86.8158631,32.2610002 88.6603943,29.5147977 C89.7857696,27.8396889 91.8846364,25.9190392 93.0973151,25.8403402 C93.1196391,25.8391597 93.1427607,25.8375857 93.1666789,25.8375857 C93.2850766,25.8375857 93.427393,25.8733937 93.6494383,26.1260176 C94.6476461,27.2577096 93.2424217,30.4843697 90.2326509,33.972704 M64.9557564,36.9247044 C62.9003421,35.8374774 61.6661366,34.780943 61.0709593,33.5988836 C60.5622881,32.5903556 60.5850109,31.1245862 61.4289425,30.5496899 C61.7067984,30.3600252 62.0998626,30.2636189 62.5391695,30.2636189 C62.8887811,30.2636189 63.2670952,30.3246106 63.641822,30.4477746 C66.0643887,31.2473567 67.8459341,33.9341415 69.0861188,38.6615919 C69.0889095,38.6702488 69.0913014,38.6796927 69.0936932,38.6887431 C67.6912595,38.2275668 66.3051701,37.6385046 64.9557564,36.9247044 M92.799527,21.3513477 C89.3966916,21.570918 86.2095235,25.0230508 84.8625016,27.028302 C82.2469905,30.9211493 80.3067848,35.2495957 79.0701874,39.7759701 C77.4253775,39.9735047 75.7243581,39.9715372 74.0101839,39.7763636 C73.8634826,39.0267554 73.6940585,38.2787212 73.4983238,37.5330479 C71.839561,31.2154836 69.0881124,27.5024636 65.0865118,26.1815004 C62.8632681,25.447632 60.5284031,25.6975014 58.8393436,26.8476877 C55.8124309,28.9107826 55.6274596,32.8984623 56.9896298,35.6017738 C58.3518005,38.3062658 60.9597372,39.9148739 62.8030725,40.8899549 C65.1176061,42.1145117 67.5345919,43.0262399 69.9758953,43.6160891 C70.6384433,49.9171266 69.7363092,56.4999065 68.8576955,62.910336 C68.6954465,64.0912145 68.5339957,65.270126 68.381713,66.4458895 C68.2222552,67.6783165 69.1048555,68.8044995 70.3534122,68.9618975 C70.4514785,68.974489 70.5487481,68.979998 70.6452201,68.979998 C71.7749809,68.979998 72.755648,68.1512975 72.9023493,67.0156705 C73.0534356,65.851712 73.2132927,64.683425 73.3739464,63.513564 C74.2374118,57.2125265 75.1228028,50.7536975 74.6225032,44.3468096 C75.7805671,44.4310175 76.9318547,44.4412484 78.0671959,44.3763217 C76.8748481,51.634733 77.4389311,59.1811825 79.877045,66.0944985 C80.2912377,67.2675075 81.5908209,67.8908035 82.7783849,67.4792075 C83.966746,67.07076 84.5950108,65.788359 84.1812169,64.6157435 C81.8256226,57.9365575 81.4174101,50.5990535 82.8242288,43.6334029 C83.0426863,43.5763461 83.2603466,43.5157479 83.4760139,43.4520016 C87.4210062,42.290404 91.0526637,39.9597324 93.7020595,36.8900769 C98.6396787,31.1678707 99.8415939,26.295614 97.0869558,23.1720497 C95.9424455,21.8739093 94.4547016,21.2415626 92.799527,21.3513477" id="Fill-11" fill="#231F20" fill-rule="nonzero"></path>
            </g>
        </g>
    </g>
</svg>