<?xml version="1.0" encoding="UTF-8"?>
<svg width="146px" height="152px" viewBox="0 0 146 152" version="1.1" xmlns="http://www.w3.org/2000/svg" xmlns:xlink="http://www.w3.org/1999/xlink">
    <!-- Generator: Sketch 52.5 (67469) - http://www.bohemiancoding.com/sketch -->
    <title>icon-face</title>
    <desc>Created with Sketch.</desc>
    <g id="Page-1" stroke="none" stroke-width="1" fill="none" fill-rule="evenodd">
        <g id="row-4" transform="translate(-438.000000, 0.000000)">
            <g id="icon-face" transform="translate(462.000000, 27.000000)">
                <path d="M0,48.0859952 C0,21.8418617 21.9786056,0 50.2608437,0 C76.6353264,0 98,21.8418617 98,48.0859952 C98,76.1585258 76.6353264,98 50.2608437,98 C21.9786056,98 0,76.1585258 0,48.0859952" id="Fill-1" fill="#0073E3"></path>
                <path d="M79.7086864,42.3408686 C78.5002964,42.620001 77.7473613,43.8243478 78.0279433,45.0298708 C79.2948865,50.4800105 79.9979142,53.7080675 80.6781493,56.82949 C81.1953007,59.203292 81.7262065,61.6390365 82.5058636,65.0603695 C80.039962,64.69342 76.6934094,64.684011 73.3162047,66.1800355 C72.1824794,66.6826305 71.6716152,68.007334 72.175406,69.138369 C72.5471576,69.9734145 73.3684702,70.470129 74.2290797,70.470129 C74.5340261,70.470129 74.8436883,70.4074025 75.1399894,70.276853 C79.7798144,68.2213875 84.5960836,70.1894285 84.6345953,70.205502 C85.4126805,70.537952 86.3125873,70.4066185 86.9621704,69.8656035 C87.611754,69.323412 87.9005884,68.4632765 87.7092112,67.6399925 C86.4481629,62.211023 85.7467071,58.9919825 85.0680439,55.877617 C84.3846649,52.740905 83.6781005,49.4979504 82.404084,44.0176235 C82.1238949,42.8117086 80.9170763,42.0601679 79.7086864,42.3408686" id="Fill-4" fill="#231F20"></path>
                <path d="M55.3227207,43.6978047 C58.7058474,40.2689939 64.2087233,40.2689939 67.59185,43.6978047 C68.0332993,44.1457215 68.6129249,44.3700812 69.1921541,44.3700812 C69.7709874,44.3700812 70.3506125,44.1457215 70.7920618,43.6978047 C71.6761485,42.8019712 71.6761485,41.3494526 70.7920618,40.4536191 C65.6455131,35.2355495 57.2694539,35.2355495 52.1225089,40.4536191 C51.2384222,41.3494526 51.2384222,42.8019712 52.1225089,43.6978047 C53.0058039,44.5940395 54.4394257,44.5940395 55.3227207,43.6978047" id="Fill-6" fill="#231F20"></path>
                <path d="M80.2623801,10.5842642 C79.3733481,9.6985156 77.9295181,9.69574515 77.0380932,10.5771402 C72.3600058,15.2006054 57.7904891,25.0340771 44.9551633,24.1273523 C43.6948038,24.0454265 42.6087409,24.9778768 42.5197978,26.2245739 C42.4308547,27.4708752 43.376922,28.5529291 44.6328942,28.6411873 C45.2929875,28.6874932 45.9558728,28.7100525 46.6203535,28.7100525 C60.5656731,28.7100525 75.1471552,18.831858 80.2552008,13.7837243 C81.1478222,12.9019334 81.1510133,11.469617 80.2623801,10.5842642" id="Fill-8" fill="#231F20"></path>
                <path d="M91.2084254,81.9444145 C81.755896,87.311557 65.7673745,85.8616825 55.5680685,78.7121775 C54.5358179,77.988243 53.1148286,78.2429235 52.395164,79.2825015 C51.6754989,80.3212775 51.929076,81.749494 52.9617255,82.4734285 C59.8091074,87.273856 68.746508,89.7841645 77.1891141,89.7841645 C83.161336,89.7841645 88.8867587,88.5284085 93.4491549,85.937084 C94.5451984,85.3146205 94.9319437,83.9160835 94.3131514,82.813537 C93.6947579,81.712194 92.3048678,81.320347 91.2084254,81.9444145" id="Fill-10" fill="#231F20"></path>
                <path d="M97.7648449,44.5979546 C95.8837031,44.5979546 94.3533892,42.7392103 94.3533892,40.4546831 C94.3533892,38.1701558 95.8837031,36.3118025 97.7648449,36.3118025 C99.6463781,36.3118025 101.177084,38.1701558 101.177084,40.4546831 C101.177084,42.7392103 99.6463781,44.5979546 97.7648449,44.5979546 M97.7648449,31.8420583 C93.4130144,31.8420583 89.872204,35.7053843 89.872204,40.4546831 C89.872204,45.2039818 93.4130144,49.0680898 97.7648449,49.0680898 C102.117459,49.0680898 105.65827,45.2039818 105.65827,40.4546831 C105.65827,35.7053843 102.117459,31.8420583 97.7648449,31.8420583" id="Fill-12" fill="#231F20" fill-rule="nonzero"></path>
            </g>
        </g>
    </g>
</svg>