<?xml version="1.0" encoding="UTF-8"?>
<svg width="646px" height="187px" viewBox="0 0 646 187" version="1.1" xmlns="http://www.w3.org/2000/svg" xmlns:xlink="http://www.w3.org/1999/xlink">
    <!-- Generator: Sketch 52.5 (67469) - http://www.bohemiancoding.com/sketch -->
    <title>Slice</title>
    <desc>Created with Sketch.</desc>
    <g id="Page-1" stroke="none" stroke-width="1" fill="none" fill-rule="evenodd" fill-opacity="0.25" opacity="0.7">
        <g id="Group-343-Copy-2" fill="#24DBC3">
            <path d="M0,10.9302 C0,16.9592 4.77481583,21.8472 10.6638204,21.8472 C16.552825,21.8472 21.3276408,16.9592 21.3276408,10.9302 C21.3276408,4.9012 16.552825,0.0132 10.6638204,0.0132 C4.77481583,0.0132 0,4.9012 0,10.9302" id="Fill-1"></path>
            <path d="M0,66.1197 C0,72.1487 4.77481583,77.0367 10.6638204,77.0367 C16.552825,77.0367 21.3276408,72.1487 21.3276408,66.1197 C21.3276408,60.0907 16.552825,55.2027 10.6638204,55.2027 C4.77481583,55.2027 0,60.0907 0,66.1197" id="Fill-3"></path>
            <path d="M0,38.5249 C0,44.5539 4.77481583,49.4419 10.6638204,49.4419 C16.552825,49.4419 21.3276408,44.5539 21.3276408,38.5249 C21.3276408,32.4959 16.552825,27.6079 10.6638204,27.6079 C4.77481583,27.6079 0,32.4959 0,38.5249" id="Fill-5"></path>
            <path d="M0,93.7144 C0,99.7434 4.77481583,104.6314 10.6638204,104.6314 C16.552825,104.6314 21.3276408,99.7434 21.3276408,93.7144 C21.3276408,87.6854 16.552825,82.7974 10.6638204,82.7974 C4.77481583,82.7974 0,87.6854 0,93.7144" id="Fill-7"></path>
            <path d="M0,121.3096 C0,127.3386 4.77481583,132.2266 10.6638204,132.2266 C16.552825,132.2266 21.3276408,127.3386 21.3276408,121.3096 C21.3276408,115.2806 16.552825,110.3926 10.6638204,110.3926 C4.77481583,110.3926 0,115.2806 0,121.3096" id="Fill-9"></path>
            <path d="M0,148.9043 C0,154.9333 4.77481583,159.8213 10.6638204,159.8213 C16.552825,159.8213 21.3276408,154.9333 21.3276408,148.9043 C21.3276408,142.8753 16.552825,137.9873 10.6638204,137.9873 C4.77481583,137.9873 0,142.8753 0,148.9043" id="Fill-11"></path>
            <path d="M0,176.4991 C0,182.5281 4.77481583,187.4161 10.6638204,187.4161 C16.552825,187.4161 21.3276408,182.5281 21.3276408,176.4991 C21.3276408,170.4701 16.552825,165.5821 10.6638204,165.5821 C4.77481583,165.5821 0,170.4701 0,176.4991" id="Fill-13"></path>
            <path d="M602.964992,165.5689 C597.082817,165.5689 592.313855,170.4629 592.313855,176.4989 C592.313855,182.5359 597.082817,187.4289 602.964992,187.4289 C608.847167,187.4289 613.616129,182.5359 613.616129,176.4989 C613.616129,170.4629 608.847167,165.5689 602.964992,165.5689" id="Fill-15"></path>
            <path d="M629.887772,165.5689 C624.005597,165.5689 619.236635,170.4629 619.236635,176.4989 C619.236635,182.5359 624.005597,187.4289 629.887772,187.4289 C635.769947,187.4289 640.538909,182.5359 640.538909,176.4989 C640.538909,170.4629 635.769947,165.5689 629.887772,165.5689" id="Fill-17"></path>
            <path d="M576.042309,165.5689 C570.160134,165.5689 565.391172,170.4629 565.391172,176.4989 C565.391172,182.5359 570.160134,187.4289 576.042309,187.4289 C581.924484,187.4289 586.693446,182.5359 586.693446,176.4989 C586.693446,170.4629 581.924484,165.5689 576.042309,165.5689" id="Fill-20"></path>
            <path d="M549.119138,165.5689 C543.236963,165.5689 538.468001,170.4629 538.468001,176.4989 C538.468001,182.5359 543.236963,187.4289 549.119138,187.4289 C555.001313,187.4289 559.770275,182.5359 559.770275,176.4989 C559.770275,170.4629 555.001313,165.5689 549.119138,165.5689" id="Fill-22"></path>
            <path d="M522.196455,165.5689 C516.31428,165.5689 511.545318,170.4629 511.545318,176.4989 C511.545318,182.5359 516.31428,187.4289 522.196455,187.4289 C528.07863,187.4289 532.847592,182.5359 532.847592,176.4989 C532.847592,170.4629 528.07863,165.5689 522.196455,165.5689" id="Fill-24"></path>
            <path d="M495.273772,165.5689 C489.391597,165.5689 484.622635,170.4629 484.622635,176.4989 C484.622635,182.5359 489.391597,187.4289 495.273772,187.4289 C501.155947,187.4289 505.924909,182.5359 505.924909,176.4989 C505.924909,170.4629 501.155947,165.5689 495.273772,165.5689" id="Fill-26"></path>
            <path d="M441.428309,165.5689 C435.546134,165.5689 430.777172,170.4629 430.777172,176.4989 C430.777172,182.5359 435.546134,187.4289 441.428309,187.4289 C447.310484,187.4289 452.079446,182.5359 452.079446,176.4989 C452.079446,170.4629 447.310484,165.5689 441.428309,165.5689" id="Fill-28"></path>
            <path d="M468.350992,165.5689 C462.468817,165.5689 457.699855,170.4629 457.699855,176.4989 C457.699855,182.5359 462.468817,187.4289 468.350992,187.4289 C474.233167,187.4289 479.002129,182.5359 479.002129,176.4989 C479.002129,170.4629 474.233167,165.5689 468.350992,165.5689" id="Fill-30"></path>
            <path d="M414.505626,165.5689 C408.623451,165.5689 403.854489,170.4629 403.854489,176.4989 C403.854489,182.5359 408.623451,187.4289 414.505626,187.4289 C420.387801,187.4289 425.156763,182.5359 425.156763,176.4989 C425.156763,170.4629 420.387801,165.5689 414.505626,165.5689" id="Fill-32"></path>
            <path d="M387.582943,165.5689 C381.700768,165.5689 376.931806,170.4629 376.931806,176.4989 C376.931806,182.5359 381.700768,187.4289 387.582943,187.4289 C393.465118,187.4289 398.23408,182.5359 398.23408,176.4989 C398.23408,170.4629 393.465118,165.5689 387.582943,165.5689" id="Fill-34"></path>
            <path d="M360.659674,165.5689 C354.777499,165.5689 350.008537,170.4629 350.008537,176.4989 C350.008537,182.5359 354.777499,187.4289 360.659674,187.4289 C366.541849,187.4289 371.310811,182.5359 371.310811,176.4989 C371.310811,170.4629 366.541849,165.5689 360.659674,165.5689" id="Fill-36"></path>
            <path d="M333.736991,165.5689 C327.854816,165.5689 323.085854,170.4629 323.085854,176.4989 C323.085854,182.5359 327.854816,187.4289 333.736991,187.4289 C339.619167,187.4289 344.388128,182.5359 344.388128,176.4989 C344.388128,170.4629 339.619167,165.5689 333.736991,165.5689" id="Fill-38"></path>
            <path d="M279.891626,165.5689 C274.009451,165.5689 269.240489,170.4629 269.240489,176.4989 C269.240489,182.5359 274.009451,187.4289 279.891626,187.4289 C285.773801,187.4289 290.542763,182.5359 290.542763,176.4989 C290.542763,170.4629 285.773801,165.5689 279.891626,165.5689" id="Fill-40"></path>
            <path d="M306.814309,165.5689 C300.932133,165.5689 296.163172,170.4629 296.163172,176.4989 C296.163172,182.5359 300.932133,187.4289 306.814309,187.4289 C312.696484,187.4289 317.465446,182.5359 317.465446,176.4989 C317.465446,170.4629 312.696484,165.5689 306.814309,165.5689" id="Fill-42"></path>
            <path d="M252.968845,165.5689 C247.08667,165.5689 242.317708,170.4629 242.317708,176.4989 C242.317708,182.5359 247.08667,187.4289 252.968845,187.4289 C258.85102,187.4289 263.619982,182.5359 263.619982,176.4989 C263.619982,170.4629 258.85102,165.5689 252.968845,165.5689" id="Fill-44"></path>
            <path d="M226.046162,165.5689 C220.163987,165.5689 215.395025,170.4629 215.395025,176.4989 C215.395025,182.5359 220.163987,187.4289 226.046162,187.4289 C231.928337,187.4289 236.697299,182.5359 236.697299,176.4989 C236.697299,170.4629 231.928337,165.5689 226.046162,165.5689" id="Fill-46"></path>
            <path d="M199.123479,165.5689 C193.241304,165.5689 188.472342,170.4629 188.472342,176.4989 C188.472342,182.5359 193.241304,187.4289 199.123479,187.4289 C205.005654,187.4289 209.774616,182.5359 209.774616,176.4989 C209.774616,170.4629 205.005654,165.5689 199.123479,165.5689" id="Fill-48"></path>
            <path d="M172.200308,165.5689 C166.318133,165.5689 161.549171,170.4629 161.549171,176.4989 C161.549171,182.5359 166.318133,187.4289 172.200308,187.4289 C178.082483,187.4289 182.851445,182.5359 182.851445,176.4989 C182.851445,170.4629 178.082483,165.5689 172.200308,165.5689" id="Fill-50"></path>
            <path d="M118.354845,165.5689 C112.47267,165.5689 107.703708,170.4629 107.703708,176.4989 C107.703708,182.5359 112.47267,187.4289 118.354845,187.4289 C124.23702,187.4289 129.005982,182.5359 129.005982,176.4989 C129.005982,170.4629 124.23702,165.5689 118.354845,165.5689" id="Fill-52"></path>
            <path d="M145.277528,165.5689 C139.395353,165.5689 134.626391,170.4629 134.626391,176.4989 C134.626391,182.5359 139.395353,187.4289 145.277528,187.4289 C151.159703,187.4289 155.928665,182.5359 155.928665,176.4989 C155.928665,170.4629 151.159703,165.5689 145.277528,165.5689" id="Fill-54"></path>
            <path d="M91.4321619,165.5689 C85.5499869,165.5689 80.781025,170.4629 80.781025,176.4989 C80.781025,182.5359 85.5499869,187.4289 91.4321619,187.4289 C97.314337,187.4289 102.083299,182.5359 102.083299,176.4989 C102.083299,170.4629 97.314337,165.5689 91.4321619,165.5689" id="Fill-56"></path>
            <path d="M64.509479,165.5689 C58.627304,165.5689 53.858342,170.4629 53.858342,176.4989 C53.858342,182.5359 58.627304,187.4289 64.509479,187.4289 C70.391654,187.4289 75.160616,182.5359 75.160616,176.4989 C75.160616,170.4629 70.391654,165.5689 64.509479,165.5689" id="Fill-58"></path>
            <path d="M37.5866985,165.5689 C31.7045234,165.5689 26.9355615,170.4629 26.9355615,176.4989 C26.9355615,182.5359 31.7045234,187.4289 37.5866985,187.4289 C43.4688735,187.4289 48.2378355,182.5359 48.2378355,176.4989 C48.2378355,170.4629 43.4688735,165.5689 37.5866985,165.5689" id="Fill-60"></path>
            <path d="M602.952113,137.9742 C597.069938,137.9742 592.300976,142.8682 592.300976,148.9042 C592.300976,154.9412 597.069938,159.8342 602.952113,159.8342 C608.834288,159.8342 613.60325,154.9412 613.60325,148.9042 C613.60325,142.8682 608.834288,137.9742 602.952113,137.9742" id="Fill-62"></path>
            <path d="M629.875382,137.9742 C623.993207,137.9742 619.224245,142.8682 619.224245,148.9042 C619.224245,154.9412 623.993207,159.8342 629.875382,159.8342 C635.757557,159.8342 640.526519,154.9412 640.526519,148.9042 C640.526519,142.8682 635.757557,137.9742 629.875382,137.9742" id="Fill-64"></path>
            <path d="M576.02943,137.9742 C570.147255,137.9742 565.378293,142.8682 565.378293,148.9042 C565.378293,154.9412 570.147255,159.8342 576.02943,159.8342 C581.911605,159.8342 586.680567,154.9412 586.680567,148.9042 C586.680567,142.8682 581.911605,137.9742 576.02943,137.9742" id="Fill-66"></path>
            <path d="M549.106747,137.9742 C543.224572,137.9742 538.45561,142.8682 538.45561,148.9042 C538.45561,154.9412 543.224572,159.8342 549.106747,159.8342 C554.988922,159.8342 559.757884,154.9412 559.757884,148.9042 C559.757884,142.8682 554.988922,137.9742 549.106747,137.9742" id="Fill-68"></path>
            <path d="M522.184064,137.9742 C516.301889,137.9742 511.532927,142.8682 511.532927,148.9042 C511.532927,154.9412 516.301889,159.8342 522.184064,159.8342 C528.066239,159.8342 532.835201,154.9412 532.835201,148.9042 C532.835201,142.8682 528.066239,137.9742 522.184064,137.9742" id="Fill-70"></path>
            <path d="M495.261381,137.9742 C489.379206,137.9742 484.610244,142.8682 484.610244,148.9042 C484.610244,154.9412 489.379206,159.8342 495.261381,159.8342 C501.143556,159.8342 505.912518,154.9412 505.912518,148.9042 C505.912518,142.8682 501.143556,137.9742 495.261381,137.9742" id="Fill-72"></path>
            <path d="M441.415918,137.9742 C435.533743,137.9742 430.764781,142.8682 430.764781,148.9042 C430.764781,154.9412 435.533743,159.8342 441.415918,159.8342 C447.298093,159.8342 452.067055,154.9412 452.067055,148.9042 C452.067055,142.8682 447.298093,137.9742 441.415918,137.9742" id="Fill-74"></path>
            <path d="M468.338601,137.9742 C462.456426,137.9742 457.687464,142.8682 457.687464,148.9042 C457.687464,154.9412 462.456426,159.8342 468.338601,159.8342 C474.220776,159.8342 478.989738,154.9412 478.989738,148.9042 C478.989738,142.8682 474.220776,137.9742 468.338601,137.9742" id="Fill-76"></path>
            <path d="M414.492747,137.9742 C408.610572,137.9742 403.84161,142.8682 403.84161,148.9042 C403.84161,154.9412 408.610572,159.8342 414.492747,159.8342 C420.374922,159.8342 425.143884,154.9412 425.143884,148.9042 C425.143884,142.8682 420.374922,137.9742 414.492747,137.9742" id="Fill-78"></path>
            <path d="M387.570064,137.9742 C381.687889,137.9742 376.918927,142.8682 376.918927,148.9042 C376.918927,154.9412 381.687889,159.8342 387.570064,159.8342 C393.452239,159.8342 398.221201,154.9412 398.221201,148.9042 C398.221201,142.8682 393.452239,137.9742 387.570064,137.9742" id="Fill-80"></path>
            <path d="M360.647284,137.9742 C354.765109,137.9742 349.996147,142.8682 349.996147,148.9042 C349.996147,154.9412 354.765109,159.8342 360.647284,159.8342 C366.529459,159.8342 371.298421,154.9412 371.298421,148.9042 C371.298421,142.8682 366.529459,137.9742 360.647284,137.9742" id="Fill-82"></path>
            <path d="M333.724601,137.9742 C327.842426,137.9742 323.073464,142.8682 323.073464,148.9042 C323.073464,154.9412 327.842426,159.8342 333.724601,159.8342 C339.606776,159.8342 344.375738,154.9412 344.375738,148.9042 C344.375738,142.8682 339.606776,137.9742 333.724601,137.9742" id="Fill-84"></path>
            <path d="M279.879235,137.9742 C273.99706,137.9742 269.228098,142.8682 269.228098,148.9042 C269.228098,154.9412 273.99706,159.8342 279.879235,159.8342 C285.76141,159.8342 290.530372,154.9412 290.530372,148.9042 C290.530372,142.8682 285.76141,137.9742 279.879235,137.9742" id="Fill-86"></path>
            <path d="M306.801918,137.9742 C300.919743,137.9742 296.150781,142.8682 296.150781,148.9042 C296.150781,154.9412 300.919743,159.8342 306.801918,159.8342 C312.684093,159.8342 317.453055,154.9412 317.453055,148.9042 C317.453055,142.8682 312.684093,137.9742 306.801918,137.9742" id="Fill-88"></path>
            <path d="M252.956454,137.9742 C247.074279,137.9742 242.305317,142.8682 242.305317,148.9042 C242.305317,154.9412 247.074279,159.8342 252.956454,159.8342 C258.838629,159.8342 263.607591,154.9412 263.607591,148.9042 C263.607591,142.8682 258.838629,137.9742 252.956454,137.9742" id="Fill-90"></path>
            <path d="M226.033284,137.9742 C220.151109,137.9742 215.382147,142.8682 215.382147,148.9042 C215.382147,154.9412 220.151109,159.8342 226.033284,159.8342 C231.915459,159.8342 236.684421,154.9412 236.684421,148.9042 C236.684421,142.8682 231.915459,137.9742 226.033284,137.9742" id="Fill-92"></path>
            <path d="M199.110601,137.9742 C193.228426,137.9742 188.459464,142.8682 188.459464,148.9042 C188.459464,154.9412 193.228426,159.8342 199.110601,159.8342 C204.992776,159.8342 209.761738,154.9412 209.761738,148.9042 C209.761738,142.8682 204.992776,137.9742 199.110601,137.9742" id="Fill-94"></path>
            <path d="M172.187918,137.9742 C166.305743,137.9742 161.536781,142.8682 161.536781,148.9042 C161.536781,154.9412 166.305743,159.8342 172.187918,159.8342 C178.070093,159.8342 182.839055,154.9412 182.839055,148.9042 C182.839055,142.8682 178.070093,137.9742 172.187918,137.9742" id="Fill-96"></path>
            <path d="M118.342454,137.9742 C112.460279,137.9742 107.691317,142.8682 107.691317,148.9042 C107.691317,154.9412 112.460279,159.8342 118.342454,159.8342 C124.224629,159.8342 128.993591,154.9412 128.993591,148.9042 C128.993591,142.8682 124.224629,137.9742 118.342454,137.9742" id="Fill-98"></path>
            <path d="M145.265137,137.9742 C139.382962,137.9742 134.614,142.8682 134.614,148.9042 C134.614,154.9412 139.382962,159.8342 145.265137,159.8342 C151.147312,159.8342 155.916274,154.9412 155.916274,148.9042 C155.916274,142.8682 151.147312,137.9742 145.265137,137.9742" id="Fill-100"></path>
            <path d="M91.4197712,137.9742 C85.5375962,137.9742 80.7686342,142.8682 80.7686342,148.9042 C80.7686342,154.9412 85.5375962,159.8342 91.4197712,159.8342 C97.3019463,159.8342 102.070908,154.9412 102.070908,148.9042 C102.070908,142.8682 97.3019463,137.9742 91.4197712,137.9742" id="Fill-102"></path>
            <path d="M64.4970883,137.9742 C58.6149132,137.9742 53.8459513,142.8682 53.8459513,148.9042 C53.8459513,154.9412 58.6149132,159.8342 64.4970883,159.8342 C70.3792633,159.8342 75.1482253,154.9412 75.1482253,148.9042 C75.1482253,142.8682 70.3792633,137.9742 64.4970883,137.9742" id="Fill-104"></path>
            <path d="M37.5738199,137.9742 C31.6916449,137.9742 26.922683,142.8682 26.922683,148.9042 C26.922683,154.9412 31.6916449,159.8342 37.5738199,159.8342 C43.455995,159.8342 48.2249569,154.9412 48.2249569,148.9042 C48.2249569,142.8682 43.455995,137.9742 37.5738199,137.9742" id="Fill-106"></path>
            <path d="M602.964992,110.3794 C597.082817,110.3794 592.313855,115.2734 592.313855,121.3094 C592.313855,127.3454 597.082817,132.2394 602.964992,132.2394 C608.847167,132.2394 613.616129,127.3454 613.616129,121.3094 C613.616129,115.2734 608.847167,110.3794 602.964992,110.3794" id="Fill-108"></path>
            <path d="M629.887772,110.3794 C624.005597,110.3794 619.236635,115.2734 619.236635,121.3094 C619.236635,127.3454 624.005597,132.2394 629.887772,132.2394 C635.769947,132.2394 640.538909,127.3454 640.538909,121.3094 C640.538909,115.2734 635.769947,110.3794 629.887772,110.3794" id="Fill-110"></path>
            <path d="M576.042309,110.3794 C570.160134,110.3794 565.391172,115.2734 565.391172,121.3094 C565.391172,127.3454 570.160134,132.2394 576.042309,132.2394 C581.924484,132.2394 586.693446,127.3454 586.693446,121.3094 C586.693446,115.2734 581.924484,110.3794 576.042309,110.3794" id="Fill-113"></path>
            <path d="M549.119138,110.3794 C543.236963,110.3794 538.468001,115.2734 538.468001,121.3094 C538.468001,127.3454 543.236963,132.2394 549.119138,132.2394 C555.001313,132.2394 559.770275,127.3454 559.770275,121.3094 C559.770275,115.2734 555.001313,110.3794 549.119138,110.3794" id="Fill-115"></path>
            <path d="M522.196455,110.3794 C516.31428,110.3794 511.545318,115.2734 511.545318,121.3094 C511.545318,127.3454 516.31428,132.2394 522.196455,132.2394 C528.07863,132.2394 532.847592,127.3454 532.847592,121.3094 C532.847592,115.2734 528.07863,110.3794 522.196455,110.3794" id="Fill-117"></path>
            <path d="M495.273772,110.3794 C489.391597,110.3794 484.622635,115.2734 484.622635,121.3094 C484.622635,127.3454 489.391597,132.2394 495.273772,132.2394 C501.155947,132.2394 505.924909,127.3454 505.924909,121.3094 C505.924909,115.2734 501.155947,110.3794 495.273772,110.3794" id="Fill-119"></path>
            <path d="M441.428309,110.3794 C435.546134,110.3794 430.777172,115.2734 430.777172,121.3094 C430.777172,127.3454 435.546134,132.2394 441.428309,132.2394 C447.310484,132.2394 452.079446,127.3454 452.079446,121.3094 C452.079446,115.2734 447.310484,110.3794 441.428309,110.3794" id="Fill-121"></path>
            <path d="M468.350992,110.3794 C462.468817,110.3794 457.699855,115.2734 457.699855,121.3094 C457.699855,127.3454 462.468817,132.2394 468.350992,132.2394 C474.233167,132.2394 479.002129,127.3454 479.002129,121.3094 C479.002129,115.2734 474.233167,110.3794 468.350992,110.3794" id="Fill-123"></path>
            <path d="M414.505626,110.3794 C408.623451,110.3794 403.854489,115.2734 403.854489,121.3094 C403.854489,127.3454 408.623451,132.2394 414.505626,132.2394 C420.387801,132.2394 425.156763,127.3454 425.156763,121.3094 C425.156763,115.2734 420.387801,110.3794 414.505626,110.3794" id="Fill-125"></path>
            <path d="M387.582943,110.3794 C381.700768,110.3794 376.931806,115.2734 376.931806,121.3094 C376.931806,127.3454 381.700768,132.2394 387.582943,132.2394 C393.465118,132.2394 398.23408,127.3454 398.23408,121.3094 C398.23408,115.2734 393.465118,110.3794 387.582943,110.3794" id="Fill-127"></path>
            <path d="M360.659674,110.3794 C354.777499,110.3794 350.008537,115.2734 350.008537,121.3094 C350.008537,127.3454 354.777499,132.2394 360.659674,132.2394 C366.541849,132.2394 371.310811,127.3454 371.310811,121.3094 C371.310811,115.2734 366.541849,110.3794 360.659674,110.3794" id="Fill-129"></path>
            <path d="M333.736991,110.3794 C327.854816,110.3794 323.085854,115.2734 323.085854,121.3094 C323.085854,127.3454 327.854816,132.2394 333.736991,132.2394 C339.619167,132.2394 344.388128,127.3454 344.388128,121.3094 C344.388128,115.2734 339.619167,110.3794 333.736991,110.3794" id="Fill-131"></path>
            <path d="M279.891626,110.3794 C274.009451,110.3794 269.240489,115.2734 269.240489,121.3094 C269.240489,127.3454 274.009451,132.2394 279.891626,132.2394 C285.773801,132.2394 290.542763,127.3454 290.542763,121.3094 C290.542763,115.2734 285.773801,110.3794 279.891626,110.3794" id="Fill-133"></path>
            <path d="M306.814309,110.3794 C300.932133,110.3794 296.163172,115.2734 296.163172,121.3094 C296.163172,127.3454 300.932133,132.2394 306.814309,132.2394 C312.696484,132.2394 317.465446,127.3454 317.465446,121.3094 C317.465446,115.2734 312.696484,110.3794 306.814309,110.3794" id="Fill-135"></path>
            <path d="M252.968845,110.3794 C247.08667,110.3794 242.317708,115.2734 242.317708,121.3094 C242.317708,127.3454 247.08667,132.2394 252.968845,132.2394 C258.85102,132.2394 263.619982,127.3454 263.619982,121.3094 C263.619982,115.2734 258.85102,110.3794 252.968845,110.3794" id="Fill-137"></path>
            <path d="M226.046162,110.3794 C220.163987,110.3794 215.395025,115.2734 215.395025,121.3094 C215.395025,127.3454 220.163987,132.2394 226.046162,132.2394 C231.928337,132.2394 236.697299,127.3454 236.697299,121.3094 C236.697299,115.2734 231.928337,110.3794 226.046162,110.3794" id="Fill-139"></path>
            <path d="M199.123479,110.3794 C193.241304,110.3794 188.472342,115.2734 188.472342,121.3094 C188.472342,127.3454 193.241304,132.2394 199.123479,132.2394 C205.005654,132.2394 209.774616,127.3454 209.774616,121.3094 C209.774616,115.2734 205.005654,110.3794 199.123479,110.3794" id="Fill-141"></path>
            <path d="M172.200308,110.3794 C166.318133,110.3794 161.549171,115.2734 161.549171,121.3094 C161.549171,127.3454 166.318133,132.2394 172.200308,132.2394 C178.082483,132.2394 182.851445,127.3454 182.851445,121.3094 C182.851445,115.2734 178.082483,110.3794 172.200308,110.3794" id="Fill-143"></path>
            <path d="M118.354845,110.3794 C112.47267,110.3794 107.703708,115.2734 107.703708,121.3094 C107.703708,127.3454 112.47267,132.2394 118.354845,132.2394 C124.23702,132.2394 129.005982,127.3454 129.005982,121.3094 C129.005982,115.2734 124.23702,110.3794 118.354845,110.3794" id="Fill-145"></path>
            <path d="M145.277528,110.3794 C139.395353,110.3794 134.626391,115.2734 134.626391,121.3094 C134.626391,127.3454 139.395353,132.2394 145.277528,132.2394 C151.159703,132.2394 155.928665,127.3454 155.928665,121.3094 C155.928665,115.2734 151.159703,110.3794 145.277528,110.3794" id="Fill-147"></path>
            <path d="M91.4321619,110.3794 C85.5499869,110.3794 80.781025,115.2734 80.781025,121.3094 C80.781025,127.3454 85.5499869,132.2394 91.4321619,132.2394 C97.314337,132.2394 102.083299,127.3454 102.083299,121.3094 C102.083299,115.2734 97.314337,110.3794 91.4321619,110.3794" id="Fill-149"></path>
            <path d="M64.509479,110.3794 C58.627304,110.3794 53.858342,115.2734 53.858342,121.3094 C53.858342,127.3454 58.627304,132.2394 64.509479,132.2394 C70.391654,132.2394 75.160616,127.3454 75.160616,121.3094 C75.160616,115.2734 70.391654,110.3794 64.509479,110.3794" id="Fill-151"></path>
            <path d="M37.5866985,110.3794 C31.7045234,110.3794 26.9355615,115.2734 26.9355615,121.3094 C26.9355615,127.3454 31.7045234,132.2394 37.5866985,132.2394 C43.4688735,132.2394 48.2378355,127.3454 48.2378355,121.3094 C48.2378355,115.2734 43.4688735,110.3794 37.5866985,110.3794" id="Fill-153"></path>
            <path d="M602.964992,82.7847 C597.082817,82.7847 592.313855,87.6787 592.313855,93.7147 C592.313855,99.7507 597.082817,104.6447 602.964992,104.6447 C608.847167,104.6447 613.616129,99.7507 613.616129,93.7147 C613.616129,87.6787 608.847167,82.7847 602.964992,82.7847" id="Fill-155"></path>
            <path d="M629.887772,82.7847 C624.005597,82.7847 619.236635,87.6787 619.236635,93.7147 C619.236635,99.7507 624.005597,104.6447 629.887772,104.6447 C635.769947,104.6447 640.538909,99.7507 640.538909,93.7147 C640.538909,87.6787 635.769947,82.7847 629.887772,82.7847" id="Fill-157"></path>
            <path d="M576.042309,82.7847 C570.160134,82.7847 565.391172,87.6787 565.391172,93.7147 C565.391172,99.7507 570.160134,104.6447 576.042309,104.6447 C581.924484,104.6447 586.693446,99.7507 586.693446,93.7147 C586.693446,87.6787 581.924484,82.7847 576.042309,82.7847" id="Fill-160"></path>
            <path d="M549.119138,82.7847 C543.236963,82.7847 538.468001,87.6787 538.468001,93.7147 C538.468001,99.7507 543.236963,104.6447 549.119138,104.6447 C555.001313,104.6447 559.770275,99.7507 559.770275,93.7147 C559.770275,87.6787 555.001313,82.7847 549.119138,82.7847" id="Fill-162"></path>
            <path d="M522.196455,82.7847 C516.31428,82.7847 511.545318,87.6787 511.545318,93.7147 C511.545318,99.7507 516.31428,104.6447 522.196455,104.6447 C528.07863,104.6447 532.847592,99.7507 532.847592,93.7147 C532.847592,87.6787 528.07863,82.7847 522.196455,82.7847" id="Fill-164"></path>
            <path d="M495.273772,82.7847 C489.391597,82.7847 484.622635,87.6787 484.622635,93.7147 C484.622635,99.7507 489.391597,104.6447 495.273772,104.6447 C501.155947,104.6447 505.924909,99.7507 505.924909,93.7147 C505.924909,87.6787 501.155947,82.7847 495.273772,82.7847" id="Fill-166"></path>
            <path d="M441.428309,82.7847 C435.546134,82.7847 430.777172,87.6787 430.777172,93.7147 C430.777172,99.7507 435.546134,104.6447 441.428309,104.6447 C447.310484,104.6447 452.079446,99.7507 452.079446,93.7147 C452.079446,87.6787 447.310484,82.7847 441.428309,82.7847" id="Fill-168"></path>
            <path d="M468.350992,82.7847 C462.468817,82.7847 457.699855,87.6787 457.699855,93.7147 C457.699855,99.7507 462.468817,104.6447 468.350992,104.6447 C474.233167,104.6447 479.002129,99.7507 479.002129,93.7147 C479.002129,87.6787 474.233167,82.7847 468.350992,82.7847" id="Fill-170"></path>
            <path d="M414.505626,82.7847 C408.623451,82.7847 403.854489,87.6787 403.854489,93.7147 C403.854489,99.7507 408.623451,104.6447 414.505626,104.6447 C420.387801,104.6447 425.156763,99.7507 425.156763,93.7147 C425.156763,87.6787 420.387801,82.7847 414.505626,82.7847" id="Fill-172"></path>
            <path d="M387.582943,82.7847 C381.700768,82.7847 376.931806,87.6787 376.931806,93.7147 C376.931806,99.7507 381.700768,104.6447 387.582943,104.6447 C393.465118,104.6447 398.23408,99.7507 398.23408,93.7147 C398.23408,87.6787 393.465118,82.7847 387.582943,82.7847" id="Fill-174"></path>
            <path d="M360.659674,82.7847 C354.777499,82.7847 350.008537,87.6787 350.008537,93.7147 C350.008537,99.7507 354.777499,104.6447 360.659674,104.6447 C366.541849,104.6447 371.310811,99.7507 371.310811,93.7147 C371.310811,87.6787 366.541849,82.7847 360.659674,82.7847" id="Fill-176"></path>
            <path d="M333.736991,82.7847 C327.854816,82.7847 323.085854,87.6787 323.085854,93.7147 C323.085854,99.7507 327.854816,104.6447 333.736991,104.6447 C339.619167,104.6447 344.388128,99.7507 344.388128,93.7147 C344.388128,87.6787 339.619167,82.7847 333.736991,82.7847" id="Fill-178"></path>
            <path d="M279.891626,82.7847 C274.009451,82.7847 269.240489,87.6787 269.240489,93.7147 C269.240489,99.7507 274.009451,104.6447 279.891626,104.6447 C285.773801,104.6447 290.542763,99.7507 290.542763,93.7147 C290.542763,87.6787 285.773801,82.7847 279.891626,82.7847" id="Fill-180"></path>
            <path d="M306.814309,82.7847 C300.932133,82.7847 296.163172,87.6787 296.163172,93.7147 C296.163172,99.7507 300.932133,104.6447 306.814309,104.6447 C312.696484,104.6447 317.465446,99.7507 317.465446,93.7147 C317.465446,87.6787 312.696484,82.7847 306.814309,82.7847" id="Fill-182"></path>
            <path d="M252.968845,82.7847 C247.08667,82.7847 242.317708,87.6787 242.317708,93.7147 C242.317708,99.7507 247.08667,104.6447 252.968845,104.6447 C258.85102,104.6447 263.619982,99.7507 263.619982,93.7147 C263.619982,87.6787 258.85102,82.7847 252.968845,82.7847" id="Fill-184"></path>
            <path d="M226.046162,82.7847 C220.163987,82.7847 215.395025,87.6787 215.395025,93.7147 C215.395025,99.7507 220.163987,104.6447 226.046162,104.6447 C231.928337,104.6447 236.697299,99.7507 236.697299,93.7147 C236.697299,87.6787 231.928337,82.7847 226.046162,82.7847" id="Fill-186"></path>
            <path d="M199.123479,82.7847 C193.241304,82.7847 188.472342,87.6787 188.472342,93.7147 C188.472342,99.7507 193.241304,104.6447 199.123479,104.6447 C205.005654,104.6447 209.774616,99.7507 209.774616,93.7147 C209.774616,87.6787 205.005654,82.7847 199.123479,82.7847" id="Fill-188"></path>
            <path d="M172.200308,82.7847 C166.318133,82.7847 161.549171,87.6787 161.549171,93.7147 C161.549171,99.7507 166.318133,104.6447 172.200308,104.6447 C178.082483,104.6447 182.851445,99.7507 182.851445,93.7147 C182.851445,87.6787 178.082483,82.7847 172.200308,82.7847" id="Fill-190"></path>
            <path d="M118.354845,82.7847 C112.47267,82.7847 107.703708,87.6787 107.703708,93.7147 C107.703708,99.7507 112.47267,104.6447 118.354845,104.6447 C124.23702,104.6447 129.005982,99.7507 129.005982,93.7147 C129.005982,87.6787 124.23702,82.7847 118.354845,82.7847" id="Fill-192"></path>
            <path d="M145.277528,82.7847 C139.395353,82.7847 134.626391,87.6787 134.626391,93.7147 C134.626391,99.7507 139.395353,104.6447 145.277528,104.6447 C151.159703,104.6447 155.928665,99.7507 155.928665,93.7147 C155.928665,87.6787 151.159703,82.7847 145.277528,82.7847" id="Fill-194"></path>
            <path d="M91.4321619,82.7847 C85.5499869,82.7847 80.781025,87.6787 80.781025,93.7147 C80.781025,99.7507 85.5499869,104.6447 91.4321619,104.6447 C97.314337,104.6447 102.083299,99.7507 102.083299,93.7147 C102.083299,87.6787 97.314337,82.7847 91.4321619,82.7847" id="Fill-196"></path>
            <path d="M64.509479,82.7847 C58.627304,82.7847 53.858342,87.6787 53.858342,93.7147 C53.858342,99.7507 58.627304,104.6447 64.509479,104.6447 C70.391654,104.6447 75.160616,99.7507 75.160616,93.7147 C75.160616,87.6787 70.391654,82.7847 64.509479,82.7847" id="Fill-198"></path>
            <path d="M37.5866985,82.7847 C31.7045234,82.7847 26.9355615,87.6787 26.9355615,93.7147 C26.9355615,99.7507 31.7045234,104.6447 37.5866985,104.6447 C43.4688735,104.6447 48.2378355,99.7507 48.2378355,93.7147 C48.2378355,87.6787 43.4688735,82.7847 37.5866985,82.7847" id="Fill-200"></path>
            <path d="M602.964992,55.19 C597.082817,55.19 592.313855,60.083 592.313855,66.12 C592.313855,72.156 597.082817,77.05 602.964992,77.05 C608.847167,77.05 613.616129,72.156 613.616129,66.12 C613.616129,60.083 608.847167,55.19 602.964992,55.19" id="Fill-202"></path>
            <path d="M629.887772,55.19 C624.005597,55.19 619.236635,60.083 619.236635,66.12 C619.236635,72.156 624.005597,77.05 629.887772,77.05 C635.769947,77.05 640.538909,72.156 640.538909,66.12 C640.538909,60.083 635.769947,55.19 629.887772,55.19" id="Fill-204"></path>
            <path d="M576.042309,55.19 C570.160134,55.19 565.391172,60.083 565.391172,66.12 C565.391172,72.156 570.160134,77.05 576.042309,77.05 C581.924484,77.05 586.693446,72.156 586.693446,66.12 C586.693446,60.083 581.924484,55.19 576.042309,55.19" id="Fill-207"></path>
            <path d="M549.119138,55.19 C543.236963,55.19 538.468001,60.083 538.468001,66.12 C538.468001,72.156 543.236963,77.05 549.119138,77.05 C555.001313,77.05 559.770275,72.156 559.770275,66.12 C559.770275,60.083 555.001313,55.19 549.119138,55.19" id="Fill-209"></path>
            <path d="M522.196455,55.19 C516.31428,55.19 511.545318,60.083 511.545318,66.12 C511.545318,72.156 516.31428,77.05 522.196455,77.05 C528.07863,77.05 532.847592,72.156 532.847592,66.12 C532.847592,60.083 528.07863,55.19 522.196455,55.19" id="Fill-211"></path>
            <path d="M495.273772,55.19 C489.391597,55.19 484.622635,60.083 484.622635,66.12 C484.622635,72.156 489.391597,77.05 495.273772,77.05 C501.155947,77.05 505.924909,72.156 505.924909,66.12 C505.924909,60.083 501.155947,55.19 495.273772,55.19" id="Fill-213"></path>
            <path d="M441.428309,55.19 C435.546134,55.19 430.777172,60.083 430.777172,66.12 C430.777172,72.156 435.546134,77.05 441.428309,77.05 C447.310484,77.05 452.079446,72.156 452.079446,66.12 C452.079446,60.083 447.310484,55.19 441.428309,55.19" id="Fill-215"></path>
            <path d="M468.350992,55.19 C462.468817,55.19 457.699855,60.083 457.699855,66.12 C457.699855,72.156 462.468817,77.05 468.350992,77.05 C474.233167,77.05 479.002129,72.156 479.002129,66.12 C479.002129,60.083 474.233167,55.19 468.350992,55.19" id="Fill-217"></path>
            <path d="M414.505626,55.19 C408.623451,55.19 403.854489,60.083 403.854489,66.12 C403.854489,72.156 408.623451,77.05 414.505626,77.05 C420.387801,77.05 425.156763,72.156 425.156763,66.12 C425.156763,60.083 420.387801,55.19 414.505626,55.19" id="Fill-219"></path>
            <path d="M387.582943,55.19 C381.700768,55.19 376.931806,60.083 376.931806,66.12 C376.931806,72.156 381.700768,77.05 387.582943,77.05 C393.465118,77.05 398.23408,72.156 398.23408,66.12 C398.23408,60.083 393.465118,55.19 387.582943,55.19" id="Fill-221"></path>
            <path d="M360.659674,55.19 C354.777499,55.19 350.008537,60.083 350.008537,66.12 C350.008537,72.156 354.777499,77.05 360.659674,77.05 C366.541849,77.05 371.310811,72.156 371.310811,66.12 C371.310811,60.083 366.541849,55.19 360.659674,55.19" id="Fill-223"></path>
            <path d="M333.736991,55.19 C327.854816,55.19 323.085854,60.083 323.085854,66.12 C323.085854,72.156 327.854816,77.05 333.736991,77.05 C339.619167,77.05 344.388128,72.156 344.388128,66.12 C344.388128,60.083 339.619167,55.19 333.736991,55.19" id="Fill-225"></path>
            <path d="M279.891626,55.19 C274.009451,55.19 269.240489,60.083 269.240489,66.12 C269.240489,72.156 274.009451,77.05 279.891626,77.05 C285.773801,77.05 290.542763,72.156 290.542763,66.12 C290.542763,60.083 285.773801,55.19 279.891626,55.19" id="Fill-227"></path>
            <path d="M306.814309,55.19 C300.932133,55.19 296.163172,60.083 296.163172,66.12 C296.163172,72.156 300.932133,77.05 306.814309,77.05 C312.696484,77.05 317.465446,72.156 317.465446,66.12 C317.465446,60.083 312.696484,55.19 306.814309,55.19" id="Fill-229"></path>
            <path d="M252.968845,55.19 C247.08667,55.19 242.317708,60.083 242.317708,66.12 C242.317708,72.156 247.08667,77.05 252.968845,77.05 C258.85102,77.05 263.619982,72.156 263.619982,66.12 C263.619982,60.083 258.85102,55.19 252.968845,55.19" id="Fill-231"></path>
            <path d="M226.046162,55.19 C220.163987,55.19 215.395025,60.083 215.395025,66.12 C215.395025,72.156 220.163987,77.05 226.046162,77.05 C231.928337,77.05 236.697299,72.156 236.697299,66.12 C236.697299,60.083 231.928337,55.19 226.046162,55.19" id="Fill-233"></path>
            <path d="M199.123479,55.19 C193.241304,55.19 188.472342,60.083 188.472342,66.12 C188.472342,72.156 193.241304,77.05 199.123479,77.05 C205.005654,77.05 209.774616,72.156 209.774616,66.12 C209.774616,60.083 205.005654,55.19 199.123479,55.19" id="Fill-235"></path>
            <path d="M172.200308,55.19 C166.318133,55.19 161.549171,60.083 161.549171,66.12 C161.549171,72.156 166.318133,77.05 172.200308,77.05 C178.082483,77.05 182.851445,72.156 182.851445,66.12 C182.851445,60.083 178.082483,55.19 172.200308,55.19" id="Fill-237"></path>
            <path d="M118.354845,55.19 C112.47267,55.19 107.703708,60.083 107.703708,66.12 C107.703708,72.156 112.47267,77.05 118.354845,77.05 C124.23702,77.05 129.005982,72.156 129.005982,66.12 C129.005982,60.083 124.23702,55.19 118.354845,55.19" id="Fill-239"></path>
            <path d="M145.277528,55.19 C139.395353,55.19 134.626391,60.083 134.626391,66.12 C134.626391,72.156 139.395353,77.05 145.277528,77.05 C151.159703,77.05 155.928665,72.156 155.928665,66.12 C155.928665,60.083 151.159703,55.19 145.277528,55.19" id="Fill-241"></path>
            <path d="M91.4321619,55.19 C85.5499869,55.19 80.781025,60.083 80.781025,66.12 C80.781025,72.156 85.5499869,77.05 91.4321619,77.05 C97.314337,77.05 102.083299,72.156 102.083299,66.12 C102.083299,60.083 97.314337,55.19 91.4321619,55.19" id="Fill-243"></path>
            <path d="M64.509479,55.19 C58.627304,55.19 53.858342,60.083 53.858342,66.12 C53.858342,72.156 58.627304,77.05 64.509479,77.05 C70.391654,77.05 75.160616,72.156 75.160616,66.12 C75.160616,60.083 70.391654,55.19 64.509479,55.19" id="Fill-245"></path>
            <path d="M37.5866985,55.19 C31.7045234,55.19 26.9355615,60.083 26.9355615,66.12 C26.9355615,72.156 31.7045234,77.05 37.5866985,77.05 C43.4688735,77.05 48.2378355,72.156 48.2378355,66.12 C48.2378355,60.083 43.4688735,55.19 37.5866985,55.19" id="Fill-247"></path>
            <path d="M602.964992,27.5953 C597.082817,27.5953 592.313855,32.4883 592.313855,38.5253 C592.313855,44.5613 597.082817,49.4553 602.964992,49.4553 C608.847167,49.4553 613.616129,44.5613 613.616129,38.5253 C613.616129,32.4883 608.847167,27.5953 602.964992,27.5953" id="Fill-249"></path>
            <path d="M629.887772,27.5953 C624.005597,27.5953 619.236635,32.4883 619.236635,38.5253 C619.236635,44.5613 624.005597,49.4553 629.887772,49.4553 C635.769947,49.4553 640.538909,44.5613 640.538909,38.5253 C640.538909,32.4883 635.769947,27.5953 629.887772,27.5953" id="Fill-251"></path>
            <path d="M576.042309,27.5953 C570.160134,27.5953 565.391172,32.4883 565.391172,38.5253 C565.391172,44.5613 570.160134,49.4553 576.042309,49.4553 C581.924484,49.4553 586.693446,44.5613 586.693446,38.5253 C586.693446,32.4883 581.924484,27.5953 576.042309,27.5953" id="Fill-254"></path>
            <path d="M549.119138,27.5953 C543.236963,27.5953 538.468001,32.4883 538.468001,38.5253 C538.468001,44.5613 543.236963,49.4553 549.119138,49.4553 C555.001313,49.4553 559.770275,44.5613 559.770275,38.5253 C559.770275,32.4883 555.001313,27.5953 549.119138,27.5953" id="Fill-256"></path>
            <path d="M522.196455,27.5953 C516.31428,27.5953 511.545318,32.4883 511.545318,38.5253 C511.545318,44.5613 516.31428,49.4553 522.196455,49.4553 C528.07863,49.4553 532.847592,44.5613 532.847592,38.5253 C532.847592,32.4883 528.07863,27.5953 522.196455,27.5953" id="Fill-258"></path>
            <path d="M495.273772,27.5953 C489.391597,27.5953 484.622635,32.4883 484.622635,38.5253 C484.622635,44.5613 489.391597,49.4553 495.273772,49.4553 C501.155947,49.4553 505.924909,44.5613 505.924909,38.5253 C505.924909,32.4883 501.155947,27.5953 495.273772,27.5953" id="Fill-260"></path>
            <path d="M441.428309,27.5953 C435.546134,27.5953 430.777172,32.4883 430.777172,38.5253 C430.777172,44.5613 435.546134,49.4553 441.428309,49.4553 C447.310484,49.4553 452.079446,44.5613 452.079446,38.5253 C452.079446,32.4883 447.310484,27.5953 441.428309,27.5953" id="Fill-262"></path>
            <path d="M468.350992,27.5953 C462.468817,27.5953 457.699855,32.4883 457.699855,38.5253 C457.699855,44.5613 462.468817,49.4553 468.350992,49.4553 C474.233167,49.4553 479.002129,44.5613 479.002129,38.5253 C479.002129,32.4883 474.233167,27.5953 468.350992,27.5953" id="Fill-264"></path>
            <path d="M414.505626,27.5953 C408.623451,27.5953 403.854489,32.4883 403.854489,38.5253 C403.854489,44.5613 408.623451,49.4553 414.505626,49.4553 C420.387801,49.4553 425.156763,44.5613 425.156763,38.5253 C425.156763,32.4883 420.387801,27.5953 414.505626,27.5953" id="Fill-266"></path>
            <path d="M387.582943,27.5953 C381.700768,27.5953 376.931806,32.4883 376.931806,38.5253 C376.931806,44.5613 381.700768,49.4553 387.582943,49.4553 C393.465118,49.4553 398.23408,44.5613 398.23408,38.5253 C398.23408,32.4883 393.465118,27.5953 387.582943,27.5953" id="Fill-268"></path>
            <path d="M360.659674,27.5953 C354.777499,27.5953 350.008537,32.4883 350.008537,38.5253 C350.008537,44.5613 354.777499,49.4553 360.659674,49.4553 C366.541849,49.4553 371.310811,44.5613 371.310811,38.5253 C371.310811,32.4883 366.541849,27.5953 360.659674,27.5953" id="Fill-270"></path>
            <path d="M333.736991,27.5953 C327.854816,27.5953 323.085854,32.4883 323.085854,38.5253 C323.085854,44.5613 327.854816,49.4553 333.736991,49.4553 C339.619167,49.4553 344.388128,44.5613 344.388128,38.5253 C344.388128,32.4883 339.619167,27.5953 333.736991,27.5953" id="Fill-272"></path>
            <path d="M279.891626,27.5953 C274.009451,27.5953 269.240489,32.4883 269.240489,38.5253 C269.240489,44.5613 274.009451,49.4553 279.891626,49.4553 C285.773801,49.4553 290.542763,44.5613 290.542763,38.5253 C290.542763,32.4883 285.773801,27.5953 279.891626,27.5953" id="Fill-274"></path>
            <path d="M306.814309,27.5953 C300.932133,27.5953 296.163172,32.4883 296.163172,38.5253 C296.163172,44.5613 300.932133,49.4553 306.814309,49.4553 C312.696484,49.4553 317.465446,44.5613 317.465446,38.5253 C317.465446,32.4883 312.696484,27.5953 306.814309,27.5953" id="Fill-276"></path>
            <path d="M252.968845,27.5953 C247.08667,27.5953 242.317708,32.4883 242.317708,38.5253 C242.317708,44.5613 247.08667,49.4553 252.968845,49.4553 C258.85102,49.4553 263.619982,44.5613 263.619982,38.5253 C263.619982,32.4883 258.85102,27.5953 252.968845,27.5953" id="Fill-278"></path>
            <path d="M226.046162,27.5953 C220.163987,27.5953 215.395025,32.4883 215.395025,38.5253 C215.395025,44.5613 220.163987,49.4553 226.046162,49.4553 C231.928337,49.4553 236.697299,44.5613 236.697299,38.5253 C236.697299,32.4883 231.928337,27.5953 226.046162,27.5953" id="Fill-280"></path>
            <path d="M199.123479,27.5953 C193.241304,27.5953 188.472342,32.4883 188.472342,38.5253 C188.472342,44.5613 193.241304,49.4553 199.123479,49.4553 C205.005654,49.4553 209.774616,44.5613 209.774616,38.5253 C209.774616,32.4883 205.005654,27.5953 199.123479,27.5953" id="Fill-282"></path>
            <path d="M172.200308,27.5953 C166.318133,27.5953 161.549171,32.4883 161.549171,38.5253 C161.549171,44.5613 166.318133,49.4553 172.200308,49.4553 C178.082483,49.4553 182.851445,44.5613 182.851445,38.5253 C182.851445,32.4883 178.082483,27.5953 172.200308,27.5953" id="Fill-284"></path>
            <path d="M118.354845,27.5953 C112.47267,27.5953 107.703708,32.4883 107.703708,38.5253 C107.703708,44.5613 112.47267,49.4553 118.354845,49.4553 C124.23702,49.4553 129.005982,44.5613 129.005982,38.5253 C129.005982,32.4883 124.23702,27.5953 118.354845,27.5953" id="Fill-286"></path>
            <path d="M145.277528,27.5953 C139.395353,27.5953 134.626391,32.4883 134.626391,38.5253 C134.626391,44.5613 139.395353,49.4553 145.277528,49.4553 C151.159703,49.4553 155.928665,44.5613 155.928665,38.5253 C155.928665,32.4883 151.159703,27.5953 145.277528,27.5953" id="Fill-288"></path>
            <path d="M91.4321619,27.5953 C85.5499869,27.5953 80.781025,32.4883 80.781025,38.5253 C80.781025,44.5613 85.5499869,49.4553 91.4321619,49.4553 C97.314337,49.4553 102.083299,44.5613 102.083299,38.5253 C102.083299,32.4883 97.314337,27.5953 91.4321619,27.5953" id="Fill-290"></path>
            <path d="M64.509479,27.5953 C58.627304,27.5953 53.858342,32.4883 53.858342,38.5253 C53.858342,44.5613 58.627304,49.4553 64.509479,49.4553 C70.391654,49.4553 75.160616,44.5613 75.160616,38.5253 C75.160616,32.4883 70.391654,27.5953 64.509479,27.5953" id="Fill-292"></path>
            <path d="M37.5866985,27.5953 C31.7045234,27.5953 26.9355615,32.4883 26.9355615,38.5253 C26.9355615,44.5613 31.7045234,49.4553 37.5866985,49.4553 C43.4688735,49.4553 48.2378355,44.5613 48.2378355,38.5253 C48.2378355,32.4883 43.4688735,27.5953 37.5866985,27.5953" id="Fill-294"></path>
            <path d="M602.964992,0 C597.082817,0 592.313855,4.894 592.313855,10.93 C592.313855,16.967 597.082817,21.86 602.964992,21.86 C608.847167,21.86 613.616129,16.967 613.616129,10.93 C613.616129,4.894 608.847167,0 602.964992,0" id="Fill-296"></path>
            <path d="M629.887772,0 C624.005597,0 619.236635,4.894 619.236635,10.93 C619.236635,16.967 624.005597,21.86 629.887772,21.86 C635.769947,21.86 640.538909,16.967 640.538909,10.93 C640.538909,4.894 635.769947,0 629.887772,0" id="Fill-298"></path>
            <path d="M576.042309,0 C570.160134,0 565.391172,4.894 565.391172,10.93 C565.391172,16.967 570.160134,21.86 576.042309,21.86 C581.924484,21.86 586.693446,16.967 586.693446,10.93 C586.693446,4.894 581.924484,0 576.042309,0" id="Fill-301"></path>
            <path d="M549.119138,0 C543.236963,0 538.468001,4.894 538.468001,10.93 C538.468001,16.967 543.236963,21.86 549.119138,21.86 C555.001313,21.86 559.770275,16.967 559.770275,10.93 C559.770275,4.894 555.001313,0 549.119138,0" id="Fill-303"></path>
            <path d="M522.196455,0 C516.31428,0 511.545318,4.894 511.545318,10.93 C511.545318,16.967 516.31428,21.86 522.196455,21.86 C528.07863,21.86 532.847592,16.967 532.847592,10.93 C532.847592,4.894 528.07863,0 522.196455,0" id="Fill-305"></path>
            <path d="M495.273772,0 C489.391597,0 484.622635,4.894 484.622635,10.93 C484.622635,16.967 489.391597,21.86 495.273772,21.86 C501.155947,21.86 505.924909,16.967 505.924909,10.93 C505.924909,4.894 501.155947,0 495.273772,0" id="Fill-307"></path>
            <path d="M441.428309,0 C435.546134,0 430.777172,4.894 430.777172,10.93 C430.777172,16.967 435.546134,21.86 441.428309,21.86 C447.310484,21.86 452.079446,16.967 452.079446,10.93 C452.079446,4.894 447.310484,0 441.428309,0" id="Fill-309"></path>
            <path d="M468.350992,0 C462.468817,0 457.699855,4.894 457.699855,10.93 C457.699855,16.967 462.468817,21.86 468.350992,21.86 C474.233167,21.86 479.002129,16.967 479.002129,10.93 C479.002129,4.894 474.233167,0 468.350992,0" id="Fill-311"></path>
            <path d="M414.505626,0 C408.623451,0 403.854489,4.894 403.854489,10.93 C403.854489,16.967 408.623451,21.86 414.505626,21.86 C420.387801,21.86 425.156763,16.967 425.156763,10.93 C425.156763,4.894 420.387801,0 414.505626,0" id="Fill-313"></path>
            <path d="M387.582943,0 C381.700768,0 376.931806,4.894 376.931806,10.93 C376.931806,16.967 381.700768,21.86 387.582943,21.86 C393.465118,21.86 398.23408,16.967 398.23408,10.93 C398.23408,4.894 393.465118,0 387.582943,0" id="Fill-315"></path>
            <path d="M360.659674,0 C354.777499,0 350.008537,4.894 350.008537,10.93 C350.008537,16.967 354.777499,21.86 360.659674,21.86 C366.541849,21.86 371.310811,16.967 371.310811,10.93 C371.310811,4.894 366.541849,0 360.659674,0" id="Fill-317"></path>
            <path d="M333.736991,0 C327.854816,0 323.085854,4.894 323.085854,10.93 C323.085854,16.967 327.854816,21.86 333.736991,21.86 C339.619167,21.86 344.388128,16.967 344.388128,10.93 C344.388128,4.894 339.619167,0 333.736991,0" id="Fill-319"></path>
            <path d="M279.891626,0 C274.009451,0 269.240489,4.894 269.240489,10.93 C269.240489,16.967 274.009451,21.86 279.891626,21.86 C285.773801,21.86 290.542763,16.967 290.542763,10.93 C290.542763,4.894 285.773801,0 279.891626,0" id="Fill-321"></path>
            <path d="M306.814309,0 C300.932133,0 296.163172,4.894 296.163172,10.93 C296.163172,16.967 300.932133,21.86 306.814309,21.86 C312.696484,21.86 317.465446,16.967 317.465446,10.93 C317.465446,4.894 312.696484,0 306.814309,0" id="Fill-323"></path>
            <path d="M252.968845,0 C247.08667,0 242.317708,4.894 242.317708,10.93 C242.317708,16.967 247.08667,21.86 252.968845,21.86 C258.85102,21.86 263.619982,16.967 263.619982,10.93 C263.619982,4.894 258.85102,0 252.968845,0" id="Fill-325"></path>
            <path d="M226.046162,0 C220.163987,0 215.395025,4.894 215.395025,10.93 C215.395025,16.967 220.163987,21.86 226.046162,21.86 C231.928337,21.86 236.697299,16.967 236.697299,10.93 C236.697299,4.894 231.928337,0 226.046162,0" id="Fill-327"></path>
            <path d="M199.123479,0 C193.241304,0 188.472342,4.894 188.472342,10.93 C188.472342,16.967 193.241304,21.86 199.123479,21.86 C205.005654,21.86 209.774616,16.967 209.774616,10.93 C209.774616,4.894 205.005654,0 199.123479,0" id="Fill-329"></path>
            <path d="M172.200308,0 C166.318133,0 161.549171,4.894 161.549171,10.93 C161.549171,16.967 166.318133,21.86 172.200308,21.86 C178.082483,21.86 182.851445,16.967 182.851445,10.93 C182.851445,4.894 178.082483,0 172.200308,0" id="Fill-331"></path>
            <path d="M118.354845,0 C112.47267,0 107.703708,4.894 107.703708,10.93 C107.703708,16.967 112.47267,21.86 118.354845,21.86 C124.23702,21.86 129.005982,16.967 129.005982,10.93 C129.005982,4.894 124.23702,0 118.354845,0" id="Fill-333"></path>
            <path d="M145.277528,0 C139.395353,0 134.626391,4.894 134.626391,10.93 C134.626391,16.967 139.395353,21.86 145.277528,21.86 C151.159703,21.86 155.928665,16.967 155.928665,10.93 C155.928665,4.894 151.159703,0 145.277528,0" id="Fill-335"></path>
            <path d="M91.4321619,0 C85.5499869,0 80.781025,4.894 80.781025,10.93 C80.781025,16.967 85.5499869,21.86 91.4321619,21.86 C97.314337,21.86 102.083299,16.967 102.083299,10.93 C102.083299,4.894 97.314337,0 91.4321619,0" id="Fill-337"></path>
            <path d="M64.509479,0 C58.627304,0 53.858342,4.894 53.858342,10.93 C53.858342,16.967 58.627304,21.86 64.509479,21.86 C70.391654,21.86 75.160616,16.967 75.160616,10.93 C75.160616,4.894 70.391654,0 64.509479,0" id="Fill-339"></path>
            <path d="M37.5866985,0 C31.7045234,0 26.9355615,4.894 26.9355615,10.93 C26.9355615,16.967 31.7045234,21.86 37.5866985,21.86 C43.4688735,21.86 48.2378355,16.967 48.2378355,10.93 C48.2378355,4.894 43.4688735,0 37.5866985,0" id="Fill-341"></path>
        </g>
    </g>
</svg>