<?xml version="1.0" encoding="UTF-8"?>
<svg width="216px" height="188px" viewBox="0 0 216 188" version="1.1" xmlns="http://www.w3.org/2000/svg" xmlns:xlink="http://www.w3.org/1999/xlink">
    <!-- Generator: Sketch 52.5 (67469) - http://www.bohemiancoding.com/sketch -->
    <title>Group 113</title>
    <desc>Created with Sketch.</desc>
    <g id="Page-1" stroke="none" stroke-width="1" fill="none" fill-rule="evenodd" opacity="0.07">
        <g id="Group-113" style="mix-blend-mode: multiply;" transform="translate(108.000000, 94.000000) rotate(-270.000000) translate(-108.000000, -94.000000) translate(14.000000, -14.000000)" fill="#000000">
            <path d="M165.310345,38.3412451 C165.310345,44.6038933 170.389951,49.68 176.655172,49.68 C182.921638,49.68 188,44.6038933 188,38.3412451 C188,32.0785968 182.921638,27 176.655172,27 C170.389951,27 165.310345,32.0785968 165.310345,38.3412451" id="Fill-1"></path>
            <path d="M165.310345,11.34 C165.310345,17.6026482 170.389951,22.68 176.655172,22.68 C182.921638,22.68 188,17.6026482 188,11.34 C188,5.07735178 182.921638,9.09494702e-13 176.655172,9.09494702e-13 C170.389951,9.09494702e-13 165.310345,5.07735178 165.310345,11.34" id="Fill-3"></path>
            <path d="M165.310345,66.4206226 C165.310345,72.6823695 170.389951,77.76 176.655172,77.76 C182.921638,77.76 188,72.6823695 188,66.4206226 C188,60.1576305 182.921638,55.08 176.655172,55.08 C170.389951,55.08 165.310345,60.1576305 165.310345,66.4206226" id="Fill-5"></path>
            <path d="M165.310345,94.5 C165.310345,100.762648 170.389951,105.84 176.655172,105.84 C182.921638,105.84 188,100.762648 188,94.5 C188,88.2385968 182.921638,83.16 176.655172,83.16 C170.389951,83.16 165.310345,88.2385968 165.310345,94.5" id="Fill-7"></path>
            <path d="M165.310345,121.5 C165.310345,127.762648 170.389951,132.84 176.655172,132.84 C182.921638,132.84 188,127.762648 188,121.5 C188,115.237352 182.921638,110.16 176.655172,110.16 C170.389951,110.16 165.310345,115.237352 165.310345,121.5" id="Fill-9"></path>
            <path d="M165.310345,149.580623 C165.310345,155.843615 170.389951,160.92 176.655172,160.92 C182.921638,160.92 188,155.843615 188,149.580623 C188,143.317631 182.921638,138.24 176.655172,138.24 C170.389951,138.24 165.310345,143.317631 165.310345,149.580623" id="Fill-11"></path>
            <path d="M165.310345,204.658755 C165.310345,210.921403 170.389951,216 176.655172,216 C182.921638,216 188,210.921403 188,204.658755 C188,198.397352 182.921638,193.32 176.655172,193.32 C170.389951,193.32 165.310345,198.397352 165.310345,204.658755" id="Fill-13"></path>
            <path d="M165.310345,177.66 C165.310345,183.921403 170.389951,189 176.655172,189 C182.921638,189 188,183.921403 188,177.66 C188,171.397352 182.921638,166.32 176.655172,166.32 C170.389951,166.32 165.310345,171.397352 165.310345,177.66" id="Fill-15"></path>
            <path d="M138.298851,38.3406226 C138.298851,44.6036146 143.378179,49.68 149.643056,49.68 C155.909178,49.68 160.988506,44.6036146 160.988506,38.3406226 C160.988506,32.0776305 155.909178,27 149.643056,27 C143.378179,27 138.298851,32.0776305 138.298851,38.3406226" id="Fill-17"></path>
            <path d="M138.298851,11.3393774 C138.298851,17.6023695 143.378179,22.68 149.643056,22.68 C155.909178,22.68 160.988506,17.6023695 160.988506,11.3393774 C160.988506,5.0763854 155.909178,9.09494702e-13 149.643056,9.09494702e-13 C143.378179,9.09494702e-13 138.298851,5.0763854 138.298851,11.3393774" id="Fill-19"></path>
            <path d="M138.298851,66.4206226 C138.298851,72.6823695 143.378179,77.76 149.643056,77.76 C155.909178,77.76 160.988506,72.6823695 160.988506,66.4206226 C160.988506,60.1576305 155.909178,55.08 149.643056,55.08 C143.378179,55.08 138.298851,60.1576305 138.298851,66.4206226" id="Fill-21"></path>
            <path d="M138.298851,94.5 C138.298851,100.762648 143.378179,105.84 149.643056,105.84 C155.909178,105.84 160.988506,100.762648 160.988506,94.5 C160.988506,88.2385968 155.909178,83.16 149.643056,83.16 C143.378179,83.16 138.298851,88.2385968 138.298851,94.5" id="Fill-23"></path>
            <path d="M138.298851,121.5 C138.298851,127.762648 143.378179,132.84 149.643056,132.84 C155.909178,132.84 160.988506,127.762648 160.988506,121.5 C160.988506,115.237352 155.909178,110.16 149.643056,110.16 C143.378179,110.16 138.298851,115.237352 138.298851,121.5" id="Fill-25"></path>
            <path d="M138.298851,149.580623 C138.298851,155.843615 143.378179,160.92 149.643056,160.92 C155.909178,160.92 160.988506,155.843615 160.988506,149.580623 C160.988506,143.317631 155.909178,138.24 149.643056,138.24 C143.378179,138.24 138.298851,143.317631 138.298851,149.580623" id="Fill-27"></path>
            <path d="M138.298851,204.66 C138.298851,210.922648 143.378179,216 149.643056,216 C155.909178,216 160.988506,210.922648 160.988506,204.66 C160.988506,198.398597 155.909178,193.32 149.643056,193.32 C143.378179,193.32 138.298851,198.398597 138.298851,204.66" id="Fill-29"></path>
            <path d="M138.298851,177.660623 C138.298851,183.922369 143.378179,189 149.643056,189 C155.909178,189 160.988506,183.922369 160.988506,177.660623 C160.988506,171.397631 155.909178,166.32 149.643056,166.32 C143.378179,166.32 138.298851,171.397631 138.298851,177.660623" id="Fill-31"></path>
            <path d="M110.206897,38.3412451 C110.206897,44.6038933 115.286782,49.68 121.551102,49.68 C127.817911,49.68 132.896552,44.6038933 132.896552,38.3412451 C132.896552,32.0785968 127.817911,27 121.551102,27 C115.286782,27 110.206897,32.0785968 110.206897,38.3412451" id="Fill-33"></path>
            <path d="M110.206897,11.34 C110.206897,17.6026482 115.286782,22.68 121.551102,22.68 C127.817911,22.68 132.896552,17.6026482 132.896552,11.34 C132.896552,5.07735178 127.817911,9.09494702e-13 121.551102,9.09494702e-13 C115.286782,9.09494702e-13 110.206897,5.07735178 110.206897,11.34" id="Fill-35"></path>
            <path d="M110.206897,66.4206226 C110.206897,72.6823695 115.286782,77.76 121.551102,77.76 C127.817911,77.76 132.896552,72.6823695 132.896552,66.4206226 C132.896552,60.1576305 127.817911,55.08 121.551102,55.08 C115.286782,55.08 110.206897,60.1576305 110.206897,66.4206226" id="Fill-37"></path>
            <path d="M110.206897,94.5 C110.206897,100.762648 115.286782,105.84 121.551102,105.84 C127.817911,105.84 132.896552,100.762648 132.896552,94.5 C132.896552,88.2385968 127.817911,83.16 121.551102,83.16 C115.286782,83.16 110.206897,88.2385968 110.206897,94.5" id="Fill-39"></path>
            <path d="M110.206897,121.5 C110.206897,127.762648 115.286782,132.84 121.551102,132.84 C127.817911,132.84 132.896552,127.762648 132.896552,121.5 C132.896552,115.237352 127.817911,110.16 121.551102,110.16 C115.286782,110.16 110.206897,115.237352 110.206897,121.5" id="Fill-41"></path>
            <path d="M110.206897,149.580623 C110.206897,155.843615 115.286782,160.92 121.551102,160.92 C127.817911,160.92 132.896552,155.843615 132.896552,149.580623 C132.896552,143.317631 127.817911,138.24 121.551102,138.24 C115.286782,138.24 110.206897,143.317631 110.206897,149.580623" id="Fill-43"></path>
            <path d="M110.206897,204.658755 C110.206897,210.921403 115.286782,216 121.551102,216 C127.817911,216 132.896552,210.921403 132.896552,204.658755 C132.896552,198.397352 127.817911,193.32 121.551102,193.32 C115.286782,193.32 110.206897,198.397352 110.206897,204.658755" id="Fill-45"></path>
            <path d="M110.206897,177.66 C110.206897,183.921403 115.286782,189 121.551102,189 C127.817911,189 132.896552,183.921403 132.896552,177.66 C132.896552,171.397352 127.817911,166.32 121.551102,166.32 C115.286782,166.32 110.206897,171.397352 110.206897,177.66" id="Fill-47"></path>
            <path d="M83.1954023,38.3412451 C83.1954023,44.6038933 88.2750087,49.68 94.5402299,49.68 C100.806695,49.68 105.885057,44.6038933 105.885057,38.3412451 C105.885057,32.0785968 100.806695,27 94.5402299,27 C88.2750087,27 83.1954023,32.0785968 83.1954023,38.3412451" id="Fill-49"></path>
            <path d="M83.1954023,11.34 C83.1954023,17.6026482 88.2750087,22.68 94.5402299,22.68 C100.806695,22.68 105.885057,17.6026482 105.885057,11.34 C105.885057,5.07735178 100.806695,9.09494702e-13 94.5402299,9.09494702e-13 C88.2750087,9.09494702e-13 83.1954023,5.07735178 83.1954023,11.34" id="Fill-51"></path>
            <path d="M83.1954023,66.4206226 C83.1954023,72.6823695 88.2750087,77.76 94.5402299,77.76 C100.806695,77.76 105.885057,72.6823695 105.885057,66.4206226 C105.885057,60.1576305 100.806695,55.08 94.5402299,55.08 C88.2750087,55.08 83.1954023,60.1576305 83.1954023,66.4206226" id="Fill-53"></path>
            <path d="M83.1954023,94.5 C83.1954023,100.762648 88.2750087,105.84 94.5402299,105.84 C100.806695,105.84 105.885057,100.762648 105.885057,94.5 C105.885057,88.2385968 100.806695,83.16 94.5402299,83.16 C88.2750087,83.16 83.1954023,88.2385968 83.1954023,94.5" id="Fill-55"></path>
            <path d="M83.1954023,121.5 C83.1954023,127.762648 88.2750087,132.84 94.5402299,132.84 C100.806695,132.84 105.885057,127.762648 105.885057,121.5 C105.885057,115.237352 100.806695,110.16 94.5402299,110.16 C88.2750087,110.16 83.1954023,115.237352 83.1954023,121.5" id="Fill-57"></path>
            <path d="M83.1954023,149.580623 C83.1954023,155.843615 88.2750087,160.92 94.5402299,160.92 C100.806695,160.92 105.885057,155.843615 105.885057,149.580623 C105.885057,143.317631 100.806695,138.24 94.5402299,138.24 C88.2750087,138.24 83.1954023,143.317631 83.1954023,149.580623" id="Fill-59"></path>
            <path d="M83.1954023,204.658755 C83.1954023,210.921403 88.2750087,216 94.5402299,216 C100.806695,216 105.885057,210.921403 105.885057,204.658755 C105.885057,198.397352 100.806695,193.32 94.5402299,193.32 C88.2750087,193.32 83.1954023,198.397352 83.1954023,204.658755" id="Fill-61"></path>
            <path d="M83.1954023,177.66 C83.1954023,183.921403 88.2750087,189 94.5402299,189 C100.806695,189 105.885057,183.921403 105.885057,177.66 C105.885057,171.397352 100.806695,166.32 94.5402299,166.32 C88.2750087,166.32 83.1954023,171.397352 83.1954023,177.66" id="Fill-63"></path>
            <path d="M55.1034483,38.3412451 C55.1034483,44.6038933 60.1830547,49.68 66.4482759,49.68 C72.7147411,49.68 77.7931034,44.6038933 77.7931034,38.3412451 C77.7931034,32.0785968 72.7147411,27 66.4482759,27 C60.1830547,27 55.1034483,32.0785968 55.1034483,38.3412451" id="Fill-65"></path>
            <path d="M55.1034483,11.34 C55.1034483,17.6026482 60.1830547,22.68 66.4482759,22.68 C72.7147411,22.68 77.7931034,17.6026482 77.7931034,11.34 C77.7931034,5.07735178 72.7147411,9.09494702e-13 66.4482759,9.09494702e-13 C60.1830547,9.09494702e-13 55.1034483,5.07735178 55.1034483,11.34" id="Fill-67"></path>
            <path d="M55.1034483,66.4206226 C55.1034483,72.6823695 60.1830547,77.76 66.4482759,77.76 C72.7147411,77.76 77.7931034,72.6823695 77.7931034,66.4206226 C77.7931034,60.1576305 72.7147411,55.08 66.4482759,55.08 C60.1830547,55.08 55.1034483,60.1576305 55.1034483,66.4206226" id="Fill-69"></path>
            <path d="M55.1034483,94.5 C55.1034483,100.762648 60.1830547,105.84 66.4482759,105.84 C72.7147411,105.84 77.7931034,100.762648 77.7931034,94.5 C77.7931034,88.2385968 72.7147411,83.16 66.4482759,83.16 C60.1830547,83.16 55.1034483,88.2385968 55.1034483,94.5" id="Fill-71"></path>
            <path d="M55.1034483,121.5 C55.1034483,127.762648 60.1830547,132.84 66.4482759,132.84 C72.7147411,132.84 77.7931034,127.762648 77.7931034,121.5 C77.7931034,115.237352 72.7147411,110.16 66.4482759,110.16 C60.1830547,110.16 55.1034483,115.237352 55.1034483,121.5" id="Fill-73"></path>
            <path d="M55.1034483,149.580623 C55.1034483,155.843615 60.1830547,160.92 66.4482759,160.92 C72.7147411,160.92 77.7931034,155.843615 77.7931034,149.580623 C77.7931034,143.317631 72.7147411,138.24 66.4482759,138.24 C60.1830547,138.24 55.1034483,143.317631 55.1034483,149.580623" id="Fill-75"></path>
            <path d="M55.1034483,204.658755 C55.1034483,210.921403 60.1830547,216 66.4482759,216 C72.7147411,216 77.7931034,210.921403 77.7931034,204.658755 C77.7931034,198.397352 72.7147411,193.32 66.4482759,193.32 C60.1830547,193.32 55.1034483,198.397352 55.1034483,204.658755" id="Fill-77"></path>
            <path d="M55.1034483,177.66 C55.1034483,183.921403 60.1830547,189 66.4482759,189 C72.7147411,189 77.7931034,183.921403 77.7931034,177.66 C77.7931034,171.397352 72.7147411,166.32 66.4482759,166.32 C60.1830547,166.32 55.1034483,171.397352 55.1034483,177.66" id="Fill-79"></path>
            <path d="M27.0114943,38.3412451 C27.0114943,44.6038933 32.0911007,49.68 38.3563218,49.68 C44.6227871,49.68 49.7011494,44.6038933 49.7011494,38.3412451 C49.7011494,32.0785968 44.6227871,27 38.3563218,27 C32.0911007,27 27.0114943,32.0785968 27.0114943,38.3412451" id="Fill-81"></path>
            <path d="M27.0114943,11.34 C27.0114943,17.6026482 32.0911007,22.68 38.3563218,22.68 C44.6227871,22.68 49.7011494,17.6026482 49.7011494,11.34 C49.7011494,5.07735178 44.6227871,9.09494702e-13 38.3563218,9.09494702e-13 C32.0911007,9.09494702e-13 27.0114943,5.07735178 27.0114943,11.34" id="Fill-83"></path>
            <path d="M27.0114943,66.4206226 C27.0114943,72.6823695 32.0911007,77.76 38.3563218,77.76 C44.6227871,77.76 49.7011494,72.6823695 49.7011494,66.4206226 C49.7011494,60.1576305 44.6227871,55.08 38.3563218,55.08 C32.0911007,55.08 27.0114943,60.1576305 27.0114943,66.4206226" id="Fill-85"></path>
            <path d="M27.0114943,94.5 C27.0114943,100.762648 32.0911007,105.84 38.3563218,105.84 C44.6227871,105.84 49.7011494,100.762648 49.7011494,94.5 C49.7011494,88.2385968 44.6227871,83.16 38.3563218,83.16 C32.0911007,83.16 27.0114943,88.2385968 27.0114943,94.5" id="Fill-87"></path>
            <path d="M27.0114943,121.5 C27.0114943,127.762648 32.0911007,132.84 38.3563218,132.84 C44.6227871,132.84 49.7011494,127.762648 49.7011494,121.5 C49.7011494,115.237352 44.6227871,110.16 38.3563218,110.16 C32.0911007,110.16 27.0114943,115.237352 27.0114943,121.5" id="Fill-89"></path>
            <path d="M27.0114943,149.580623 C27.0114943,155.843615 32.0911007,160.92 38.3563218,160.92 C44.6227871,160.92 49.7011494,155.843615 49.7011494,149.580623 C49.7011494,143.317631 44.6227871,138.24 38.3563218,138.24 C32.0911007,138.24 27.0114943,143.317631 27.0114943,149.580623" id="Fill-91"></path>
            <path d="M27.0114943,204.658755 C27.0114943,210.921403 32.0911007,216 38.3563218,216 C44.6227871,216 49.7011494,210.921403 49.7011494,204.658755 C49.7011494,198.397352 44.6227871,193.32 38.3563218,193.32 C32.0911007,193.32 27.0114943,198.397352 27.0114943,204.658755" id="Fill-93"></path>
            <path d="M27.0114943,177.66 C27.0114943,183.921403 32.0911007,189 38.3563218,189 C44.6227871,189 49.7011494,183.921403 49.7011494,177.66 C49.7011494,171.397352 44.6227871,166.32 38.3563218,166.32 C32.0911007,166.32 27.0114943,171.397352 27.0114943,177.66" id="Fill-95"></path>
            <path d="M0,38.3412451 C0,44.6038933 5.07960643,49.68 11.3448276,49.68 C17.6100487,49.68 22.6896552,44.6038933 22.6896552,38.3412451 C22.6896552,32.0785968 17.6100487,27 11.3448276,27 C5.07960643,27 0,32.0785968 0,38.3412451" id="Fill-97"></path>
            <path d="M0,11.34 C0,17.6026482 5.07960643,22.68 11.3448276,22.68 C17.6100487,22.68 22.6896552,17.6026482 22.6896552,11.34 C22.6896552,5.07735178 17.6100487,9.09494702e-13 11.3448276,9.09494702e-13 C5.07960643,9.09494702e-13 0,5.07735178 0,11.34" id="Fill-99"></path>
            <path d="M0,66.4206226 C0,72.6823695 5.07960643,77.76 11.3448276,77.76 C17.6100487,77.76 22.6896552,72.6823695 22.6896552,66.4206226 C22.6896552,60.1576305 17.6100487,55.08 11.3448276,55.08 C5.07960643,55.08 0,60.1576305 0,66.4206226" id="Fill-101"></path>
            <path d="M0,94.5 C0,100.762648 5.07960643,105.84 11.3448276,105.84 C17.6100487,105.84 22.6896552,100.762648 22.6896552,94.5 C22.6896552,88.2385968 17.6100487,83.16 11.3448276,83.16 C5.07960643,83.16 0,88.2385968 0,94.5" id="Fill-103"></path>
            <path d="M0,121.5 C0,127.762648 5.07960643,132.84 11.3448276,132.84 C17.6100487,132.84 22.6896552,127.762648 22.6896552,121.5 C22.6896552,115.237352 17.6100487,110.16 11.3448276,110.16 C5.07960643,110.16 0,115.237352 0,121.5" id="Fill-105"></path>
            <path d="M0,149.580623 C0,155.843615 5.07960643,160.92 11.3448276,160.92 C17.6100487,160.92 22.6896552,155.843615 22.6896552,149.580623 C22.6896552,143.317631 17.6100487,138.24 11.3448276,138.24 C5.07960643,138.24 0,143.317631 0,149.580623" id="Fill-107"></path>
            <path d="M0,204.658755 C0,210.921403 5.07960643,216 11.3448276,216 C17.6100487,216 22.6896552,210.921403 22.6896552,204.658755 C22.6896552,198.397352 17.6100487,193.32 11.3448276,193.32 C5.07960643,193.32 0,198.397352 0,204.658755" id="Fill-109"></path>
            <path d="M0,177.66 C0,183.921403 5.07960643,189 11.3448276,189 C17.6100487,189 22.6896552,183.921403 22.6896552,177.66 C22.6896552,171.397352 17.6100487,166.32 11.3448276,166.32 C5.07960643,166.32 0,171.397352 0,177.66" id="Fill-111"></path>
        </g>
    </g>
</svg>