<?xml version="1.0" encoding="UTF-8"?>
<svg width="1380px" height="191px" viewBox="0 0 1380 191" version="1.1" xmlns="http://www.w3.org/2000/svg" xmlns:xlink="http://www.w3.org/1999/xlink">
    <!-- Generator: Sketch 52.5 (67469) - http://www.bohemiancoding.com/sketch -->
    <title>Desktop HD</title>
    <desc>Created with Sketch.</desc>
    <g id="Page-1" stroke="none" stroke-width="1" fill="none" fill-rule="evenodd">
        <g id="Desktop-HD" transform="translate(-51.000000, -264.000000)" fill="#FFFFFF">
            <path d="M51,276 C51,282.627095 56.3731016,288 63,288 C69.6268984,288 75,282.627095 75,276 C75,269.372905 69.6268984,264 63,264 C56.3731016,264 51,269.372905 51,276" id="Fill-1" opacity="0.5"></path>
            <path d="M51,336 C51,342.627095 56.3731016,348 63,348 C69.6268984,348 75,342.627095 75,336 C75,329.372905 69.6268984,324 63,324 C56.3731016,324 51,329.372905 51,336" id="Fill-3" opacity="0.5"></path>
            <path d="M51,306 C51,312.627095 56.3731016,318 63,318 C69.6268984,318 75,312.627095 75,306 C75,299.372905 69.6268984,294 63,294 C56.3731016,294 51,299.372905 51,306" id="Fill-5" opacity="0.5"></path>
            <path d="M51,366 C51,372.627095 56.3731016,378 63,378 C69.6268984,378 75,372.627095 75,366 C75,359.372905 69.6268984,354 63,354 C56.3731016,354 51,359.372905 51,366" id="Fill-7" opacity="0.5"></path>
            <path d="M51,396 C51,402.627095 56.3731016,408 63,408 C69.6268984,408 75,402.627095 75,396 C75,389.372905 69.6268984,384 63,384 C56.3731016,384 51,389.372905 51,396" id="Fill-9" opacity="0.5"></path>
            <path d="M51,426 C51,432.627095 56.3731016,438 63,438 C69.6268984,438 75,432.627095 75,426 C75,419.372905 69.6268984,414 63,414 C56.3731016,414 51,419.372905 51,426" id="Fill-11" opacity="0.5"></path>
            <path d="M51,456 C51,462.627095 56.3731016,468 63,468 C69.6268984,468 75,462.627095 75,456 C75,449.372905 69.6268984,444 63,444 C56.3731016,444 51,449.372905 51,456" id="Fill-13" opacity="0.5"></path>
            <path d="M724,444 C717.372905,444 712,449.373102 712,456 C712,462.627996 717.372905,468 724,468 C730.627095,468 736,462.627996 736,456 C736,449.373102 730.627095,444 724,444" id="Fill-15" opacity="0.5"></path>
            <path d="M695,444 C688.372905,444 683,449.373102 683,456 C683,462.627996 688.372905,468 695,468 C701.627095,468 707,462.627996 707,456 C707,449.373102 701.627095,444 695,444" id="Fill-20" fill-opacity="0.5"></path>
            <path d="M664,444 C657.372905,444 652,449.373102 652,456 C652,462.627996 657.372905,468 664,468 C670.627095,468 676,462.627996 676,456 C676,449.373102 670.627095,444 664,444" id="Fill-22" fill-opacity="0.5"></path>
            <path d="M634,444 C627.372905,444 622,449.373102 622,456 C622,462.627996 627.372905,468 634,468 C640.627095,468 646,462.627996 646,456 C646,449.373102 640.627095,444 634,444" id="Fill-24" fill-opacity="0.5"></path>
            <path d="M604,444 C597.372905,444 592,449.373102 592,456 C592,462.627996 597.372905,468 604,468 C610.627095,468 616,462.627996 616,456 C616,449.373102 610.627095,444 604,444" id="Fill-26" fill-opacity="0.5"></path>
            <path d="M544,444 C537.372905,444 532,449.373102 532,456 C532,462.627996 537.372905,468 544,468 C550.627095,468 556,462.627996 556,456 C556,449.373102 550.627095,444 544,444" id="Fill-28" fill-opacity="0.5"></path>
            <path d="M574,444 C567.372905,444 562,449.373102 562,456 C562,462.627996 567.372905,468 574,468 C580.627095,468 586,462.627996 586,456 C586,449.373102 580.627095,444 574,444" id="Fill-30" fill-opacity="0.5"></path>
            <path d="M514,444 C507.372905,444 502,449.373102 502,456 C502,462.627996 507.372905,468 514,468 C520.627095,468 526,462.627996 526,456 C526,449.373102 520.627095,444 514,444" id="Fill-32" fill-opacity="0.5"></path>
            <path d="M484,444 C477.372905,444 472,449.373102 472,456 C472,462.627996 477.372905,468 484,468 C490.627095,468 496,462.627996 496,456 C496,449.373102 490.627095,444 484,444" id="Fill-34" fill-opacity="0.5"></path>
            <path d="M454,444 C447.372905,444 442,449.373102 442,456 C442,462.627996 447.372905,468 454,468 C460.627095,468 466,462.627996 466,456 C466,449.373102 460.627095,444 454,444" id="Fill-36" fill-opacity="0.5"></path>
            <path d="M424,444 C417.372905,444 412,449.373102 412,456 C412,462.627996 417.372905,468 424,468 C430.627095,468 436,462.627996 436,456 C436,449.373102 430.627095,444 424,444" id="Fill-38" fill-opacity="0.5"></path>
            <path d="M364,444 C357.372905,444 352,449.373102 352,456 C352,462.627996 357.372905,468 364,468 C370.627095,468 376,462.627996 376,456 C376,449.373102 370.627095,444 364,444" id="Fill-40" fill-opacity="0.5"></path>
            <path d="M394,444 C387.372905,444 382,449.373102 382,456 C382,462.627996 387.372905,468 394,468 C400.627095,468 406,462.627996 406,456 C406,449.373102 400.627095,444 394,444" id="Fill-42" fill-opacity="0.5"></path>
            <path d="M334,444 C327.372905,444 322,449.373102 322,456 C322,462.627996 327.372905,468 334,468 C340.627095,468 346,462.627996 346,456 C346,449.373102 340.627095,444 334,444" id="Fill-44" fill-opacity="0.5"></path>
            <path d="M303,444 C296.372905,444 291,449.373102 291,456 C291,462.627996 296.372905,468 303,468 C309.627095,468 315,462.627996 315,456 C315,449.373102 309.627095,444 303,444" id="Fill-46" fill-opacity="0.5"></path>
            <path d="M274,444 C267.372905,444 262,449.373102 262,456 C262,462.627996 267.372905,468 274,468 C280.627095,468 286,462.627996 286,456 C286,449.373102 280.627095,444 274,444" id="Fill-48" fill-opacity="0.5"></path>
            <path d="M243,444 C236.372905,444 231,449.373102 231,456 C231,462.627996 236.372905,468 243,468 C249.627095,468 255,462.627996 255,456 C255,449.373102 249.627095,444 243,444" id="Fill-50" fill-opacity="0.5"></path>
            <path d="M184,444 C177.372905,444 172,449.373102 172,456 C172,462.627996 177.372905,468 184,468 C190.627095,468 196,462.627996 196,456 C196,449.373102 190.627095,444 184,444" id="Fill-52" fill-opacity="0.5"></path>
            <path d="M213,444 C206.372905,444 201,449.373102 201,456 C201,462.627996 206.372905,468 213,468 C219.627095,468 225,462.627996 225,456 C225,449.373102 219.627095,444 213,444" id="Fill-54" fill-opacity="0.5"></path>
            <path d="M153,444 C146.372905,444 141,449.373102 141,456 C141,462.627996 146.372905,468 153,468 C159.627095,468 165,462.627996 165,456 C165,449.373102 159.627095,444 153,444" id="Fill-56" fill-opacity="0.5"></path>
            <path d="M123,444 C116.372905,444 111,449.373102 111,456 C111,462.627996 116.372905,468 123,468 C129.627095,468 135,462.627996 135,456 C135,449.373102 129.627095,444 123,444" id="Fill-58" fill-opacity="0.5"></path>
            <path d="M93,444 C86.3729046,444 81,449.373102 81,456 C81,462.627996 86.3729046,468 93,468 C99.6270954,468 105,462.627996 105,456 C105,449.373102 99.6270954,444 93,444" id="Fill-60" fill-opacity="0.5"></path>
            <path d="M724,414 C717.372905,414 712,419.373102 712,426 C712,432.627996 717.372905,438 724,438 C730.627095,438 736,432.627996 736,426 C736,419.373102 730.627095,414 724,414" id="Fill-62" fill-opacity="0.5"></path>
            <path d="M695,414 C688.372905,414 683,419.373102 683,426 C683,432.627996 688.372905,438 695,438 C701.627095,438 707,432.627996 707,426 C707,419.373102 701.627095,414 695,414" id="Fill-66" fill-opacity="0.5"></path>
            <path d="M664,414 C657.372905,414 652,419.373102 652,426 C652,432.627996 657.372905,438 664,438 C670.627095,438 676,432.627996 676,426 C676,419.373102 670.627095,414 664,414" id="Fill-68" fill-opacity="0.5"></path>
            <path d="M634,414 C627.372905,414 622,419.373102 622,426 C622,432.627996 627.372905,438 634,438 C640.627095,438 646,432.627996 646,426 C646,419.373102 640.627095,414 634,414" id="Fill-70" fill-opacity="0.5"></path>
            <path d="M604,414 C597.372905,414 592,419.373102 592,426 C592,432.627996 597.372905,438 604,438 C610.627095,438 616,432.627996 616,426 C616,419.373102 610.627095,414 604,414" id="Fill-72" fill-opacity="0.5"></path>
            <path d="M544,414 C537.372905,414 532,419.373102 532,426 C532,432.627996 537.372905,438 544,438 C550.627095,438 556,432.627996 556,426 C556,419.373102 550.627095,414 544,414" id="Fill-74" fill-opacity="0.5"></path>
            <path d="M574,414 C567.372905,414 562,419.373102 562,426 C562,432.627996 567.372905,438 574,438 C580.627095,438 586,432.627996 586,426 C586,419.373102 580.627095,414 574,414" id="Fill-76" fill-opacity="0.5"></path>
            <path d="M514,414 C507.372905,414 502,419.373102 502,426 C502,432.627996 507.372905,438 514,438 C520.627095,438 526,432.627996 526,426 C526,419.373102 520.627095,414 514,414" id="Fill-78" fill-opacity="0.5"></path>
            <path d="M484,414 C477.372905,414 472,419.373102 472,426 C472,432.627996 477.372905,438 484,438 C490.627095,438 496,432.627996 496,426 C496,419.373102 490.627095,414 484,414" id="Fill-80" fill-opacity="0.5"></path>
            <path d="M454,414 C447.372905,414 442,419.373102 442,426 C442,432.627996 447.372905,438 454,438 C460.627095,438 466,432.627996 466,426 C466,419.373102 460.627095,414 454,414" id="Fill-82" fill-opacity="0.5"></path>
            <path d="M424,414 C417.372905,414 412,419.373102 412,426 C412,432.627996 417.372905,438 424,438 C430.627095,438 436,432.627996 436,426 C436,419.373102 430.627095,414 424,414" id="Fill-84" fill-opacity="0.5"></path>
            <path d="M364,414 C357.372905,414 352,419.373102 352,426 C352,432.627996 357.372905,438 364,438 C370.627095,438 376,432.627996 376,426 C376,419.373102 370.627095,414 364,414" id="Fill-86" fill-opacity="0.5"></path>
            <path d="M394,414 C387.372905,414 382,419.373102 382,426 C382,432.627996 387.372905,438 394,438 C400.627095,438 406,432.627996 406,426 C406,419.373102 400.627095,414 394,414" id="Fill-88" fill-opacity="0.5"></path>
            <path d="M334,414 C327.372905,414 322,419.373102 322,426 C322,432.627996 327.372905,438 334,438 C340.627095,438 346,432.627996 346,426 C346,419.373102 340.627095,414 334,414" id="Fill-90" fill-opacity="0.5"></path>
            <path d="M303,414 C296.372905,414 291,419.373102 291,426 C291,432.627996 296.372905,438 303,438 C309.627095,438 315,432.627996 315,426 C315,419.373102 309.627095,414 303,414" id="Fill-92" fill-opacity="0.5"></path>
            <path d="M274,414 C267.372905,414 262,419.373102 262,426 C262,432.627996 267.372905,438 274,438 C280.627095,438 286,432.627996 286,426 C286,419.373102 280.627095,414 274,414" id="Fill-94" fill-opacity="0.5"></path>
            <path d="M243,414 C236.372905,414 231,419.373102 231,426 C231,432.627996 236.372905,438 243,438 C249.627095,438 255,432.627996 255,426 C255,419.373102 249.627095,414 243,414" id="Fill-96" fill-opacity="0.5"></path>
            <path d="M184,414 C177.372905,414 172,419.373102 172,426 C172,432.627996 177.372905,438 184,438 C190.627095,438 196,432.627996 196,426 C196,419.373102 190.627095,414 184,414" id="Fill-98" fill-opacity="0.5"></path>
            <path d="M213,414 C206.372905,414 201,419.373102 201,426 C201,432.627996 206.372905,438 213,438 C219.627095,438 225,432.627996 225,426 C225,419.373102 219.627095,414 213,414" id="Fill-100" fill-opacity="0.5"></path>
            <path d="M153,414 C146.372905,414 141,419.373102 141,426 C141,432.627996 146.372905,438 153,438 C159.627095,438 165,432.627996 165,426 C165,419.373102 159.627095,414 153,414" id="Fill-102" fill-opacity="0.5"></path>
            <path d="M123,414 C116.372905,414 111,419.373102 111,426 C111,432.627996 116.372905,438 123,438 C129.627095,438 135,432.627996 135,426 C135,419.373102 129.627095,414 123,414" id="Fill-104" fill-opacity="0.5"></path>
            <path d="M93,414 C86.3729046,414 81,419.373102 81,426 C81,432.627996 86.3729046,438 93,438 C99.6270954,438 105,432.627996 105,426 C105,419.373102 99.6270954,414 93,414" id="Fill-106" fill-opacity="0.5"></path>
            <path d="M724,384 C717.372905,384 712,389.373102 712,396 C712,402.626898 717.372905,408 724,408 C730.627095,408 736,402.626898 736,396 C736,389.373102 730.627095,384 724,384" id="Fill-108" fill-opacity="0.5"></path>
            <path d="M695,384 C688.372905,384 683,389.373102 683,396 C683,402.626898 688.372905,408 695,408 C701.627095,408 707,402.626898 707,396 C707,389.373102 701.627095,384 695,384" id="Fill-113" fill-opacity="0.5"></path>
            <path d="M664,384 C657.372905,384 652,389.373102 652,396 C652,402.626898 657.372905,408 664,408 C670.627095,408 676,402.626898 676,396 C676,389.373102 670.627095,384 664,384" id="Fill-115" fill-opacity="0.5"></path>
            <path d="M634,384 C627.372905,384 622,389.373102 622,396 C622,402.626898 627.372905,408 634,408 C640.627095,408 646,402.626898 646,396 C646,389.373102 640.627095,384 634,384" id="Fill-117" fill-opacity="0.5"></path>
            <path d="M604,384 C597.372905,384 592,389.373102 592,396 C592,402.626898 597.372905,408 604,408 C610.627095,408 616,402.626898 616,396 C616,389.373102 610.627095,384 604,384" id="Fill-119" fill-opacity="0.5"></path>
            <path d="M544,384 C537.372905,384 532,389.373102 532,396 C532,402.626898 537.372905,408 544,408 C550.627095,408 556,402.626898 556,396 C556,389.373102 550.627095,384 544,384" id="Fill-121" fill-opacity="0.5"></path>
            <path d="M574,384 C567.372905,384 562,389.373102 562,396 C562,402.626898 567.372905,408 574,408 C580.627095,408 586,402.626898 586,396 C586,389.373102 580.627095,384 574,384" id="Fill-123" fill-opacity="0.5"></path>
            <path d="M514,384 C507.372905,384 502,389.373102 502,396 C502,402.626898 507.372905,408 514,408 C520.627095,408 526,402.626898 526,396 C526,389.373102 520.627095,384 514,384" id="Fill-125" fill-opacity="0.5"></path>
            <path d="M484,384 C477.372905,384 472,389.373102 472,396 C472,402.626898 477.372905,408 484,408 C490.627095,408 496,402.626898 496,396 C496,389.373102 490.627095,384 484,384" id="Fill-127" fill-opacity="0.5"></path>
            <path d="M454,384 C447.372905,384 442,389.373102 442,396 C442,402.626898 447.372905,408 454,408 C460.627095,408 466,402.626898 466,396 C466,389.373102 460.627095,384 454,384" id="Fill-129" fill-opacity="0.5"></path>
            <path d="M424,384 C417.372905,384 412,389.373102 412,396 C412,402.626898 417.372905,408 424,408 C430.627095,408 436,402.626898 436,396 C436,389.373102 430.627095,384 424,384" id="Fill-131" fill-opacity="0.5"></path>
            <path d="M364,384 C357.372905,384 352,389.373102 352,396 C352,402.626898 357.372905,408 364,408 C370.627095,408 376,402.626898 376,396 C376,389.373102 370.627095,384 364,384" id="Fill-133" fill-opacity="0.5"></path>
            <path d="M394,384 C387.372905,384 382,389.373102 382,396 C382,402.626898 387.372905,408 394,408 C400.627095,408 406,402.626898 406,396 C406,389.373102 400.627095,384 394,384" id="Fill-135" fill-opacity="0.5"></path>
            <path d="M334,384 C327.372905,384 322,389.373102 322,396 C322,402.626898 327.372905,408 334,408 C340.627095,408 346,402.626898 346,396 C346,389.373102 340.627095,384 334,384" id="Fill-137" fill-opacity="0.5"></path>
            <path d="M303,384 C296.372905,384 291,389.373102 291,396 C291,402.626898 296.372905,408 303,408 C309.627095,408 315,402.626898 315,396 C315,389.373102 309.627095,384 303,384" id="Fill-139" fill-opacity="0.5"></path>
            <path d="M274,384 C267.372905,384 262,389.373102 262,396 C262,402.626898 267.372905,408 274,408 C280.627095,408 286,402.626898 286,396 C286,389.373102 280.627095,384 274,384" id="Fill-141" fill-opacity="0.5"></path>
            <path d="M243,384 C236.372905,384 231,389.373102 231,396 C231,402.626898 236.372905,408 243,408 C249.627095,408 255,402.626898 255,396 C255,389.373102 249.627095,384 243,384" id="Fill-143" fill-opacity="0.5"></path>
            <path d="M184,384 C177.372905,384 172,389.373102 172,396 C172,402.626898 177.372905,408 184,408 C190.627095,408 196,402.626898 196,396 C196,389.373102 190.627095,384 184,384" id="Fill-145" fill-opacity="0.5"></path>
            <path d="M213,384 C206.372905,384 201,389.373102 201,396 C201,402.626898 206.372905,408 213,408 C219.627095,408 225,402.626898 225,396 C225,389.373102 219.627095,384 213,384" id="Fill-147" fill-opacity="0.5"></path>
            <path d="M153,384 C146.372905,384 141,389.373102 141,396 C141,402.626898 146.372905,408 153,408 C159.627095,408 165,402.626898 165,396 C165,389.373102 159.627095,384 153,384" id="Fill-149" fill-opacity="0.5"></path>
            <path d="M123,384 C116.372905,384 111,389.373102 111,396 C111,402.626898 116.372905,408 123,408 C129.627095,408 135,402.626898 135,396 C135,389.373102 129.627095,384 123,384" id="Fill-151" fill-opacity="0.5"></path>
            <path d="M93,384 C86.3729046,384 81,389.373102 81,396 C81,402.626898 86.3729046,408 93,408 C99.6270954,408 105,402.626898 105,396 C105,389.373102 99.6270954,384 93,384" id="Fill-153" fill-opacity="0.5"></path>
            <path d="M724,354 C717.372905,354 712,359.373102 712,366 C712,372.626898 717.372905,378 724,378 C730.627095,378 736,372.626898 736,366 C736,359.373102 730.627095,354 724,354" id="Fill-155" fill-opacity="0.5"></path>
            <path d="M695,354 C688.372905,354 683,359.373102 683,366 C683,372.626898 688.372905,378 695,378 C701.627095,378 707,372.626898 707,366 C707,359.373102 701.627095,354 695,354" id="Fill-160" fill-opacity="0.5"></path>
            <path d="M664,354 C657.372905,354 652,359.373102 652,366 C652,372.626898 657.372905,378 664,378 C670.627095,378 676,372.626898 676,366 C676,359.373102 670.627095,354 664,354" id="Fill-162" fill-opacity="0.5"></path>
            <path d="M634,354 C627.372905,354 622,359.373102 622,366 C622,372.626898 627.372905,378 634,378 C640.627095,378 646,372.626898 646,366 C646,359.373102 640.627095,354 634,354" id="Fill-164" fill-opacity="0.5"></path>
            <path d="M604,354 C597.372905,354 592,359.373102 592,366 C592,372.626898 597.372905,378 604,378 C610.627095,378 616,372.626898 616,366 C616,359.373102 610.627095,354 604,354" id="Fill-166" fill-opacity="0.5"></path>
            <path d="M544,354 C537.372905,354 532,359.373102 532,366 C532,372.626898 537.372905,378 544,378 C550.627095,378 556,372.626898 556,366 C556,359.373102 550.627095,354 544,354" id="Fill-168" fill-opacity="0.5"></path>
            <path d="M574,354 C567.372905,354 562,359.373102 562,366 C562,372.626898 567.372905,378 574,378 C580.627095,378 586,372.626898 586,366 C586,359.373102 580.627095,354 574,354" id="Fill-170" fill-opacity="0.5"></path>
            <path d="M514,354 C507.372905,354 502,359.373102 502,366 C502,372.626898 507.372905,378 514,378 C520.627095,378 526,372.626898 526,366 C526,359.373102 520.627095,354 514,354" id="Fill-172" fill-opacity="0.5"></path>
            <path d="M484,354 C477.372905,354 472,359.373102 472,366 C472,372.626898 477.372905,378 484,378 C490.627095,378 496,372.626898 496,366 C496,359.373102 490.627095,354 484,354" id="Fill-174" fill-opacity="0.5"></path>
            <path d="M454,354 C447.372905,354 442,359.373102 442,366 C442,372.626898 447.372905,378 454,378 C460.627095,378 466,372.626898 466,366 C466,359.373102 460.627095,354 454,354" id="Fill-176" fill-opacity="0.5"></path>
            <path d="M424,354 C417.372905,354 412,359.373102 412,366 C412,372.626898 417.372905,378 424,378 C430.627095,378 436,372.626898 436,366 C436,359.373102 430.627095,354 424,354" id="Fill-178" fill-opacity="0.5"></path>
            <path d="M364,354 C357.372905,354 352,359.373102 352,366 C352,372.626898 357.372905,378 364,378 C370.627095,378 376,372.626898 376,366 C376,359.373102 370.627095,354 364,354" id="Fill-180" fill-opacity="0.5"></path>
            <path d="M394,354 C387.372905,354 382,359.373102 382,366 C382,372.626898 387.372905,378 394,378 C400.627095,378 406,372.626898 406,366 C406,359.373102 400.627095,354 394,354" id="Fill-182" fill-opacity="0.5"></path>
            <path d="M334,354 C327.372905,354 322,359.373102 322,366 C322,372.626898 327.372905,378 334,378 C340.627095,378 346,372.626898 346,366 C346,359.373102 340.627095,354 334,354" id="Fill-184" fill-opacity="0.5"></path>
            <path d="M303,354 C296.372905,354 291,359.373102 291,366 C291,372.626898 296.372905,378 303,378 C309.627095,378 315,372.626898 315,366 C315,359.373102 309.627095,354 303,354" id="Fill-186" fill-opacity="0.5"></path>
            <path d="M274,354 C267.372905,354 262,359.373102 262,366 C262,372.626898 267.372905,378 274,378 C280.627095,378 286,372.626898 286,366 C286,359.373102 280.627095,354 274,354" id="Fill-188" fill-opacity="0.5"></path>
            <path d="M243,354 C236.372905,354 231,359.373102 231,366 C231,372.626898 236.372905,378 243,378 C249.627095,378 255,372.626898 255,366 C255,359.373102 249.627095,354 243,354" id="Fill-190" fill-opacity="0.5"></path>
            <path d="M184,354 C177.372905,354 172,359.373102 172,366 C172,372.626898 177.372905,378 184,378 C190.627095,378 196,372.626898 196,366 C196,359.373102 190.627095,354 184,354" id="Fill-192" fill-opacity="0.5"></path>
            <path d="M213,354 C206.372905,354 201,359.373102 201,366 C201,372.626898 206.372905,378 213,378 C219.627095,378 225,372.626898 225,366 C225,359.373102 219.627095,354 213,354" id="Fill-194" fill-opacity="0.5"></path>
            <path d="M153,354 C146.372905,354 141,359.373102 141,366 C141,372.626898 146.372905,378 153,378 C159.627095,378 165,372.626898 165,366 C165,359.373102 159.627095,354 153,354" id="Fill-196" fill-opacity="0.5"></path>
            <path d="M123,354 C116.372905,354 111,359.373102 111,366 C111,372.626898 116.372905,378 123,378 C129.627095,378 135,372.626898 135,366 C135,359.373102 129.627095,354 123,354" id="Fill-198" fill-opacity="0.5"></path>
            <path d="M93,354 C86.3729046,354 81,359.373102 81,366 C81,372.626898 86.3729046,378 93,378 C99.6270954,378 105,372.626898 105,366 C105,359.373102 99.6270954,354 93,354" id="Fill-200" fill-opacity="0.5"></path>
            <path d="M724,324 C717.372905,324 712,329.372004 712,336 C712,342.626898 717.372905,348 724,348 C730.627095,348 736,342.626898 736,336 C736,329.372004 730.627095,324 724,324" id="Fill-202" fill-opacity="0.5"></path>
            <path d="M695,324 C688.372905,324 683,329.372004 683,336 C683,342.626898 688.372905,348 695,348 C701.627095,348 707,342.626898 707,336 C707,329.372004 701.627095,324 695,324" id="Fill-207" fill-opacity="0.5"></path>
            <path d="M664,324 C657.372905,324 652,329.372004 652,336 C652,342.626898 657.372905,348 664,348 C670.627095,348 676,342.626898 676,336 C676,329.372004 670.627095,324 664,324" id="Fill-209" fill-opacity="0.5"></path>
            <path d="M634,324 C627.372905,324 622,329.372004 622,336 C622,342.626898 627.372905,348 634,348 C640.627095,348 646,342.626898 646,336 C646,329.372004 640.627095,324 634,324" id="Fill-211" fill-opacity="0.5"></path>
            <path d="M604,324 C597.372905,324 592,329.372004 592,336 C592,342.626898 597.372905,348 604,348 C610.627095,348 616,342.626898 616,336 C616,329.372004 610.627095,324 604,324" id="Fill-213" fill-opacity="0.5"></path>
            <path d="M544,324 C537.372905,324 532,329.372004 532,336 C532,342.626898 537.372905,348 544,348 C550.627095,348 556,342.626898 556,336 C556,329.372004 550.627095,324 544,324" id="Fill-215" fill-opacity="0.5"></path>
            <path d="M574,324 C567.372905,324 562,329.372004 562,336 C562,342.626898 567.372905,348 574,348 C580.627095,348 586,342.626898 586,336 C586,329.372004 580.627095,324 574,324" id="Fill-217" fill-opacity="0.5"></path>
            <path d="M514,324 C507.372905,324 502,329.372004 502,336 C502,342.626898 507.372905,348 514,348 C520.627095,348 526,342.626898 526,336 C526,329.372004 520.627095,324 514,324" id="Fill-219" fill-opacity="0.5"></path>
            <path d="M484,324 C477.372905,324 472,329.372004 472,336 C472,342.626898 477.372905,348 484,348 C490.627095,348 496,342.626898 496,336 C496,329.372004 490.627095,324 484,324" id="Fill-221" fill-opacity="0.5"></path>
            <path d="M454,324 C447.372905,324 442,329.372004 442,336 C442,342.626898 447.372905,348 454,348 C460.627095,348 466,342.626898 466,336 C466,329.372004 460.627095,324 454,324" id="Fill-223" fill-opacity="0.5"></path>
            <path d="M424,324 C417.372905,324 412,329.372004 412,336 C412,342.626898 417.372905,348 424,348 C430.627095,348 436,342.626898 436,336 C436,329.372004 430.627095,324 424,324" id="Fill-225" fill-opacity="0.5"></path>
            <path d="M364,324 C357.372905,324 352,329.372004 352,336 C352,342.626898 357.372905,348 364,348 C370.627095,348 376,342.626898 376,336 C376,329.372004 370.627095,324 364,324" id="Fill-227" fill-opacity="0.5"></path>
            <path d="M394,324 C387.372905,324 382,329.372004 382,336 C382,342.626898 387.372905,348 394,348 C400.627095,348 406,342.626898 406,336 C406,329.372004 400.627095,324 394,324" id="Fill-229" fill-opacity="0.5"></path>
            <path d="M334,324 C327.372905,324 322,329.372004 322,336 C322,342.626898 327.372905,348 334,348 C340.627095,348 346,342.626898 346,336 C346,329.372004 340.627095,324 334,324" id="Fill-231" fill-opacity="0.5"></path>
            <path d="M303,324 C296.372905,324 291,329.372004 291,336 C291,342.626898 296.372905,348 303,348 C309.627095,348 315,342.626898 315,336 C315,329.372004 309.627095,324 303,324" id="Fill-233" fill-opacity="0.5"></path>
            <path d="M274,324 C267.372905,324 262,329.372004 262,336 C262,342.626898 267.372905,348 274,348 C280.627095,348 286,342.626898 286,336 C286,329.372004 280.627095,324 274,324" id="Fill-235" fill-opacity="0.5"></path>
            <path d="M243,324 C236.372905,324 231,329.372004 231,336 C231,342.626898 236.372905,348 243,348 C249.627095,348 255,342.626898 255,336 C255,329.372004 249.627095,324 243,324" id="Fill-237" fill-opacity="0.5"></path>
            <path d="M184,324 C177.372905,324 172,329.372004 172,336 C172,342.626898 177.372905,348 184,348 C190.627095,348 196,342.626898 196,336 C196,329.372004 190.627095,324 184,324" id="Fill-239" fill-opacity="0.5"></path>
            <path d="M213,324 C206.372905,324 201,329.372004 201,336 C201,342.626898 206.372905,348 213,348 C219.627095,348 225,342.626898 225,336 C225,329.372004 219.627095,324 213,324" id="Fill-241" fill-opacity="0.5"></path>
            <path d="M153,324 C146.372905,324 141,329.372004 141,336 C141,342.626898 146.372905,348 153,348 C159.627095,348 165,342.626898 165,336 C165,329.372004 159.627095,324 153,324" id="Fill-243" fill-opacity="0.5"></path>
            <path d="M123,324 C116.372905,324 111,329.372004 111,336 C111,342.626898 116.372905,348 123,348 C129.627095,348 135,342.626898 135,336 C135,329.372004 129.627095,324 123,324" id="Fill-245" fill-opacity="0.5"></path>
            <path d="M93,324 C86.3729046,324 81,329.372004 81,336 C81,342.626898 86.3729046,348 93,348 C99.6270954,348 105,342.626898 105,336 C105,329.372004 99.6270954,324 93,324" id="Fill-247" fill-opacity="0.5"></path>
            <path d="M724,294 C717.372905,294 712,299.372004 712,306 C712,312.626898 717.372905,318 724,318 C730.627095,318 736,312.626898 736,306 C736,299.372004 730.627095,294 724,294" id="Fill-249" fill-opacity="0.5"></path>
            <path d="M695,294 C688.372905,294 683,299.372004 683,306 C683,312.626898 688.372905,318 695,318 C701.627095,318 707,312.626898 707,306 C707,299.372004 701.627095,294 695,294" id="Fill-254" fill-opacity="0.5"></path>
            <path d="M664,294 C657.372905,294 652,299.372004 652,306 C652,312.626898 657.372905,318 664,318 C670.627095,318 676,312.626898 676,306 C676,299.372004 670.627095,294 664,294" id="Fill-256" fill-opacity="0.5"></path>
            <path d="M634,294 C627.372905,294 622,299.372004 622,306 C622,312.626898 627.372905,318 634,318 C640.627095,318 646,312.626898 646,306 C646,299.372004 640.627095,294 634,294" id="Fill-258" fill-opacity="0.5"></path>
            <path d="M604,294 C597.372905,294 592,299.372004 592,306 C592,312.626898 597.372905,318 604,318 C610.627095,318 616,312.626898 616,306 C616,299.372004 610.627095,294 604,294" id="Fill-260" fill-opacity="0.5"></path>
            <path d="M544,294 C537.372905,294 532,299.372004 532,306 C532,312.626898 537.372905,318 544,318 C550.627095,318 556,312.626898 556,306 C556,299.372004 550.627095,294 544,294" id="Fill-262" fill-opacity="0.5"></path>
            <path d="M574,294 C567.372905,294 562,299.372004 562,306 C562,312.626898 567.372905,318 574,318 C580.627095,318 586,312.626898 586,306 C586,299.372004 580.627095,294 574,294" id="Fill-264" fill-opacity="0.5"></path>
            <path d="M514,294 C507.372905,294 502,299.372004 502,306 C502,312.626898 507.372905,318 514,318 C520.627095,318 526,312.626898 526,306 C526,299.372004 520.627095,294 514,294" id="Fill-266" fill-opacity="0.5"></path>
            <path d="M484,294 C477.372905,294 472,299.372004 472,306 C472,312.626898 477.372905,318 484,318 C490.627095,318 496,312.626898 496,306 C496,299.372004 490.627095,294 484,294" id="Fill-268" fill-opacity="0.5"></path>
            <path d="M454,294 C447.372905,294 442,299.372004 442,306 C442,312.626898 447.372905,318 454,318 C460.627095,318 466,312.626898 466,306 C466,299.372004 460.627095,294 454,294" id="Fill-270" fill-opacity="0.5"></path>
            <path d="M424,294 C417.372905,294 412,299.372004 412,306 C412,312.626898 417.372905,318 424,318 C430.627095,318 436,312.626898 436,306 C436,299.372004 430.627095,294 424,294" id="Fill-272" fill-opacity="0.5"></path>
            <path d="M364,294 C357.372905,294 352,299.372004 352,306 C352,312.626898 357.372905,318 364,318 C370.627095,318 376,312.626898 376,306 C376,299.372004 370.627095,294 364,294" id="Fill-274" fill-opacity="0.5"></path>
            <path d="M394,294 C387.372905,294 382,299.372004 382,306 C382,312.626898 387.372905,318 394,318 C400.627095,318 406,312.626898 406,306 C406,299.372004 400.627095,294 394,294" id="Fill-276" fill-opacity="0.5"></path>
            <path d="M334,294 C327.372905,294 322,299.372004 322,306 C322,312.626898 327.372905,318 334,318 C340.627095,318 346,312.626898 346,306 C346,299.372004 340.627095,294 334,294" id="Fill-278" fill-opacity="0.5"></path>
            <path d="M303,294 C296.372905,294 291,299.372004 291,306 C291,312.626898 296.372905,318 303,318 C309.627095,318 315,312.626898 315,306 C315,299.372004 309.627095,294 303,294" id="Fill-280" fill-opacity="0.5"></path>
            <path d="M274,294 C267.372905,294 262,299.372004 262,306 C262,312.626898 267.372905,318 274,318 C280.627095,318 286,312.626898 286,306 C286,299.372004 280.627095,294 274,294" id="Fill-282" fill-opacity="0.5"></path>
            <path d="M243,294 C236.372905,294 231,299.372004 231,306 C231,312.626898 236.372905,318 243,318 C249.627095,318 255,312.626898 255,306 C255,299.372004 249.627095,294 243,294" id="Fill-284" fill-opacity="0.5"></path>
            <path d="M184,294 C177.372905,294 172,299.372004 172,306 C172,312.626898 177.372905,318 184,318 C190.627095,318 196,312.626898 196,306 C196,299.372004 190.627095,294 184,294" id="Fill-286" fill-opacity="0.5"></path>
            <path d="M213,294 C206.372905,294 201,299.372004 201,306 C201,312.626898 206.372905,318 213,318 C219.627095,318 225,312.626898 225,306 C225,299.372004 219.627095,294 213,294" id="Fill-288" fill-opacity="0.5"></path>
            <path d="M153,294 C146.372905,294 141,299.372004 141,306 C141,312.626898 146.372905,318 153,318 C159.627095,318 165,312.626898 165,306 C165,299.372004 159.627095,294 153,294" id="Fill-290" fill-opacity="0.5"></path>
            <path d="M123,294 C116.372905,294 111,299.372004 111,306 C111,312.626898 116.372905,318 123,318 C129.627095,318 135,312.626898 135,306 C135,299.372004 129.627095,294 123,294" id="Fill-292" fill-opacity="0.5"></path>
            <path d="M93,294 C86.3729046,294 81,299.372004 81,306 C81,312.626898 86.3729046,318 93,318 C99.6270954,318 105,312.626898 105,306 C105,299.372004 99.6270954,294 93,294" id="Fill-294" fill-opacity="0.5"></path>
            <path d="M724,264 C717.372905,264 712,269.373102 712,276 C712,282.627996 717.372905,288 724,288 C730.627095,288 736,282.627996 736,276 C736,269.373102 730.627095,264 724,264" id="Fill-296" fill-opacity="0.5"></path>
            <path d="M695,264 C688.372905,264 683,269.373102 683,276 C683,282.627996 688.372905,288 695,288 C701.627095,288 707,282.627996 707,276 C707,269.373102 701.627095,264 695,264" id="Fill-301" fill-opacity="0.5"></path>
            <path d="M664,264 C657.372905,264 652,269.373102 652,276 C652,282.627996 657.372905,288 664,288 C670.627095,288 676,282.627996 676,276 C676,269.373102 670.627095,264 664,264" id="Fill-303" fill-opacity="0.5"></path>
            <path d="M634,264 C627.372905,264 622,269.373102 622,276 C622,282.627996 627.372905,288 634,288 C640.627095,288 646,282.627996 646,276 C646,269.373102 640.627095,264 634,264" id="Fill-305" fill-opacity="0.5"></path>
            <path d="M604,264 C597.372905,264 592,269.373102 592,276 C592,282.627996 597.372905,288 604,288 C610.627095,288 616,282.627996 616,276 C616,269.373102 610.627095,264 604,264" id="Fill-307" fill-opacity="0.5"></path>
            <path d="M544,264 C537.372905,264 532,269.373102 532,276 C532,282.627996 537.372905,288 544,288 C550.627095,288 556,282.627996 556,276 C556,269.373102 550.627095,264 544,264" id="Fill-309" fill-opacity="0.5"></path>
            <path d="M574,264 C567.372905,264 562,269.373102 562,276 C562,282.627996 567.372905,288 574,288 C580.627095,288 586,282.627996 586,276 C586,269.373102 580.627095,264 574,264" id="Fill-311" fill-opacity="0.5"></path>
            <path d="M514,264 C507.372905,264 502,269.373102 502,276 C502,282.627996 507.372905,288 514,288 C520.627095,288 526,282.627996 526,276 C526,269.373102 520.627095,264 514,264" id="Fill-313" fill-opacity="0.5"></path>
            <path d="M484,264 C477.372905,264 472,269.373102 472,276 C472,282.627996 477.372905,288 484,288 C490.627095,288 496,282.627996 496,276 C496,269.373102 490.627095,264 484,264" id="Fill-315" fill-opacity="0.5"></path>
            <path d="M454,264 C447.372905,264 442,269.373102 442,276 C442,282.627996 447.372905,288 454,288 C460.627095,288 466,282.627996 466,276 C466,269.373102 460.627095,264 454,264" id="Fill-317" fill-opacity="0.5"></path>
            <path d="M424,264 C417.372905,264 412,269.373102 412,276 C412,282.627996 417.372905,288 424,288 C430.627095,288 436,282.627996 436,276 C436,269.373102 430.627095,264 424,264" id="Fill-319" fill-opacity="0.5"></path>
            <path d="M364,264 C357.372905,264 352,269.373102 352,276 C352,282.627996 357.372905,288 364,288 C370.627095,288 376,282.627996 376,276 C376,269.373102 370.627095,264 364,264" id="Fill-321" fill-opacity="0.5"></path>
            <path d="M394,264 C387.372905,264 382,269.373102 382,276 C382,282.627996 387.372905,288 394,288 C400.627095,288 406,282.627996 406,276 C406,269.373102 400.627095,264 394,264" id="Fill-323" fill-opacity="0.5"></path>
            <path d="M334,264 C327.372905,264 322,269.373102 322,276 C322,282.627996 327.372905,288 334,288 C340.627095,288 346,282.627996 346,276 C346,269.373102 340.627095,264 334,264" id="Fill-325" fill-opacity="0.5"></path>
            <path d="M303,264 C296.372905,264 291,269.373102 291,276 C291,282.627996 296.372905,288 303,288 C309.627095,288 315,282.627996 315,276 C315,269.373102 309.627095,264 303,264" id="Fill-327" fill-opacity="0.5"></path>
            <path d="M274,264 C267.372905,264 262,269.373102 262,276 C262,282.627996 267.372905,288 274,288 C280.627095,288 286,282.627996 286,276 C286,269.373102 280.627095,264 274,264" id="Fill-329" fill-opacity="0.5"></path>
            <path d="M243,264 C236.372905,264 231,269.373102 231,276 C231,282.627996 236.372905,288 243,288 C249.627095,288 255,282.627996 255,276 C255,269.373102 249.627095,264 243,264" id="Fill-331" fill-opacity="0.5"></path>
            <path d="M184,264 C177.372905,264 172,269.373102 172,276 C172,282.627996 177.372905,288 184,288 C190.627095,288 196,282.627996 196,276 C196,269.373102 190.627095,264 184,264" id="Fill-333" fill-opacity="0.5"></path>
            <path d="M213,264 C206.372905,264 201,269.373102 201,276 C201,282.627996 206.372905,288 213,288 C219.627095,288 225,282.627996 225,276 C225,269.373102 219.627095,264 213,264" id="Fill-335" fill-opacity="0.5"></path>
            <path d="M153,264 C146.372905,264 141,269.373102 141,276 C141,282.627996 146.372905,288 153,288 C159.627095,288 165,282.627996 165,276 C165,269.373102 159.627095,264 153,264" id="Fill-337" fill-opacity="0.5"></path>
            <path d="M123,264 C116.372905,264 111,269.373102 111,276 C111,282.627996 116.372905,288 123,288 C129.627095,288 135,282.627996 135,276 C135,269.373102 129.627095,264 123,264" id="Fill-339" fill-opacity="0.5"></path>
            <path d="M93,264 C86.3729046,264 81,269.373102 81,276 C81,282.627996 86.3729046,288 93,288 C99.6270954,288 105,282.627996 105,276 C105,269.373102 99.6270954,264 93,264" id="Fill-341" fill-opacity="0.5"></path>
            <path d="M741,276 C741,282.627095 746.373102,288 753,288 C759.626898,288 765,282.627095 765,276 C765,269.372905 759.626898,264 753,264 C746.373102,264 741,269.372905 741,276" id="Fill-1" opacity="0.5"></path>
            <path d="M741,336 C741,342.627095 746.373102,348 753,348 C759.626898,348 765,342.627095 765,336 C765,329.372905 759.626898,324 753,324 C746.373102,324 741,329.372905 741,336" id="Fill-3" opacity="0.5"></path>
            <path d="M741,306 C741,312.627095 746.373102,318 753,318 C759.626898,318 765,312.627095 765,306 C765,299.372905 759.626898,294 753,294 C746.373102,294 741,299.372905 741,306" id="Fill-5" opacity="0.5"></path>
            <path d="M741,366 C741,372.627095 746.373102,378 753,378 C759.626898,378 765,372.627095 765,366 C765,359.372905 759.626898,354 753,354 C746.373102,354 741,359.372905 741,366" id="Fill-7" opacity="0.5"></path>
            <path d="M741,396 C741,402.627095 746.373102,408 753,408 C759.626898,408 765,402.627095 765,396 C765,389.372905 759.626898,384 753,384 C746.373102,384 741,389.372905 741,396" id="Fill-9" opacity="0.5"></path>
            <path d="M741,426 C741,432.627095 746.373102,438 753,438 C759.626898,438 765,432.627095 765,426 C765,419.372905 759.626898,414 753,414 C746.373102,414 741,419.372905 741,426" id="Fill-11" opacity="0.5"></path>
            <path d="M741,456 C741,462.627095 746.373102,468 753,468 C759.626898,468 765,462.627095 765,456 C765,449.372905 759.626898,444 753,444 C746.373102,444 741,449.372905 741,456" id="Fill-13" opacity="0.5"></path>
            <path d="M1414,444 C1407.3729,444 1402,449.373102 1402,456 C1402,462.627996 1407.3729,468 1414,468 C1420.6271,468 1426,462.627996 1426,456 C1426,449.373102 1420.6271,444 1414,444" id="Fill-15" opacity="0.5"></path>
            <path d="M1385,444 C1378.3729,444 1373,449.373102 1373,456 C1373,462.627996 1378.3729,468 1385,468 C1391.6271,468 1397,462.627996 1397,456 C1397,449.373102 1391.6271,444 1385,444" id="Fill-20" fill-opacity="0.5"></path>
            <path d="M1354,444 C1347.3729,444 1342,449.373102 1342,456 C1342,462.627996 1347.3729,468 1354,468 C1360.6271,468 1366,462.627996 1366,456 C1366,449.373102 1360.6271,444 1354,444" id="Fill-22" fill-opacity="0.5"></path>
            <path d="M1324,444 C1317.3729,444 1312,449.373102 1312,456 C1312,462.627996 1317.3729,468 1324,468 C1330.6271,468 1336,462.627996 1336,456 C1336,449.373102 1330.6271,444 1324,444" id="Fill-24" fill-opacity="0.5"></path>
            <path d="M1294,444 C1287.3729,444 1282,449.373102 1282,456 C1282,462.627996 1287.3729,468 1294,468 C1300.6271,468 1306,462.627996 1306,456 C1306,449.373102 1300.6271,444 1294,444" id="Fill-26" fill-opacity="0.5"></path>
            <path d="M1234,444 C1227.3729,444 1222,449.373102 1222,456 C1222,462.627996 1227.3729,468 1234,468 C1240.6271,468 1246,462.627996 1246,456 C1246,449.373102 1240.6271,444 1234,444" id="Fill-28" fill-opacity="0.5"></path>
            <path d="M1264,444 C1257.3729,444 1252,449.373102 1252,456 C1252,462.627996 1257.3729,468 1264,468 C1270.6271,468 1276,462.627996 1276,456 C1276,449.373102 1270.6271,444 1264,444" id="Fill-30" fill-opacity="0.5"></path>
            <path d="M1204,444 C1197.3729,444 1192,449.373102 1192,456 C1192,462.627996 1197.3729,468 1204,468 C1210.6271,468 1216,462.627996 1216,456 C1216,449.373102 1210.6271,444 1204,444" id="Fill-32" fill-opacity="0.5"></path>
            <path d="M1174,444 C1167.3729,444 1162,449.373102 1162,456 C1162,462.627996 1167.3729,468 1174,468 C1180.6271,468 1186,462.627996 1186,456 C1186,449.373102 1180.6271,444 1174,444" id="Fill-34" fill-opacity="0.5"></path>
            <path d="M1144,444 C1137.3729,444 1132,449.373102 1132,456 C1132,462.627996 1137.3729,468 1144,468 C1150.6271,468 1156,462.627996 1156,456 C1156,449.373102 1150.6271,444 1144,444" id="Fill-36" fill-opacity="0.5"></path>
            <path d="M1114,444 C1107.3729,444 1102,449.373102 1102,456 C1102,462.627996 1107.3729,468 1114,468 C1120.6271,468 1126,462.627996 1126,456 C1126,449.373102 1120.6271,444 1114,444" id="Fill-38" fill-opacity="0.5"></path>
            <path d="M1054,444 C1047.3729,444 1042,449.373102 1042,456 C1042,462.627996 1047.3729,468 1054,468 C1060.6271,468 1066,462.627996 1066,456 C1066,449.373102 1060.6271,444 1054,444" id="Fill-40" fill-opacity="0.5"></path>
            <path d="M1084,444 C1077.3729,444 1072,449.373102 1072,456 C1072,462.627996 1077.3729,468 1084,468 C1090.6271,468 1096,462.627996 1096,456 C1096,449.373102 1090.6271,444 1084,444" id="Fill-42" fill-opacity="0.5"></path>
            <path d="M1024,444 C1017.3729,444 1012,449.373102 1012,456 C1012,462.627996 1017.3729,468 1024,468 C1030.6271,468 1036,462.627996 1036,456 C1036,449.373102 1030.6271,444 1024,444" id="Fill-44" fill-opacity="0.5"></path>
            <path d="M993,444 C986.372905,444 981,449.373102 981,456 C981,462.627996 986.372905,468 993,468 C999.627095,468 1005,462.627996 1005,456 C1005,449.373102 999.627095,444 993,444" id="Fill-46" fill-opacity="0.5"></path>
            <path d="M964,444 C957.372905,444 952,449.373102 952,456 C952,462.627996 957.372905,468 964,468 C970.627095,468 976,462.627996 976,456 C976,449.373102 970.627095,444 964,444" id="Fill-48" fill-opacity="0.5"></path>
            <path d="M933,444 C926.372905,444 921,449.373102 921,456 C921,462.627996 926.372905,468 933,468 C939.627095,468 945,462.627996 945,456 C945,449.373102 939.627095,444 933,444" id="Fill-50" fill-opacity="0.5"></path>
            <path d="M874,444 C867.372905,444 862,449.373102 862,456 C862,462.627996 867.372905,468 874,468 C880.627095,468 886,462.627996 886,456 C886,449.373102 880.627095,444 874,444" id="Fill-52" fill-opacity="0.5"></path>
            <path d="M903,444 C896.372905,444 891,449.373102 891,456 C891,462.627996 896.372905,468 903,468 C909.627095,468 915,462.627996 915,456 C915,449.373102 909.627095,444 903,444" id="Fill-54" fill-opacity="0.5"></path>
            <path d="M843,444 C836.372905,444 831,449.373102 831,456 C831,462.627996 836.372905,468 843,468 C849.627095,468 855,462.627996 855,456 C855,449.373102 849.627095,444 843,444" id="Fill-56" fill-opacity="0.5"></path>
            <path d="M813,444 C806.372905,444 801,449.373102 801,456 C801,462.627996 806.372905,468 813,468 C819.627095,468 825,462.627996 825,456 C825,449.373102 819.627095,444 813,444" id="Fill-58" fill-opacity="0.5"></path>
            <path d="M783,444 C776.372905,444 771,449.373102 771,456 C771,462.627996 776.372905,468 783,468 C789.627095,468 795,462.627996 795,456 C795,449.373102 789.627095,444 783,444" id="Fill-60" fill-opacity="0.5"></path>
            <path d="M1414,414 C1407.3729,414 1402,419.373102 1402,426 C1402,432.627996 1407.3729,438 1414,438 C1420.6271,438 1426,432.627996 1426,426 C1426,419.373102 1420.6271,414 1414,414" id="Fill-62" fill-opacity="0.5"></path>
            <path d="M1385,414 C1378.3729,414 1373,419.373102 1373,426 C1373,432.627996 1378.3729,438 1385,438 C1391.6271,438 1397,432.627996 1397,426 C1397,419.373102 1391.6271,414 1385,414" id="Fill-66" fill-opacity="0.5"></path>
            <path d="M1354,414 C1347.3729,414 1342,419.373102 1342,426 C1342,432.627996 1347.3729,438 1354,438 C1360.6271,438 1366,432.627996 1366,426 C1366,419.373102 1360.6271,414 1354,414" id="Fill-68" fill-opacity="0.5"></path>
            <path d="M1324,414 C1317.3729,414 1312,419.373102 1312,426 C1312,432.627996 1317.3729,438 1324,438 C1330.6271,438 1336,432.627996 1336,426 C1336,419.373102 1330.6271,414 1324,414" id="Fill-70" fill-opacity="0.5"></path>
            <path d="M1294,414 C1287.3729,414 1282,419.373102 1282,426 C1282,432.627996 1287.3729,438 1294,438 C1300.6271,438 1306,432.627996 1306,426 C1306,419.373102 1300.6271,414 1294,414" id="Fill-72" fill-opacity="0.5"></path>
            <path d="M1234,414 C1227.3729,414 1222,419.373102 1222,426 C1222,432.627996 1227.3729,438 1234,438 C1240.6271,438 1246,432.627996 1246,426 C1246,419.373102 1240.6271,414 1234,414" id="Fill-74" fill-opacity="0.5"></path>
            <path d="M1264,414 C1257.3729,414 1252,419.373102 1252,426 C1252,432.627996 1257.3729,438 1264,438 C1270.6271,438 1276,432.627996 1276,426 C1276,419.373102 1270.6271,414 1264,414" id="Fill-76" fill-opacity="0.5"></path>
            <path d="M1204,414 C1197.3729,414 1192,419.373102 1192,426 C1192,432.627996 1197.3729,438 1204,438 C1210.6271,438 1216,432.627996 1216,426 C1216,419.373102 1210.6271,414 1204,414" id="Fill-78" fill-opacity="0.5"></path>
            <path d="M1174,414 C1167.3729,414 1162,419.373102 1162,426 C1162,432.627996 1167.3729,438 1174,438 C1180.6271,438 1186,432.627996 1186,426 C1186,419.373102 1180.6271,414 1174,414" id="Fill-80" fill-opacity="0.5"></path>
            <path d="M1144,414 C1137.3729,414 1132,419.373102 1132,426 C1132,432.627996 1137.3729,438 1144,438 C1150.6271,438 1156,432.627996 1156,426 C1156,419.373102 1150.6271,414 1144,414" id="Fill-82" fill-opacity="0.5"></path>
            <path d="M1114,414 C1107.3729,414 1102,419.373102 1102,426 C1102,432.627996 1107.3729,438 1114,438 C1120.6271,438 1126,432.627996 1126,426 C1126,419.373102 1120.6271,414 1114,414" id="Fill-84" fill-opacity="0.5"></path>
            <path d="M1054,414 C1047.3729,414 1042,419.373102 1042,426 C1042,432.627996 1047.3729,438 1054,438 C1060.6271,438 1066,432.627996 1066,426 C1066,419.373102 1060.6271,414 1054,414" id="Fill-86" fill-opacity="0.5"></path>
            <path d="M1084,414 C1077.3729,414 1072,419.373102 1072,426 C1072,432.627996 1077.3729,438 1084,438 C1090.6271,438 1096,432.627996 1096,426 C1096,419.373102 1090.6271,414 1084,414" id="Fill-88" fill-opacity="0.5"></path>
            <path d="M1024,414 C1017.3729,414 1012,419.373102 1012,426 C1012,432.627996 1017.3729,438 1024,438 C1030.6271,438 1036,432.627996 1036,426 C1036,419.373102 1030.6271,414 1024,414" id="Fill-90" fill-opacity="0.5"></path>
            <path d="M993,414 C986.372905,414 981,419.373102 981,426 C981,432.627996 986.372905,438 993,438 C999.627095,438 1005,432.627996 1005,426 C1005,419.373102 999.627095,414 993,414" id="Fill-92" fill-opacity="0.5"></path>
            <path d="M964,414 C957.372905,414 952,419.373102 952,426 C952,432.627996 957.372905,438 964,438 C970.627095,438 976,432.627996 976,426 C976,419.373102 970.627095,414 964,414" id="Fill-94" fill-opacity="0.5"></path>
            <path d="M933,414 C926.372905,414 921,419.373102 921,426 C921,432.627996 926.372905,438 933,438 C939.627095,438 945,432.627996 945,426 C945,419.373102 939.627095,414 933,414" id="Fill-96" fill-opacity="0.5"></path>
            <path d="M874,414 C867.372905,414 862,419.373102 862,426 C862,432.627996 867.372905,438 874,438 C880.627095,438 886,432.627996 886,426 C886,419.373102 880.627095,414 874,414" id="Fill-98" fill-opacity="0.5"></path>
            <path d="M903,414 C896.372905,414 891,419.373102 891,426 C891,432.627996 896.372905,438 903,438 C909.627095,438 915,432.627996 915,426 C915,419.373102 909.627095,414 903,414" id="Fill-100" fill-opacity="0.5"></path>
            <path d="M843,414 C836.372905,414 831,419.373102 831,426 C831,432.627996 836.372905,438 843,438 C849.627095,438 855,432.627996 855,426 C855,419.373102 849.627095,414 843,414" id="Fill-102" fill-opacity="0.5"></path>
            <path d="M813,414 C806.372905,414 801,419.373102 801,426 C801,432.627996 806.372905,438 813,438 C819.627095,438 825,432.627996 825,426 C825,419.373102 819.627095,414 813,414" id="Fill-104" fill-opacity="0.5"></path>
            <path d="M783,414 C776.372905,414 771,419.373102 771,426 C771,432.627996 776.372905,438 783,438 C789.627095,438 795,432.627996 795,426 C795,419.373102 789.627095,414 783,414" id="Fill-106" fill-opacity="0.5"></path>
            <path d="M1414,384 C1407.3729,384 1402,389.373102 1402,396 C1402,402.626898 1407.3729,408 1414,408 C1420.6271,408 1426,402.626898 1426,396 C1426,389.373102 1420.6271,384 1414,384" id="Fill-108" fill-opacity="0.5"></path>
            <path d="M1385,384 C1378.3729,384 1373,389.373102 1373,396 C1373,402.626898 1378.3729,408 1385,408 C1391.6271,408 1397,402.626898 1397,396 C1397,389.373102 1391.6271,384 1385,384" id="Fill-113" fill-opacity="0.5"></path>
            <path d="M1354,384 C1347.3729,384 1342,389.373102 1342,396 C1342,402.626898 1347.3729,408 1354,408 C1360.6271,408 1366,402.626898 1366,396 C1366,389.373102 1360.6271,384 1354,384" id="Fill-115" fill-opacity="0.5"></path>
            <path d="M1324,384 C1317.3729,384 1312,389.373102 1312,396 C1312,402.626898 1317.3729,408 1324,408 C1330.6271,408 1336,402.626898 1336,396 C1336,389.373102 1330.6271,384 1324,384" id="Fill-117" fill-opacity="0.5"></path>
            <path d="M1294,384 C1287.3729,384 1282,389.373102 1282,396 C1282,402.626898 1287.3729,408 1294,408 C1300.6271,408 1306,402.626898 1306,396 C1306,389.373102 1300.6271,384 1294,384" id="Fill-119" fill-opacity="0.5"></path>
            <path d="M1234,384 C1227.3729,384 1222,389.373102 1222,396 C1222,402.626898 1227.3729,408 1234,408 C1240.6271,408 1246,402.626898 1246,396 C1246,389.373102 1240.6271,384 1234,384" id="Fill-121" fill-opacity="0.5"></path>
            <path d="M1264,384 C1257.3729,384 1252,389.373102 1252,396 C1252,402.626898 1257.3729,408 1264,408 C1270.6271,408 1276,402.626898 1276,396 C1276,389.373102 1270.6271,384 1264,384" id="Fill-123" fill-opacity="0.5"></path>
            <path d="M1204,384 C1197.3729,384 1192,389.373102 1192,396 C1192,402.626898 1197.3729,408 1204,408 C1210.6271,408 1216,402.626898 1216,396 C1216,389.373102 1210.6271,384 1204,384" id="Fill-125" fill-opacity="0.5"></path>
            <path d="M1174,384 C1167.3729,384 1162,389.373102 1162,396 C1162,402.626898 1167.3729,408 1174,408 C1180.6271,408 1186,402.626898 1186,396 C1186,389.373102 1180.6271,384 1174,384" id="Fill-127" fill-opacity="0.5"></path>
            <path d="M1144,384 C1137.3729,384 1132,389.373102 1132,396 C1132,402.626898 1137.3729,408 1144,408 C1150.6271,408 1156,402.626898 1156,396 C1156,389.373102 1150.6271,384 1144,384" id="Fill-129" fill-opacity="0.5"></path>
            <path d="M1114,384 C1107.3729,384 1102,389.373102 1102,396 C1102,402.626898 1107.3729,408 1114,408 C1120.6271,408 1126,402.626898 1126,396 C1126,389.373102 1120.6271,384 1114,384" id="Fill-131" fill-opacity="0.5"></path>
            <path d="M1054,384 C1047.3729,384 1042,389.373102 1042,396 C1042,402.626898 1047.3729,408 1054,408 C1060.6271,408 1066,402.626898 1066,396 C1066,389.373102 1060.6271,384 1054,384" id="Fill-133" fill-opacity="0.5"></path>
            <path d="M1084,384 C1077.3729,384 1072,389.373102 1072,396 C1072,402.626898 1077.3729,408 1084,408 C1090.6271,408 1096,402.626898 1096,396 C1096,389.373102 1090.6271,384 1084,384" id="Fill-135" fill-opacity="0.5"></path>
            <path d="M1024,384 C1017.3729,384 1012,389.373102 1012,396 C1012,402.626898 1017.3729,408 1024,408 C1030.6271,408 1036,402.626898 1036,396 C1036,389.373102 1030.6271,384 1024,384" id="Fill-137" fill-opacity="0.5"></path>
            <path d="M993,384 C986.372905,384 981,389.373102 981,396 C981,402.626898 986.372905,408 993,408 C999.627095,408 1005,402.626898 1005,396 C1005,389.373102 999.627095,384 993,384" id="Fill-139" fill-opacity="0.5"></path>
            <path d="M964,384 C957.372905,384 952,389.373102 952,396 C952,402.626898 957.372905,408 964,408 C970.627095,408 976,402.626898 976,396 C976,389.373102 970.627095,384 964,384" id="Fill-141" fill-opacity="0.5"></path>
            <path d="M933,384 C926.372905,384 921,389.373102 921,396 C921,402.626898 926.372905,408 933,408 C939.627095,408 945,402.626898 945,396 C945,389.373102 939.627095,384 933,384" id="Fill-143" fill-opacity="0.5"></path>
            <path d="M874,384 C867.372905,384 862,389.373102 862,396 C862,402.626898 867.372905,408 874,408 C880.627095,408 886,402.626898 886,396 C886,389.373102 880.627095,384 874,384" id="Fill-145" fill-opacity="0.5"></path>
            <path d="M903,384 C896.372905,384 891,389.373102 891,396 C891,402.626898 896.372905,408 903,408 C909.627095,408 915,402.626898 915,396 C915,389.373102 909.627095,384 903,384" id="Fill-147" fill-opacity="0.5"></path>
            <path d="M843,384 C836.372905,384 831,389.373102 831,396 C831,402.626898 836.372905,408 843,408 C849.627095,408 855,402.626898 855,396 C855,389.373102 849.627095,384 843,384" id="Fill-149" fill-opacity="0.5"></path>
            <path d="M813,384 C806.372905,384 801,389.373102 801,396 C801,402.626898 806.372905,408 813,408 C819.627095,408 825,402.626898 825,396 C825,389.373102 819.627095,384 813,384" id="Fill-151" fill-opacity="0.5"></path>
            <path d="M783,384 C776.372905,384 771,389.373102 771,396 C771,402.626898 776.372905,408 783,408 C789.627095,408 795,402.626898 795,396 C795,389.373102 789.627095,384 783,384" id="Fill-153" fill-opacity="0.5"></path>
            <path d="M1414,354 C1407.3729,354 1402,359.373102 1402,366 C1402,372.626898 1407.3729,378 1414,378 C1420.6271,378 1426,372.626898 1426,366 C1426,359.373102 1420.6271,354 1414,354" id="Fill-155" fill-opacity="0.5"></path>
            <path d="M1385,354 C1378.3729,354 1373,359.373102 1373,366 C1373,372.626898 1378.3729,378 1385,378 C1391.6271,378 1397,372.626898 1397,366 C1397,359.373102 1391.6271,354 1385,354" id="Fill-160" fill-opacity="0.5"></path>
            <path d="M1354,354 C1347.3729,354 1342,359.373102 1342,366 C1342,372.626898 1347.3729,378 1354,378 C1360.6271,378 1366,372.626898 1366,366 C1366,359.373102 1360.6271,354 1354,354" id="Fill-162" fill-opacity="0.5"></path>
            <path d="M1324,354 C1317.3729,354 1312,359.373102 1312,366 C1312,372.626898 1317.3729,378 1324,378 C1330.6271,378 1336,372.626898 1336,366 C1336,359.373102 1330.6271,354 1324,354" id="Fill-164" fill-opacity="0.5"></path>
            <path d="M1294,354 C1287.3729,354 1282,359.373102 1282,366 C1282,372.626898 1287.3729,378 1294,378 C1300.6271,378 1306,372.626898 1306,366 C1306,359.373102 1300.6271,354 1294,354" id="Fill-166" fill-opacity="0.5"></path>
            <path d="M1234,354 C1227.3729,354 1222,359.373102 1222,366 C1222,372.626898 1227.3729,378 1234,378 C1240.6271,378 1246,372.626898 1246,366 C1246,359.373102 1240.6271,354 1234,354" id="Fill-168" fill-opacity="0.5"></path>
            <path d="M1264,354 C1257.3729,354 1252,359.373102 1252,366 C1252,372.626898 1257.3729,378 1264,378 C1270.6271,378 1276,372.626898 1276,366 C1276,359.373102 1270.6271,354 1264,354" id="Fill-170" fill-opacity="0.5"></path>
            <path d="M1204,354 C1197.3729,354 1192,359.373102 1192,366 C1192,372.626898 1197.3729,378 1204,378 C1210.6271,378 1216,372.626898 1216,366 C1216,359.373102 1210.6271,354 1204,354" id="Fill-172" fill-opacity="0.5"></path>
            <path d="M1174,354 C1167.3729,354 1162,359.373102 1162,366 C1162,372.626898 1167.3729,378 1174,378 C1180.6271,378 1186,372.626898 1186,366 C1186,359.373102 1180.6271,354 1174,354" id="Fill-174" fill-opacity="0.5"></path>
            <path d="M1144,354 C1137.3729,354 1132,359.373102 1132,366 C1132,372.626898 1137.3729,378 1144,378 C1150.6271,378 1156,372.626898 1156,366 C1156,359.373102 1150.6271,354 1144,354" id="Fill-176" fill-opacity="0.5"></path>
            <path d="M1114,354 C1107.3729,354 1102,359.373102 1102,366 C1102,372.626898 1107.3729,378 1114,378 C1120.6271,378 1126,372.626898 1126,366 C1126,359.373102 1120.6271,354 1114,354" id="Fill-178" fill-opacity="0.5"></path>
            <path d="M1054,354 C1047.3729,354 1042,359.373102 1042,366 C1042,372.626898 1047.3729,378 1054,378 C1060.6271,378 1066,372.626898 1066,366 C1066,359.373102 1060.6271,354 1054,354" id="Fill-180" fill-opacity="0.5"></path>
            <path d="M1084,354 C1077.3729,354 1072,359.373102 1072,366 C1072,372.626898 1077.3729,378 1084,378 C1090.6271,378 1096,372.626898 1096,366 C1096,359.373102 1090.6271,354 1084,354" id="Fill-182" fill-opacity="0.5"></path>
            <path d="M1024,354 C1017.3729,354 1012,359.373102 1012,366 C1012,372.626898 1017.3729,378 1024,378 C1030.6271,378 1036,372.626898 1036,366 C1036,359.373102 1030.6271,354 1024,354" id="Fill-184" fill-opacity="0.5"></path>
            <path d="M993,354 C986.372905,354 981,359.373102 981,366 C981,372.626898 986.372905,378 993,378 C999.627095,378 1005,372.626898 1005,366 C1005,359.373102 999.627095,354 993,354" id="Fill-186" fill-opacity="0.5"></path>
            <path d="M964,354 C957.372905,354 952,359.373102 952,366 C952,372.626898 957.372905,378 964,378 C970.627095,378 976,372.626898 976,366 C976,359.373102 970.627095,354 964,354" id="Fill-188" fill-opacity="0.5"></path>
            <path d="M933,354 C926.372905,354 921,359.373102 921,366 C921,372.626898 926.372905,378 933,378 C939.627095,378 945,372.626898 945,366 C945,359.373102 939.627095,354 933,354" id="Fill-190" fill-opacity="0.5"></path>
            <path d="M874,354 C867.372905,354 862,359.373102 862,366 C862,372.626898 867.372905,378 874,378 C880.627095,378 886,372.626898 886,366 C886,359.373102 880.627095,354 874,354" id="Fill-192" fill-opacity="0.5"></path>
            <path d="M903,354 C896.372905,354 891,359.373102 891,366 C891,372.626898 896.372905,378 903,378 C909.627095,378 915,372.626898 915,366 C915,359.373102 909.627095,354 903,354" id="Fill-194" fill-opacity="0.5"></path>
            <path d="M843,354 C836.372905,354 831,359.373102 831,366 C831,372.626898 836.372905,378 843,378 C849.627095,378 855,372.626898 855,366 C855,359.373102 849.627095,354 843,354" id="Fill-196" fill-opacity="0.5"></path>
            <path d="M813,354 C806.372905,354 801,359.373102 801,366 C801,372.626898 806.372905,378 813,378 C819.627095,378 825,372.626898 825,366 C825,359.373102 819.627095,354 813,354" id="Fill-198" fill-opacity="0.5"></path>
            <path d="M783,354 C776.372905,354 771,359.373102 771,366 C771,372.626898 776.372905,378 783,378 C789.627095,378 795,372.626898 795,366 C795,359.373102 789.627095,354 783,354" id="Fill-200" fill-opacity="0.5"></path>
            <path d="M1414,324 C1407.3729,324 1402,329.372004 1402,336 C1402,342.626898 1407.3729,348 1414,348 C1420.6271,348 1426,342.626898 1426,336 C1426,329.372004 1420.6271,324 1414,324" id="Fill-202" fill-opacity="0.5"></path>
            <path d="M1385,324 C1378.3729,324 1373,329.372004 1373,336 C1373,342.626898 1378.3729,348 1385,348 C1391.6271,348 1397,342.626898 1397,336 C1397,329.372004 1391.6271,324 1385,324" id="Fill-207" fill-opacity="0.5"></path>
            <path d="M1354,324 C1347.3729,324 1342,329.372004 1342,336 C1342,342.626898 1347.3729,348 1354,348 C1360.6271,348 1366,342.626898 1366,336 C1366,329.372004 1360.6271,324 1354,324" id="Fill-209" fill-opacity="0.5"></path>
            <path d="M1324,324 C1317.3729,324 1312,329.372004 1312,336 C1312,342.626898 1317.3729,348 1324,348 C1330.6271,348 1336,342.626898 1336,336 C1336,329.372004 1330.6271,324 1324,324" id="Fill-211" fill-opacity="0.5"></path>
            <path d="M1294,324 C1287.3729,324 1282,329.372004 1282,336 C1282,342.626898 1287.3729,348 1294,348 C1300.6271,348 1306,342.626898 1306,336 C1306,329.372004 1300.6271,324 1294,324" id="Fill-213" fill-opacity="0.5"></path>
            <path d="M1234,324 C1227.3729,324 1222,329.372004 1222,336 C1222,342.626898 1227.3729,348 1234,348 C1240.6271,348 1246,342.626898 1246,336 C1246,329.372004 1240.6271,324 1234,324" id="Fill-215" fill-opacity="0.5"></path>
            <path d="M1264,324 C1257.3729,324 1252,329.372004 1252,336 C1252,342.626898 1257.3729,348 1264,348 C1270.6271,348 1276,342.626898 1276,336 C1276,329.372004 1270.6271,324 1264,324" id="Fill-217" fill-opacity="0.5"></path>
            <path d="M1204,324 C1197.3729,324 1192,329.372004 1192,336 C1192,342.626898 1197.3729,348 1204,348 C1210.6271,348 1216,342.626898 1216,336 C1216,329.372004 1210.6271,324 1204,324" id="Fill-219" fill-opacity="0.5"></path>
            <path d="M1174,324 C1167.3729,324 1162,329.372004 1162,336 C1162,342.626898 1167.3729,348 1174,348 C1180.6271,348 1186,342.626898 1186,336 C1186,329.372004 1180.6271,324 1174,324" id="Fill-221" fill-opacity="0.5"></path>
            <path d="M1144,324 C1137.3729,324 1132,329.372004 1132,336 C1132,342.626898 1137.3729,348 1144,348 C1150.6271,348 1156,342.626898 1156,336 C1156,329.372004 1150.6271,324 1144,324" id="Fill-223" fill-opacity="0.5"></path>
            <path d="M1114,324 C1107.3729,324 1102,329.372004 1102,336 C1102,342.626898 1107.3729,348 1114,348 C1120.6271,348 1126,342.626898 1126,336 C1126,329.372004 1120.6271,324 1114,324" id="Fill-225" fill-opacity="0.5"></path>
            <path d="M1054,324 C1047.3729,324 1042,329.372004 1042,336 C1042,342.626898 1047.3729,348 1054,348 C1060.6271,348 1066,342.626898 1066,336 C1066,329.372004 1060.6271,324 1054,324" id="Fill-227" fill-opacity="0.5"></path>
            <path d="M1084,324 C1077.3729,324 1072,329.372004 1072,336 C1072,342.626898 1077.3729,348 1084,348 C1090.6271,348 1096,342.626898 1096,336 C1096,329.372004 1090.6271,324 1084,324" id="Fill-229" fill-opacity="0.5"></path>
            <path d="M1024,324 C1017.3729,324 1012,329.372004 1012,336 C1012,342.626898 1017.3729,348 1024,348 C1030.6271,348 1036,342.626898 1036,336 C1036,329.372004 1030.6271,324 1024,324" id="Fill-231" fill-opacity="0.5"></path>
            <path d="M993,324 C986.372905,324 981,329.372004 981,336 C981,342.626898 986.372905,348 993,348 C999.627095,348 1005,342.626898 1005,336 C1005,329.372004 999.627095,324 993,324" id="Fill-233" fill-opacity="0.5"></path>
            <path d="M964,324 C957.372905,324 952,329.372004 952,336 C952,342.626898 957.372905,348 964,348 C970.627095,348 976,342.626898 976,336 C976,329.372004 970.627095,324 964,324" id="Fill-235" fill-opacity="0.5"></path>
            <path d="M933,324 C926.372905,324 921,329.372004 921,336 C921,342.626898 926.372905,348 933,348 C939.627095,348 945,342.626898 945,336 C945,329.372004 939.627095,324 933,324" id="Fill-237" fill-opacity="0.5"></path>
            <path d="M874,324 C867.372905,324 862,329.372004 862,336 C862,342.626898 867.372905,348 874,348 C880.627095,348 886,342.626898 886,336 C886,329.372004 880.627095,324 874,324" id="Fill-239" fill-opacity="0.5"></path>
            <path d="M903,324 C896.372905,324 891,329.372004 891,336 C891,342.626898 896.372905,348 903,348 C909.627095,348 915,342.626898 915,336 C915,329.372004 909.627095,324 903,324" id="Fill-241" fill-opacity="0.5"></path>
            <path d="M843,324 C836.372905,324 831,329.372004 831,336 C831,342.626898 836.372905,348 843,348 C849.627095,348 855,342.626898 855,336 C855,329.372004 849.627095,324 843,324" id="Fill-243" fill-opacity="0.5"></path>
            <path d="M813,324 C806.372905,324 801,329.372004 801,336 C801,342.626898 806.372905,348 813,348 C819.627095,348 825,342.626898 825,336 C825,329.372004 819.627095,324 813,324" id="Fill-245" fill-opacity="0.5"></path>
            <path d="M783,324 C776.372905,324 771,329.372004 771,336 C771,342.626898 776.372905,348 783,348 C789.627095,348 795,342.626898 795,336 C795,329.372004 789.627095,324 783,324" id="Fill-247" fill-opacity="0.5"></path>
            <path d="M1414,294 C1407.3729,294 1402,299.372004 1402,306 C1402,312.626898 1407.3729,318 1414,318 C1420.6271,318 1426,312.626898 1426,306 C1426,299.372004 1420.6271,294 1414,294" id="Fill-249" fill-opacity="0.5"></path>
            <path d="M1385,294 C1378.3729,294 1373,299.372004 1373,306 C1373,312.626898 1378.3729,318 1385,318 C1391.6271,318 1397,312.626898 1397,306 C1397,299.372004 1391.6271,294 1385,294" id="Fill-254" fill-opacity="0.5"></path>
            <path d="M1354,294 C1347.3729,294 1342,299.372004 1342,306 C1342,312.626898 1347.3729,318 1354,318 C1360.6271,318 1366,312.626898 1366,306 C1366,299.372004 1360.6271,294 1354,294" id="Fill-256" fill-opacity="0.5"></path>
            <path d="M1324,294 C1317.3729,294 1312,299.372004 1312,306 C1312,312.626898 1317.3729,318 1324,318 C1330.6271,318 1336,312.626898 1336,306 C1336,299.372004 1330.6271,294 1324,294" id="Fill-258" fill-opacity="0.5"></path>
            <path d="M1294,294 C1287.3729,294 1282,299.372004 1282,306 C1282,312.626898 1287.3729,318 1294,318 C1300.6271,318 1306,312.626898 1306,306 C1306,299.372004 1300.6271,294 1294,294" id="Fill-260" fill-opacity="0.5"></path>
            <path d="M1234,294 C1227.3729,294 1222,299.372004 1222,306 C1222,312.626898 1227.3729,318 1234,318 C1240.6271,318 1246,312.626898 1246,306 C1246,299.372004 1240.6271,294 1234,294" id="Fill-262" fill-opacity="0.5"></path>
            <path d="M1264,294 C1257.3729,294 1252,299.372004 1252,306 C1252,312.626898 1257.3729,318 1264,318 C1270.6271,318 1276,312.626898 1276,306 C1276,299.372004 1270.6271,294 1264,294" id="Fill-264" fill-opacity="0.5"></path>
            <path d="M1204,294 C1197.3729,294 1192,299.372004 1192,306 C1192,312.626898 1197.3729,318 1204,318 C1210.6271,318 1216,312.626898 1216,306 C1216,299.372004 1210.6271,294 1204,294" id="Fill-266" fill-opacity="0.5"></path>
            <path d="M1174,294 C1167.3729,294 1162,299.372004 1162,306 C1162,312.626898 1167.3729,318 1174,318 C1180.6271,318 1186,312.626898 1186,306 C1186,299.372004 1180.6271,294 1174,294" id="Fill-268" fill-opacity="0.5"></path>
            <path d="M1144,294 C1137.3729,294 1132,299.372004 1132,306 C1132,312.626898 1137.3729,318 1144,318 C1150.6271,318 1156,312.626898 1156,306 C1156,299.372004 1150.6271,294 1144,294" id="Fill-270" fill-opacity="0.5"></path>
            <path d="M1114,294 C1107.3729,294 1102,299.372004 1102,306 C1102,312.626898 1107.3729,318 1114,318 C1120.6271,318 1126,312.626898 1126,306 C1126,299.372004 1120.6271,294 1114,294" id="Fill-272" fill-opacity="0.5"></path>
            <path d="M1054,294 C1047.3729,294 1042,299.372004 1042,306 C1042,312.626898 1047.3729,318 1054,318 C1060.6271,318 1066,312.626898 1066,306 C1066,299.372004 1060.6271,294 1054,294" id="Fill-274" fill-opacity="0.5"></path>
            <path d="M1084,294 C1077.3729,294 1072,299.372004 1072,306 C1072,312.626898 1077.3729,318 1084,318 C1090.6271,318 1096,312.626898 1096,306 C1096,299.372004 1090.6271,294 1084,294" id="Fill-276" fill-opacity="0.5"></path>
            <path d="M1024,294 C1017.3729,294 1012,299.372004 1012,306 C1012,312.626898 1017.3729,318 1024,318 C1030.6271,318 1036,312.626898 1036,306 C1036,299.372004 1030.6271,294 1024,294" id="Fill-278" fill-opacity="0.5"></path>
            <path d="M993,294 C986.372905,294 981,299.372004 981,306 C981,312.626898 986.372905,318 993,318 C999.627095,318 1005,312.626898 1005,306 C1005,299.372004 999.627095,294 993,294" id="Fill-280" fill-opacity="0.5"></path>
            <path d="M964,294 C957.372905,294 952,299.372004 952,306 C952,312.626898 957.372905,318 964,318 C970.627095,318 976,312.626898 976,306 C976,299.372004 970.627095,294 964,294" id="Fill-282" fill-opacity="0.5"></path>
            <path d="M933,294 C926.372905,294 921,299.372004 921,306 C921,312.626898 926.372905,318 933,318 C939.627095,318 945,312.626898 945,306 C945,299.372004 939.627095,294 933,294" id="Fill-284" fill-opacity="0.5"></path>
            <path d="M874,294 C867.372905,294 862,299.372004 862,306 C862,312.626898 867.372905,318 874,318 C880.627095,318 886,312.626898 886,306 C886,299.372004 880.627095,294 874,294" id="Fill-286" fill-opacity="0.5"></path>
            <path d="M903,294 C896.372905,294 891,299.372004 891,306 C891,312.626898 896.372905,318 903,318 C909.627095,318 915,312.626898 915,306 C915,299.372004 909.627095,294 903,294" id="Fill-288" fill-opacity="0.5"></path>
            <path d="M843,294 C836.372905,294 831,299.372004 831,306 C831,312.626898 836.372905,318 843,318 C849.627095,318 855,312.626898 855,306 C855,299.372004 849.627095,294 843,294" id="Fill-290" fill-opacity="0.5"></path>
            <path d="M813,294 C806.372905,294 801,299.372004 801,306 C801,312.626898 806.372905,318 813,318 C819.627095,318 825,312.626898 825,306 C825,299.372004 819.627095,294 813,294" id="Fill-292" fill-opacity="0.5"></path>
            <path d="M783,294 C776.372905,294 771,299.372004 771,306 C771,312.626898 776.372905,318 783,318 C789.627095,318 795,312.626898 795,306 C795,299.372004 789.627095,294 783,294" id="Fill-294" fill-opacity="0.5"></path>
            <path d="M1414,264 C1407.3729,264 1402,269.373102 1402,276 C1402,282.627996 1407.3729,288 1414,288 C1420.6271,288 1426,282.627996 1426,276 C1426,269.373102 1420.6271,264 1414,264" id="Fill-296" fill-opacity="0.5"></path>
            <path d="M1385,264 C1378.3729,264 1373,269.373102 1373,276 C1373,282.627996 1378.3729,288 1385,288 C1391.6271,288 1397,282.627996 1397,276 C1397,269.373102 1391.6271,264 1385,264" id="Fill-301" fill-opacity="0.5"></path>
            <path d="M1354,264 C1347.3729,264 1342,269.373102 1342,276 C1342,282.627996 1347.3729,288 1354,288 C1360.6271,288 1366,282.627996 1366,276 C1366,269.373102 1360.6271,264 1354,264" id="Fill-303" fill-opacity="0.5"></path>
            <path d="M1324,264 C1317.3729,264 1312,269.373102 1312,276 C1312,282.627996 1317.3729,288 1324,288 C1330.6271,288 1336,282.627996 1336,276 C1336,269.373102 1330.6271,264 1324,264" id="Fill-305" fill-opacity="0.5"></path>
            <path d="M1294,264 C1287.3729,264 1282,269.373102 1282,276 C1282,282.627996 1287.3729,288 1294,288 C1300.6271,288 1306,282.627996 1306,276 C1306,269.373102 1300.6271,264 1294,264" id="Fill-307" fill-opacity="0.5"></path>
            <path d="M1234,264 C1227.3729,264 1222,269.373102 1222,276 C1222,282.627996 1227.3729,288 1234,288 C1240.6271,288 1246,282.627996 1246,276 C1246,269.373102 1240.6271,264 1234,264" id="Fill-309" fill-opacity="0.5"></path>
            <path d="M1264,264 C1257.3729,264 1252,269.373102 1252,276 C1252,282.627996 1257.3729,288 1264,288 C1270.6271,288 1276,282.627996 1276,276 C1276,269.373102 1270.6271,264 1264,264" id="Fill-311" fill-opacity="0.5"></path>
            <path d="M1204,264 C1197.3729,264 1192,269.373102 1192,276 C1192,282.627996 1197.3729,288 1204,288 C1210.6271,288 1216,282.627996 1216,276 C1216,269.373102 1210.6271,264 1204,264" id="Fill-313" fill-opacity="0.5"></path>
            <path d="M1174,264 C1167.3729,264 1162,269.373102 1162,276 C1162,282.627996 1167.3729,288 1174,288 C1180.6271,288 1186,282.627996 1186,276 C1186,269.373102 1180.6271,264 1174,264" id="Fill-315" fill-opacity="0.5"></path>
            <path d="M1144,264 C1137.3729,264 1132,269.373102 1132,276 C1132,282.627996 1137.3729,288 1144,288 C1150.6271,288 1156,282.627996 1156,276 C1156,269.373102 1150.6271,264 1144,264" id="Fill-317" fill-opacity="0.5"></path>
            <path d="M1114,264 C1107.3729,264 1102,269.373102 1102,276 C1102,282.627996 1107.3729,288 1114,288 C1120.6271,288 1126,282.627996 1126,276 C1126,269.373102 1120.6271,264 1114,264" id="Fill-319" fill-opacity="0.5"></path>
            <path d="M1054,264 C1047.3729,264 1042,269.373102 1042,276 C1042,282.627996 1047.3729,288 1054,288 C1060.6271,288 1066,282.627996 1066,276 C1066,269.373102 1060.6271,264 1054,264" id="Fill-321" fill-opacity="0.5"></path>
            <path d="M1084,264 C1077.3729,264 1072,269.373102 1072,276 C1072,282.627996 1077.3729,288 1084,288 C1090.6271,288 1096,282.627996 1096,276 C1096,269.373102 1090.6271,264 1084,264" id="Fill-323" fill-opacity="0.5"></path>
            <path d="M1024,264 C1017.3729,264 1012,269.373102 1012,276 C1012,282.627996 1017.3729,288 1024,288 C1030.6271,288 1036,282.627996 1036,276 C1036,269.373102 1030.6271,264 1024,264" id="Fill-325" fill-opacity="0.5"></path>
            <path d="M993,264 C986.372905,264 981,269.373102 981,276 C981,282.627996 986.372905,288 993,288 C999.627095,288 1005,282.627996 1005,276 C1005,269.373102 999.627095,264 993,264" id="Fill-327" fill-opacity="0.5"></path>
            <path d="M964,264 C957.372905,264 952,269.373102 952,276 C952,282.627996 957.372905,288 964,288 C970.627095,288 976,282.627996 976,276 C976,269.373102 970.627095,264 964,264" id="Fill-329" fill-opacity="0.5"></path>
            <path d="M933,264 C926.372905,264 921,269.373102 921,276 C921,282.627996 926.372905,288 933,288 C939.627095,288 945,282.627996 945,276 C945,269.373102 939.627095,264 933,264" id="Fill-331" fill-opacity="0.5"></path>
            <path d="M874,264 C867.372905,264 862,269.373102 862,276 C862,282.627996 867.372905,288 874,288 C880.627095,288 886,282.627996 886,276 C886,269.373102 880.627095,264 874,264" id="Fill-333" fill-opacity="0.5"></path>
            <path d="M903,264 C896.372905,264 891,269.373102 891,276 C891,282.627996 896.372905,288 903,288 C909.627095,288 915,282.627996 915,276 C915,269.373102 909.627095,264 903,264" id="Fill-335" fill-opacity="0.5"></path>
            <path d="M843,264 C836.372905,264 831,269.373102 831,276 C831,282.627996 836.372905,288 843,288 C849.627095,288 855,282.627996 855,276 C855,269.373102 849.627095,264 843,264" id="Fill-337" fill-opacity="0.5"></path>
            <path d="M813,264 C806.372905,264 801,269.373102 801,276 C801,282.627996 806.372905,288 813,288 C819.627095,288 825,282.627996 825,276 C825,269.373102 819.627095,264 813,264" id="Fill-339" fill-opacity="0.5"></path>
            <path d="M783,264 C776.372905,264 771,269.373102 771,276 C771,282.627996 776.372905,288 783,288 C789.627095,288 795,282.627996 795,276 C795,269.373102 789.627095,264 783,264" id="Fill-341" fill-opacity="0.5"></path>
        </g>
    </g>
</svg>