<?xml version="1.0" encoding="UTF-8"?>
<svg width="247px" height="246px" viewBox="0 0 247 246" version="1.1" xmlns="http://www.w3.org/2000/svg" xmlns:xlink="http://www.w3.org/1999/xlink">
    <!-- Generator: Sketch 52.5 (67469) - http://www.bohemiancoding.com/sketch -->
    <title>ui-squiggles</title>
    <desc>Created with Sketch.</desc>
    <g id="Page-1" stroke="none" stroke-width="1" fill="none" fill-rule="evenodd">
        <path d="M29.8448075,94.6653908 C24.0996946,94.6653908 19.4268522,99.3500556 19.4268522,105.107764 C19.4268522,110.865472 24.0996946,115.550137 29.8448075,115.550137 C35.5890522,115.550137 40.2618946,110.865472 40.2618946,105.107764 C40.2618946,99.3500556 35.5890522,94.6653908 29.8448075,94.6653908 M29.6597934,123.215872 C19.6056287,123.215872 11.4268522,115.017926 11.4268522,104.941066 C11.4268522,94.864207 19.6056287,86.6653908 29.6597934,86.6653908 C39.7130899,86.6653908 47.8918664,94.864207 47.8918664,104.941066 C47.8918664,115.017926 39.7130899,123.215872 29.6597934,123.215872" id="l-squig-4" fill="#000000"></path>
        <path d="M51.5762993,253.657108 C50.7463773,255.649309 48.4392832,256.585652 46.4231549,255.749128 C44.4081396,254.912069 43.4565384,252.610354 44.2766915,250.627644 C47.6448348,242.542392 47.491532,233.666047 43.8291961,224.960528 C42.7366378,222.364209 41.3484985,219.709267 39.8795374,216.897952 C34.7659621,207.115206 28.9700916,196.028783 36.4537963,186.186539 C39.2214698,182.547786 43.4535765,179.788807 47.5475219,177.120898 C49.4468734,175.882561 51.2417693,174.712927 52.8597968,173.485147 C62.6080624,166.093713 65.6991362,156.318208 61.3419667,146.663697 C59.9305209,143.534302 57.7855298,140.388296 55.5138567,137.057272 C52.8791851,133.194511 50.1543823,129.199718 48.4682059,124.966663 C43.1164372,111.541259 49.7037222,97.4541829 65.2501153,89.0806795 C67.1600511,88.0516553 69.5608985,88.7580539 70.6118813,90.6578614 C71.6631467,92.5568482 70.9680706,94.9315279 69.0578523,95.9613729 C56.8486927,102.537589 51.8969401,112.322471 55.8081796,122.13653 C57.1744229,125.567127 59.5400785,129.035182 62.0450471,132.708213 C64.4071165,136.173197 66.849707,139.754969 68.5455937,143.512085 C74.4309639,156.558388 70.3721626,170.0911 57.6860871,179.711167 C55.8450868,181.106403 53.8488051,182.407771 51.9182564,183.666584 C48.380825,185.972464 44.7227918,188.356178 42.7696999,190.923876 C38.5661741,196.448107 41.5203784,203.078059 46.8838566,213.337992 C48.362958,216.168407 49.8927607,219.094324 51.1126383,221.992487 C55.2500856,231.82659 55.7105363,241.898556 52.4802531,251.27998 C52.2055278,252.07784 51.9047634,252.870407 51.5762993,253.657108 Z" id="l-squig-3" fill="#000000" transform="translate(52.034891, 172.331587) rotate(-404.000000) translate(-52.034891, -172.331587) "></path>
        <path d="M37.1443884,215 C35.9507523,215 34.7663193,214.483951 33.9472475,213.486072 C32.4913244,211.713195 32.7416474,209.09041 34.5058728,207.627347 C47.5097879,196.844887 62.3681182,196.048618 71.1993686,196.818992 C63.5028547,178.058123 58.6868967,165.97352 54.0126657,154.244971 C48.7890123,141.137518 43.3877401,127.583377 33.9803785,104.755156 C33.1051681,102.631773 34.1092212,100.196726 36.2231627,99.3172232 C38.3371041,98.4386455 40.7602682,99.4476226 41.6345583,101.571006 C51.0594057,124.443618 56.469881,138.019954 61.7027374,151.149603 C66.9162674,164.232086 72.3074163,177.760332 81.6844078,200.522891 C82.2918094,201.995202 82.0083553,203.686695 80.9555259,204.878786 C79.9036169,206.069027 78.2673139,206.552707 76.7386867,206.121742 C76.5445023,206.068103 55.9968441,200.598726 39.7773821,214.048362 C39.0061661,214.687411 38.0729765,215 37.1443884,215" id="l-squig-2" fill="#000000"></path>
        <path d="M122.185288,215.135107 C122.701342,215.278726 123.195348,215.530677 123.630489,215.893231 C125.27331,217.26438 125.465589,219.701127 124.059263,221.336163 C110.729849,236.835514 89.7324558,245.943212 69.2613765,245.106417 C48.7894622,244.269389 28.8320298,233.488153 17.1763401,216.966183 C15.9468301,215.223577 16.3920058,212.813103 18.1708496,211.581321 C19.9492054,210.351192 22.3876838,210.766017 23.6180289,212.508857 C33.9219462,227.114686 51.5670135,236.646963 69.6648392,237.386665 C87.7632558,238.127427 106.325671,230.074272 118.1106,216.371824 C119.144226,215.169628 120.752364,214.73632 122.185288,215.135107" id="l-squig-1" fill="#000000" transform="translate(70.740794, 228.016673) scale(-1, 1) translate(-70.740794, -228.016673) "></path>
        <path d="M228.668071,200.124767 C229.183855,200.272665 229.678114,200.530276 230.114108,200.899737 C231.760158,202.296994 231.962993,204.767891 230.566465,206.418947 C217.329916,222.070167 196.410356,231.207987 175.971709,230.267831 C155.532227,229.327436 135.561849,218.3093 123.852872,201.509292 C122.617741,199.737359 123.051351,197.295956 124.821543,196.055336 C126.591255,194.816389 129.02728,195.247832 130.263245,197.020004 C140.614269,211.871627 158.270783,221.613357 176.339936,222.444437 C194.409684,223.276592 212.903285,215.196786 224.606113,201.36008 C225.632537,200.146103 227.235895,199.714097 228.668071,200.124767" id="r-squig-4" fill="#000000"></path>
        <path d="M142.557533,230.758695 C142.020087,230.95067 141.433698,231.035176 140.826994,230.986493 C138.539616,230.806459 136.832163,228.815062 137.013158,226.538918 C138.735387,204.963312 151.132661,184.224497 169.367044,172.415735 C187.603273,160.606056 211.683998,157.718163 232.217763,164.881863 C234.383246,165.636904 235.524627,167.995717 234.76463,170.150614 C234.004633,172.304592 231.633221,173.43899 229.466815,172.683031 C211.314619,166.35061 190.022704,168.904154 173.902091,179.343371 C157.781479,189.784424 146.822011,208.119418 145.299247,227.192919 C145.165347,228.865582 144.0489,230.22686 142.557533,230.758695" id="r-squig-3" fill="#000000"></path>
        <path d="M212.348222,88.0740769 C210.916502,88.0740769 209.73657,88.4987687 209.197396,88.7320012 C206.746368,89.7919904 203.991458,92.5002714 204.29013,96.646239 C204.822359,104.003504 212.598274,107.703023 219.662236,108.593309 C221.229401,102.137644 220.994109,94.2991201 217.404825,90.376812 C215.75865,88.5770931 213.904968,88.0740769 212.348222,88.0740769 M151.171148,186.344538 C149.228037,186.344538 147.544529,184.892927 147.29795,182.910452 C147.03227,180.763495 148.55255,178.807127 150.694487,178.539954 C163.436708,176.952582 182.237475,169.771982 199.436348,144.581138 L200.233388,143.412365 C206.228553,134.63743 212.399969,125.604895 216.55708,115.933582 C206.87452,114.228722 196.870713,108.369192 196.051967,97.0408842 C195.561414,90.2545166 199.33216,84.1034464 205.658122,81.3681869 C211.674993,78.7660788 218.37256,80.1585112 222.720682,84.9110572 C225.782948,88.2589869 229.664828,96.5448302 227.319725,108.20123 C231.104362,107.734765 234.928939,107.206511 238.656273,106.691311 C251.557381,104.907257 264.896948,103.064025 278.23912,103.493938 C280.395816,103.56356 282.088007,105.372852 282.018548,107.535473 C281.949089,109.697225 280.126663,111.384679 277.987332,111.32289 C265.306755,110.913863 252.302327,112.711841 239.724202,114.450641 C234.836906,115.125971 229.783776,115.824798 224.820943,116.384382 C220.380788,127.786663 213.425355,137.968825 206.681772,147.83856 L205.8856,149.004722 C190.970186,170.850246 172.218908,183.752873 151.658228,186.314079 C151.494132,186.334095 151.331772,186.344538 151.171148,186.344538" id="r-squig-2" fill="#000000" transform="translate(214.644212, 133.209308) rotate(-404.000000) translate(-214.644212, -133.209308) "></path>
        <path d="M218.526089,109.665391 C212.780976,109.665391 208.108134,114.350056 208.108134,120.107764 C208.108134,125.865472 212.780976,130.550137 218.526089,130.550137 C224.270334,130.550137 228.943176,125.865472 228.943176,120.107764 C228.943176,114.350056 224.270334,109.665391 218.526089,109.665391 M218.341075,138.215872 C208.28691,138.215872 200.108134,130.017926 200.108134,119.941066 C200.108134,109.864207 208.28691,101.665391 218.341075,101.665391 C228.394371,101.665391 236.573148,109.864207 236.573148,119.941066 C236.573148,130.017926 228.394371,138.215872 218.341075,138.215872" id="r-squig-1" fill="#000000" transform="translate(218.340641, 119.940631) scale(-1, 1) translate(-218.340641, -119.940631) "></path>
        <path d="M56.2053995,48 C55.3615661,48 54.5142601,47.9736562 53.6634815,47.9192123 C51.5096228,47.7831027 49.8731763,45.906546 50.0077382,43.7279136 C50.1431683,41.5501594 52.0096722,39.9010375 54.151377,40.0310002 C62.8926925,40.5833419 71.2355311,37.5485361 78.2744214,31.2514896 C80.3735872,29.3731766 82.4319504,27.1963005 84.6118534,24.892096 C92.1968046,16.8721649 100.792272,7.78267551 112.534753,11.6543361 C116.876328,13.0865608 120.862833,16.1898605 124.718249,19.1921757 C126.507488,20.5848846 128.197759,21.9011965 129.885426,23.0313456 C140.047889,29.8420962 150.297166,29.5821707 158.00713,22.3191848 C160.506509,19.9658053 162.782775,16.9134369 165.192736,13.6810525 C167.987283,9.93232966 170.877326,6.05540031 174.330792,3.08294145 C185.282395,-6.34813925 200.746598,-4.70604234 213.725311,7.26721515 C215.320087,8.73807736 215.433814,11.2381041 213.979677,12.8503447 C212.526408,14.4625853 210.05481,14.578498 208.459166,13.1076358 C198.266318,3.70465515 187.402397,2.20832726 179.396397,9.10162181 C176.597509,11.5103233 174.088581,14.876183 171.4312,18.4404992 C168.924007,21.8019682 166.332605,25.2775937 163.332309,28.1042835 C152.912876,37.9164712 138.796029,38.4846191 125.569895,29.6216864 C123.651303,28.3352308 121.770909,26.8713936 119.952153,25.4558534 C116.620226,22.8618671 113.175441,20.1791901 110.11177,19.1684662 C103.519973,16.9924683 98.2130243,21.9442247 90.2582449,30.3558003 C88.0635835,32.6758111 85.7951301,35.0748532 83.4520165,37.1718197 C75.5007097,44.2855241 66.1273873,48 56.2053995,48" id="t-squig-4" fill="#000000" transform="translate(132.500000, 22.500000) rotate(23.000000) translate(-132.500000, -22.500000) "></path>
        <path d="M94.9531301,25.6147289 C89.2080172,25.6147289 84.5351748,30.2993938 84.5351748,36.0571019 C84.5351748,41.81481 89.2080172,46.4994749 94.9531301,46.4994749 C100.697375,46.4994749 105.370217,41.81481 105.370217,36.0571019 C105.370217,30.2993938 100.697375,25.6147289 94.9531301,25.6147289 M94.768116,54.16521 C84.7139513,54.16521 76.5351748,45.9672641 76.5351748,35.8904046 C76.5351748,25.8135451 84.7139513,17.6147289 94.768116,17.6147289 C104.821412,17.6147289 113.000189,25.8135451 113.000189,35.8904046 C113.000189,45.9672641 104.821412,54.16521 94.768116,54.16521" id="t-squig-3" fill="#000000" transform="translate(94.767682, 35.889969) rotate(-404.000000) translate(-94.767682, -35.889969) "></path>
        <path d="M167.710711,32.9982289 C160.199634,32.0583996 151.932558,28.1530094 151.367634,20.3854077 C151.04825,16.0087248 153.978096,13.1497329 156.583019,12.031676 C157.157173,11.7854646 158.412558,11.3371394 159.933788,11.3371394 C161.588865,11.3371394 163.560558,11.8681476 165.309788,13.7670988 C169.125788,17.9085947 169.376865,26.1833183 167.710711,32.9982289 M230.458711,27.7956354 C216.272865,27.3408793 202.091634,29.2876028 188.375634,31.1700175 C184.412865,31.7138874 180.346711,32.2724565 176.323019,32.7648793 C178.81625,20.4598224 174.690096,11.7128874 171.433481,8.17865163 C166.810711,3.16071667 159.691019,1.69171667 153.293173,4.43862724 C146.568558,7.32518008 142.559634,13.8194646 143.08025,20.9834809 C143.950711,32.9412695 154.586404,39.1268711 164.880558,40.9266028 C160.460865,51.1370256 153.900558,60.6722045 147.526711,69.9354484 L146.678404,71.1683427 C128.393173,97.7619281 108.405788,105.342115 94.8577883,107.017822 C92.5805576,107.299863 90.9642499,109.365099 91.2476345,111.63153 C91.5088652,113.724326 93.2996345,115.256717 95.3645576,115.256717 C95.5362499,115.256717 95.7088652,115.245692 95.8833268,115.224562 C117.741788,112.519912 137.678404,98.9001963 153.535942,75.8380907 L154.382404,74.6079524 C161.550096,64.188985 168.946711,53.4392858 173.665481,41.402489 C178.942711,40.8126841 184.315019,40.0749687 189.511019,39.3620581 C202.883634,37.5255785 216.709481,35.6284646 230.191942,36.0602533 C232.465481,36.1254809 234.403019,34.3432045 234.476865,32.0611557 C234.550711,29.7791069 232.751634,27.8691313 230.458711,27.7956354" id="t-squig-2" fill="#000000" transform="translate(162.847228, 59.164507) rotate(63.000000) translate(-162.847228, -59.164507) "></path>
        <path d="M39.2053995,63 C38.3615661,63 37.5142601,62.9736562 36.6634815,62.9192123 C34.5096228,62.7831027 32.8731763,60.906546 33.0077382,58.7279136 C33.1431683,56.5501594 35.0096722,54.9010375 37.151377,55.0310002 C45.8926925,55.5833419 54.2355311,52.5485361 61.2744214,46.2514896 C63.3735872,44.3731766 65.4319504,42.1963005 67.6118534,39.892096 C75.1968046,31.8721649 83.7922724,22.7826755 95.5347526,26.6543361 C99.8763276,28.0865608 103.862833,31.1898605 107.718249,34.1921757 C109.507488,35.5848846 111.197759,36.9011965 112.885426,38.0313456 C123.047889,44.8420962 133.297166,44.5821707 141.00713,37.3191848 C143.506509,34.9658053 145.782775,31.9134369 148.192736,28.6810525 C150.987283,24.9323297 153.877326,21.0554003 157.330792,18.0829414 C168.282395,8.65186075 183.746598,10.2939577 196.725311,22.2672151 C198.320087,23.7380774 198.433814,26.2381041 196.979677,27.8503447 C195.526408,29.4625853 193.05481,29.578498 191.459166,28.1076358 C181.266318,18.7046551 170.402397,17.2083273 162.396397,24.1016218 C159.597509,26.5103233 157.088581,29.876183 154.4312,33.4404992 C151.924007,36.8019682 149.332605,40.2775937 146.332309,43.1042835 C135.912876,52.9164712 121.796029,53.4846191 108.569895,44.6216864 C106.651303,43.3352308 104.770909,41.8713936 102.952153,40.4558534 C99.6202259,37.8618671 96.1754409,35.1791901 93.11177,34.1684662 C86.5199726,31.9924683 81.2130243,36.9442247 73.2582449,45.3558003 C71.0635835,47.6758111 68.7951301,50.0748532 66.4520165,52.1718197 C58.5007097,59.2855241 49.1273873,63 39.2053995,63" id="t-squig-1" fill="#000000" transform="translate(115.500000, 37.500000) scale(-1, 1) rotate(23.000000) translate(-115.500000, -37.500000) "></path>
    </g>
</svg>