<?xml version="1.0" encoding="UTF-8"?>
<svg width="146px" height="152px" viewBox="0 0 146 152" version="1.1" xmlns="http://www.w3.org/2000/svg" xmlns:xlink="http://www.w3.org/1999/xlink">
    <!-- Generator: Sketch 52.5 (67469) - http://www.bohemiancoding.com/sketch -->
    <title>icon-open-hand</title>
    <desc>Created with Sketch.</desc>
    <g id="Page-1" stroke="none" stroke-width="1" fill="none" fill-rule="evenodd">
        <g id="row-1" transform="translate(-146.000000, 0.000000)">
            <g id="icon-open-hand" transform="translate(166.000000, 27.000000)">
                <path d="M4,48.080722 C4,21.844032 26.0022451,0 54.2651291,0 C80.6378202,0 102,21.8639083 102,48.080722 C102,76.155968 80.6378202,98 54.2651291,98 C25.9722421,98 4,76.1360917 4,48.080722" id="Path" fill="#0073E3"></path>
                <path d="M17.26,93.2 C16.9507057,93.2030969 16.6452864,93.1310317 16.37,92.99 C15.3856101,92.4944615 14.9876017,91.2959644 15.48,90.31 L22.15,76.97 C24.6584416,72.3784492 29.6750269,69.7381411 34.88,70.27 L39.3,70.88 C43.2418343,71.3476872 47.2113542,71.5414853 51.18,71.46 L67.1,70.88 C70.3443477,70.5544127 73.4470693,69.3857208 76.1,67.49 L105.54,43.49 C105.968468,43.1519978 106.122986,42.5720858 105.919507,42.0657004 C105.716028,41.5593149 105.203212,41.2475555 104.66,41.3 C103.555431,41.3938884 102.583888,40.5745695 102.49,39.47 C102.396112,38.3654305 103.215431,37.3938884 104.32,37.3 C106.671456,37.0160656 108.920195,38.3478591 109.801464,40.5463429 C110.682732,42.7448266 109.976512,45.2611242 108.08,46.68 L78.63,70.68 C75.3036309,73.129808 71.3657935,74.6142827 67.25,74.97 L51.33,75.55 C47.130717,75.6333784 42.9306952,75.4262175 38.76,74.93 L34.34,74.33 C30.8339058,74.040277 27.477072,75.806416 25.73,78.86 L19.05,92.19 C18.6851875,92.8309456 17.9972477,93.2191128 17.26,93.2 Z" id="Path" fill="#000000"></path>
                <path d="M93.69,46.11 C92.7720195,46.1247922 91.9618666,45.5126849 91.7253066,44.6255849 C91.4887466,43.7384849 91.8865436,42.8042577 92.69,42.36 L99.74,38.51 C101.186238,37.879678 102.727286,37.494416 104.3,37.37 C105.014531,37.3092648 105.707187,37.6343411 106.117051,38.2227757 C106.526915,38.8112102 106.591718,39.573606 106.287051,40.2227757 C105.982383,40.8719454 105.354531,41.3092649 104.64,41.37 C103.537868,41.4533316 102.456859,41.7168276 101.44,42.15 L101.33,42.21 L94.61,45.89 C94.3264799,46.0389116 94.0102151,46.1145402 93.69,46.11 Z" id="Path" fill="#000000"></path>
                <path d="M70.35,60.44 C69.4661534,60.4168112 68.7024106,59.8160328 68.4717277,58.962506 C68.2410447,58.1089792 68.5981677,57.2052642 69.35,56.74 L92.69,42.41 C93.6301986,41.8534974 94.8429977,42.1544717 95.4139236,43.0859823 C95.9848495,44.017493 95.7026015,45.2347864 94.78,45.82 L71.39,60.15 C71.0764741,60.3401801 70.716697,60.4405025 70.35,60.44 Z" id="Path" fill="#000000"></path>
                <path d="M2.17,67.27 C1.81964724,67.2724197 1.47480582,67.1827609 1.17,67.01 C0.206772939,66.4711198 -0.137832417,65.2538125 0.4,64.29 L10.25,46.6 C10.61,45.95 11.35,45.03 15.45,42.43 C27.444547,34.9046803 40.9208532,30.054438 54.96,28.21 L60.2,27.51 C62.1920917,26.983872 64.3136325,27.3204559 66.045062,28.437323 C67.7764914,29.5541901 68.9579133,31.3481986 69.3,33.38 C69.8781456,37.1059114 67.5738527,40.6741261 63.94,41.68 L50.23,45.62 C48.81,46.03 47.96,46.62 47.88,47.38 C47.8,48.14 48.48,48.86 49.74,49.56 C49.8467216,49.6080109 49.9474155,49.6684273 50.04,49.74 L53.71,52.12 C54.468513,52.7677245 54.6338266,53.8753176 54.0975105,54.7163016 C53.5611944,55.5572856 52.4872139,55.8745504 51.58,55.46 L47.91,53.08 C43.91,50.9 43.82,48.08 43.91,46.91 C44,45.74 44.81,43.01 49.13,41.77 L62.85,37.77 C64.5205421,37.3241377 65.607959,35.7164665 65.4,34 C65.2433796,33.062647 64.6937252,32.2368725 63.889446,31.730616 C63.0851668,31.2243595 62.102903,31.0858625 61.19,31.35 L60.9,31.41 L55.53,32.12 C42.0414384,33.8959337 29.0959705,38.5658535 17.58,45.81 C14.31,47.88 13.74,48.56 13.68,48.63 L3.88,66.24 C3.53434029,66.8635902 2.88284617,67.2560106 2.17,67.27 Z" id="Path" fill="#000000"></path>
                <path d="M73.63,46.54 C72.7120195,46.5547922 71.9018666,45.9426849 71.6653066,45.0555849 C71.4287466,44.1684849 71.8265436,43.2342577 72.63,42.79 C78.04,39.79 88,34.79 94.31,34.79 C95.39,34.65 98.31,34.79 102.19,39.07 C102.932823,39.8984271 102.863427,41.172177 102.035,41.915 C101.206573,42.657823 99.932823,42.5884271 99.19,41.76 C96.76,39.09 95.19,38.76 94.85,38.76 L94.51,38.91 L94.38,38.79 C90.58,38.68 83.18,41.52 74.58,46.29 C74.2890415,46.4510157 73.962526,46.5369408 73.63,46.54 Z" id="Path" fill="#000000"></path>
                <path d="M87.76,38.4 C87.1971843,38.401227 86.6599001,38.1652576 86.28,37.75 C83.85,35.08 82.28,34.75 81.94,34.75 L81.6,34.9 L81.47,34.78 C79.9228071,34.8114769 78.3877472,35.0605875 76.91,35.52 C76.2050495,35.7760476 75.4160968,35.6161646 74.8664474,35.1058693 C74.3167981,34.5955741 74.0988506,33.8206497 74.3019178,33.0986529 C74.5049851,32.3766562 75.0949305,31.828958 75.83,31.68 C77.6247478,31.1352429 79.4849595,30.8358598 81.36,30.79 C82.44,30.65 85.36,30.79 89.24,35.07 C89.7689493,35.6560722 89.903641,36.4984644 89.5838078,37.2202502 C89.2639746,37.942036 88.5494711,38.408138 87.76,38.41 L87.76,38.4 Z" id="Path" fill="#000000"></path>
            </g>
        </g>
    </g>
</svg>