<?xml version="1.0" encoding="UTF-8"?>
<svg width="146px" height="152px" viewBox="0 0 146 152" version="1.1" xmlns="http://www.w3.org/2000/svg" xmlns:xlink="http://www.w3.org/1999/xlink">
    <!-- Generator: Sketch 52.5 (67469) - http://www.bohemiancoding.com/sketch -->
    <title>icon-reply</title>
    <desc>Created with Sketch.</desc>
    <g id="Page-1" stroke="none" stroke-width="1" fill="none" fill-rule="evenodd">
        <g id="row-1" transform="translate(-438.000000, 0.000000)">
            <g id="icon-reply" transform="translate(462.000000, 27.000000)">
                <path d="M0,48.080722 C0,21.844032 22,0 50.26,0 C76.63,0 98,21.8639083 98,48.080722 C98,76.155968 76.63,98 50.26,98 C21.98,98 0,76.1360917 0,48.080722" id="Path" fill="#0073E3"></path>
                <path d="M92.41,81.75 C91.3807967,81.7467566 90.3910388,81.353712 89.64,80.65 L77.89,69.41 L71.89,69.02 C70.6662725,68.9201395 69.7485422,67.8576758 69.8276781,66.6324336 C69.906814,65.4071913 70.953594,64.4716113 72.18,64.53 L79.84,65.02 L91.96,76.62 L91.96,64.96 L97.88,64.96 C101.449376,64.9544832 104.340004,62.0593807 104.34,58.49 L104.34,32.75 C104.340004,29.1806193 101.449376,26.2855168 97.88,26.28 L55.68,26.28 C53.9640493,26.28 52.3183795,26.9616588 51.1050191,28.1750191 C49.8916588,29.3883795 49.21,31.0340493 49.21,32.75 L49.21,35.53 C49.21,36.7726407 48.2026407,37.78 46.96,37.78 C45.7173593,37.78 44.71,36.7726407 44.71,35.53 L44.71,32.75 C44.71,26.6748678 49.6348678,21.75 55.71,21.75 L97.91,21.75 C103.985132,21.75 108.91,26.6748678 108.91,32.75 L108.91,58.49 C108.91,64.5651322 103.985132,69.49 97.91,69.49 L96.49,69.49 L96.49,77.78 C96.4910154,79.3911698 95.525289,80.8456719 94.04,81.47 C93.5221054,81.6758663 92.9669064,81.771238 92.41,81.75 Z" id="Path" fill="#000000"></path>
                <path d="M56.87,69.44 C51.87,69.44 47.87,66.35 45.87,60.57 C45.0939864,58.3186514 44.7084365,55.9512397 44.73,53.57 L44.73,50.2 C38.38,50.12 30.58,50.03 25.97,50.03 C24.7273593,50.03 23.72,49.0226407 23.72,47.78 C23.72,46.5373593 24.7273593,45.53 25.97,45.53 C30.59,45.53 38.38,45.62 44.73,45.7 L44.73,35.54 C44.7273419,34.9432611 44.9618494,34.3699078 45.3819321,33.9460743 C45.8020149,33.5222408 46.3732611,33.2826463 46.97,33.28 C47.5658157,33.2773401 48.1381408,33.5121646 48.5603876,33.9325348 C48.9826344,34.3529049 49.2200059,34.9241784 49.22,35.52 L49.22,45.76 L54.46,45.76 C63.01,45.76 67.62,51.24 68.39,56.66 C69.19,62.3 66.15,67.28 61.01,68.77 C59.6690511,69.1897836 58.2749048,69.4154064 56.87,69.44 Z M49.2,50.26 L49.2,53.54 C49.1784001,55.4133062 49.4759876,57.2766101 50.08,59.05 C52.74,66.52 58.01,65 59.74,64.5 C63.16,63.5 64.3,60.09 63.91,57.34 C63.43,53.94 60.69,50.34 54.44,50.34 L49.2,50.26 Z" id="Shape" fill="#000000" fill-rule="nonzero"></path>
                <path d="M34.93,60.73 C34.0779498,60.7245714 33.3027622,60.2362032 32.93,59.47 C32.03,58.21 26.25,51.47 20.87,50.47 C19.9145358,50.3073908 19.1720263,49.5487399 19.03,48.59 C18.8882991,47.6336174 19.370654,46.6930252 20.23,46.25 C23.83,44.42 30,40.43 31.23,37.55 C31.7270563,36.409532 33.054532,35.8879437 34.195,36.385 C35.335468,36.8820563 35.8570563,38.209532 35.36,39.35 C33.94,42.61 29.7,45.79 26.41,47.87 C31.97,50.95 37.34,56.75 37.18,58.66 C37.076763,59.8273447 36.1018867,60.724231 34.93,60.73 Z" id="Path" fill="#000000"></path>
            </g>
        </g>
    </g>
</svg>