<?xml version="1.0" encoding="UTF-8"?>
<svg width="146px" height="152px" viewBox="0 0 146 152" version="1.1" xmlns="http://www.w3.org/2000/svg" xmlns:xlink="http://www.w3.org/1999/xlink">
    <!-- Generator: Sketch 52.5 (67469) - http://www.bohemiancoding.com/sketch -->
    <title>icon-paintbrush</title>
    <desc>Created with Sketch.</desc>
    <g id="Page-1" stroke="none" stroke-width="1" fill="none" fill-rule="evenodd">
        <g id="row-3" transform="translate(-146.000000, 0.000000)">
            <g id="icon-paintbrush" transform="translate(169.000000, 0.000000)">
                <path d="M1,75.0857838 C1,48.8418171 23,27 51.26,27 C77.63,27 99,48.8616913 99,75.0857838 C99,103.158183 77.63,125 51.26,125 C22.98,125 1,103.138309 1,75.0857838" id="Path" fill="#0073E3"></path>
                <path d="M74.85,48.33 C74.85,47.82 74.85,47.33 74.76,46.79 C76.8853098,48.4595484 78.6997301,50.490616 80.12,52.79 C80.5146735,53.401122 81.1377072,53.8286749 81.8498871,53.977124 C82.5620669,54.1255731 83.3040343,53.9825455 83.91,53.58 C85.1716134,52.7292243 85.5147917,51.0222462 84.68,49.75 C81.47,44.85 77.87,41.6 73.93,40.05 C73.93,39.86 73.88,39.66 73.85,39.47 C72.44,30.21 71.93,24.3 78.85,19.72 C81.5626107,17.9515024 84.6387449,16.8167507 87.85,16.4 C90.98,15.84 93.51,15.15 95.24,12.9 C95.84,17.77 95.87,24.02 93.81,29.03 C92.19,32.97 89.58,35.3 85.81,36.18 C84.3271155,36.5196551 83.4003449,37.9971155 83.74,39.48 C84.0796552,40.9628845 85.5571155,41.8896551 87.04,41.55 C97.58,39.09 102.65,28.02 100.6,11.92 C99.12,0.39 96.37,0.47 95.19,0.51 C94.73,0.51 92.42,0.75 92.19,4.05 C91.77,10.05 90.83,10.26 86.86,10.98 C82.9149782,11.5162453 79.1396486,12.9272961 75.81,15.11 C66.14,21.53 67,30.69 68.24,39 C63.19,39.06 58.05,41.64 52.94,46.7 C42.76,56.76 28.66,74.7 17.03,92.47 C-3.25,123.39 -0.05,128.06 1.03,129.6 C1.79605532,130.716231 3.05631807,131.391105 4.41,131.41 L4.73,131.41 C6.96,131.41 12.4,130.27 35.21,104.67 C46.9,91.55 59.86,75.67 66.95,66.46 C70.58,61.68 75.13,55.79 74.85,48.33 Z M62.58,63.07 C55.64,72.07 42.94,87.66 31.42,100.6 C14.71,119.4 8.01,124.23 5.62,125.47 C7.17,115.8 35.06,72.08 56.74,50.64 C60.85,46.57 64.74,44.52 68.4,44.52 L69.02,44.52 C69.18,45.86 69.31,47.2 69.36,48.52 C69.58,53.6 66.58,57.93 62.58,63.07 Z" id="Shape" fill="#231F20" fill-rule="nonzero"></path>
                <path d="M101.35,71.57 C99.9283452,68.1893672 97.9472865,65.0724113 95.49,62.35 C94.4503725,61.2037799 92.6986338,61.0636408 91.49,62.03 C90.9118321,62.4893848 90.5479395,63.1662511 90.4836412,63.9018992 C90.4193429,64.6375474 90.6602938,65.3672792 91.15,65.92 C97.22,72.84 98.3,79.36 96.67,82.74 C96.3614724,83.6429892 95.5585683,84.2860919 94.61,84.39 C93.8320649,84.480188 93.0611336,84.1718155 92.56,83.57 C91.45,82.16 91.33,78.89 92.28,75.62 C92.4768052,74.903476 92.375275,74.1378055 91.9985284,73.4973363 C91.6217818,72.856867 91.0018877,72.3961163 90.28,72.22 C88.7774682,71.7977908 87.2120485,72.6492372 86.75,74.14 C85.27,79.27 85.75,84.05 87.99,86.91 C89.5948553,88.8991396 92.0462002,90.0117016 94.6,89.91 C97.4070846,89.8742551 99.9843393,88.3515049 101.37,85.91 C101.54,85.63 101.71,85.35 101.86,85.04 C103.3,82.03 103.64,77.2 101.35,71.57 Z" id="Path" fill="#231F20"></path>
            </g>
        </g>
    </g>
</svg>