<?xml version="1.0" encoding="UTF-8"?>
<svg width="146px" height="152px" viewBox="0 0 146 152" version="1.1" xmlns="http://www.w3.org/2000/svg" xmlns:xlink="http://www.w3.org/1999/xlink">
    <!-- Generator: Sketch 52.5 (67469) - http://www.bohemiancoding.com/sketch -->
    <title>icon-lightning-bolt</title>
    <desc>Created with Sketch.</desc>
    <g id="Page-1" stroke="none" stroke-width="1" fill="none" fill-rule="evenodd">
        <g id="row-2" transform="translate(-292.000000, 0.000000)">
            <g id="icon-lightning-bolt" transform="translate(316.000000, 26.000000)">
                <path d="M0,49.080722 C0,22.844032 22,1 50.26,1 C76.63,1 98,22.8639083 98,49.080722 C98,77.155968 76.63,99 50.26,99 C21.97,99 0,77.1360917 0,49.080722" id="Path" fill="#0073E3"></path>
                <path d="M92.26,34.68 C91.1162148,32.134848 88.5700906,30.5120868 85.78,30.55 L71.68,30.55 L83.58,9.68 C84.6877436,7.8028588 84.7059194,5.47636473 83.6276396,3.58214518 C82.5493598,1.68792564 80.5396149,0.515820404 78.36,0.51 C76.9700486,0.511643 75.622339,0.987927831 74.54,1.86 L74.42,1.97 L37.46,36.68 C34.5559153,39.1817016 33.5165677,43.2270491 34.8551017,46.818782 C36.1936357,50.4105149 39.6269677,52.7890253 43.46,52.78 L56.88,52.78 L44.33,76.91 C42.9407466,79.5769039 43.7402184,82.860296 46.2,84.59 C47.2400917,85.3489691 48.4924609,85.7617612 49.78,85.77 C51.3772057,85.7567452 52.9045925,85.1134458 54.03,83.98 L54.1,83.9 L80.58,55.26 C80.990109,54.8188761 81.2062326,54.2317405 81.18,53.63 C81.1490848,52.7088524 80.5642713,51.8978334 79.7000328,51.5775826 C78.8357944,51.2573318 77.8637049,51.4914273 77.24,52.17 L50.8,80.77 C50.2735351,81.2719974 49.4565994,81.3062146 48.89,80.85 C48.256451,80.4506053 48.0420041,79.6278293 48.4,78.97 L62.58,51.52 C62.9448047,50.8169589 62.9186052,49.9749633 62.5107971,49.2959627 C62.1029889,48.6169622 61.3720108,48.1982571 60.58,48.19 L43.44,48.19 C40.9746204,48.2191685 38.9325588,46.2834182 38.83,43.82 C38.7354755,42.3850674 39.3386323,40.9925943 40.45,40.08 L40.52,40.01 L77.45,5.33 L77.57,5.27 C77.7990724,5.13114285 78.0621324,5.05845522 78.33,5.06 C78.8763655,5.06165458 79.3798081,5.35641831 79.6486525,5.832066 C79.9174968,6.30771369 79.9103756,6.89105698 79.63,7.36 L65.79,31.74 C65.3945424,32.444997 65.3945424,33.305003 65.79,34.01 C66.204354,34.719525 66.9684229,35.1512239 67.79,35.14 L85.79,35.14 C86.8021414,35.1172854 87.7288428,35.7048536 88.14,36.63 C88.5723103,37.5551677 88.4109862,38.6490235 87.73,39.41 C87.333318,39.868237 87.1354103,40.4655585 87.18,41.07 C87.2425819,41.9930483 87.8590818,42.7857613 88.7382991,43.0737049 C89.6175165,43.3616486 90.5835109,43.0872026 91.18,42.38 C93.0306477,40.26953 93.4619692,37.2659633 92.28,34.72 L92.26,34.68 Z" id="Path" fill="#231F20"></path>
            </g>
        </g>
    </g>
</svg>