<?xml version="1.0" encoding="UTF-8"?>
<svg width="170px" height="16px" viewBox="0 0 170 16" version="1.1" xmlns="http://www.w3.org/2000/svg" xmlns:xlink="http://www.w3.org/1999/xlink">
    <!-- Generator: Sketch 52.5 (67469) - http://www.bohemiancoding.com/sketch -->
    <title>Slice</title>
    <desc>Created with Sketch.</desc>
    <g id="Page-1" stroke="none" stroke-width="1" fill="none" fill-rule="evenodd">
        <g id="LINE" transform="translate(85.096639, 6.399147) scale(-1, -1) rotate(-177.728149) translate(-85.096639, -6.399147) translate(0.096639, 0.399147)" fill="#F34F3F" fill-rule="nonzero">
            <path d="M3.18981077,10.297276 C1.81703776,10.4451257 0.584329467,9.45212921 0.436479729,8.0793562 C0.288629992,6.70658319 1.2816265,5.4738749 2.65439951,5.32602516 C57.9608276,-0.630561117 106.117487,-0.291911157 145.382723,3.86070508 C151.6268,4.52106671 157.08276,5.22916779 161.717672,5.93807932 C163.344674,6.18692983 164.754052,6.41838417 165.94169,6.62657721 C166.359817,6.69987492 166.720964,6.76515768 167.024617,6.82169242 C167.210116,6.85622905 167.33709,6.88055132 167.405026,6.89392619 C168.759733,7.16063588 169.641729,8.47505386 169.375019,9.82976092 C169.10831,11.184468 167.793892,12.0664641 166.439185,11.7997544 C166.388073,11.7896918 166.277984,11.7686039 166.109432,11.7372226 C165.823,11.683894 165.479136,11.6217354 165.078355,11.5514784 C163.926255,11.3495152 162.552666,11.1239383 160.961712,10.8806013 C156.402465,10.1832628 151.023187,9.48511392 144.856865,8.83297555 C105.932175,4.71637484 58.1292721,4.38021258 3.18981077,10.297276 Z" id="Stroke-3"></path>
        </g>
    </g>
</svg>