<?xml version="1.0" encoding="UTF-8"?>
<svg width="21px" height="21px" viewBox="0 0 21 21" version="1.1" xmlns="http://www.w3.org/2000/svg" xmlns:xlink="http://www.w3.org/1999/xlink">
    <!-- Generator: Sketch 52.5 (67469) - http://www.bohemiancoding.com/sketch -->
    <title>nav-vimeo</title>
    <desc>Created with Sketch.</desc>
    <g id="Page-1" stroke="none" stroke-width="1" fill="none" fill-rule="evenodd">
        <g id="Desktop-HD" fill="#AFAFAF">
            <g id="nav-vimeo">
                <g id="vimeo-icon" transform="translate(1.000000, 3.000000)">
                    <path d="M17.5675742,3.68712188 C17.4892342,5.38449686 16.3010111,7.70920652 14.0028765,10.6605532 C11.6264103,13.7419824 9.61502062,15.2833981 7.97010028,15.2833981 C6.95181427,15.2833981 6.08949064,14.3434434 5.38452295,12.4628316 L3.97459198,7.29167927 C3.45145993,5.41037306 2.88986701,4.47041747 2.28980608,4.47041747 C2.15901808,4.47041747 1.70233303,4.74457121 0.918338458,5.29287911 L0.095876104,4.23542957 C0.950510122,3.48430157 1.79884588,2.72688554 2.64228772,1.96317098 C3.79135606,0.970763669 4.65297955,0.448331927 5.22786274,0.396579674 C6.58604257,0.265795013 7.4217928,1.19316146 7.73510881,3.17798003 C8.0743048,5.31945461 8.309992,6.65175761 8.4400765,7.17348686 C8.83172377,8.94919163 9.26253877,9.83739314 9.7325152,9.83739314 C10.0982869,9.83739314 10.6465944,9.26250764 11.3781376,8.11344161 C12.1096766,6.96437306 12.5013282,6.08946077 12.5530794,5.48870117 C12.6572885,4.49629388 12.2656368,3.99973838 11.3781376,3.99973838 C10.9606126,3.99973838 10.5290996,4.09135508 10.0856991,4.27389233 C10.9473226,1.47920603 12.5929428,0.121726382 15.0218604,0.200054492 C16.8234409,0.252510182 17.6717788,1.41486329 17.5675742,3.68712188 Z" id="path6"></path>
                </g>
            </g>
        </g>
    </g>
</svg>