<?xml version="1.0" encoding="UTF-8"?>
<svg width="463px" height="372px" viewBox="0 0 463 372" version="1.1" xmlns="http://www.w3.org/2000/svg" xmlns:xlink="http://www.w3.org/1999/xlink">
    <!-- Generator: Sketch 52.5 (67469) - http://www.bohemiancoding.com/sketch -->
    <title>Slice</title>
    <desc>Created with Sketch.</desc>
    <defs>
        <polygon id="path-1" points="0.244651794 0.703322441 7.43178202 0.703322441 7.43178202 18.3180869 0.244651794 18.3180869"></polygon>
        <polygon id="path-3" points="0.244651794 0.681994667 7.43178202 0.681994667 7.43178202 18.2967591 0.244651794 18.2967591"></polygon>
        <polygon id="path-5" points="0.244651794 0.192197 7.43178202 0.192197 7.43178202 17.8069615 0.244651794 17.8069615"></polygon>
        <polygon id="path-7" points="0.244651794 0.0144930043 7.43178202 0.0144930043 7.43178202 17.6292575 0.244651794 17.6292575"></polygon>
        <polygon id="path-9" points="0.244651794 0.348243836 7.43178202 0.348243836 7.43178202 17.9630083 0.244651794 17.9630083"></polygon>
        <polygon id="path-11" points="0.244651794 0.525947831 7.43178202 0.525947831 7.43178202 18.1407123 0.244651794 18.1407123"></polygon>
        <polygon id="path-13" points="0.244651794 0.0362325107 7.43178202 0.0362325107 7.43178202 17.650997 0.244651794 17.650997"></polygon>
        <polygon id="path-15" points="0.245063527 0.717815445 7.43178202 0.717815445 7.43178202 17.2036078 0.245063527 17.2036078"></polygon>
        <polygon id="path-17" points="0.244651794 0.504620058 7.43178202 0.504620058 7.43178202 18.1193845 0.244651794 18.1193845"></polygon>
        <polygon id="path-19" points="0.244651794 0.170951573 7.43178202 0.170951573 7.43178202 17.785716 0.244651794 17.785716"></polygon>
        <polygon id="path-21" points="0.244651794 0.660666894 7.43178202 0.660666894 7.43178202 18.2754314 0.244651794 18.2754314"></polygon>
        <polygon id="path-23" points="0.244651794 0.326916062 7.43178202 0.326916062 7.43178202 17.9416805 0.244651794 17.9416805"></polygon>
        <polygon id="path-25" points="0.244651794 0.568603378 7.43178202 0.568603378 7.43178202 18.1833678 0.244651794 18.1833678"></polygon>
        <polygon id="path-27" points="0.244651794 0.0788880574 7.43178202 0.0788880574 7.43178202 17.6936525 0.244651794 17.6936525"></polygon>
        <polygon id="path-29" points="0.244651794 0.23526428 7.43178202 0.23526428 7.43178202 17.8500287 0.244651794 17.8500287"></polygon>
        <polygon id="path-31" points="0.244651794 0.213524773 7.43178202 0.213524773 7.43178202 17.8282892 0.244651794 17.8282892"></polygon>
        <polygon id="path-33" points="0.244651794 0.057560284 7.43178202 0.057560284 7.43178202 17.6723247 0.244651794 17.6723247"></polygon>
        <polygon id="path-35" points="0.244651794 0.547275605 7.43178202 0.547275605 7.43178202 18.1620401 0.244651794 18.1620401"></polygon>
        <polygon id="path-37" points="0.244651794 0.7249796 7.43178202 0.7249796 7.43178202 18.3397441 0.244651794 18.3397441"></polygon>
        <polygon id="path-39" points="0.244651794 0.391228769 7.43178202 0.391228769 7.43178202 18.0059932 0.244651794 18.0059932"></polygon>
        <polygon id="path-41" points="0.244651794 0.369571609 7.43178202 0.369571609 7.43178202 17.9843361 0.244651794 17.9843361"></polygon>
        <polygon id="path-43" points="0.244651794 0.81696077 7.43178202 0.81696077 7.43178202 17.2927892 0.244651794 17.2927892"></polygon>
        <polygon id="path-45" points="0 0.593060323 7.09391386 0.593060323 7.09391386 17.9607849 0 17.9607849"></polygon>
    </defs>
    <g id="Page-1" stroke="none" stroke-width="1" fill="none" fill-rule="evenodd" opacity="0.7">
        <g id="Group-452" transform="translate(276.091287, 141.704137) rotate(-240.000000) translate(-276.091287, -141.704137) translate(152.591287, -105.795863)">
            <path d="M179.880499,363.08706 C174.910057,363.08706 170.879191,367.112163 170.879191,372.07684 C170.879191,377.041518 174.910057,381.06662 179.880499,381.06662 C184.850941,381.06662 188.880984,377.041518 188.880984,372.07684 C188.880984,367.112163 184.850941,363.08706 179.880499,363.08706" id="Fill-1" fill="#E6E7E8"></path>
            <path d="M179.880499,340.363759 C174.910057,340.363759 170.879191,344.388861 170.879191,349.353539 C170.879191,354.318216 174.910057,358.343319 179.880499,358.343319 C184.850941,358.343319 188.880984,354.318216 188.880984,349.353539 C188.880984,344.388861 184.850941,340.363759 179.880499,340.363759" id="Fill-3" fill="#E6E7E8"></path>
            <path d="M179.880499,317.640457 C174.910057,317.640457 170.879191,321.66556 170.879191,326.630237 C170.879191,331.594915 174.910057,335.620017 179.880499,335.620017 C184.850941,335.620017 188.880984,331.594915 188.880984,326.630237 C188.880984,321.66556 184.850941,317.640457 179.880499,317.640457" id="Fill-5" fill="#E6E7E8"></path>
            <path d="M179.880499,385.810362 C174.910057,385.810362 170.879191,389.835464 170.879191,394.800142 C170.879191,399.764819 174.910057,403.789922 179.880499,403.789922 C184.850941,403.789922 188.880984,399.764819 188.880984,394.800142 C188.880984,389.835464 184.850941,385.810362 179.880499,385.810362" id="Fill-7" fill="#E6E7E8"></path>
            <path d="M179.880499,453.98076 C174.910057,453.98076 170.879191,458.005863 170.879191,462.97054 C170.879191,467.935217 174.910057,471.96032 179.880499,471.96032 C184.850941,471.96032 188.880984,467.935217 188.880984,462.97054 C188.880984,458.005863 184.850941,453.98076 179.880499,453.98076" id="Fill-9" fill="#E6E7E8"></path>
            <path d="M179.880499,408.533745 C174.910057,408.533745 170.879191,412.558848 170.879191,417.523525 C170.879191,422.489026 174.910057,426.513305 179.880499,426.513305 C184.850941,426.513305 188.880984,422.489026 188.880984,417.523525 C188.880984,412.558848 184.850941,408.533745 179.880499,408.533745" id="Fill-11" fill="#E6E7E8"></path>
            <path d="M179.880499,158.576771 C174.910057,158.576771 170.879191,162.601873 170.879191,167.566551 C170.879191,172.531228 174.910057,176.556331 179.880499,176.556331 C184.850941,176.556331 188.880984,172.531228 188.880984,167.566551 C188.880984,162.601873 184.850941,158.576771 179.880499,158.576771" id="Fill-13" fill="#E6E7E8"></path>
            <path d="M179.880499,204.023456 C174.910057,204.023456 170.879191,208.048559 170.879191,213.013236 C170.879191,217.977914 174.910057,222.003016 179.880499,222.003016 C184.850941,222.003016 188.880984,217.977914 188.880984,213.013236 C188.880984,208.048559 184.850941,204.023456 179.880499,204.023456" id="Fill-15" fill="#E6E7E8"></path>
            <path d="M179.880499,181.300072 C174.910057,181.300072 170.879191,185.325175 170.879191,190.289852 C170.879191,195.25453 174.910057,199.279632 179.880499,199.279632 C184.850941,199.279632 188.880984,195.25453 188.880984,190.289852 C188.880984,185.325175 184.850941,181.300072 179.880499,181.300072" id="Fill-17" fill="#E6E7E8"></path>
            <path d="M179.880499,272.19336 C174.910057,272.19336 170.879191,276.218463 170.879191,281.18314 C170.879191,286.148641 174.910057,290.17292 179.880499,290.17292 C184.850941,290.17292 188.880984,286.148641 188.880984,281.18314 C188.880984,276.218463 184.850941,272.19336 179.880499,272.19336" id="Fill-19" fill="#E6E7E8"></path>
            <path d="M179.880499,294.917074 C174.910057,294.917074 170.879191,298.942176 170.879191,303.906854 C170.879191,308.871531 174.910057,312.896634 179.880499,312.896634 C184.850941,312.896634 188.880984,308.871531 188.880984,303.906854 C188.880984,298.942176 184.850941,294.917074 179.880499,294.917074" id="Fill-21" fill="#E6E7E8"></path>
            <path d="M179.880499,249.470059 C174.910057,249.470059 170.879191,253.495162 170.879191,258.459839 C170.879191,263.42534 174.910057,267.449619 179.880499,267.449619 C184.850941,267.449619 188.880984,263.42534 188.880984,258.459839 C188.880984,253.495162 184.850941,249.470059 179.880499,249.470059" id="Fill-23" fill="#E6E7E8"></path>
            <path d="M179.880499,226.746758 C174.910057,226.746758 170.879191,230.77186 170.879191,235.736538 C170.879191,240.701215 174.910057,244.726317 179.880499,244.726317 C184.850941,244.726317 188.880984,240.701215 188.880984,235.736538 C188.880984,230.77186 184.850941,226.746758 179.880499,226.746758" id="Fill-25" fill="#E6E7E8"></path>
            <path d="M202.593342,204.023456 C197.622077,204.023456 193.592034,208.048559 193.592034,213.013236 C193.592034,217.977914 197.622077,222.003016 202.593342,222.003016 C207.563784,222.003016 211.593827,217.977914 211.593827,213.013236 C211.593827,208.048559 207.563784,204.023456 202.593342,204.023456" id="Fill-27" fill="#E6E7E8"></path>
            <path d="M202.593342,158.576771 C197.622077,158.576771 193.592034,162.601873 193.592034,167.566551 C193.592034,172.531228 197.622077,176.556331 202.593342,176.556331 C207.563784,176.556331 211.593827,172.531228 211.593827,167.566551 C211.593827,162.601873 207.563784,158.576771 202.593342,158.576771" id="Fill-29" fill="#E6E7E8"></path>
            <path d="M202.593342,226.746758 C197.622077,226.746758 193.592034,230.77186 193.592034,235.736538 C193.592034,240.701215 197.622077,244.726317 202.593342,244.726317 C207.563784,244.726317 211.593827,240.701215 211.593827,235.736538 C211.593827,230.77186 207.563784,226.746758 202.593342,226.746758" id="Fill-31" fill="#E6E7E8"></path>
            <path d="M202.593342,181.300072 C197.622077,181.300072 193.592034,185.325175 193.592034,190.289852 C193.592034,195.25453 197.622077,199.279632 202.593342,199.279632 C207.563784,199.279632 211.593827,195.25453 211.593827,190.289852 C211.593827,185.325175 207.563784,181.300072 202.593342,181.300072" id="Fill-33" fill="#E6E7E8"></path>
            <path d="M202.593342,272.19336 C197.622077,272.19336 193.592034,276.218463 193.592034,281.18314 C193.592034,286.148641 197.622077,290.17292 202.593342,290.17292 C207.563784,290.17292 211.593827,286.148641 211.593827,281.18314 C211.593827,276.218463 207.563784,272.19336 202.593342,272.19336" id="Fill-35" fill="#E6E7E8"></path>
            <path d="M202.593342,249.470059 C197.622077,249.470059 193.592034,253.495162 193.592034,258.459839 C193.592034,263.42534 197.622077,267.449619 202.593342,267.449619 C207.563784,267.449619 211.593827,263.42534 211.593827,258.459839 C211.593827,253.495162 207.563784,249.470059 202.593342,249.470059" id="Fill-37" fill="#E6E7E8"></path>
            <path d="M179.880499,431.257047 C174.910057,431.257047 170.879191,435.282149 170.879191,440.246827 C170.879191,445.212328 174.910057,449.236607 179.880499,449.236607 C184.850941,449.236607 188.880984,445.212328 188.880984,440.246827 C188.880984,435.282149 184.850941,431.257047 179.880499,431.257047" id="Fill-39" fill="#E6E7E8"></path>
            <path d="M202.593342,44.9597697 C197.622077,44.9597697 193.592034,48.9848722 193.592034,53.9495497 C193.592034,58.9142271 197.622077,62.9393296 202.593342,62.9393296 C207.563784,62.9393296 211.593827,58.9142271 211.593827,53.9495497 C211.593827,48.9848722 207.563784,44.9597697 202.593342,44.9597697" id="Fill-41" fill="#E6E7E8"></path>
            <path d="M202.593342,22.2364682 C197.622077,22.2364682 193.592034,26.2615708 193.592034,31.2262482 C193.592034,36.1909257 197.622077,40.2160282 202.593342,40.2160282 C207.563784,40.2160282 211.593827,36.1909257 211.593827,31.2262482 C211.593827,26.2615708 207.563784,22.2364682 202.593342,22.2364682" id="Fill-43" fill="#E6E7E8"></path>
            <path d="M202.593342,67.6830711 C197.622077,67.6830711 193.592034,71.7081737 193.592034,76.6728511 C193.592034,81.6375285 197.622077,85.6626311 202.593342,85.6626311 C207.563784,85.6626311 211.593827,81.6375285 211.593827,76.6728511 C211.593827,71.7081737 207.563784,67.6830711 202.593342,67.6830711" id="Fill-45" fill="#E6E7E8"></path>
            <path d="M202.593342,135.853469 C197.622077,135.853469 193.592034,139.878572 193.592034,144.843249 C193.592034,149.807927 197.622077,153.833029 202.593342,153.833029 C207.563784,153.833029 211.593827,149.807927 211.593827,144.843249 C211.593827,139.878572 207.563784,135.853469 202.593342,135.853469" id="Fill-47" fill="#E6E7E8"></path>
            <path d="M202.593342,294.917074 C197.622077,294.917074 193.592034,298.942176 193.592034,303.906854 C193.592034,308.871531 197.622077,312.896634 202.593342,312.896634 C207.563784,312.896634 211.593827,308.871531 211.593827,303.906854 C211.593827,298.942176 207.563784,294.917074 202.593342,294.917074" id="Fill-49" fill="#E6E7E8"></path>
            <path d="M202.593342,113.129756 C197.622077,113.129756 193.592034,117.154859 193.592034,122.119536 C193.592034,127.085037 197.622077,131.109316 202.593342,131.109316 C207.563784,131.109316 211.593827,127.085037 211.593827,122.119536 C211.593827,117.154859 207.563784,113.129756 202.593342,113.129756" id="Fill-51" fill="#E6E7E8"></path>
            <path d="M202.593342,90.4063725 C197.622077,90.4063725 193.592034,94.4314751 193.592034,99.3961525 C193.592034,104.361653 197.622077,108.385932 202.593342,108.385932 C207.563784,108.385932 211.593827,104.361653 211.593827,99.3961525 C211.593827,94.4314751 207.563784,90.4063725 202.593342,90.4063725" id="Fill-53" fill="#E6E7E8"></path>
            <path d="M157.157198,294.917074 C152.185932,294.917074 148.156713,298.942176 148.156713,303.906854 C148.156713,308.871531 152.185932,312.896634 157.157198,312.896634 C162.127639,312.896634 166.157683,308.871531 166.157683,303.906854 C166.157683,298.942176 162.127639,294.917074 157.157198,294.917074" id="Fill-55" fill="#E6E7E8"></path>
            <path d="M157.157198,204.023456 C152.185932,204.023456 148.156713,208.048559 148.156713,213.013236 C148.156713,217.977914 152.185932,222.003016 157.157198,222.003016 C162.127639,222.003016 166.157683,217.977914 166.157683,213.013236 C166.157683,208.048559 162.127639,204.023456 157.157198,204.023456" id="Fill-57" fill="#E6E7E8"></path>
            <path d="M157.157198,181.300072 C152.185932,181.300072 148.156713,185.325175 148.156713,190.289852 C148.156713,195.25453 152.185932,199.279632 157.157198,199.279632 C162.127639,199.279632 166.157683,195.25453 166.157683,190.289852 C166.157683,185.325175 162.127639,181.300072 157.157198,181.300072" id="Fill-59" fill="#E6E7E8"></path>
            <path d="M157.157198,158.576771 C152.185932,158.576771 148.156713,162.601873 148.156713,167.566551 C148.156713,172.531228 152.185932,176.556331 157.157198,176.556331 C162.127639,176.556331 166.157683,172.531228 166.157683,167.566551 C166.157683,162.601873 162.127639,158.576771 157.157198,158.576771" id="Fill-61" fill="#E6E7E8"></path>
            <path d="M157.157198,249.470059 C152.185932,249.470059 148.156713,253.495162 148.156713,258.459839 C148.156713,263.42534 152.185932,267.449619 157.157198,267.449619 C162.127639,267.449619 166.157683,263.42534 166.157683,258.459839 C166.157683,253.495162 162.127639,249.470059 157.157198,249.470059" id="Fill-63" fill="#E6E7E8"></path>
            <path d="M157.157198,272.19336 C152.185932,272.19336 148.156713,276.218463 148.156713,281.18314 C148.156713,286.148641 152.185932,290.17292 157.157198,290.17292 C162.127639,290.17292 166.157683,286.148641 166.157683,281.18314 C166.157683,276.218463 162.127639,272.19336 157.157198,272.19336" id="Fill-65" fill="#E6E7E8"></path>
            <path d="M157.157198,226.746758 C152.185932,226.746758 148.156713,230.77186 148.156713,235.736538 C148.156713,240.701215 152.185932,244.726317 157.157198,244.726317 C162.127639,244.726317 166.157683,240.701215 166.157683,235.736538 C166.157683,230.77186 162.127639,226.746758 157.157198,226.746758" id="Fill-67" fill="#E6E7E8"></path>
            <path d="M157.157198,44.9597697 C152.185932,44.9597697 148.156713,48.9848722 148.156713,53.9495497 C148.156713,58.9142271 152.185932,62.9393296 157.157198,62.9393296 C162.127639,62.9393296 166.157683,58.9142271 166.157683,53.9495497 C166.157683,48.9848722 162.127639,44.9597697 157.157198,44.9597697" id="Fill-69" fill="#E6E7E8"></path>
            <path d="M157.157198,22.2364682 C152.185932,22.2364682 148.156713,26.2615708 148.156713,31.2262482 C148.156713,36.1909257 152.185932,40.2160282 157.157198,40.2160282 C162.127639,40.2160282 166.157683,36.1909257 166.157683,31.2262482 C166.157683,26.2615708 162.127639,22.2364682 157.157198,22.2364682" id="Fill-71" fill="#E6E7E8"></path>
            <path d="M157.157198,67.6830711 C152.185932,67.6830711 148.156713,71.7081737 148.156713,76.6728511 C148.156713,81.6375285 152.185932,85.6626311 157.157198,85.6626311 C162.127639,85.6626311 166.157683,81.6375285 166.157683,76.6728511 C166.157683,71.7081737 162.127639,67.6830711 157.157198,67.6830711" id="Fill-73" fill="#E6E7E8"></path>
            <path d="M157.157198,90.4063725 C152.185932,90.4063725 148.156713,94.4314751 148.156713,99.3961525 C148.156713,104.361653 152.185932,108.385932 157.157198,108.385932 C162.127639,108.385932 166.157683,104.361653 166.157683,99.3961525 C166.157683,94.4314751 162.127639,90.4063725 157.157198,90.4063725" id="Fill-75" fill="#E6E7E8"></path>
            <path d="M157.157198,135.853469 C152.185932,135.853469 148.156713,139.878572 148.156713,144.843249 C148.156713,149.807927 152.185932,153.833029 157.157198,153.833029 C162.127639,153.833029 166.157683,149.807927 166.157683,144.843249 C166.157683,139.878572 162.127639,135.853469 157.157198,135.853469" id="Fill-77" fill="#E6E7E8"></path>
            <path d="M157.157198,113.129756 C152.185932,113.129756 148.156713,117.154859 148.156713,122.119536 C148.156713,127.085037 152.185932,131.109316 157.157198,131.109316 C162.127639,131.109316 166.157683,127.085037 166.157683,122.119536 C166.157683,117.154859 162.127639,113.129756 157.157198,113.129756" id="Fill-79" fill="#E6E7E8"></path>
            <path d="M179.880499,44.9597697 C174.910057,44.9597697 170.879191,48.9848722 170.879191,53.9495497 C170.879191,58.9142271 174.910057,62.9393296 179.880499,62.9393296 C184.850941,62.9393296 188.880984,58.9142271 188.880984,53.9495497 C188.880984,48.9848722 184.850941,44.9597697 179.880499,44.9597697" id="Fill-81" fill="#E6E7E8"></path>
            <path d="M179.880499,135.853469 C174.910057,135.853469 170.879191,139.878572 170.879191,144.843249 C170.879191,149.807927 174.910057,153.833029 179.880499,153.833029 C184.850941,153.833029 188.880984,149.807927 188.880984,144.843249 C188.880984,139.878572 184.850941,135.853469 179.880499,135.853469" id="Fill-83" fill="#E6E7E8"></path>
            <path d="M179.880499,67.6830711 C174.910057,67.6830711 170.879191,71.7081737 170.879191,76.6728511 C170.879191,81.6375285 174.910057,85.6626311 179.880499,85.6626311 C184.850941,85.6626311 188.880984,81.6375285 188.880984,76.6728511 C188.880984,71.7081737 184.850941,67.6830711 179.880499,67.6830711" id="Fill-85" fill="#E6E7E8"></path>
            <path d="M179.880499,22.2364682 C174.910057,22.2364682 170.879191,26.2615708 170.879191,31.2262482 C170.879191,36.1909257 174.910057,40.2160282 179.880499,40.2160282 C184.850941,40.2160282 188.880984,36.1909257 188.880984,31.2262482 C188.880984,26.2615708 184.850941,22.2364682 179.880499,22.2364682" id="Fill-87" fill="#E6E7E8"></path>
            <path d="M157.157198,431.257047 C152.185932,431.257047 148.156713,435.282149 148.156713,440.246827 C148.156713,445.212328 152.185932,449.236607 157.157198,449.236607 C162.127639,449.236607 166.157683,445.212328 166.157683,440.246827 C166.157683,435.282149 162.127639,431.257047 157.157198,431.257047" id="Fill-89" fill="#E6E7E8"></path>
            <path d="M179.880499,90.4063725 C174.910057,90.4063725 170.879191,94.4314751 170.879191,99.3961525 C170.879191,104.361653 174.910057,108.385932 179.880499,108.385932 C184.850941,108.385932 188.880984,104.361653 188.880984,99.3961525 C188.880984,94.4314751 184.850941,90.4063725 179.880499,90.4063725" id="Fill-91" fill="#E6E7E8"></path>
            <path d="M179.880499,113.129756 C174.910057,113.129756 170.879191,117.154859 170.879191,122.119536 C170.879191,127.085037 174.910057,131.109316 179.880499,131.109316 C184.850941,131.109316 188.880984,127.085037 188.880984,122.119536 C188.880984,117.154859 184.850941,113.129756 179.880499,113.129756" id="Fill-93" fill="#E6E7E8"></path>
            <path d="M157.157198,340.363759 C152.185932,340.363759 148.156713,344.388861 148.156713,349.353539 C148.156713,354.318216 152.185932,358.343319 157.157198,358.343319 C162.127639,358.343319 166.157683,354.318216 166.157683,349.353539 C166.157683,344.388861 162.127639,340.363759 157.157198,340.363759" id="Fill-95" fill="#E6E7E8"></path>
            <path d="M157.157198,453.98076 C152.185932,453.98076 148.156713,458.005863 148.156713,462.97054 C148.156713,467.935217 152.185932,471.96032 157.157198,471.96032 C162.127639,471.96032 166.157683,467.935217 166.157683,462.97054 C166.157683,458.005863 162.127639,453.98076 157.157198,453.98076" id="Fill-97" fill="#E6E7E8"></path>
            <path d="M157.157198,363.08706 C152.185932,363.08706 148.156713,367.112163 148.156713,372.07684 C148.156713,377.041518 152.185932,381.06662 157.157198,381.06662 C162.127639,381.06662 166.157683,377.041518 166.157683,372.07684 C166.157683,367.112163 162.127639,363.08706 157.157198,363.08706" id="Fill-99" fill="#E6E7E8"></path>
            <path d="M157.157198,317.640457 C152.185932,317.640457 148.156713,321.66556 148.156713,326.630237 C148.156713,331.594915 152.185932,335.620017 157.157198,335.620017 C162.127639,335.620017 166.157683,331.594915 166.157683,326.630237 C166.157683,321.66556 162.127639,317.640457 157.157198,317.640457" id="Fill-101" fill="#E6E7E8"></path>
            <path d="M157.157198,385.810362 C152.185932,385.810362 148.156713,389.835464 148.156713,394.800142 C148.156713,399.764819 152.185932,403.789922 157.157198,403.789922 C162.127639,403.789922 166.157683,399.764819 166.157683,394.800142 C166.157683,389.835464 162.127639,385.810362 157.157198,385.810362" id="Fill-103" fill="#E6E7E8"></path>
            <path d="M157.157198,408.533745 C152.185932,408.533745 148.156713,412.558848 148.156713,417.523525 C148.156713,422.489026 152.185932,426.513305 157.157198,426.513305 C162.127639,426.513305 166.157683,422.489026 166.157683,417.523525 C166.157683,412.558848 162.127639,408.533745 157.157198,408.533745" id="Fill-105" fill="#E6E7E8"></path>
            <g id="Group-109" transform="translate(238.805184, 203.502367)">
                <mask id="mask-2" fill="white">
                    <use xlink:href="#path-1"></use>
                </mask>
                <g id="Clip-108"></g>
                <path d="M7.43186437,18.3180869 L7.43186437,0.703322441 C3.33017947,1.54161098 0.244651794,5.16650899 0.244651794,9.5111164 C0.244651794,13.8557238 3.33017947,17.4797984 7.43186437,18.3180869" id="Fill-107" fill="#E6E7E8" mask="url(#mask-2)"></path>
            </g>
            <g id="Group-112" transform="translate(238.805184, 317.140696)">
                <mask id="mask-4" fill="white">
                    <use xlink:href="#path-3"></use>
                </mask>
                <g id="Clip-111"></g>
                <path d="M7.43186437,18.2967591 L7.43186437,0.681994667 C3.33017947,1.52028321 0.244651794,5.14518121 0.244651794,9.48978863 C0.244651794,13.834396 3.33017947,17.4584706 7.43186437,18.2967591" id="Fill-110" fill="#E6E7E8" mask="url(#mask-4)"></path>
            </g>
            <g id="Group-115" transform="translate(238.805184, 294.907110)">
                <mask id="mask-6" fill="white">
                    <use xlink:href="#path-5"></use>
                </mask>
                <g id="Clip-114"></g>
                <path d="M7.43186437,17.8069615 L7.43186437,0.192197 C3.33017947,1.03048554 0.244651794,4.65538354 0.244651794,8.99999096 C0.244651794,13.3437749 3.33017947,16.9686729 7.43186437,17.8069615" id="Fill-113" fill="#E6E7E8" mask="url(#mask-6)"></path>
            </g>
            <g id="Group-118" transform="translate(238.805184, 363.254800)">
                <mask id="mask-8" fill="white">
                    <use xlink:href="#path-7"></use>
                </mask>
                <g id="Clip-117"></g>
                <path d="M7.43186437,17.6292575 L7.43186437,0.0144930043 C3.33017947,0.852781547 0.244651794,4.47767955 0.244651794,8.82228697 C0.244651794,13.1668944 3.33017947,16.7909689 7.43186437,17.6292575" id="Fill-116" fill="#E6E7E8" mask="url(#mask-8)"></path>
            </g>
            <g id="Group-121" transform="translate(238.805184, 340.197748)">
                <mask id="mask-10" fill="white">
                    <use xlink:href="#path-9"></use>
                </mask>
                <g id="Clip-120"></g>
                <path d="M7.43186437,17.9630083 L7.43186437,0.348243836 C3.33017947,1.18653238 0.244651794,4.81143038 0.244651794,9.1560378 C0.244651794,13.5006452 3.33017947,17.1247198 7.43186437,17.9630083" id="Fill-119" fill="#E6E7E8" mask="url(#mask-10)"></path>
            </g>
            <g id="Group-124" transform="translate(238.805184, 271.850057)">
                <mask id="mask-12" fill="white">
                    <use xlink:href="#path-11"></use>
                </mask>
                <g id="Clip-123"></g>
                <path d="M7.43186437,18.1407123 L7.43186437,0.525947831 C3.33017947,1.36423637 0.244651794,4.98913438 0.244651794,9.33374179 C0.244651794,13.6775257 3.33017947,17.3024237 7.43186437,18.1407123" id="Fill-122" fill="#E6E7E8" mask="url(#mask-12)"></path>
            </g>
            <g id="Group-127" transform="translate(238.805184, 249.616471)">
                <mask id="mask-14" fill="white">
                    <use xlink:href="#path-13"></use>
                </mask>
                <g id="Clip-126"></g>
                <path d="M7.43186437,17.650997 L7.43186437,0.0362325107 C3.33017947,0.874521054 0.244651794,4.49941906 0.244651794,8.84402647 C0.244651794,13.1878104 3.33017947,16.8127084 7.43186437,17.650997" id="Fill-125" fill="#E6E7E8" mask="url(#mask-14)"></path>
            </g>
            <path d="M225.316726,17.4926444 C230.287168,17.4926444 234.317211,13.4675419 234.317211,8.50286445 C234.317211,5.56556068 232.900026,2.96505457 230.718664,1.32471 C226.705914,1.57422024 222.71869,1.91842909 218.759465,2.35816002 C217.248405,3.96556595 216.316241,6.12304727 216.316241,8.50286445 C216.316241,13.4675419 220.345461,17.4926444 225.316726,17.4926444" id="Fill-128" fill="#E6E7E8"></path>
            <g id="Group-132" transform="translate(238.805184, 0.106227)">
                <mask id="mask-16" fill="white">
                    <use xlink:href="#path-15"></use>
                </mask>
                <g id="Clip-131"></g>
                <path d="M0.245063527,8.39663731 C0.245063527,12.7412447 3.32976773,16.3653193 7.4322761,17.2036078 L7.4322761,0.717815445 C6.45893911,0.717815445 5.49301331,0.743342896 4.52214672,0.754047956 C1.95869659,2.33839683 0.245063527,5.16453267 0.245063527,8.39663731" id="Fill-130" fill="#E6E7E8" mask="url(#mask-16)"></path>
            </g>
            <path d="M163.130539,15.214443 C161.087519,15.9473278 159.056028,16.7024463 157.038536,17.4863861 C157.078062,17.4872096 157.116765,17.4929738 157.157115,17.4929738 C159.452115,17.4929738 161.540426,16.6275109 163.130539,15.214443" id="Fill-133" fill="#E6E7E8"></path>
            <g id="Group-137" transform="translate(238.805184, 385.488386)">
                <mask id="mask-18" fill="white">
                    <use xlink:href="#path-17"></use>
                </mask>
                <g id="Clip-136"></g>
                <path d="M7.43186437,18.1193845 L7.43186437,0.504620058 C3.33017947,1.3429086 0.244651794,4.9678066 0.244651794,9.31159056 C0.244651794,13.656198 3.33017947,17.281096 7.43186437,18.1193845" id="Fill-135" fill="#E6E7E8" mask="url(#mask-18)"></path>
            </g>
            <path d="M225.316726,431.257047 C220.345461,431.257047 216.316241,435.282149 216.316241,440.246827 C216.316241,445.212328 220.345461,449.236607 225.316726,449.236607 C230.287168,449.236607 234.317211,445.212328 234.317211,440.246827 C234.317211,435.282149 230.287168,431.257047 225.316726,431.257047" id="Fill-138" fill="#E6E7E8"></path>
            <g id="Group-142" transform="translate(238.805184, 408.545439)">
                <mask id="mask-20" fill="white">
                    <use xlink:href="#path-19"></use>
                </mask>
                <g id="Clip-141"></g>
                <path d="M7.43186437,17.785716 L7.43186437,0.170951573 C3.33017947,1.00924012 0.244651794,4.63413812 0.244651794,8.97874554 C0.244651794,13.3225295 3.33017947,16.9474275 7.43186437,17.785716" id="Fill-140" fill="#E6E7E8" mask="url(#mask-20)"></path>
            </g>
            <g id="Group-145" transform="translate(238.805184, 430.779025)">
                <mask id="mask-22" fill="white">
                    <use xlink:href="#path-21"></use>
                </mask>
                <g id="Clip-144"></g>
                <path d="M7.43186437,18.2754314 L7.43186437,0.660666894 C3.33017947,1.49895544 0.244651794,5.12385344 0.244651794,9.46846086 C0.244651794,13.8122448 3.33017947,17.4371428 7.43186437,18.2754314" id="Fill-143" fill="#E6E7E8" mask="url(#mask-22)"></path>
            </g>
            <g id="Group-148" transform="translate(238.805184, 453.836077)">
                <mask id="mask-24" fill="white">
                    <use xlink:href="#path-23"></use>
                </mask>
                <g id="Clip-147"></g>
                <path d="M7.43186437,17.9416805 L7.43186437,0.326916062 C3.33017947,1.16520461 0.244651794,4.79010261 0.244651794,9.13471003 C0.244651794,13.478494 3.33017947,17.103392 7.43186437,17.9416805" id="Fill-146" fill="#E6E7E8" mask="url(#mask-24)"></path>
            </g>
            <path d="M202.593342,17.4926444 C207.563784,17.4926444 211.593827,13.4675419 211.593827,8.50286445 C211.593827,6.64100748 211.026459,4.91090509 210.056416,3.47642705 C204.590248,4.28095349 199.185839,5.2707598 193.843191,6.42772974 C193.685909,7.09556079 193.592034,7.78727236 193.592034,8.50286445 C193.592034,13.4675419 197.622077,17.4926444 202.593342,17.4926444" id="Fill-149" fill="#E6E7E8"></path>
            <g id="Group-153" transform="translate(238.805184, 44.573399)">
                <mask id="mask-26" fill="white">
                    <use xlink:href="#path-25"></use>
                </mask>
                <g id="Clip-152"></g>
                <path d="M7.43186437,18.1833678 L7.43186437,0.568603378 C3.33017947,1.40689192 0.244651794,5.03178992 0.244651794,9.37639734 C0.244651794,13.7210048 3.33017947,17.3450793 7.43186437,18.1833678" id="Fill-151" fill="#E6E7E8" mask="url(#mask-26)"></path>
            </g>
            <g id="Group-156" transform="translate(238.805184, 22.339813)">
                <mask id="mask-28" fill="white">
                    <use xlink:href="#path-27"></use>
                </mask>
                <g id="Clip-155"></g>
                <path d="M7.43186437,17.6936525 L7.43186437,0.0788880574 C3.33017947,0.9171766 0.244651794,4.5420746 0.244651794,8.88668202 C0.244651794,13.2312894 3.33017947,16.855364 7.43186437,17.6936525" id="Fill-154" fill="#E6E7E8" mask="url(#mask-28)"></path>
            </g>
            <path d="M179.880499,17.4926444 C184.850941,17.4926444 188.880984,13.4675419 188.880984,8.50286445 C188.880984,8.18665344 188.863691,7.87455977 188.831576,7.56658343 C183.051667,8.9467127 177.349164,10.5277677 171.733948,12.3072781 C173.170073,15.3681018 176.272894,17.4926444 179.880499,17.4926444" id="Fill-157" fill="#E6E7E8"></path>
            <path d="M234.316964,485.693841 C234.316964,480.729164 230.286921,476.704061 225.316479,476.704061 C220.345214,476.704061 216.316818,480.729164 216.316818,485.693841 C216.316818,488.067894 217.244864,490.220435 218.749337,491.827017 C222.71515,492.267572 226.710607,492.612604 230.731593,492.862938 C232.905543,491.220946 234.316964,488.625381 234.316964,485.693841" id="Fill-159" fill="#E6E7E8"></path>
            <path d="M202.593342,476.704061 C197.622077,476.704061 193.592034,480.729164 193.592034,485.693841 C193.592034,486.405316 193.684262,487.093734 193.839897,487.757448 C199.185839,488.916064 204.593542,489.905871 210.06218,490.711221 C211.02893,489.27839 211.593827,487.551581 211.593827,485.693841 C211.593827,480.729164 207.563784,476.704061 202.593342,476.704061" id="Fill-161" fill="#E6E7E8"></path>
            <g id="Group-165" transform="translate(238.805184, 67.630452)">
                <mask id="mask-30" fill="white">
                    <use xlink:href="#path-29"></use>
                </mask>
                <g id="Clip-164"></g>
                <path d="M7.43186437,17.8500287 L7.43186437,0.23526428 C3.33017947,1.07355282 0.244651794,4.69845082 0.244651794,9.04305824 C0.244651794,13.3868422 3.33017947,17.0117402 7.43186437,17.8500287" id="Fill-163" fill="#E6E7E8" mask="url(#mask-30)"></path>
            </g>
            <g id="Group-168" transform="translate(238.805184, 181.268781)">
                <mask id="mask-32" fill="white">
                    <use xlink:href="#path-31"></use>
                </mask>
                <g id="Clip-167"></g>
                <path d="M7.43186437,17.8282892 L7.43186437,0.213524773 C3.33017947,1.05181332 0.244651794,4.67671132 0.244651794,9.02131874 C0.244651794,13.3659262 3.33017947,16.9900007 7.43186437,17.8282892" id="Fill-166" fill="#E6E7E8" mask="url(#mask-32)"></path>
            </g>
            <g id="Group-171" transform="translate(238.805184, 135.978142)">
                <mask id="mask-34" fill="white">
                    <use xlink:href="#path-33"></use>
                </mask>
                <g id="Clip-170"></g>
                <path d="M7.43186437,17.6723247 L7.43186437,0.057560284 C3.33017947,0.895848827 0.244651794,4.52074683 0.244651794,8.86535425 C0.244651794,13.2091382 3.33017947,16.8340362 7.43186437,17.6723247" id="Fill-169" fill="#E6E7E8" mask="url(#mask-34)"></path>
            </g>
            <g id="Group-174" transform="translate(238.805184, 158.211728)">
                <mask id="mask-36" fill="white">
                    <use xlink:href="#path-35"></use>
                </mask>
                <g id="Clip-173"></g>
                <path d="M7.43186437,18.1620401 L7.43186437,0.547275605 C3.33017947,1.38556415 0.244651794,5.01046215 0.244651794,9.35506957 C0.244651794,13.699677 3.33017947,17.3237515 7.43186437,18.1620401" id="Fill-172" fill="#E6E7E8" mask="url(#mask-36)"></path>
            </g>
            <g id="Group-177" transform="translate(238.805184, 89.864038)">
                <mask id="mask-38" fill="white">
                    <use xlink:href="#path-37"></use>
                </mask>
                <g id="Clip-176"></g>
                <path d="M7.43186437,18.3397441 L7.43186437,0.7249796 C3.33017947,1.56326814 0.244651794,5.18816615 0.244651794,9.53277356 C0.244651794,13.8765575 3.33017947,17.5014555 7.43186437,18.3397441" id="Fill-175" fill="#E6E7E8" mask="url(#mask-38)"></path>
            </g>
            <g id="Group-180" transform="translate(238.805184, 112.921090)">
                <mask id="mask-40" fill="white">
                    <use xlink:href="#path-39"></use>
                </mask>
                <g id="Clip-179"></g>
                <path d="M7.43186437,18.0059932 L7.43186437,0.391228769 C3.33017947,1.22951731 0.244651794,4.85441531 0.244651794,9.19902273 C0.244651794,13.5428067 3.33017947,17.1677047 7.43186437,18.0059932" id="Fill-178" fill="#E6E7E8" mask="url(#mask-40)"></path>
            </g>
            <path d="M225.316726,44.9597697 C220.345461,44.9597697 216.316241,48.9848722 216.316241,53.9495497 C216.316241,58.9142271 220.345461,62.9393296 225.316726,62.9393296 C230.287168,62.9393296 234.317211,58.9142271 234.317211,53.9495497 C234.317211,48.9848722 230.287168,44.9597697 225.316726,44.9597697" id="Fill-181" fill="#E6E7E8"></path>
            <path d="M202.593342,317.640457 C197.622077,317.640457 193.592034,321.66556 193.592034,326.630237 C193.592034,331.594915 197.622077,335.620017 202.593342,335.620017 C207.563784,335.620017 211.593827,331.594915 211.593827,326.630237 C211.593827,321.66556 207.563784,317.640457 202.593342,317.640457" id="Fill-183" fill="#E6E7E8"></path>
            <path d="M225.316726,22.2364682 C220.345461,22.2364682 216.316241,26.2615708 216.316241,31.2262482 C216.316241,36.1909257 220.345461,40.2160282 225.316726,40.2160282 C230.287168,40.2160282 234.317211,36.1909257 234.317211,31.2262482 C234.317211,26.2615708 230.287168,22.2364682 225.316726,22.2364682" id="Fill-185" fill="#E6E7E8"></path>
            <path d="M202.593342,431.257047 C197.622077,431.257047 193.592034,435.282149 193.592034,440.246827 C193.592034,445.212328 197.622077,449.236607 202.593342,449.236607 C207.563784,449.236607 211.593827,445.212328 211.593827,440.246827 C211.593827,435.282149 207.563784,431.257047 202.593342,431.257047" id="Fill-187" fill="#E6E7E8"></path>
            <path d="M225.316726,67.6830711 C220.345461,67.6830711 216.316241,71.7081737 216.316241,76.6728511 C216.316241,81.6375285 220.345461,85.6626311 225.316726,85.6626311 C230.287168,85.6626311 234.317211,81.6375285 234.317211,76.6728511 C234.317211,71.7081737 230.287168,67.6830711 225.316726,67.6830711" id="Fill-189" fill="#E6E7E8"></path>
            <path d="M225.316726,90.4063725 C220.345461,90.4063725 216.316241,94.4314751 216.316241,99.3961525 C216.316241,104.361653 220.345461,108.385932 225.316726,108.385932 C230.287168,108.385932 234.317211,104.361653 234.317211,99.3961525 C234.317211,94.4314751 230.287168,90.4063725 225.316726,90.4063725" id="Fill-191" fill="#E6E7E8"></path>
            <path d="M225.316726,113.129756 C220.345461,113.129756 216.316241,117.154859 216.316241,122.119536 C216.316241,127.085037 220.345461,131.109316 225.316726,131.109316 C230.287168,131.109316 234.317211,127.085037 234.317211,122.119536 C234.317211,117.154859 230.287168,113.129756 225.316726,113.129756" id="Fill-193" fill="#E6E7E8"></path>
            <path d="M202.593342,363.08706 C197.622077,363.08706 193.592034,367.112163 193.592034,372.07684 C193.592034,377.041518 197.622077,381.06662 202.593342,381.06662 C207.563784,381.06662 211.593827,377.041518 211.593827,372.07684 C211.593827,367.112163 207.563784,363.08706 202.593342,363.08706" id="Fill-195" fill="#E6E7E8"></path>
            <path d="M202.593342,453.98076 C197.622077,453.98076 193.592034,458.005863 193.592034,462.97054 C193.592034,467.935217 197.622077,471.96032 202.593342,471.96032 C207.563784,471.96032 211.593827,467.935217 211.593827,462.97054 C211.593827,458.005863 207.563784,453.98076 202.593342,453.98076" id="Fill-197" fill="#E6E7E8"></path>
            <path d="M225.316726,135.853469 C220.345461,135.853469 216.316241,139.878572 216.316241,144.843249 C216.316241,149.807927 220.345461,153.833029 225.316726,153.833029 C230.287168,153.833029 234.317211,149.807927 234.317211,144.843249 C234.317211,139.878572 230.287168,135.853469 225.316726,135.853469" id="Fill-199" fill="#E6E7E8"></path>
            <path d="M202.593342,340.363759 C197.622077,340.363759 193.592034,344.388861 193.592034,349.353539 C193.592034,354.318216 197.622077,358.343319 202.593342,358.343319 C207.563784,358.343319 211.593827,354.318216 211.593827,349.353539 C211.593827,344.388861 207.563784,340.363759 202.593342,340.363759" id="Fill-201" fill="#E6E7E8"></path>
            <path d="M225.316726,453.98076 C220.345461,453.98076 216.316241,458.005863 216.316241,462.97054 C216.316241,467.935217 220.345461,471.96032 225.316726,471.96032 C230.287168,471.96032 234.317211,467.935217 234.317211,462.97054 C234.317211,458.005863 230.287168,453.98076 225.316726,453.98076" id="Fill-203" fill="#E6E7E8"></path>
            <path d="M202.593342,408.533745 C197.622077,408.533745 193.592034,412.558848 193.592034,417.523525 C193.592034,422.489026 197.622077,426.513305 202.593342,426.513305 C207.563784,426.513305 211.593827,422.489026 211.593827,417.523525 C211.593827,412.558848 207.563784,408.533745 202.593342,408.533745" id="Fill-205" fill="#E6E7E8"></path>
            <path d="M202.593342,385.810362 C197.622077,385.810362 193.592034,389.835464 193.592034,394.800142 C193.592034,399.764819 197.622077,403.789922 202.593342,403.789922 C207.563784,403.789922 211.593827,399.764819 211.593827,394.800142 C211.593827,389.835464 207.563784,385.810362 202.593342,385.810362" id="Fill-207" fill="#E6E7E8"></path>
            <path d="M225.316726,340.363759 C220.345461,340.363759 216.316241,344.388861 216.316241,349.353539 C216.316241,354.318216 220.345461,358.343319 225.316726,358.343319 C230.287168,358.343319 234.317211,354.318216 234.317211,349.353539 C234.317211,344.388861 230.287168,340.363759 225.316726,340.363759" id="Fill-209" fill="#E6E7E8"></path>
            <path d="M225.316726,294.917074 C220.345461,294.917074 216.316241,298.942176 216.316241,303.906854 C216.316241,308.871531 220.345461,312.896634 225.316726,312.896634 C230.287168,312.896634 234.317211,308.871531 234.317211,303.906854 C234.317211,298.942176 230.287168,294.917074 225.316726,294.917074" id="Fill-211" fill="#E6E7E8"></path>
            <path d="M225.316726,363.08706 C220.345461,363.08706 216.316241,367.112163 216.316241,372.07684 C216.316241,377.041518 220.345461,381.06662 225.316726,381.06662 C230.287168,381.06662 234.317211,377.041518 234.317211,372.07684 C234.317211,367.112163 230.287168,363.08706 225.316726,363.08706" id="Fill-213" fill="#E6E7E8"></path>
            <path d="M225.316726,317.640457 C220.345461,317.640457 216.316241,321.66556 216.316241,326.630237 C216.316241,331.594915 220.345461,335.620017 225.316726,335.620017 C230.287168,335.620017 234.317211,331.594915 234.317211,326.630237 C234.317211,321.66556 230.287168,317.640457 225.316726,317.640457" id="Fill-215" fill="#E6E7E8"></path>
            <path d="M225.316726,385.810362 C220.345461,385.810362 216.316241,389.835464 216.316241,394.800142 C216.316241,399.764819 220.345461,403.789922 225.316726,403.789922 C230.287168,403.789922 234.317211,399.764819 234.317211,394.800142 C234.317211,389.835464 230.287168,385.810362 225.316726,385.810362" id="Fill-217" fill="#E6E7E8"></path>
            <path d="M225.316726,408.533745 C220.345461,408.533745 216.316241,412.558848 216.316241,417.523525 C216.316241,422.489026 220.345461,426.513305 225.316726,426.513305 C230.287168,426.513305 234.317211,422.489026 234.317211,417.523525 C234.317211,412.558848 230.287168,408.533745 225.316726,408.533745" id="Fill-219" fill="#E6E7E8"></path>
            <path d="M225.316726,272.19336 C220.345461,272.19336 216.316241,276.218463 216.316241,281.18314 C216.316241,286.148641 220.345461,290.17292 225.316726,290.17292 C230.287168,290.17292 234.317211,286.148641 234.317211,281.18314 C234.317211,276.218463 230.287168,272.19336 225.316726,272.19336" id="Fill-221" fill="#E6E7E8"></path>
            <path d="M225.316726,158.576771 C220.345461,158.576771 216.316241,162.601873 216.316241,167.566551 C216.316241,172.531228 220.345461,176.556331 225.316726,176.556331 C230.287168,176.556331 234.317211,172.531228 234.317211,167.566551 C234.317211,162.601873 230.287168,158.576771 225.316726,158.576771" id="Fill-223" fill="#E6E7E8"></path>
            <path d="M225.316726,204.023456 C220.345461,204.023456 216.316241,208.048559 216.316241,213.013236 C216.316241,217.977914 220.345461,222.003016 225.316726,222.003016 C230.287168,222.003016 234.317211,217.977914 234.317211,213.013236 C234.317211,208.048559 230.287168,204.023456 225.316726,204.023456" id="Fill-225" fill="#E6E7E8"></path>
            <path d="M225.316726,181.300072 C220.345461,181.300072 216.316241,185.325175 216.316241,190.289852 C216.316241,195.25453 220.345461,199.279632 225.316726,199.279632 C230.287168,199.279632 234.317211,195.25453 234.317211,190.289852 C234.317211,185.325175 230.287168,181.300072 225.316726,181.300072" id="Fill-227" fill="#E6E7E8"></path>
            <path d="M225.316726,226.746758 C220.345461,226.746758 216.316241,230.77186 216.316241,235.736538 C216.316241,240.701215 220.345461,244.726317 225.316726,244.726317 C230.287168,244.726317 234.317211,240.701215 234.317211,235.736538 C234.317211,230.77186 230.287168,226.746758 225.316726,226.746758" id="Fill-229" fill="#E6E7E8"></path>
            <path d="M225.316726,249.470059 C220.345461,249.470059 216.316241,253.495162 216.316241,258.459839 C216.316241,263.42534 220.345461,267.449619 225.316726,267.449619 C230.287168,267.449619 234.317211,263.42534 234.317211,258.459839 C234.317211,253.495162 230.287168,249.470059 225.316726,249.470059" id="Fill-231" fill="#E6E7E8"></path>
            <g id="Group-235" transform="translate(238.805184, 226.559419)">
                <mask id="mask-42" fill="white">
                    <use xlink:href="#path-41"></use>
                </mask>
                <g id="Clip-234"></g>
                <path d="M7.43186437,17.9843361 L7.43186437,0.369571609 C3.33017947,1.20786015 0.244651794,4.83275815 0.244651794,9.17736557 C0.244651794,13.521973 3.33017947,17.1460475 7.43186437,17.9843361" id="Fill-233" fill="#E6E7E8" mask="url(#mask-42)"></path>
            </g>
            <path d="M134.433896,40.2159459 C139.404338,40.2159459 143.434381,36.1908433 143.434381,31.2261659 C143.434381,28.6091904 142.30788,26.260665 140.520958,24.61785 C135.419585,27.0454282 130.419499,29.6475813 125.519875,32.4086633 C126.101242,36.8133837 129.865306,40.2159459 134.433896,40.2159459" id="Fill-236" fill="#E6E7E8"></path>
            <path d="M43.5401964,340.363759 C38.5689312,340.363759 34.5397113,344.388861 34.5397113,349.353539 C34.5397113,354.318216 38.5689312,358.343319 43.5401964,358.343319 C48.5114615,358.343319 52.5406814,354.318216 52.5406814,349.353539 C52.5406814,344.388861 48.5114615,340.363759 43.5401964,340.363759" id="Fill-238" fill="#E6E7E8"></path>
            <path d="M43.5401964,317.640457 C38.5689312,317.640457 34.5397113,321.66556 34.5397113,326.630237 C34.5397113,331.594915 38.5689312,335.620017 43.5401964,335.620017 C48.5114615,335.620017 52.5406814,331.594915 52.5406814,326.630237 C52.5406814,321.66556 48.5114615,317.640457 43.5401964,317.640457" id="Fill-240" fill="#E6E7E8"></path>
            <path d="M43.5401964,131.109646 C48.5114615,131.109646 52.5406814,127.084543 52.5406814,122.119866 C52.5406814,117.155188 48.5114615,113.130086 43.5401964,113.130086 C41.7195127,113.130086 40.0281132,113.674397 38.6117514,114.602443 C37.2373864,116.750866 35.9066651,118.929758 34.5981774,121.123472 C34.5619449,121.451211 34.5397113,121.782245 34.5397113,122.119866 C34.5397113,127.084543 38.5689312,131.109646 43.5401964,131.109646" id="Fill-242" fill="#E6E7E8"></path>
            <path d="M66.2639095,90.4063725 C61.2926444,90.4063725 57.262601,94.4314751 57.262601,99.3961525 C57.262601,104.361653 61.2926444,108.385932 66.2639095,108.385932 C71.2343512,108.385932 75.2643946,104.361653 75.2643946,99.3961525 C75.2643946,94.4314751 71.2343512,90.4063725 66.2639095,90.4063725" id="Fill-244" fill="#E6E7E8"></path>
            <path d="M66.2639095,113.129756 C61.2926444,113.129756 57.262601,117.154859 57.262601,122.119536 C57.262601,127.085037 61.2926444,131.109316 66.2639095,131.109316 C71.2343512,131.109316 75.2643946,127.085037 75.2643946,122.119536 C75.2643946,117.154859 71.2343512,113.129756 66.2639095,113.129756" id="Fill-246" fill="#E6E7E8"></path>
            <path d="M43.5401964,108.386344 C48.5114615,108.386344 52.5406814,104.361242 52.5406814,99.3965642 C52.5406814,98.1588946 52.2895242,96.9788676 51.8366179,95.9058912 C48.6843894,99.9540508 45.6573278,104.102673 42.7570801,108.346818 C43.0164719,108.369051 43.2758637,108.386344 43.5401964,108.386344" id="Fill-248" fill="#E6E7E8"></path>
            <path d="M43.5401964,204.023456 C38.5689312,204.023456 34.5397113,208.048559 34.5397113,213.013236 C34.5397113,217.977914 38.5689312,222.003016 43.5401964,222.003016 C48.5114615,222.003016 52.5406814,217.977914 52.5406814,213.013236 C52.5406814,208.048559 48.5114615,204.023456 43.5401964,204.023456" id="Fill-250" fill="#E6E7E8"></path>
            <path d="M43.5401964,226.746758 C38.5689312,226.746758 34.5397113,230.77186 34.5397113,235.736538 C34.5397113,240.701215 38.5689312,244.726317 43.5401964,244.726317 C48.5114615,244.726317 52.5406814,240.701215 52.5406814,235.736538 C52.5406814,230.77186 48.5114615,226.746758 43.5401964,226.746758" id="Fill-252" fill="#E6E7E8"></path>
            <path d="M88.987211,67.6830711 C84.0159458,67.6830711 79.9859025,71.7081737 79.9859025,76.6728511 C79.9859025,81.6375285 84.0159458,85.6626311 88.987211,85.6626311 C93.9576527,85.6626311 97.987696,81.6375285 97.987696,76.6728511 C97.987696,71.7081737 93.9576527,67.6830711 88.987211,67.6830711" id="Fill-254" fill="#E6E7E8"></path>
            <path d="M43.5401964,272.19336 C38.5689312,272.19336 34.5397113,276.218463 34.5397113,281.18314 C34.5397113,286.148641 38.5689312,290.17292 43.5401964,290.17292 C48.5114615,290.17292 52.5406814,286.148641 52.5406814,281.18314 C52.5406814,276.218463 48.5114615,272.19336 43.5401964,272.19336" id="Fill-256" fill="#E6E7E8"></path>
            <path d="M43.5401964,294.917074 C38.5689312,294.917074 34.5397113,298.942176 34.5397113,303.906854 C34.5397113,308.871531 38.5689312,312.896634 43.5401964,312.896634 C48.5114615,312.896634 52.5406814,308.871531 52.5406814,303.906854 C52.5406814,298.942176 48.5114615,294.917074 43.5401964,294.917074" id="Fill-258" fill="#E6E7E8"></path>
            <path d="M43.5401964,249.470059 C38.5689312,249.470059 34.5397113,253.495162 34.5397113,258.459839 C34.5397113,263.42534 38.5689312,267.449619 43.5401964,267.449619 C48.5114615,267.449619 52.5406814,263.42534 52.5406814,258.459839 C52.5406814,253.495162 48.5114615,249.470059 43.5401964,249.470059" id="Fill-260" fill="#E6E7E8"></path>
            <path d="M66.2639095,272.19336 C61.2926444,272.19336 57.262601,276.218463 57.262601,281.18314 C57.262601,286.148641 61.2926444,290.17292 66.2639095,290.17292 C71.2343512,290.17292 75.2643946,286.148641 75.2643946,281.18314 C75.2643946,276.218463 71.2343512,272.19336 66.2639095,272.19336" id="Fill-262" fill="#E6E7E8"></path>
            <path d="M66.2639095,158.576771 C61.2926444,158.576771 57.262601,162.601873 57.262601,167.566551 C57.262601,172.531228 61.2926444,176.556331 66.2639095,176.556331 C71.2343512,176.556331 75.2643946,172.531228 75.2643946,167.566551 C75.2643946,162.601873 71.2343512,158.576771 66.2639095,158.576771" id="Fill-264" fill="#E6E7E8"></path>
            <path d="M66.2639095,385.810362 C61.2926444,385.810362 57.262601,389.835464 57.262601,394.800142 C57.262601,399.764819 61.2926444,403.789922 66.2639095,403.789922 C71.2343512,403.789922 75.2643946,399.764819 75.2643946,394.800142 C75.2643946,389.835464 71.2343512,385.810362 66.2639095,385.810362" id="Fill-266" fill="#E6E7E8"></path>
            <path d="M66.2639095,294.917074 C61.2926444,294.917074 57.262601,298.942176 57.262601,303.906854 C57.262601,308.871531 61.2926444,312.896634 66.2639095,312.896634 C71.2343512,312.896634 75.2643946,308.871531 75.2643946,303.906854 C75.2643946,298.942176 71.2343512,294.917074 66.2639095,294.917074" id="Fill-268" fill="#E6E7E8"></path>
            <path d="M66.2639095,317.640457 C61.2926444,317.640457 57.262601,321.66556 57.262601,326.630237 C57.262601,331.594915 61.2926444,335.620017 66.2639095,335.620017 C71.2343512,335.620017 75.2643946,331.594915 75.2643946,326.630237 C75.2643946,321.66556 71.2343512,317.640457 66.2639095,317.640457" id="Fill-270" fill="#E6E7E8"></path>
            <path d="M75.2641475,76.6732628 C75.2641475,74.7381174 74.6457245,72.9503723 73.6040398,71.4829557 C69.414244,75.6035803 65.3710252,79.8716053 61.4834415,84.2804431 C62.869335,85.1508469 64.5047388,85.6630428 66.2636625,85.6630428 C71.2341042,85.6630428 75.2641475,81.6379402 75.2641475,76.6732628" id="Fill-272" fill="#E6E7E8"></path>
            <path d="M66.2639095,363.08706 C61.2926444,363.08706 57.262601,367.112163 57.262601,372.07684 C57.262601,377.041518 61.2926444,381.06662 66.2639095,381.06662 C71.2343512,381.06662 75.2643946,377.041518 75.2643946,372.07684 C75.2643946,367.112163 71.2343512,363.08706 66.2639095,363.08706" id="Fill-274" fill="#E6E7E8"></path>
            <path d="M66.2639095,340.363759 C61.2926444,340.363759 57.262601,344.388861 57.262601,349.353539 C57.262601,354.318216 61.2926444,358.343319 66.2639095,358.343319 C71.2343512,358.343319 75.2643946,354.318216 75.2643946,349.353539 C75.2643946,344.388861 71.2343512,340.363759 66.2639095,340.363759" id="Fill-276" fill="#E6E7E8"></path>
            <path d="M66.2639095,181.300072 C61.2926444,181.300072 57.262601,185.325175 57.262601,190.289852 C57.262601,195.25453 61.2926444,199.279632 66.2639095,199.279632 C71.2343512,199.279632 75.2643946,195.25453 75.2643946,190.289852 C75.2643946,185.325175 71.2343512,181.300072 66.2639095,181.300072" id="Fill-278" fill="#E6E7E8"></path>
            <path d="M66.2639095,204.023456 C61.2926444,204.023456 57.262601,208.048559 57.262601,213.013236 C57.262601,217.977914 61.2926444,222.003016 66.2639095,222.003016 C71.2343512,222.003016 75.2643946,217.977914 75.2643946,213.013236 C75.2643946,208.048559 71.2343512,204.023456 66.2639095,204.023456" id="Fill-280" fill="#E6E7E8"></path>
            <path d="M66.2639095,226.746758 C61.2926444,226.746758 57.262601,230.77186 57.262601,235.736538 C57.262601,240.701215 61.2926444,244.726317 66.2639095,244.726317 C71.2343512,244.726317 75.2643946,240.701215 75.2643946,235.736538 C75.2643946,230.77186 71.2343512,226.746758 66.2639095,226.746758" id="Fill-282" fill="#E6E7E8"></path>
            <path d="M43.5401964,158.576771 C38.5689312,158.576771 34.5397113,162.601873 34.5397113,167.566551 C34.5397113,172.531228 38.5689312,176.556331 43.5401964,176.556331 C48.5114615,176.556331 52.5406814,172.531228 52.5406814,167.566551 C52.5406814,162.601873 48.5114615,158.576771 43.5401964,158.576771" id="Fill-284" fill="#E6E7E8"></path>
            <path d="M66.2639095,249.470059 C61.2926444,249.470059 57.262601,253.495162 57.262601,258.459839 C57.262601,263.42534 61.2926444,267.449619 66.2639095,267.449619 C71.2343512,267.449619 75.2643946,263.42534 75.2643946,258.459839 C75.2643946,253.495162 71.2343512,249.470059 66.2639095,249.470059" id="Fill-286" fill="#E6E7E8"></path>
            <path d="M43.5401964,181.300072 C38.5689312,181.300072 34.5397113,185.325175 34.5397113,190.289852 C34.5397113,195.25453 38.5689312,199.279632 43.5401964,199.279632 C48.5114615,199.279632 52.5406814,195.25453 52.5406814,190.289852 C52.5406814,185.325175 48.5114615,181.300072 43.5401964,181.300072" id="Fill-288" fill="#E6E7E8"></path>
            <path d="M43.5401964,381.067032 C48.5114615,381.067032 52.5406814,377.041929 52.5406814,372.077252 C52.5406814,367.111751 48.5114615,363.087472 43.5401964,363.087472 C38.5689312,363.087472 34.5397113,367.111751 34.5397113,372.077252 C34.5397113,372.409109 34.560298,372.736025 34.595707,373.058824 C35.9083121,375.259949 37.2439742,377.445428 38.6224565,379.600439 C40.0363479,380.525191 41.72363,381.067032 43.5401964,381.067032" id="Fill-290" fill="#E6E7E8"></path>
            <path d="M43.5401964,385.810362 C43.2783341,385.810362 43.0205892,385.827654 42.7644913,385.849065 C45.6630921,390.090739 48.6885068,394.237714 51.8390883,398.283403 C52.2903477,397.212074 52.5406814,396.035341 52.5406814,394.800142 C52.5406814,389.835464 48.5114615,385.810362 43.5401964,385.810362" id="Fill-292" fill="#E6E7E8"></path>
            <path d="M29.8174623,349.343081 C29.8174623,344.378403 25.787419,340.353301 20.8169773,340.353301 C19.9770418,340.353301 19.1675746,340.476821 18.3968103,340.691745 C20.6555779,346.184265 23.1070367,351.576321 25.7437753,356.861327 C28.195234,355.255568 29.8174623,352.490368 29.8174623,349.343081" id="Fill-294" fill="#E6E7E8"></path>
            <path d="M66.2639095,408.533745 C64.5074562,408.533745 62.8745228,409.044294 61.4894528,409.913051 C65.3770365,414.321066 69.4194318,418.588267 73.6092276,422.707245 C74.6484419,421.241475 75.2643946,419.4562 75.2643946,417.523525 C75.2643946,412.558848 71.2343512,408.533745 66.2639095,408.533745" id="Fill-296" fill="#E6E7E8"></path>
            <path d="M5.39213871,298.66088 C5.87880721,300.944352 6.39923782,303.214648 6.94848974,305.474239 C7.03824755,304.964513 7.09341978,304.442436 7.09341978,303.907183 C7.09341978,301.94651 6.45852738,300.138178 5.39213871,298.66088" id="Fill-298" fill="#E6E7E8"></path>
            <path d="M20.8168126,335.609477 C25.7880778,335.609477 29.8172976,331.584374 29.8172976,326.619697 C29.8172976,321.65502 25.7880778,317.629917 20.8168126,317.629917 C16.7735938,317.629917 13.3537389,320.292183 12.218179,323.957431 C13.3364461,327.36411 14.5271781,330.737028 15.7887283,334.076183 C17.2240298,335.043756 18.9541322,335.609477 20.8168126,335.609477" id="Fill-300" fill="#E6E7E8"></path>
            <path d="M112.698836,454.037497 C114.878551,455.446447 117.081323,456.823283 119.307976,458.164709 C117.878439,455.915 115.482976,454.341356 112.698836,454.037497" id="Fill-302" fill="#E6E7E8"></path>
            <path d="M179.880499,476.704061 C176.277011,476.704061 173.175838,478.824487 171.738889,481.88037 C177.352458,483.65988 183.054138,485.240112 188.833223,486.620241 C188.864515,486.315558 188.880984,486.006759 188.880984,485.693841 C188.880984,480.729164 184.850941,476.704061 179.880499,476.704061" id="Fill-304" fill="#E6E7E8"></path>
            <path d="M43.5401964,135.853469 C38.5689312,135.853469 34.5397113,139.878572 34.5397113,144.843249 C34.5397113,149.807927 38.5689312,153.833029 43.5401964,153.833029 C48.5114615,153.833029 52.5406814,149.807927 52.5406814,144.843249 C52.5406814,139.878572 48.5114615,135.853469 43.5401964,135.853469" id="Fill-306" fill="#E6E7E8"></path>
            <path d="M88.987211,431.257047 C87.2554616,431.257047 85.6447618,431.753597 84.2720438,432.599297 C88.5326576,436.322187 92.9242026,439.89603 97.4359737,443.322473 C97.7867703,442.361488 97.987696,441.328861 97.987696,440.246827 C97.987696,435.282149 93.9576527,431.257047 88.987211,431.257047" id="Fill-308" fill="#E6E7E8"></path>
            <g id="Group-312" transform="translate(238.805184, 476.069663)">
                <mask id="mask-44" fill="white">
                    <use xlink:href="#path-43"></use>
                </mask>
                <g id="Clip-311"></g>
                <path d="M7.43186437,0.81696077 C3.33017947,1.65524931 0.244651794,5.28014731 0.244651794,9.62393127 C0.244651794,12.8494482 1.95087366,15.6698198 4.5044422,17.2558156 C5.48107306,17.2673441 6.45358658,17.2928715 7.43186437,17.2928715 L7.43186437,0.81696077 Z" id="Fill-310" fill="#E6E7E8" mask="url(#mask-44)"></path>
            </g>
            <path d="M143.434052,462.97054 C143.434052,458.005863 139.404008,453.98076 134.433567,453.98076 C129.86827,453.98076 126.106677,457.378381 125.521193,461.778161 C130.423287,464.540066 135.42502,467.143043 140.52804,469.572268 C142.310844,467.929453 143.434052,465.584222 143.434052,462.97054" id="Fill-313" fill="#E6E7E8"></path>
            <path d="M3.43443028,205.789379 C2.56402656,210.943454 1.84184674,216.148583 1.29671215,221.406415 C4.68362843,220.11522 7.09391386,216.849353 7.09391386,213.012824 C7.09391386,210.048346 5.6503777,207.427253 3.43443028,205.789379" id="Fill-315" fill="#E6E7E8"></path>
            <path d="M157.062334,476.70892 C159.066651,477.487095 161.08332,478.237273 163.111517,478.965217 C161.523874,477.562031 159.443798,476.703979 157.157033,476.703979 C157.124918,476.703979 157.094449,476.70892 157.062334,476.70892" id="Fill-317" fill="#E6E7E8"></path>
            <path d="M20.8168126,294.906204 C15.8455474,294.906204 11.8163276,298.931306 11.8163276,303.895984 C11.8163276,308.861485 15.8455474,312.885764 20.8168126,312.885764 C25.7880778,312.885764 29.8172976,308.861485 29.8172976,303.895984 C29.8172976,298.931306 25.7880778,294.906204 20.8168126,294.906204" id="Fill-319" fill="#E6E7E8"></path>
            <path d="M20.8168126,249.459601 C15.8455474,249.459601 11.8163276,253.484703 11.8163276,258.449381 C11.8163276,263.414058 15.8455474,267.439161 20.8168126,267.439161 C25.7880778,267.439161 29.8172976,263.414058 29.8172976,258.449381 C29.8172976,253.484703 25.7880778,249.459601 20.8168126,249.459601" id="Fill-321" fill="#E6E7E8"></path>
            <path d="M20.8168126,272.182902 C15.8455474,272.182902 11.8163276,276.208005 11.8163276,281.172682 C11.8163276,286.13736 15.8455474,290.162462 20.8168126,290.162462 C25.7880778,290.162462 29.8172976,286.13736 29.8172976,281.172682 C29.8172976,276.208005 25.7880778,272.182902 20.8168126,272.182902" id="Fill-323" fill="#E6E7E8"></path>
            <path d="M20.8168126,176.545873 C25.7880778,176.545873 29.8172976,172.52077 29.8172976,167.556093 C29.8172976,162.591415 25.7880778,158.566313 20.8168126,158.566313 C18.9566026,158.566313 17.2281471,159.130387 15.7936691,160.09549 C14.5312955,163.438762 13.3389165,166.81415 12.219826,170.224123 C13.3578562,173.886077 16.7760642,176.545873 20.8168126,176.545873" id="Fill-325" fill="#E6E7E8"></path>
            <path d="M20.8168126,226.7363 C15.8455474,226.7363 11.8163276,230.761402 11.8163276,235.726079 C11.8163276,240.690757 15.8455474,244.715859 20.8168126,244.715859 C25.7880778,244.715859 29.8172976,240.690757 29.8172976,235.726079 C29.8172976,230.761402 25.7880778,226.7363 20.8168126,226.7363" id="Fill-327" fill="#E6E7E8"></path>
            <path d="M20.8168126,153.822571 C25.7880778,153.822571 29.8172976,149.797469 29.8172976,144.832791 C29.8172976,141.687151 28.1967162,138.922775 25.7477279,137.316192 C23.1109893,142.601198 20.6595306,147.992431 18.4007629,153.48495 C19.1707038,153.699051 19.9785241,153.822571 20.8168126,153.822571" id="Fill-329" fill="#E6E7E8"></path>
            <path d="M1.29811204,272.790867 C1.84324664,278.047875 2.56542645,283.252181 3.43583017,288.406256 C5.65177759,286.768382 7.09366682,284.147289 7.09366682,281.183634 C7.09366682,277.347929 4.68420486,274.082062 1.29811204,272.790867" id="Fill-331" fill="#E6E7E8"></path>
            <path d="M20.8168126,204.012998 C15.8455474,204.012998 11.8163276,208.038101 11.8163276,213.002778 C11.8163276,217.967455 15.8455474,221.992558 20.8168126,221.992558 C25.7880778,221.992558 29.8172976,217.967455 29.8172976,213.002778 C29.8172976,208.038101 25.7880778,204.012998 20.8168126,204.012998" id="Fill-333" fill="#E6E7E8"></path>
            <path d="M0.00016469323,249.676749 C0.0602777223,255.515947 0.314728763,261.308208 0.774222876,267.04365 C4.43617685,265.904796 7.09350213,262.492353 7.09350213,258.460662 C7.09350213,254.148994 4.05408856,250.55127 0.00016469323,249.676749" id="Fill-335" fill="#E6E7E8"></path>
            <g id="Group-339" transform="translate(0.000000, 226.559419)">
                <mask id="mask-46" fill="white">
                    <use xlink:href="#path-45"></use>
                </mask>
                <g id="Clip-338"></g>
                <path d="M0.773811143,0.593060323 C0.31431703,6.32850207 0.0598659893,12.1215865 -0.000247039846,17.9607849 C4.05450029,17.0862639 7.09391386,13.4885403 7.09391386,9.17769496 C7.09391386,5.14435775 4.43576512,1.73273748 0.773811143,0.593060323" id="Fill-337" fill="#E6E7E8" mask="url(#mask-46)"></path>
            </g>
            <path d="M7.09374917,190.289852 C7.09374917,189.752129 7.03775347,189.227581 6.94717219,188.715385 C6.3970968,190.979093 5.87584273,193.253507 5.38917423,195.540272 C6.45720983,194.062151 7.09374917,192.252172 7.09374917,190.289852" id="Fill-340" fill="#E6E7E8"></path>
            <path d="M20.8168126,181.289614 C15.8455474,181.289614 11.8163276,185.314717 11.8163276,190.279394 C11.8163276,195.244072 15.8455474,199.269174 20.8168126,199.269174 C25.7880778,199.269174 29.8172976,195.244072 29.8172976,190.279394 C29.8172976,185.314717 25.7880778,181.289614 20.8168126,181.289614" id="Fill-342" fill="#E6E7E8"></path>
            <path d="M66.2639095,135.853469 C61.2926444,135.853469 57.262601,139.878572 57.262601,144.843249 C57.262601,149.807927 61.2926444,153.833029 66.2639095,153.833029 C71.2343512,153.833029 75.2643946,149.807927 75.2643946,144.843249 C75.2643946,139.878572 71.2343512,135.853469 66.2639095,135.853469" id="Fill-344" fill="#E6E7E8"></path>
            <path d="M134.433896,67.6830711 C129.462631,67.6830711 125.432588,71.7081737 125.432588,76.6728511 C125.432588,81.6375285 129.462631,85.6626311 134.433896,85.6626311 C139.404338,85.6626311 143.434381,81.6375285 143.434381,76.6728511 C143.434381,71.7081737 139.404338,67.6830711 134.433896,67.6830711" id="Fill-346" fill="#E6E7E8"></path>
            <path d="M88.987211,90.4063725 C84.0159458,90.4063725 79.9859025,94.4314751 79.9859025,99.3961525 C79.9859025,104.361653 84.0159458,108.385932 88.987211,108.385932 C93.9576527,108.385932 97.987696,104.361653 97.987696,99.3961525 C97.987696,94.4314751 93.9576527,90.4063725 88.987211,90.4063725" id="Fill-348" fill="#E6E7E8"></path>
            <path d="M111.710512,272.19336 C106.739247,272.19336 102.709204,276.218463 102.709204,281.18314 C102.709204,286.148641 106.739247,290.17292 111.710512,290.17292 C116.680954,290.17292 120.710997,286.148641 120.710997,281.18314 C120.710997,276.218463 116.680954,272.19336 111.710512,272.19336" id="Fill-350" fill="#E6E7E8"></path>
            <path d="M111.710512,408.533745 C106.739247,408.533745 102.709204,412.558848 102.709204,417.523525 C102.709204,422.489026 106.739247,426.513305 111.710512,426.513305 C116.680954,426.513305 120.710997,422.489026 120.710997,417.523525 C120.710997,412.558848 116.680954,408.533745 111.710512,408.533745" id="Fill-352" fill="#E6E7E8"></path>
            <path d="M134.433896,113.129756 C129.462631,113.129756 125.432588,117.154859 125.432588,122.119536 C125.432588,127.085037 129.462631,131.109316 134.433896,131.109316 C139.404338,131.109316 143.434381,127.085037 143.434381,122.119536 C143.434381,117.154859 139.404338,113.129756 134.433896,113.129756" id="Fill-354" fill="#E6E7E8"></path>
            <path d="M134.433896,135.853469 C129.462631,135.853469 125.432588,139.878572 125.432588,144.843249 C125.432588,149.807927 129.462631,153.833029 134.433896,153.833029 C139.404338,153.833029 143.434381,149.807927 143.434381,144.843249 C143.434381,139.878572 139.404338,135.853469 134.433896,135.853469" id="Fill-356" fill="#E6E7E8"></path>
            <path d="M111.710512,317.640457 C106.739247,317.640457 102.709204,321.66556 102.709204,326.630237 C102.709204,331.594915 106.739247,335.620017 111.710512,335.620017 C116.680954,335.620017 120.710997,331.594915 120.710997,326.630237 C120.710997,321.66556 116.680954,317.640457 111.710512,317.640457" id="Fill-358" fill="#E6E7E8"></path>
            <path d="M111.710512,340.363759 C106.739247,340.363759 102.709204,344.388861 102.709204,349.353539 C102.709204,354.318216 106.739247,358.343319 111.710512,358.343319 C116.680954,358.343319 120.710997,354.318216 120.710997,349.353539 C120.710997,344.388861 116.680954,340.363759 111.710512,340.363759" id="Fill-360" fill="#E6E7E8"></path>
            <path d="M134.433896,158.576771 C129.462631,158.576771 125.432588,162.601873 125.432588,167.566551 C125.432588,172.531228 129.462631,176.556331 134.433896,176.556331 C139.404338,176.556331 143.434381,172.531228 143.434381,167.566551 C143.434381,162.601873 139.404338,158.576771 134.433896,158.576771" id="Fill-362" fill="#E6E7E8"></path>
            <path d="M111.710512,431.257047 C106.739247,431.257047 102.709204,435.282149 102.709204,440.246827 C102.709204,445.212328 106.739247,449.236607 111.710512,449.236607 C116.680954,449.236607 120.710997,445.212328 120.710997,440.246827 C120.710997,435.282149 116.680954,431.257047 111.710512,431.257047" id="Fill-364" fill="#E6E7E8"></path>
            <path d="M111.710512,294.917074 C106.739247,294.917074 102.709204,298.942176 102.709204,303.906854 C102.709204,308.871531 106.739247,312.896634 111.710512,312.896634 C116.680954,312.896634 120.710997,308.871531 120.710997,303.906854 C120.710997,298.942176 116.680954,294.917074 111.710512,294.917074" id="Fill-366" fill="#E6E7E8"></path>
            <path d="M111.710512,363.08706 C106.739247,363.08706 102.709204,367.112163 102.709204,372.07684 C102.709204,377.041518 106.739247,381.06662 111.710512,381.06662 C116.680954,381.06662 120.710997,377.041518 120.710997,372.07684 C120.710997,367.112163 116.680954,363.08706 111.710512,363.08706" id="Fill-368" fill="#E6E7E8"></path>
            <path d="M111.710512,385.810362 C106.739247,385.810362 102.709204,389.835464 102.709204,394.800142 C102.709204,399.764819 106.739247,403.789922 111.710512,403.789922 C116.680954,403.789922 120.710997,399.764819 120.710997,394.800142 C120.710997,389.835464 116.680954,385.810362 111.710512,385.810362" id="Fill-370" fill="#E6E7E8"></path>
            <path d="M134.433896,90.4063725 C129.462631,90.4063725 125.432588,94.4314751 125.432588,99.3961525 C125.432588,104.361653 129.462631,108.385932 134.433896,108.385932 C139.404338,108.385932 143.434381,104.361653 143.434381,99.3961525 C143.434381,94.4314751 139.404338,90.4063725 134.433896,90.4063725" id="Fill-372" fill="#E6E7E8"></path>
            <path d="M134.433896,363.08706 C129.462631,363.08706 125.432588,367.112163 125.432588,372.07684 C125.432588,377.041518 129.462631,381.06662 134.433896,381.06662 C139.404338,381.06662 143.434381,377.041518 143.434381,372.07684 C143.434381,367.112163 139.404338,363.08706 134.433896,363.08706" id="Fill-374" fill="#E6E7E8"></path>
            <path d="M134.433896,340.363759 C129.462631,340.363759 125.432588,344.388861 125.432588,349.353539 C125.432588,354.318216 129.462631,358.343319 134.433896,358.343319 C139.404338,358.343319 143.434381,354.318216 143.434381,349.353539 C143.434381,344.388861 139.404338,340.363759 134.433896,340.363759" id="Fill-376" fill="#E6E7E8"></path>
            <path d="M134.433896,385.810362 C129.462631,385.810362 125.432588,389.835464 125.432588,394.800142 C125.432588,399.764819 129.462631,403.789922 134.433896,403.789922 C139.404338,403.789922 143.434381,399.764819 143.434381,394.800142 C143.434381,389.835464 139.404338,385.810362 134.433896,385.810362" id="Fill-378" fill="#E6E7E8"></path>
            <path d="M134.433896,317.640457 C129.462631,317.640457 125.432588,321.66556 125.432588,326.630237 C125.432588,331.594915 129.462631,335.620017 134.433896,335.620017 C139.404338,335.620017 143.434381,331.594915 143.434381,326.630237 C143.434381,321.66556 139.404338,317.640457 134.433896,317.640457" id="Fill-380" fill="#E6E7E8"></path>
            <path d="M134.433896,408.533745 C129.462631,408.533745 125.432588,412.558848 125.432588,417.523525 C125.432588,422.489026 129.462631,426.513305 134.433896,426.513305 C139.404338,426.513305 143.434381,422.489026 143.434381,417.523525 C143.434381,412.558848 139.404338,408.533745 134.433896,408.533745" id="Fill-382" fill="#E6E7E8"></path>
            <path d="M134.433896,431.257047 C129.462631,431.257047 125.432588,435.282149 125.432588,440.246827 C125.432588,445.212328 129.462631,449.236607 134.433896,449.236607 C139.404338,449.236607 143.434381,445.212328 143.434381,440.246827 C143.434381,435.282149 139.404338,431.257047 134.433896,431.257047" id="Fill-384" fill="#E6E7E8"></path>
            <path d="M134.433896,226.746758 C129.462631,226.746758 125.432588,230.77186 125.432588,235.736538 C125.432588,240.701215 129.462631,244.726317 134.433896,244.726317 C139.404338,244.726317 143.434381,240.701215 143.434381,235.736538 C143.434381,230.77186 139.404338,226.746758 134.433896,226.746758" id="Fill-386" fill="#E6E7E8"></path>
            <path d="M134.433896,181.300072 C129.462631,181.300072 125.432588,185.325175 125.432588,190.289852 C125.432588,195.25453 129.462631,199.279632 134.433896,199.279632 C139.404338,199.279632 143.434381,195.25453 143.434381,190.289852 C143.434381,185.325175 139.404338,181.300072 134.433896,181.300072" id="Fill-388" fill="#E6E7E8"></path>
            <path d="M134.433896,294.917074 C129.462631,294.917074 125.432588,298.942176 125.432588,303.906854 C125.432588,308.871531 129.462631,312.896634 134.433896,312.896634 C139.404338,312.896634 143.434381,308.871531 143.434381,303.906854 C143.434381,298.942176 139.404338,294.917074 134.433896,294.917074" id="Fill-390" fill="#E6E7E8"></path>
            <path d="M134.433896,204.023456 C129.462631,204.023456 125.432588,208.048559 125.432588,213.013236 C125.432588,217.977914 129.462631,222.003016 134.433896,222.003016 C139.404338,222.003016 143.434381,217.977914 143.434381,213.013236 C143.434381,208.048559 139.404338,204.023456 134.433896,204.023456" id="Fill-392" fill="#E6E7E8"></path>
            <path d="M134.433896,249.470059 C129.462631,249.470059 125.432588,253.495162 125.432588,258.459839 C125.432588,263.42534 129.462631,267.449619 134.433896,267.449619 C139.404338,267.449619 143.434381,263.42534 143.434381,258.459839 C143.434381,253.495162 139.404338,249.470059 134.433896,249.470059" id="Fill-394" fill="#E6E7E8"></path>
            <path d="M134.433896,272.19336 C129.462631,272.19336 125.432588,276.218463 125.432588,281.18314 C125.432588,286.148641 129.462631,290.17292 134.433896,290.17292 C139.404338,290.17292 143.434381,286.148641 143.434381,281.18314 C143.434381,276.218463 139.404338,272.19336 134.433896,272.19336" id="Fill-396" fill="#E6E7E8"></path>
            <path d="M134.433896,44.9597697 C129.462631,44.9597697 125.432588,48.9848722 125.432588,53.9495497 C125.432588,58.9142271 129.462631,62.9393296 134.433896,62.9393296 C139.404338,62.9393296 143.434381,58.9142271 143.434381,53.9495497 C143.434381,48.9848722 139.404338,44.9597697 134.433896,44.9597697" id="Fill-398" fill="#E6E7E8"></path>
            <path d="M88.987211,317.640457 C84.0159458,317.640457 79.9859025,321.66556 79.9859025,326.630237 C79.9859025,331.594915 84.0159458,335.620017 88.987211,335.620017 C93.9576527,335.620017 97.987696,331.594915 97.987696,326.630237 C97.987696,321.66556 93.9576527,317.640457 88.987211,317.640457" id="Fill-400" fill="#E6E7E8"></path>
            <path d="M88.987211,294.917074 C84.0159458,294.917074 79.9859025,298.942176 79.9859025,303.906854 C79.9859025,308.871531 84.0159458,312.896634 88.987211,312.896634 C93.9576527,312.896634 97.987696,308.871531 97.987696,303.906854 C97.987696,298.942176 93.9576527,294.917074 88.987211,294.917074" id="Fill-402" fill="#E6E7E8"></path>
            <path d="M88.987211,408.533745 C84.0159458,408.533745 79.9859025,412.558848 79.9859025,417.523525 C79.9859025,422.489026 84.0159458,426.513305 88.987211,426.513305 C93.9576527,426.513305 97.987696,422.489026 97.987696,417.523525 C97.987696,412.558848 93.9576527,408.533745 88.987211,408.533745" id="Fill-404" fill="#E6E7E8"></path>
            <path d="M88.987211,340.363759 C84.0159458,340.363759 79.9859025,344.388861 79.9859025,349.353539 C79.9859025,354.318216 84.0159458,358.343319 88.987211,358.343319 C93.9576527,358.343319 97.987696,354.318216 97.987696,349.353539 C97.987696,344.388861 93.9576527,340.363759 88.987211,340.363759" id="Fill-406" fill="#E6E7E8"></path>
            <path d="M88.987211,249.470059 C84.0159458,249.470059 79.9859025,253.495162 79.9859025,258.459839 C79.9859025,263.42534 84.0159458,267.449619 88.987211,267.449619 C93.9576527,267.449619 97.987696,263.42534 97.987696,258.459839 C97.987696,253.495162 93.9576527,249.470059 88.987211,249.470059" id="Fill-408" fill="#E6E7E8"></path>
            <path d="M88.987211,363.08706 C84.0159458,363.08706 79.9859025,367.112163 79.9859025,372.07684 C79.9859025,377.041518 84.0159458,381.06662 88.987211,381.06662 C93.9576527,381.06662 97.987696,377.041518 97.987696,372.07684 C97.987696,367.112163 93.9576527,363.08706 88.987211,363.08706" id="Fill-410" fill="#E6E7E8"></path>
            <path d="M88.987211,272.19336 C84.0159458,272.19336 79.9859025,276.218463 79.9859025,281.18314 C79.9859025,286.148641 84.0159458,290.17292 88.987211,290.17292 C93.9576527,290.17292 97.987696,286.148641 97.987696,281.18314 C97.987696,276.218463 93.9576527,272.19336 88.987211,272.19336" id="Fill-412" fill="#E6E7E8"></path>
            <path d="M88.987211,135.853469 C84.0159458,135.853469 79.9859025,139.878572 79.9859025,144.843249 C79.9859025,149.807927 84.0159458,153.833029 88.987211,153.833029 C93.9576527,153.833029 97.987696,149.807927 97.987696,144.843249 C97.987696,139.878572 93.9576527,135.853469 88.987211,135.853469" id="Fill-414" fill="#E6E7E8"></path>
            <path d="M88.987211,158.576771 C84.0159458,158.576771 79.9859025,162.601873 79.9859025,167.566551 C79.9859025,172.531228 84.0159458,176.556331 88.987211,176.556331 C93.9576527,176.556331 97.987696,172.531228 97.987696,167.566551 C97.987696,162.601873 93.9576527,158.576771 88.987211,158.576771" id="Fill-416" fill="#E6E7E8"></path>
            <path d="M88.987211,226.746758 C84.0159458,226.746758 79.9859025,230.77186 79.9859025,235.736538 C79.9859025,240.701215 84.0159458,244.726317 88.987211,244.726317 C93.9576527,244.726317 97.987696,240.701215 97.987696,235.736538 C97.987696,230.77186 93.9576527,226.746758 88.987211,226.746758" id="Fill-418" fill="#E6E7E8"></path>
            <path d="M88.987211,113.129756 C84.0159458,113.129756 79.9859025,117.154859 79.9859025,122.119536 C79.9859025,127.085037 84.0159458,131.109316 88.987211,131.109316 C93.9576527,131.109316 97.987696,127.085037 97.987696,122.119536 C97.987696,117.154859 93.9576527,113.129756 88.987211,113.129756" id="Fill-420" fill="#E6E7E8"></path>
            <path d="M88.987211,181.300072 C84.0159458,181.300072 79.9859025,185.325175 79.9859025,190.289852 C79.9859025,195.25453 84.0159458,199.279632 88.987211,199.279632 C93.9576527,199.279632 97.987696,195.25453 97.987696,190.289852 C97.987696,185.325175 93.9576527,181.300072 88.987211,181.300072" id="Fill-422" fill="#E6E7E8"></path>
            <path d="M88.987211,204.023456 C84.0159458,204.023456 79.9859025,208.048559 79.9859025,213.013236 C79.9859025,217.977914 84.0159458,222.003016 88.987211,222.003016 C93.9576527,222.003016 97.987696,217.977914 97.987696,213.013236 C97.987696,208.048559 93.9576527,204.023456 88.987211,204.023456" id="Fill-424" fill="#E6E7E8"></path>
            <path d="M111.710512,44.9597697 C106.739247,44.9597697 102.709204,48.9848722 102.709204,53.9495497 C102.709204,58.9142271 106.739247,62.9393296 111.710512,62.9393296 C116.680954,62.9393296 120.710997,58.9142271 120.710997,53.9495497 C120.710997,48.9848722 116.680954,44.9597697 111.710512,44.9597697" id="Fill-426" fill="#E6E7E8"></path>
            <path d="M111.710512,181.300072 C106.739247,181.300072 102.709204,185.325175 102.709204,190.289852 C102.709204,195.25453 106.739247,199.279632 111.710512,199.279632 C116.680954,199.279632 120.710997,195.25453 120.710997,190.289852 C120.710997,185.325175 116.680954,181.300072 111.710512,181.300072" id="Fill-428" fill="#E6E7E8"></path>
            <path d="M111.710512,158.576771 C106.739247,158.576771 102.709204,162.601873 102.709204,167.566551 C102.709204,172.531228 106.739247,176.556331 111.710512,176.556331 C116.680954,176.556331 120.710997,172.531228 120.710997,167.566551 C120.710997,162.601873 116.680954,158.576771 111.710512,158.576771" id="Fill-430" fill="#E6E7E8"></path>
            <path d="M111.710512,135.853469 C106.739247,135.853469 102.709204,139.878572 102.709204,144.843249 C102.709204,149.807927 106.739247,153.833029 111.710512,153.833029 C116.680954,153.833029 120.710997,149.807927 120.710997,144.843249 C120.710997,139.878572 116.680954,135.853469 111.710512,135.853469" id="Fill-432" fill="#E6E7E8"></path>
            <path d="M111.710512,113.129756 C106.739247,113.129756 102.709204,117.154859 102.709204,122.119536 C102.709204,127.085037 106.739247,131.109316 111.710512,131.109316 C116.680954,131.109316 120.710997,127.085037 120.710997,122.119536 C120.710997,117.154859 116.680954,113.129756 111.710512,113.129756" id="Fill-434" fill="#E6E7E8"></path>
            <path d="M88.987211,385.810362 C84.0159458,385.810362 79.9859025,389.835464 79.9859025,394.800142 C79.9859025,399.764819 84.0159458,403.789922 88.987211,403.789922 C93.9576527,403.789922 97.987696,399.764819 97.987696,394.800142 C97.987696,389.835464 93.9576527,385.810362 88.987211,385.810362" id="Fill-436" fill="#E6E7E8"></path>
            <path d="M111.710512,226.746758 C106.739247,226.746758 102.709204,230.77186 102.709204,235.736538 C102.709204,240.701215 106.739247,244.726317 111.710512,244.726317 C116.680954,244.726317 120.710997,240.701215 120.710997,235.736538 C120.710997,230.77186 116.680954,226.746758 111.710512,226.746758" id="Fill-438" fill="#E6E7E8"></path>
            <path d="M111.710512,204.023456 C106.739247,204.023456 102.709204,208.048559 102.709204,213.013236 C102.709204,217.977914 106.739247,222.003016 111.710512,222.003016 C116.680954,222.003016 120.710997,217.977914 120.710997,213.013236 C120.710997,208.048559 116.680954,204.023456 111.710512,204.023456" id="Fill-440" fill="#E6E7E8"></path>
            <path d="M119.31794,36.015445 C117.080582,37.3634591 114.867929,38.7460588 112.678332,40.1624206 C115.477294,39.8635023 117.886756,38.2799769 119.31794,36.015445" id="Fill-442" fill="#E6E7E8"></path>
            <path d="M97.987449,53.9495497 C97.987449,52.8650447 97.7848763,51.8291243 97.4324328,50.8664924 C92.9198383,54.2937585 88.5266463,57.8692485 84.265209,61.5929625 C85.639574,62.4419561 87.2527442,62.9393296 88.9869639,62.9393296 C93.9574056,62.9393296 97.987449,58.9142271 97.987449,53.9495497" id="Fill-444" fill="#E6E7E8"></path>
            <path d="M111.710512,90.4063725 C106.739247,90.4063725 102.709204,94.4314751 102.709204,99.3961525 C102.709204,104.361653 106.739247,108.385932 111.710512,108.385932 C116.680954,108.385932 120.710997,104.361653 120.710997,99.3961525 C120.710997,94.4314751 116.680954,90.4063725 111.710512,90.4063725" id="Fill-446" fill="#E6E7E8"></path>
            <path d="M111.710512,249.470059 C106.739247,249.470059 102.709204,253.495162 102.709204,258.459839 C102.709204,263.42534 106.739247,267.449619 111.710512,267.449619 C116.680954,267.449619 120.710997,263.42534 120.710997,258.459839 C120.710997,253.495162 116.680954,249.470059 111.710512,249.470059" id="Fill-448" fill="#E6E7E8"></path>
            <path d="M111.710512,67.6830711 C106.739247,67.6830711 102.709204,71.7081737 102.709204,76.6728511 C102.709204,81.6375285 106.739247,85.6626311 111.710512,85.6626311 C116.680954,85.6626311 120.710997,81.6375285 120.710997,76.6728511 C120.710997,71.7081737 116.680954,67.6830711 111.710512,67.6830711" id="Fill-450" fill="#E6E7E8"></path>
        </g>
    </g>
</svg>