<?xml version="1.0" encoding="UTF-8"?>
<svg width="190px" height="382px" viewBox="0 0 190 382" version="1.1" xmlns="http://www.w3.org/2000/svg" xmlns:xlink="http://www.w3.org/1999/xlink">
    <!-- Generator: Sketch 52.5 (67469) - http://www.bohemiancoding.com/sketch -->
    <title>Slice</title>
    <desc>Created with Sketch.</desc>
    <g id="Page-1" stroke="none" stroke-width="1" fill="none" fill-rule="evenodd">
        <g id="arrow" transform="translate(115.017347, 196.631404) rotate(-255.000000) translate(-115.017347, -196.631404) translate(-80.982653, 128.131404)" fill="#F34F3F" fill-rule="nonzero">
            <path d="M368.362821,90.669847 C368.468783,86.1910904 368.773251,81.6978011 369.234296,77.2677122 C369.509549,74.6228543 369.82282,72.1842752 370.149403,70.0030615 C370.265073,69.2305124 370.374768,68.5421804 370.475426,67.9445267 C370.511604,67.7297177 370.544367,67.5400607 370.573332,67.3763665 C370.590077,67.2821263 370.590077,67.2821263 370.601996,67.2160702 C370.607014,67.1884028 370.607014,67.1884028 370.610754,67.1679339 C370.613843,67.1510895 370.613843,67.1510895 370.615606,67.1415451 C371.44944,62.6340579 375.779437,59.6559734 380.286924,60.4898073 C384.793175,61.3234125 387.770862,65.6512621 386.939347,70.1574153 L386.936509,70.1730413 C386.930354,70.207144 386.930354,70.207144 386.919404,70.2687593 C386.89836,70.3876863 386.873394,70.532209 386.844885,70.7014833 C386.76072,71.2012102 386.666887,71.7900102 386.566407,72.4611031 C386.27542,74.4045804 385.993665,76.5978329 385.745124,78.9860143 C385.036348,85.7964977 384.739591,92.7561008 385.035174,99.4051485 C385.311846,105.628775 386.098774,111.191982 387.408976,115.885968 C387.795627,116.47329 388.154049,117.025903 388.484138,117.542424 C388.925609,118.233237 389.232448,118.727225 389.40359,119.010409 C390.309648,120.509639 390.685698,122.181081 390.585562,123.806489 C394.567388,131.263239 386.061917,139.258426 378.840679,134.724437 L378.835614,134.721302 C378.806926,134.703625 378.806926,134.703625 378.743952,134.665404 C378.614331,134.587064 378.452027,134.491185 378.257811,134.379159 C377.668334,134.039143 376.96003,133.650942 376.13912,133.225642 C363.625391,126.742481 347.938381,122.534745 331.149235,124.032634 C329.3921,124.189401 327.640135,124.410511 325.894122,124.697866 C321.371005,125.442268 317.100837,122.379015 316.356434,117.855899 C315.612031,113.332782 318.675284,109.062614 323.198401,108.318211 C325.352018,107.963774 327.511069,107.691287 329.67408,107.498308 C341.087619,106.480019 352.316366,107.673693 363.119353,110.560978 C363.085693,110.517657 363.05199,110.474305 363.018243,110.430923 C352.83004,97.3340712 340.813739,84.2267565 327.066047,72.0070095 C290.892515,39.8538745 249.536907,19.6320166 203.518256,16.9121513 C144.564063,13.4277496 81.2848884,39.0090561 13.8700993,100.032378 C10.4716535,103.108623 5.22287909,102.847428 2.14663349,99.4489825 C-0.929612117,96.0505367 -0.668417274,90.8017623 2.7300285,87.7255167 C73.2701496,23.8731701 140.793891,-3.42404948 204.497666,0.34106931 C254.655658,3.30558436 299.345834,25.1579628 338.094273,59.5998248 C349.293761,69.5545805 359.391421,80.0477772 368.362821,90.669847 Z" id="Combined-Shape"></path>
        </g>
    </g>
</svg>