<?xml version="1.0" encoding="UTF-8"?>
<svg width="146px" height="152px" viewBox="0 0 146 152" version="1.1" xmlns="http://www.w3.org/2000/svg" xmlns:xlink="http://www.w3.org/1999/xlink">
    <!-- Generator: Sketch 52.5 (67469) - http://www.bohemiancoding.com/sketch -->
    <title>icon-coins</title>
    <desc>Created with Sketch.</desc>
    <g id="Page-1" stroke="none" stroke-width="1" fill="none" fill-rule="evenodd">
        <g id="row-2">
            <g id="icon-coins" transform="translate(24.000000, 27.000000)">
                <path d="M-7.10542736e-15,48.0857838 C-7.10542736e-15,21.8418171 22,0 50.26,0 C76.64,0 98,21.8616913 98,48.0857838 C98,76.1581829 76.64,98 50.26,98 C21.98,98 0,76.1383087 0,48.0857838" id="Path" fill="#0073E3"></path>
                <path d="M44.87,17.03 C34.44,17.03 26.58,20.92 26.58,26.08 C26.58,28.9 28.94,31.34 32.76,32.97 C36.6141547,34.4845453 40.729755,35.2220228 44.87,35.14 C49.0103283,35.2230793 53.126134,34.4855649 56.98,32.97 C60.81,31.34 63.16,28.9 63.16,26.08 C63.16,20.92 55.3,17.03 44.87,17.03 Z M44.87,31.28 C36.17,31.28 30.62,28.21 30.62,26.1 C30.62,23.99 36.17,20.92 44.87,20.92 C53.57,20.92 59.12,23.99 59.12,26.1 C59.12,28.21 53.58,31.28 44.87,31.28 Z" id="Shape" fill="#000000" fill-rule="nonzero"></path>
                <path d="M61.28,35.57 C61.1362467,35.5052196 60.985132,35.4582062 60.83,35.43 C60.569038,35.3800222 60.300962,35.3800222 60.04,35.43 C59.4125528,35.5312796 58.8705958,35.9247552 58.58,36.49 C57.58,38.68 51.98,40.95 44.58,40.95 C36.97,40.95 31.34,38.55 30.49,36.33 C30.3419428,35.9609284 30.0834953,35.6466003 29.75,35.43 C29.2083744,35.0644677 28.5249374,34.9790381 27.91,35.2 C27.7513659,35.2584498 27.6002927,35.3356649 27.46,35.43 C26.7208547,35.8981611 26.4051316,36.8162505 26.7,37.64 C27.54,39.83 29.83,41.64 33.32,42.96 L33.71,43.1 C37.2164971,44.253101 40.8889965,44.8206998 44.58,44.78 C48.2847398,44.8299206 51.9719027,44.2621448 55.49,43.1 C58.8,41.92 61.23,40.21 62.25,38.1 C62.4670931,37.6371844 62.486356,37.1059192 62.3033509,36.6285967 C62.1203458,36.1512741 61.7508545,35.769057 61.28,35.57 Z" id="Path" fill="#000000"></path>
                <path d="M62.35,46.89 C62.1793083,46.3541731 61.7909181,45.9149656 61.28,45.68 C60.2815161,45.2275519 59.1035924,45.636309 58.6,46.61 C58.5506141,46.7043836 58.4937666,46.7946709 58.43,46.88 C57.05,48.98 51.67,51.06 44.58,51.06 C37.49,51.06 32.08,48.97 30.71,46.88 C30.6210363,46.7452168 30.5472544,46.6010066 30.49,46.45 C30.0658024,45.4484891 28.9360972,44.949317 27.91,45.31 C27.2144949,45.5451799 26.71134,46.1528362 26.61,46.88 C26.5654733,47.1762333 26.5964292,47.478913 26.7,47.76 C27.48,49.76 29.53,51.52 32.61,52.76 L33.32,53.05 C36.9373825,54.3170653 40.7473006,54.9464123 44.58,54.91 C48.6784923,54.9851898 52.7529853,54.2687582 56.58,52.8 C59.33,51.65 61.35,50.09 62.25,48.25 C62.4614727,47.8276188 62.4974174,47.3387702 62.35,46.89 Z" id="Path" fill="#000000"></path>
                <path d="M62.35,66.68 C62.1768892,66.1479394 61.7888191,65.7127206 61.28,65.48 C60.2815161,65.0275519 59.1035924,65.436309 58.6,66.41 C58.5506141,66.5043836 58.4937666,66.5946709 58.43,66.68 C57.05,68.78 51.67,70.86 44.58,70.86 C37.49,70.86 32.08,68.81 30.71,66.68 C30.623014,66.5440723 30.5493396,66.4000724 30.49,66.25 C30.0899866,65.2250137 28.9371708,64.71563 27.91,65.11 C27.1999959,65.3315515 26.6818188,65.9432342 26.58,66.68 C26.5354733,66.9762333 26.5664292,67.278913 26.67,67.56 C27.51,69.74 29.8,71.56 33.29,72.87 C36.9149888,74.1488885 40.7362583,74.7818179 44.58,74.74 C53.19,74.74 60.29,72.07 62.25,68.07 C62.4720055,67.6398348 62.5081437,67.137514 62.35,66.68 Z" id="Path" fill="#000000"></path>
                <path d="M62.35,56.6 C62.1793083,56.0641731 61.7909181,55.6249656 61.28,55.39 C60.2812757,54.9429411 59.1071194,55.3503909 58.6,56.32 C58.5484749,56.4163597 58.4917237,56.5098323 58.43,56.6 C57.05,58.68 51.67,60.78 44.58,60.78 C37.49,60.78 32.08,58.68 30.71,56.6 C30.6228195,56.4606754 30.5491514,56.3133392 30.49,56.16 C30.0860223,55.1389493 28.9343833,54.6345493 27.91,55.03 C27.2074103,55.2547915 26.6998126,55.8678134 26.61,56.6 C26.5658778,56.8929431 26.596845,57.1922925 26.7,57.47 C27.54,59.66 29.83,61.47 33.32,62.79 C36.9397906,64.0434637 40.7496439,64.6592659 44.58,64.61 C53.19,64.61 60.29,61.94 62.25,57.95 C62.4608946,57.5310265 62.4968614,57.0454739 62.35,56.6 Z" id="Path" fill="#000000"></path>
                <path d="M106.65,66.68 C106.476889,66.1479394 106.088819,65.7127206 105.58,65.48 C104.581516,65.0275519 103.403592,65.436309 102.9,66.41 C102.9,66.5 102.79,66.59 102.73,66.68 C101.35,68.78 95.97,70.86 88.87,70.86 C81.77,70.86 76.38,68.77 75.01,66.68 C74.9238335,66.5419541 74.8469954,66.3983002 74.78,66.25 C74.3799866,65.2250137 73.2271708,64.71563 72.2,65.11 C71.5031103,65.343164 70.9991012,65.9518519 70.9,66.68 C70.8639245,66.9771168 70.8981786,67.2785533 71,67.56 C71.83,69.74 74.13,71.56 77.61,72.87 C81.2283372,74.1302286 85.0388006,74.7495135 88.87,74.7 C97.49,74.7 104.59,72.03 106.55,68.03 C106.755671,67.6095961 106.791484,67.1261191 106.65,66.68 Z" id="Path" fill="#000000"></path>
                <path d="M105.58,55.39 C105.434324,55.3328989 105.283684,55.2893806 105.13,55.26 C104.865682,55.2099507 104.594318,55.2099507 104.33,55.26 C103.713703,55.3700481 103.184493,55.7623297 102.9,56.32 C101.82,58.51 96.28,60.78 88.9,60.78 C81.3,60.78 75.67,58.38 74.81,56.16 C74.668714,55.7899183 74.4129638,55.4746098 74.08,55.26 C73.5347088,54.8942721 72.8482447,54.8089279 72.23,55.03 C72.0704747,55.0863962 71.9191504,55.1637397 71.78,55.26 C71.0414491,55.7286729 70.7292489,56.6486228 71.03,57.47 C71.86,59.66 74.16,61.47 77.64,62.79 L78.04,62.92 C85.121749,65.1732812 92.728251,65.1732812 99.81,62.92 C103.12,61.75 105.56,60.03 106.58,57.92 C106.78955,57.4526646 106.801553,56.9205227 106.613289,56.444214 C106.425024,55.9679052 106.052439,55.5877747 105.58,55.39 Z" id="Path" fill="#000000"></path>
                <path d="M89.05,36.96 C78.7,36.96 70.91,40.85 70.91,46.01 C70.91,48.77 73.16,51.17 76.83,52.8 C80.7069909,54.3774248 84.8652838,55.1464708 89.05,55.06 C93.2347162,55.1464708 97.3930091,54.3774248 101.27,52.8 C104.94,51.17 107.19,48.8 107.19,46.01 C107.19,40.85 99.4,36.96 89.05,36.96 Z M89.05,51.19 C80.42,51.19 74.91,48.12 74.91,46.01 C74.91,43.9 80.42,40.83 89.05,40.83 C97.68,40.83 103.19,43.89 103.19,46.01 C103.19,48.13 97.68,51.19 89.05,51.19 Z" id="Shape" fill="#000000" fill-rule="nonzero"></path>
            </g>
        </g>
    </g>
</svg>