<?xml version="1.0" encoding="UTF-8"?>
<svg width="146px" height="152px" viewBox="0 0 146 152" version="1.1" xmlns="http://www.w3.org/2000/svg" xmlns:xlink="http://www.w3.org/1999/xlink">
    <!-- Generator: Sketch 52.5 (67469) - http://www.bohemiancoding.com/sketch -->
    <title>icon-hammer</title>
    <desc>Created with Sketch.</desc>
    <g id="Page-1" stroke="none" stroke-width="1" fill="none" fill-rule="evenodd">
        <g id="row-5" transform="translate(-146.000000, 0.000000)">
            <g id="icon-hammer" transform="translate(170.000000, 26.000000)">
                <path d="M50.2606433,1 C76.6350212,1 98,22.8418617 98,49.0859952 C98,77.1585259 76.6350212,99 50.2606433,99 C21.978518,99 0,77.1585259 0,49.0859952 C0,22.8418617 21.978518,1 50.2606433,1 Z" id="Fill-1" fill="#0073E3"></path>
                <g id="Group-6" transform="translate(21.107179, 0.000000)">
                    <polygon id="Clip-5" points="0.348909965 0.0195062795 85.0314146 0.0195062795 85.0314146 78.8040035 0.348909965 78.8040035"></polygon>
                    <path d="M40.4297093,36.0571626 C40.169393,36.3755051 14.4357744,67.9811395 11.8714824,70.9074715 C10.7697516,72.1648465 9.49486935,73.552523 8.30872236,74.105721 C7.66755118,74.405728 6.86814855,74.6284895 5.50884999,73.4510905 C3.61242823,71.8106125 6.26270709,67.2972495 7.07349607,66.1822705 C7.10726261,66.1358455 7.13945856,66.0886405 7.16929875,66.0398745 C7.22269697,65.954437 12.5927508,57.3474865 20.2396887,48.4772009 C29.7009879,37.5033581 38.4610429,30.9274012 45.6619487,29.3758717 L40.4297093,36.0571626 Z M74.8264026,46.8577895 C81.4846881,41.9753677 84.9170938,38.1150751 85.0282091,35.3841959 C85.0733621,34.2696071 84.6402869,33.259572 83.8079027,32.53901 C83.5452308,32.3111767 83.3002274,32.0969977 83.0677877,31.8921818 C80.6943162,29.8061803 79.3130301,28.7071965 73.9217738,26.5443402 C70.9758418,25.3630399 69.7249098,22.5120021 68.2768763,19.2115396 C67.3188496,17.0283968 66.3286269,14.77074 64.7416003,12.8556135 C60.2899176,7.48397425 54.0403636,3.26710675 47.5960633,1.28643913 C44.7848045,0.423091202 41.9751164,0.00370619311 39.3213038,0.0197013423 C38.8682043,0.0239927238 38.4060741,0.10045734 37.9164597,0.181213336 C37.632978,0.228418533 37.1732037,0.304493023 36.9635372,0.30917453 C35.8272547,0.0442792544 34.6623099,0.695398865 34.3109026,1.82013094 C33.9430046,2.99596946 34.605378,4.24554173 35.7887766,4.61069928 C43.2621703,6.9175119 47.9227347,10.3213576 49.6385449,14.7278262 C51.1925897,18.7168604 49.932235,22.6883389 49.1292987,24.5566503 C48.1206222,24.5492379 47.0734676,24.6175099 46.0129634,24.7778515 C26.0879707,27.7946927 4.80525002,61.3673405 3.39373114,63.626948 C1.06737526,66.836511 -1.67595781,73.1491335 2.56134727,76.8151435 C4.28265429,78.3038625 5.92661245,78.8040035 7.35854829,78.8040035 C8.45635267,78.8040035 9.42969213,78.509849 10.2165304,78.143521 C12.1926569,77.2216545 13.7898916,75.509783 15.2571645,73.8357545 C17.8740695,70.850123 42.8565794,40.1667456 43.9453533,38.8286147 L51.4320964,29.2705378 C53.5381849,29.7070883 55.4829004,30.7062 57.3047216,32.2795765 C58.2384051,33.0875266 59.6573843,32.9896051 60.4713142,32.0595456 C61.284459,31.1298763 61.18473,29.721523 60.2494761,28.9131828 C58.2211294,27.161909 56.0278765,25.9357442 53.6862076,25.2393701 C54.6960621,22.4737698 55.6780398,17.9288066 53.8464022,13.1731758 C52.9044737,10.7266982 51.3492508,8.5416047 49.1936907,6.62725845 C53.7592379,8.59817295 58.0491557,11.7968126 61.2758211,15.690266 C62.4643239,17.1247578 63.2892476,19.0043829 64.1620728,20.9940234 C65.7710865,24.6604237 67.5948709,28.8160415 72.2413007,30.6800616 C77.1574699,32.6517563 78.1386619,33.514324 80.0939789,35.2332173 C80.2003826,35.3264573 80.3083567,35.421648 80.4202576,35.5195695 C79.8210983,36.7258378 77.1763165,39.5753152 72.2935212,43.1718829 C71.2954458,43.2054337 68.3660043,41.4440167 67.4884672,38.9425314 C67.080128,37.7799572 65.8040681,37.1658995 64.6304851,37.5704597 C63.4600433,37.9761904 62.8420379,39.2472195 63.2495918,40.4101839 C64.4624378,43.8690374 67.7947218,46.5074568 70.459921,47.3263303 C72.1541359,47.8467579 73.7046472,47.6805644 74.8264026,46.8577895 Z" id="Fill-4" fill="#231F20" fill-rule="nonzero"></path>
                </g>
                <g id="Group-9" transform="translate(87.605955, 58.067114)">
                    <polygon id="Clip-8" points="0.137257701 0.188165617 18.536404 0.188165617 18.536404 27.0898426 0.137257701 27.0898426"></polygon>
                    <path d="M12.5308631,7.3612888 C12.180186,7.5434299 11.8037925,7.69024195 11.4094756,7.8080056 C11.4145409,7.78877085 11.4192166,7.76953615 11.4246716,7.75147905 C11.8030132,6.350484 12.4447524,5.2533192 13.1398724,4.81602349 C13.2345553,4.7575342 13.3323552,4.73672929 13.4211934,4.73672929 C13.5458786,4.73672929 13.6541989,4.77637639 13.7103073,4.8014993 C13.8244721,4.85135259 14.0208513,4.97225662 14.0652704,5.2117094 C14.2000863,5.95008755 13.3802811,6.91967505 12.5308631,7.3612888 M18.4460072,4.39953267 C18.1479316,2.76497303 17.0495329,1.38085745 15.5088913,0.69586548 C13.959288,0.0053778739 12.1910959,0.123141537 10.7821531,1.00872428 C8.52768876,2.42620623 7.52397285,5.1021892 7.12653878,6.5710946 C6.9757476,7.12850925 6.85495882,7.6855314 6.7579381,8.24294605 C5.42146857,8.009774 4.69712546,6.98601525 4.60049443,6.22055145 C4.50269447,5.43781565 5.05637472,4.89845805 6.24867698,4.61739545 C7.44643422,4.3351552 8.19025944,3.12807766 7.9097177,1.92139267 C7.6299553,0.71353003 6.42713268,-0.0350543168 5.23327184,0.247971019 C1.29282972,1.17673377 -0.142998345,4.20011954 0.18157283,6.78346175 C0.520950373,9.4826049 2.76918048,12.293231 6.36167294,12.7226758 C6.3449184,13.3244481 6.33634629,13.9238652 6.32777419,14.5181791 L6.32076061,14.9672512 C6.26231445,18.8306844 6.36634864,19.775149 6.6161087,22.0558386 C6.70105052,22.8287608 6.8039158,23.7692999 6.92587349,25.0576344 C7.03536273,26.2195692 8.00556945,27.0898426 9.14020484,27.0898426 C9.21072989,27.0898426 9.28203424,27.0867023 9.35333859,27.0792439 C10.5775914,26.9626579 11.4768835,25.8678484 11.3599911,24.6340777 C11.2360852,23.3155173 11.1301028,22.3533881 11.043992,21.5624089 C10.8020249,19.3602284 10.7205898,18.6183173 10.7755292,15.0363392 L10.7821531,14.5825566 C10.7922838,13.8850032 10.8020249,13.198441 10.8242344,12.5232627 C12.1014785,12.3250272 13.3697608,11.9748766 14.5733626,11.3495515 C16.8348406,10.1734851 19.0113767,7.496717 18.4460072,4.39953267" id="Fill-7" fill="#231F20" fill-rule="nonzero"></path>
                </g>
            </g>
        </g>
    </g>
</svg>