<?xml version="1.0" encoding="UTF-8"?>
<svg width="146px" height="152px" viewBox="0 0 146 152" version="1.1" xmlns="http://www.w3.org/2000/svg" xmlns:xlink="http://www.w3.org/1999/xlink">
    <!-- Generator: Sketch 52.5 (67469) - http://www.bohemiancoding.com/sketch -->
    <title>icon-magnify-lens</title>
    <desc>Created with Sketch.</desc>
    <g id="Page-1" stroke="none" stroke-width="1" fill="none" fill-rule="evenodd">
        <g id="row-1">
            <g id="icon-magnify-lens" transform="translate(24.000000, 27.000000)">
                <path d="M-7.10542736e-15,48.0918938 C-7.10542736e-15,21.8511396 21.9983697,-0.594094754 50.2562756,0.0119961239 C77.0042934,0.59821517 98.4527039,22.5665255 97.9927379,48.0918938 C97.492775,76.1509207 76.6343208,98 50.2562756,98 C21.9783712,98 -5.26530997e-19,76.1409847 -5.26530997e-19,48.0918938" id="Path" fill="#0073E3"></path>
                <path d="M93.58,100.98 C91.6104316,101.10859 89.7495272,100.066484 88.83,98.32 C87.91,96.46 86.93,94.4 85.91,92.22 C81.91,83.54 80.59,80.15 78.66,75.03 C78.31,74.11 77.95,73.15 77.54,72.09 C75.95,67.93 74.74,64.17 76.03,60.45 C76.3917465,59.4061818 77.5311818,58.8532535 78.575,59.215 C79.6188182,59.5767465 80.1717465,60.7161818 79.81,61.76 C78.96,64.21 79.93,67.12 81.28,70.67 C81.69,71.73 82.05,72.67 82.4,73.61 C84.3,78.61 85.56,81.98 89.54,90.54 C90.54,92.69 91.54,94.71 92.42,96.54 C92.67,97.06 93.87,97.13 94.98,96.7 C95.75,96.4 96.51,95.8 96.38,95.36 C92.38,81.61 87.95,70.36 82.78,60.85 C80.78,57.22 79.28,55.62 76.05,56.35 C74.9893265,56.5547525 73.9577393,55.8802318 73.7199671,54.826469 C73.482195,53.7727061 74.1241754,52.7205599 75.17,52.45 C81.92,50.92 84.76,56.13 86.29,58.93 C91.6,68.66 96.16,80.22 100.22,94.25 C100.95,96.78 99.43,99.25 96.43,100.43 C95.5214845,100.785582 94.5555895,100.971983 93.58,100.98 Z" id="Path" fill="#000000"></path>
                <path d="M70,56.97 C67.2666392,57.0148729 64.5403769,56.6782973 61.9,55.97 C50.1441001,51.9947965 43.4872388,39.5820683 46.68,27.59 C50.1664037,16.1614842 62.2389658,9.70489916 73.68,13.15 C79.48,14.91 84.84,19.57 88.02,25.62 C90.94,31.19 91.65,37.07 90.02,42.19 C89.1286015,45.2212714 87.6393345,48.0433984 85.64,50.49 C85.1617813,51.0385772 84.423322,51.2840912 83.7118383,51.1310519 C83.0003546,50.9780126 82.4281557,50.4505776 82.2177926,49.7538873 C82.0074294,49.057197 82.1921081,48.3012254 82.7,47.78 C84.2957982,45.756037 85.4874408,43.4440465 86.21,40.97 C87.49,36.97 86.86,31.97 84.48,27.48 C81.79,22.36 77.32,18.48 72.48,16.98 C63.1568666,14.1771406 53.3220843,19.4387491 50.48,28.75 C47.9655229,38.6201659 53.4341225,48.7705476 63.06,52.1 C67.1418131,53.1706575 71.420041,53.2529311 75.54,52.34 C76.2259499,52.1381449 76.9674822,52.3175731 77.4852688,52.8106956 C78.0030553,53.3038182 78.2184321,54.0357181 78.0502688,54.7306956 C77.8821054,55.4256732 77.3559499,55.9781449 76.67,56.18 C74.4923236,56.7421599 72.2487469,57.0078909 70,56.97 Z" id="Path" fill="#000000"></path>
            </g>
        </g>
    </g>
</svg>