<?xml version="1.0" encoding="UTF-8"?>
<svg width="146px" height="152px" viewBox="0 0 146 152" version="1.1" xmlns="http://www.w3.org/2000/svg" xmlns:xlink="http://www.w3.org/1999/xlink">
    <!-- Generator: Sketch 52.5 (67469) - http://www.bohemiancoding.com/sketch -->
    <title>icon-phone</title>
    <desc>Created with Sketch.</desc>
    <g id="Page-1" stroke="none" stroke-width="1" fill="none" fill-rule="evenodd">
        <g id="row-4" transform="translate(-292.000000, 0.000000)">
            <g id="icon-phone" transform="translate(316.000000, 27.000000)">
                <path d="M0,48.0906602 C0,21.844032 22,0 50.26,0 C76.63,0 98,21.8639083 98,48.0906602 C98,76.155968 76.63,98 50.26,98 C21.98,98 0,76.1360917 0,48.0906602" id="Path" fill="#0073E3"></path>
                <path d="M17.58,101.61 C16.8136918,101.609899 16.1410178,101.100005 15.9338802,100.362223 C15.7267427,99.6244408 16.0357251,98.8389395 16.69,98.44 C26.2362203,92.7242107 34.7269381,85.4073093 41.79,76.81 C38.79,73.09 38.73,68.18 41.71,62.96 C43,60.72 48.59,52.34 52.43,52.34 C53.9343884,52.3250126 55.2420966,53.369508 55.56,54.84 C56.56,58.53 53.56,66.72 46.73,75.96 C49.7836094,77.1042563 52.9372588,77.961299 56.15,78.52 C58.6749016,79.0112852 61.2923059,78.563197 63.51,77.26 C69.0094199,74.0122515 73.5635195,69.3823077 76.72,63.83 C88.56,42.97 90.72,34.99 90.72,34.91 C91.8363931,31.2907419 92.3697289,27.5168854 92.3,23.73 C92.1599171,19.588415 90.1432958,15.7354908 86.82,13.26 C82.6,10.07 78.89,8.45 77.71,8.37 C77.600227,8.3600069 77.489773,8.3600069 77.38,8.37 C76.9404461,12.3028324 75.7090331,16.1059256 73.76,19.55 C69.24,27.75 66.14,28.66 64.33,27.99 C63.5563933,27.7000616 62.9445517,27.0918619 62.65,26.32 C61.57,23.73 63.39,18.66 65.11,14.87 C66.83,11.08 70.28,7.13 74.11,5.61 C74.1247967,4.43123222 74.0713741,3.25259574 73.95,2.08 C73.8689044,1.13976496 74.5605549,0.309784447 75.5,0.22 C75.950229,0.175571693 76.3994735,0.313517459 76.7471829,0.602962061 C77.0948924,0.892406662 77.3120315,1.30918028 77.35,1.76 C77.45,2.76 77.52,3.81 77.53,4.95 L77.93,4.95 C80.28,5.12 84.68,7.36 88.86,10.53 C93.0503757,13.6259574 95.58972,18.4724563 95.75,23.68 C95.8292516,27.8075298 95.2555036,31.9216403 94.05,35.87 C93.98,36.13 91.87,44.17 79.73,65.57 C76.2774849,71.6409018 71.2956287,76.7020541 65.28,80.25 C62.3505923,81.9793672 58.8884056,82.5735966 55.55,81.92 C51.788116,81.264051 48.1094766,80.1976815 44.58,78.74 C37.239891,87.7269155 28.4034792,95.3792751 18.46,101.36 C18.1958723,101.524112 17.890959,101.610735 17.58,101.61 Z M52.28,55.8 C50.98,56.29 47.19,60.27 44.68,64.66 C43.2,67.24 41.95,70.87 43.96,74 C48.56,67.77 51.22,62.21 52.07,58.56 C52.3529573,57.6691081 52.4382719,56.7272351 52.32,55.8 L52.28,55.8 Z M73.8,9.68 C71.3982691,11.3555938 69.4860814,13.6405546 68.26,16.3 C66.36,20.49 65.7,23.42 65.76,24.6 C66.84,23.89 68.95,21.29 70.81,17.92 C72.2538101,15.3568117 73.2640888,12.5726322 73.8,9.68 Z" id="Shape" fill="#000000" fill-rule="nonzero"></path>
                <path d="M62.37,59.39 C60.8391206,59.3664635 59.3378471,58.9645207 58,58.22 C57.3919565,57.9759001 56.9768527,57.4058247 56.931216,56.7522049 C56.8855794,56.098585 57.2174349,55.4763559 57.7856573,55.1501276 C58.3538796,54.8238992 59.0585503,54.8510369 59.6,55.22 C60.9817224,56.0684592 62.6823411,56.2166613 64.19,55.62 C68.12,54 70.91,47.42 71.66,45.02 C71.6929168,44.9093921 71.7364527,44.8022267 71.79,44.7 C71.79,44.64 75.19,38.46 73.79,34.07 C73.3360925,32.5950421 72.2629718,31.3905189 70.85,30.77 C70.3015973,30.5002645 69.9387545,29.9584492 69.898151,29.3486508 C69.8575475,28.7388524 70.1453519,28.1537137 70.653151,27.8136508 C71.1609502,27.4735879 71.8115973,27.4302645 72.36,27.7 C74.6128369,28.7354664 76.3183596,30.6809987 77.05,33.05 C78.75,38.45 75.45,45.05 74.86,46.2 C74.41,47.57 71.34,56.35 65.49,58.77 C64.5019874,59.1834331 63.4410171,59.3942669 62.37,59.39 Z" id="Path" fill="#000000"></path>
            </g>
        </g>
    </g>
</svg>