<?xml version="1.0" encoding="UTF-8"?>
<svg width="146px" height="152px" viewBox="0 0 146 152" version="1.1" xmlns="http://www.w3.org/2000/svg" xmlns:xlink="http://www.w3.org/1999/xlink">
    <!-- Generator: Sketch 52.5 (67469) - http://www.bohemiancoding.com/sketch -->
    <title>icon-eye</title>
    <desc>Created with Sketch.</desc>
    <g id="Page-1" stroke="none" stroke-width="1" fill="none" fill-rule="evenodd">
        <g id="row-3" transform="translate(-292.000000, 0.000000)">
            <g id="icon-eye" transform="translate(316.000000, 27.000000)">
                <path d="M0,48.080722 C0,21.8340939 22,0 50.26,0 C76.63,0 98,21.8639083 98,48.080722 C98,76.155968 76.63,98 50.26,98 C21.97,98 0,76.1360917 0,48.080722" id="Path" fill="#0073E3"></path>
                <path d="M46.74,72.44 L46.39,72.44 C36.1,71.05 26.44,62.44 20.15,55.44 C17.938195,52.9875118 16.834899,49.7318841 17.1,46.44 C17.3629558,43.1140386 18.9787281,40.041541 21.57,37.94 C35.95,26.3 55.48,20.09 70.19,22.48 C74.1634482,23.0516828 77.9629074,24.4888547 81.32,26.69 C94.32,28.77 106.43,36.24 113.82,41.69 C116.481644,43.6702328 118.087754,46.7620492 118.177488,50.078315 C118.267222,53.3945809 116.830662,56.5687283 114.28,58.69 C108.129718,63.7866214 101.305302,68.0098175 94,71.24 C93.3576835,71.5173087 92.6307133,71.5240556 91.9833605,71.2587162 C91.3360077,70.9933769 90.8229063,70.4783448 90.56,69.83 C89.9889384,68.4851154 90.6095416,66.9313752 91.95,66.35 C98.7952993,63.3122928 105.188883,59.3449057 110.95,54.56 C112.24553,53.4901845 112.976376,51.883481 112.931458,50.2039319 C112.886539,48.5243829 112.07086,46.9590399 110.72,45.96 C105.22,41.96 96.91,36.65 87.77,33.69 C93.48,43.34 93.67,54.54 88.17,62.54 C82.98,70.08 73.9,73.19 63.86,70.86 C55.34,68.86 49.86,63.39 47.95,55 C45.4370609,43.4328929 51.996329,31.8197625 63.2,28 C63.9,27.76 64.61,27.54 65.32,27.34 C52.64,26.81 36.61,32.56 24.81,42.11 C23.3482096,43.2832548 22.4391771,45.0107789 22.3,46.88 C22.1546242,48.7095728 22.7695591,50.5182048 24,51.88 C32.06,60.88 40.25,66.31 47.06,67.24 C48.4279062,67.4458124 49.4097564,68.6657174 49.3184332,70.0460022 C49.22711,71.426287 48.0930979,72.5062011 46.71,72.53 M74.58,31.34 C71.2879873,31.3150477 68.0153685,31.8458341 64.9,32.91 C56.2382182,35.8405555 51.1500226,44.7997367 53.07,53.74 C54.51,60.17 58.43,64.05 65.07,65.59 C73.07,67.44 79.92,65.19 83.9,59.41 C88.38,52.88 87.9,43.41 82.71,35.41 C81.7834727,33.9803376 80.6201657,32.7189611 79.27,31.68 C77.7247046,31.4801995 76.1681586,31.3799926 74.61,31.38" id="Shape" fill="#000000" fill-rule="nonzero"></path>
            </g>
        </g>
    </g>
</svg>