<?xml version="1.0" encoding="UTF-8"?>
<svg width="146px" height="152px" viewBox="0 0 146 152" version="1.1" xmlns="http://www.w3.org/2000/svg" xmlns:xlink="http://www.w3.org/1999/xlink">
    <!-- Generator: Sketch 52.5 (67469) - http://www.bohemiancoding.com/sketch -->
    <title>icon-stopwatch</title>
    <desc>Created with Sketch.</desc>
    <g id="Page-1" stroke="none" stroke-width="1" fill="none" fill-rule="evenodd">
        <g id="row-3">
            <g id="icon-stopwatch" transform="translate(24.000000, 18.000000)">
                <path d="M-7.10542736e-15,57.080722 C-7.10542736e-15,30.8340939 22,9 50.26,9 C76.64,9 98,30.8639083 98,57.080722 C98,85.155968 76.64,107 50.26,107 C21.98,107 0,85.1360917 0,57.080722" id="Path" fill="#0073E3"></path>
                <path d="M119.18,50.81 C116.96,43.81 113.18,43.81 111.67,44.16 C110.796367,44.3621166 109.987997,44.7817811 109.32,45.38 C107.12943,37.4458521 103.069392,30.1521852 97.48,24.11 L97.2,23.81 C95.1398499,21.6204016 92.8763484,19.631467 90.44,17.87 C88.51,15.46 88.44,13.2 88.75,12.82 C88.94,12.73 90.12,12.74 92.4,14.42 C99.07,19.33 99.63,22.94 99.63,22.94 C99.6991116,24.2034115 100.744701,25.1918889 102.01,25.19 L102.14,25.19 C103.451236,25.1200416 104.458072,24.001335 104.39,22.69 C104.39,22.12 103.84,16.93 95.22,10.59 C89.32,6.25 86.22,8.47 85.22,9.59 C84.2283151,10.7934413 83.7441191,12.335695 83.87,13.89 C76.6151424,10.2678796 68.4701644,8.8131713 60.41,9.7 C58.988594,9.85358949 57.5765326,10.0839257 56.18,10.39 C55.9950712,10.3906813 55.8107258,10.4107917 55.63,10.45 C52.21,11.25 49.9,10.09 49.73,9.57 C49.73,9.36 50.33,8.35 52.91,7.18 C60.44,3.76 63.91,5.03 63.91,5.03 C64.67601,5.43127218 65.5994007,5.3854832 66.3219539,4.91039632 C67.0445072,4.43530945 67.4525183,3.6056867 67.3877045,2.74337013 C67.3228907,1.88105357 66.7954513,1.12174157 66.01,0.76 C65.5,0.51 60.72,-1.58 51.01,2.85 C44.34,5.85 44.79,9.61 45.29,11.08 C45.6324192,12.0469701 46.2470974,12.8943231 47.06,13.52 C40.2921972,16.7764071 34.4528401,21.6838055 30.08,27.79 C22.5822497,38.2812592 19.2792212,51.1973136 20.82,64 C21.5929578,71.1146268 23.7971629,77.9993662 27.3,84.24 C27.6852588,85.0378146 28.4817853,85.555599 29.3672989,85.5838536 C30.2528124,85.6121082 31.0807276,85.146156 31.5160637,84.3745246 C31.9513999,83.6028932 31.9220927,82.6533164 31.44,81.91 C28.2682164,76.219203 26.2752464,69.9478094 25.58,63.47 C24.173197,51.8451965 27.1620878,40.1143348 33.96,30.58 C40.2595154,21.6114329 50.0770531,15.7463631 60.96,14.45 C70.2536404,13.4724834 79.5829854,15.9382485 87.18,21.38 L87.37,21.61 C87.641857,21.9046155 87.9868856,22.1219835 88.37,22.24 C89.03,22.74 89.67,23.24 90.31,23.81 C93.002735,26.1063731 95.4129753,28.7146694 97.49,31.58 C102.353867,38.3232236 105.382766,46.2142127 106.28,54.48 C107.688768,66.1049304 104.699698,77.836494 97.9,87.37 C97.77,87.55 97.63,87.73 97.49,87.9 C95.1754848,91.0205605 92.4278319,93.7951512 89.33,96.14 C83.9555972,100.211094 77.5808664,102.754076 70.88,103.5 C61.6848749,104.511304 52.4373592,102.124734 44.88,96.79 C44.1836272,96.2454952 43.2428358,96.1318062 42.4368027,96.4947541 C41.6307696,96.857702 41.0922996,97.6374864 41.0384177,98.5198227 C40.9845359,99.4021589 41.4241201,100.24167 42.18,100.7 C49.3478888,105.738394 57.8885516,108.457306 66.65,108.49 C68.2268448,108.487589 69.8024308,108.400798 71.37,108.23 C80.8979059,107.163929 89.7839159,102.902451 96.58,96.14 C96.88,95.84 97.19,95.55 97.48,95.24 C99.0156225,93.6470872 100.439031,91.9496892 101.74,90.16 C109.064692,79.9159271 112.386971,67.3453329 111.08,54.82 C111.084979,54.7400775 111.084979,54.6599225 111.08,54.58 C110.69,51.08 112.08,48.93 112.65,48.82 C112.86,48.82 113.8,49.56 114.65,52.26 C117.16,60.15 115.48,63.4 115.49,63.4 C115.019527,64.1337552 114.985817,65.0654497 115.402032,65.8312867 C115.818248,66.5971236 116.618379,67.0756436 117.49,67.08 C118.297598,67.0763115 119.04919,66.6666937 119.49,65.99 C119.79,65.51 122.43,61.02 119.18,50.81 Z" id="Path" fill="#231F20"></path>
                <path d="M85.02,35.84 C84.6055994,35.539676 84.0884469,35.4172261 83.5833753,35.49984 C83.0783037,35.582454 82.6271169,35.863294 82.33,36.28 L67.51,56.97 C67.2351341,57.3634296 67.1109094,57.8425817 67.16,58.32 L69.86,82.75 C69.9667725,83.7255526 70.7886314,84.4656559 71.77,84.47 L71.98,84.47 C72.4895005,84.4123056 72.9550998,84.1542349 73.2740417,83.7527434 C73.5929836,83.3512519 73.7390483,82.8393453 73.68,82.33 L71.07,58.68 L85.45,38.6 C86.0792904,37.7157239 85.888471,36.4909292 85.02,35.84 Z" id="Path" fill="#231F20"></path>
            </g>
        </g>
    </g>
</svg>