<?xml version="1.0" encoding="UTF-8"?>
<svg width="146px" height="152px" viewBox="0 0 146 152" version="1.1" xmlns="http://www.w3.org/2000/svg" xmlns:xlink="http://www.w3.org/1999/xlink">
    <!-- Generator: Sketch 52.5 (67469) - http://www.bohemiancoding.com/sketch -->
    <title>icon-clock</title>
    <desc>Created with Sketch.</desc>
    <g id="Page-1" stroke="none" stroke-width="1" fill="none" fill-rule="evenodd">
        <g id="row-2" transform="translate(-146.000000, 0.000000)">
            <g id="icon-clock" transform="translate(170.000000, 27.000000)">
                <path d="M2.84217094e-14,48.0857838 C2.84217094e-14,21.8418171 22,0 50.26,0 C76.64,0 98,21.8616913 98,48.0857838 C98,76.1581829 76.64,98 50.26,98 C21.98,98 0,76.1383087 0,48.0857838" id="Path" fill="#0073E3"></path>
                <path d="M96.44,20.58 C89.33,13.37 79.31,8.93 70.44,8.94 C69.85,8.94 69.26,8.94 68.69,9 C67.4643678,9.0839982 66.512375,10.1014951 66.51,11.33 L66.51,47.33 C66.5076239,48.2617542 67.0629104,49.1045293 67.92,49.47 C68.791422,49.8616659 69.8148085,49.6657833 70.48,48.98 L84.2,35.26 C84.8830146,34.5955813 85.0926346,33.582231 84.7292758,32.7013612 C84.365917,31.8204914 83.5028137,31.2496395 82.55,31.26 C81.931333,31.2575981 81.3373322,31.5023984 80.9,31.94 L71.17,41.68 L71.17,13.61 C78.63,13.82 87.08,17.73 93.09,23.82 C99.1390006,30.1527445 102.53156,38.5625699 102.57,47.32 C102.779867,59.5071974 96.3982129,70.8595252 85.8773788,77.014513 C75.3565447,83.1695008 62.3334553,83.1695008 51.8126212,77.014513 C41.2917871,70.8595252 34.9101331,59.5071974 35.12,47.32 C35.1078333,40.3904642 37.2499966,33.6284969 41.25,27.97 C45.1385212,22.4158063 50.6093183,18.161129 56.95,15.76 C58.1539808,15.3043651 58.7606349,13.9589808 58.305,12.755 C57.8493651,11.5510192 56.5039808,10.9443651 55.3,11.4 C48.1003096,14.1454516 41.8846743,18.9786739 37.45,25.28 C32.8915506,31.7099113 30.4452855,39.398173 30.45,47.28 C30.4499996,60.9954263 37.7670922,73.669003 49.6449997,80.5267162 C61.5229072,87.3844295 76.1570928,87.3844295 88.0350003,80.5267162 C99.9129078,73.669003 107.23,60.9954263 107.23,47.28 C107.177357,37.3281839 103.316403,27.7741993 96.44,20.58 Z" id="Path" fill="#231F20"></path>
            </g>
        </g>
    </g>
</svg>