<?xml version="1.0" encoding="UTF-8"?>
<svg width="146px" height="152px" viewBox="0 0 146 152" version="1.1" xmlns="http://www.w3.org/2000/svg" xmlns:xlink="http://www.w3.org/1999/xlink">
    <!-- Generator: Sketch 52.5 (67469) - http://www.bohemiancoding.com/sketch -->
    <title>icon-heart</title>
    <desc>Created with Sketch.</desc>
    <g id="Page-1" stroke="none" stroke-width="1" fill="none" fill-rule="evenodd">
        <g id="row-2" transform="translate(-584.000000, 0.000000)">
            <g id="icon-heart" transform="translate(608.000000, 27.000000)">
                <path d="M0,48.0857838 C0,21.8418171 22,0 50.26,0 C76.64,0 98,21.8616913 98,48.0857838 C98,76.1581829 76.64,98 50.26,98 C21.98,98 0,76.1383087 0,48.0857838" id="Path" fill="#0073E3"></path>
                <path d="M62.64,87.1 C61.5101251,87.1005744 60.5203035,86.3432419 60.225391,85.2525338 C59.9304785,84.1618256 60.4037878,83.0088826 61.38,82.44 C68.7418251,77.6836836 75.7168114,72.3538043 82.24,66.5 C94,55.89 100.24,46.65 100.24,39.79 C100.256618,29.9583308 92.3116075,21.9685848 82.48,21.93 C78.0873421,21.9513393 73.841143,23.5118174 70.48,26.34 C71.9102197,29.1568356 72.6570406,32.2708732 72.66,35.43 C72.7256139,38.0258337 71.3366208,40.4411384 69.06,41.69 C66.949758,42.8407912 64.376701,42.7330997 62.37,41.41 C60.09,39.89 58.99,37.01 59.37,33.52 C59.51,32.14 61.04,28.99 63.86,25.8 C63.6457933,25.6355644 63.4144515,25.4947476 63.17,25.38 C62.6996822,25.1704572 62.3051842,24.8213439 62.04,24.38 C59.3174888,22.7627512 56.2066011,21.9158984 53.04,21.93 C43.210004,21.9685893 35.267859,29.9599532 35.29,39.79 C35.29,47.51 42.95,58.69 55.8,69.7 C56.4788047,70.2823429 56.7953699,71.1825879 56.6304485,72.0616215 C56.4655271,72.9406551 55.8441745,73.6649311 55.0004484,73.9616216 C54.1567223,74.2583122 53.2188046,74.082343 52.54,73.5 C38.4,61.37 30.29,49.09 30.29,39.79 C30.2359909,30.9433535 35.3243156,22.8705553 43.32893,19.1032991 C51.3335444,15.3360429 60.7973055,16.5601121 67.58,22.24 C71.7965296,18.8308319 77.0477536,16.9581657 82.47,16.93 C95.0630331,16.9686012 105.246607,27.1969187 105.23,39.79 C105.23,60.64 64.32,86.52 63.91,86.79 C63.5214801,87.0036973 63.0832839,87.1106586 62.64,87.1 Z M64.29,34.1 C64.15,35.63 64.46,36.8 65.13,37.25 C65.6084397,37.5310736 66.2015603,37.5310736 66.68,37.25 C67.349532,36.8850326 67.7414046,36.1600683 67.68,35.4 C67.6841935,33.6054056 67.3692935,31.8243582 66.75,30.14 C65.7440211,31.3386322 64.9155502,32.6756362 64.29,34.11 L64.29,34.1 Z" id="Shape" fill="#000000" fill-rule="nonzero"></path>
            </g>
        </g>
    </g>
</svg>