<?xml version="1.0" encoding="UTF-8"?>
<svg width="126px" height="30px" viewBox="0 0 126 30" version="1.1" xmlns="http://www.w3.org/2000/svg" xmlns:xlink="http://www.w3.org/1999/xlink">
    <!-- Generator: Sketch 52.5 (67469) - http://www.bohemiancoding.com/sketch -->
    <title>logo-barclays</title>
    <desc>Created with Sketch.</desc>
    <g id="Page-1" stroke="none" stroke-width="1" fill="none" fill-rule="evenodd">
        <g id="logo-barclays" fill="#AFAFAF">
            <path d="M39.3270543,14.8700191 C41.2320819,14.8700191 42.7442898,15.5272926 42.7442898,17.3581298 C42.7442898,19.0042303 41.4161854,19.995002 39.3979391,19.995002 C38.4291809,19.995002 38.0156865,19.7237309 38.0156865,19.5895538 C38.0363612,18.6678152 38.0737726,17.8919214 38.1446574,16.9711552 L38.2952875,14.8700191 L39.3270543,14.8700191 Z M38.7796666,13.1334948 L38.4075217,13.1334948 C38.4075217,13.1704421 38.4656078,12.2603712 38.4656078,12.2603712 C38.5414151,11.2102893 38.633959,10.2545203 38.7796666,9.25499795 C39.1360593,9.21805063 39.5121423,9.21805063 39.7897742,9.21805063 C41.4910081,9.21805063 42.2983066,9.88115789 42.2983066,10.8417883 C42.2983066,12.5034457 40.6167629,13.1334948 38.7796666,13.1334948 Z M45.75,17.3202102 C45.75,15.0314206 44.0664873,13.9638373 41.8257417,13.7411811 C43.4157259,13.3318436 45.1573248,12.1893934 45.1573248,10.3420272 C45.1573248,7.57486695 42.4676424,7.5 41.1139407,7.5 L35.4776188,7.5 C35.7572197,7.72265625 35.8684694,8.36826215 35.8861906,9.36778453 C35.9029273,10.5257915 35.7926621,12.1893934 35.6449856,14.3498397 L35.5868994,15.2365755 C35.3072985,19.0402054 35.1379627,21.1996793 34.5,21.75 L39.5515227,21.75 C43.3950512,21.75 45.75,19.7956809 45.75,17.3202102 Z" id="Fill-1"></path>
            <path d="M53.4263964,10.8122507 L54.8475606,15.7305287 L51.1508075,15.7305287 L53.4263964,10.8122507 Z M52.452103,8.28711717 C52.452103,8.59926645 51.4989065,10.7592624 50.6070828,12.6629876 L49.6260767,14.7699953 C47.9316117,18.4040295 46.713745,20.6565141 45.75,21.6209012 L49.1120794,21.6209012 C49.0372813,21.3424718 49.0267328,21.1652018 49.0267328,20.9802245 C49.0027591,20.1931073 49.7143001,18.8414238 50.0077389,18.1834054 L50.3002187,17.5658509 L51.9687921,17.5658509 C53.6277759,17.5658509 54.6711137,17.4348252 55.2512786,17.1563958 L55.5955417,18.3837976 C56.5583277,21.7133899 56.6503869,21.75 57.8490747,21.75 C58.2412853,21.75 59.2155787,21.7133899 60,21.6209012 C59.1321501,20.9079677 58.4704744,19.0842066 57.4338493,15.3326347 L56.8364233,13.100382 C56.1258412,10.5540531 55.3260767,7.5 55.3260767,7.5 L52.2651077,7.5 C52.3753869,7.75819755 52.452103,8.0202488 52.452103,8.28711717 Z" id="Fill-3"></path>
            <path d="M64.4763692,13.6870951 L64.5502712,12.6760356 C64.6724939,10.9699954 64.7643977,9.90396571 64.8761983,9.29045874 C65.1935981,9.25315752 65.611429,9.25315752 65.9544103,9.25315752 C67.2600134,9.25315752 68.0198781,9.90396571 68.0198781,11.0210392 C68.0198781,12.6593482 66.8327079,13.7440285 65.1054841,13.7440285 C64.8866203,13.7440285 64.6573345,13.7234147 64.4763692,13.6870951 M62.0840269,9.38567502 C62.0982388,10.5537923 61.9987553,12.233329 61.8518986,14.3928735 L61.7978933,15.3087167 C61.491863,19.7053531 61.2853162,21.3839081 60.75,21.886493 L64.5133202,21.886493 C64.2575054,21.6420719 64.154232,21.0472155 64.1381251,20.0724756 C64.1381251,19.2066946 64.1921305,18.0307244 64.2774021,16.5573261 L64.3494092,15.4785354 L64.4403656,15.4785354 C64.9264138,15.4785354 65.1613844,15.827989 65.4683622,16.2628427 L69.3482203,21.846247 C69.6921491,22.3311629 69.9479639,22.5 70.9683808,22.5 C71.6505536,22.5 72.7136063,22.4636804 73.5,22.3674825 C72.8718325,22.0356979 72.7325555,21.921831 70.9683808,19.5168837 L68.1421008,15.6434461 C67.9459761,15.3843008 67.6238389,14.9533735 67.4428736,14.7884628 C69.2932674,14.1877168 70.7921528,12.92242 70.7921528,10.6097441 C70.7921528,7.80037301 68.4841347,7.5 66.8137586,7.5 L61.6908301,7.5 C61.9627517,7.72478895 62.0622353,8.35694653 62.0840269,9.38567502" id="Fill-5"></path>
            <path d="M80.3247366,7.5 C75.3516242,7.5 72.75,11.203205 72.75,15.9841718 C72.75,19.431236 74.9061677,22.5 78.635755,22.5 C81.5030729,22.5 83.2513169,21.0606857 84,18.6657691 C82.1411326,19.9504138 81.0378622,20.2922632 79.7834723,20.2922632 C77.453468,20.2922632 75.7121378,18.589912 75.7121378,15.4837121 C75.7121378,12.6238014 76.9694908,9.29200053 80.0600307,9.29200053 C81.6176471,9.29200053 82.78018,10.1717457 83.4903424,11.4583607 L83.8696225,7.77682911 C82.6093064,7.77682911 81.8803775,7.5 80.3247366,7.5" id="Fill-7"></path>
            <path d="M96.8489087,15.7305287 L99.1251899,10.8122507 L100.557294,15.7305287 L96.8489087,15.7305287 Z M86.0757356,9.33050504 C86.0979762,10.4827598 85.9858061,12.1292509 85.8368905,14.2670881 L85.7808054,15.1659624 C85.5042478,18.9156075 85.3263227,20.9802245 84.75,21.6199378 L94.7766611,21.6199378 C94.7051043,21.3694476 94.6838306,21.1652018 94.6838306,20.9802245 C94.6838306,20.2104489 95.2533844,19.1179264 95.6788576,18.182442 L95.9660519,17.5648874 L97.6573076,17.5648874 C99.3301906,17.5648874 100.373567,17.4348252 100.966328,17.1563958 L101.311542,18.3837976 C102.285295,21.7133899 102.371357,21.75 103.585889,21.75 C103.976551,21.75 105.014125,21.7133899 105.75,21.6199378 C104.871011,20.9070043 104.210561,19.0842066 103.161383,15.3316713 L102.556051,13.100382 L101.039819,7.5 L97.9532049,7.5 C98.0624741,7.75819755 98.1378989,8.0202488 98.1378989,8.28711717 C98.1378989,8.67345007 97.2144288,10.6821885 96.2832228,12.6629876 L95.2872289,14.7690318 C94.5542547,16.3336319 93.8009739,17.8529511 93.1356886,19.0591576 C92.0836096,19.7769083 91.4860133,19.8337503 89.146878,19.8337503 C88.4777248,19.8337503 88.2263089,19.6824927 88.2263089,19.0447062 C88.2263089,17.6544858 88.4013331,16.231509 88.5028664,14.8345447 L88.5773242,13.9414509 C88.8268062,10.1927693 89.0298729,7.92294301 89.581054,7.5 L85.7063476,7.5 C85.9664664,7.7765026 86.0602638,8.37767899 86.0757356,9.33050504 Z" id="Fill-9"></path>
            <path d="M105,7.6214653 C105.490274,7.86246787 106.28048,9.08290488 106.947636,10.3891388 C108.010857,12.4550129 108.70397,14.154563 109.212508,15.9302699 C109.246155,17.1815553 108.98083,21.1098972 108.299254,21.75 L112.112814,21.75 C111.82634,21.4607969 111.714827,20.5999357 111.714827,19.9627249 C111.714827,18.4241645 111.82634,17.0340617 112.038792,15.9881105 C112.296426,15.4395887 112.720369,14.6895887 113.043373,14.1429949 C113.74033,12.9659383 117.028048,7.78631105 117.75,7.6214653 L113.971047,7.6214653 C114.117168,7.78631105 114.178693,8.15359897 114.178693,8.48232648 C114.178693,8.90841902 113.999887,9.34415167 113.775899,9.69119537 C112.897252,11.1188946 112.222404,12.1600257 111.255316,13.6793059 C110.854445,12.5292416 110.182481,10.9742931 109.265381,8.90841902 C108.682821,7.6214653 108.428071,7.5 107.485015,7.5 C106.947636,7.5 105.855576,7.5472365 105,7.6214653" id="Fill-11"></path>
            <path d="M122.478429,7.5 C119.815849,7.5 117.239858,8.52456325 117.239858,11.6100749 C117.239858,13.6729936 118.72858,14.811835 121.094005,16.2294759 C122.208825,16.9033233 123.122919,17.5761855 123.122919,18.6657691 C123.122919,19.9346513 122.009083,20.6626823 120.48789,20.6626823 C118.529821,20.6626823 117.202467,19.5267963 116.492053,18.0874819 L116.25,21.6931564 C117.726915,22.2507553 119.030654,22.5 120.285195,22.5 C123.321677,22.5 125.960642,20.8331144 125.960642,18.1229476 C125.960642,16.0432812 124.351877,14.8473007 122.799198,13.8729804 C121.382304,12.9548141 120.021496,12.2149613 120.021496,11.1096151 C120.021496,9.80034152 121.099909,9.29200053 122.334771,9.29200053 C123.736906,9.29200053 125.025886,10.1126363 125.622162,11.203205 L126,7.77682911 C125.005223,7.77682911 124.037012,7.5 122.478429,7.5" id="Fill-13"></path>
            <path d="M23.9310643,20.9696175 C25.1817429,18.8987175 26.0389929,16.6123425 26.2646357,13.9817925 C26.3572071,12.8927175 26.4112071,11.7724425 26.2868143,10.4698425 C26.1045643,8.4574425 25.3524214,6.0511425 23.8953857,4.8752925 C22.6601357,3.8778675 20.4037071,3.6029175 19.2745286,4.9250175 C18.4413857,5.9019675 19.2619929,7.1772675 19.7759571,7.1772675 L19.7682429,7.1801925 C19.6409571,7.4258925 19.2648857,7.8880425 18.1357071,7.9387425 C18.0479571,7.9426425 17.95635,7.9445925 17.8589571,7.9426425 C17.3584929,7.9358175 16.9014214,7.8295425 16.4366357,7.4219925 C16.2746357,7.2796425 16.1107071,7.1021925 15.94485,6.8789175 C14.9140286,5.4963675 15.8455286,2.3393175 14.4694929,1.3175175 C13.7896714,0.8124675 13.0491,0.6866925 12.2246357,0.6837675 C11.5428857,0.6808425 11.3490643,0.7646925 11.0646,1.0854675 C9.85056429,1.0201425 8.44270714,1.4159925 8.1486,2.4875175 L8.24599286,3.2392425 C8.78213571,2.6513175 10.3809214,2.9486925 10.8312429,3.6009675 C11.2391357,4.1918175 11.1832071,4.7777925 11.1022071,5.3735175 C10.9826357,6.2929425 10.5940286,7.6686675 8.98656429,7.8948675 C8.2836,7.9923675 7.10235,8.0011425 6.59320714,7.1782425 C7.09849286,7.1733675 7.9326,5.8795425 7.08885,4.9211175 C6.16892143,3.8720175 4.7736,3.9334425 3.8556,4.1703675 C3.81895714,4.1791425 3.78327857,4.1888925 3.74856429,4.1986425 C3.36285,4.3078425 3.01281429,4.4784675 2.69652857,4.6988175 C0.97335,5.9000175 0.258814286,8.5529925 0.0746357143,10.4678925 C-0.0516857143,11.7695175 0.00135,12.8917425 0.0948857143,13.9817925 C0.240492857,15.6734175 0.520135714,16.7098425 0.936707143,17.8320675 C1.33399286,18.9074925 1.83638571,19.9936425 2.42749286,20.9705925 C3.05235,22.0050675 2.87202857,21.8968425 3.47663571,21.2855175 L5.22295714,18.7758675 C5.61735,19.0849425 5.40231429,19.7976675 5.23935,20.3709675 C5.08699286,20.9062425 4.81024286,21.5965425 4.45538571,22.2605175 C4.22781429,22.6875675 3.8421,23.3018175 4.17381429,23.4188175 C4.39463571,23.5972425 4.91727857,23.2277175 5.12074286,23.0717175 C5.44570714,22.8221175 5.77067143,22.5071925 6.09177857,22.1464425 C7.04063571,21.0758925 7.94031429,19.5987675 8.59506429,18.2064675 C9.18520714,18.4638675 8.37906429,20.4002175 8.07049286,21.1275675 C7.68092143,22.0499175 7.01363571,23.0990175 6.29620714,24.0798675 C6.19688571,24.2163675 6.0966,24.3499425 5.99631429,24.4835175 C5.62892143,24.9710175 5.5431,24.7906425 6.39070714,25.4955675 C6.40227857,25.5053175 6.41385,25.5150675 6.42638571,25.5248175 C7.25470714,26.2131675 8.13124286,26.8478925 9.35974286,27.5381925 C9.9576,27.8765175 10.8119571,28.3201425 11.6373857,28.6828425 C12.1937786,28.9275675 12.7376357,29.1352425 13.1802429,29.2502925 C14.1599571,28.9948425 15.6333857,28.2840675 16.6526357,27.7312425 C16.7760643,27.6649425 16.8927429,27.5996175 17.0007429,27.5381925 C17.9496,27.0038925 18.6901714,26.5027425 19.36035,25.9840425 C19.5551357,25.8338925 19.7451,25.6808175 19.9321714,25.5248175 C20.8135286,24.7896675 20.7383143,24.9778425 20.3622429,24.4835175 C19.7692071,23.7015675 19.1896714,22.8572175 18.7441714,22.0547925 C18.5677071,21.7369425 18.4124571,21.4259175 18.2861357,21.1275675 C17.9775643,20.4011925 17.1743143,18.4599675 17.7644571,18.2064675 C17.9756357,18.6588675 18.2157429,19.1229675 18.4761,19.5802425 C19.2803143,20.9910675 20.2793143,22.3365675 21.2387786,23.0717175 C21.4432071,23.2277175 21.9629571,23.5972425 22.1876357,23.4188175 C22.4798143,23.2072425 22.2030643,22.8221175 21.9031714,22.2605175 C21.5454214,21.5906925 20.4731357,19.3033425 21.1346357,18.7748925 L22.8828857,21.2855175 C23.4894214,21.8978175 23.3042786,22.0070175 23.9310643,20.9696175" id="Fill-15"></path>
        </g>
    </g>
</svg>