<?xml version="1.0" encoding="UTF-8"?>
<svg width="189px" height="35px" viewBox="0 0 189 35" version="1.1" xmlns="http://www.w3.org/2000/svg" xmlns:xlink="http://www.w3.org/1999/xlink">
    <title>logo-remesh</title>
    <desc>Created with Sketch.</desc>
    <g id="logo-remesh">
        <g id="remesh" transform="translate(37.000000, 0.000000)">
            <path d="M129.558846,2.13162821e-14 C129.110923,2.13162821e-14 128.748154,0.3822 128.748154,0.854 L128.748154,32.6207 C128.748154,32.9854 129.029231,33.2801 129.375385,33.2801 L135.131231,33.2801 C135.476692,33.2801 135.757077,32.9854 135.757077,32.6207 L135.757077,20.0354 C135.757077,16.597 137.533538,14.4228 140.269538,14.4228 C142.958462,14.4228 144.493308,16.2932 144.493308,19.5293 L144.493308,32.6207 C144.493308,32.9854 144.773692,33.2801 145.120538,33.2801 L150.876385,33.2801 C151.221154,33.2801 151.501538,32.9854 151.501538,32.6207 L151.501538,17.8612 C151.501538,11.5423 148.189538,7.6489 142.765308,7.6489 C139.597308,7.6489 137.196385,9.0643 135.757077,11.4912 L135.768846,0.8547 C135.769538,0.3829 135.406077,2.13162821e-14 134.958846,2.13162821e-14 L129.558846,2.13162821e-14 Z" id="letter-h"></path>
            <path d="M107.722077,15.7381 C107.722077,19.6805 110.186692,21.9205 114.490769,22.8893 C118.793462,23.8595 119.919846,24.6267 119.919846,26.0001 C119.919846,27.3322 118.386385,28.1561 116.713769,28.1561 C115.504308,28.1561 114.357154,27.3539 113.812308,26.0239 C113.712615,25.7796 113.444692,25.6662 113.207231,25.7502 L108.310538,27.4939 C108.046769,27.5863 107.898615,27.8957 108.000385,28.1687 C109.392615,31.9263 112.968385,33.9374 116.889615,33.9374 C122.410769,33.9374 126.254462,30.7209 126.254462,25.7173 C126.254462,22.4861 124.156769,20.2853 120.246615,18.7915 C116.335077,17.2977 113.577615,17.2501 113.804692,15.071 C113.907154,14.0875 115.006538,13.1712 116.841846,13.3294 C118.189769,13.4442 119.255923,14.2513 119.800769,15.2978 C119.915,15.5169 120.163538,15.6128 120.387846,15.5337 L124.802,13.9342 C125.132923,13.8152 125.291462,13.4232 125.153692,13.0844 C123.862538,9.9043 120.718769,7.6489 116.889615,7.6489 C111.466077,7.6489 107.722077,10.9851 107.722077,15.7381 Z" id="letter-s"></path>
            <path d="M93.2092308,7.5796 C86.2183077,7.5789 80.9422308,13.1705 80.9242308,20.6899 C80.9048462,28.4256 86.0756923,33.8492 93.4688462,33.8688 C98.4596923,33.8828 102.165615,31.7093 104.355385,27.3616 C104.490385,27.0949 104.358154,26.7617 104.086769,26.6658 L99.0398462,24.8682 C98.8390769,24.7975 98.6216923,24.8815 98.5033077,25.0656 C97.4122308,26.7498 95.9251538,27.8089 93.4833846,27.8026 C90.5556154,27.7942 88.0169231,25.6648 87.7836154,22.7311 L104.790846,22.778 C105.035231,22.7787 105.238769,22.5869 105.258846,22.3307 C105.287923,21.9849 105.308,21.5145 105.309385,20.9594 C105.328769,13.1229 100.397462,7.5992 93.2445385,7.5796 C93.2327692,7.5796 93.221,7.5796 93.2092308,7.5796 Z M87.8431538,17.9284 C88.1366923,15.5533 90.3984615,13.3357 93.1822308,13.3434 C96.0158462,13.3504 98.171,15.2768 98.4527692,17.9571 L87.8431538,17.9284 Z" id="letter-e"></path>
            <path d="M62.5074615,11.9966 C61.2121538,9.2673 58.7212308,7.6489 55.5047692,7.6489 C52.3845385,7.6489 50.0812308,9.8105 48.833,12.0855 L47.6505385,8.6667 C47.5937692,8.4539 47.4096154,8.3055 47.1984615,8.3055 L42.9483846,8.3055 C42.6887692,8.3055 42.479,8.526 42.479,8.7983 L42.479,32.7873 C42.479,33.0589 42.6887692,33.2801 42.9483846,33.2801 L48.7125385,33.2801 C48.9721538,33.2801 49.1812308,33.0589 49.1812308,32.7873 L49.1812308,19.9339 C49.1812308,16.4955 50.813,14.3724 53.3101538,14.3724 C55.7096923,14.3724 57.0548462,16.2435 57.0548462,19.4285 L57.0548462,32.7873 C57.0548462,33.0589 57.2639231,33.2801 57.5228462,33.2801 L63.2876923,33.2801 C63.5473077,33.2801 63.7556923,33.0589 63.7556923,32.7873 L63.7556923,19.782 C63.8041538,16.4458 65.4359231,14.3724 67.8354615,14.3724 C70.2841538,14.3724 71.6279231,16.2435 71.6279231,19.3263 L71.6279231,32.7873 C71.6279231,33.0589 71.8376923,33.2801 72.0966154,33.2801 L77.8621538,33.2801 C78.1217692,33.2801 78.3301538,33.0589 78.3301538,32.7873 L78.3301538,17.6085 C78.3301538,11.5423 74.6,7.6489 69.6922308,7.6489 C66.2362308,7.6489 63.5563077,9.8245 62.5074615,11.9966 Z" id="letter-m"></path>
            <path d="M27.8740769,7.6146 C20.8852308,7.6139 15.6098462,13.2055 15.5904615,20.7242 C15.5717692,28.4592 20.7433077,33.8828 28.1357692,33.9031 C33.128,33.9164 36.8332308,31.7443 39.023,27.3959 C39.1566154,27.1292 39.0257692,26.796 38.7550769,26.7001 L33.7081538,24.9025 C33.5066923,24.8311 33.2893077,24.9158 33.1702308,25.1006 C32.0791538,26.7848 30.5927692,27.8432 28.151,27.8362 C25.2232308,27.8292 22.6852308,25.6984 22.4512308,22.7654 L39.4591538,22.8123 C39.7028462,22.813 39.9056923,22.6205 39.9271538,22.3657 C39.9548462,22.0199 39.9756154,21.5488 39.977,20.9937 C39.9956923,13.1579 35.0650769,7.6335 27.9121538,7.6146 C27.8996923,7.6146 27.8865385,7.6146 27.8740769,7.6146 Z M22.5107692,17.9627 C22.805,15.5876 25.0667692,13.37 27.8505385,13.377 C30.6827692,13.3847 32.8386154,15.3111 33.1196923,17.9914 L22.5107692,17.9627 Z" id="letter-e-1"></path>
            <path d="M7.07230769,13.0368 L5.84484615,9.3751 C5.75692308,9.1161 5.52292308,8.9411 5.26123077,8.9411 L0.778538462,8.9411 C0.437230769,8.9411 0.160307692,9.233 0.160307692,9.5935 L0.160307692,33.4236 C0.160307692,33.6959 0.369384615,33.9157 0.628307692,33.9157 L6.65207692,33.9157 C6.91030769,33.9157 7.12076923,33.6959 7.12076923,33.4236 L7.12076923,23.7538 C7.12076923,18.851 9.42476923,15.8172 13.3134615,15.8172 C13.715,15.8172 14.1013077,15.8494 14.4315385,15.911 C14.7763077,15.9775 15.0892308,15.6877 15.0892308,15.3195 L15.0892308,8.9663 C15.0892308,8.6492 14.8455385,8.3923 14.5450769,8.3895 L13.8894615,8.386 C10.817,8.386 8.32053846,10.1556 7.07230769,13.0368 Z" id="letter-r"></path>
        </g>
        <path d="M13.4079231,29.596 C13.4079231,32.4961 15.732,34.8467 18.6002308,34.8467 C21.4677692,34.8467 23.7918462,32.4961 23.7918462,29.596 C23.7918462,26.6966 21.4677692,24.346 18.6002308,24.346 C15.732,24.346 13.4079231,26.6966 13.4079231,29.596 Z" id="dot-2" opacity="0.5"></path>
        <path d="M4.08562073e-14,21.2093 C4.08562073e-14,24.1094 2.32476923,26.4593 5.19230769,26.4593 C8.05984615,26.4593 10.3846154,24.1094 10.3846154,21.2093 C10.3846154,18.3092 8.05984615,15.9593 5.19230769,15.9593 C2.32476923,15.9593 4.08562073e-14,18.3092 4.08562073e-14,21.2093 Z" id="dot-1" opacity="0.5"></path>
        <path d="M13.4079231,12.3305 C13.4079231,15.2299 15.732,17.5798 18.6002308,17.5798 C21.4677692,17.5798 23.7918462,15.2299 23.7918462,12.3305 C23.7918462,9.4297 21.4677692,7.0798 18.6002308,7.0798 C15.732,7.0798 13.4079231,9.4297 13.4079231,12.3305 Z" id="primary-dot"></path>
    </g>
</svg>