<?xml version="1.0" encoding="UTF-8"?>
<svg width="174px" height="39px" viewBox="0 0 174 39" version="1.1" xmlns="http://www.w3.org/2000/svg" xmlns:xlink="http://www.w3.org/1999/xlink">
    <!-- Generator: Sketch 52.5 (67469) - http://www.bohemiancoding.com/sketch -->
    <title>Group 16</title>
    <desc>Created with Sketch.</desc>
    <g id="PAGES" stroke="none" stroke-width="1" fill="none" fill-rule="evenodd">
        <g id="HOME" transform="translate(-150.000000, -8048.000000)">
            <g id="FOOTER" transform="translate(0.000000, 7160.000000)">
                <g id="Group-16" transform="translate(150.000000, 888.000000)">
                    <path d="M56.128883,39 L49.5353778,39 C49.2399035,39 49,38.7479604 49,38.4375826 L49,10.3121553 C49,10.0017775 49.2399035,9.74973793 49.5353778,9.74973793 L54.3976022,9.74973793 C54.6379574,9.74973793 54.848946,9.918372 54.9140046,10.161752 L56.2662288,14.0626681 C57.6934512,11.4670708 60.3278714,9 63.8961531,9 C67.574673,9 70.4227925,10.8458594 71.9046821,13.9610319 C73.1046513,11.4821111 76.1687291,9 80.1210371,9 C85.7332422,9 90,13.4414566 90,20.3636571 L90,38.4375826 C90,38.7479604 89.7600965,39 89.4646222,39 L82.8702134,39 C82.5747391,39 82.3348356,38.7479604 82.3348356,38.4375826 L82.3348356,22.3248257 C82.3348356,18.8062987 80.7987306,16.6719384 77.9980496,16.6719384 C75.2533912,16.6719384 73.3870235,19.0369172 73.3319045,22.8439451 L73.3319045,38.4375826 C73.3319045,38.7479604 73.0924528,39 72.7969785,39 L66.2030215,39 C65.907999,39 65.6676437,38.7479604 65.6676437,38.4375826 L65.6676437,22.4405907 C65.6676437,18.8062987 64.1301833,16.6719384 61.3855249,16.6719384 C58.5310802,16.6719384 56.6647126,19.0947997 56.6647126,23.0171369 L56.6647126,38.4375826 C56.6647126,38.7479604 56.4243573,39 56.128883,39" id="Fill-1" fill="#FFFFFF"></path>
                    <path d="M155.292821,39 L148.715513,39 C148.320514,39 148,38.6599493 148,38.2402926 L148,0.982880066 C148,0.4403634 148.414411,0 148.925879,0 L155.095998,0 C155.607917,0 156.02278,0.44082355 156.021877,0.984260516 L156.008334,13.2371306 C157.653789,10.4417203 160.396666,8.81094921 164.01712,8.81094921 C170.215678,8.81094921 174,13.2951094 174,20.5751401 L174,38.2402926 C174,38.6599493 173.679486,39 173.284487,39 L166.707179,39 C166.311728,39 165.991666,38.6599493 165.991666,38.2402926 L165.991666,22.4967259 C165.991666,18.7695121 164.236514,16.6150906 161.164997,16.6150906 C158.037955,16.6150906 156.008334,19.119226 156.008334,23.0792756 L156.008334,38.2402926 C156.008334,38.6599493 155.68782,39 155.292821,39" id="Fill-3" fill="#FFFFFF"></path>
                    <path d="M32.4211738,32.077161 C29.0594829,32.0680443 26.1441426,29.6375318 25.8760601,26.2903351 L45.4048034,26.343212 C45.6846797,26.3441236 45.9182879,26.1253228 45.9418756,25.8335884 C45.9740817,25.4392911 45.998123,24.9018616 45.9999374,24.2682508 C46.0217106,15.325679 40.3602258,9.02239196 32.1471944,9.00005604 C24.1006373,8.97817596 18.0213793,15.3653366 18.0000597,23.9614739 C17.9782865,32.7878078 23.9160188,38.977136 32.4039367,38.9999278 C38.1352772,39.0154262 42.3901228,36.5356836 44.9049271,31.5739191 C45.0582466,31.2698771 44.9071951,30.8897107 44.5964734,30.7798545 L38.8011742,28.7290526 C38.5707412,28.6474581 38.3212566,28.7436393 38.1842669,28.9542351 C36.9314009,30.8760356 35.2249266,32.0849102 32.4211738,32.077161 M32.0759779,15.5768441 C35.3288028,15.5855049 37.803236,17.7844532 38.1262051,20.8426505 L25.9450085,20.8098304 C26.2824931,18.0994352 28.8789468,15.5681832 32.0759779,15.5768441" id="Fill-5" fill="#FFFFFF"></path>
                    <path d="M107.421394,32.077161 C104.059757,32.0680443 101.144011,29.6375318 100.876386,26.2903351 L120.404359,26.343212 C120.684231,26.3441236 120.918289,26.1253228 120.941876,25.8335884 C120.974082,25.4392911 120.998123,24.9018616 120.999937,24.2682508 C121.02171,15.325679 115.360317,9.02239196 107.147419,9.00005604 C99.1005385,8.97817596 93.0218325,15.3653366 93.0000597,23.9614739 C92.9782868,32.7878078 98.9163765,38.977136 107.404157,38.9999278 C113.135405,39.0154262 117.390181,36.5356836 119.904945,31.5739191 C120.058716,31.2698771 119.907213,30.8897107 119.596496,30.7798545 L113.801291,28.7290526 C113.570862,28.6474581 113.321381,28.7436393 113.18394,28.9542351 C111.931548,30.8760356 110.225101,32.0849102 107.421394,32.077161 M107.07575,15.5768441 C110.328522,15.5855049 112.802915,17.7844532 113.125879,20.8426505 L100.945333,20.8098304 C101.282813,18.0994352 103.879224,15.5681832 107.07575,15.5768441" id="Fill-7" fill="#FFFFFF"></path>
                    <path d="M138.192795,21.7157661 C133.760904,20.0109099 130.636645,19.9575761 130.892709,17.46958 C131.009103,16.3472923 132.254061,15.302498 134.335259,15.4816447 C135.862247,15.6133836 137.070497,16.5355558 137.688723,17.729411 C137.817651,17.9787577 138.098337,18.0890719 138.352164,17.998359 L143.354828,16.1731599 C143.729525,16.0364067 143.909486,15.5896797 143.753699,15.2031241 C142.289384,11.5736948 138.727755,9 134.389427,9 C128.242528,9 124,12.8081201 124,18.2308394 C124,22.7309305 126.793434,25.2873032 131.669857,26.3931806 C136.54628,27.4990579 137.82347,28.3747341 137.82347,29.9423813 C137.82347,31.462165 136.085632,32.4030268 134.190663,32.4030268 C132.819015,32.4030268 131.519889,31.4881481 130.90211,29.9688203 C130.789299,29.6912113 130.485781,29.56084 130.215839,29.6579347 L124.66747,31.6463259 C124.368429,31.7534492 124.201002,32.1053607 124.315604,32.417158 C125.893178,36.7052817 129.945449,39 134.389427,39 C140.645555,39 145,35.3304565 145,29.6187321 C145,25.9323224 142.624238,23.4206224 138.192795,21.7157661" id="Fill-9" fill="#FFFFFF"></path>
                    <g id="Group-13" transform="translate(0.000000, 9.000000)">
                        <polygon id="Clip-12" points="0 0.138181818 16.9059184 0.138181818 16.9059184 29.8440909 0 29.8440909"></polygon>
                        <path d="M16.9059184,8.02772727 C16.9059184,8.44727273 16.5511553,8.77681818 16.16105,8.70181818 C15.7874974,8.63045455 15.3495237,8.59454545 14.89455,8.59454545 C10.4911026,8.59454545 7.88205,12.0463636 7.88205,17.6263636 L7.88205,29.2831818 C7.88205,29.5931818 7.64449737,29.8440909 7.35236579,29.8440909 L0.530444737,29.8440909 C0.236971053,29.8440909 -0.000134210526,29.5931818 -0.000134210526,29.2831818 L-0.000134210526,1.51181818 C-0.000134210526,1.10227273 0.313471053,0.770454545 0.699997368,0.770454545 L5.77583947,0.770454545 C6.07244474,0.770454545 6.33728684,0.968636364 6.43660263,1.26454545 L7.82747105,5.43045455 C9.24070789,2.15136364 12.0685237,0.138181818 15.5468132,0.138181818 L16.2889974,0.142727273 C16.6303395,0.144545455 16.9059184,0.437727273 16.9059184,0.799090909 L16.9059184,8.02772727 Z" id="Fill-11" fill="#FFFFFF"></path>
                    </g>
                </g>
            </g>
        </g>
    </g>
</svg>