<?xml version="1.0" encoding="UTF-8"?>
<svg width="75px" height="31px" viewBox="0 0 75 31" version="1.1" xmlns="http://www.w3.org/2000/svg" xmlns:xlink="http://www.w3.org/1999/xlink">
    <!-- Generator: Sketch 52.5 (67469) - http://www.bohemiancoding.com/sketch -->
    <title>logo-ibm</title>
    <desc>Created with Sketch.</desc>
    <defs>
        <polygon id="path-1" points="0.112480218 0.122368421 12.4292572 0.122368421 12.4292572 2.25162213 0.112480218 2.25162213"></polygon>
        <polygon id="path-3" points="0.485664894 0.122368421 21.4369947 0.122368421 21.4369947 2.25141228 0.485664894 2.25141228"></polygon>
    </defs>
    <g id="Page-1" stroke="none" stroke-width="1" fill="none" fill-rule="evenodd">
        <g id="logo-ibm">
            <g id="Group-44">
                <polygon id="Fill-1" fill="#AFAFAF" points="63.7398577 0.678844486 63 2.67884449 75 2.67884449 75 0.678844486"></polygon>
                <g id="Group-43" transform="translate(0.000000, 0.678844)">
                    <g id="Group-4" transform="translate(41.489362, 0.000000)">
                        <mask id="mask-2" fill="white">
                            <use xlink:href="#path-1"></use>
                        </mask>
                        <g id="Clip-3"></g>
                        <path d="M0.113297872,0.123078947 L11.6720745,0.122289474 L12.4292553,2.25071053 C12.4348404,2.24755263 0.117287234,2.25386842 0.117287234,2.25071053 C0.117287234,2.24755263 0.110106383,0.123078947 0.113297872,0.123078947" id="Fill-2" fill="#AFAFAF" mask="url(#mask-2)"></path>
                    </g>
                    <g id="Group-7" transform="translate(15.957447, 0.000000)">
                        <mask id="mask-4" fill="white">
                            <use xlink:href="#path-3"></use>
                        </mask>
                        <g id="Clip-6"></g>
                        <path d="M16.4654521,0.123078947 C18.3707713,0.304657895 20.0263564,0.9765 21.4369947,2.25071053 C21.4369947,2.25071053 0.485664894,2.25228947 0.485664894,2.25071053 L0.485664894,0.122289474 L16.4654521,0.123078947 Z" id="Fill-5" fill="#AFAFAF" mask="url(#mask-4)"></path>
                    </g>
                    <polygon id="Fill-8" fill="#AFAFAF" points="0.00159574468 2.24684211 14.556383 2.24684211 14.556383 0.123157895 0.00159574468 0.123157895"></polygon>
                    <path d="M74.7903191,6.23226316 L60.9137234,6.23226316 C60.9137234,6.23226316 61.6709043,4.11963158 61.6669149,4.11884211 L74.7903191,4.11884211 L74.7903191,6.23226316 Z" id="Fill-10" fill="#AFAFAF"></path>
                    <polygon id="Fill-11" fill="#AFAFAF" points="55.348484 6.23494737 41.6019415 6.23494737 41.6019415 4.11836842 54.5960904 4.11836842"></polygon>
                    <path d="M39.0263298,4.11789474 C39.3023936,4.81578947 39.6295213,5.41263158 39.6295213,6.23131579 L16.4473404,6.23131579 L16.4473404,4.11789474 L39.0263298,4.11789474 Z" id="Fill-12" fill="#AFAFAF"></path>
                    <polygon id="Fill-13" fill="#AFAFAF" points="0.00159574468 6.23131579 14.556383 6.23131579 14.556383 4.11789474 0.00159574468 4.11789474"></polygon>
                    <polygon id="Fill-14" fill="#AFAFAF" points="59.4951862 10.2270789 60.2571543 8.10418421 70.6757713 8.10655263 70.6757713 10.2223421"></polygon>
                    <polygon id="Fill-15" fill="#AFAFAF" points="56.0169415 8.10307895 56.7757181 10.2267632 45.7004521 10.2267632 45.7004521 8.10307895"></polygon>
                    <path d="M39.8129521,8.10268421 C39.8129521,8.83136842 39.7203989,9.59005263 39.5065691,10.2271579 L33.1594947,10.2271579 L33.1594947,8.10268421 L39.8129521,8.10268421 Z" id="Fill-16" fill="#AFAFAF"></path>
                    <polygon id="Fill-17" fill="#AFAFAF" points="4.0587766 10.2268421 10.3148936 10.2268421 10.3148936 8.11342105 4.0587766 8.11342105"></polygon>
                    <polygon id="Fill-18" fill="#AFAFAF" points="20.6585106 10.2260526 26.9034574 10.2260526 26.9034574 8.10236842 20.6585106 8.10236842"></polygon>
                    <path d="M51.8522872,12.5203421 C51.8522872,12.5203421 51.8546809,14.1277105 51.8530851,14.1316579 L45.7006915,14.1316579 L45.7006915,12.0174389 L57.4246277,12.0174474 L58.1522872,13.9879737 C58.1554787,13.9887632 58.8544149,12.0127105 58.8560106,12.0174474 L70.6717021,12.0174389 L70.6717021,14.1316579 L64.5496277,14.1316579 C64.5496277,14.1277105 64.5456383,12.5203421 64.5456383,12.5203421 L63.9799468,14.1316579 L52.4179787,14.1277105 L51.8522872,12.5203421 Z" id="Fill-19" fill="#AFAFAF"></path>
                    <path d="M20.6585106,12.0172895 L38.5859043,12.0172895 L38.5859043,12.0157105 C38.1949468,12.7238684 37.4824468,13.5851842 36.8082447,14.1315 C36.8082447,14.1315 20.6577128,14.1338684 20.6577128,14.1315 C20.6577128,14.1275526 20.6585106,12.0204474 20.6585106,12.0172895" id="Fill-20" fill="#AFAFAF"></path>
                    <polygon id="Fill-21" fill="#AFAFAF" points="4.0587766 14.1307895 10.3148936 14.1307895 10.3148936 12.0165789 4.0587766 12.0165789"></polygon>
                    <polygon id="Fill-22" fill="#AFAFAF" points="64.5494681 18.1160526 70.6715426 18.1160526 70.6715426 16.0026316 64.5494681 16.0026316"></polygon>
                    <path d="M51.8522872,16.0023947 L45.7006902,16.0023947 L45.7006915,18.1158158 C45.6975,18.1150263 51.8546809,18.1173947 51.8546809,18.1158158 C51.8546809,18.1150263 51.8610638,16.0023947 51.8522872,16.0023947" id="Fill-23" fill="#AFAFAF"></path>
                    <path d="M63.3131649,16.0023892 C63.2852394,15.9984474 62.5966755,18.1150263 62.5671543,18.1158158 L53.8472074,18.1197632 C53.8400266,18.1166053 53.0804521,15.9984474 53.0796543,16.0023892 L63.3131649,16.0023892 Z" id="Fill-24" fill="#AFAFAF"></path>
                    <path d="M20.6569947,16.0016053 L36.7772074,16.0016053 C37.5128457,16.6095 38.1782713,17.3571316 38.698484,18.1158158 C38.7280053,18.1150263 20.6577926,18.1173947 20.6577926,18.1158158 C20.6577926,18.1150263 20.6569947,16.0031842 20.6569947,16.0016053" id="Fill-25" fill="#AFAFAF"></path>
                    <path d="M10.3138564,18.1156579 L10.3138564,16.0014474 L4.06890927,16.0014474 C4.06890927,16.0014474 4.07050532,18.1148684 4.06890957,18.1148684 C4.06731383,18.1148684 10.3106649,18.1156579 10.3138564,18.1156579" id="Fill-26" fill="#AFAFAF"></path>
                    <polygon id="Fill-27" fill="#AFAFAF" points="64.5494681 22.1021053 70.6707447 22.1021053 70.6707447 19.9878947 64.5494681 19.9878947"></polygon>
                    <polygon id="Fill-28" fill="#AFAFAF" points="45.7005319 22.1013158 51.8521277 22.1013158 51.8521277 19.9878947 45.7005319 19.9878947"></polygon>
                    <path d="M61.1353723,22.1115789 C61.1369681,22.1013158 61.8901596,19.9855263 61.9021277,19.9878927 L54.4890957,19.9878947 C54.4755319,19.9863158 55.2486702,22.1013158 55.2486702,22.1013158 C55.2486702,22.1013158 61.1337766,22.1202632 61.1353723,22.1115789" id="Fill-29" fill="#AFAFAF"></path>
                    <path d="M20.6577926,22.1007632 C20.6577926,22.1094474 20.6569947,19.9873421 20.6577926,19.9865526 L26.9960904,19.9865526 C26.9960904,19.9865526 27.0016755,22.1015526 26.9960904,22.1015526 C26.9905053,22.1015526 20.6577926,22.0983947 20.6577926,22.1007632" id="Fill-30" fill="#AFAFAF"></path>
                    <path d="M39.5881117,19.9867895 C39.8944947,20.6238947 39.9256117,21.3825789 39.9870479,22.1104737 L33.2713564,22.1104737 L33.2713564,19.9867895 L39.5881117,19.9867895 Z" id="Fill-31" fill="#AFAFAF"></path>
                    <polygon id="Fill-32" fill="#AFAFAF" points="4.06914894 22.1005263 10.3140957 22.1005263 10.3140957 19.9871053 4.06914894 19.9871053"></polygon>
                    <polygon id="Fill-33" fill="#AFAFAF" points="64.5494681 26.0052632 74.7893617 26.0052632 74.7893617 23.8902632 64.5494681 23.8902632"></polygon>
                    <polygon id="Fill-34" fill="#AFAFAF" points="41.6018617 26.0052632 51.8521277 26.0052632 51.8521277 23.8902632 41.6018617 23.8902632"></polygon>
                    <polygon id="Fill-35" fill="#AFAFAF" points="59.757766 26.0049474 56.6309043 26.0049474 55.8809043 23.8899474 60.4806383 23.8899474"></polygon>
                    <path d="M0.00110257862,23.8901842 L0.00110257862,26.0043983 L14.5455319,26.0043947 C14.5519149,26.0075526 14.5391489,23.8917632 14.5455319,23.8917632 C14.5519149,23.8917632 -0.0156382979,23.8901842 0.00110257862,23.8901842" id="Fill-36" fill="#AFAFAF"></path>
                    <path d="M39.7205585,23.8901842 C39.567367,24.5880789 39.4269415,25.4375526 38.9123138,26.0051842 L38.7200266,26.0043947 L16.4466223,26.0043947 L16.4466223,23.8901842 L39.7205585,23.8901842 Z" id="Fill-37" fill="#AFAFAF"></path>
                    <polygon id="Fill-38" fill="#AFAFAF" points="58.3405053 29.9947105 58.0532713 29.9947105 57.3224202 27.8757632 59.0905053 27.8757632"></polygon>
                    <polygon id="Fill-39" fill="#AFAFAF" points="64.5494681 29.9992105 74.7893617 29.9992105 74.7893617 27.8763158 64.5494681 27.8763158"></polygon>
                    <path d="M16.4431915,29.9947105 L16.4431915,27.8789211 C16.4431915,27.8789211 37.4567553,27.8812895 37.5173936,27.8812895 C36.1067553,29.2170789 34.171117,29.9702368 32.0862766,29.9994474 L16.446383,29.9947105" id="Fill-40" fill="#AFAFAF"></path>
                    <polygon id="Fill-41" fill="#AFAFAF" points="41.6018617 29.9992105 51.8521277 29.9992105 51.8521277 27.8763158 41.6018617 27.8763158"></polygon>
                    <path d="M14.5459309,27.8853947 C14.5459309,27.8853947 14.5395479,29.9948684 14.5459309,29.9948684 C14.5523138,29.9948684 0.00470744681,30.0035526 0.00151595745,29.9988158 C-0.00247340426,29.9948684 0.00470744681,27.8790789 0.00151595745,27.8790789 C-0.00247340426,27.8790789 14.5395479,27.8917105 14.5459309,27.8853947" id="Fill-42" fill="#AFAFAF"></path>
                </g>
            </g>
        </g>
    </g>
</svg>