<?xml version="1.0" encoding="UTF-8"?>
<svg width="117px" height="12px" viewBox="0 0 117 12" version="1.1" xmlns="http://www.w3.org/2000/svg" xmlns:xlink="http://www.w3.org/1999/xlink">
    <!-- Generator: Sketch 52.5 (67469) - http://www.bohemiancoding.com/sketch -->
    <title>Stroke 3</title>
    <desc>Created with Sketch.</desc>
    <g id="Page-1" stroke="none" stroke-width="1" fill="none" fill-rule="evenodd">
        <path d="M4.33171061,10.2910251 C2.13017066,10.4741014 0.197057176,8.83781342 0.0139807941,6.63627346 C-0.169095588,4.43473351 1.46719244,2.50162003 3.66873239,2.31854365 C40.2909897,-0.726902051 72.188065,-0.553709396 98.2115307,1.57130872 C102.356933,1.90981303 105.981751,2.27305352 109.064264,2.63708529 C110.14919,2.76521052 111.090377,2.88455378 111.885111,2.99212287 C112.370227,3.05778454 112.703449,3.10568672 112.88206,3.13283774 C115.066109,3.46483898 116.567491,5.50450075 116.235489,7.68854981 C115.903488,9.87259887 113.863826,11.3739803 111.679777,11.041979 C111.543987,11.0213373 111.253845,10.9796279 110.812076,10.9198335 C110.062002,10.8183092 109.165741,10.7046626 108.126017,10.5818756 C105.138103,10.2290156 101.608976,9.87536417 97.5604357,9.5447694 C71.9591465,7.45422528 40.4990982,7.28340556 4.33171061,10.2910251 Z" id="Stroke-3" fill="#F34F3F" fill-rule="nonzero"></path>
    </g>
</svg>