<?xml version="1.0" encoding="UTF-8"?>
<svg width="22px" height="21px" viewBox="0 0 22 21" version="1.1" xmlns="http://www.w3.org/2000/svg" xmlns:xlink="http://www.w3.org/1999/xlink">
    <!-- Generator: Sketch 52.5 (67469) - http://www.bohemiancoding.com/sketch -->
    <title>nav-phone</title>
    <desc>Created with Sketch.</desc>
    <g id="Page-1" stroke="none" stroke-width="1" fill="none" fill-rule="evenodd">
        <path d="M18.8288662,15.1931983 C18.8594673,15.4234427 18.7878664,15.6238901 18.6141575,15.7941107 L16.5745652,17.7772568 C16.482574,17.8774498 16.3624248,17.9625754 16.2142429,18.0326952 C16.065967,18.1028149 15.9202595,18.1478941 15.7772143,18.1679327 C15.7669408,18.1679327 15.7362458,18.170449 15.6850978,18.175451 C15.6340751,18.1804837 15.5676423,18.183 15.4857992,18.183 C15.291606,18.183 14.9771697,18.1504104 14.5427094,18.0853233 C14.1081239,18.0202363 13.5765357,17.8599582 12.9478822,17.6045198 C12.3191348,17.3490507 11.60607,16.9659851 10.8086251,16.4552003 C10.0112428,15.9444156 9.16261858,15.2431567 8.26303432,14.3518227 C7.54736979,13.6606292 6.95445415,12.9995396 6.48419343,12.368554 C6.01383874,11.7375376 5.63566318,11.1541168 5.34935352,10.6181994 C5.06307518,10.082374 4.84836643,9.59653779 4.70532122,9.16078269 C4.56215073,8.72518102 4.46502282,8.34951102 4.41387484,8.03401819 C4.36272686,7.71849468 4.34230525,7.47060526 4.3525787,7.29031926 C4.36272686,7.11003326 4.36786358,7.00984027 4.36786358,6.98980167 C4.38834783,6.84956218 4.43429644,6.7069291 4.50589735,6.56162626 C4.57749825,6.4163541 4.66435272,6.29876159 4.76661736,6.20860325 L6.80617826,4.21035924 C6.94931743,4.07011975 7.11290952,4 7.29692323,4 C7.42982027,4 7.54736979,4.03749949 7.64954046,4.1126519 C7.7518051,4.187835 7.83869089,4.28047899 7.91026047,4.39064524 L9.55113023,7.44053202 C9.64312142,7.60077943 9.66867975,7.77615551 9.62780522,7.96641478 C9.58696201,8.15676611 9.50007622,8.31701351 9.36711653,8.44718768 L8.6157142,9.18333762 C8.59529259,9.20346828 8.57731406,9.23596579 8.56202918,9.28101427 C8.54671297,9.32609344 8.53903921,9.36374637 8.53903921,9.39369686 C8.57988242,9.60408679 8.67187361,9.84442721 8.81507542,10.1148409 C8.93779299,10.355304 9.12694341,10.6482726 9.38249538,10.9938694 C9.63807867,11.3393434 10.0009693,11.7375376 10.4712927,12.188268 C10.9313113,12.649033 11.3402132,13.0070886 11.6980925,13.262527 C12.0558465,13.5178734 12.3548726,13.7057084 12.595171,13.82594 C12.8353442,13.9460488 13.0194518,14.0187156 13.1472121,14.0437255 L13.3388056,14.0812556 C13.3592273,14.0812556 13.392522,14.0737373 13.4385019,14.0587314 C13.4845132,14.0437255 13.5178079,14.0262339 13.5382295,14.0061032 L14.4122868,13.1347465 C14.5964258,12.9744991 14.8110406,12.8942833 15.0563504,12.8942833 C15.2301846,12.8942833 15.3682184,12.9243872 15.4703577,12.9844416 L15.4857992,12.9844416 L18.4454286,14.6972661 C18.6601374,14.827563 18.7878664,14.992751 18.8288662,15.1931983" id="call-1" fill="#AFAFAF"></path>
    </g>
</svg>