<?xml version="1.0" encoding="UTF-8"?>
<svg width="21px" height="21px" viewBox="0 0 21 21" version="1.1" xmlns="http://www.w3.org/2000/svg" xmlns:xlink="http://www.w3.org/1999/xlink">
    <!-- Generator: Sketch 52.5 (67469) - http://www.bohemiancoding.com/sketch -->
    <title>nav-medium</title>
    <desc>Created with Sketch.</desc>
    <g id="Page-1" stroke="none" stroke-width="1" fill="none" fill-rule="evenodd">
        <path d="M16.580961,15.7161736 L16.580961,14.3908591 L16.580961,14.3908096 L16.580961,11.0317905 C16.580961,11.0307523 16.5810961,11.0298129 16.5810961,11.0288241 C16.5810961,11.0278847 16.580961,11.0268959 16.580961,11.0259071 L16.580961,6.25658448 L17.8680612,4.8440067 C17.9969019,4.70260554 18.0354189,4.49000939 17.9656828,4.30519907 C17.8959466,4.12048763 17.7316973,4 17.5494734,4 L13.7578638,4 C13.5682068,4 13.406255,4.12879371 13.3398074,4.31088478 C13.3393569,4.31207136 13.3388614,4.31286242 13.3384109,4.31409844 L10.6160437,11.9417515 L7.40926267,4.34430687 C7.33551716,4.16953307 7.175998,4.05764816 7.00048639,4.05764816 L2.4505189,4.05764816 C2.27270978,4.05764816 2.1115238,4.17249952 2.03908471,4.35068476 C1.96664563,4.52896887 1.99655828,4.73721421 2.11535298,4.88242232 L4.18491245,7.41132763 L4.18491245,14.3170932 L2.0978739,17.1979687 C1.9902514,17.3465388 1.96961887,17.5494939 2.04476091,17.7204608 C2.119948,17.8913782 2.27762014,18 2.4505189,18 L6.94043583,18 C7.11549695,18 7.27470076,17.8887084 7.34871657,17.7145773 C7.42273238,17.5404957 7.39809048,17.3350685 7.28560267,17.1879322 L5.08589611,14.3098253 L5.08589611,9.43464964 L8.63509599,17.7160111 C8.7093821,17.8893511 8.86818047,18 9.04274605,18 L9.11405891,18 C9.29943629,18 9.46589303,17.8753593 9.53351185,17.6859016 L12.4063883,9.63656654 L12.4063883,15.655905 L11.1957817,17.1808127 C11.07978,17.3269602 11.052255,17.5340684 11.1253698,17.7103748 C11.1985297,17.8867802 11.3588146,18 11.5354074,18 L17.4518968,18 C17.6301565,18 17.7916127,17.8847037 17.8637815,17.7058263 C17.9359954,17.5269983 17.9052718,17.3182585 17.7855311,17.173446 L16.580961,15.7161736 Z" id="Fill-1" fill="#AFAFAF"></path>
    </g>
</svg>