<?xml version="1.0" encoding="UTF-8"?>
<svg width="21px" height="21px" viewBox="0 0 21 21" version="1.1" xmlns="http://www.w3.org/2000/svg" xmlns:xlink="http://www.w3.org/1999/xlink">
    <!-- Generator: Sketch 52.5 (67469) - http://www.bohemiancoding.com/sketch -->
    <title>nav-linkedin</title>
    <desc>Created with Sketch.</desc>
    <g id="Page-1" stroke="none" stroke-width="1" fill="none" fill-rule="evenodd">
        <g id="Desktop-HD" fill="#AFAFAF">
            <g id="nav-linkedin">
                <path d="M17.9267988,2 C18.6286252,2 19.2002121,2.55527186 19.1999339,3.23937589 L19.1999339,17.9585854 C19.1999339,18.6435336 18.6283469,19.199368 17.9267988,19.199368 L3.26947489,19.199368 C2.56905581,19.199368 2,18.6435336 2,17.9585854 L2,3.23937589 C2,2.55527186 2.56905581,2 3.26947489,2 L17.9267988,2 Z M4.5502013,8.44807554 L4.5502013,16.6561995 L7.10152702,16.6561995 L7.10152702,8.44807554 L4.5502013,8.44807554 Z M5.8264267,4.36792295 C5.00870856,4.36792295 4.34682595,5.03064904 4.34682595,5.84667956 C4.34682595,6.66327262 5.00870856,7.32599805 5.8264267,7.32599805 C6.64189468,7.32599805 7.3046201,6.66327262 7.3046201,5.84667956 C7.3046201,5.03064904 6.64189468,4.36792295 5.8264267,4.36792295 Z M8.70152048,8.44807554 L8.70124021,8.44807554 L8.70124021,16.6559185 L11.2500348,16.6559185 L11.2500348,12.5954569 C11.2500348,11.5248564 11.4536904,10.488011 12.7811119,10.488011 C14.0894174,10.488011 14.1068436,11.7124785 14.1068436,12.6643734 L14.1068436,16.6559185 L16.6562015,16.6559185 L16.6562015,12.1538266 C16.6562015,9.94399069 16.1794119,8.24385671 13.5960166,8.24385671 C12.3549511,8.24385671 11.5228885,8.92430388 11.1822428,9.56958983 L11.1482053,9.56958983 L11.1482053,8.44807554 L8.70152048,8.44807554 Z" id="Combined-Shape"></path>
            </g>
        </g>
    </g>
</svg>