<?xml version="1.0" encoding="UTF-8"?>
<svg width="328px" height="166px" viewBox="0 0 328 166" version="1.1" xmlns="http://www.w3.org/2000/svg" xmlns:xlink="http://www.w3.org/1999/xlink">
    <!-- Generator: Sketch 52.5 (67469) - http://www.bohemiancoding.com/sketch -->
    <title>Group 361</title>
    <desc>Created with Sketch.</desc>
    <defs>
        <path d="M0.351,163.724 C2.353,165.726 326.083,164.976 327.334,163.724 C327.334,73.43 254.137,0.232 163.843,0.232 C73.549,0.232 0.351,73.43 0.351,163.724" id="path-1"></path>
        <path d="M0.351,163.724 C2.353,165.726 326.083,164.976 327.334,163.724 C327.334,73.43 254.137,0.232 163.843,0.232 C73.549,0.232 0.351,73.43 0.351,163.724" id="path-3"></path>
        <path d="M0.351,163.724 C2.353,165.726 326.083,164.976 327.334,163.724 C327.334,73.43 254.137,0.232 163.843,0.232 C73.549,0.232 0.351,73.43 0.351,163.724" id="path-5"></path>
        <path d="M0.351,163.724 C2.353,165.726 326.083,164.976 327.334,163.724 C327.334,73.43 254.137,0.232 163.843,0.232 C73.549,0.232 0.351,73.43 0.351,163.724" id="path-7"></path>
        <path d="M0.351,163.724 C2.353,165.726 326.083,164.976 327.334,163.724 C327.334,73.43 254.137,0.232 163.843,0.232 C73.549,0.232 0.351,73.43 0.351,163.724" id="path-9"></path>
        <path d="M0.351,163.724 C2.353,165.726 326.083,164.976 327.334,163.724 C327.334,73.43 254.137,0.232 163.843,0.232 C73.549,0.232 0.351,73.43 0.351,163.724" id="path-11"></path>
        <path d="M0.351,163.724 C2.353,165.726 326.083,164.976 327.334,163.724 C327.334,73.43 254.137,0.232 163.843,0.232 C73.549,0.232 0.351,73.43 0.351,163.724" id="path-13"></path>
        <path d="M0.351,163.724 C2.353,165.726 326.083,164.976 327.334,163.724 C327.334,73.43 254.137,0.232 163.843,0.232 C73.549,0.232 0.351,73.43 0.351,163.724" id="path-15"></path>
        <path d="M0.351,163.724 C2.353,165.726 326.083,164.976 327.334,163.724 C327.334,73.43 254.137,0.232 163.843,0.232 C73.549,0.232 0.351,73.43 0.351,163.724" id="path-17"></path>
        <path d="M0.351,163.724 C2.353,165.726 326.083,164.976 327.334,163.724 C327.334,73.43 254.137,0.232 163.843,0.232 C73.549,0.232 0.351,73.43 0.351,163.724" id="path-19"></path>
        <path d="M0.351,163.724 C2.353,165.726 326.083,164.976 327.334,163.724 C327.334,73.43 254.137,0.232 163.843,0.232 C73.549,0.232 0.351,73.43 0.351,163.724" id="path-21"></path>
        <path d="M0.351,163.724 C2.353,165.726 326.083,164.976 327.334,163.724 C327.334,73.43 254.137,0.232 163.843,0.232 C73.549,0.232 0.351,73.43 0.351,163.724" id="path-23"></path>
        <path d="M0.351,163.724 C2.353,165.726 326.083,164.976 327.334,163.724 C327.334,73.43 254.137,0.232 163.843,0.232 C73.549,0.232 0.351,73.43 0.351,163.724" id="path-25"></path>
        <path d="M0.351,163.724 C2.353,165.726 326.083,164.976 327.334,163.724 C327.334,73.43 254.137,0.232 163.843,0.232 C73.549,0.232 0.351,73.43 0.351,163.724" id="path-27"></path>
        <path d="M0.351,163.724 C2.353,165.726 326.083,164.976 327.334,163.724 C327.334,73.43 254.137,0.232 163.843,0.232 C73.549,0.232 0.351,73.43 0.351,163.724" id="path-29"></path>
        <path d="M0.351,163.724 C2.353,165.726 326.083,164.976 327.334,163.724 C327.334,73.43 254.137,0.232 163.843,0.232 C73.549,0.232 0.351,73.43 0.351,163.724" id="path-31"></path>
        <path d="M0.351,163.724 C2.353,165.726 326.083,164.976 327.334,163.724 C327.334,73.43 254.137,0.232 163.843,0.232 C73.549,0.232 0.351,73.43 0.351,163.724" id="path-33"></path>
        <path d="M0.351,163.724 C2.353,165.726 326.083,164.976 327.334,163.724 C327.334,73.43 254.137,0.232 163.843,0.232 C73.549,0.232 0.351,73.43 0.351,163.724" id="path-35"></path>
        <path d="M0.351,163.724 C2.353,165.726 326.083,164.976 327.334,163.724 C327.334,73.43 254.137,0.232 163.843,0.232 C73.549,0.232 0.351,73.43 0.351,163.724" id="path-37"></path>
        <path d="M0.351,163.724 C2.353,165.726 326.083,164.976 327.334,163.724 C327.334,73.43 254.137,0.232 163.843,0.232 C73.549,0.232 0.351,73.43 0.351,163.724" id="path-39"></path>
        <path d="M0.351,163.724 C2.353,165.726 326.083,164.976 327.334,163.724 C327.334,73.43 254.137,0.232 163.843,0.232 C73.549,0.232 0.351,73.43 0.351,163.724" id="path-41"></path>
        <path d="M0.351,163.724 C2.353,165.726 326.083,164.976 327.334,163.724 C327.334,73.43 254.137,0.232 163.843,0.232 C73.549,0.232 0.351,73.43 0.351,163.724" id="path-43"></path>
        <path d="M0.351,163.724 C2.353,165.726 326.083,164.976 327.334,163.724 C327.334,73.43 254.137,0.232 163.843,0.232 C73.549,0.232 0.351,73.43 0.351,163.724" id="path-45"></path>
        <path d="M0.351,163.724 C2.353,165.726 326.083,164.976 327.334,163.724 C327.334,73.43 254.137,0.232 163.843,0.232 C73.549,0.232 0.351,73.43 0.351,163.724" id="path-47"></path>
        <path d="M0.351,163.724 C2.353,165.726 326.083,164.976 327.334,163.724 C327.334,73.43 254.137,0.232 163.843,0.232 C73.549,0.232 0.351,73.43 0.351,163.724" id="path-49"></path>
        <path d="M0.351,163.724 C2.353,165.726 326.083,164.976 327.334,163.724 C327.334,73.43 254.137,0.232 163.843,0.232 C73.549,0.232 0.351,73.43 0.351,163.724" id="path-51"></path>
        <path d="M0.351,163.724 C2.353,165.726 326.083,164.976 327.334,163.724 C327.334,73.43 254.137,0.232 163.843,0.232 C73.549,0.232 0.351,73.43 0.351,163.724" id="path-53"></path>
        <path d="M0.351,163.724 C2.353,165.726 326.083,164.976 327.334,163.724 C327.334,73.43 254.137,0.232 163.843,0.232 C73.549,0.232 0.351,73.43 0.351,163.724" id="path-55"></path>
        <path d="M0.351,163.724 C2.353,165.726 326.083,164.976 327.334,163.724 C327.334,73.43 254.137,0.232 163.843,0.232 C73.549,0.232 0.351,73.43 0.351,163.724" id="path-57"></path>
        <path d="M0.351,163.724 C2.353,165.726 326.083,164.976 327.334,163.724 C327.334,73.43 254.137,0.232 163.843,0.232 C73.549,0.232 0.351,73.43 0.351,163.724" id="path-59"></path>
        <path d="M0.351,163.724 C2.353,165.726 326.083,164.976 327.334,163.724 C327.334,73.43 254.137,0.232 163.843,0.232 C73.549,0.232 0.351,73.43 0.351,163.724" id="path-61"></path>
        <path d="M0.351,163.724 C2.353,165.726 326.083,164.976 327.334,163.724 C327.334,73.43 254.137,0.232 163.843,0.232 C73.549,0.232 0.351,73.43 0.351,163.724" id="path-63"></path>
        <path d="M0.351,163.724 C2.353,165.726 326.083,164.976 327.334,163.724 C327.334,73.43 254.137,0.232 163.843,0.232 C73.549,0.232 0.351,73.43 0.351,163.724" id="path-65"></path>
        <path d="M0.351,163.724 C2.353,165.726 326.083,164.976 327.334,163.724 C327.334,73.43 254.137,0.232 163.843,0.232 C73.549,0.232 0.351,73.43 0.351,163.724" id="path-67"></path>
        <path d="M0.351,163.724 C2.353,165.726 326.083,164.976 327.334,163.724 C327.334,73.43 254.137,0.232 163.843,0.232 C73.549,0.232 0.351,73.43 0.351,163.724" id="path-69"></path>
        <path d="M0.351,163.724 C2.353,165.726 326.083,164.976 327.334,163.724 C327.334,73.43 254.137,0.232 163.843,0.232 C73.549,0.232 0.351,73.43 0.351,163.724" id="path-71"></path>
        <path d="M0.351,163.724 C2.353,165.726 326.083,164.976 327.334,163.724 C327.334,73.43 254.137,0.232 163.843,0.232 C73.549,0.232 0.351,73.43 0.351,163.724" id="path-73"></path>
        <path d="M0.351,163.724 C2.353,165.726 326.083,164.976 327.334,163.724 C327.334,73.43 254.137,0.232 163.843,0.232 C73.549,0.232 0.351,73.43 0.351,163.724" id="path-75"></path>
        <path d="M0.351,163.724 C2.353,165.726 326.083,164.976 327.334,163.724 C327.334,73.43 254.137,0.232 163.843,0.232 C73.549,0.232 0.351,73.43 0.351,163.724" id="path-77"></path>
        <path d="M0.351,163.724 C2.353,165.726 326.083,164.976 327.334,163.724 C327.334,73.43 254.137,0.232 163.843,0.232 C73.549,0.232 0.351,73.43 0.351,163.724" id="path-79"></path>
        <path d="M0.351,163.724 C2.353,165.726 326.083,164.976 327.334,163.724 C327.334,73.43 254.137,0.232 163.843,0.232 C73.549,0.232 0.351,73.43 0.351,163.724" id="path-81"></path>
        <path d="M0.351,163.724 C2.353,165.726 326.083,164.976 327.334,163.724 C327.334,73.43 254.137,0.232 163.843,0.232 C73.549,0.232 0.351,73.43 0.351,163.724" id="path-83"></path>
        <path d="M0.351,163.724 C2.353,165.726 326.083,164.976 327.334,163.724 C327.334,73.43 254.137,0.232 163.843,0.232 C73.549,0.232 0.351,73.43 0.351,163.724" id="path-85"></path>
        <path d="M0.351,163.724 C2.353,165.726 326.083,164.976 327.334,163.724 C327.334,73.43 254.137,0.232 163.843,0.232 C73.549,0.232 0.351,73.43 0.351,163.724" id="path-87"></path>
        <path d="M0.351,163.724 C2.353,165.726 326.083,164.976 327.334,163.724 C327.334,73.43 254.137,0.232 163.843,0.232 C73.549,0.232 0.351,73.43 0.351,163.724" id="path-89"></path>
        <path d="M0.351,163.724 C2.353,165.726 326.083,164.976 327.334,163.724 C327.334,73.43 254.137,0.232 163.843,0.232 C73.549,0.232 0.351,73.43 0.351,163.724" id="path-91"></path>
        <path d="M0.351,163.724 C2.353,165.726 326.083,164.976 327.334,163.724 C327.334,73.43 254.137,0.232 163.843,0.232 C73.549,0.232 0.351,73.43 0.351,163.724" id="path-93"></path>
        <path d="M0.351,163.724 C2.353,165.726 326.083,164.976 327.334,163.724 C327.334,73.43 254.137,0.232 163.843,0.232 C73.549,0.232 0.351,73.43 0.351,163.724" id="path-95"></path>
        <path d="M0.351,163.724 C2.353,165.726 326.083,164.976 327.334,163.724 C327.334,73.43 254.137,0.232 163.843,0.232 C73.549,0.232 0.351,73.43 0.351,163.724" id="path-97"></path>
        <path d="M0.351,163.724 C2.353,165.726 326.083,164.976 327.334,163.724 C327.334,73.43 254.137,0.232 163.843,0.232 C73.549,0.232 0.351,73.43 0.351,163.724" id="path-99"></path>
        <path d="M0.351,163.724 C2.353,165.726 326.083,164.976 327.334,163.724 C327.334,73.43 254.137,0.232 163.843,0.232 C73.549,0.232 0.351,73.43 0.351,163.724" id="path-101"></path>
        <path d="M0.351,163.724 C2.353,165.726 326.083,164.976 327.334,163.724 C327.334,73.43 254.137,0.232 163.843,0.232 C73.549,0.232 0.351,73.43 0.351,163.724" id="path-103"></path>
        <path d="M0.351,163.724 C2.353,165.726 326.083,164.976 327.334,163.724 C327.334,73.43 254.137,0.232 163.843,0.232 C73.549,0.232 0.351,73.43 0.351,163.724" id="path-105"></path>
        <path d="M0.351,163.724 C2.353,165.726 326.083,164.976 327.334,163.724 C327.334,73.43 254.137,0.232 163.843,0.232 C73.549,0.232 0.351,73.43 0.351,163.724" id="path-107"></path>
        <path d="M0.351,163.724 C2.353,165.726 326.083,164.976 327.334,163.724 C327.334,73.43 254.137,0.232 163.843,0.232 C73.549,0.232 0.351,73.43 0.351,163.724" id="path-109"></path>
        <path d="M0.351,163.724 C2.353,165.726 326.083,164.976 327.334,163.724 C327.334,73.43 254.137,0.232 163.843,0.232 C73.549,0.232 0.351,73.43 0.351,163.724" id="path-111"></path>
        <path d="M0.351,163.724 C2.353,165.726 326.083,164.976 327.334,163.724 C327.334,73.43 254.137,0.232 163.843,0.232 C73.549,0.232 0.351,73.43 0.351,163.724" id="path-113"></path>
        <path d="M0.351,163.724 C2.353,165.726 326.083,164.976 327.334,163.724 C327.334,73.43 254.137,0.232 163.843,0.232 C73.549,0.232 0.351,73.43 0.351,163.724" id="path-115"></path>
        <path d="M0.351,163.724 C2.353,165.726 326.083,164.976 327.334,163.724 C327.334,73.43 254.137,0.232 163.843,0.232 C73.549,0.232 0.351,73.43 0.351,163.724" id="path-117"></path>
        <path d="M0.351,163.724 C2.353,165.726 326.083,164.976 327.334,163.724 C327.334,73.43 254.137,0.232 163.843,0.232 C73.549,0.232 0.351,73.43 0.351,163.724" id="path-119"></path>
        <path d="M0.351,163.724 C2.353,165.726 326.083,164.976 327.334,163.724 C327.334,73.43 254.137,0.232 163.843,0.232 C73.549,0.232 0.351,73.43 0.351,163.724" id="path-121"></path>
        <path d="M0.351,163.724 C2.353,165.726 326.083,164.976 327.334,163.724 C327.334,73.43 254.137,0.232 163.843,0.232 C73.549,0.232 0.351,73.43 0.351,163.724" id="path-123"></path>
        <path d="M0.351,163.724 C2.353,165.726 326.083,164.976 327.334,163.724 C327.334,73.43 254.137,0.232 163.843,0.232 C73.549,0.232 0.351,73.43 0.351,163.724" id="path-125"></path>
        <path d="M0.351,163.724 C2.353,165.726 326.083,164.976 327.334,163.724 C327.334,73.43 254.137,0.232 163.843,0.232 C73.549,0.232 0.351,73.43 0.351,163.724" id="path-127"></path>
        <path d="M0.351,163.724 C2.353,165.726 326.083,164.976 327.334,163.724 C327.334,73.43 254.137,0.232 163.843,0.232 C73.549,0.232 0.351,73.43 0.351,163.724" id="path-129"></path>
        <path d="M0.351,163.724 C2.353,165.726 326.083,164.976 327.334,163.724 C327.334,73.43 254.137,0.232 163.843,0.232 C73.549,0.232 0.351,73.43 0.351,163.724" id="path-131"></path>
        <path d="M0.351,163.724 C2.353,165.726 326.083,164.976 327.334,163.724 C327.334,73.43 254.137,0.232 163.843,0.232 C73.549,0.232 0.351,73.43 0.351,163.724" id="path-133"></path>
        <path d="M0.351,163.724 C2.353,165.726 326.083,164.976 327.334,163.724 C327.334,73.43 254.137,0.232 163.843,0.232 C73.549,0.232 0.351,73.43 0.351,163.724" id="path-135"></path>
        <path d="M0.351,163.724 C2.353,165.726 326.083,164.976 327.334,163.724 C327.334,73.43 254.137,0.232 163.843,0.232 C73.549,0.232 0.351,73.43 0.351,163.724" id="path-137"></path>
        <path d="M0.351,163.724 C2.353,165.726 326.083,164.976 327.334,163.724 C327.334,73.43 254.137,0.232 163.843,0.232 C73.549,0.232 0.351,73.43 0.351,163.724" id="path-139"></path>
        <path d="M0.351,163.724 C2.353,165.726 326.083,164.976 327.334,163.724 C327.334,73.43 254.137,0.232 163.843,0.232 C73.549,0.232 0.351,73.43 0.351,163.724" id="path-141"></path>
        <path d="M0.351,163.724 C2.353,165.726 326.083,164.976 327.334,163.724 C327.334,73.43 254.137,0.232 163.843,0.232 C73.549,0.232 0.351,73.43 0.351,163.724" id="path-143"></path>
        <path d="M0.351,163.724 C2.353,165.726 326.083,164.976 327.334,163.724 C327.334,73.43 254.137,0.232 163.843,0.232 C73.549,0.232 0.351,73.43 0.351,163.724" id="path-145"></path>
        <path d="M0.351,163.724 C2.353,165.726 326.083,164.976 327.334,163.724 C327.334,73.43 254.137,0.232 163.843,0.232 C73.549,0.232 0.351,73.43 0.351,163.724" id="path-147"></path>
        <path d="M0.351,163.724 C2.353,165.726 326.083,164.976 327.334,163.724 C327.334,73.43 254.137,0.232 163.843,0.232 C73.549,0.232 0.351,73.43 0.351,163.724" id="path-149"></path>
        <path d="M0.351,163.724 C2.353,165.726 326.083,164.976 327.334,163.724 C327.334,73.43 254.137,0.232 163.843,0.232 C73.549,0.232 0.351,73.43 0.351,163.724" id="path-151"></path>
        <path d="M0.351,163.724 C2.353,165.726 326.083,164.976 327.334,163.724 C327.334,73.43 254.137,0.232 163.843,0.232 C73.549,0.232 0.351,73.43 0.351,163.724" id="path-153"></path>
        <path d="M0.351,163.724 C2.353,165.726 326.083,164.976 327.334,163.724 C327.334,73.43 254.137,0.232 163.843,0.232 C73.549,0.232 0.351,73.43 0.351,163.724" id="path-155"></path>
        <path d="M0.351,163.724 C2.353,165.726 326.083,164.976 327.334,163.724 C327.334,73.43 254.137,0.232 163.843,0.232 C73.549,0.232 0.351,73.43 0.351,163.724" id="path-157"></path>
        <path d="M0.351,163.724 C2.353,165.726 326.083,164.976 327.334,163.724 C327.334,73.43 254.137,0.232 163.843,0.232 C73.549,0.232 0.351,73.43 0.351,163.724" id="path-159"></path>
        <path d="M0.351,163.724 C2.353,165.726 326.083,164.976 327.334,163.724 C327.334,73.43 254.137,0.232 163.843,0.232 C73.549,0.232 0.351,73.43 0.351,163.724" id="path-161"></path>
        <path d="M0.351,163.724 C2.353,165.726 326.083,164.976 327.334,163.724 C327.334,73.43 254.137,0.232 163.843,0.232 C73.549,0.232 0.351,73.43 0.351,163.724" id="path-163"></path>
        <path d="M0.351,163.724 C2.353,165.726 326.083,164.976 327.334,163.724 C327.334,73.43 254.137,0.232 163.843,0.232 C73.549,0.232 0.351,73.43 0.351,163.724" id="path-165"></path>
        <path d="M0.351,163.724 C2.353,165.726 326.083,164.976 327.334,163.724 C327.334,73.43 254.137,0.232 163.843,0.232 C73.549,0.232 0.351,73.43 0.351,163.724" id="path-167"></path>
        <path d="M0.351,163.724 C2.353,165.726 326.083,164.976 327.334,163.724 C327.334,73.43 254.137,0.232 163.843,0.232 C73.549,0.232 0.351,73.43 0.351,163.724" id="path-169"></path>
        <path d="M0.351,163.724 C2.353,165.726 326.083,164.976 327.334,163.724 C327.334,73.43 254.137,0.232 163.843,0.232 C73.549,0.232 0.351,73.43 0.351,163.724" id="path-171"></path>
        <path d="M0.351,163.724 C2.353,165.726 326.083,164.976 327.334,163.724 C327.334,73.43 254.137,0.232 163.843,0.232 C73.549,0.232 0.351,73.43 0.351,163.724" id="path-173"></path>
        <path d="M0.351,163.724 C2.353,165.726 326.083,164.976 327.334,163.724 C327.334,73.43 254.137,0.232 163.843,0.232 C73.549,0.232 0.351,73.43 0.351,163.724" id="path-175"></path>
        <path d="M0.351,163.724 C2.353,165.726 326.083,164.976 327.334,163.724 C327.334,73.43 254.137,0.232 163.843,0.232 C73.549,0.232 0.351,73.43 0.351,163.724" id="path-177"></path>
        <path d="M0.351,163.724 C2.353,165.726 326.083,164.976 327.334,163.724 C327.334,73.43 254.137,0.232 163.843,0.232 C73.549,0.232 0.351,73.43 0.351,163.724" id="path-179"></path>
        <path d="M0.351,163.724 C2.353,165.726 326.083,164.976 327.334,163.724 C327.334,73.43 254.137,0.232 163.843,0.232 C73.549,0.232 0.351,73.43 0.351,163.724" id="path-181"></path>
        <path d="M0.351,163.724 C2.353,165.726 326.083,164.976 327.334,163.724 C327.334,73.43 254.137,0.232 163.843,0.232 C73.549,0.232 0.351,73.43 0.351,163.724" id="path-183"></path>
        <path d="M0.351,163.724 C2.353,165.726 326.083,164.976 327.334,163.724 C327.334,73.43 254.137,0.232 163.843,0.232 C73.549,0.232 0.351,73.43 0.351,163.724" id="path-185"></path>
        <path d="M0.351,163.724 C2.353,165.726 326.083,164.976 327.334,163.724 C327.334,73.43 254.137,0.232 163.843,0.232 C73.549,0.232 0.351,73.43 0.351,163.724" id="path-187"></path>
        <path d="M0.351,163.724 C2.353,165.726 326.083,164.976 327.334,163.724 C327.334,73.43 254.137,0.232 163.843,0.232 C73.549,0.232 0.351,73.43 0.351,163.724" id="path-189"></path>
        <path d="M0.351,163.724 C2.353,165.726 326.083,164.976 327.334,163.724 C327.334,73.43 254.137,0.232 163.843,0.232 C73.549,0.232 0.351,73.43 0.351,163.724" id="path-191"></path>
        <path d="M0.351,163.724 C2.353,165.726 326.083,164.976 327.334,163.724 C327.334,73.43 254.137,0.232 163.843,0.232 C73.549,0.232 0.351,73.43 0.351,163.724" id="path-193"></path>
        <path d="M0.351,163.724 C2.353,165.726 326.083,164.976 327.334,163.724 C327.334,73.43 254.137,0.232 163.843,0.232 C73.549,0.232 0.351,73.43 0.351,163.724" id="path-195"></path>
        <path d="M0.351,163.724 C2.353,165.726 326.083,164.976 327.334,163.724 C327.334,73.43 254.137,0.232 163.843,0.232 C73.549,0.232 0.351,73.43 0.351,163.724" id="path-197"></path>
        <path d="M0.351,163.724 C2.353,165.726 326.083,164.976 327.334,163.724 C327.334,73.43 254.137,0.232 163.843,0.232 C73.549,0.232 0.351,73.43 0.351,163.724" id="path-199"></path>
        <path d="M0.351,163.724 C2.353,165.726 326.083,164.976 327.334,163.724 C327.334,73.43 254.137,0.232 163.843,0.232 C73.549,0.232 0.351,73.43 0.351,163.724" id="path-201"></path>
        <path d="M0.351,163.724 C2.353,165.726 326.083,164.976 327.334,163.724 C327.334,73.43 254.137,0.232 163.843,0.232 C73.549,0.232 0.351,73.43 0.351,163.724" id="path-203"></path>
        <path d="M0.351,163.724 C2.353,165.726 326.083,164.976 327.334,163.724 C327.334,73.43 254.137,0.232 163.843,0.232 C73.549,0.232 0.351,73.43 0.351,163.724" id="path-205"></path>
        <path d="M0.351,163.724 C2.353,165.726 326.083,164.976 327.334,163.724 C327.334,73.43 254.137,0.232 163.843,0.232 C73.549,0.232 0.351,73.43 0.351,163.724" id="path-207"></path>
        <path d="M0.351,163.724 C2.353,165.726 326.083,164.976 327.334,163.724 C327.334,73.43 254.137,0.232 163.843,0.232 C73.549,0.232 0.351,73.43 0.351,163.724" id="path-209"></path>
        <path d="M0.351,163.724 C2.353,165.726 326.083,164.976 327.334,163.724 C327.334,73.43 254.137,0.232 163.843,0.232 C73.549,0.232 0.351,73.43 0.351,163.724" id="path-211"></path>
        <path d="M0.351,163.724 C2.353,165.726 326.083,164.976 327.334,163.724 C327.334,73.43 254.137,0.232 163.843,0.232 C73.549,0.232 0.351,73.43 0.351,163.724" id="path-213"></path>
        <path d="M0.351,163.724 C2.353,165.726 326.083,164.976 327.334,163.724 C327.334,73.43 254.137,0.232 163.843,0.232 C73.549,0.232 0.351,73.43 0.351,163.724" id="path-215"></path>
        <path d="M0.351,163.724 C2.353,165.726 326.083,164.976 327.334,163.724 C327.334,73.43 254.137,0.232 163.843,0.232 C73.549,0.232 0.351,73.43 0.351,163.724" id="path-217"></path>
        <path d="M0.351,163.724 C2.353,165.726 326.083,164.976 327.334,163.724 C327.334,73.43 254.137,0.232 163.843,0.232 C73.549,0.232 0.351,73.43 0.351,163.724" id="path-219"></path>
        <path d="M0.351,163.724 C2.353,165.726 326.083,164.976 327.334,163.724 C327.334,73.43 254.137,0.232 163.843,0.232 C73.549,0.232 0.351,73.43 0.351,163.724" id="path-221"></path>
        <path d="M0.351,163.724 C2.353,165.726 326.083,164.976 327.334,163.724 C327.334,73.43 254.137,0.232 163.843,0.232 C73.549,0.232 0.351,73.43 0.351,163.724" id="path-223"></path>
        <path d="M0.351,163.724 C2.353,165.726 326.083,164.976 327.334,163.724 C327.334,73.43 254.137,0.232 163.843,0.232 C73.549,0.232 0.351,73.43 0.351,163.724" id="path-225"></path>
        <path d="M0.351,163.724 C2.353,165.726 326.083,164.976 327.334,163.724 C327.334,73.43 254.137,0.232 163.843,0.232 C73.549,0.232 0.351,73.43 0.351,163.724" id="path-227"></path>
        <path d="M0.351,163.724 C2.353,165.726 326.083,164.976 327.334,163.724 C327.334,73.43 254.137,0.232 163.843,0.232 C73.549,0.232 0.351,73.43 0.351,163.724" id="path-229"></path>
        <path d="M0.351,163.724 C2.353,165.726 326.083,164.976 327.334,163.724 C327.334,73.43 254.137,0.232 163.843,0.232 C73.549,0.232 0.351,73.43 0.351,163.724" id="path-231"></path>
        <path d="M0.351,163.724 C2.353,165.726 326.083,164.976 327.334,163.724 C327.334,73.43 254.137,0.232 163.843,0.232 C73.549,0.232 0.351,73.43 0.351,163.724" id="path-233"></path>
        <path d="M0.351,163.724 C2.353,165.726 326.083,164.976 327.334,163.724 C327.334,73.43 254.137,0.232 163.843,0.232 C73.549,0.232 0.351,73.43 0.351,163.724" id="path-235"></path>
        <path d="M0.351,163.724 C2.353,165.726 326.083,164.976 327.334,163.724 C327.334,73.43 254.137,0.232 163.843,0.232 C73.549,0.232 0.351,73.43 0.351,163.724" id="path-237"></path>
        <path d="M0.351,163.724 C2.353,165.726 326.083,164.976 327.334,163.724 C327.334,73.43 254.137,0.232 163.843,0.232 C73.549,0.232 0.351,73.43 0.351,163.724" id="path-239"></path>
    </defs>
    <g id="Page-1" stroke="none" stroke-width="1" fill="none" fill-rule="evenodd">
        <g id="Group-361" style="mix-blend-mode: multiply;">
            <g id="Group-3" transform="translate(0.000000, 0.135000)">
                <mask id="mask-2" fill="white">
                    <use xlink:href="#path-1"></use>
                </mask>
                <g id="Clip-2"></g>
                <path d="M3.1087,100.9304 C8.1387,100.9304 12.2167,96.8474 12.2167,91.8114 C12.2167,86.7744 8.1387,82.6924 3.1087,82.6924 C-1.9203,82.6924 -5.9993,86.7744 -5.9993,91.8114 C-5.9993,96.8474 -1.9203,100.9304 3.1087,100.9304" id="Fill-1" fill="#E6E7E8" mask="url(#mask-2)"></path>
            </g>
            <g id="Group-6" transform="translate(0.000000, 0.135000)">
                <mask id="mask-4" fill="white">
                    <use xlink:href="#path-3"></use>
                </mask>
                <g id="Clip-5"></g>
                <path d="M49.1555,100.9304 C54.1845,100.9304 58.2635,96.8474 58.2635,91.8114 C58.2635,86.7744 54.1845,82.6924 49.1555,82.6924 C44.1255,82.6924 40.0475,86.7744 40.0475,91.8114 C40.0475,96.8474 44.1255,100.9304 49.1555,100.9304" id="Fill-4" fill="#E6E7E8" mask="url(#mask-4)"></path>
            </g>
            <g id="Group-9" transform="translate(0.000000, 0.135000)">
                <mask id="mask-6" fill="white">
                    <use xlink:href="#path-5"></use>
                </mask>
                <g id="Clip-8"></g>
                <path d="M26.1321,100.9304 C31.1621,100.9304 35.2411,96.8474 35.2411,91.8114 C35.2411,86.7744 31.1621,82.6924 26.1321,82.6924 C21.1021,82.6924 17.0231,86.7744 17.0231,91.8114 C17.0231,96.8474 21.1021,100.9304 26.1321,100.9304" id="Fill-7" fill="#E6E7E8" mask="url(#mask-6)"></path>
            </g>
            <g id="Group-12" transform="translate(0.000000, 0.135000)">
                <mask id="mask-8" fill="white">
                    <use xlink:href="#path-7"></use>
                </mask>
                <g id="Clip-11"></g>
                <path d="M72.178,100.9304 C77.208,100.9304 81.287,96.8474 81.287,91.8114 C81.287,86.7744 77.208,82.6924 72.178,82.6924 C67.149,82.6924 63.071,86.7744 63.071,91.8114 C63.071,96.8474 67.149,100.9304 72.178,100.9304" id="Fill-10" fill="#E6E7E8" mask="url(#mask-8)"></path>
            </g>
            <g id="Group-15" transform="translate(0.000000, 0.135000)">
                <mask id="mask-10" fill="white">
                    <use xlink:href="#path-9"></use>
                </mask>
                <g id="Clip-14"></g>
                <path d="M95.2014,100.9304 C100.2314,100.9304 104.3104,96.8474 104.3104,91.8114 C104.3104,86.7744 100.2314,82.6924 95.2014,82.6924 C90.1724,82.6924 86.0934,86.7744 86.0934,91.8114 C86.0934,96.8474 90.1724,100.9304 95.2014,100.9304" id="Fill-13" fill="#E6E7E8" mask="url(#mask-10)"></path>
            </g>
            <g id="Group-18" transform="translate(0.000000, 0.135000)">
                <mask id="mask-12" fill="white">
                    <use xlink:href="#path-11"></use>
                </mask>
                <g id="Clip-17"></g>
                <path d="M118.2249,100.9304 C123.2549,100.9304 127.3339,96.8474 127.3339,91.8114 C127.3339,86.7744 123.2549,82.6924 118.2249,82.6924 C113.1949,82.6924 109.1169,86.7744 109.1169,91.8114 C109.1169,96.8474 113.1949,100.9304 118.2249,100.9304" id="Fill-16" fill="#E6E7E8" mask="url(#mask-12)"></path>
            </g>
            <g id="Group-21" transform="translate(0.000000, 0.135000)">
                <mask id="mask-14" fill="white">
                    <use xlink:href="#path-13"></use>
                </mask>
                <g id="Clip-20"></g>
                <path d="M141.2483,100.9304 C146.2773,100.9304 150.3563,96.8474 150.3563,91.8114 C150.3563,86.7744 146.2773,82.6924 141.2483,82.6924 C136.2183,82.6924 132.1403,86.7744 132.1403,91.8114 C132.1403,96.8474 136.2183,100.9304 141.2483,100.9304" id="Fill-19" fill="#E6E7E8" mask="url(#mask-14)"></path>
            </g>
            <g id="Group-24" transform="translate(0.000000, 0.135000)">
                <mask id="mask-16" fill="white">
                    <use xlink:href="#path-15"></use>
                </mask>
                <g id="Clip-23"></g>
                <path d="M187.2942,100.9304 C192.3242,100.9304 196.4022,96.8474 196.4022,91.8114 C196.4022,86.7744 192.3242,82.6924 187.2942,82.6924 C182.2652,82.6924 178.1862,86.7744 178.1862,91.8114 C178.1862,96.8474 182.2652,100.9304 187.2942,100.9304" id="Fill-22" fill="#E6E7E8" mask="url(#mask-16)"></path>
            </g>
            <g id="Group-27" transform="translate(0.000000, 0.135000)">
                <mask id="mask-18" fill="white">
                    <use xlink:href="#path-17"></use>
                </mask>
                <g id="Clip-26"></g>
                <path d="M164.2718,100.9304 C169.3008,100.9304 173.3788,96.8474 173.3788,91.8114 C173.3788,86.7744 169.3008,82.6924 164.2718,82.6924 C159.2418,82.6924 155.1628,86.7744 155.1628,91.8114 C155.1628,96.8474 159.2418,100.9304 164.2718,100.9304" id="Fill-25" fill="#E6E7E8" mask="url(#mask-18)"></path>
            </g>
            <g id="Group-30" transform="translate(0.000000, 0.135000)">
                <mask id="mask-20" fill="white">
                    <use xlink:href="#path-19"></use>
                </mask>
                <g id="Clip-29"></g>
                <path d="M210.3177,100.9304 C215.3477,100.9304 219.4257,96.8474 219.4257,91.8114 C219.4257,86.7744 215.3477,82.6924 210.3177,82.6924 C205.2877,82.6924 201.2087,86.7744 201.2087,91.8114 C201.2087,96.8474 205.2877,100.9304 210.3177,100.9304" id="Fill-28" fill="#E6E7E8" mask="url(#mask-20)"></path>
            </g>
            <g id="Group-33" transform="translate(0.000000, 0.135000)">
                <mask id="mask-22" fill="white">
                    <use xlink:href="#path-21"></use>
                </mask>
                <g id="Clip-32"></g>
                <path d="M233.3411,100.9304 C238.3701,100.9304 242.4491,96.8474 242.4491,91.8114 C242.4491,86.7744 238.3701,82.6924 233.3411,82.6924 C228.3111,82.6924 224.2331,86.7744 224.2331,91.8114 C224.2331,96.8474 228.3111,100.9304 233.3411,100.9304" id="Fill-31" fill="#E6E7E8" mask="url(#mask-22)"></path>
            </g>
            <g id="Group-36" transform="translate(0.000000, 0.135000)">
                <mask id="mask-24" fill="white">
                    <use xlink:href="#path-23"></use>
                </mask>
                <g id="Clip-35"></g>
                <path d="M256.3636,100.9304 C261.3946,100.9304 265.4716,96.8474 265.4716,91.8114 C265.4716,86.7744 261.3946,82.6924 256.3636,82.6924 C251.3346,82.6924 247.2566,86.7744 247.2566,91.8114 C247.2566,96.8474 251.3346,100.9304 256.3636,100.9304" id="Fill-34" fill="#E6E7E8" mask="url(#mask-24)"></path>
            </g>
            <g id="Group-39" transform="translate(0.000000, 0.135000)">
                <mask id="mask-26" fill="white">
                    <use xlink:href="#path-25"></use>
                </mask>
                <g id="Clip-38"></g>
                <path d="M279.387,100.9304 C284.417,100.9304 288.495,96.8474 288.495,91.8114 C288.495,86.7744 284.417,82.6924 279.387,82.6924 C274.358,82.6924 270.279,86.7744 270.279,91.8114 C270.279,96.8474 274.358,100.9304 279.387,100.9304" id="Fill-37" fill="#E6E7E8" mask="url(#mask-26)"></path>
            </g>
            <g id="Group-42" transform="translate(0.000000, 0.135000)">
                <mask id="mask-28" fill="white">
                    <use xlink:href="#path-27"></use>
                </mask>
                <g id="Clip-41"></g>
                <path d="M325.4339,100.9304 C330.4629,100.9304 334.5409,96.8474 334.5409,91.8114 C334.5409,86.7744 330.4629,82.6924 325.4339,82.6924 C320.4039,82.6924 316.3249,86.7744 316.3249,91.8114 C316.3249,96.8474 320.4039,100.9304 325.4339,100.9304" id="Fill-40" fill="#E6E7E8" mask="url(#mask-28)"></path>
            </g>
            <g id="Group-45" transform="translate(0.000000, 0.135000)">
                <mask id="mask-30" fill="white">
                    <use xlink:href="#path-29"></use>
                </mask>
                <g id="Clip-44"></g>
                <path d="M302.4104,100.9304 C307.4404,100.9304 311.5184,96.8474 311.5184,91.8114 C311.5184,86.7744 307.4404,82.6924 302.4104,82.6924 C297.3804,82.6924 293.3014,86.7744 293.3014,91.8114 C293.3014,96.8474 297.3804,100.9304 302.4104,100.9304" id="Fill-43" fill="#E6E7E8" mask="url(#mask-30)"></path>
            </g>
            <g id="Group-48" transform="translate(0.000000, 0.135000)">
                <mask id="mask-32" fill="white">
                    <use xlink:href="#path-31"></use>
                </mask>
                <g id="Clip-47"></g>
                <path d="M3.1194,123.9538 C8.1494,123.9538 12.2284,119.8708 12.2284,114.8348 C12.2284,109.7978 8.1494,105.7148 3.1194,105.7148 C-1.9106,105.7148 -5.9876,109.7978 -5.9876,114.8348 C-5.9876,119.8708 -1.9106,123.9538 3.1194,123.9538" id="Fill-46" fill="#E6E7E8" mask="url(#mask-32)"></path>
            </g>
            <g id="Group-51" transform="translate(0.000000, 0.135000)">
                <mask id="mask-34" fill="white">
                    <use xlink:href="#path-33"></use>
                </mask>
                <g id="Clip-50"></g>
                <path d="M49.1663,123.9538 C54.1963,123.9538 58.2733,119.8708 58.2733,114.8348 C58.2733,109.7978 54.1963,105.7148 49.1663,105.7148 C44.1353,105.7148 40.0583,109.7978 40.0583,114.8348 C40.0583,119.8708 44.1353,123.9538 49.1663,123.9538" id="Fill-49" fill="#E6E7E8" mask="url(#mask-34)"></path>
            </g>
            <g id="Group-54" transform="translate(0.000000, 0.135000)">
                <mask id="mask-36" fill="white">
                    <use xlink:href="#path-35"></use>
                </mask>
                <g id="Clip-53"></g>
                <path d="M26.1429,123.9538 C31.1729,123.9538 35.2519,119.8708 35.2519,114.8348 C35.2519,109.7978 31.1729,105.7148 26.1429,105.7148 C21.1129,105.7148 17.0349,109.7978 17.0349,114.8348 C17.0349,119.8708 21.1129,123.9538 26.1429,123.9538" id="Fill-52" fill="#E6E7E8" mask="url(#mask-36)"></path>
            </g>
            <g id="Group-57" transform="translate(0.000000, 0.135000)">
                <mask id="mask-38" fill="white">
                    <use xlink:href="#path-37"></use>
                </mask>
                <g id="Clip-56"></g>
                <path d="M72.1888,123.9538 C77.2188,123.9538 81.2978,119.8708 81.2978,114.8348 C81.2978,109.7978 77.2188,105.7148 72.1888,105.7148 C67.1598,105.7148 63.0818,109.7978 63.0818,114.8348 C63.0818,119.8708 67.1598,123.9538 72.1888,123.9538" id="Fill-55" fill="#E6E7E8" mask="url(#mask-38)"></path>
            </g>
            <g id="Group-60" transform="translate(0.000000, 0.135000)">
                <mask id="mask-40" fill="white">
                    <use xlink:href="#path-39"></use>
                </mask>
                <g id="Clip-59"></g>
                <path d="M95.2122,123.9538 C100.2422,123.9538 104.3212,119.8708 104.3212,114.8348 C104.3212,109.7978 100.2422,105.7148 95.2122,105.7148 C90.1832,105.7148 86.1042,109.7978 86.1042,114.8348 C86.1042,119.8708 90.1832,123.9538 95.2122,123.9538" id="Fill-58" fill="#E6E7E8" mask="url(#mask-40)"></path>
            </g>
            <g id="Group-63" transform="translate(0.000000, 0.135000)">
                <mask id="mask-42" fill="white">
                    <use xlink:href="#path-41"></use>
                </mask>
                <g id="Clip-62"></g>
                <path d="M118.2356,123.9538 C123.2666,123.9538 127.3436,119.8708 127.3436,114.8348 C127.3436,109.7978 123.2666,105.7148 118.2356,105.7148 C113.2056,105.7148 109.1266,109.7978 109.1266,114.8348 C109.1266,119.8708 113.2056,123.9538 118.2356,123.9538" id="Fill-61" fill="#E6E7E8" mask="url(#mask-42)"></path>
            </g>
            <g id="Group-66" transform="translate(0.000000, 0.135000)">
                <mask id="mask-44" fill="white">
                    <use xlink:href="#path-43"></use>
                </mask>
                <g id="Clip-65"></g>
                <path d="M141.2591,123.9538 C146.2881,123.9538 150.3671,119.8708 150.3671,114.8348 C150.3671,109.7978 146.2881,105.7148 141.2591,105.7148 C136.2291,105.7148 132.1511,109.7978 132.1511,114.8348 C132.1511,119.8708 136.2291,123.9538 141.2591,123.9538" id="Fill-64" fill="#E6E7E8" mask="url(#mask-44)"></path>
            </g>
            <g id="Group-69" transform="translate(0.000000, 0.135000)">
                <mask id="mask-46" fill="white">
                    <use xlink:href="#path-45"></use>
                </mask>
                <g id="Clip-68"></g>
                <path d="M187.305,123.9538 C192.335,123.9538 196.413,119.8708 196.413,114.8348 C196.413,109.7978 192.335,105.7148 187.305,105.7148 C182.275,105.7148 178.198,109.7978 178.198,114.8348 C178.198,119.8708 182.275,123.9538 187.305,123.9538" id="Fill-67" fill="#E6E7E8" mask="url(#mask-46)"></path>
            </g>
            <g id="Group-72" transform="translate(0.000000, 0.135000)">
                <mask id="mask-48" fill="white">
                    <use xlink:href="#path-47"></use>
                </mask>
                <g id="Clip-71"></g>
                <path d="M164.2825,123.9538 C169.3115,123.9538 173.3905,119.8708 173.3905,114.8348 C173.3905,109.7978 169.3115,105.7148 164.2825,105.7148 C159.2525,105.7148 155.1745,109.7978 155.1745,114.8348 C155.1745,119.8708 159.2525,123.9538 164.2825,123.9538" id="Fill-70" fill="#E6E7E8" mask="url(#mask-48)"></path>
            </g>
            <g id="Group-75" transform="translate(0.000000, 0.135000)">
                <mask id="mask-50" fill="white">
                    <use xlink:href="#path-49"></use>
                </mask>
                <g id="Clip-74"></g>
                <path d="M210.3284,123.9538 C215.3584,123.9538 219.4364,119.8708 219.4364,114.8348 C219.4364,109.7978 215.3584,105.7148 210.3284,105.7148 C205.2984,105.7148 201.2204,109.7978 201.2204,114.8348 C201.2204,119.8708 205.2984,123.9538 210.3284,123.9538" id="Fill-73" fill="#E6E7E8" mask="url(#mask-50)"></path>
            </g>
            <g id="Group-78" transform="translate(0.000000, 0.135000)">
                <mask id="mask-52" fill="white">
                    <use xlink:href="#path-51"></use>
                </mask>
                <g id="Clip-77"></g>
                <path d="M233.3518,123.9538 C238.3808,123.9538 242.4588,119.8708 242.4588,114.8348 C242.4588,109.7978 238.3808,105.7148 233.3518,105.7148 C228.3218,105.7148 224.2438,109.7978 224.2438,114.8348 C224.2438,119.8708 228.3218,123.9538 233.3518,123.9538" id="Fill-76" fill="#E6E7E8" mask="url(#mask-52)"></path>
            </g>
            <g id="Group-81" transform="translate(0.000000, 0.135000)">
                <mask id="mask-54" fill="white">
                    <use xlink:href="#path-53"></use>
                </mask>
                <g id="Clip-80"></g>
                <path d="M256.3743,123.9538 C261.4043,123.9538 265.4833,119.8708 265.4833,114.8348 C265.4833,109.7978 261.4043,105.7148 256.3743,105.7148 C251.3453,105.7148 247.2673,109.7978 247.2673,114.8348 C247.2673,119.8708 251.3453,123.9538 256.3743,123.9538" id="Fill-79" fill="#E6E7E8" mask="url(#mask-54)"></path>
            </g>
            <g id="Group-84" transform="translate(0.000000, 0.135000)">
                <mask id="mask-56" fill="white">
                    <use xlink:href="#path-55"></use>
                </mask>
                <g id="Clip-83"></g>
                <path d="M279.3977,123.9538 C284.4277,123.9538 288.5057,119.8708 288.5057,114.8348 C288.5057,109.7978 284.4277,105.7148 279.3977,105.7148 C274.3687,105.7148 270.2907,109.7978 270.2907,114.8348 C270.2907,119.8708 274.3687,123.9538 279.3977,123.9538" id="Fill-82" fill="#E6E7E8" mask="url(#mask-56)"></path>
            </g>
            <g id="Group-87" transform="translate(0.000000, 0.135000)">
                <mask id="mask-58" fill="white">
                    <use xlink:href="#path-57"></use>
                </mask>
                <g id="Clip-86"></g>
                <path d="M325.4446,123.9538 C330.4736,123.9538 334.5516,119.8708 334.5516,114.8348 C334.5516,109.7978 330.4736,105.7148 325.4446,105.7148 C320.4146,105.7148 316.3356,109.7978 316.3356,114.8348 C316.3356,119.8708 320.4146,123.9538 325.4446,123.9538" id="Fill-85" fill="#E6E7E8" mask="url(#mask-58)"></path>
            </g>
            <g id="Group-90" transform="translate(0.000000, 0.135000)">
                <mask id="mask-60" fill="white">
                    <use xlink:href="#path-59"></use>
                </mask>
                <g id="Clip-89"></g>
                <path d="M302.4212,123.9538 C307.4512,123.9538 311.5292,119.8708 311.5292,114.8348 C311.5292,109.7978 307.4512,105.7148 302.4212,105.7148 C297.3912,105.7148 293.3122,109.7978 293.3122,114.8348 C293.3122,119.8708 297.3912,123.9538 302.4212,123.9538" id="Fill-88" fill="#E6E7E8" mask="url(#mask-60)"></path>
            </g>
            <g id="Group-93" transform="translate(0.000000, 0.135000)">
                <mask id="mask-62" fill="white">
                    <use xlink:href="#path-61"></use>
                </mask>
                <g id="Clip-92"></g>
                <path d="M3.1087,146.9763 C8.1387,146.9763 12.2167,142.8933 12.2167,137.8583 C12.2167,132.8213 8.1387,128.7393 3.1087,128.7393 C-1.9203,128.7393 -5.9993,132.8213 -5.9993,137.8583 C-5.9993,142.8933 -1.9203,146.9763 3.1087,146.9763" id="Fill-91" fill="#E6E7E8" mask="url(#mask-62)"></path>
            </g>
            <g id="Group-96" transform="translate(0.000000, 0.135000)">
                <mask id="mask-64" fill="white">
                    <use xlink:href="#path-63"></use>
                </mask>
                <g id="Clip-95"></g>
                <path d="M49.1555,146.9763 C54.1845,146.9763 58.2635,142.8933 58.2635,137.8583 C58.2635,132.8213 54.1845,128.7393 49.1555,128.7393 C44.1255,128.7393 40.0475,132.8213 40.0475,137.8583 C40.0475,142.8933 44.1255,146.9763 49.1555,146.9763" id="Fill-94" fill="#E6E7E8" mask="url(#mask-64)"></path>
            </g>
            <g id="Group-99" transform="translate(0.000000, 0.135000)">
                <mask id="mask-66" fill="white">
                    <use xlink:href="#path-65"></use>
                </mask>
                <g id="Clip-98"></g>
                <path d="M26.1321,146.9763 C31.1621,146.9763 35.2411,142.8933 35.2411,137.8583 C35.2411,132.8213 31.1621,128.7393 26.1321,128.7393 C21.1021,128.7393 17.0231,132.8213 17.0231,137.8583 C17.0231,142.8933 21.1021,146.9763 26.1321,146.9763" id="Fill-97" fill="#E6E7E8" mask="url(#mask-66)"></path>
            </g>
            <g id="Group-102" transform="translate(0.000000, 0.135000)">
                <mask id="mask-68" fill="white">
                    <use xlink:href="#path-67"></use>
                </mask>
                <g id="Clip-101"></g>
                <path d="M72.178,146.9763 C77.208,146.9763 81.287,142.8933 81.287,137.8583 C81.287,132.8213 77.208,128.7393 72.178,128.7393 C67.149,128.7393 63.071,132.8213 63.071,137.8583 C63.071,142.8933 67.149,146.9763 72.178,146.9763" id="Fill-100" fill="#E6E7E8" mask="url(#mask-68)"></path>
            </g>
            <g id="Group-105" transform="translate(0.000000, 0.135000)">
                <mask id="mask-70" fill="white">
                    <use xlink:href="#path-69"></use>
                </mask>
                <g id="Clip-104"></g>
                <path d="M95.2014,146.9763 C100.2314,146.9763 104.3104,142.8933 104.3104,137.8583 C104.3104,132.8213 100.2314,128.7393 95.2014,128.7393 C90.1724,128.7393 86.0934,132.8213 86.0934,137.8583 C86.0934,142.8933 90.1724,146.9763 95.2014,146.9763" id="Fill-103" fill="#E6E7E8" mask="url(#mask-70)"></path>
            </g>
            <g id="Group-108" transform="translate(0.000000, 0.135000)">
                <mask id="mask-72" fill="white">
                    <use xlink:href="#path-71"></use>
                </mask>
                <g id="Clip-107"></g>
                <path d="M118.2249,146.9763 C123.2549,146.9763 127.3339,142.8933 127.3339,137.8583 C127.3339,132.8213 123.2549,128.7393 118.2249,128.7393 C113.1949,128.7393 109.1169,132.8213 109.1169,137.8583 C109.1169,142.8933 113.1949,146.9763 118.2249,146.9763" id="Fill-106" fill="#E6E7E8" mask="url(#mask-72)"></path>
            </g>
            <g id="Group-111" transform="translate(0.000000, 0.135000)">
                <mask id="mask-74" fill="white">
                    <use xlink:href="#path-73"></use>
                </mask>
                <g id="Clip-110"></g>
                <path d="M141.2483,146.9763 C146.2773,146.9763 150.3563,142.8933 150.3563,137.8583 C150.3563,132.8213 146.2773,128.7393 141.2483,128.7393 C136.2183,128.7393 132.1403,132.8213 132.1403,137.8583 C132.1403,142.8933 136.2183,146.9763 141.2483,146.9763" id="Fill-109" fill="#E6E7E8" mask="url(#mask-74)"></path>
            </g>
            <g id="Group-114" transform="translate(0.000000, 0.135000)">
                <mask id="mask-76" fill="white">
                    <use xlink:href="#path-75"></use>
                </mask>
                <g id="Clip-113"></g>
                <path d="M187.2942,146.9763 C192.3242,146.9763 196.4022,142.8933 196.4022,137.8583 C196.4022,132.8213 192.3242,128.7393 187.2942,128.7393 C182.2652,128.7393 178.1862,132.8213 178.1862,137.8583 C178.1862,142.8933 182.2652,146.9763 187.2942,146.9763" id="Fill-112" fill="#E6E7E8" mask="url(#mask-76)"></path>
            </g>
            <g id="Group-117" transform="translate(0.000000, 0.135000)">
                <mask id="mask-78" fill="white">
                    <use xlink:href="#path-77"></use>
                </mask>
                <g id="Clip-116"></g>
                <path d="M164.2718,146.9763 C169.3008,146.9763 173.3788,142.8933 173.3788,137.8583 C173.3788,132.8213 169.3008,128.7393 164.2718,128.7393 C159.2418,128.7393 155.1628,132.8213 155.1628,137.8583 C155.1628,142.8933 159.2418,146.9763 164.2718,146.9763" id="Fill-115" fill="#E6E7E8" mask="url(#mask-78)"></path>
            </g>
            <g id="Group-120" transform="translate(0.000000, 0.135000)">
                <mask id="mask-80" fill="white">
                    <use xlink:href="#path-79"></use>
                </mask>
                <g id="Clip-119"></g>
                <path d="M210.3177,146.9763 C215.3477,146.9763 219.4257,142.8933 219.4257,137.8583 C219.4257,132.8213 215.3477,128.7393 210.3177,128.7393 C205.2877,128.7393 201.2087,132.8213 201.2087,137.8583 C201.2087,142.8933 205.2877,146.9763 210.3177,146.9763" id="Fill-118" fill="#E6E7E8" mask="url(#mask-80)"></path>
            </g>
            <g id="Group-123" transform="translate(0.000000, 0.135000)">
                <mask id="mask-82" fill="white">
                    <use xlink:href="#path-81"></use>
                </mask>
                <g id="Clip-122"></g>
                <path d="M233.3411,146.9763 C238.3701,146.9763 242.4491,142.8933 242.4491,137.8583 C242.4491,132.8213 238.3701,128.7393 233.3411,128.7393 C228.3111,128.7393 224.2331,132.8213 224.2331,137.8583 C224.2331,142.8933 228.3111,146.9763 233.3411,146.9763" id="Fill-121" fill="#E6E7E8" mask="url(#mask-82)"></path>
            </g>
            <g id="Group-126" transform="translate(0.000000, 0.135000)">
                <mask id="mask-84" fill="white">
                    <use xlink:href="#path-83"></use>
                </mask>
                <g id="Clip-125"></g>
                <path d="M256.3636,146.9763 C261.3946,146.9763 265.4716,142.8933 265.4716,137.8583 C265.4716,132.8213 261.3946,128.7393 256.3636,128.7393 C251.3346,128.7393 247.2566,132.8213 247.2566,137.8583 C247.2566,142.8933 251.3346,146.9763 256.3636,146.9763" id="Fill-124" fill="#E6E7E8" mask="url(#mask-84)"></path>
            </g>
            <g id="Group-129" transform="translate(0.000000, 0.135000)">
                <mask id="mask-86" fill="white">
                    <use xlink:href="#path-85"></use>
                </mask>
                <g id="Clip-128"></g>
                <path d="M279.387,146.9763 C284.417,146.9763 288.495,142.8933 288.495,137.8583 C288.495,132.8213 284.417,128.7393 279.387,128.7393 C274.358,128.7393 270.279,132.8213 270.279,137.8583 C270.279,142.8933 274.358,146.9763 279.387,146.9763" id="Fill-127" fill="#E6E7E8" mask="url(#mask-86)"></path>
            </g>
            <g id="Group-132" transform="translate(0.000000, 0.135000)">
                <mask id="mask-88" fill="white">
                    <use xlink:href="#path-87"></use>
                </mask>
                <g id="Clip-131"></g>
                <path d="M325.4339,146.9763 C330.4629,146.9763 334.5409,142.8933 334.5409,137.8583 C334.5409,132.8213 330.4629,128.7393 325.4339,128.7393 C320.4039,128.7393 316.3249,132.8213 316.3249,137.8583 C316.3249,142.8933 320.4039,146.9763 325.4339,146.9763" id="Fill-130" fill="#E6E7E8" mask="url(#mask-88)"></path>
            </g>
            <g id="Group-135" transform="translate(0.000000, 0.135000)">
                <mask id="mask-90" fill="white">
                    <use xlink:href="#path-89"></use>
                </mask>
                <g id="Clip-134"></g>
                <path d="M302.4104,146.9763 C307.4404,146.9763 311.5184,142.8933 311.5184,137.8583 C311.5184,132.8213 307.4404,128.7393 302.4104,128.7393 C297.3804,128.7393 293.3014,132.8213 293.3014,137.8583 C293.3014,142.8933 297.3804,146.9763 302.4104,146.9763" id="Fill-133" fill="#E6E7E8" mask="url(#mask-90)"></path>
            </g>
            <g id="Group-138" transform="translate(0.000000, 0.135000)">
                <mask id="mask-92" fill="white">
                    <use xlink:href="#path-91"></use>
                </mask>
                <g id="Clip-137"></g>
                <path d="M3.1087,169.9998 C8.1387,169.9998 12.2167,165.9168 12.2167,160.8808 C12.2167,155.8448 8.1387,151.7628 3.1087,151.7628 C-1.9203,151.7628 -5.9993,155.8448 -5.9993,160.8808 C-5.9993,165.9168 -1.9203,169.9998 3.1087,169.9998" id="Fill-136" fill="#E6E7E8" mask="url(#mask-92)"></path>
            </g>
            <g id="Group-141" transform="translate(0.000000, 0.135000)">
                <mask id="mask-94" fill="white">
                    <use xlink:href="#path-93"></use>
                </mask>
                <g id="Clip-140"></g>
                <path d="M49.1555,169.9998 C54.1845,169.9998 58.2635,165.9168 58.2635,160.8808 C58.2635,155.8448 54.1845,151.7628 49.1555,151.7628 C44.1255,151.7628 40.0475,155.8448 40.0475,160.8808 C40.0475,165.9168 44.1255,169.9998 49.1555,169.9998" id="Fill-139" fill="#E6E7E8" mask="url(#mask-94)"></path>
            </g>
            <g id="Group-144" transform="translate(0.000000, 0.135000)">
                <mask id="mask-96" fill="white">
                    <use xlink:href="#path-95"></use>
                </mask>
                <g id="Clip-143"></g>
                <path d="M26.1321,169.9998 C31.1621,169.9998 35.2411,165.9168 35.2411,160.8808 C35.2411,155.8448 31.1621,151.7628 26.1321,151.7628 C21.1021,151.7628 17.0231,155.8448 17.0231,160.8808 C17.0231,165.9168 21.1021,169.9998 26.1321,169.9998" id="Fill-142" fill="#E6E7E8" mask="url(#mask-96)"></path>
            </g>
            <g id="Group-147" transform="translate(0.000000, 0.135000)">
                <mask id="mask-98" fill="white">
                    <use xlink:href="#path-97"></use>
                </mask>
                <g id="Clip-146"></g>
                <path d="M72.178,169.9998 C77.208,169.9998 81.287,165.9168 81.287,160.8808 C81.287,155.8448 77.208,151.7628 72.178,151.7628 C67.149,151.7628 63.071,155.8448 63.071,160.8808 C63.071,165.9168 67.149,169.9998 72.178,169.9998" id="Fill-145" fill="#E6E7E8" mask="url(#mask-98)"></path>
            </g>
            <g id="Group-150" transform="translate(0.000000, 0.135000)">
                <mask id="mask-100" fill="white">
                    <use xlink:href="#path-99"></use>
                </mask>
                <g id="Clip-149"></g>
                <path d="M95.2014,169.9998 C100.2314,169.9998 104.3104,165.9168 104.3104,160.8808 C104.3104,155.8448 100.2314,151.7628 95.2014,151.7628 C90.1724,151.7628 86.0934,155.8448 86.0934,160.8808 C86.0934,165.9168 90.1724,169.9998 95.2014,169.9998" id="Fill-148" fill="#E6E7E8" mask="url(#mask-100)"></path>
            </g>
            <g id="Group-153" transform="translate(0.000000, 0.135000)">
                <mask id="mask-102" fill="white">
                    <use xlink:href="#path-101"></use>
                </mask>
                <g id="Clip-152"></g>
                <path d="M118.2249,169.9998 C123.2549,169.9998 127.3339,165.9168 127.3339,160.8808 C127.3339,155.8448 123.2549,151.7628 118.2249,151.7628 C113.1949,151.7628 109.1169,155.8448 109.1169,160.8808 C109.1169,165.9168 113.1949,169.9998 118.2249,169.9998" id="Fill-151" fill="#E6E7E8" mask="url(#mask-102)"></path>
            </g>
            <g id="Group-156" transform="translate(0.000000, 0.135000)">
                <mask id="mask-104" fill="white">
                    <use xlink:href="#path-103"></use>
                </mask>
                <g id="Clip-155"></g>
                <path d="M141.2483,169.9998 C146.2773,169.9998 150.3563,165.9168 150.3563,160.8808 C150.3563,155.8448 146.2773,151.7628 141.2483,151.7628 C136.2183,151.7628 132.1403,155.8448 132.1403,160.8808 C132.1403,165.9168 136.2183,169.9998 141.2483,169.9998" id="Fill-154" fill="#E6E7E8" mask="url(#mask-104)"></path>
            </g>
            <g id="Group-159" transform="translate(0.000000, 0.135000)">
                <mask id="mask-106" fill="white">
                    <use xlink:href="#path-105"></use>
                </mask>
                <g id="Clip-158"></g>
                <path d="M187.2942,169.9998 C192.3242,169.9998 196.4022,165.9168 196.4022,160.8808 C196.4022,155.8448 192.3242,151.7628 187.2942,151.7628 C182.2652,151.7628 178.1862,155.8448 178.1862,160.8808 C178.1862,165.9168 182.2652,169.9998 187.2942,169.9998" id="Fill-157" fill="#E6E7E8" mask="url(#mask-106)"></path>
            </g>
            <g id="Group-162" transform="translate(0.000000, 0.135000)">
                <mask id="mask-108" fill="white">
                    <use xlink:href="#path-107"></use>
                </mask>
                <g id="Clip-161"></g>
                <path d="M164.2718,169.9998 C169.3008,169.9998 173.3788,165.9168 173.3788,160.8808 C173.3788,155.8448 169.3008,151.7628 164.2718,151.7628 C159.2418,151.7628 155.1628,155.8448 155.1628,160.8808 C155.1628,165.9168 159.2418,169.9998 164.2718,169.9998" id="Fill-160" fill="#E6E7E8" mask="url(#mask-108)"></path>
            </g>
            <g id="Group-165" transform="translate(0.000000, 0.135000)">
                <mask id="mask-110" fill="white">
                    <use xlink:href="#path-109"></use>
                </mask>
                <g id="Clip-164"></g>
                <path d="M210.3177,169.9998 C215.3477,169.9998 219.4257,165.9168 219.4257,160.8808 C219.4257,155.8448 215.3477,151.7628 210.3177,151.7628 C205.2877,151.7628 201.2087,155.8448 201.2087,160.8808 C201.2087,165.9168 205.2877,169.9998 210.3177,169.9998" id="Fill-163" fill="#E6E7E8" mask="url(#mask-110)"></path>
            </g>
            <g id="Group-168" transform="translate(0.000000, 0.135000)">
                <mask id="mask-112" fill="white">
                    <use xlink:href="#path-111"></use>
                </mask>
                <g id="Clip-167"></g>
                <path d="M233.3411,169.9998 C238.3701,169.9998 242.4491,165.9168 242.4491,160.8808 C242.4491,155.8448 238.3701,151.7628 233.3411,151.7628 C228.3111,151.7628 224.2331,155.8448 224.2331,160.8808 C224.2331,165.9168 228.3111,169.9998 233.3411,169.9998" id="Fill-166" fill="#E6E7E8" mask="url(#mask-112)"></path>
            </g>
            <g id="Group-171" transform="translate(0.000000, 0.135000)">
                <mask id="mask-114" fill="white">
                    <use xlink:href="#path-113"></use>
                </mask>
                <g id="Clip-170"></g>
                <path d="M256.3636,169.9998 C261.3946,169.9998 265.4716,165.9168 265.4716,160.8808 C265.4716,155.8448 261.3946,151.7628 256.3636,151.7628 C251.3346,151.7628 247.2566,155.8448 247.2566,160.8808 C247.2566,165.9168 251.3346,169.9998 256.3636,169.9998" id="Fill-169" fill="#E6E7E8" mask="url(#mask-114)"></path>
            </g>
            <g id="Group-174" transform="translate(0.000000, 0.135000)">
                <mask id="mask-116" fill="white">
                    <use xlink:href="#path-115"></use>
                </mask>
                <g id="Clip-173"></g>
                <path d="M279.387,169.9998 C284.417,169.9998 288.495,165.9168 288.495,160.8808 C288.495,155.8448 284.417,151.7628 279.387,151.7628 C274.358,151.7628 270.279,155.8448 270.279,160.8808 C270.279,165.9168 274.358,169.9998 279.387,169.9998" id="Fill-172" fill="#E6E7E8" mask="url(#mask-116)"></path>
            </g>
            <g id="Group-177" transform="translate(0.000000, 0.135000)">
                <mask id="mask-118" fill="white">
                    <use xlink:href="#path-117"></use>
                </mask>
                <g id="Clip-176"></g>
                <path d="M325.4339,169.9998 C330.4629,169.9998 334.5409,165.9168 334.5409,160.8808 C334.5409,155.8448 330.4629,151.7628 325.4339,151.7628 C320.4039,151.7628 316.3249,155.8448 316.3249,160.8808 C316.3249,165.9168 320.4039,169.9998 325.4339,169.9998" id="Fill-175" fill="#E6E7E8" mask="url(#mask-118)"></path>
            </g>
            <g id="Group-180" transform="translate(0.000000, 0.135000)">
                <mask id="mask-120" fill="white">
                    <use xlink:href="#path-119"></use>
                </mask>
                <g id="Clip-179"></g>
                <path d="M302.4104,169.9998 C307.4404,169.9998 311.5184,165.9168 311.5184,160.8808 C311.5184,155.8448 307.4404,151.7628 302.4104,151.7628 C297.3804,151.7628 293.3014,155.8448 293.3014,160.8808 C293.3014,165.9168 297.3804,169.9998 302.4104,169.9998" id="Fill-178" fill="#E6E7E8" mask="url(#mask-120)"></path>
            </g>
            <g id="Group-183" transform="translate(0.000000, 0.135000)">
                <mask id="mask-122" fill="white">
                    <use xlink:href="#path-121"></use>
                </mask>
                <g id="Clip-182"></g>
                <path d="M3.1087,9.1033 C8.1387,9.1033 12.2167,5.0203 12.2167,-0.0157 C12.2167,-5.0527 8.1387,-9.1347 3.1087,-9.1347 C-1.9203,-9.1347 -5.9993,-5.0527 -5.9993,-0.0157 C-5.9993,5.0203 -1.9203,9.1033 3.1087,9.1033" id="Fill-181" fill="#E6E7E8" mask="url(#mask-122)"></path>
            </g>
            <g id="Group-186" transform="translate(0.000000, 0.135000)">
                <mask id="mask-124" fill="white">
                    <use xlink:href="#path-123"></use>
                </mask>
                <g id="Clip-185"></g>
                <path d="M49.1555,9.1033 C54.1845,9.1033 58.2635,5.0203 58.2635,-0.0157 C58.2635,-5.0527 54.1845,-9.1347 49.1555,-9.1347 C44.1255,-9.1347 40.0475,-5.0527 40.0475,-0.0157 C40.0475,5.0203 44.1255,9.1033 49.1555,9.1033" id="Fill-184" fill="#E6E7E8" mask="url(#mask-124)"></path>
            </g>
            <g id="Group-189" transform="translate(0.000000, 0.135000)">
                <mask id="mask-126" fill="white">
                    <use xlink:href="#path-125"></use>
                </mask>
                <g id="Clip-188"></g>
                <path d="M26.1321,9.1033 C31.1621,9.1033 35.2411,5.0203 35.2411,-0.0157 C35.2411,-5.0527 31.1621,-9.1347 26.1321,-9.1347 C21.1021,-9.1347 17.0231,-5.0527 17.0231,-0.0157 C17.0231,5.0203 21.1021,9.1033 26.1321,9.1033" id="Fill-187" fill="#E6E7E8" mask="url(#mask-126)"></path>
            </g>
            <g id="Group-192" transform="translate(0.000000, 0.135000)">
                <mask id="mask-128" fill="white">
                    <use xlink:href="#path-127"></use>
                </mask>
                <g id="Clip-191"></g>
                <path d="M72.178,9.1033 C77.208,9.1033 81.287,5.0203 81.287,-0.0157 C81.287,-5.0527 77.208,-9.1347 72.178,-9.1347 C67.149,-9.1347 63.071,-5.0527 63.071,-0.0157 C63.071,5.0203 67.149,9.1033 72.178,9.1033" id="Fill-190" fill="#E6E7E8" mask="url(#mask-128)"></path>
            </g>
            <g id="Group-195" transform="translate(0.000000, 0.135000)">
                <mask id="mask-130" fill="white">
                    <use xlink:href="#path-129"></use>
                </mask>
                <g id="Clip-194"></g>
                <path d="M95.2014,9.1033 C100.2314,9.1033 104.3104,5.0203 104.3104,-0.0157 C104.3104,-5.0527 100.2314,-9.1347 95.2014,-9.1347 C90.1724,-9.1347 86.0934,-5.0527 86.0934,-0.0157 C86.0934,5.0203 90.1724,9.1033 95.2014,9.1033" id="Fill-193" fill="#E6E7E8" mask="url(#mask-130)"></path>
            </g>
            <g id="Group-198" transform="translate(0.000000, 0.135000)">
                <mask id="mask-132" fill="white">
                    <use xlink:href="#path-131"></use>
                </mask>
                <g id="Clip-197"></g>
                <path d="M118.2249,9.1033 C123.2549,9.1033 127.3339,5.0203 127.3339,-0.0157 C127.3339,-5.0527 123.2549,-9.1347 118.2249,-9.1347 C113.1949,-9.1347 109.1169,-5.0527 109.1169,-0.0157 C109.1169,5.0203 113.1949,9.1033 118.2249,9.1033" id="Fill-196" fill="#E6E7E8" mask="url(#mask-132)"></path>
            </g>
            <g id="Group-201" transform="translate(0.000000, 0.135000)">
                <mask id="mask-134" fill="white">
                    <use xlink:href="#path-133"></use>
                </mask>
                <g id="Clip-200"></g>
                <path d="M141.2483,9.1033 C146.2773,9.1033 150.3563,5.0203 150.3563,-0.0157 C150.3563,-5.0527 146.2773,-9.1347 141.2483,-9.1347 C136.2183,-9.1347 132.1403,-5.0527 132.1403,-0.0157 C132.1403,5.0203 136.2183,9.1033 141.2483,9.1033" id="Fill-199" fill="#E6E7E8" mask="url(#mask-134)"></path>
            </g>
            <g id="Group-204" transform="translate(0.000000, 0.135000)">
                <mask id="mask-136" fill="white">
                    <use xlink:href="#path-135"></use>
                </mask>
                <g id="Clip-203"></g>
                <path d="M187.2942,9.1033 C192.3242,9.1033 196.4022,5.0203 196.4022,-0.0157 C196.4022,-5.0527 192.3242,-9.1347 187.2942,-9.1347 C182.2652,-9.1347 178.1862,-5.0527 178.1862,-0.0157 C178.1862,5.0203 182.2652,9.1033 187.2942,9.1033" id="Fill-202" fill="#E6E7E8" mask="url(#mask-136)"></path>
            </g>
            <g id="Group-207" transform="translate(0.000000, 0.135000)">
                <mask id="mask-138" fill="white">
                    <use xlink:href="#path-137"></use>
                </mask>
                <g id="Clip-206"></g>
                <path d="M164.2718,9.1033 C169.3008,9.1033 173.3788,5.0203 173.3788,-0.0157 C173.3788,-5.0527 169.3008,-9.1347 164.2718,-9.1347 C159.2418,-9.1347 155.1628,-5.0527 155.1628,-0.0157 C155.1628,5.0203 159.2418,9.1033 164.2718,9.1033" id="Fill-205" fill="#E6E7E8" mask="url(#mask-138)"></path>
            </g>
            <g id="Group-210" transform="translate(0.000000, 0.135000)">
                <mask id="mask-140" fill="white">
                    <use xlink:href="#path-139"></use>
                </mask>
                <g id="Clip-209"></g>
                <path d="M210.3177,9.1033 C215.3477,9.1033 219.4257,5.0203 219.4257,-0.0157 C219.4257,-5.0527 215.3477,-9.1347 210.3177,-9.1347 C205.2877,-9.1347 201.2087,-5.0527 201.2087,-0.0157 C201.2087,5.0203 205.2877,9.1033 210.3177,9.1033" id="Fill-208" fill="#E6E7E8" mask="url(#mask-140)"></path>
            </g>
            <g id="Group-213" transform="translate(0.000000, 0.135000)">
                <mask id="mask-142" fill="white">
                    <use xlink:href="#path-141"></use>
                </mask>
                <g id="Clip-212"></g>
                <path d="M233.3411,9.1033 C238.3701,9.1033 242.4491,5.0203 242.4491,-0.0157 C242.4491,-5.0527 238.3701,-9.1347 233.3411,-9.1347 C228.3111,-9.1347 224.2331,-5.0527 224.2331,-0.0157 C224.2331,5.0203 228.3111,9.1033 233.3411,9.1033" id="Fill-211" fill="#E6E7E8" mask="url(#mask-142)"></path>
            </g>
            <g id="Group-216" transform="translate(0.000000, 0.135000)">
                <mask id="mask-144" fill="white">
                    <use xlink:href="#path-143"></use>
                </mask>
                <g id="Clip-215"></g>
                <path d="M256.3636,9.1033 C261.3946,9.1033 265.4716,5.0203 265.4716,-0.0157 C265.4716,-5.0527 261.3946,-9.1347 256.3636,-9.1347 C251.3346,-9.1347 247.2566,-5.0527 247.2566,-0.0157 C247.2566,5.0203 251.3346,9.1033 256.3636,9.1033" id="Fill-214" fill="#E6E7E8" mask="url(#mask-144)"></path>
            </g>
            <g id="Group-219" transform="translate(0.000000, 0.135000)">
                <mask id="mask-146" fill="white">
                    <use xlink:href="#path-145"></use>
                </mask>
                <g id="Clip-218"></g>
                <path d="M279.387,9.1033 C284.417,9.1033 288.495,5.0203 288.495,-0.0157 C288.495,-5.0527 284.417,-9.1347 279.387,-9.1347 C274.358,-9.1347 270.279,-5.0527 270.279,-0.0157 C270.279,5.0203 274.358,9.1033 279.387,9.1033" id="Fill-217" fill="#E6E7E8" mask="url(#mask-146)"></path>
            </g>
            <g id="Group-222" transform="translate(0.000000, 0.135000)">
                <mask id="mask-148" fill="white">
                    <use xlink:href="#path-147"></use>
                </mask>
                <g id="Clip-221"></g>
                <path d="M325.4339,9.1033 C330.4629,9.1033 334.5409,5.0203 334.5409,-0.0157 C334.5409,-5.0527 330.4629,-9.1347 325.4339,-9.1347 C320.4039,-9.1347 316.3249,-5.0527 316.3249,-0.0157 C316.3249,5.0203 320.4039,9.1033 325.4339,9.1033" id="Fill-220" fill="#E6E7E8" mask="url(#mask-148)"></path>
            </g>
            <g id="Group-225" transform="translate(0.000000, 0.135000)">
                <mask id="mask-150" fill="white">
                    <use xlink:href="#path-149"></use>
                </mask>
                <g id="Clip-224"></g>
                <path d="M302.4104,9.1033 C307.4404,9.1033 311.5184,5.0203 311.5184,-0.0157 C311.5184,-5.0527 307.4404,-9.1347 302.4104,-9.1347 C297.3804,-9.1347 293.3014,-5.0527 293.3014,-0.0157 C293.3014,5.0203 297.3804,9.1033 302.4104,9.1033" id="Fill-223" fill="#E6E7E8" mask="url(#mask-150)"></path>
            </g>
            <g id="Group-228" transform="translate(0.000000, 0.135000)">
                <mask id="mask-152" fill="white">
                    <use xlink:href="#path-151"></use>
                </mask>
                <g id="Clip-227"></g>
                <path d="M3.1087,32.1267 C8.1387,32.1267 12.2167,28.0437 12.2167,23.0077 C12.2167,17.9707 8.1387,13.8887 3.1087,13.8887 C-1.9203,13.8887 -5.9993,17.9707 -5.9993,23.0077 C-5.9993,28.0437 -1.9203,32.1267 3.1087,32.1267" id="Fill-226" fill="#E6E7E8" mask="url(#mask-152)"></path>
            </g>
            <g id="Group-231" transform="translate(0.000000, 0.135000)">
                <mask id="mask-154" fill="white">
                    <use xlink:href="#path-153"></use>
                </mask>
                <g id="Clip-230"></g>
                <path d="M49.1555,32.1267 C54.1845,32.1267 58.2635,28.0437 58.2635,23.0077 C58.2635,17.9707 54.1845,13.8887 49.1555,13.8887 C44.1255,13.8887 40.0475,17.9707 40.0475,23.0077 C40.0475,28.0437 44.1255,32.1267 49.1555,32.1267" id="Fill-229" fill="#E6E7E8" mask="url(#mask-154)"></path>
            </g>
            <g id="Group-234" transform="translate(0.000000, 0.135000)">
                <mask id="mask-156" fill="white">
                    <use xlink:href="#path-155"></use>
                </mask>
                <g id="Clip-233"></g>
                <path d="M26.1321,32.1267 C31.1621,32.1267 35.2411,28.0437 35.2411,23.0077 C35.2411,17.9707 31.1621,13.8887 26.1321,13.8887 C21.1021,13.8887 17.0231,17.9707 17.0231,23.0077 C17.0231,28.0437 21.1021,32.1267 26.1321,32.1267" id="Fill-232" fill="#E6E7E8" mask="url(#mask-156)"></path>
            </g>
            <g id="Group-237" transform="translate(0.000000, 0.135000)">
                <mask id="mask-158" fill="white">
                    <use xlink:href="#path-157"></use>
                </mask>
                <g id="Clip-236"></g>
                <path d="M72.178,32.1267 C77.208,32.1267 81.287,28.0437 81.287,23.0077 C81.287,17.9707 77.208,13.8887 72.178,13.8887 C67.149,13.8887 63.071,17.9707 63.071,23.0077 C63.071,28.0437 67.149,32.1267 72.178,32.1267" id="Fill-235" fill="#E6E7E8" mask="url(#mask-158)"></path>
            </g>
            <g id="Group-240" transform="translate(0.000000, 0.135000)">
                <mask id="mask-160" fill="white">
                    <use xlink:href="#path-159"></use>
                </mask>
                <g id="Clip-239"></g>
                <path d="M95.2014,32.1267 C100.2314,32.1267 104.3104,28.0437 104.3104,23.0077 C104.3104,17.9707 100.2314,13.8887 95.2014,13.8887 C90.1724,13.8887 86.0934,17.9707 86.0934,23.0077 C86.0934,28.0437 90.1724,32.1267 95.2014,32.1267" id="Fill-238" fill="#E6E7E8" mask="url(#mask-160)"></path>
            </g>
            <g id="Group-243" transform="translate(0.000000, 0.135000)">
                <mask id="mask-162" fill="white">
                    <use xlink:href="#path-161"></use>
                </mask>
                <g id="Clip-242"></g>
                <path d="M118.2249,32.1267 C123.2549,32.1267 127.3339,28.0437 127.3339,23.0077 C127.3339,17.9707 123.2549,13.8887 118.2249,13.8887 C113.1949,13.8887 109.1169,17.9707 109.1169,23.0077 C109.1169,28.0437 113.1949,32.1267 118.2249,32.1267" id="Fill-241" fill="#E6E7E8" mask="url(#mask-162)"></path>
            </g>
            <g id="Group-246" transform="translate(0.000000, 0.135000)">
                <mask id="mask-164" fill="white">
                    <use xlink:href="#path-163"></use>
                </mask>
                <g id="Clip-245"></g>
                <path d="M141.2483,32.1267 C146.2773,32.1267 150.3563,28.0437 150.3563,23.0077 C150.3563,17.9707 146.2773,13.8887 141.2483,13.8887 C136.2183,13.8887 132.1403,17.9707 132.1403,23.0077 C132.1403,28.0437 136.2183,32.1267 141.2483,32.1267" id="Fill-244" fill="#E6E7E8" mask="url(#mask-164)"></path>
            </g>
            <g id="Group-249" transform="translate(0.000000, 0.135000)">
                <mask id="mask-166" fill="white">
                    <use xlink:href="#path-165"></use>
                </mask>
                <g id="Clip-248"></g>
                <path d="M187.2942,32.1267 C192.3242,32.1267 196.4022,28.0437 196.4022,23.0077 C196.4022,17.9707 192.3242,13.8887 187.2942,13.8887 C182.2652,13.8887 178.1862,17.9707 178.1862,23.0077 C178.1862,28.0437 182.2652,32.1267 187.2942,32.1267" id="Fill-247" fill="#E6E7E8" mask="url(#mask-166)"></path>
            </g>
            <g id="Group-252" transform="translate(0.000000, 0.135000)">
                <mask id="mask-168" fill="white">
                    <use xlink:href="#path-167"></use>
                </mask>
                <g id="Clip-251"></g>
                <path d="M164.2718,32.1267 C169.3008,32.1267 173.3788,28.0437 173.3788,23.0077 C173.3788,17.9707 169.3008,13.8887 164.2718,13.8887 C159.2418,13.8887 155.1628,17.9707 155.1628,23.0077 C155.1628,28.0437 159.2418,32.1267 164.2718,32.1267" id="Fill-250" fill="#E6E7E8" mask="url(#mask-168)"></path>
            </g>
            <g id="Group-255" transform="translate(0.000000, 0.135000)">
                <mask id="mask-170" fill="white">
                    <use xlink:href="#path-169"></use>
                </mask>
                <g id="Clip-254"></g>
                <path d="M210.3177,32.1267 C215.3477,32.1267 219.4257,28.0437 219.4257,23.0077 C219.4257,17.9707 215.3477,13.8887 210.3177,13.8887 C205.2877,13.8887 201.2087,17.9707 201.2087,23.0077 C201.2087,28.0437 205.2877,32.1267 210.3177,32.1267" id="Fill-253" fill="#E6E7E8" mask="url(#mask-170)"></path>
            </g>
            <g id="Group-258" transform="translate(0.000000, 0.135000)">
                <mask id="mask-172" fill="white">
                    <use xlink:href="#path-171"></use>
                </mask>
                <g id="Clip-257"></g>
                <path d="M233.3411,32.1267 C238.3701,32.1267 242.4491,28.0437 242.4491,23.0077 C242.4491,17.9707 238.3701,13.8887 233.3411,13.8887 C228.3111,13.8887 224.2331,17.9707 224.2331,23.0077 C224.2331,28.0437 228.3111,32.1267 233.3411,32.1267" id="Fill-256" fill="#E6E7E8" mask="url(#mask-172)"></path>
            </g>
            <g id="Group-261" transform="translate(0.000000, 0.135000)">
                <mask id="mask-174" fill="white">
                    <use xlink:href="#path-173"></use>
                </mask>
                <g id="Clip-260"></g>
                <path d="M256.3636,32.1267 C261.3946,32.1267 265.4716,28.0437 265.4716,23.0077 C265.4716,17.9707 261.3946,13.8887 256.3636,13.8887 C251.3346,13.8887 247.2566,17.9707 247.2566,23.0077 C247.2566,28.0437 251.3346,32.1267 256.3636,32.1267" id="Fill-259" fill="#E6E7E8" mask="url(#mask-174)"></path>
            </g>
            <g id="Group-264" transform="translate(0.000000, 0.135000)">
                <mask id="mask-176" fill="white">
                    <use xlink:href="#path-175"></use>
                </mask>
                <g id="Clip-263"></g>
                <path d="M279.387,32.1267 C284.417,32.1267 288.495,28.0437 288.495,23.0077 C288.495,17.9707 284.417,13.8887 279.387,13.8887 C274.358,13.8887 270.279,17.9707 270.279,23.0077 C270.279,28.0437 274.358,32.1267 279.387,32.1267" id="Fill-262" fill="#E6E7E8" mask="url(#mask-176)"></path>
            </g>
            <g id="Group-267" transform="translate(0.000000, 0.135000)">
                <mask id="mask-178" fill="white">
                    <use xlink:href="#path-177"></use>
                </mask>
                <g id="Clip-266"></g>
                <path d="M325.4339,32.1267 C330.4629,32.1267 334.5409,28.0437 334.5409,23.0077 C334.5409,17.9707 330.4629,13.8887 325.4339,13.8887 C320.4039,13.8887 316.3249,17.9707 316.3249,23.0077 C316.3249,28.0437 320.4039,32.1267 325.4339,32.1267" id="Fill-265" fill="#E6E7E8" mask="url(#mask-178)"></path>
            </g>
            <g id="Group-270" transform="translate(0.000000, 0.135000)">
                <mask id="mask-180" fill="white">
                    <use xlink:href="#path-179"></use>
                </mask>
                <g id="Clip-269"></g>
                <path d="M302.4104,32.1267 C307.4404,32.1267 311.5184,28.0437 311.5184,23.0077 C311.5184,17.9707 307.4404,13.8887 302.4104,13.8887 C297.3804,13.8887 293.3014,17.9707 293.3014,23.0077 C293.3014,28.0437 297.3804,32.1267 302.4104,32.1267" id="Fill-268" fill="#E6E7E8" mask="url(#mask-180)"></path>
            </g>
            <g id="Group-273" transform="translate(0.000000, 0.135000)">
                <mask id="mask-182" fill="white">
                    <use xlink:href="#path-181"></use>
                </mask>
                <g id="Clip-272"></g>
                <path d="M3.1087,55.1492 C8.1387,55.1492 12.2167,51.0662 12.2167,46.0312 C12.2167,40.9942 8.1387,36.9112 3.1087,36.9112 C-1.9203,36.9112 -5.9993,40.9942 -5.9993,46.0312 C-5.9993,51.0662 -1.9203,55.1492 3.1087,55.1492" id="Fill-271" fill="#E6E7E8" mask="url(#mask-182)"></path>
            </g>
            <g id="Group-276" transform="translate(0.000000, 0.135000)">
                <mask id="mask-184" fill="white">
                    <use xlink:href="#path-183"></use>
                </mask>
                <g id="Clip-275"></g>
                <path d="M49.1555,55.1492 C54.1845,55.1492 58.2635,51.0662 58.2635,46.0312 C58.2635,40.9942 54.1845,36.9112 49.1555,36.9112 C44.1255,36.9112 40.0475,40.9942 40.0475,46.0312 C40.0475,51.0662 44.1255,55.1492 49.1555,55.1492" id="Fill-274" fill="#E6E7E8" mask="url(#mask-184)"></path>
            </g>
            <g id="Group-279" transform="translate(0.000000, 0.135000)">
                <mask id="mask-186" fill="white">
                    <use xlink:href="#path-185"></use>
                </mask>
                <g id="Clip-278"></g>
                <path d="M26.1321,55.1492 C31.1621,55.1492 35.2411,51.0662 35.2411,46.0312 C35.2411,40.9942 31.1621,36.9112 26.1321,36.9112 C21.1021,36.9112 17.0231,40.9942 17.0231,46.0312 C17.0231,51.0662 21.1021,55.1492 26.1321,55.1492" id="Fill-277" fill="#E6E7E8" mask="url(#mask-186)"></path>
            </g>
            <g id="Group-282" transform="translate(0.000000, 0.135000)">
                <mask id="mask-188" fill="white">
                    <use xlink:href="#path-187"></use>
                </mask>
                <g id="Clip-281"></g>
                <path d="M72.178,55.1492 C77.208,55.1492 81.287,51.0662 81.287,46.0312 C81.287,40.9942 77.208,36.9112 72.178,36.9112 C67.149,36.9112 63.071,40.9942 63.071,46.0312 C63.071,51.0662 67.149,55.1492 72.178,55.1492" id="Fill-280" fill="#E6E7E8" mask="url(#mask-188)"></path>
            </g>
            <g id="Group-285" transform="translate(0.000000, 0.135000)">
                <mask id="mask-190" fill="white">
                    <use xlink:href="#path-189"></use>
                </mask>
                <g id="Clip-284"></g>
                <path d="M95.2014,55.1492 C100.2314,55.1492 104.3104,51.0662 104.3104,46.0312 C104.3104,40.9942 100.2314,36.9112 95.2014,36.9112 C90.1724,36.9112 86.0934,40.9942 86.0934,46.0312 C86.0934,51.0662 90.1724,55.1492 95.2014,55.1492" id="Fill-283" fill="#E6E7E8" mask="url(#mask-190)"></path>
            </g>
            <g id="Group-288" transform="translate(0.000000, 0.135000)">
                <mask id="mask-192" fill="white">
                    <use xlink:href="#path-191"></use>
                </mask>
                <g id="Clip-287"></g>
                <path d="M118.2249,55.1492 C123.2549,55.1492 127.3339,51.0662 127.3339,46.0312 C127.3339,40.9942 123.2549,36.9112 118.2249,36.9112 C113.1949,36.9112 109.1169,40.9942 109.1169,46.0312 C109.1169,51.0662 113.1949,55.1492 118.2249,55.1492" id="Fill-286" fill="#E6E7E8" mask="url(#mask-192)"></path>
            </g>
            <g id="Group-291" transform="translate(0.000000, 0.135000)">
                <mask id="mask-194" fill="white">
                    <use xlink:href="#path-193"></use>
                </mask>
                <g id="Clip-290"></g>
                <path d="M141.2483,55.1492 C146.2773,55.1492 150.3563,51.0662 150.3563,46.0312 C150.3563,40.9942 146.2773,36.9112 141.2483,36.9112 C136.2183,36.9112 132.1403,40.9942 132.1403,46.0312 C132.1403,51.0662 136.2183,55.1492 141.2483,55.1492" id="Fill-289" fill="#E6E7E8" mask="url(#mask-194)"></path>
            </g>
            <g id="Group-294" transform="translate(0.000000, 0.135000)">
                <mask id="mask-196" fill="white">
                    <use xlink:href="#path-195"></use>
                </mask>
                <g id="Clip-293"></g>
                <path d="M187.2942,55.1492 C192.3242,55.1492 196.4022,51.0662 196.4022,46.0312 C196.4022,40.9942 192.3242,36.9112 187.2942,36.9112 C182.2652,36.9112 178.1862,40.9942 178.1862,46.0312 C178.1862,51.0662 182.2652,55.1492 187.2942,55.1492" id="Fill-292" fill="#E6E7E8" mask="url(#mask-196)"></path>
            </g>
            <g id="Group-297" transform="translate(0.000000, 0.135000)">
                <mask id="mask-198" fill="white">
                    <use xlink:href="#path-197"></use>
                </mask>
                <g id="Clip-296"></g>
                <path d="M164.2718,55.1492 C169.3008,55.1492 173.3788,51.0662 173.3788,46.0312 C173.3788,40.9942 169.3008,36.9112 164.2718,36.9112 C159.2418,36.9112 155.1628,40.9942 155.1628,46.0312 C155.1628,51.0662 159.2418,55.1492 164.2718,55.1492" id="Fill-295" fill="#E6E7E8" mask="url(#mask-198)"></path>
            </g>
            <g id="Group-300" transform="translate(0.000000, 0.135000)">
                <mask id="mask-200" fill="white">
                    <use xlink:href="#path-199"></use>
                </mask>
                <g id="Clip-299"></g>
                <path d="M210.3177,55.1492 C215.3477,55.1492 219.4257,51.0662 219.4257,46.0312 C219.4257,40.9942 215.3477,36.9112 210.3177,36.9112 C205.2877,36.9112 201.2087,40.9942 201.2087,46.0312 C201.2087,51.0662 205.2877,55.1492 210.3177,55.1492" id="Fill-298" fill="#E6E7E8" mask="url(#mask-200)"></path>
            </g>
            <g id="Group-303" transform="translate(0.000000, 0.135000)">
                <mask id="mask-202" fill="white">
                    <use xlink:href="#path-201"></use>
                </mask>
                <g id="Clip-302"></g>
                <path d="M233.3411,55.1492 C238.3701,55.1492 242.4491,51.0662 242.4491,46.0312 C242.4491,40.9942 238.3701,36.9112 233.3411,36.9112 C228.3111,36.9112 224.2331,40.9942 224.2331,46.0312 C224.2331,51.0662 228.3111,55.1492 233.3411,55.1492" id="Fill-301" fill="#E6E7E8" mask="url(#mask-202)"></path>
            </g>
            <g id="Group-306" transform="translate(0.000000, 0.135000)">
                <mask id="mask-204" fill="white">
                    <use xlink:href="#path-203"></use>
                </mask>
                <g id="Clip-305"></g>
                <path d="M256.3636,55.1492 C261.3946,55.1492 265.4716,51.0662 265.4716,46.0312 C265.4716,40.9942 261.3946,36.9112 256.3636,36.9112 C251.3346,36.9112 247.2566,40.9942 247.2566,46.0312 C247.2566,51.0662 251.3346,55.1492 256.3636,55.1492" id="Fill-304" fill="#E6E7E8" mask="url(#mask-204)"></path>
            </g>
            <g id="Group-309" transform="translate(0.000000, 0.135000)">
                <mask id="mask-206" fill="white">
                    <use xlink:href="#path-205"></use>
                </mask>
                <g id="Clip-308"></g>
                <path d="M279.387,55.1492 C284.417,55.1492 288.495,51.0662 288.495,46.0312 C288.495,40.9942 284.417,36.9112 279.387,36.9112 C274.358,36.9112 270.279,40.9942 270.279,46.0312 C270.279,51.0662 274.358,55.1492 279.387,55.1492" id="Fill-307" fill="#E6E7E8" mask="url(#mask-206)"></path>
            </g>
            <g id="Group-312" transform="translate(0.000000, 0.135000)">
                <mask id="mask-208" fill="white">
                    <use xlink:href="#path-207"></use>
                </mask>
                <g id="Clip-311"></g>
                <path d="M325.4339,55.1492 C330.4629,55.1492 334.5409,51.0662 334.5409,46.0312 C334.5409,40.9942 330.4629,36.9112 325.4339,36.9112 C320.4039,36.9112 316.3249,40.9942 316.3249,46.0312 C316.3249,51.0662 320.4039,55.1492 325.4339,55.1492" id="Fill-310" fill="#E6E7E8" mask="url(#mask-208)"></path>
            </g>
            <g id="Group-315" transform="translate(0.000000, 0.135000)">
                <mask id="mask-210" fill="white">
                    <use xlink:href="#path-209"></use>
                </mask>
                <g id="Clip-314"></g>
                <path d="M302.4104,55.1492 C307.4404,55.1492 311.5184,51.0662 311.5184,46.0312 C311.5184,40.9942 307.4404,36.9112 302.4104,36.9112 C297.3804,36.9112 293.3014,40.9942 293.3014,46.0312 C293.3014,51.0662 297.3804,55.1492 302.4104,55.1492" id="Fill-313" fill="#E6E7E8" mask="url(#mask-210)"></path>
            </g>
            <g id="Group-318" transform="translate(0.000000, 0.135000)">
                <mask id="mask-212" fill="white">
                    <use xlink:href="#path-211"></use>
                </mask>
                <g id="Clip-317"></g>
                <path d="M3.1087,78.1726 C8.1387,78.1726 12.2167,74.0896 12.2167,69.0536 C12.2167,64.0166 8.1387,59.9336 3.1087,59.9336 C-1.9203,59.9336 -5.9993,64.0166 -5.9993,69.0536 C-5.9993,74.0896 -1.9203,78.1726 3.1087,78.1726" id="Fill-316" fill="#E6E7E8" mask="url(#mask-212)"></path>
            </g>
            <g id="Group-321" transform="translate(0.000000, 0.135000)">
                <mask id="mask-214" fill="white">
                    <use xlink:href="#path-213"></use>
                </mask>
                <g id="Clip-320"></g>
                <path d="M49.1555,78.1726 C54.1845,78.1726 58.2635,74.0896 58.2635,69.0536 C58.2635,64.0166 54.1845,59.9336 49.1555,59.9336 C44.1255,59.9336 40.0475,64.0166 40.0475,69.0536 C40.0475,74.0896 44.1255,78.1726 49.1555,78.1726" id="Fill-319" fill="#E6E7E8" mask="url(#mask-214)"></path>
            </g>
            <g id="Group-324" transform="translate(0.000000, 0.135000)">
                <mask id="mask-216" fill="white">
                    <use xlink:href="#path-215"></use>
                </mask>
                <g id="Clip-323"></g>
                <path d="M26.1321,78.1726 C31.1621,78.1726 35.2411,74.0896 35.2411,69.0536 C35.2411,64.0166 31.1621,59.9336 26.1321,59.9336 C21.1021,59.9336 17.0231,64.0166 17.0231,69.0536 C17.0231,74.0896 21.1021,78.1726 26.1321,78.1726" id="Fill-322" fill="#E6E7E8" mask="url(#mask-216)"></path>
            </g>
            <g id="Group-327" transform="translate(0.000000, 0.135000)">
                <mask id="mask-218" fill="white">
                    <use xlink:href="#path-217"></use>
                </mask>
                <g id="Clip-326"></g>
                <path d="M72.178,78.1726 C77.208,78.1726 81.287,74.0896 81.287,69.0536 C81.287,64.0166 77.208,59.9336 72.178,59.9336 C67.149,59.9336 63.071,64.0166 63.071,69.0536 C63.071,74.0896 67.149,78.1726 72.178,78.1726" id="Fill-325" fill="#E6E7E8" mask="url(#mask-218)"></path>
            </g>
            <g id="Group-330" transform="translate(0.000000, 0.135000)">
                <mask id="mask-220" fill="white">
                    <use xlink:href="#path-219"></use>
                </mask>
                <g id="Clip-329"></g>
                <path d="M95.2014,78.1726 C100.2314,78.1726 104.3104,74.0896 104.3104,69.0536 C104.3104,64.0166 100.2314,59.9336 95.2014,59.9336 C90.1724,59.9336 86.0934,64.0166 86.0934,69.0536 C86.0934,74.0896 90.1724,78.1726 95.2014,78.1726" id="Fill-328" fill="#E6E7E8" mask="url(#mask-220)"></path>
            </g>
            <g id="Group-333" transform="translate(0.000000, 0.135000)">
                <mask id="mask-222" fill="white">
                    <use xlink:href="#path-221"></use>
                </mask>
                <g id="Clip-332"></g>
                <path d="M118.2249,78.1726 C123.2549,78.1726 127.3339,74.0896 127.3339,69.0536 C127.3339,64.0166 123.2549,59.9336 118.2249,59.9336 C113.1949,59.9336 109.1169,64.0166 109.1169,69.0536 C109.1169,74.0896 113.1949,78.1726 118.2249,78.1726" id="Fill-331" fill="#E6E7E8" mask="url(#mask-222)"></path>
            </g>
            <g id="Group-336" transform="translate(0.000000, 0.135000)">
                <mask id="mask-224" fill="white">
                    <use xlink:href="#path-223"></use>
                </mask>
                <g id="Clip-335"></g>
                <path d="M141.2483,78.1726 C146.2773,78.1726 150.3563,74.0896 150.3563,69.0536 C150.3563,64.0166 146.2773,59.9336 141.2483,59.9336 C136.2183,59.9336 132.1403,64.0166 132.1403,69.0536 C132.1403,74.0896 136.2183,78.1726 141.2483,78.1726" id="Fill-334" fill="#E6E7E8" mask="url(#mask-224)"></path>
            </g>
            <g id="Group-339" transform="translate(0.000000, 0.135000)">
                <mask id="mask-226" fill="white">
                    <use xlink:href="#path-225"></use>
                </mask>
                <g id="Clip-338"></g>
                <path d="M187.2942,78.1726 C192.3242,78.1726 196.4022,74.0896 196.4022,69.0536 C196.4022,64.0166 192.3242,59.9336 187.2942,59.9336 C182.2652,59.9336 178.1862,64.0166 178.1862,69.0536 C178.1862,74.0896 182.2652,78.1726 187.2942,78.1726" id="Fill-337" fill="#E6E7E8" mask="url(#mask-226)"></path>
            </g>
            <g id="Group-342" transform="translate(0.000000, 0.135000)">
                <mask id="mask-228" fill="white">
                    <use xlink:href="#path-227"></use>
                </mask>
                <g id="Clip-341"></g>
                <path d="M164.2718,78.1726 C169.3008,78.1726 173.3788,74.0896 173.3788,69.0536 C173.3788,64.0166 169.3008,59.9336 164.2718,59.9336 C159.2418,59.9336 155.1628,64.0166 155.1628,69.0536 C155.1628,74.0896 159.2418,78.1726 164.2718,78.1726" id="Fill-340" fill="#E6E7E8" mask="url(#mask-228)"></path>
            </g>
            <g id="Group-345" transform="translate(0.000000, 0.135000)">
                <mask id="mask-230" fill="white">
                    <use xlink:href="#path-229"></use>
                </mask>
                <g id="Clip-344"></g>
                <path d="M210.3177,78.1726 C215.3477,78.1726 219.4257,74.0896 219.4257,69.0536 C219.4257,64.0166 215.3477,59.9336 210.3177,59.9336 C205.2877,59.9336 201.2087,64.0166 201.2087,69.0536 C201.2087,74.0896 205.2877,78.1726 210.3177,78.1726" id="Fill-343" fill="#E6E7E8" mask="url(#mask-230)"></path>
            </g>
            <g id="Group-348" transform="translate(0.000000, 0.135000)">
                <mask id="mask-232" fill="white">
                    <use xlink:href="#path-231"></use>
                </mask>
                <g id="Clip-347"></g>
                <path d="M233.3411,78.1726 C238.3701,78.1726 242.4491,74.0896 242.4491,69.0536 C242.4491,64.0166 238.3701,59.9336 233.3411,59.9336 C228.3111,59.9336 224.2331,64.0166 224.2331,69.0536 C224.2331,74.0896 228.3111,78.1726 233.3411,78.1726" id="Fill-346" fill="#E6E7E8" mask="url(#mask-232)"></path>
            </g>
            <g id="Group-351" transform="translate(0.000000, 0.135000)">
                <mask id="mask-234" fill="white">
                    <use xlink:href="#path-233"></use>
                </mask>
                <g id="Clip-350"></g>
                <path d="M256.3636,78.1726 C261.3946,78.1726 265.4716,74.0896 265.4716,69.0536 C265.4716,64.0166 261.3946,59.9336 256.3636,59.9336 C251.3346,59.9336 247.2566,64.0166 247.2566,69.0536 C247.2566,74.0896 251.3346,78.1726 256.3636,78.1726" id="Fill-349" fill="#E6E7E8" mask="url(#mask-234)"></path>
            </g>
            <g id="Group-354" transform="translate(0.000000, 0.135000)">
                <mask id="mask-236" fill="white">
                    <use xlink:href="#path-235"></use>
                </mask>
                <g id="Clip-353"></g>
                <path d="M279.387,78.1726 C284.417,78.1726 288.495,74.0896 288.495,69.0536 C288.495,64.0166 284.417,59.9336 279.387,59.9336 C274.358,59.9336 270.279,64.0166 270.279,69.0536 C270.279,74.0896 274.358,78.1726 279.387,78.1726" id="Fill-352" fill="#E6E7E8" mask="url(#mask-236)"></path>
            </g>
            <g id="Group-357" transform="translate(0.000000, 0.135000)">
                <mask id="mask-238" fill="white">
                    <use xlink:href="#path-237"></use>
                </mask>
                <g id="Clip-356"></g>
                <path d="M325.4339,78.1726 C330.4629,78.1726 334.5409,74.0896 334.5409,69.0536 C334.5409,64.0166 330.4629,59.9336 325.4339,59.9336 C320.4039,59.9336 316.3249,64.0166 316.3249,69.0536 C316.3249,74.0896 320.4039,78.1726 325.4339,78.1726" id="Fill-355" fill="#E6E7E8" mask="url(#mask-238)"></path>
            </g>
            <g id="Group-360" transform="translate(0.000000, 0.135000)">
                <mask id="mask-240" fill="white">
                    <use xlink:href="#path-239"></use>
                </mask>
                <g id="Clip-359"></g>
                <path d="M302.4104,78.1726 C307.4404,78.1726 311.5184,74.0896 311.5184,69.0536 C311.5184,64.0166 307.4404,59.9336 302.4104,59.9336 C297.3804,59.9336 293.3014,64.0166 293.3014,69.0536 C293.3014,74.0896 297.3804,78.1726 302.4104,78.1726" id="Fill-358" fill="#E6E7E8" mask="url(#mask-240)"></path>
            </g>
        </g>
    </g>
</svg>