<?xml version="1.0" encoding="UTF-8"?>
<svg width="15px" height="15px" viewBox="0 0 15 15" version="1.1" xmlns="http://www.w3.org/2000/svg" xmlns:xlink="http://www.w3.org/1999/xlink">
    <!-- Generator: Sketch 52.5 (67469) - http://www.bohemiancoding.com/sketch -->
    <title>ui-next</title>
    <desc>Created with Sketch.</desc>
    <g id="Page-1" stroke="none" stroke-width="1" fill="none" fill-rule="evenodd">
        <g id="ui-next" transform="translate(-1.000000, -1.000000)" fill="#868686">
            <path d="M8.00270292,1.47729708 L7.63937457,1.84148042 C7.37593753,2.10491746 7.37574637,2.5319743 7.63894746,2.79564708 L12.37895,7.545 L1.675,7.545 C1.30220779,7.545 1,7.84720779 1,8.22 L1,8.74 C1,9.11279221 1.30220779,9.415 1.675,9.415 L12.37895,9.415 L7.63894746,14.1643529 C7.37574637,14.4280257 7.37593753,14.8550825 7.63937457,15.1185196 L8.00270292,15.4827029 C8.26630682,15.7463068 8.69369318,15.7463068 8.95729708,15.4827029 L15.96,8.48 L8.95729708,1.47729708 C8.69369318,1.21369318 8.26630682,1.21369318 8.00270292,1.47729708 Z" id="Mask"></path>
        </g>
    </g>
</svg>