<?xml version="1.0" encoding="UTF-8"?>
<svg width="88px" height="88px" viewBox="0 0 88 88" version="1.1" xmlns="http://www.w3.org/2000/svg" xmlns:xlink="http://www.w3.org/1999/xlink">
    <!-- Generator: Sketch 52.5 (67469) - http://www.bohemiancoding.com/sketch -->
    <title>ui-video-play-button</title>
    <desc>Created with Sketch.</desc>
    <g id="Page-1" stroke="none" stroke-width="1" fill="none" fill-rule="evenodd">
        <g id="ui-video-play-button" fill="#000000" fill-rule="nonzero">
            <path d="M44.02,87.52 C24.002577,87.5701971 6.52142181,73.9863427 1.62526757,54.5768755 C-3.27088667,35.1674083 5.67539237,14.9170756 23.3214943,5.46642315 C40.9675962,-3.98422927 62.7816419,-0.208080928 76.2242127,14.624216 C89.6667835,29.456513 91.285553,51.535722 80.15,68.17 C79.5047317,69.2444439 78.3206879,69.8767691 77.0688734,69.815441 C75.8170588,69.7541128 74.7004939,69.0090774 74.1633407,67.876705 C73.6261875,66.7443326 73.7555621,65.4082723 74.5,64.4 C84.8283489,48.9066079 81.8463066,28.1235259 67.5782299,16.1593304 C53.3101532,4.19513481 32.3254418,4.88139966 18.8695479,17.7522547 C5.41365407,30.6231097 3.79587318,51.5566201 15.1144343,66.3420913 C26.4329955,81.1275626 47.0630913,85.0298977 63,75.4 C64.6071486,74.4279788 66.6979788,74.9428514 67.67,76.55 C68.6420212,78.1571486 68.1271486,80.2479788 66.52,81.22 C59.7365319,85.3364253 51.9547574,87.5153221 44.02,87.52 Z M40.39,61.79 L59.58,50.68 C61.944964,49.302516 63.3995898,46.7718809 63.3995898,44.035 C63.3995898,41.2981191 61.944964,38.767484 59.58,37.39 L40.4,26.26 C38.0274733,24.8902129 35.104032,24.8917581 32.7329547,26.2640526 C30.3618775,27.6363471 28.9041863,30.1704442 28.91,32.91 L28.91,55.16 C28.8889323,57.9056702 30.3447522,60.4509177 32.7220826,61.8247622 C35.099413,63.1986067 38.0315806,63.1891501 40.4,61.8 L40.39,61.79 Z M36.98,32.13 L56.15,43.26 C56.4198106,43.4204175 56.5851649,43.7111027 56.5851649,44.025 C56.5851649,44.3388973 56.4198106,44.6295825 56.15,44.79 L36.98,55.92 C36.7187805,56.0783111 36.3912195,56.0783111 36.13,55.92 C35.8504486,55.7662492 35.6805362,55.4689024 35.69,55.15 L35.69,32.9 C35.6805362,32.5810976 35.8504486,32.2837508 36.13,32.13 C36.2611461,32.0549167 36.4089262,32.0136757 36.56,32.01 C36.7075415,32.0160886 36.8515123,32.0572231 36.98,32.13 Z" id="Shape"></path>
        </g>
    </g>
</svg>